<svg xmlns="http://www.w3.org/2000/svg" width="33.503" height="30.153" viewBox="0 0 33.503 30.153">
  <path id="Icon_material-business-center" data-name="Icon material-business-center" d="M16.4,26.277V24.6H4.692l-.017,6.7a3.339,3.339,0,0,0,3.35,3.35H31.477a3.339,3.339,0,0,0,3.35-3.35V24.6H23.1v1.675ZM33.153,11.2H26.435V7.85L23.085,4.5h-6.7l-3.35,3.35V11.2H6.35A3.36,3.36,0,0,0,3,14.551v5.025a3.339,3.339,0,0,0,3.35,3.35H16.4v-3.35h6.7v3.35H33.153a3.36,3.36,0,0,0,3.35-3.35V14.551A3.36,3.36,0,0,0,33.153,11.2ZM23.1,11.2H16.4V7.85h6.7Z" transform="translate(-3 -4.5)" fill="#fff" opacity="0.5"/>
</svg>
