<svg xmlns="http://www.w3.org/2000/svg" xmlns:xlink="http://www.w3.org/1999/xlink" width="380.81" height="235.479" viewBox="0 0 380.81 235.479">
  <defs>
    <linearGradient id="linear-gradient" x1="0.5" x2="0.5" y2="1" gradientUnits="objectBoundingBox">
      <stop offset="0" stop-color="#aebaf8"/>
      <stop offset="1" stop-color="#aebaf8" stop-opacity="0"/>
    </linearGradient>
    <linearGradient id="linear-gradient-2" x1="0.5" x2="0.5" y2="1" gradientUnits="objectBoundingBox">
      <stop offset="0" stop-color="#c374f2"/>
      <stop offset="1" stop-color="#c374f2" stop-opacity="0"/>
    </linearGradient>
  </defs>
  <g id="Сгруппировать_818" data-name="Сгруппировать 818" transform="translate(-1045.924 -542.781)">
    <g id="Сгруппировать_701" data-name="Сгруппировать 701" opacity="0.5">
      <path id="Контур_15" data-name="Контур 15" d="M-1130.858,3325.1s-29.731,87.937-51.99,89.109-43.542-43.932-68.339-40.613-30.069,46.958-53.89,50.375-29.386-14.253-44.127-9.763-26.164,29.288-26.164,29.288-16.987,21.087-32.8,18.744-15.132-26.164-30.46-28.116-30.85,20.306-30.85,20.306" transform="translate(2547 -2782)" fill="none" stroke="#fff" stroke-width="2"/>
      <path id="Контур_16" data-name="Контур 16" d="M-1469.481,3454.433s15.523-22.259,30.85-20.306,14.644,25.773,30.46,28.116,32.8-18.744,32.8-18.744,11.422-24.8,26.164-29.288,20.307,13.18,44.127,9.763,29.093-47.056,53.89-50.375c19.838-2.656,37.426,25.68,55.3,36.664,4.174,2.566,8.586,4.183,13.038,3.948,22.259-1.171,50.6-83.563,50.6-83.563s19.452,25.2,8.781,68.166c-14.528,58.492-71.205,141.619-181.614,161.447C-1458.156,3535.268-1469.481,3454.433-1469.481,3454.433Z" transform="translate(2547 -2782)" fill="url(#linear-gradient)"/>
    </g>
    <g id="Сгруппировать_702" data-name="Сгруппировать 702" opacity="0.5">
      <path id="Контур_18" data-name="Контур 18" d="M-1497.6,3363.055s21.283-18.256,41.394-17.573,17.222,50.373,69.9,48.032,41.725-17.551,69.939-17.063,33.653,45.8,73.377,60.409,92.854-6.694,97.345-8.549,6.14-.823,6.14-.823-3.955,47.186-44.128,82.79c-29.321,25.986-89.866,42.451-124.182,45.689-80.742,7.619-126.134-37.879-166.357-88.255S-1497.6,3363.055-1497.6,3363.055Z" transform="translate(2547 -2782)" fill="url(#linear-gradient-2)"/>
      <path id="Контур_17" data-name="Контур 17" d="M-1497.6,3363.055s21.283-18.256,41.394-17.573,17.222,50.373,69.9,48.032,41.725-17.551,69.939-17.063,33.653,45.8,73.377,60.409,92.854-6.694,97.345-8.549,6.14-.823,6.14-.823" transform="translate(2547 -2782)" fill="none" stroke="#fff" stroke-width="2"/>
    </g>
  </g>
</svg>
