<svg xmlns="http://www.w3.org/2000/svg" xmlns:xlink="http://www.w3.org/1999/xlink" width="255.52" height="158.11" viewBox="0 0 255.52 158.11">
  <defs>
    <linearGradient id="linear-gradient" x1="0.5" x2="0.5" y2="1" gradientUnits="objectBoundingBox">
      <stop offset="0" stop-color="#b9fe75"/>
      <stop offset="1" stop-color="#b9fe75" stop-opacity="0"/>
    </linearGradient>
    <linearGradient id="linear-gradient-2" x1="0.5" x2="0.5" y2="1" gradientUnits="objectBoundingBox">
      <stop offset="0" stop-color="#ffd4a2"/>
      <stop offset="1" stop-color="#ffd4a2" stop-opacity="0"/>
    </linearGradient>
  </defs>
  <g id="Сгруппировать_819" data-name="Сгруппировать 819" transform="translate(-1038.05 -478.92)">
    <g id="Сгруппировать_701" data-name="Сгруппировать 701" transform="translate(1059.249 479.241)" opacity="0.5">
      <path id="Контур_15" data-name="Контур 15" d="M-1242.267,3325.1s-19.949,59.005-34.885,59.791-29.216-29.478-45.855-27.251-20.176,31.509-36.16,33.8-19.718-9.564-29.609-6.551-17.556,19.652-17.556,19.652-11.4,14.149-22.01,12.577-10.154-17.556-20.438-18.866-20.7,13.625-20.7,13.625" transform="translate(1469.481 -3325.102)" fill="none" stroke="#fff" stroke-width="2"/>
      <path id="Контур_16" data-name="Контур 16" d="M-1469.481,3413.707s10.416-14.936,20.7-13.625,9.826,17.293,20.438,18.866,22.01-12.577,22.01-12.577,7.664-16.639,17.556-19.652,13.625,8.844,29.609,6.551,19.521-31.574,36.16-33.8c13.311-1.782,25.113,17.231,37.106,24.6a15.367,15.367,0,0,0,8.749,2.649c14.936-.786,33.955-56.07,33.955-56.07s13.052,16.909,5.892,45.738c-9.748,39.248-47.778,95.025-121.861,108.33C-1461.882,3467.946-1469.481,3413.707-1469.481,3413.707Z" transform="translate(1469.481 -3326.926)" fill="url(#linear-gradient)"/>
    </g>
    <g id="Сгруппировать_702" data-name="Сгруппировать 702" transform="translate(1038.05 492.903)" opacity="0.5">
      <path id="Контур_18" data-name="Контур 18" d="M-1498.742,3357.267s14.281-12.25,27.775-11.791,11.556,33.8,46.9,32.229,28-11.777,46.929-11.449,22.581,30.728,49.236,40.534,62.3-4.492,65.318-5.736,4.12-.552,4.12-.552-2.653,31.662-29.61,55.552c-19.674,17.436-60.3,28.485-83.325,30.657-54.177,5.112-84.635-25.417-111.624-59.219S-1498.742,3357.267-1498.742,3357.267Z" transform="translate(1501.076 -3345.464)" fill="url(#linear-gradient-2)"/>
      <path id="Контур_17" data-name="Контур 17" d="M-1497.6,3357.267s14.281-12.25,27.775-11.791,11.556,33.8,46.9,32.229,28-11.777,46.929-11.449,22.581,30.728,49.236,40.534,62.3-4.492,65.318-5.736,4.12-.552,4.12-.552" transform="translate(1499.932 -3345.464)" fill="none" stroke="#fff" stroke-width="2"/>
    </g>
  </g>
</svg>
