<svg xmlns="http://www.w3.org/2000/svg" width="24.134" height="24.134" viewBox="0 0 24.134 24.134">
  <g id="Icon_ionic-ios-arrow-dropright" data-name="Icon ionic-ios-arrow-dropright" transform="translate(0 24.134) rotate(-90)">
    <path id="Контур_19" data-name="Контур 19" d="M.331.326a1.124,1.124,0,0,1,1.584,0L7.449,5.878a1.118,1.118,0,0,1,.035,1.543L2.031,12.892A1.118,1.118,0,1,1,.447,11.314l4.635-4.7L.331,1.9A1.107,1.107,0,0,1,.331.326Z" transform="translate(9.108 5.452)" fill="#aebaf8"/>
    <path id="Контур_20" data-name="Контур 20" d="M0,12.067A12.067,12.067,0,1,0,12.067,0,12.065,12.065,0,0,0,0,12.067Zm1.856,0A10.206,10.206,0,0,1,19.284,4.85,10.206,10.206,0,1,1,4.85,19.284,10.123,10.123,0,0,1,1.856,12.067Z" transform="translate(0 0)" fill="#aebaf8"/>
  </g>
</svg>
