<svg xmlns="http://www.w3.org/2000/svg" width="27.285" height="21.221" viewBox="0 0 27.285 21.221">
  <path id="Icon_awesome-credit-card" data-name="Icon awesome-credit-card" d="M0,21.2a2.274,2.274,0,0,0,2.274,2.274H25.011A2.274,2.274,0,0,0,27.285,21.2V12.861H0Zm9.095-3.221a.57.57,0,0,1,.568-.568h6.442a.57.57,0,0,1,.568.568v1.895a.57.57,0,0,1-.568.568H9.663a.57.57,0,0,1-.568-.568Zm-6.063,0a.57.57,0,0,1,.568-.568H7.011a.57.57,0,0,1,.568.568v1.895a.57.57,0,0,1-.568.568H3.6a.57.57,0,0,1-.568-.568ZM27.285,4.524V6.8H0V4.524A2.274,2.274,0,0,1,2.274,2.25H25.011A2.274,2.274,0,0,1,27.285,4.524Z" transform="translate(0 -2.25)" fill="#cdab83"/>
</svg>
