<svg xmlns="http://www.w3.org/2000/svg" width="35.13" height="35.116" viewBox="0 0 35.13 35.116">
  <path id="Icon_simple-cashapp" data-name="Icon simple-cashapp" d="M33.547,4.935A7.253,7.253,0,0,0,29.209.6c-1.863-.6-3.555-.6-7-.6H11.889C8.476,0,6.755,0,4.92.569A7.253,7.253,0,0,0,.583,4.92C0,6.769,0,8.476,0,11.889V22.227c0,3.427,0,5.119.569,6.968a7.253,7.253,0,0,0,4.337,4.337c1.849.583,3.555.583,6.968.583H22.227c3.427,0,5.134,0,6.968-.569A7.253,7.253,0,0,0,33.547,29.2c.583-1.849.583-3.555.583-6.968V11.917c0-3.427,0-5.134-.583-6.982Zm-8.774,6.584L23.45,12.841a.711.711,0,0,1-.953.014,7.11,7.11,0,0,0-4.579-1.678c-1.379,0-2.759.455-2.759,1.721s1.479,1.706,3.185,2.346c2.986,1,5.461,2.247,5.461,5.176,0,3.185-2.474,5.375-6.513,5.617l-.37,1.706a.7.7,0,0,1-.683.555H13.695l-.128-.014a.711.711,0,0,1-.54-.839l.4-1.806a9.3,9.3,0,0,1-4.1-2.233v-.014a.683.683,0,0,1,0-.967l1.422-1.379a.7.7,0,0,1,.953,0,6.877,6.877,0,0,0,4.821,1.877c1.849,0,3.086-.782,3.086-2.019S18.359,19.34,16,18.459c-2.5-.9-4.878-2.162-4.878-5.119,0-3.441,2.858-5.119,6.243-5.276l.356-1.749a.683.683,0,0,1,.683-.54h2.531l.142.014A.681.681,0,0,1,21.6,6.6l-.384,1.948a10.673,10.673,0,0,1,3.527,1.977l.028.028a.678.678,0,0,1,0,.967Z" transform="translate(0.5 0.5)" fill="#fff" stroke="rgba(0,0,0,0)" stroke-width="1"/>
</svg>
