<svg xmlns="http://www.w3.org/2000/svg" width="41.389" height="41.388" viewBox="0 0 41.389 41.388">
  <g id="Сгруппировать_716" data-name="Сгруппировать 716" transform="translate(0 0)">
    <g id="Сгруппировать_715" data-name="Сгруппировать 715" transform="translate(0 0)">
      <path id="Контур_542" data-name="Контур 542" d="M180.594,160v2.574h5.149v23.168H162.574v-5.149H160v7.723h28.317V160Z" transform="translate(-146.929 -146.928)" fill="#fff"/>
      <rect id="Прямоугольник_1018" data-name="Прямоугольник 1018" width="2" height="2" transform="translate(26 0)" fill="#fff"/>
      <rect id="Прямоугольник_1019" data-name="Прямоугольник 1019" width="3" height="2" transform="translate(5 0)" fill="#fff"/>
      <rect id="Прямоугольник_1020" data-name="Прямоугольник 1020" width="2" height="2" transform="translate(11 0)" fill="#fff"/>
      <rect id="Прямоугольник_1021" data-name="Прямоугольник 1021" width="3" height="2" transform="translate(5 26)" fill="#fff"/>
      <rect id="Прямоугольник_1022" data-name="Прямоугольник 1022" width="4" height="2" transform="translate(15 0)" fill="#fff"/>
      <rect id="Прямоугольник_1023" data-name="Прямоугольник 1023" width="2" height="2" transform="translate(21 0)" fill="#fff"/>
      <rect id="Прямоугольник_1024" data-name="Прямоугольник 1024" width="2" height="2" transform="translate(0 0)" fill="#fff"/>
      <rect id="Прямоугольник_1025" data-name="Прямоугольник 1025" width="2" height="4" transform="translate(0 15)" fill="#fff"/>
      <rect id="Прямоугольник_1026" data-name="Прямоугольник 1026" width="2" height="2" transform="translate(0 21)" fill="#fff"/>
      <rect id="Прямоугольник_1027" data-name="Прямоугольник 1027" width="2" height="2" transform="translate(0 11)" fill="#fff"/>
      <rect id="Прямоугольник_1028" data-name="Прямоугольник 1028" width="2" height="3" transform="translate(0 5)" fill="#fff"/>
      <rect id="Прямоугольник_1029" data-name="Прямоугольник 1029" width="2" height="3" transform="translate(26 5)" fill="#fff"/>
      <rect id="Прямоугольник_1030" data-name="Прямоугольник 1030" width="2" height="2" transform="translate(0 26)" fill="#fff"/>
      <path id="Контур_543" data-name="Контур 543" d="M108.739,116.8l3.336,3.339,11.833-11.833-3.426-3.425-1.823-5.465-6.28-6.28L99.684,98.364a3.861,3.861,0,0,0-2.1,5.04q.041.1.086.195l-.154.156a5.149,5.149,0,0,0,0,7.281h0l4.853,4.854ZM98.58,107.4a2.556,2.556,0,0,1,.754-1.82l4.551,4.551,1.82-1.821-5.461-5.461a1.287,1.287,0,0,1,.42-2.1l11.109-4.573,4.634,4.634,1.82,5.461,2.036,2.035-8.193,8.193-2.124-2.124-6.37-.91-4.248-4.248A2.553,2.553,0,0,1,98.58,107.4Z" transform="translate(-88.083 -85.443)" fill="#fff"/>
    </g>
  </g>
</svg>
