<svg xmlns="http://www.w3.org/2000/svg" width="19.625" height="51.464" viewBox="0 0 19.625 51.464">
  <g id="Сгруппировать_2562" data-name="Сгруппировать 2562" transform="translate(19.625 0) rotate(90)">
    <path id="Вычитание_36" data-name="Вычитание 36" d="M16.819,19.624h0L0,9.811,16.819,0V5.139h5.607a13.135,13.135,0,0,0,0,9.345H16.819v5.14Zm34.645-5.14H46.872a13.137,13.137,0,0,0,0-9.345h4.592v9.345Z" transform="translate(0 0)" fill="#eaeaea"/>
    <path id="Icon_awesome-user-alt" data-name="Icon awesome-user-alt" d="M9.812,8.586a5.519,5.519,0,1,1-5.519,5.519A5.521,5.521,0,0,1,9.812,8.586Zm4.906-1.227H12.607a6.672,6.672,0,0,0-5.588,0H4.906A4.906,4.906,0,0,1,0,2.453V1.84A1.84,1.84,0,0,1,1.84,0H17.785a1.84,1.84,0,0,1,1.84,1.84v.613A4.906,4.906,0,0,1,14.719,7.359Z" transform="translate(43.996 0) rotate(90)" fill="#eaeaea"/>
  </g>
</svg>
