<svg xmlns="http://www.w3.org/2000/svg" width="60.629" height="17.814" viewBox="0 0 60.629 17.814">
  <g id="Сгруппировать_829" data-name="Сгруппировать 829" transform="translate(-388 -802.89)">
    <g id="Сгруппировать_811" data-name="Сгруппировать 811" transform="translate(844.954 1587.913)" opacity="0.2">
      <path id="Контур_24" data-name="Контур 24" d="M-6.425-781.795H-7.3l-7.206,0c-.289,0-.284,0-.337.291-.15.823-.3,1.645-.456,2.468-.06.326-.116.653-.179,1.011h7.22c-.078.423-.149.814-.222,1.2-.114.614-.237,1.226-.339,1.842-.027.163-.088.2-.243.2q-3.3-.008-6.606,0c-.389,0-.395,0-.465.383-.238,1.306-.473,2.613-.713,3.944h7.2l-.607,3.244H-21.224q.157-.849.314-1.695c.2-1.078.4-2.157.6-3.235.147-.784.3-1.565.451-2.349.211-1.122.415-2.246.624-3.369.165-.882.335-1.764.5-2.646.17-.914.333-1.829.5-2.743q.155-.832.325-1.661c.009-.044.076-.09.126-.107a.568.568,0,0,1,.179,0H4.7c-.045.251-.086.489-.13.726-.143.771-.291,1.541-.426,2.313-.027.154-.09.189-.236.189-2.135,0-4.27,0-6.405-.007-.171,0-.252.024-.284.222-.14.865-.3,1.727-.458,2.589-.045.248-.1.5-.142.744-.012.064-.016.13-.027.226H3.175l-.6,3.233H2.318c-2.015,0-4.03,0-6.045-.005-.2,0-.283.048-.319.261-.179,1.054-.379,2.1-.57,3.157-.054.3-.1.6-.158.927H2.152l-.6,3.227H-9.15Z" transform="translate(-418.286)" fill="#fff"/>
      <path id="Контур_25" data-name="Контур 25" d="M606.864-727.365a10.768,10.768,0,0,0-1.413-.358,5.416,5.416,0,0,0-3.6.568,5.478,5.478,0,0,0-1.98,2.4,4.395,4.395,0,0,0,.358,3.861,5.1,5.1,0,0,0,1.446,1.247,2.4,2.4,0,0,0,1.464.207.658.658,0,0,1,.159-.013c.509.083.731-.2.944-.623,1.115-2.243,2.277-4.463,3.4-6.7.557-1.114,1.063-2.253,1.585-3.384a.273.273,0,0,1,.3-.191c1.107.018,2.215.024,3.322.035.046,0,.091.006.161.011l1.678,13.368H611.6l-.271-3.268c-.074,0-.132-.011-.19-.011-1.148,0-2.3,0-3.443,0a.239.239,0,0,0-.264.174c-.438,1.059-.886,2.113-1.326,3.171a.239.239,0,0,1-.259.182c-1.281-.008-2.562,0-3.843-.01-.466,0-.933-.038-1.4-.082a2.926,2.926,0,0,1-1.18-.466,7.2,7.2,0,0,1-1.792-1.395,5.519,5.519,0,0,1-1.263-2.66,7.009,7.009,0,0,1,.261-3.883,12.072,12.072,0,0,1,.991-1.821A6.6,6.6,0,0,1,600-729.4a7.988,7.988,0,0,1,2.721-.885,10.769,10.769,0,0,1,2.831-.075,5.534,5.534,0,0,1,1.557.418c.171.07.344.137.533.212Zm4.262,4.72c-.127-1.542-.252-3.061-.377-4.578-.211-.062-.323-.021-.41.19-.569,1.393-1.155,2.779-1.734,4.167-.029.069-.053.14-.083.22Z" transform="translate(-1011.005 -52.422)" fill="#fff"/>
      <path id="Контур_26" data-name="Контур 26" d="M-452.052-722.6h4.654l-.494,2.574h-.255c-1.428,0-2.856,0-4.284,0-.143,0-.2.033-.237.186-.349,1.594-.708,3.186-1.062,4.779-.021.1-.027.173-.164.173-1-.006-2,0-3-.006a.269.269,0,0,1-.057-.019c.074-.34.146-.682.222-1.024q.693-3.121,1.388-6.243.584-2.624,1.171-5.247a6.107,6.107,0,0,0,.132-.6c.021-.178.1-.206.263-.205q4.154.007,8.307,0h3.391l-2.4,10.767h4.92l-.494,2.564h-8.191l2.392-10.751h-5.523Z" transform="translate(0 -54.515)" fill="#fff"/>
    </g>
  </g>
</svg>
