<svg xmlns="http://www.w3.org/2000/svg" width="23.533" height="23.532" viewBox="0 0 23.533 23.532">
  <g id="Объединение_8" data-name="Объединение 8" transform="translate(23.532) rotate(90)" fill="none">
    <path d="M8,23.532v-8H0V8H8V0h7.531V8h8v7.53h-8v8Z" stroke="none"/>
    <path d="M 13.53125286102295 21.53222465515137 L 13.53125286102295 15.53222465515137 L 13.53125286102295 13.53222465515137 L 15.53125286102295 13.53222465515137 L 21.53222274780273 13.53222465515137 L 21.53222274780273 10.00195503234863 L 15.53125286102295 10.00195503234863 L 13.53125286102295 10.00195503234863 L 13.53125286102295 8.001955032348633 L 13.53125286102295 1.999024987220764 L 10.00000286102295 1.999024987220764 L 10.00000286102295 8.001955032348633 L 10.00000286102295 10.00195503234863 L 8.000002861022949 10.00195503234863 L 2.000003337860107 10.00195503234863 L 2.000003337860107 13.53222465515137 L 8.000002861022949 13.53222465515137 L 10.00000286102295 13.53222465515137 L 10.00000286102295 15.53222465515137 L 10.00000286102295 21.53222465515137 L 13.53125286102295 21.53222465515137 M 15.53125286102295 23.53222465515137 L 8.000002861022949 23.53222465515137 L 8.000002861022949 15.53222465515137 L 3.281249973952072e-06 15.53222465515137 L 3.281249973952072e-06 8.001955032348633 L 8.000002861022949 8.001955032348633 L 8.000002861022949 -0.0009749999735504389 L 15.53125286102295 -0.0009749999735504389 L 15.53125286102295 8.001955032348633 L 23.53222274780273 8.001955032348633 L 23.53222274780273 15.53222465515137 L 15.53125286102295 15.53222465515137 L 15.53125286102295 23.53222465515137 Z" stroke="none" fill="#fff"/>
  </g>
</svg>
