<svg id="Сгруппировать_802" data-name="Сгруппировать 802" xmlns="http://www.w3.org/2000/svg" width="44.421" height="35.731" viewBox="0 0 44.421 35.731">
  <g id="Сгруппировать_755" data-name="Сгруппировать 755" transform="translate(0)">
    <g id="Сгруппировать_752" data-name="Сгруппировать 752" transform="translate(0 0)" opacity="0.5">
      <path id="Объединение_1" data-name="Объединение 1" d="M0,35.731V31.86H11.053v3.871Zm.908-5.595V27.7H0V12.9H11.054V27.7h-.908v2.439ZM0,11.181v-.438A13.254,13.254,0,0,1,2.348,3.136,11.568,11.568,0,0,1,5.019.37L5.528,0l.507.37A11.537,11.537,0,0,1,8.706,3.138a13.25,13.25,0,0,1,2.348,7.6v.44Z" transform="translate(16.683)" fill="#fff"/>
      <path id="Объединение_2" data-name="Объединение 2" d="M0,35.731V31.86H11.053v3.871Zm.908-5.595V27.7H0V12.9H11.054V27.7h-.908v2.439ZM0,11.181v-.438A13.254,13.254,0,0,1,2.348,3.136,11.568,11.568,0,0,1,5.019.37L5.528,0l.507.37A11.537,11.537,0,0,1,8.706,3.138a13.25,13.25,0,0,1,2.348,7.6v.44Z" transform="translate(33.367)" fill="#fff"/>
      <path id="Объединение_3" data-name="Объединение 3" d="M0,35.731V31.86H11.053v3.871Zm.908-5.595V27.7H0V12.9H11.054V27.7h-.908v2.439ZM0,11.181v-.438A13.254,13.254,0,0,1,2.348,3.136,11.568,11.568,0,0,1,5.019.37L5.528,0l.507.37A11.537,11.537,0,0,1,8.706,3.138a13.25,13.25,0,0,1,2.348,7.6v.44Z" fill="#fff"/>
    </g>
  </g>
</svg>
