<svg xmlns="http://www.w3.org/2000/svg" xmlns:xlink="http://www.w3.org/1999/xlink" width="962.723" height="446.748" viewBox="0 0 962.723 446.748">
  <defs>
    <linearGradient id="linear-gradient" x1="0.5" x2="0.5" y2="1" gradientUnits="objectBoundingBox">
      <stop offset="0"/>
      <stop offset="1" stop-color="#545454" stop-opacity="0"/>
    </linearGradient>
  </defs>
  <g id="Сгруппировать_2319" data-name="Сгруппировать 2319" transform="translate(0.002 -126.035)">
    <path id="Контур_136" data-name="Контур 136" d="M-2445.75-5412.817c6.115.158,12.1,1.339,18.074,2.487,2.527.486,4.018-.072,5.261-2.344,4.743-8.671,12.237-15.159,18.316-22.775.149-.187.358-.327.506-.514,9.23-11.712,22.594-16.71,35.787-21.935a27.562,27.562,0,0,1,16.938-1.13,46.863,46.863,0,0,0,12.441.912,3.151,3.151,0,0,1,3.166,1.635c1.191,1.943,3.449,2.836,5.446,3.267,3.143.679,5.779,2.285,8.624,3.525A136.425,136.425,0,0,1-2299.4-5437.2a18.67,18.67,0,0,1,5.513,5.863c4.611,7.7,8.785,15.67,13.948,23.042,1.929,2.755,1.808,6.117,2.158,9.27,1.037,9.315,1.836,18.656,2.863,27.973.559,5.066-.862,9.871-1.583,14.769q-.718,4.876-1.766,9.7c-.335,1.549.009,2.341,1.552,2.889a241.9,241.9,0,0,1,35.672,16.166,68.653,68.653,0,0,1,12.442,8.9c2.38,2.107,2.278,4.528.145,6.945a10.4,10.4,0,0,0-2.283,3.629c-.734,2.241-2.9,3.115-4.51,4.517-.521.453-1.458.758-1.253,1.6.257,1.053,1.31.7,2.045.734,1.682.069,3.373-.043,5.051.057,1.818.107,2.712-.543,2.614-2.459-.039-.75-.144-1.83.893-1.967s1.534.817,1.772,1.663a9.832,9.832,0,0,1,.294,2.607c.013,4.091.049,8.184-.065,12.271-.054,1.926.576,2.657,2.582,2.771,15.037.862,30.067,1.834,45.1,2.773q15.71.982,31.419,1.981c.729.047,1.608-.286,2.192.585-.767.945-1.844.218-2.733.612.709.839,2.063.235,2.76,1.13-.62.859-1.362.425-2.034.4-.542-.019-1.275-.251-1.384.518-.125.869.653.937,1.294,1.058.683.128,1.457-.133,2.149.553-.577.973-1.623.295-2.393.727.083.818,1.3.33,1.429,1.1-.366,1-1.586-.027-2.127,1.062,1.193.852,2.594.329,3.846.524,1.589.246,2.464.59,1.164,2.4a10.158,10.158,0,0,1-6.242,3.751,2.53,2.53,0,0,0-2.19,2.408c-.523,3.738-1.179,7.555-.522,11.244a18.788,18.788,0,0,1-.212,5.548c-.136,1.325-.507,2.536.63,3.81.919,1.031-.2,2.372-.765,3.262-.55.858-1.353-.269-2-.6-1.071-.551-2.005-1.333-2.76.528-.356.875-1.537.722-2.39.334-2.013-.915-3.754.161-5.56.72-.819.253-1.01.991-1.011,1.743-.006,3.689.021,7.379.015,11.068,0,1.7,1.093,1.926,2.425,1.879,5.044-.179,10.114-.1,15.124-.6,5.2-.525,10.4-.354,15.6-.671,6.153-.376,12.316-.65,18.472-1.062,1.148-.076,1.752-.2,1.456-1.669a26.261,26.261,0,0,1-.235-4.787,2.769,2.769,0,0,1,1.634-2.933,2.477,2.477,0,0,0,1.295-2.641c-.174-4.869.449-9.751-.737-14.612-.519-2.125-.163-4.467-.176-6.711-.009-1.533,1.011-1.81,2.269-1.8,2.727.011,5.454-.005,8.181,0,1.171,0,2.26-.053,2.6-1.527.271-1.179,1.257-1.345,2.265-1.347q7.1-.014,14.2,0c.319,0,.748-.057.938.118,1.728,1.585,3.411,3.158,6,3.2.473.007.48.917.561,1.476,1.033,7.067,1.038,14.2,1.371,21.314.1,2.1.826,2.986,2.865,2.748,1.917-.224,3.08.452,3.283,2.491.351,3.519,3.552,6.128,3.187,9.891a.79.79,0,0,0,.335.605c1.8,1.1,3.58-.037,5.365-.136,1.21-.067,1.423-1.167,1.388-2.181-.079-2.249,1.405-4.248.91-6.6-.241-1.144.894-1.076,1.682-1.136,2.736-.21,5.436.364,8.155.4,5.614.076,11.23.035,16.845.013,2.928-.013,3.2-.275,3.21-3.147.024-4.812.059-9.626-.02-14.438-.034-2.045.564-3.189,2.823-3.174,4.155.027,8.312-.082,12.457.333.385.038,1.007.25,1.119.1,2.275-3.176,5.8-1.457,8.682-2.15,1.6-.384,2.3-.728,1.984-2.4a10.714,10.714,0,0,1-.043-1.921c-.022-4.8-.016-4.778,4.544-6.15a4.066,4.066,0,0,0,2.091-1.111c2.063-2.883,5.016-1.878,7.712-1.9,1.344-.012,1.9,1.083,2.228,2.2.709,2.38,2.237,3.388,4.7,2.968a6.06,6.06,0,0,1,.961-.014c4.344-.018,4.484.146,3.858,4.546-.556,3.914.482,5.111,4.472,5.135,1.845.011,3.7-.1,5.533.029,2.5.173,4.972,1.447,4.884,4.917-.237,9.379-.049,18.768-.092,28.153a6.5,6.5,0,0,0,1.958,5.089c0-5.541,0-10.776,0-16.011,0-3.786.374-4.205,4.25-4.341,2.324-.082,4.651-.046,6.978-.064,3.646-.028,3.654-.028,3.655-3.577q0-17.205-.011-34.412c0-1.871-.28-3.795,2.45-4.077.839-.087.922-1.03.951-1.757.074-1.892,1.182-2.422,2.883-2.381,2.084.051,4.171.006,6.256-.019a6.707,6.707,0,0,0,4.815-1.426c2.98-2.5,9.262.675,9.594,4.593a30.972,30.972,0,0,1,.043,3.607c-.055,1.7.1,3.143,2.1,3.8,1.41.463,1.266,1.889,1.266,3.1q0,12.634,0,25.267c0,12.754.046,25.51-.065,38.262-.021,2.415.678,3.2,3.127,3.18,5.715-.055,5.709.065,6.722,5.755.168.946.525,1.867.618,2.817.227,2.294,1.864,2.035,3.384,1.935,2.038-.133,1.045-1.6,1.23-2.672.559-3.233-.148-6.526.607-9.745a11.585,11.585,0,0,0,.173-3.1c-.861-20.122-.282-40.253-.256-60.378.006-4.156-.326-8.3-.185-12.465.066-1.962.635-3.061,2.7-3.09a8.62,8.62,0,0,0,1.181-.22c3.728-.594,3.714-.6,4.425-4.341.1-.526.293-1.272.675-1.47,2.793-1.449,2.466-4.105,2.522-6.514.108-4.73.044-9.464.026-14.2-.006-1.471.012-2.882,1.316-3.93a2.619,2.619,0,0,0,.671-2.229c.008-1.523-.109-3.059.036-4.569.182-1.887-.725-3.92,1.236-5.577,2.978-2.518,6.052-2.144,9.58-1.493,4.965.917,5.042,4.272,5,8.007-.025,2,.015,4.01.007,6.016a3.166,3.166,0,0,0,1.062,2.8c1.031.806.979,2.02.848,3.111-.667,5.557,1.424,10.925,1.064,16.456a1.559,1.559,0,0,0,.956,1.779c3.848,1.143,4.3,4.218,4.3,7.512q.017,29.959,0,59.919c0,3.564.012,3.566,3.66,3.54,3.449-.024,6.9-.1,10.347-.065,1.7.017,2.629-.27,2.524-2.4-.091-1.814.089-3.654-.117-5.492a3.605,3.605,0,0,1,1.225-3.668c1.012-.774.495-2.094.677-3.172.4-2.375.381-4.911,2.746-6.526a4.093,4.093,0,0,1,2.44-.777c2.647,0,5.295.043,7.941-.016,1.771-.039,2.766.6,2.678,2.5-.065,1.42.469,2.5,2.043,2.258,3.16-.486,4.049,1.521,4.547,3.941.589,2.869,2.636,5.258,2.625,8.337,0,.957.909,1.289,1.778,1.205,1.353-.131,2.7-.346,4.042-.569.586-.1,1.173-.465,1.163-1.061-.034-2.2,1.3-4.205,1.059-6.333-.273-2.38.8-2.737,2.716-2.575,7.679.653,15.356-.271,23.038-.05,3.531.1,3.677-.131,3.685-3.629.01-4.732.049-9.466-.018-14.2-.029-2.043.789-2.913,2.852-2.87,4.316.089,8.635.057,12.953.106.429,0,.821.032,1.054-.358.818-1.377,2.18-1.071,3.436-1.184,8.255-.743,6.55.205,6.684-6.711.063-3.225.293-3.638,3.469-3.84a5.092,5.092,0,0,0,3.569-1.758c2.375-2.648,5.343-1.454,8.106-1.364.974.031,1.164,1.228,1.469,2.035.829,2.2,2.2,3.477,4.722,3a6.7,6.7,0,0,1,1.2-.022c3.969-.018,4.252.322,3.625,4.332-.65,4.151.384,5.218,4.7,5.39,2.59.1,5.237-.643,7.786.71a3.931,3.931,0,0,1,2.322,4c-.072,9.464,0,18.93-.052,28.4a6.394,6.394,0,0,0,1.906,4.977c.524-1.277,0-2.434.021-3.543.066-4.411.02-8.823.038-13.234.012-2.761.547-3.375,3.364-3.489,2.884-.117,5.779-.181,8.66-.057,2.254.1,2.9-.836,2.885-2.977-.071-11.872-.03-23.743-.044-35.615,0-1.653-.153-3.277,2.2-3.5.961-.091,1.153-1.045,1.169-1.87.035-1.817,1.1-2.285,2.692-2.261,2.165.033,4.331-.008,6.5-.028a6.9,6.9,0,0,0,4.818-1.435c3.123-2.528,9.284.728,9.59,4.817a32.662,32.662,0,0,1,.028,3.608c-.059,1.608.029,2.954,2,3.549,1.675.506,1.361,2.166,1.362,3.5q.013,23.1,0,46.2c0,5.775.056,11.552-.054,17.326-.04,2.094.678,2.74,2.774,2.8,5.9.168,5.989-1.205,7.088,5.9.122.792.3,1.577.472,2.359a2.84,2.84,0,0,0,4.1,2.193,1.162,1.162,0,0,0,.8-1.3c-.3-4.45.406-8.866.439-13.3.036-4.963-.117-9.927-.209-14.891-.085-4.572.486-9.149.33-13.69-.5-14.593-.208-29.185-.333-43.776-.036-4.179.1-4.319,4.147-4.76,3.564-.389,3.57-.388,4.067-4.013.1-.739.212-1.573.918-1.86,2.013-.818,1.852-2.474,1.979-4.193a86.885,86.885,0,0,0,0-16.56,2.642,2.642,0,0,1,.51-2.292c2.355-1.967,1.81-4.6,1.842-7.109.011-.882,0-1.765,0-2.646.016-3.871,2.289-6,6.133-6.171,2.845-.125,5.345,1.011,7.89,1.833,1.665.537,1.726,2.584,1.782,4.175.1,2.8.042,5.614.038,8.422a3.393,3.393,0,0,0,1.08,3.033c1.024.8.963,2.027.834,3.119-.656,5.555,1.412,10.923,1.073,16.453a1.561,1.561,0,0,0,.972,1.771c3.689,1.121,4.272,4.058,4.274,7.292q.015,30.08-.006,60.161c0,3.511.014,3.523,3.45,3.506,3.529-.017,7.061-.135,10.587-.049,2.121.052,2.872-.831,2.779-2.866-.1-2.161,0-4.331-.025-6.5-.019-1.455.555-1.919,2.063-1.8,3.784.307,3.958-.075,4.257-3.863.358-4.544.269-9.141,1.284-13.619.634-2.8,2.1-3.38,4.467-1.814,1.46.966,2.781,1.143,4-.343.2-.244.438-.606.69-.634,3.54-.4,3.047-3,3.044-5.4q-.036-25.389-.028-50.775c0-3.232,0-3.256,3.187-3.321,1.323-.027,2.416-.235,2.569-1.848.119-1.258,1.007-1.452,2.06-1.516,5.2-.314,10.4-.57,15.616-.436,2.306.06,4.315.521,5.231,2.979a1.962,1.962,0,0,0,2.083,1.3,17.681,17.681,0,0,0,3.839-.05c5.378-1.3,10.025,1.417,14.946,2.573,1.539.361,2.449,2.952,1.661,4.922a12.26,12.26,0,0,0-.667,4.713q-.028,30.081-.03,60.16c0,2.413-.21,4.8-.4,7.2-.08,1.031-.1,2.254,1.459,2.224,1.361-.026,1.377-1.109,1.4-2.091.032-1.363-.006-2.728.047-4.09a3.114,3.114,0,0,1,1.782-3.133c1.526-.679,1.39-2.148,1.513-3.518.5-5.547-.832-10.986-.936-16.484-.123-6.48-.7-5.65,5.556-5.705,1.444-.013,2.888-.02,4.332,0,1.488.024,2.857.084,3.282-1.92.253-1.195,1.533-.949,2.462-.953,5.21-.025,10.419-.018,15.629-.021q0,77.717.041,155.435c0,1.579-.222,2.005-1.934,2.005q-479.416-.077-958.832,0c-1.678,0-1.959-.372-1.955-1.987q.1-35.128.045-70.258a14.887,14.887,0,0,1,3.512.728c2.449.538,3.514-.174,3.891-2.508,1.252-7.741,1.977-15.554,3.086-23.311,1.393-9.748,2.007-19.575,3.351-29.323.221-1.605-.385-2.352-2.092-2.39-3.917-.089-7.833-.307-11.749-.473v-62.571c4.72-.379,9.391.586,14.1.5.885-.016,2.075.925,2.583-.166.4-.854-.706-1.666-1.145-2.5a2.648,2.648,0,0,0-2.417-1.29c-4.373-.308-8.746-.592-13.119-.884v-8.183c2.805-.021,5.611-.017,8.417-.07,2.655-.05,2.8-.247,2.159-2.816a152.677,152.677,0,0,1-4.405-38.09c.028-6.464,1.6-6.1-6.17-6.674v-12.514c1.832.14,3.664.285,5.5.42,1.5.111,2.4-.415,2.583-2.081a77.822,77.822,0,0,1,6.075-21.895c.75-1.767.255-2.5-1.546-2.727-4.206-.521-8.406-1.087-12.609-1.635Zm197.04,93.648c-4.35-1.874-8.155-3.528-11.971-5.155-6.118-2.609-12.253-5.178-18.36-7.814-1.742-.752-2.59-.363-3.047,1.551a20.668,20.668,0,0,1-2.081,5.86,5.864,5.864,0,0,0-1.038,4.267c.446,2.008-.457,3.521-.978,5.268-.776,2.6-2.823,1.8-4.494,2.178a3.83,3.83,0,0,0-2.968,3.389c-.115,1.329,1.688,1.158,2.69,1.369,6.594,1.386,13.134,3.006,19.558,5.011a16.321,16.321,0,0,0,9.852.017,56.752,56.752,0,0,0,18.28-8.809c.839-.624,1.76-1.313,1.424-2.546-.355-1.3-1.543-.914-2.434-.94-2.163-.064-4.329-.058-6.494-.03a1.857,1.857,0,0,1-2.135-1.772c-.2-1.466,1-1.136,1.761-1.34C-2250.534-5318.831-2249.9-5318.927-2248.711-5319.169Zm-164.841,85.417c-.012-.841.231-1.951-.846-2.253a12.634,12.634,0,0,0-7.556-.166,2.493,2.493,0,0,0-1.622,2.438c-.424,5.028-1.549,9.955-2.179,14.963-1.457,11.591-3.264,23.138-4.916,34.7-.707,4.959-.692,4.961,4.236,5.19.32.015.64.03.959.066,3.665.411,3.575.4,4.137-3.236,1.359-8.778,2.628-17.576,4.278-26.3A188,188,0,0,0-2413.552-5233.752Zm119.535-150.9c-.03-1.229-.641-2.525-1.967-4.835a2.327,2.327,0,0,0-3.169-1.2c-10.329,3.133-18.912,9.339-27.521,15.507-.445.319-.963.634-.641,1.354.473,1.055,3.869,2.59,4.958,2.142q13.572-5.581,27.128-11.2C-2294.419-5383.222-2293.786-5383.628-2294.018-5384.653Zm-94.058,32.256-.19-.571c-.46.053-.921.11-1.382.157-7.675.789-14.72,3.76-21.865,6.361-7.6,2.768-6.145,1.23-6.323,9.228-.045,2.005.762,2.087,2.344,1.43,4.364-1.813,8.72-3.555,12.593-6.4C-2398.069-5345.75-2393.026-5349.011-2388.075-5352.4Zm61.547-40.668c8.3-5.547,16.137-10.767,23.948-16.022a24.527,24.527,0,0,0,1.934-1.792,2.311,2.311,0,0,0,.577-3.008,2.4,2.4,0,0,0-2.539-1.734,48.626,48.626,0,0,1-6.233-.011,2.465,2.465,0,0,0-2.547,1.25c-3.089,4.28-6.333,8.452-9.344,12.784C-2322.578-5398.945-2324.823-5396.551-2326.529-5393.065Zm71.905,192.821c0,3.67,0,6.869,0,10.067,0,1.061.151,2.044,1.566,1.73,1.134-.251,2.959.849,3.125-1.479.68-9.557,1.875-19.078,2-28.673.019-1.383-.068-2.686-1.958-2.531-1.684.137-3.572-.232-3.826,2.464A135.433,135.433,0,0,0-2254.624-5200.244ZM-2379.8-5366.705l.122-.5q-15.814-6.346-31.627-12.693c-1.007-.4-1.273.1-1.717.971-1.306,2.557.612,4.576.859,6.854.164,1.507.89,1.977,2.321,2.119,5.337.533,10.659,1.2,15.99,1.787C-2389.172-5367.658-2384.486-5367.191-2379.8-5366.705Zm-4.659-6.864.182-.5q-9.056-7.695-18.11-15.394c-5.969-5.1-5.958-5.111-8.228,2.525-.839,2.82-.2,4.171,2.611,5.172,4.833,1.721,9.692,3.369,14.538,5.052Q-2388.961-5375.147-2384.46-5373.569Zm-18.417,142.095-.075-.006c0-.8.013-1.6,0-2.4-.02-1.005-.119-1.975-1.429-2.109-1.4-.145-1.721.764-1.96,1.893a21.454,21.454,0,0,0-.385,4.78,262.911,262.911,0,0,1-1.366,33.819c-.558,4.848-1.03,9.708-1.472,14.568-.1,1.1-.152,2.425,1.555,2.39,1.585-.034,1.626-1.236,1.662-2.405.172-5.441.258-10.887.553-16.321.277-5.111.744-10.214,1.187-15.315C-2404.066-5218.885-2403.458-5225.178-2402.877-5231.474Zm-13.848-154.381c1.342,0,2.6.04,3.136-1.6.728-2.206,1.525-4.391,2.366-6.555.526-1.355-.021-1.9-1.286-2.182a48.619,48.619,0,0,0-5.945-.836c-7.011-.652-6.236-1.438-9.584,5.958-.634,1.4-.383,2.179,1.081,2.778C-2423.658-5386.938-2420.094-5386.825-2416.725-5385.855Zm233.689,158.457h.014c0-2.165-.006-4.329,0-6.493,0-1.133-.419-1.655-1.625-1.292-2.225.67-4.46,1.309-6.692,1.953a2.122,2.122,0,0,0-1.721,2.272c.032,3.367.032,6.733.042,10.1,0,1.091.346,1.939,1.605,1.934,2.081-.009,4.164-.033,6.242-.143,1.555-.082,2.219-.977,2.152-2.561C-2183.1-5223.548-2183.036-5225.475-2183.036-5227.4Zm-149.526-188.187.446.293a3.28,3.28,0,0,0,.7-.566c5.179-7.4,11.315-14.114,15.869-21.977a2.069,2.069,0,0,0-.5-2.928c-1.515-1.483-3.464-2.29-5.228-3.388-1.272-.792-1.752-.254-2.272.958-.909,2.119-.45,4.041.336,6.033,1.19,3.016,1.01,3.271-1.8,4.826-1.084.6-2.421,1.087-2.866,2.414C-2329.477-5425.152-2331.008-5420.365-2332.562-5415.585Zm-49.151,186.564c0-1.281,0-2.563,0-3.845.005-1.23-.189-2.276-1.79-2.232-1.822.05-1.169,1.354-1.131,2.276.488,12.072,1.793,24.108,1.534,36.216-.1,4.564-.016,9.133.017,13.7.008,1.042-.016,2.2,1.59,2.093,1.383-.094,1.683-.977,1.66-2.155-.045-2.323.087-4.659-.12-6.966C-2381.121-5202.939-2381.061-5216-2381.713-5229.021Zm91.559-147.009c-.348,1.6.518,2.25,1.889,2.51,1.965.372,3.923.784,5.9,1.1,2.6.414,3.367-.049,3.282-2.562-.118-3.507-.576-7-.924-10.5-.137-1.372-.87-1.761-2.158-1.192-2.122.937-4.225,1.941-6.412,2.7-1.948.679-2.451,1.925-1.911,3.719A8.438,8.438,0,0,1-2290.154-5376.03Zm-24.75,12.614c2.76,2.329,3.562,5.744,7.158,6.153,3.1.352,6.183.772,9.277,1.145,1.151.139,2.091-.1,2.289-1.473.321-2.214.667-4.425.96-6.644.156-1.184-.33-1.892-1.62-1.714C-2302.6-5365.153-2308.358-5364.336-2314.9-5363.417Zm-75.024-77.539c-1.7-1.45-2.8-.533-3.65.358-2.421,2.543-4.714,5.209-7.056,7.826a1.829,1.829,0,0,0-.243,2.213c1.524,3.168,3.015,6.353,4.538,9.521.269.56.577,1.345,1.366.555a32.35,32.35,0,0,0,3.414-3.69c.789-1.089-.543-2.041-.685-3.116-.146-1.108-.381-2.2-.54-3.309-.132-.916.169-1.707,1.186-1.7,2.018.021,1.854-1,1.417-2.415a8.871,8.871,0,0,0-1.291-3.042C-2392.682-5439.315-2392.589-5440.587-2389.928-5440.955Zm1.6,19.345a3.93,3.93,0,0,0-.693.475q-2.032,2.039-4.032,4.11a1.946,1.946,0,0,0-.122,2.438c1.761,3.678,3.554,7.344,5.247,11.054,1.085,2.375,3.362,2.51,5.405,3,1.029.246,1.128-.625.9-1.424q-2.652-9.222-5.331-18.437C-2387.128-5420.987-2387.356-5421.652-2388.328-5421.61Zm-11.588,4.892c2.251.083,3.35-.824,2.56-2.615-1.486-3.368-3.144-6.659-4.728-9.983-.441-.926-1.031-1.224-1.839-.41-2.65,2.667-5.307,5.327-7.925,8.027-1.052,1.084-.828,1.83.614,2.488A30.693,30.693,0,0,0-2399.916-5416.718Zm23.559-31.13c.178,2.339.3,4.573.531,6.8.236,2.25,1.321,2.792,3.227,1.662,1.58-.937,3.08-2.017,4.7-2.87a3.756,3.756,0,0,0,2.033-3.452c.258-2.6-1.059-5.147.128-7.8.48-1.073-.833-.806-1.431-.573-2.383.927-4.713,2-7.117,2.864C-2376.024-5450.6-2376.69-5449.507-2376.356-5447.849Zm2.022,77.739c-5.574-8.451-25.173-23.706-31.315-24.353a5.739,5.739,0,0,0,1.068.917q12.29,10.536,24.575,21.078C-2378.517-5371.2-2376.619-5370.808-2374.334-5370.109Zm6.471-42.275.376-.065c.147-2.628.322-5.254.437-7.884.238-5.431.437-10.864.667-16.3.08-1.9-.631-2.086-2.085-1.084-1.383.952-2.822,1.823-4.248,2.711a2.145,2.145,0,0,0-1.107,2.636Q-2370.849-5422.375-2367.863-5412.385Zm-67.34,81.237c.493,2.755.978,5.511,1.487,8.263.118.635.321,1.476,1.2.879,3.906-2.649,7.86-5.246,11.589-8.13,1.277-.986.433-2.864-.279-3.933-.285-.429-2.629-1.7-3.193.817-.157.7-.923.747-1.614.7-2.394-.158-4.8-.187-7.181-.444C-2434.729-5333.16-2435.3-5332.652-2435.2-5331.148Zm136.818-77.831a.99.99,0,0,0-1.293.064c-3.781,2.739-6.726,6.357-10.032,9.594-.954.935-.11,1.394.693,1.687,2.026.741,4.079,1.41,6.1,2.166,1.9.71,3.082.173,3.628-1.81.184-.667.167-1.687.96-1.806,1.836-.273,2.125-1.26,1.767-2.843-.312-1.374.034-3.141-1.25-3.962C-2299.323-5406.854-2300.458-5407.5-2298.385-5408.979Zm-51.233-14.569.6.162q4.1-11.622,8.208-23.238c.433-1.216-.06-1.418-1.1-1.287-1.507.189-3.013.407-4.526.505a1.924,1.924,0,0,0-2.081,2.084C-2348.87-5438.063-2349.25-5430.806-2349.618-5423.548Zm173.368,195.059h.055c0,2.159.078,4.321-.023,6.476-.091,1.949.657,2.659,2.641,2.713,2.169.059,2.895-1.017,2.933-2.854.1-4.875.139-9.75.184-14.626,0-.549-.008-1.133-.628-1.443-1.612-.808-5.12,1.217-5.152,3.019C-2176.28-5232.967-2176.25-5230.728-2176.25-5228.489Zm-105.322,31.666.36-.083c.794-7.8,1.6-15.6,2.374-23.409a60.913,60.913,0,0,0,.5-7.18c-.063-3.083-2.764-1.762-4.271-2.055-1.641-.32-.936,1.328-.917,2.083.09,3.521.268,7.042.5,10.557C-2282.568-5210.213-2282.057-5203.519-2281.572-5196.823Zm-35.1-188.684c.479-.108.876-.163,1.25-.288,4.416-1.477,7.744-4.722,11.567-7.162.939-.6.284-1.052-.4-1.286-2.267-.774-4.545-1.518-6.812-2.291a1.769,1.769,0,0,0-1.963.493q-3.817,3.808-7.63,7.62c-.779.781-.666,1.4.406,1.755C-2319.05-5386.264-2317.834-5385.881-2316.675-5385.507Zm-25.411-27.194c-.139,1.193.16,1.921,1.063,2.182,1.42.411,2.694,1.529,4.309,1,.239-.078.437-.472.533-.76,1.576-4.712,3.157-9.424,4.68-14.154.433-1.343-.615-1.817-1.588-2.283-.911-.436-1.7-.473-2.237.553-2.157,4.116-4.322,8.228-6.458,12.355A4.25,4.25,0,0,0-2342.085-5412.7Zm142.237,187.649c.052-5.971.052-5.971-5.744-4.684-.312.07-.617.186-.932.233a2,2,0,0,0-1.872,2.325c.044,2.083.08,4.17,0,6.25-.062,1.66.53,2.2,2.251,2.154C-2199.905-5218.935-2199.9-5218.87-2199.849-5225.052Zm-32.589-72.192c-1.037-.06-2.074-.1-3.109-.187-1-.082-1.411.427-1.617,1.347-.964,4.307,1.124,7.814,5.425,9.037,3.374.958,4.389.223,4.444-3.223.009-.56.014-1.118.017-1.678C-2227.248-5297.874-2226.559-5297.169-2232.438-5297.244Zm-108.624-131.412c.149-1.525-1.09-1.585-2.008-1.956-1.074-.434-1.643.066-1.984,1.055-1.533,4.452-3.159,8.874-4.594,13.357-.98,3.059,1.951,2.706,3.421,3.464,1.7.876,2.366-.5,2.617-1.792C-2342.694-5419.224-2341.9-5423.944-2341.062-5428.656Zm-54.79,98.644c-5.5,3.647-10.371,6.87-15.231,10.112-1.4.933-2.785,1.89-4.128,2.9-.483.364-1.127.853-.828,1.574.275.664,1,.36,1.514.322q4.192-.31,8.378-.7a3.317,3.317,0,0,0,2.754-1.662C-2401.035-5321.462-2398.617-5325.424-2395.852-5330.012Zm-23.978,15.656a2.289,2.289,0,0,0-1.871-.736c-2.383-.307-4.77-.577-7.151-.9a3.068,3.068,0,0,1-2.586-3.29c.076-1.679,1.806-.933,2.927-.856,2.476.169,4.954.317,7.428.522,1.269.105,1.816-.435,1.687-1.665-.185-1.753-.4-3.5-.608-5.251-.171-1.477-.755-1.749-2.018-.852-3.069,2.182-6.189,4.292-9.3,6.415a2.552,2.552,0,0,0-1.146,3.111c.316,1.077.586,2.168.826,3.265.273,1.25.945,1.68,2.245,1.483C-2426.32-5313.571-2423.225-5313.92-2419.83-5314.356Zm4.521-17.534.035.684c2.966.527,5.928,1.07,8.9,1.569a2.052,2.052,0,0,0,1.794-.53q3.019-2.933,6-5.909c.611-.607.563-1.191-.3-1.437-2.689-.766-5.4-1.839-8.1-.026C-2409.764-5335.667-2412.534-5333.773-2415.309-5331.891Zm63.9-89.564a8.893,8.893,0,0,1,.033-2.388c.688-2.368-.693-3.095-2.559-3.662-.89-.271-1.415-.157-1.613.755-.949,4.372-2.008,8.727-2.761,13.133-.385,2.258,1.9,2.17,3.238,2.773,1.437.645,1.681-.533,2.151-1.487A18.745,18.745,0,0,0-2351.413-5421.455Zm42.19-5.939c.987-.058,2.062-.241,2.151-1.233a2.5,2.5,0,0,0-1.788-2.8c-1.379-.406-2.8-.661-4.18-1.072-1.084-.325-1.645.146-2.1,1.037-1.934,3.779-3.895,7.545-5.828,11.325-.249.485-.54,1.006-.18,1.584.438.7,4.208,1.844,4.884,1.346,1.284-.945,2.642-1.865,1.68-3.917a25.843,25.843,0,0,1-.993-3.707c-.563-1.919.362-2.7,2.116-2.862A14.592,14.592,0,0,1-2309.223-5427.395Zm-65.042,19.681a37.188,37.188,0,0,1-.3-3.816c.089-4.632-.958-8.334-6.532-8.74a9.351,9.351,0,0,1-2.026-.722c-.507-.166-1.106-.563-1.521.044-.3.438.059.925.275,1.341,1.805,3.478,3.64,6.939,5.429,10.425.783,1.525,2.239,1.96,3.681,2.446C-2374.341-5406.425-2374.121-5406.925-2374.264-5407.714Zm61.895,75.937c-.075,3.105,2.262,3.781,3.687,5.171.932.911,1.7.688,2.233-.458.778-1.663,1.585-3.313,2.315-5,1.984-4.578,1.424-5.635-3.526-6.828-.564-.136-1.256-.329-1.54.221C-2310.436-5336.275-2311.843-5333.948-2312.37-5331.777Zm13.927-99.845c-.168.087-.38.177-.571.3a4.934,4.934,0,0,0-1.745,6.173c.912,1.955,1.873,3.892,2.683,5.889,1.806,4.454,1.8,3.887,5.057.79,1.322-1.259,1.588-2.314.545-3.908-1.66-2.538-3.1-5.216-4.657-7.825A2.73,2.73,0,0,0-2298.443-5431.622Zm-45.523,81.322c.737,1.72,1.079,3.2,2.24,4.136,4.432,3.567,8.916,7.069,13.377,10.6,1.321,1.046,2.241.261,3.057-.708,1-1.186-.162-1.756-.841-2.293q-6.5-5.145-13.084-10.194A7.955,7.955,0,0,0-2343.966-5350.3Zm27.569-22.151.133.409c6.617-1.008,13.222-2.107,19.858-2.977,2.322-.3,2.987-1.418,2.728-3.493a14.794,14.794,0,0,1-.242-1.895c.006-1.02-.309-1.234-1.277-.83Q-2305.785-5376.811-2316.4-5372.451Zm-16.306-30.563c1.215.143,1.591-.752,1.981-1.506,1.98-3.826,3.924-7.671,5.865-11.518.354-.7.875-1.527-.278-1.982-.822-.324-1.82-1.237-2.561-.08-2.4,3.74-5.9,6.721-7.461,11.037C-2336.123-5404.394-2335.362-5403.1-2332.7-5403.015Zm-26.448-53.106a13.313,13.313,0,0,0-2.071.314c-.968.311-2.715.037-2.358,1.675.313,1.438,1.72.585,2.672.482,1.561-.169,3.1-.945,4.679-.015a16.3,16.3,0,0,0,11.223,2.269c1.568-.255,3.208-.033,4.793-.216a2.031,2.031,0,0,0,1.74-2.262c0-.933-.86-.754-1.462-.819C-2346.381-5455.394-2352.926-5454.65-2359.152-5456.121Zm-65.03,79.843c1.12-.017,2.294.134,2.416-1.545.225-3.1-.807-4.361-3.892-4.709a15.607,15.607,0,0,1-3.526-.6c-1.227-.443-1.589.1-1.854,1.068-.8,2.923-1.61,5.844-2.393,8.772-.236.882-.1,1.626,1.01,1.736.935.092,1.664-.045,1.989-1.19,1.13-3.982,1.167-3.972,5.291-3.6C-2424.824-5376.321-2424.505-5376.3-2424.182-5376.278Zm162.4,172.323c0,5.579-.02,9.427.016,13.275.008.831-.161,2.139.962,2.135,1.261,0,.8-1.344.819-2.122.34-12.023-.495-24.031-.507-36.051a6.543,6.543,0,0,0-.067-.958c-.073-.5-.249-.969-.85-.974s-.815.457-.856.96c-.058.718-.049,1.44-.068,2.161C-2262.548-5217.75-2261.443-5210-2261.782-5203.955Zm-59.178-165.507c2.324,1.51,3.2,4.471,6.142,4.241,4.26-.333,8.495-.976,12.957-1.513C-2307.612-5371.922-2313.862-5371.7-2320.961-5369.462Zm34.319,163.334c-1.471,8.376-1.383,16.882-2.561,25.265-.25,1.779.488,2.421,2.25,2.484,2.5.089,2.423-1.465,2.32-3.166C-2285.133-5189.755-2286.406-5197.9-2286.642-5206.128Zm-51.54-179.46a25.016,25.016,0,0,0,10.681-9.33c2.208-3.407,2.29-3.392-1.483-4.808-1.815-.681-2.537.311-3.2,1.563-1.238,2.336-2.455,4.686-3.591,7.072C-2336.581-5389.4-2337.719-5387.832-2338.182-5385.588Zm23.837-27.777a1.176,1.176,0,0,0-.776-1c-.984-.479-1.7.021-2.34.681q-5.361,5.506-10.706,11.03c-.308.318-.817.575-.432,1.186.958,1.523,4.5,1.775,5.563.319,2.695-3.685,5.34-7.405,8-11.116C-2314.763-5412.646-2314.533-5413.062-2314.344-5413.365Zm2.589,234.247.622-.021q1.174-10.337,1.537-20.74c.111-3.116.036-6.239.014-9.358,0-.637-.093-1.414-.885-1.5-.954-.106-.833.751-.925,1.351-1.293,8.34-1.176,16.733-.924,25.128C-2312.265-5182.543-2311.949-5180.833-2311.755-5179.118Zm11.4-131.171a2.3,2.3,0,0,0,2.566-1.382c.6-1.34-.96-.913-1.326-1.488-.168-.265-.535-.484-.56-.749-.262-2.727-2.749-4.029-3.907-6.175-.5-.927-1.09-1.149-1.727-.076q-1.955,3.3-3.933,6.581c-.521.866-.5,1.535.645,1.755C-2305.854-5311.3-2303.1-5310.8-2300.356-5310.289Zm-18.59-3.259c.793.047,1.5.292,1.84-.492a1.628,1.628,0,0,0-.521-1.736c-2.113-2.494-4.257-4.963-6.36-7.467a1.358,1.358,0,0,0-1.871-.379c-3.283,1.472-3.474,1.993-1.683,5.061q.784,1.343,1.531,2.709a2.939,2.939,0,0,0,2.264,1.577C-2322.09-5314.023-2320.434-5313.774-2318.946-5313.548Zm38.271-78.208.12-.015c-.516-3.972-1.02-7.947-1.566-11.916-.072-.52-.067-1.712-.95-1.057-1.571,1.168-3.557.957-5.137,1.941-1.236.77-1.5,1.761-.432,2.721,3.045,2.748,5.407,5.854,6.027,10.045.084.567.033,1.463.993,1.334.863-.115,1.133-.783,1.042-1.614C-2280.631-5390.794-2280.645-5391.276-2280.676-5391.756Zm-151.986,31.961c-.937.092-2.078-.25-2.543.877a4.863,4.863,0,0,0-.023,4.169c.555,1.028,1.733.386,2.64.252,3.311-.487,6.617-1.008,9.927-1.5,1.091-.161,2.435-.032,2.292-1.714-.131-1.535-1.407-1.535-2.522-1.584C-2426.152-5359.438-2429.433-5359.2-2432.661-5359.795Zm53.37-80.493c1.438.307,1.932-.323,1.778-1.686-.206-1.819-.36-3.646-.567-5.465-.134-1.175-.628-1.815-1.9-1.124-2.662,1.443-5.337,2.863-7.988,4.326-1.34.74-1.247,1.378.1,2.13C-2385.172-5440.6-2382.157-5440.8-2379.292-5440.288Zm-33.311,22.234c-.6.111-.91.072-1.043.207-2.231,2.266-3.378,5.166-4.587,8.018-.348.822.3,1.055.987,1.256,2.812.826,5.679.533,8.531.455,1.55-.042,1.938-1.324,2.146-2.471.222-1.223-.78-1.589-1.79-1.774q-1.176-.216-2.349-.441C-2413.4-5413.312-2414.33-5415.562-2412.6-5418.054Zm76.974,69.394-.254.435q5.676,4.542,11.351,9.085c.813.652,1.442.53,1.938-.378.421-.77.918-1.506,1.263-2.308,1.045-2.436.767-3.146-1.763-3.8C-2327.253-5346.712-2331.448-5347.657-2335.628-5348.66Zm-80.5,18.791c-.911-.151-1.269.682-1.153,1.784.267,2.546.617,5.083.932,7.624.154,1.239.712,1.339,1.542.524,2.287-2.246,4.553-4.513,6.843-6.756.819-.8.769-1.4-.394-1.643C-2410.784-5328.849-2413.226-5329.3-2416.126-5329.869Zm97.787,148.524c.069-.814.144-1.28.144-1.746q.01-22.719,0-45.438a7.306,7.306,0,0,0-.039-.959c-.072-.546-.085-1.254-.843-1.207-.632.04-.533.694-.554,1.15-.027.56.009,1.122,0,1.683-.315,14.743.678,29.47.565,44.211A2.366,2.366,0,0,0-2318.34-5181.345Zm29.157-47.727c-2.1,16.727-4.611,33.392-5.636,50.2l1.28.13C-2292.307-5195.547-2290.593-5212.306-2289.183-5229.071Zm-146.228-119.551c-.345,1.555-.115,2.87-.639,4.082-.465,1.077.231,1.334,1.113,1.6a17.219,17.219,0,0,0,12.794-1.263c.437-.207.967-.429.932-.976-.049-.778-.787-.655-1.3-.749a57.038,57.038,0,0,0-6.638-.973C-2431.245-5347.037-2433.486-5346.874-2435.41-5348.622Zm221.119,125.451c-.014-5.562.522-4.71-4.474-4.225a1.386,1.386,0,0,0-.235.047c-2.876.771-1.192,3.252-1.717,4.881-.4,1.23-.644,2.9.939,3.871a1.688,1.688,0,0,0,.458.132c3.67.97,5.023-.039,5.029-3.747Q-2214.291-5222.692-2214.292-5223.171Zm-158.953,32.988c.123-14.246.444-28.477-.332-42.7a1.894,1.894,0,0,0-.086-.708c-.129-.26-.338-.622-.563-.663-.484-.088-.679.342-.718.749a18.514,18.514,0,0,0-.076,1.916q.068,10.073.461,20.14C-2374.285-5204.342-2373.562-5197.27-2373.245-5190.183Zm85.683-218.918c1.948.074,2.324-.7,1.459-2.189-.6-1.037-1.243-2.05-1.834-3.092-2.491-4.393-2.5-4.4-5.935-.862-.745.767-1.768,1.383-1.245,2.823a3.731,3.731,0,0,0,3.2,2.831A24.97,24.97,0,0,1-2287.562-5409.1Zm-108.051,55.079c-5.405-3.3-13.473-3.833-18.357-1.143C-2407.854-5353.444-2402.1-5350.444-2395.612-5354.022Zm-32.866,42.4c.852.213,1.053.285,1.26.311,5.778.727,11.7-.1,17.39,1.629a1.906,1.906,0,0,0,2.114-.845c.756-1.095,1.438-2.241,2.456-3.845C-2413.206-5313.634-2420.541-5312.829-2428.479-5311.618Zm121.712-60.1a32.216,32.216,0,0,0,7.9,4.16c1.285.467,3.031.473,3.77-.65.885-1.346.669-3.2.683-4.86,0-.435-.541-.562-.949-.506A106.694,106.694,0,0,0-2306.766-5371.716Zm-44.718,31.971c1.214,4.673,2.351,9.368,3.691,14.005.387,1.337,1.6.522,2.468.31,1.18-.29,1.413-1.014,1.142-2.163C-2345.3-5332.319-2346.889-5336.763-2351.484-5339.746Zm25.668-46.292c-.048-.93-.916-.981-1.53-1.208-1.274-.469-2.607-1.578-3.844.124-1.41,1.941-2.862,3.851-4.265,5.8-.405.563-1.018,1.219-.336,1.914.608.62,1.4,1.3,2.33.842,3.25-1.609,5.146-4.678,7.554-7.194C-2325.858-5385.815-2325.856-5385.912-2325.816-5386.038Zm-45.028,52.565c-.52.449-.747.632-.959.83-3.821,3.567-4.544,8.444-5.552,13.194-.121.57-.558,1.335.3,1.667.743.288,1.186-.346,1.5-.89,1.2-2.065,2.267-4.218,3.563-6.22C-2370.289-5327.519-2370.711-5330.3-2370.844-5333.473Zm142.645,111.929h.056c0,2.725-.02,5.449.011,8.173.01.847-.143,2,1.111,2.025,1.27.024,1.147-1.125,1.153-1.976q.052-8.173.042-16.345c0-.853.121-1.971-1.151-1.991s-1.207,1.07-1.214,1.941C-2228.214-5226.993-2228.2-5224.268-2228.2-5221.544Zm-96.6-166.508c1.093.272,1.725-.378,2.354-1,2.216-2.206,4.454-4.392,6.614-6.652.544-.569,1.874-1.129,1.192-2.025-.839-1.1-1.889-.1-2.73.455-2.816,1.847-5.635,3.693-8.4,5.616-.876.609-2.616.981-2.293,2.1C-2327.714-5388.373-2325.9-5388.486-2324.795-5388.052Zm27.535,58.065c-.32,0-.639,0-.959,0-2.218.008-4.624,2.217-4.454,4.58.157,2.195,2.294.89,3.466,1.344a10.115,10.115,0,0,0,3.324.217,1.523,1.523,0,0,0,1.589-.823C-2292.847-5327.585-2294.152-5329.938-2297.26-5329.987Zm-63.054,147.929.382,0V-5231.5l-.382,0Zm-49.379-141.016.373.417q7.157-4.928,14.31-9.863a7.108,7.108,0,0,0,1.883-2.142c.607-.959.361-1.392-.7-1.676a2.894,2.894,0,0,0-3.253.766c-1.124,1.24-2.356,2.382-3.548,3.559Q-2405.159-5327.54-2409.693-5323.074Zm44.292-97.164a11.474,11.474,0,0,1-.031,2.656c-.633,2.365.774,3.147,2.623,3.71.856.26,1.446.272,1.3-.886-.639-5.086-1.268-10.173-1.922-15.258-.058-.449-.094-1.117-.7-1.1-.782.022-.67.774-.7,1.3C-2365.043-5426.541-2365.225-5423.262-2365.4-5420.237Zm206.863,145.889c-.314-1.042-1.255-.762-1.973-.821-3.107-.254-6.217-.485-9.328-.667q-10.772-.627-21.55-1.176c-.693-.035-1.927-.375-1.873.778.039.807,1.193.468,1.855.508,7.819.475,15.637.973,23.46,1.352C-2164.826-5274.222-2161.692-5274.349-2158.539-5274.349Zm-173-30.164c-4.046.006-4.084.1-2.593,3.935a2.4,2.4,0,0,0,2.447,1.828c1.751.007,3.5.1,5.251.215,1.136.071,1.4-.333,1.076-1.417C-2326.464-5303.61-2327.659-5304.519-2331.539-5304.513Zm-36.321-101.63A81.643,81.643,0,0,0-2371-5416.5a1.444,1.444,0,0,0-1.547-.917.859.859,0,0,0-.823.988c.308,3.334.468,6.7,1.068,9.981.295,1.612,2.211,1.643,3.583,1.867C-2367.816-5404.436-2367.9-5405.331-2367.86-5406.143Zm22.693-1.516c-2.162,5.459-7.1,10.005-5.455,16.895C-2346.741-5394.244-2344.348-5401.521-2345.167-5407.658Zm-18.883,9.16.825-.186c.619-2.88,1.262-5.755,1.841-8.643a12.4,12.4,0,0,0,.277-2.846c-.044-1.243-2.32-2.893-3.732-2.662-1.6.262-.878,1.646-.949,2.536a13.238,13.238,0,0,0,.073,4.526C-2365.041-5403.391-2363.119-5401.388-2364.049-5398.5Zm11.605-8.91c-1.716,4.5-4.163,8.727-4.681,13.618a4.683,4.683,0,0,0,.227,1.891c.3.929.846,1.144,1.5.227C-2352-5396.441-2351.772-5401.819-2352.444-5407.408Zm99.768,109.886c1.83.767,3.419,1.451,5.022,2.1,5.9,2.4,5.9,2.391,5.419-4.121-.012-.159-.015-.319-.016-.478-.009-1.087-.477-1.433-1.521-1.015C-2246.642-5299.886-2249.523-5298.764-2252.676-5297.522Zm-122.64-38.786c-6.016,4.084-5.621,11.177-8.474,16.605C-2379.7-5324.5-2375.047-5329-2375.316-5336.309Zm220.39,78.525c0,1.44-.053,2.723.016,4,.065,1.212.963,1.556,2,1.628a1.277,1.277,0,0,0,1.561-1.371,71.984,71.984,0,0,1,.53-9.813c.155-.99-.187-1.207-1.235-.811C-2155.285-5262.93-2155.21-5260.336-2154.925-5257.783Zm-227.161-96.178c-6.244,3.043-11.64,7.4-17.26,11.41C-2392.8-5345.124-2385.463-5346.478-2382.086-5353.961Zm89.461.347c-1.146,4.192-1.147,4.194,2.622,5.442,1.825.6,3.648,1.214,5.484,1.787.733.229,1.663.75,2.131-.231a5.956,5.956,0,0,0,.732-3.712c-.242-1.113-1.341-.442-2.067-.453-1.522-.022-3.043.015-4.565.032C-2290.306-5350.726-2292.252-5350.817-2292.625-5353.614ZM-2346-5387.028c5.328-4.21,5.093-10.606,7.35-15.871C-2343.063-5398.634-2346.529-5393.928-2346-5387.028Zm-39.8-8.034c-.887-2.22-1.512-4.007-3.253-4.666a36.511,36.511,0,0,0-8.771-2.173c-.782-.089-1.008.948-1.216,1.6-.284.894.528,1.043,1.1,1.234C-2394.1-5397.779-2390.242-5396.521-2385.8-5395.062Zm202.786,155.341c-.026-1.278-.125-2.33-1.558-2q-3.724.87-7.4,1.933c-1.178.343-1.142,1.414-1.01,2.391.144,1.067.927,1.208,1.788,1.039,2.189-.431,4.368-.911,6.554-1.357A1.791,1.791,0,0,0-2183.018-5239.72Zm-85.9-40.382,0,.109a15.494,15.494,0,0,0,1.917-.017c.786-.1,2.128.5,2.164-.7.027-.946-1.285-.571-2.022-.652-7.847-.868-15.811.225-23.616-1.39a3.446,3.446,0,0,0-.957-.034c-.531.042-1.272-.09-1.3.68-.024.59.631.617,1.093.693a21.465,21.465,0,0,0,2.374.333Q-2279.093-5280.572-2268.915-5280.1Zm51.925,37.779c-3.479,0-3.963.468-3.9,3.85.019.942-.635,2.494,1.262,2.471,2.905-.034,5.246-1.876,5.384-3.9C-2214.074-5242.324-2215.51-5242.482-2216.99-5242.324Zm-222.648-167.667c-.633.384-1.691-.872-2.2.347-.3.721.233,1.407,1.074,1.567,4.157.791,8.314,1.591,12.484,2.313a1.692,1.692,0,0,0,2.049-1.569c.082-.959-1.027-.845-1.653-.944C-2431.748-5408.881-2435.625-5409.413-2439.639-5409.99Zm111.086,4.578.423.3c2.791-2.8,5.61-5.567,8.349-8.415.532-.553,2.085-1.317.654-2.162-1.085-.641-2.791-2.158-3.939-.187C-2325.047-5412.479-2326.739-5408.911-2328.552-5405.413Zm-31.393-10.952.415.142c.78-3.723,1.645-7.429,2.31-11.171.438-2.465-1.847-2.4-3.178-2.587-1.821-.255-1.043,1.439-.96,2.245C-2360.97-5423.937-2360.431-5420.153-2359.945-5416.364Zm-33.409,13.028c.226-.056.755-.03.93-.267.351-.473-.137-.865-.413-1.234q-1-1.343-2.023-2.67c-.857-1.111-1.293-3.259-2.567-3.157-1.545.124-1.867,2.34-2.771,3.612-.826,1.162-.325,1.876.857,2.374C-2397.475-5403.893-2395.445-5403.881-2393.354-5403.336Zm76.55,82c.37-2.277-.1-4.153-2.337-5.265-1.564-.779-2.651.176-3.618,1.088-1.092,1.031.121,1.682.672,2.368a27.659,27.659,0,0,0,2.519,2.894c.77.723,1.19,2.462,2.306,2.01C-2316.264-5318.642-2316.976-5320.277-2316.8-5321.331Zm-15.257-121.335a21.368,21.368,0,0,0,2.351.151c1.484-.033,1.781-1.27,1.936-2.347.186-1.3-.968-1.043-1.68-1.034a11.806,11.806,0,0,1-3.916-1.039c-.892-.3-1.931-.857-2.649.117a4.032,4.032,0,0,0-.669,3.2c.284,1.28,1.53.844,2.425.938C-2333.71-5442.619-2333.145-5442.667-2332.062-5442.667Zm-5.845-4.829-.655-.095c-1.593,4.349-3.176,8.7-4.784,13.044-.522,1.411.153,2.1,1.384,2.53.89.313,1.366.015,1.534-.9C-2339.544-5437.772-2339.105-5442.691-2337.907-5447.5Zm-43.3,108.148c-4.1,1.126-7.626,9.32-8.625,13.5C-2384.731-5328.845-2384.079-5334.508-2381.207-5339.347Zm-53.208-13.167c4.717,1.359,9.694-.167,13.692,3.867,0-1.653-.1-2.776.023-3.874.184-1.644-.405-2.167-2.03-1.883C-2426.5-5353.743-2430.292-5353.174-2434.415-5352.514Zm160.775,12.494a1.657,1.657,0,0,0-1.595.717c-.262.4-.238.8.209,1.009,3.279,1.5,6.557,3,9.865,4.433.822.355,1.33-.331,1.748-.937a.744.744,0,0,0-.368-1.185A76.845,76.845,0,0,0-2273.639-5340.02Zm-30.6,33.859c.89.114,1.455-.6,2.2-.856.529-.178,1.176-.4.993-1.112-.13-.5-.733-.613-1.208-.612-2.912.006-5.663-.978-8.514-1.339-.9-.114-1.84-.268-2.022,1.009a1.529,1.529,0,0,0,1.436,1.854C-2308.985-5306.826-2306.608-5306.508-2304.236-5306.16ZM-2202-5244.216c-1.712.478-3.729.274-5.711.493-1.448.161-1.39,1.14-.983,2.1.357.844-.2,2.645,1.773,2.048s3.945-1.286,5.9-1.968a1.438,1.438,0,0,0,1.036-1.878C-2200.232-5244.348-2201.032-5244.227-2202-5244.216Zm-146.439-104.833c2.164,6.6,1.7,14.4,8.657,19C-2342.721-5336.5-2345.58-5342.774-2348.437-5349.05Zm140.067,115.344c.025.742-.063,1.934,1.441,1.541,2.069-.541,4.116-1.2,6.122-1.94,1.105-.41,1.042-1.494.885-2.461a1.011,1.011,0,0,0-1.432-.83c-1.984.563-3.958,1.168-5.923,1.793C-2208.056-5235.355-2208.351-5234.715-2208.371-5233.706Zm-72.905-133.754c-2.411-.327-3.684.271-3.649,2.575.031,2.047,1.225,2.929,4.344,2.682,2.441-.193,1.652-2.41,1.8-3.751C-2278.509-5368.325-2280.6-5367.178-2281.276-5367.46Zm-76.6-32c1.655-2.271,2.052-4.461,2.766-6.5.94-2.692.419-3.454-2.407-4.073-1.1-.242-1.573.182-1.47,1.179C-2358.677-5405.89-2358.29-5402.934-2357.872-5399.46Zm-28.713,11.186a62.737,62.737,0,0,0,9.169,10.873c-.959-2.516-2.261-4.829-3.215-7.277C-2381.7-5387.419-2383.832-5388.184-2386.586-5388.274Zm29.106,49.131a57.907,57.907,0,0,0,.72-11.161c-.009-.479.246-1.251-.717-1.184-1.332.094-3.379,2.78-2.964,4.039C-2359.572-5344.816-2358.586-5342.223-2357.48-5339.144Zm13.342-59.843c2.147-2.821,3.921-5.036,5.558-7.349.923-1.3-.332-1.771-1.2-1.938-.944-.182-2.309-1.934-2.9.149A39.474,39.474,0,0,0-2344.138-5398.987Zm72.82,97.489c-4.995-2.2-22.54-5.995-24.139-5.244a3.159,3.159,0,0,0,1.987.708,126.063,126.063,0,0,1,15.59,3.806C-2275.755-5301.561-2273.81-5300.382-2271.318-5301.5Zm11.477-32.944c-1.545-.261-1.434.793-1.826,1.287-.484.607,0,.972.512,1.306,2.381,1.543,5.257,1.812,7.77,3.025.637.309,1.245-.123,1.589-.739a.7.7,0,0,0-.322-1.017C-2254.817-5331.951-2257.532-5333.291-2259.841-5334.442Zm-148.216-16.832.012-.451c-2.566-.79-5.13-1.587-7.7-2.366-.6-.18-1.346-.557-1.722.195a4.5,4.5,0,0,0-.115,3.279c.216.768.948.833,1.591.727C-2413.343-5350.325-2410.7-5350.808-2408.058-5351.274Zm150.167,70.351c-.872,0-1.6-.049-2.313.015-.561.05-1.492-.317-1.481.667.008.69.82.639,1.36.673q7.911.488,15.825.937c.522.028,1.309.163,1.37-.587.062-.772-.735-.714-1.255-.753C-2248.936-5280.307-2253.487-5280.617-2257.89-5280.923Zm-129.972-20.262c1.922,0,4.99-2.565,4.5-4.125-.523-1.677-2.418-.271-3.657-.624a2.1,2.1,0,0,0-1.171.111c-1.648.573-1.979,2.1-1.981,3.474C-2390.169-5300.807-2388.662-5301.392-2387.862-5301.185Zm37.489-101.347.632.191a81.248,81.248,0,0,0,3.6-7.4c.6-1.589-1.259-1.478-2.151-1.913-.839-.41-1.531-.271-1.74.866A43.633,43.633,0,0,0-2350.373-5402.532Zm-17.535,2.677c.075-2.243-1.086-3.67-2.926-3.479-2.137.222-1.025,1.932-1.06,3.017a10.52,10.52,0,0,0,.419,2.839,2.206,2.206,0,0,0,2.229,1.521c1.247.092.893-1.062,1.033-1.766C-2368.057-5398.5-2367.985-5399.3-2367.909-5399.854Zm-14.258-11.748-.409.164q1.534,5.375,3.069,10.75a2.8,2.8,0,0,0,2.24,1.933c.456.12,1.008.381,1.294-.13a1.429,1.429,0,0,0-.147-1.114C-2378.117-5403.877-2380.146-5407.737-2382.166-5411.6Zm182.014,131.03,0,.092c.719,0,1.439.029,2.156-.009.6-.033,1.526.2,1.583-.628.061-.889-.891-.708-1.474-.754-4.056-.318-8.113-.633-12.174-.881-.692-.042-1.851-.383-1.844.829,0,.914,1.021.838,1.715.874C-2206.847-5280.876-2203.5-5280.729-2200.152-5280.572Zm-112.6-77.405c-1.042-2.015-2.72-2.664-3.792-3.9-1.117-1.289-2.409-1.284-3.92-.93-1.312.308-1.234.684-.619,1.757C-2319.229-5357.815-2316.025-5358.639-2312.751-5357.978Zm23.389,28.411c-2.835-.076-2.934-.057-2.44,2.476.234,1.2-.786,3.14,1.122,3.48,1.75.312,2.094-1.671,2.913-2.781.558-.757,1.444-1.565.936-2.549C-2287.362-5329.968-2288.574-5329.4-2289.363-5329.566Zm-50.482-64.154c2.76-1.754,4.08-3.912,5.9-5.549.49-.44,1.315-.99.74-1.773a4.233,4.233,0,0,0-2.743-1.3c-.792-.167-1.149.416-1.365,1.048C-2338.1-5398.978-2338.864-5396.655-2339.844-5393.72Zm75.424,104.259c4.064,1.076,8.226.719,12.349.932C-2256.062-5290.418-2259.927-5293.684-2264.421-5289.461Zm-107.184-83.015.72-.141c-.1-1.241-.194-2.483-.3-3.724-.2-2.222-.349-4.451-.623-6.665a1.9,1.9,0,0,0-2.246-1.668c-.724.04-.876.674-.711,1.258C-2373.733-5379.764-2372.663-5376.122-2371.6-5372.477Zm6.445,38.413c-1.984,3.546-4.893,6.461-3.854,10.98C-2365.674-5326.306-2363.8-5331.328-2365.16-5334.063ZM-2302-5194.125c-1.147,4.637-.443,8.931-1.144,13.12-.143.855-.444,2.213.934,2.323,1.622.129,1.255-1.335,1.3-2.286C-2300.734-5185.227-2301.64-5189.4-2302-5194.125Zm-58.46-209.529c-.627,2.96-1.289,5.914-1.866,8.884a1.777,1.777,0,0,0,1.538,2.3c1.3.2,1.313-1.026,1.437-1.792C-2358.832-5397.455-2359.732-5400.529-2360.461-5403.654Zm40.68,21.761-.278-.33c-3.462,1.407-6.927,2.806-10.383,4.229-.5.206-1.176.4-1.177,1.047,0,.737.716.977,1.273,1.273a1.84,1.84,0,0,0,2.028-.193C-2325.464-5377.865-2322.625-5379.883-2319.781-5381.894Zm-18.9,83.576c.472-.037,1.669.109,1.386-1.042a12.515,12.515,0,0,0-2.176-5.269,1.737,1.737,0,0,0-2.176-.521c-.819.434-.563,1.25-.37,1.93.327,1.153.726,2.286,1.1,3.424A2.016,2.016,0,0,0-2338.678-5298.317Zm97.281,94.962c-.516,4.361-1.014,8.572-1.512,12.784-.111.936-.12,1.864,1.135,1.949,1.2.081,1.448-.765,1.466-1.741a5.508,5.508,0,0,0-.011-.961C-2240.953-5195.28-2240.545-5199.327-2241.4-5203.355Zm70.978-77.068c-.916.2-2.311-.4-2.4.612-.1,1.2,1.379,1.02,2.232,1.085,3.331.255,6.669.424,10.008.569.64.028,1.7.318,1.737-.676.035-.889-1.016-.89-1.683-.938C-2163.855-5280.01-2167.212-5279.863-2170.419-5280.424Zm-165.82-113.239c-3.242,2-5.713,4.589-6.437,8.426-.114.6-.561,1.316.211,1.7.918.457,1.284-.384,1.6-.988C-2339.3-5387.559-2337.778-5390.614-2336.239-5393.663Zm3,83.838c.1.011.42.064.739.076.6.023,1.375.555,1.761-.141s-.236-1.369-.6-1.965c-.53-.873-5.327-2.04-6.228-1.587-.713.358-.457.909-.336,1.448C-2337.317-5309.415-2335.22-5309.967-2333.236-5309.825Zm-35.444,6.9c.136,1.045-.329,2.535,1.644,2.7,2.016.171,2.1-1.183,2.2-2.592.033-.472.154-.938.213-1.409.116-.928.062-1.806-1.086-2.024a2.1,2.1,0,0,0-2.485.894A4.57,4.57,0,0,0-2368.68-5302.927Zm50.749-126.9-.623-.375q-3.268,4.373-6.531,8.75a1.027,1.027,0,0,0,.413,1.744c.87.452,1.5.336,1.958-.576Q-2320.332-5425.059-2317.931-5429.827Zm-76.1,128.388c1.644.08,2.806-1.342,2.889-3.2.055-1.237-.778-1.189-1.584-1.246-2.287-.163-4.473,1.234-4.359,3.124C-2396.954-5300.579-2394.806-5302.256-2394.032-5301.438Zm210.9,52.419c-.087-.349.649-1.819-1.366-1.7-2.182.13-3.115,1.019-3.18,3.247-.049,1.719,1.143,1.59,2.285,1.674C-2183.434-5245.651-2182.789-5246.626-2183.131-5249.019Zm8,4.907c-.619-.03-1.1.115-1.253.646a4.632,4.632,0,0,0,.039,3.06c.273.68.942.436,1.474.266q1.6-.513,3.184-1.072a1.609,1.609,0,0,0,1.12-2.091c-.269-1.077-1.195-1.09-1.924-.748A2.775,2.775,0,0,1-2175.131-5244.112Zm-20.392-32.686a2.009,2.009,0,0,0-.615-.325,119.3,119.3,0,0,0-13.788-.878c-.4,0-.852.114-.768.652.073.468.531.594.925.595C-2205.094-5276.746-2200.444-5275.853-2195.522-5276.8Zm-61.151-19.311c1.51.638,2.851,1.242,4.219,1.774a55.433,55.433,0,0,1,8.236,3.912c.39.231.918.6,1.3.115.433-.556.057-1.078-.42-1.424a7,7,0,0,0-1.459-.823q-4.674-1.894-9.371-3.732A1.984,1.984,0,0,0-2256.673-5296.109Zm-124.725-34.569a10.477,10.477,0,0,0-5.18,5.741c-.345.785-1.205,1.828.206,2.4,1.157.466,1.995-.174,2.42-1.29C-2383.141-5325.961-2382.358-5328.1-2381.4-5330.679Zm30.4-101.208h.091q0-1.432,0-2.863c0-.414-.05-.852-.521-.933-.271-.046-.817.1-.84.231-.27,1.557-1.869,2.325-2.219,3.819-.189.8-.358,1.665.5,2.13.813.441,1.677,1.316,2.566.981.819-.308.307-1.422.414-2.173A8.465,8.465,0,0,0-2351-5431.887Zm136.69,199.752c-.047-.384.088-1.365-1.047-1.062a37.441,37.441,0,0,0-4.739,1.62,1.582,1.582,0,0,0-.69,2.084c.334,1.112,1.116.474,1.759.31,1.079-.274,2.154-.563,3.242-.8C-2214.759-5230.2-2214.276-5230.8-2214.3-5232.135Z" transform="translate(2445.794 5585.889)" opacity="0.5" fill="url(#linear-gradient)"/>
    <path id="Объединение_15" data-name="Объединение 15" d="M0,189.977V73.342H92.008c.014-.233.022-.473.025-.721.047-3.6.426-7.2.663-10.8.047-.7.124-1.4.116-2.1a21.725,21.725,0,0,1,1.366-8.734,9.9,9.9,0,0,0,.322-6.476,46.366,46.366,0,0,1-1.083-16.142,45.927,45.927,0,0,1,2.023-10.251c.341-1.008.368-1.591-.957-1.787-3.415-.5-5.015-3.219-6.552-5.842-.712-1.215.792-3.863,2.554-4.938a4.194,4.194,0,0,1,5.139.625,2.922,2.922,0,0,1,.786,1.141c.671,2.9,3.352,4.063,5.1,6.029a.29.29,0,0,0,.146.094c3.143.641,3.195,3.568,4.256,5.741.192,1.427.479,2.846.809,4.25.126.539.278,1.092.434,1.647-.47.623.063,1.651-.033,2.411.143,1.512.308,2.952.41,4.4a2.181,2.181,0,0,0,.525,1.449,7.78,7.78,0,0,0,.19,3.127c.091.3.184.6.281.888a1.428,1.428,0,0,0-.289,1.287,41.926,41.926,0,0,0,.7,5.7,1.9,1.9,0,0,1-1.364,2.561c-2.634.511-2.722,2.5-3.11,4.435-.272,1.372-.547,2.746-.916,4.091a2.911,2.911,0,0,0,.638,2.9,68.906,68.906,0,0,1,7.594,11.872c.8,1.473.83,2.5.124,3.137H226.216a20.67,20.67,0,0,0-3.777-1.817c-.877-.382-1.608-.981-1.2-2.019.385-.971,1.29-.511,1.988-.376,3.033.589,4.809-.391,6.277-3.129,2.491-4.646,2.994-9.909,4.77-14.771.451-1.229-.437-1.05-1.1-.971a70.448,70.448,0,0,1-9.422.316c-2.2-.024-2.406-.292-2.475-2.779s.289-3.223,2.348-3.085c3.6.239,6.744-1.218,10.033-2.158.522-.148,1.545-.1,1.388-.938-.165-.9-1.163-1.1-1.96-1.077-1.757.068-3.508.277-5.26.427-.682.061-1.366.118-2.048.178l-.107-.461c1.9-.242,3.794-.487,6-.769-2.136-1.327-4.462-1.58-6.324-2.936,2.406.765,4.823,1.49,7.209,2.308,1.5.511,2.56.783,2.8-1.442.2-1.863,1.333-3.5,2.131-5.2.632-1.347,1.045-2.5-.99-3.179a2.709,2.709,0,0,1-1.836-3.049,3.542,3.542,0,0,0-.19-1.471c-.668-1.982.393-3.08,1.947-3.926a4.557,4.557,0,0,1,5.111.53,3.736,3.736,0,0,1,.927,4.322c-.259.707-.619,1.372-.88,2.076-.289.774-.363,1.5.737,1.71.233.047.632.211.635.33.091,3.052,3.244,3.783,4.492,5.952.457.8,1.38,1.46.784,2.5a3.011,3.011,0,0,1-2.612,1.895,2.821,2.821,0,0,0-.374.02c-.858.117-2.04-.053-2.348.827a3.3,3.3,0,0,0,.655,3.085,7.359,7.359,0,0,1,1,5.782,53.931,53.931,0,0,0-.764,8.625,2.951,2.951,0,0,0,.445,1.727,17.083,17.083,0,0,1,2.433,6.676,8.847,8.847,0,0,0,1.454,4.022c.734,1.015.435,1.905-1,2.12q-.376.056-.75.123H266.8a4.877,4.877,0,0,0,2.288-3.707,24.757,24.757,0,0,0-1.46-12.938,4.143,4.143,0,0,1-.206-2.231c.415-2.73.267-5.529.987-8.225.3-1.127-.2-1.344-1.237-1.4a41.749,41.749,0,0,1-9.758-1.975c-1.526-.464-2.2-1.312-1.754-2.917a17.423,17.423,0,0,0,.365-1.851c.234-1.481.943-2.01,2.565-1.954.718.024,1.438-.017,2.161-.059a14.5,14.5,0,0,1,3.618.1c.877.17,1.262-.825,1.919-1,2.59-.669,2.868-2.9,3.426-4.892a66.684,66.684,0,0,1,2.313-6.962c.495-1.234.258-2.269-1.279-2.529a1.513,1.513,0,0,1-1.218-1.034,12.008,12.008,0,0,1-1.166-5.466A4.6,4.6,0,0,1,273.9,9.837c2.213.325,4.009,3.171,3.45,5.673-.459,2.06-1.449,3.745.935,5.758,2.013,1.7,2.923,4.677,4.4,7.038a2.141,2.141,0,0,1-.349,3.036c-1.474,1.325-1.575,3.04-1.993,4.836-.569,2.438-.179,4.767-.237,7.14a1.639,1.639,0,0,1-.324,1.235c-3.357,3.5-3.453,8.35-5.161,12.531-.118.289.154.424.344.559,1.787,1.272,2.829,3.189,4.141,4.861,1.267,1.619,2.483,3.049,4.762,3.282a1.893,1.893,0,0,1,1.388,2.9,47.215,47.215,0,0,1-2.7,4.651h4.349c-.615-.271-1.138-.663-.943-1.436.247-.973,1.287-.437,1.982-.376,2.722.245,4.056-.486,5.3-2.859,1.29-2.464,2.763-5.169,2.769-7.727.008-3.346,1.677-5.972,2.31-8.988a14.825,14.825,0,0,1,1.927-4.88,6.292,6.292,0,0,0,.877-5.213,20.421,20.421,0,0,1-.242-3.877c-1.933,2.494-4.152,4-7.132,3.806a7.482,7.482,0,0,1-4.465-13.118c3.434-3.019,7.663-2.351,11.564,1.892,1.058-1.79,1.958-3.635,3.178-5.309.663-.908.929-2.414-.893-3-.753-.241-1.523-2.98-1.083-3.844A4.641,4.641,0,0,0,302.484,17a3.736,3.736,0,0,1,3.06-3.382c1.878-.382,4.223.324,4.963,1.925,1.823,3.956,3.833,7.894,3.846,12.608-.14-.453-.228-.731-.451-1.448-.476,2.92-.775,5.395.036,8.24-.784-.6-.6-1.284-.993-1.408-.8,2.491.666,5.15.044,7.421-.594,2.161-.341,4.386-1.139,6.456-1.644,4.268-.946,8.564.275,12.728a41.551,41.551,0,0,1,1.647,8.663,26.532,26.532,0,0,0,.441,4.542h10.609c-.569-.757-.2-1.257,1.075-1.575,2.123-.533,4.413-.806,5.518-3.1.363-.754,1.207-1.652-.149-2.354-.08-.041-.121-.215-.129-.327-.286-5.343-2.535-10.792.764-15.938.616-.957-.495-1.914.72-3.085-3.6.879-6.549,1.413-9.6,1.056a2.979,2.979,0,0,1-2.961-2.4c-.209-.916-.542-1.8-.783-2.714-.822-3.091-.446-4.413,2.293-5.931,1.7-.943,2.128-2.518,2.89-3.992.335-.648-.137-1.067-.39-1.542a8,8,0,0,1-1.122-2.925l1.946,2.943c.066-.648.11-1.077.154-1.509.1-.946,1.125-.91,1.564-1.485,1.127-1.471.731.333,1.083.515a8.387,8.387,0,0,0,2.92.575c1.278.161,1.361-.729,1.925-1.478a13.863,13.863,0,0,0,2.642-4.847c.3-1.157,2.037-.866,2.727-2.057-1.96.107-2.244-.954-2.373-2.64a8.118,8.118,0,0,1,.387-4.3,4.486,4.486,0,0,1,5.329-2.419,3.526,3.526,0,0,1,2.73,4.617,6.026,6.026,0,0,0,.885,5.74c1.006,1.4.9,3.376.938,5.128.146,6.417-.457,12.807-.761,19.208a2.873,2.873,0,0,1-.91,2.015,7.069,7.069,0,0,0-1.958,4.581c-.253,1.957,1.031,3.448,2.329,4.69,1.122,1.069,1.971,2.474,3.492,3.117a.787.787,0,0,1,.41.589c-.132,2.3,1.683,2.395,3.145,2.6,1.708.242,2.1,1.057,1.716,2.579-.481,1.881-.764,3.839-1.911,5.472a6.5,6.5,0,0,1-1.171,1.19h11.685c2.3-.309,3.118-2.161,3.822-4.133.415-1.16-.591-1.981-.764-3-.231-1.353-1.012-1.559-2.266-1.422a2.847,2.847,0,0,1-2.345-1.386c-2.81-3.442-2.32-7.082-.665-10.791.737-1.655,1.52-3.291,2.4-5.181-2.777.463-5.169,1.433-7.7,1.773-1.386.188-2.461.224-2.859-1.487-.58-2.472-.462-2.887,1.515-3.665a25.761,25.761,0,0,1,6.9-1.787,2.093,2.093,0,0,1,.261,0c.349.006.718.011.761-.514.036-.437.011-.933-.492-1.121a1.44,1.44,0,0,1-1.039-1.587c.049-.824-.586-.819-1.149-.908-1.721-.273-3.445-.56-5.669-.923a9.457,9.457,0,0,1,3.61-.052,12.9,12.9,0,0,0,2.241.143l-2.829-4.18.338-.236c.959,1.205,1.93,2.4,2.879,3.613.783,1,1.4.959,2.769.6,2.667-.706,2.167-2.529,2.315-4.22a22.889,22.889,0,0,1,1-5.549c.341-.992.146-1.525-1.039-1.617a3.2,3.2,0,0,1-2.821-2.564,4.316,4.316,0,0,0-.7-1.518c-.825-1.012-1.224-1.892-.091-3.068,1.669-1.732,3.569-2.438,5.37-1.649a3.056,3.056,0,0,1,1.982,3.3c-.052.624-.245,1.234-.313,1.859a1.892,1.892,0,0,0,.665,1.872c3.531,2.5,5.026,6.153,5.862,10.206a2.262,2.262,0,0,1-.877,2.329,1.642,1.642,0,0,0-.624,2c1.43,2.874.322,5.557-1.042,7.828-2.2,3.665-1.738,7.6-2.026,11.481A8.577,8.577,0,0,0,369.865,62a3.871,3.871,0,0,1-.2,3.061,6.4,6.4,0,0,0,.671,6.284,2.851,2.851,0,0,1,.707,1.994h14.5a2.057,2.057,0,0,0-.081-.538c-.28-.864.511-.96,1.114-1.164.652-.217,1.276-.524,1.922-.767a1.681,1.681,0,0,0,1.116-2.252,35.635,35.635,0,0,0-1.155-4.36c-1.251-3.173-1.713-6.558-2.5-9.83-.632-2.614,1.2-5.157,1.963-7.723a27.483,27.483,0,0,1,1.336-3.05,43.3,43.3,0,0,1-7.976.534,1.641,1.641,0,0,1-1.8-1.46c-1.108-4.481-.566-5.428,3.962-6.491a26.99,26.99,0,0,1,6.162-.789,3.215,3.215,0,0,0,2.232-.477,13.241,13.241,0,0,0-6.131-.4,14.737,14.737,0,0,1-4.845-.071c2.227-.2,4.454-.393,6.747-.6a2.407,2.407,0,0,0-1.551-2.361,31.318,31.318,0,0,1-5.768-3.9,34.33,34.33,0,0,1,5.463,3.107,3.068,3.068,0,0,0,2.843.464,4.347,4.347,0,0,1,1.707-.085c.525.112.36-.8.4-1.265.212-2.249-.652-4.5.022-6.75a6.919,6.919,0,0,1,.129-.739c1.127-2.64.6-4.572-2.224-5.719a2.462,2.462,0,0,1-1.325-2.526c0-.816.047-1.637,0-2.45a3.859,3.859,0,0,1,3.715-4.009,3.477,3.477,0,0,1,3.539,3.212,6.341,6.341,0,0,1-.305,3.159c-.443,1.206-.074,2,1.246,2.149a3.782,3.782,0,0,1,2.956,2.109c1.507,2.834,3.742,5.146,5.416,7.853,1.526,2.472,1.433,3.164-1.333,4.144-2.023.715-2.208,1.638-1.485,3.483a11.428,11.428,0,0,1,.2,5.772c-.55,3.914-1.331,7.79-2.007,11.686a11.9,11.9,0,0,0,.088,5c.863,3.555.429,7.251.808,10.877a41.6,41.6,0,0,1,.384,6.225h12.95c.048-.794.3-1.445,1.6-1.76,2.893-.7,4.2-2.812,4.49-5.793.261-2.764.148-5.529.357-8.284.063-.827-.19-1.322-1.009-1.484-1.133-.227-1.135-.927-.844-1.837,1.064-3.332,1.32-6.912,3.417-10.274-2,.28-3.632.528-5.265.733-1.122.144-2.246.283-3.374.336-4.468.2-5.227-.663-4.828-5.183.08-.922.613-1.116,1.3-1.317a49.5,49.5,0,0,1,10.047-1.531,2.53,2.53,0,0,1,.456.024c.564.061,1.2.121,1.146-.948-.058-1.122-.731-1.278-1.663-1.267-1.949.024-3.9,0-5.851-.037a2.674,2.674,0,0,1-1.693-.527h6.953c-1.622-3.055-4.877-4.358-7.047-6.786.495-.48.781.055,1.053.265a50.659,50.659,0,0,1,4.4,3.549c.913.886,1.74.616,2.708.413,1.163-.247.657-1.186.819-1.834.715-2.856.228-5.884,1.306-8.713.354-.93-.366-1.686-1.38-1.823a1.4,1.4,0,0,1-1.375-1.295,29.992,29.992,0,0,1-.36-4.424,3.525,3.525,0,0,1,2.628-3.132,3.408,3.408,0,0,1,3.866.58c1.18,1.152,1.823,2.7.987,4.105-1.3,2.186-.316,2.779,1.265,4.4a105.289,105.289,0,0,1,7.355,7.693c1.454,1.834,1.13,2.557-1.048,3.439a13.882,13.882,0,0,1-3.005,1.078c-2.092.319-2.175,1.569-1.919,3.249.366,2.4,1.947,4.337,2.345,6.737.22,1.308-.061,1.853-1.325,1.716-1.457-.163-1.57.712-1.432,1.737.517,3.827-.377,7.6-.429,11.407a1.94,1.94,0,0,0,.652,1.484c2.5,2.523,4.7,5.478,8.622,6,.943.125,1.518.724,1.1,1.74a32.893,32.893,0,0,1-3.47,6.874,3.26,3.26,0,0,1-.594.69h8.565a.728.728,0,0,1,.022-.085c.19-.589.764-.636,1.265-.523a5.242,5.242,0,0,0,2.934-.393c-.9-1.121-.61-1.99.379-2.966,1.372-1.355,1.548-3.333,1.625-5.1A93.862,93.862,0,0,1,451.967,45.5a8.9,8.9,0,0,0-2.444-8.914c-.619-.6-.371-.913-.033-1.559.531-1.021,1.465-2.219.091-3.335-1.13-.913-3.626-.96-4.536-.124-3.17,2.917-6.337,5.837-9.565,8.81-.335-.831.294-1.034.6-1.331,2.675-2.573,5.389-5.1,8.064-7.676.789-.759,1.812-1.384,1.743-2.747a1.187,1.187,0,0,1,.66-.851c3.03-1.226,4.817-3.868,7.173-6.191-2.991-.948-3.948-3.4-4.751-5.825-.566-1.716.75-3.575,2.634-4.232a3.342,3.342,0,0,1,4.424,1.757c.467.954.753,1.994,1.177,2.97s1.048,1.174,1.889.394Q462,13.952,464.944,11.3a1.817,1.817,0,0,0,.734-1.271c.019-2.035,1.4-2.747,3.016-3.349,2.617-.973,4.369-3.11,6.37-4.9C475.8,1.119,476.349.218,477.49,0c.421,1.064-.357,1.68-.858,2.321a52.451,52.451,0,0,1-6.9,7.22,9.256,9.256,0,0,0-3.371,7.085,7.624,7.624,0,0,1-1.864,5,1.161,1.161,0,0,0-.027,1.795,3.252,3.252,0,0,1,.894,1.421c.729,4.207,4.1,6.432,6.852,9.057,1.3,1.243,1.553,2.414.278,3.426-3.024,2.4-5.078,5.764-8.216,8.018-.569.409-1,1.15-1.922.919-.555-.139-.594.365-.588.717.058,3.445.289,6.566,2.777,9.615,3,3.676,5.312,7.936,8.314,11.708,1.66,2.089,1.108,2.776-1.3,4.217-.429.257-.844.537-1.257.819H503.45c2.888-2.052,3.189-3.413,1.482-6.565a2.548,2.548,0,0,0-.27-.492c-3.035-3.583-1.8-7.094.448-10.347,1.542-2.235.888-4.734,1.49-7.058.11-.424-.231-.729-.544-.918-1.749-1.045-2.312-3.1-3.772-4.4a1.2,1.2,0,0,1-.393-.827c.245-4.416-2.343-8.079-3.228-12.194a2.344,2.344,0,0,0-.742-1.059c-2.829-2.681-5.95-4.77-10.016-5a6.826,6.826,0,0,1-2.2-.473,7.4,7.4,0,0,1-2.428-1.4c-1-.988.462-1.561.676-2.374.7-2.638.97-5.4,2.472-8.279.913,3.029,2.969,3.822,5.573,3.976a4.727,4.727,0,0,1,3.816,3.115c1.716,3.736,3.55,7.416,3.888,11.7a27.715,27.715,0,0,0,3.03,9.835c.806,1.645,1.683,3.9,4.16,4.529a7.159,7.159,0,0,1,2.639-4.034c.842-.624.663-1.263-.016-1.858a3.1,3.1,0,0,1-1.083-3.376c.171-.6-.014-.922-.627-1.111a1.025,1.025,0,0,1-.808-1.125c.08-.685.663-.706,1.152-.682.789.038,1.243-.536,1.828-.874a4.907,4.907,0,0,1,5.51,1.1c1.078,1.188.918,2.884-.4,4.6-.341.443-.6.943-.913,1.41-.173.262-.368.5-.237.854,1.169,3.112.737,6.29.448,9.472a6.174,6.174,0,0,0,.267,1.657,6.947,6.947,0,0,1-.129,4.27c-.8,2.079-.349,4.571-.1,6.9.25,2.29.9,4.536.75,6.882a6.641,6.641,0,0,0,.324,2.6,6.691,6.691,0,0,1,.354,1.542H962.469V189.977ZM464.029,73.342c.209-.342.694-.385,1.119-.437a2.4,2.4,0,0,1,.459,0c.261.02.495.039.635-.1a33.279,33.279,0,0,0-9.23-14.375c-1.52,2.767-1.377,5.9-2.068,8.852a32.736,32.736,0,0,0-.571,6.054Zm-30.689,0c-.41-.33-.316-.942-.2-1.408,1.017-4.135-1.295-6.675-4.256-8.875-1.4-1.045-2.9-1.977-4.567-3.1-.682,3.053-1.325,5.921-1.96,8.794a1.961,1.961,0,0,0,.264,1.451,6.543,6.543,0,0,1,1,3.143Zm-85.358,0a2.3,2.3,0,0,1,.317-1,4.963,4.963,0,0,0-.847-5.611c-.2-.24-.443-.663-.641-.649-3.64.256-5.672-2.608-8.449-4.324.146,1.042.289,2,.415,2.955.275,2.125-.209,2.725-2.31,2.411-1.234-.184-1.394.207-1.237,1.235a33.067,33.067,0,0,1,.369,4.981Zm-40.152,0c2.141-.725,2.005-2.083,1.6-4.044a42.957,42.957,0,0,0-5.114-13.756c-1.6,1.724-3.129,3.486-3.505,6.09-.443,3.058-2.23,5.578-3.907,8.078a10.194,10.194,0,0,0-1.442,3.632Zm-28.214,0a8.756,8.756,0,0,0-4.69-9.758c-.555-.253-.773-.223-.913.377-.713,3.093-2.374,6.07-.922,9.381Zm-38.851,0c.084-.466.461-.563,1.511-.844,1.463-.388,2.246-1.116,1.848-2.843a29.933,29.933,0,0,0-2.532-7.457c-1.295-2.447-3.013-2.444-5.175-2.169-.682.085-.734.588-.811,1.083a11.078,11.078,0,0,1-3.753,6.779,8.465,8.465,0,0,0-2.293,4.463,4.845,4.845,0,0,1-.358.987ZM99.692,65.569c-.517.014-.531.536-.662.9a5.443,5.443,0,0,0-.113,2.932,14.454,14.454,0,0,1,.3,2.592,7.912,7.912,0,0,1-.083,1.345h2.026a1.117,1.117,0,0,1,.77-.423c.514-.085,1.045-.091,1.556-.2a1.4,1.4,0,0,0,1.24-1.274c.085-.715-.305-.979-.88-1.3-1.583-.878-2.45-2.441-3.434-3.88-.193-.279-.332-.7-.7-.7ZM507.637,65c.861,2.169.789,4.751,2.728,6.48.379.338.594.816,1.2.638.583-.168.7-.673.781-1.172a9.606,9.606,0,0,0-.4-4.445c-.165-.527-.162-1.395-.77-1.361-1.727.1-1.922-1.138-2.268-2.862C508.284,63.56,507.434,64.492,507.637,65ZM328.546,35.262a2.229,2.229,0,0,0,2.353-2.133c.1-.943-1.289-.809-2.078-.772a9.8,9.8,0,0,1-3.063.2C326.094,34.4,326.833,35.213,328.546,35.262Z" transform="translate(-0.001 382.806)" opacity="0.5" fill="url(#linear-gradient)"/>
  </g>
</svg>
