<svg xmlns="http://www.w3.org/2000/svg" xmlns:xlink="http://www.w3.org/1999/xlink" width="301" height="494" viewBox="0 0 301 494">
  <defs>
    <clipPath id="clip-path">
      <rect id="Прямоугольник_854" data-name="Прямоугольник 854" width="301" height="494" transform="translate(824 371)" fill="#fff" stroke="#707070" stroke-width="1"/>
    </clipPath>
  </defs>
  <g id="femaleLspd1" transform="translate(-824 -371)" opacity="0.2" clip-path="url(#clip-path)">
    <path id="Контур_70" data-name="Контур 70" d="M3921.819,3352.73c-6.815-11.628-7.644-23.893-6.113-37.2,1.25-10.873-.447-22.089-.929-33.148-.051-1.194-1.061-2.372-1.03-3.542.246-9.218.724-18.429.942-27.648.1-4.367-.17-8.747-.358-13.117-.062-1.467-.62-2.932-.555-4.379.667-14.744.13-29.7,2.53-44.162,2.084-12.552,3.118-25.691,11.733-36.789,10.772-13.876,10.237-31.252,11.564-47.763,3.314-41.26,6.732-82.519,9.3-123.829.822-13.229-4.556-25.494-11.627-36.644-3.479-5.487-6.537-11.6-14.526-12.443-1.765-.185-3.54-3.7-4.664-5.991-9.719-19.859-9.3-39.309-1.447-60.3,6.453-17.246,8.69-36.108,12.369-54.34,2.926-14.5,13.159-23.4,27.983-23.833a146.406,146.406,0,0,0,17.764-1.537c7.737-1.178,10.627-7.288,8.24-14.833-3.042-9.625-6.881-19.32-7.778-29.219-1.118-12.343-2.4-25.326,5.287-36.746,1-1.489,1.168-3.755,1.176-5.661.056-15.5,9.133-21.185,23.889-16.475,21.818,6.965,30.358,26.838,29.191,47.755-.054.977-.373,2.248.1,2.9,5.4,7.449.929,14.105-3.388,18.792-7.41,8.042-4.964,16.287-3.653,25.017.639,4.257.176,8.682.838,12.933.567,3.643,1.049,8.017,3.29,10.542a119.952,119.952,0,0,0,17.465,16.121c7.341,5.524,9.579,12.462,9.694,21.264.082,6.189,2.534,12.31,3.167,18.539.814,7.986,2.176,16.249.993,24.042-3.1,20.386,3.316,38.594,10.394,56.958,1.676,4.349,1.768,9.36,2.251,14.1.921,9.038,2.06,17.612,7.233,25.841,4.75,7.558,7.527,16.6,3.542,26.077-1.083,2.574-2.131,6.067-1.249,8.4,3.165,8.355,1.587,16.19-5.118,20.68-4.53,3.032-11.724,2.085-17.725,2.92l-1.4-2.178c-.632,4.271-1.306,8.536-1.887,12.813-2.27,16.7-4.347,33.436-6.8,50.112-4.074,27.708-7.778,55.49-12.76,83.038-5.194,28.732-11.883,57.191-17.56,85.841a128.88,128.88,0,0,0-2.818,25.758c.027,3.915,3.081,8.258,5.755,11.615,7.017,8.806,14.9,16.664,26.922,18.336,1.931.269,4.439.6,5.517,1.876,2.052,2.439,4.685,5.722,4.424,8.4-.254,2.6-3.667,6.773-5.973,6.97a210.863,210.863,0,0,1-30.989.538c-11.362-.711-22.614-3.109-33.974-3.947-6.958-.513-10.968-3.194-10.986-10.17a196.921,196.921,0,0,1,1.067-21.377c1.868-17.472,4.643-34.863,5.988-52.369,1.652-21.505,1.114-43.227,3.649-64.6,1.672-14.1,7.295-27.712,10.71-41.649,1.02-4.162.611-8.684.755-13.044.755-22.79,1.479-45.581,1.169-68.788-2.036,7.026-3.971,14.085-6.129,21.073-7.386,23.925-15.219,47.719-22.123,71.78-3.185,11.1-4.434,22.744-6.909,34.067-1.154,5.285-3.607,10.3-4.654,15.6-4.6,23.269-8.935,46.592-13.27,69.913-.5,2.665-.011,5.53-.626,8.149-4.235,18-1.015,34.794,7.618,50.88,3.849,7.17,2.233,10.859-7.155,18.1ZM4062.6,3022.061c-1.309-9.167,8.219-18.672-.367-28.093-1.017-1.116-.337-3.822-.355-5.792-.036-3.922-.01-7.845-.01-11.768l-2.668.138Q4060.9,2999.3,4062.6,3022.061Zm-111.315-139.053c-3.708,12.229-2.9,18.949,2.873,24.795C3954.694,2899.427,3958.3,2891.178,3951.283,2883.008Z" transform="translate(-3025.178 -2237.523)"/>
  </g>
</svg>
