<svg xmlns="http://www.w3.org/2000/svg" xmlns:xlink="http://www.w3.org/1999/xlink" width="301" height="494" viewBox="0 0 301 494">
  <defs>
    <clipPath id="clip-path">
      <rect id="Прямоугольник_857" data-name="Прямоугольник 857" width="301" height="494" transform="translate(824 371)" fill="#fff" stroke="#707070" stroke-width="1"/>
    </clipPath>
  </defs>
  <g id="femaleLspd2" transform="translate(-824 -371)" opacity="0.2" clip-path="url(#clip-path)">
    <path id="Контур_73" data-name="Контур 73" d="M6403.021,3754.733c0-2.6.166-5.218-.051-7.8-.19-2.253-.942-4.454-1.2-6.707-.2-1.745.088-3.542-.035-5.3a46.466,46.466,0,0,0-.794-6.168c-.649-3.128-1.5-6.214-2.245-9.323-.206-.86-.083-1.894-.521-2.588-3.983-6.31-4.225-13.712-5.321-20.649-1.344-8.5-2.249-17.228-.611-25.954a139.38,139.38,0,0,0,1.476-13.906,5.512,5.512,0,0,0-.663-2.542c-10.434-23.172-17.608-47.375-22.969-72.165-1.4-6.479-3.083-12.9-4.625-19.346a17.458,17.458,0,0,1-.4-2.116c-.986-8.812-1.914-17.632-3-26.433a3.476,3.476,0,0,0-1.792-2.429c-3.752-1.342-7.369-2.832-9.938-6.035a3.618,3.618,0,0,1-.968-2.485c2.779-12.441,4.917-24.936,4.719-37.764-.069-4.543.664-9.095.694-13.646a6.831,6.831,0,0,0-1.66-4.537c-1.494-1.457-1.369-2.827-1.221-4.548.32-3.728.469-7.47.654-11.208.015-.311-.226-.634-.455-1.235a23.614,23.614,0,0,0-2.194,1.677c-4.434,4.314-10.158,5.939-15.865,7.508-2.49.685-4.6-.446-6.089-2.5a49.716,49.716,0,0,1-8.768-21.175c-2.1-12.311-.638-24.49.608-36.739.875-8.615,1.584-17.3.036-25.966-.264-1.473.056-3.041-.1-4.543-.39-3.7-.688-7.434-1.405-11.079-1.346-6.847-3.292-13.593-4.274-20.483-.32-2.246,1.38-4.913,2.538-7.194.9-1.768,1.844-3.068.191-5.034-.511-.609.029-2.951.824-3.6,1.1-.9,2.031-1.458,1.876-3.061a2.047,2.047,0,0,1,.726-1.661c3.417-1.925,3.722-6.153,6.526-8.391-1.212-2.381-2.841-4.49-3.355-6.844-.814-3.729-.742-7.644-1.318-11.438a32.206,32.206,0,0,0-1.933-7.133c-.759-1.888-2.321-3.448-3.127-5.325-6.058-14.125-15.556-26.215-23.2-39.4-1.255-2.164-1.122-3.788,1.01-5.284,3.379-2.372,6.6-4.969,10.044-7.243.934-.617,2.405-.42,3.63-.6l.312.817,2.524-4.48.855-.047c.691,1.745,1.387,3.488,2.071,5.236a19.344,19.344,0,0,0,1.137,2.937c5.624,9.39,11.326,18.732,16.911,28.145a16.236,16.236,0,0,1,1.2,3.984,10.633,10.633,0,0,0,.659,2.566c5.893,9.952,11.843,19.87,17.9,29.99,2.322-1.4,3.519.26,4.652,1.943,4.185,6.211,8.346,12.439,12.7,18.93a31.824,31.824,0,0,0-4.142,1.783,4.079,4.079,0,0,0-1.458,2.033c-.114.307.519.953.9,1.364.648.7,1.366,1.334,2.055,2-.937.588-1.84,1.242-2.822,1.739a7.137,7.137,0,0,1-1.818.379c-.854,3.223,5.1,6.773-.722,9.61l5.8,13.977,1.1.083c1.87-4.673,4.091-9.24,5.531-14.042,2.39-7.971,4.62-16.023,6.268-24.173,1.245-6.153,1.149-12.57,2.252-18.761,1.018-5.709,2.756-11.3,4.332-16.9,1.406-5,2.915-9.97,4.571-14.89,4.451-13.218,10.849-25.257,21.468-34.67,4.743-4.2,9.751-6.359,16.165-3.382,2.042.948,4.765.347,7.152.651,9.566,1.218,16.291,6.657,21.795,14.271,7.161,9.906,9.32,21.143,9.82,32.979.37,8.763,1.258,17.516,1.315,26.277a185.159,185.159,0,0,1-1.313,22.408c-.441,3.819-2.187,7.487-3.419,11.468,3.9,1.481,7.925,3.088,12.007,4.537,3.377,1.2,6.4,6.046,6.335,9.678-.075,4.357.484,8.726.394,13.083-.176,8.489-.323,17-1.056,25.451a56.043,56.043,0,0,1-3.181,13.777c-.753,2.116-3.186,3.648-4.9,5.4-1.149,1.175-2.519,2.16-3.537,3.432-2.179,2.721-3.793,6.036-6.368,8.266-4.272,3.7-6.1,8.781-8.581,13.446-1.729,3.257-2.108,7.2-3.511,10.672a105.2,105.2,0,0,1-4.945,9.735c-.2.382-.775.567-1.334.953,1.394,1.606.808,2.84-2.065,3.637a11.737,11.737,0,0,0,2.673,1.465c6.35,1.075,8.815,7.138,4.278,11.99-.515.551.395,2.651.935,3.908a12.8,12.8,0,0,0,2.153,3.246c.473.544,1.329.738,1.968,1.158a2.758,2.758,0,0,1,.883.912,15.389,15.389,0,0,1,1.012,2.191c3.029,8.217,5.879,16.507,9.153,24.625,1.027,2.549,3.37,4.536,4.755,6.98.878,1.548,1.088,3.471,1.626,5.218a6.928,6.928,0,0,0,.834,2.209c3.343,4.323,3.231,9.469,3.574,14.51.236,3.488.821,7,.591,10.463-.59,8.841-1.228,17.7-2.507,26.461-.575,3.94-2.728,7.648-4.157,11.465a4.074,4.074,0,0,0-.366,1.274,31.073,31.073,0,0,1-2.6,10.8c-4.938,12.724-7.954,26.024-10.855,39.346-2.288,10.507-4.9,20.944-7.348,31.417-.692,2.96-1.947,5.956-1.847,8.9.185,5.457.517,11.069,1.958,16.293,4.635,16.8,8.791,33.623,9.41,51.173.213,6.05,1.4,12.065,2.142,18.1Zm-60.791-364.616c2.141-4.295,1.959-8.979,4.956-12.625,1.667-2.03,2.538-4.719,3.741-7.123a5.947,5.947,0,0,0,.857-2.147c.164-3.491-3.367-8.6-7.212-10.036C6342.092,3368.67,6340.73,3379.093,6342.23,3390.117Zm-11.4-91.468-4.285-3.857-1.035.523c.727,2.667,1.453,5.333,2.2,8.085Z" transform="translate(-5433.361 -2782.129)"/>
  </g>
</svg>
