<svg xmlns="http://www.w3.org/2000/svg" xmlns:xlink="http://www.w3.org/1999/xlink" width="301" height="494" viewBox="0 0 301 494">
  <defs>
    <clipPath id="clip-path">
      <rect id="Прямоугольник_856" data-name="Прямоугольник 856" width="301" height="494" transform="translate(824 371)" fill="#fff" stroke="#707070" stroke-width="1"/>
    </clipPath>
  </defs>
  <g id="femaleCrim2" transform="translate(-824 -371)" opacity="0.2" clip-path="url(#clip-path)">
    <path id="Контур_72" data-name="Контур 72" d="M5936.689,3566.785a189.549,189.549,0,0,1-5.18-26.814c-1.154-8.36-2.4-16.726-4.116-24.983-1.654-7.954-3.855-15.79-8.121-22.885-4.367-7.264-8.556-14.635-12.795-21.975-.934-1.617-1.751-3.3-2.858-5.4,2.705,1,4.738,1.678,6.712,2.5,3.865,1.6,9.656-.392,12.257-5.183a77.647,77.647,0,0,0,4.267-8.976c.927-2.4,2.285-4.79,1.241-7.627-3.032-8.237-3.488-16.833-3.631-25.515a78.146,78.146,0,0,0-1.519-12.286c-.309-1.744-.245-2.952.282-3.7,0-.032,0-.061.01-.093a5.633,5.633,0,0,1,1.274-2.782,3.78,3.78,0,0,1,1.4-1.288l.085-.067c.18-.367.6-1.081.757-1.339a5.054,5.054,0,0,1,.117-.926,13.673,13.673,0,0,0-.357-5.854,177.3,177.3,0,0,0-5.57-21.631c-1.852-5.46-4.46-10.718-5.017-16.6-.407-4.293-.9-8.585-1.583-12.841-1.121-7.023-2.468-14.009-3.635-21.025a213.942,213.942,0,0,0-7.558-32.385c-1.615-4.868-3.909-9.509-5.532-14.374a29.707,29.707,0,0,0-9.762-14.173,19.543,19.543,0,0,0-15.364-4.124c-6.542.9-12.415,3.519-18.121,6.642a23.023,23.023,0,0,1-3.031,1.7c-8.6,3.106-13.259,10.231-16.206,17.963-2.8,7.34-3.8,15.384-5.387,23.158-.9,4.379-1.152,8.893-2.132,13.248a79.8,79.8,0,0,0-1.962,14.259,44.584,44.584,0,0,1-.969,7.364,11.509,11.509,0,0,1-8.724,9.255,51.477,51.477,0,0,0-6.666,1.985c-11.464,4.963-19.208,13.8-23.578,25.134a239.2,239.2,0,0,1-14.265,29.566c-4.258,7.705-8.318,15.521-12.379,23.333a20.169,20.169,0,0,0-1.874,5.131c-1.475,7.095-.336,12.35,7.007,16.342a26.451,26.451,0,0,0,3.211,1.346,45.291,45.291,0,0,0,23.977,2.267c5.225-.86,10.487-1.5,15.737-2.2a5.833,5.833,0,0,1,5.572,2.693,15.746,15.746,0,0,1,2.816,5.75,52.126,52.126,0,0,1,.968,14.877,50.317,50.317,0,0,0-.6,5.926c.389,9.563-1.523,18.767-3.743,27.992-1.7,7.071-3.626,14.138-3.486,21.556a106.524,106.524,0,0,0,2.611,19.206c2.439,12.026,5.1,24.018,4.445,36.424a15.324,15.324,0,0,0,.167,3.486c.885,4.939,2.139,5.919,7.3,5.935a5.759,5.759,0,0,1,1.088.24,17.371,17.371,0,0,1,.926,1.629c4.725,10.669,10.847,20.575,16.737,30.605,7,11.917,12.814,24.428,18.517,36.986a21.867,21.867,0,0,1-.9,21.008,44.592,44.592,0,0,0-3.819,9.668c-3.438,11.744-2.421,23.821-1.646,35.716.589,9.041,3.209,17.932,4.265,26.967a70.905,70.905,0,0,1-.011,17.424c-1.027,7.7-3.726,15.078-6.276,22.448-2.814,8.132-5.9,16.224-6.7,24.908-.484,5.237-2.664,9.858-4.989,14.478-1.481,2.944-2.5,6.12-3.739,9.187-1.135,2.811-.544,5.592.359,8.263,2.491,7.37,5,14.74,7.751,22.013a74.037,74.037,0,0,0,5.131,10.788c2.7,4.661,6.89,4.964,10.6.88a25.452,25.452,0,0,0,3.169-5.043c1.193-2.187,2.157-4.5,3.4-6.655.378-.654,1.368-.953,2.582-1.741.113,2.467.224,4.268.272,6.07.152,5.742,1.919,7.215,7.433,6.118a18.763,18.763,0,0,0,1.883-.632c4.712-1.482,8.442-4.54,12.2-7.561,6.629-5.327,8.478-12.487,7.327-20.465a71.883,71.883,0,0,0-3.419-13.441c-1.785-5.079-3.1-10.133-2.76-15.553a21.225,21.225,0,0,0-.143-3.991c-.869-6.9-1.825-13.8-2.689-20.7-.989-7.9-2.09-15.782-2.8-23.7a52.546,52.546,0,0,1,.352-14.4,120.771,120.771,0,0,1,5.82-19.506,154.989,154.989,0,0,0,5.52-16.975c2.451-10.211,2.975-20.675,2.98-31.161,0-7.83-.2-15.675.2-23.487a140.385,140.385,0,0,1,2.29-18.723c1.139-6.007,3.026-11.871,4.569-17.8,3.461-13.312,7.242-26.529,12.01-39.441,1.6-4.332,3.761-8.427,4.515-13.1a9.319,9.319,0,0,1,4.533-6.326,65.426,65.426,0,0,0,5.676-4.055c3.375-2.654,3.342-2.689,2.014-6.555C5937.154,3568.37,5936.918,3567.578,5936.689,3566.785Zm-132.2-146.339a76.423,76.423,0,0,1-1.837,8.167c-.282,1.233-.884,2.335-2.235,2.22a49.757,49.757,0,0,1-7.788-1.137c-1.725-.429-2.186-1.841-1.571-3.566a9.237,9.237,0,0,1,1.326-2.652c2.662-3.355,5.364-6.682,8.163-9.921a10.967,10.967,0,0,1,2.8-1.633C5805.517,3414.887,5804.793,3417.762,5804.485,3420.446Z" transform="translate(-4869.642 -2819.224)"/>
  </g>
</svg>
