<svg xmlns="http://www.w3.org/2000/svg" xmlns:xlink="http://www.w3.org/1999/xlink" width="301" height="494" viewBox="0 0 301 494">
  <defs>
    <clipPath id="clip-path">
      <rect id="Прямоугольник_855" data-name="Прямоугольник 855" width="301" height="494" transform="translate(824 371)" fill="#fff" stroke="#707070" stroke-width="1"/>
    </clipPath>
  </defs>
  <g id="femaleCrime1" transform="translate(-824 -371)" opacity="0.2" clip-path="url(#clip-path)">
    <path id="Контур_71" data-name="Контур 71" d="M4837.352,3285.317c0,3.4-.115,6.8.026,10.2a35.417,35.417,0,0,0,4.551,16.124c2.436,4.351,4.18,9.061,3.681,14.279-.317,3.309-.534,6.628-.721,9.947-.153,2.735.095,5.308,2.946,6.818,1.43.758,1.646,2.089,1.328,3.633-.7,3.384-2.384,4.935-5.831,5.077-3.7.153-7.487.275-10.62-2.015-1.245-.91-2-2.608-2.738-4.069-1.572-3.121-3-6.312-4.451-9.493a6.722,6.722,0,0,1-.892-2.658c.07-3.831-.151-7.755.61-11.466a41.515,41.515,0,0,0,.154-16.915,27.9,27.9,0,0,1-.49-5.06c-.129-7.162-.031-14.332-.327-21.486-.188-4.558-1.026-9.084-1.388-13.639-1.018-12.8-2.229-25.6-2.781-38.419-.291-6.747.557-13.551,1.038-20.319a10.271,10.271,0,0,0-4.685-9.883,4.529,4.529,0,0,1-1.306-3.068c-.386-4.782-.838-9.584-.759-14.371.048-2.914-1.283-4.509-3.442-5.843-3.4-2.1-3.414-2.106-2.351-5.883a8.342,8.342,0,0,0,.24-1.307c1.266-10.9,2.4-21.826,3.848-32.706.617-4.636,1.944-9.173,2.852-13.775a33.82,33.82,0,0,1,5.254-12.166,25.977,25.977,0,0,1,10.687-9.214,31.834,31.834,0,0,1,6.479-1.936c3.673-.845,5.362-2.711,5.976-6.39a83.053,83.053,0,0,1,2.438-11.6c.7-2.2,2.69-3.957,3.816-6.064,1.647-3.084,3.088-6.282,4.525-9.473.955-2.12,1.76-4.309,2.615-6.473.724-1.829,1.553-3.629,2.107-5.509,1.344-4.562,2.454-9.193,3.849-13.737,1.349-4.393,2.957-8.707,4.413-13.068.763-2.285,1.3-4.657,2.206-6.88a36.384,36.384,0,0,1,3.27-6.391c3.758-5.661,8.056-10.9,13.854-14.6a25.145,25.145,0,0,1,13.363-4.43,38.729,38.729,0,0,1,14.33,2.008c4.744,1.779,9.861,2.889,13.71,6.561.518.494.893,1.136,1.394,1.651a6.579,6.579,0,0,0,1.754,1.527,25.017,25.017,0,0,0,4.139,1.447c2.913.744,5.85,1.393,8.785,2.051,3.289.737,6.591,1.413,9.875,2.166,4.355,1,8.695,2.055,13.047,3.066,4.006.931,8.013,1.864,12.03,2.743,2.94.644,5.89,1.258,8.853,1.79,4.055.727,8.123,1.384,12.191,2.032q9.159,1.459,18.327,2.858c1.6.245,3.232.324,4.832.582,3.267.527,6.556.983,9.774,1.734,2.63.614,3.48,4.678,1.992,7.739-1.109,2.281-1.7,4.832-2.925,7.035a42.763,42.763,0,0,1-5.256,7.723c-5.99,6.691-12.162,13.221-18.347,19.734-3.988,4.2-8.019,8.372-12.26,12.308-1.347,1.25-1.358,2.463-1.336,3.917.226,15.148.594,30.295.645,45.443q.056,16.958-.59,33.916a194.124,194.124,0,0,1-1.926,20.046,104.9,104.9,0,0,1-3.3,14.368c-1.144,3.916-2.922,7.642-4.28,11.5a48.023,48.023,0,0,0-1.85,6.752,13.3,13.3,0,0,1-4.108,6.874c-1.229,1.231-1.448,2.154-.331,3.782a23.265,23.265,0,0,1,2.375,5.841c.831,2.48,1.393,5.055,2.291,7.508,1.452,3.961,3.073,7.86,4.641,11.778,1.437,3.589,3.191,7.082,4.275,10.773,1.445,4.917,3.065,9.916,2.165,15.163-.207,1.21-1.318,2.244-1.891,3.418a12.71,12.71,0,0,0-1.4,3.572c-1.036,7.224-1.945,14.467-2.894,21.7-.707,5.4-1.338,10.817-2.136,16.207-.571,3.853-1.409,7.667-2.046,11.511-1.02,6.167-2.081,12.332-2.924,18.525-1,7.378-1.793,14.784-2.683,22.177-.123,1.027-.331,2.045-.423,3.073-.72,8.011-1.358,16.029-2.145,24.033-.866,8.81-1.863,17.606-2.8,26.408-.032.294-.094.585-.115.879-.687,9.868-1.28,19.745-2.083,29.6-.8,9.781-1.851,19.541-2.707,29.317-.812,9.264-1.414,18.548-2.292,27.805-.892,9.4-2,18.772-3.032,28.155-.24,2.2-.536,4.27.9,6.364,1.419,2.069,0,7.756-1.973,8.438-2.347.813-4.886,1.858-7.25,1.668-4.177-.336-6.246,1.448-6.643,5.206-.584,5.523-2.422,11.046-.552,16.645.693,2.075,1.833,4.035,2.277,6.15.5,2.385,1.022,5.009.534,7.316-1.965,9.283-4.28,18.49-5.233,27.961-.243,2.421-.444,4.847-.749,7.261a13.071,13.071,0,0,1-10.032,10.9,24.056,24.056,0,0,1-11.588.218,32.068,32.068,0,0,0-6.174-.506c-1.911-.06-2.657-1.035-3.049-2.819-.33-1.5-1.467-2.851-1.678-4.348a29.72,29.72,0,0,1,.14-5.712c.037-.675.539-1.525.279-1.981-1.677-2.938-.071-5.536,1.3-7.634,2.364-3.6,3.422-7.556,4.422-11.58,1.04-4.19,1.907-8.425,2.843-12.641.653-2.939,1.322-5.875,1.936-8.823.717-3.446,1.235-6.941,2.12-10.342.658-2.526,1.78-4.929,2.664-7.4.787-2.2,1.537-4.409,2.285-6.622.163-.484.088-1.142.392-1.471,1.838-1.993.671-3.3-.924-4.556-3.2-2.525-3.821-8.872-1.521-12.164a10.457,10.457,0,0,0,1.744-5.071c.438-6.707.247-13.469.935-20.144,1.815-17.632.9-35.3,1.072-52.952.179-18.548.192-37.1-.064-55.65-.1-7.21-1.5-14.4-1.627-21.614-.113-6.542.685-13.1,1.121-19.649.372-5.6.844-11.194,1.189-16.794.372-6.035.857-12.075.865-18.114,0-2.576-.939-5.2-1.713-7.716-.531-1.728-3.655-1.955-5.147-.39-6,6.288-11.608,12.868-15.747,20.592-2.581,4.816-5.434,9.488-7.938,14.342-2.033,3.94-3.7,8.065-5.582,12.085-1.384,2.957-2.909,5.847-4.255,8.819-1.442,3.181-2.726,6.432-4.121,9.635-1.424,3.268-2.92,6.5-4.342,9.773q-1.091,2.508-2.031,5.081c-1.87,5.132-3.635,10.3-5.568,15.41-1.339,3.531-2.953,6.957-4.329,10.475s-2.6,7.118-3.929,10.667c-.817,2.178-1.707,4.329-2.58,6.487-.709,1.752-1.5,3.473-2.151,5.246-1.883,5.129-3.65,10.3-5.587,15.409-1.369,3.613-3.018,7.118-4.4,10.728-1.407,3.679-2.566,7.453-3.963,11.136-1.372,3.617-2.964,7.151-4.348,10.764-.86,2.245-1.506,4.57-2.26,6.856-.615,1.868-1.16,3.766-1.889,5.589-2,5.009-4.134,9.964-6.1,14.983-1.042,2.654-1.916,5.38-2.715,8.117a2.8,2.8,0,0,0,.631,1.9c.847,1.26.66,4.345-.5,5.866-1.041,1.361-2.285,1.182-3.763.68a24.48,24.48,0,0,0-3.926-.563,47.723,47.723,0,0,1-4.75-.909c-1.841-.5-3.125-.541-4.023,1.683-1.218,3.02-3.183,5.744-4.361,8.777-1.549,3.99-3.71,8.014-2.369,12.515.525,1.761,1.76,3.3,2.573,4.989a5.766,5.766,0,0,1,.811,2.667c-.277,3.809-.643,7.618-1.16,11.4-.6,4.372-1.375,8.72-2.1,13.074-.29,1.738-.746,3.451-.969,5.2-.261,2.038-.436,4.1-.494,6.151-.123,4.335.146,8.7-.28,13.005-.562,5.673-4.135,9.743-9.818,10.624-3.79.588-7.624.963-11.453,1.189-2.552.151-5.233.095-7.1-2.116a4.564,4.564,0,0,1-.919-2.382c-.189-1.908-.042-3.853-.277-5.752-.434-3.487,1.311-6.424,2.177-9.582.4-1.464.9-2.9,1.232-4.383.926-4.16,1.8-8.331,2.667-12.5.687-3.312,1.365-6.625,1.978-9.951.745-4.046,1.325-8.123,2.144-12.153.759-3.732,1.718-7.424,2.625-11.125.734-2.995,1.436-6,2.311-8.956.884-2.986,1.946-5.92,2.965-8.865a37.161,37.161,0,0,0,1.674-4.741c.145-.732-.434-2.209-.98-2.375-2.729-.828-1.879-2.7-1.341-4.278,1.882-5.526,4.016-10.968,5.844-16.511.96-2.913,1.4-5.993,2.228-8.957.782-2.812,1.784-5.563,2.634-8.358.637-2.1,1.212-4.219,1.771-6.342.744-2.828,1.39-5.683,2.178-8.5.867-3.093,1.855-6.15,2.773-9.229.712-2.384,1.32-4.8,2.108-7.157q2.316-6.926,4.792-13.8c1.254-3.5,2.555-6.985,3.93-10.439,1.35-3.391,2.856-6.719,4.224-10.1,1.419-3.507,2.736-7.054,4.131-10.57.83-2.094,1.727-4.161,2.592-6.241a45.43,45.43,0,0,0,2.058-5.048c1.275-4.553,3.745-8.721,3.9-13.665.073-2.26,1.3-4.48,1.962-6.728.454-1.529.924-3.059,1.252-4.617.679-3.226,1.215-6.483,1.911-9.706.883-4.092,1.9-8.153,2.794-12.243.608-2.8,1.126-5.614,1.631-8.432.728-4.052,1.318-8.131,2.132-12.165.768-3.8,1.746-7.564,2.64-11.341.119-.5.333-.98.428-1.484,1.269-6.784,2.274-13.629,3.844-20.342a142.263,142.263,0,0,0,3.336-26.523c.123-2.894,1.43-5.739,1.542-8.631a98.789,98.789,0,0,0-.559-11.869c-.223-2.71-.8-5.39-1.093-8.1-.143-1.341-.5-2.133-1.987-2.458-.7-.153-1.407-1.08-1.761-1.822-1.115-2.341-1.41-5.2-4.379-6.253a40.847,40.847,0,0,1-4.238-1.68c-2.036-.99-4.036-2.062-6-3.2-2.75-1.592-4.011-.939-4.37,2.247-1,8.862-2.227,17.7-3,26.584-.414,4.763-.074,9.591-.074,14.39Zm124.17-222.214a13.459,13.459,0,0,0,3.679-.661c4.186-2.059,8.294-4.274,12.4-6.5,3.4-1.84,6.6-4.152,10.157-5.557a26.814,26.814,0,0,0,9.706-6.573c1.317-1.376.924-2.222-.859-2.864q-4.926-1.771-9.788-3.715c-3.922-1.569-7.8-3.241-11.713-4.83-1.694-.688-3.446-1.233-5.14-1.92-3.578-1.451-7.047-3.241-10.723-4.361-4.48-1.364-9.117-2.226-13.707-3.215-2.639-.569-4.173.734-3.659,3.381a22.814,22.814,0,0,0,2.276,6.151,42.123,42.123,0,0,1,4.542,12.915,14.978,14.978,0,0,0,.708,2.3c.811,2.422,2.013,4.786,2.366,7.271C4952.418,3059.54,4957.036,3063.516,4961.521,3063.1ZM4841.329,3335.1l.315-.057c-.366-2-.632-4.018-1.16-5.97-.144-.532-1.024-1.031-1.658-1.2-.35-.092-1.079.432-1.311.857-1.309,2.4-.343,8.569,1.611,10.445.363.349,1.082.763,1.4.62a1.922,1.922,0,0,0,.772-1.395A31.655,31.655,0,0,0,4841.329,3335.1Z" transform="translate(-3937.414 -2544.126)"/>
  </g>
</svg>
