<svg xmlns="http://www.w3.org/2000/svg" xmlns:xlink="http://www.w3.org/1999/xlink" width="301" height="494" viewBox="0 0 301 494">
  <defs>
    <clipPath id="clip-path">
      <rect id="Прямоугольник_858" data-name="Прямоугольник 858" width="301" height="494" transform="translate(824 371)" fill="#fff" stroke="#707070" stroke-width="1"/>
    </clipPath>
  </defs>
  <g id="femaleGov" transform="translate(-824 -371)" opacity="0.2" clip-path="url(#clip-path)">
    <path id="Контур_74" data-name="Контур 74" d="M7401.364,3603.655c.464,5.148,1.084,9.854,1.279,14.578.672,16.34,1.068,32.692,1.842,49.028.3,6.416.682,12.959,2.235,19.142,1.128,4.5,1.586,8.952,2.27,13.457.532,3.5,2.375,6.778,3.338,10.238,1.732,6.229,3.463,12.475,4.755,18.8a10.433,10.433,0,0,0,5.356,7.57c6.635,3.893,13.26,7.657,21.12,8.459a13.492,13.492,0,0,1,3.236.864c3.044,1.123,3.7,2.326,3.235,6.3-3.854.35-7.813.849-11.788,1.043a111.575,111.575,0,0,1-27.3-2.28c-4.379-.871-7.512-3.1-9.326-7.185a52.951,52.951,0,0,1-2.378-5.371c-2.012-6.356-6.376-11.115-10.589-15.986a9.173,9.173,0,0,0-2.061-1.886c-2.332-1.42-4.007-.62-4.177,2.1-.313,5.031-.469,10.072-.66,15.11-.057,1.479-.009,2.962-.009,4.474-1.927.543-2.657-.125-2.631-1.827.015-.934-.06-1.874,0-2.8a54.344,54.344,0,0,0-4.992-26.409c-1.659-3.6-1.019-4.541,2.313-5.309,1.629-3.509,3.253-6.692,4.576-9.995.568-1.417.3-3.149.774-4.625,3.048-9.534.343-18.7-2.077-27.73-2.94-10.969-7.083-21.627-9.793-32.644-2.172-8.833-3.129-17.981-4.307-27.031-.35-2.689-.917-3.869-3.888-3.953-4.939-.139-9.857-.907-14.8-1.237-1.343-.09-2.721.48-4.094.66-.708.093-1.871.28-2.1-.06-1.53-2.315-3.845-1.391-5.84-1.544-2.33-.178-3.623-.881-3.872-3.553-1.066-11.437-2.306-22.86-3.563-34.278-1.071-9.731-2.254-19.45-3.421-29.453-3.013.224-5.8.3-8.524.731-.6.094-1.331,1.357-1.47,2.173-1.022,5.98-1.911,11.983-2.839,17.98-.029.184-.024.375-.062.557q-2.465,11.965-4.943,23.927a6.825,6.825,0,0,1-.633,2.138c-7.306,12.036-6.648,25.217-5.573,38.458,1.192,14.682-.191,29.316-.525,43.977-.2,8.79,1.365,17.637,2.413,26.426.211,1.775,1.681,3.393,2.534,5.1a7.285,7.285,0,0,1,.782,2.021c.721,4.577.818,9.34,2.189,13.708,2.215,7.06,2.148,14.512,4.365,21.52,1.213,3.835,2.447,7.645,5.935,10.211a4.025,4.025,0,0,1,1.262,2.409c1.043,6.066,2.084,12.136,2.907,18.233.383,2.837-.416,3.48-3.174,2.6-7.984-2.554-15.89-5.357-23.877-7.9-4.705-1.5-6.448-4.626-7.225-9.417-1.367-8.416-1.913-17.127-5.727-24.944a20.233,20.233,0,0,1-1.839-12.947,89.706,89.706,0,0,1,2.968-9.829c-2.959-2.2-2.9-2.7-.29-5.189a3.769,3.769,0,0,0,1.006-2.906c-1.089-6.045-2.026-12.151-3.665-18.056-5.094-18.363-9.761-36.8-11.875-55.788-1.358-12.2-.255-24.21,2.1-36.217,1-5.1,1.132-10.382,1.462-15.594.527-8.305.866-16.615-.942-24.847-.374-1.7-.875-2.693-2.91-3-6.532-1-6.461-1.116-6.618-7.782-.364-15.42-.645-30.844-1.214-46.258-.828-22.385,3.039-44.066,9.195-65.456.625-2.173.652-4.511,1.087-6.747a11.358,11.358,0,0,1,1.066-2.526c.655-1.389,1.34-2.764,1.917-3.949-4.335-.951-8.278-1.857-12.243-2.645a2.759,2.759,0,0,0-1.98.5c-3.024,2.34-6.131,4.609-8.9,7.229-1.991,1.882-3.174,1.373-4.811-.335-5.423-5.666-10.754-11.443-16.5-16.764-7.872-7.286-16.195-14.084-24.131-21.3-4.9-4.452-9.437-9.293-14.125-13.971a6.536,6.536,0,0,1-1.574-6.5c1.016-4.452,2.053-8.9,3.167-13.331,1.036-4.118,2.965-7.451,7.636-8.313a3.611,3.611,0,0,0,1.714-1.313c1.886-2.194,3.64-4.506,5.572-6.656,6.487-7.216,13.046-14.365,19.531-21.582.972-1.081,1.6-2.464,2.553-3.57,1.252-1.458,2.731-2.721,3.991-4.173,3.79-4.368,7.5-8.8,11.285-13.179a8.5,8.5,0,0,0,2.182-4.978c.4-3.4,2.027-6.647,3.087-9.82l-1.53.263c.079-.276.081-.494.16-.525a4.452,4.452,0,0,1,1.566-.54c6.4.053,11.836-3.109,17.586-5.207,4.044-1.476,4.214-2.314,3.439-6.563-1.445-7.913-1.9-15.92-.177-23.845,2.279-10.47,4.313-21.039,7.455-31.257,1.625-5.284,5.277-9.988,8.272-14.793,2.133-3.424,5.874-4.83,9.238-6.836,6.786-4.049,13.185-2.36,19.468.431a32.69,32.69,0,0,1,16.709,16.265c4.08,8.678,6.061,18.006,7.842,27.371.7,3.665,1.62,7.292,2.193,10.976.9,5.795,1.6,11.62,2.371,17.435.505,3.814.554,7.754,1.6,11.414.97,3.41,2.9,6.564,4.565,9.752a28.5,28.5,0,0,0,3.427,5.293,11.981,11.981,0,0,0,3.528,2.4c2.237,1.208,4.628,2.026,5.019,5.217.159,1.3,1.522,2.46,2.558,4.013l-2.018-.825,5.29,11.652-.195.1-1.9-3.05-.845.251c1.273,6.5,2.546,13.005,3.843,19.626l-1.2-.96c1.89,11.42,3.922,22.793,5.614,34.216,1.259,8.491,1.96,17.063,3.119,25.571,1.7,12.478,3.284,24.982,5.459,37.38,2.931,16.7,6.377,33.3,9.66,50.251l-2.507.752c1.178,4.261,2.476,8.492,3.475,12.794.4,1.729.1,3.613.211,5.42a8.312,8.312,0,0,0,.5,2.26c1.249,3.492,2.6,6.948,3.787,10.463.475,1.409,4.422,5.36,5.78,5.153.891-.136,1.643-1.259,2.525-1.363a46.853,46.853,0,0,1,5.591-.048c.725,0,1.451-.031,2.175,0,1.751.065,3.5.165,5.252.236a15.908,15.908,0,0,0,2.8.047c8.179-1.127,16.357,1.2,24.562-.085,2.351-.367,3.689,1.446,3.942,3.825q1.287,12.12,2.573,24.239,2.746,25.773,5.5,51.545c.916,8.541,1.9,17.075,2.713,25.626a2.786,2.786,0,0,1-1.551,2.116c-6.247,2.145-12.528,4.2-18.852,6.1-1.172.353-2.59-.2-3.875-.1-1.079.086-2.116.642-3.2.76a6.457,6.457,0,0,1-2.679-.283c-1.064-.358-2-1.345-3.053-1.445C7418.9,3605.081,7410.269,3604.4,7401.364,3603.655Zm-179.578-257.612a38.214,38.214,0,0,0,3.456,4.59c1.659,1.648,3.744,2.863,5.424,4.493,1.862,1.807,3.232,4.181,5.246,5.76,4.5,3.529,9.265,6.723,13.93,10.042a21.7,21.7,0,0,0,2.566,1.675c5.463,2.822,10.936,5.627,16.438,8.373a4.542,4.542,0,0,0,2.6.576c2.542-.469,5.039-1.181,7.591-1.807a37.247,37.247,0,0,1-.981-5.138c-.481-10.109-6.422-18.74-7.688-28.628a9.909,9.909,0,0,0-.6-1.56c-2.392-7.61-6.794-14.032-11.678-20.222-3.679-4.664-8.167-5.354-12.659-1.624-.93.772-2.009,1.367-2.919,2.16-4.83,4.2-9.8,8.262-14.366,12.734C7225.745,3339.821,7224.064,3342.913,7221.787,3346.043Zm164.329,143.324c2.042,7.387,1.211,7.033,5.459,6.028,0-.937-.422-2.293.071-2.887,2.377-2.857-.242-4.776-.6-6.7Z" transform="translate(-6344.667 -2731.224)"/>
  </g>
</svg>
