<svg xmlns="http://www.w3.org/2000/svg" width="11.033" height="14.71" viewBox="0 0 11.033 14.71">
    <path id="id_gangIcon"
          d="M7.355,4.6V.46A.46.46,0,0,0,6.895,0H5.975a.46.46,0,0,0-.46.46V4.681A1.367,1.367,0,0,1,5.975,4.6Zm3.678,2.758A1.839,1.839,0,0,0,9.194,5.516H5.972a.456.456,0,0,0-.457.455v.016A1.367,1.367,0,0,0,6.882,7.355H7.895c.278,0,.379.1.379.23V8.05a.236.236,0,0,1-.226.23c-1.279.066-1.843.71-2.76,2.084l-.181.272a.23.23,0,0,1-.319.064l-.382-.255a.23.23,0,0,1-.064-.319l.181-.272A8.131,8.131,0,0,1,5.882,8.186,1.848,1.848,0,0,1,4.766,7.2a1.362,1.362,0,0,1-.628.159H3.218A1.369,1.369,0,0,1,2.3,7a1.369,1.369,0,0,1-.919.359H.46A1.358,1.358,0,0,1,0,7.27V9.509a3.677,3.677,0,0,0,1.077,2.6l.761.762V14.71H9.193V12.873l1.032-1.032a2.759,2.759,0,0,0,.808-1.951Zm-.92-2.588V1.379a.46.46,0,0,0-.46-.46H8.733a.46.46,0,0,0-.46.46V4.6h.919a2.723,2.723,0,0,1,.919.17ZM.46,6.436h.919a.46.46,0,0,0,.46-.46V2.3a.46.46,0,0,0-.46-.46H.46A.46.46,0,0,0,0,2.3V5.976A.46.46,0,0,0,.46,6.436Zm2.758,0h.919a.46.46,0,0,0,.46-.46v-4.6a.46.46,0,0,0-.46-.46H3.218a.46.46,0,0,0-.46.46v4.6a.46.46,0,0,0,.46.46Z"
          fill="#fff" opacity="0.5"/>
</svg>
