<svg xmlns="http://www.w3.org/2000/svg" width="14.875" height="17" viewBox="0 0 14.875 17">
    <path id="id_govIcon"
          d="M17.755,10.637V17.72H12.443V16.3h-4.6V17.72H2.88V10.637ZM14.55,9.346a4.063,4.063,0,0,0-1.385-2.267,7.862,7.862,0,0,0-2.489-1.046h0V3.791l.186-.05.406-.151a3.9,3.9,0,0,1,.445-.128,1.457,1.457,0,0,1,.313-.049,2.426,2.426,0,0,1,.5.064c.2.049.415.1.633.162s.43.121.626.165a2.148,2.148,0,0,0,.474.061,3.426,3.426,0,0,0,.666-.091V1.209a2.426,2.426,0,0,1-.667.131,1.986,1.986,0,0,1-.478-.067c-.2-.038-.4-.1-.625-.162q-.3-.091-.614-.158a1.886,1.886,0,0,0-.453-.068,3.314,3.314,0,0,0-1.413.3V.72H9.963V6.033H9.941A7.939,7.939,0,0,0,7.453,7.1,4.1,4.1,0,0,0,6.066,9.316a.576.576,0,0,0-.679.612h9.906c0-.708-.744-.583-.744-.583Z"
          transform="translate(-2.88 -0.72)" fill="#fff" opacity="0.5"/>
</svg>
