<svg xmlns="http://www.w3.org/2000/svg" width="15.247" height="19.37" viewBox="0 0 15.247 19.37">
    <path id="id_lspdIcon"
          d="M9.657,21.906h0a20.578,20.578,0,0,1-3.811-2.86,14.358,14.358,0,0,1-2.621-3.282,8.629,8.629,0,0,1-1.191-4.257V2.536A31.2,31.2,0,0,0,9.657,3.668a31.007,31.007,0,0,0,7.624-1.132v8.971a8.629,8.629,0,0,1-1.191,4.257,14.358,14.358,0,0,1-2.621,3.282,20.581,20.581,0,0,1-3.812,2.86Zm0-8.269h0l3.021,2.1a.491.491,0,0,0,.256.09.367.367,0,0,0,.228-.1.392.392,0,0,0,.141-.45l-1.188-3.375,3.07-2.152.074-.062a.42.42,0,0,0,.133-.268.43.43,0,0,0-.435-.4H11.191L10.047,5.689a.418.418,0,0,0-.778,0L8.124,9.027H4.332a.405.405,0,0,0-.41.4.3.3,0,0,0,.007.067.388.388,0,0,0,.172.283l3.1,2.131L6.009,15.283a.394.394,0,0,0,.141.45.4.4,0,0,0,.23.1.517.517,0,0,0,.256-.09l3.021-2.1Z"
          transform="translate(-2.034 -2.536)" fill="#fff" opacity="0.5"/>
</svg>
