<svg xmlns="http://www.w3.org/2000/svg" xmlns:xlink="http://www.w3.org/1999/xlink" width="301" height="494" viewBox="0 0 301 494">
  <defs>
    <clipPath id="clip-path">
      <rect id="Прямоугольник_849" data-name="Прямоугольник 849" width="301" height="494" transform="translate(824 371)" fill="#fff" stroke="#707070" stroke-width="1"/>
    </clipPath>
  </defs>
  <g id="maleGov" transform="translate(-824 -371)" opacity="0.2" clip-path="url(#clip-path)">
    <path id="Контур_63" data-name="Контур 63" d="M1129.608,1376.108c0,18.81-.27,39.415.125,60.006.174,9.027,1.743,18.023,2.606,27.04.592,6.184.787,11.89-3.136,17.789-2.594,3.9-2.814,9.913-2.727,14.955.16,9.277-3.524,13.31-12.906,12.034-3.207-.437-5.257.717-6.227,3.3-3.134,8.326-10.339,10.3-17.756,10.8-7.579.513-15.254-.35-22.885-.67-3.04-.128-4.723-2.035-5.327-4.809-.564-2.583,1.032-3.774,3.137-5.093,1.829-1.147,2.907-3.454,4.411-5.166,3.616-4.116,8.571-7.62,10.664-12.391,4.114-9.372,8.526-18.706,7.086-29.9-1.686-13.12-1.626-26.471-2.217-39.726-.887-19.917-2-39.83-2.421-59.758-.4-18.891-.007-37.8-.032-56.7,0-3.872-.346-7.743-.484-11.616-.2-5.532-.22-11.074-.567-16.6-.3-4.761-.974-9.5-1.429-14.25-1.4-14.661-2.689-29.335-4.291-43.974-.183-1.678-1.818-3.5-3.26-4.646-1.221-.973-3.113-1.19-4.75-1.538-4.8-1.021-6.717-3.306-6.9-8.242-.508-13.32,1.978-26.3,4.357-39.3q3.67-20.064,7.042-40.182a38,38,0,0,0,.251-7.374q-.739-25.246-1.616-50.489a12.381,12.381,0,0,0-1.01-3.181,13.673,13.673,0,0,0-1.938,2.582q-5.019,11.555-9.886,23.177a114.26,114.26,0,0,1-14.174,24.33c-11.829,15.848-25.439,29.974-39.447,43.8-2.894,2.856-5.114,6.475-8.266,8.953-1.474,1.16-4.76,1.222-6.646.42-5.237-2.227-5.7-2.368-8.821,2.265q-1.195,1.776-2.373,3.563c-2.507,3.828-2.371,6.641.683,10.172,1.348,1.56,3.211,2.738,4.3,4.436a5.229,5.229,0,0,1,.446,4.22c-.291.7-2.581,1.22-3.624.847-3.194-1.143-5.675-1.717-6.38,2.807-.055.35-2.993.9-3.991.323a41.61,41.61,0,0,1-6.2-4.99c-.545-.476-1.252-1.222-1.229-1.819.181-4.861.585-9.713.78-14.574.1-2.549.483-5.288-.263-7.622-1.081-3.38-.665-6.065,1.564-8.648a66.836,66.836,0,0,0,4.984-5.946,39.587,39.587,0,0,0,2.732-5.717c2.21-4.786,3.929-9.884,6.731-14.293,4.915-7.734,10.414-15.1,15.832-22.5,1.956-2.673,4.526-4.891,6.561-7.514,3.777-4.866,7.554-9.754,10.98-14.867a148.882,148.882,0,0,0,8.249-14.02c3.46-6.634,5.758-14.06,10.142-19.967,3.3-4.452,3.86-8.708,4.048-13.6a5.769,5.769,0,0,1,1.035-3.243c6.347-7.794,5.386-17.21,6.011-26.283.46-6.689,1.045-13.371,1.411-20.065.318-5.8.664-11.616.518-17.413-.128-5.106,2.072-8.281,6.468-10.475,9.612-4.8,19.338-9.41,28.682-14.691,9.444-5.337,18.489-11.381,27.7-17.134,3.433-2.145,3.972-5.088,2.554-8.754a24.622,24.622,0,0,0-7.054-10.471c-4.25-3.714-7.875-9.353-6.353-16.261a14.74,14.74,0,0,0-.152-6.167c-1.6-7.187-.771-13.58,3.963-19.66,3.929-5.048,6.656-11.022,10.481-16.167a16.437,16.437,0,0,1,7.49-5.565c8.091-2.68,15.937-.812,23.152,3.262a15.134,15.134,0,0,1,7.6,11.207c.332,2.027.6,4.343,1.738,5.908,3.471,4.749,2.775,10.244,3.838,15.49,2,9.878-2.466,19.4-.429,29.181.586,2.81-1.037,6.01-1.025,9.029a8.558,8.558,0,0,0,5,7.787c8.365,4.348,16.61,8.944,25.115,13,8.149,3.883,16.529,7.288,24.884,10.719,2.236.918,4.874.858,7.11,1.774,9.086,3.724,10.927,6.432,11.34,15.819.272,6.183-.691,12.412-.62,18.614.1,9.028-.389,18.24,1.238,27.029,2.276,12.3,2.355,24.566,2.81,36.922.18,4.879,2.483,9.652,3.52,14.537a89.769,89.769,0,0,1,1.081,9.35c.131,1.258-.185,2.721.351,3.753,4,7.7.514,14.693-2.155,21.6-1.814,4.694-2.419,8.856-.416,13.761,1.146,2.806.685,6.492.216,9.675a75.961,75.961,0,0,1-2.891,10.691c-1.348,4.465-3.06,8.836-4.138,13.362a45.225,45.225,0,0,0-1.619,12.066,15.068,15.068,0,0,1-2.372,9.015c-3.3,5.53-6.729,11.27-8.432,17.388-1.831,6.583-1.921,13.687-2.446,20.589-.75,9.864-1.527,19.745-1.68,29.628-.114,7.295.752,14.6,1.177,21.909a9.183,9.183,0,0,1,.093,3.091c-2.3,7.294-1.726,14.744-1.765,22.229-.031,5.877-1.784,11.733-1.985,17.625-.351,10.256-.475,20.551.015,30.8.45,9.39,1.859,18.731,2.792,28.1.192,1.93.151,3.882.21,5.825.276,9.062.237,18.147.933,27.176.473,6.147,2.485,12.182,2.879,18.327.458,7.147-.251,14.361-.156,21.542a80.374,80.374,0,0,0,1.161,11.4c1.468,9.308,3.1,18.589,4.673,27.88.065.381.08.958.318,1.094,4.795,2.738,4.642,8.249,6.832,12.415,1.264,2.4,1.251,5.447,2.062,8.127a52.182,52.182,0,0,0,2.825,7.336,63.764,63.764,0,0,0,4.3,7.681,19.68,19.68,0,0,0,4.433,5.2c5.532,4.02,11.451,7.517,16.891,11.65a29.906,29.906,0,0,1,6.632,7.526c2.058,3.16.469,5.608-3.3,6.044-6.139.71-12.247,1.811-18.4,2.23a46.618,46.618,0,0,1-28.379-7.373c-2.346-1.47-4.029-3.967-6.133-5.862a49.373,49.373,0,0,0-6.016-4.789,3.383,3.383,0,0,0-3.14-.051c-2.772,2.406-5.791,1.992-8.835,1.151-3.1-.857-6.333-1.6-9.1-3.13-1.5-.834-2.718-3.108-3.049-4.918-.505-2.761-.2-5.686-.117-8.537.173-6-.46-11.633-3.079-17.345-2.077-4.531-2.165-10-3.008-15.067-1.608-9.677-3.373-19.338-4.6-29.065-.889-7.049-.737-14.227-1.548-21.29-1.123-9.774-3.185-19.455-4-29.246-1.43-17.153-2.928-34.354-3.058-51.545-.107-14.22-2.207-28.139-3.6-42.178-.74-7.472-1.264-14.966-1.994-22.44-1.081-11.081-2.188-22.161-3.416-33.226q-1.691-15.24-3.7-30.445c-.479-3.583-1.446-7.1-2.276-10.634a6.548,6.548,0,0,0-1.1-1.757,13.363,13.363,0,0,0-.355,1.844c-.529,9.956-.817,19.931-1.6,29.867-1.587,20.261-3.467,40.5-5.163,60.751-.691,8.256-1.436,16.517-1.776,24.792C1130.577,1341.943,1130.176,1358.134,1129.608,1376.108Z" transform="translate(-120.066 -417.656)"/>
  </g>
</svg>
