<svg xmlns="http://www.w3.org/2000/svg" xmlns:xlink="http://www.w3.org/1999/xlink" width="301" height="494" viewBox="0 0 301 494">
  <defs>
    <clipPath id="clip-path">
      <rect id="Прямоугольник_850" data-name="Прямоугольник 850" width="301" height="494" transform="translate(824 371)" fill="#fff" stroke="#707070" stroke-width="1"/>
    </clipPath>
  </defs>
  <g id="maleCrime1" transform="translate(-824 -371)" opacity="0.2" clip-path="url(#clip-path)">
    <path id="Контур_67" data-name="Контур 67" d="M-242.128,3061.52h1.913c0-4.508-.543-8.955.13-13.21.961-6.078-.772-12.534,2.7-18.313.787-1.311.255-3.381.445-5.089.356-3.2,1.07-6.389,1.148-9.595.182-7.492.181-14.994.059-22.489-.128-7.872-.138-15.771-.861-23.6-.464-5.018-2.229-9.906-3.218-14.89-.876-4.416-1.686-8.707-4.121-12.73-1.236-2.041-.7-5.153-.993-8.029.937-.049,1.821-.164,2.7-.128,2.418.1,3.166-1.434,3.6-3.433.455-2.12.376-4.332-1.9-4.96-3.8-1.046-4.4-3.658-4.341-7.2,2.51-.5,2.6-2.389,2.992-4.718,2.091-12.31-1.29-24.163-2.444-36.206a165.882,165.882,0,0,1-.564-17.387c.146-15.091.289-30.188.85-45.266.188-5.046,1.678-10.038,2.5-15.067.253-1.562.261-3.165.358-4.751.084-1.381-.236-2.917.261-4.121,2.6-6.284-.288-10.494-4.812-14.432-4.306-3.749-9.175-7.08-10.839-13.141-.236-.859-2.081-1.372-3.263-1.843a16.48,16.48,0,0,0-3.274-.479l2.43-3.3c-1.125-5.614-2.063-10.993-3.3-16.3-1.779-7.644-.314-15.705-3.156-23.209-.818-2.16-1.07-4.536-1.887-6.7-3.234-8.541-4.815-17.421-5.853-26.444a4.3,4.3,0,0,0-1.733-3.008c-2.276-1.144-2.471-2.9-2.159-4.961.471-3.1.873-6.219,1.593-9.262.671-2.838,1.295-5.384-.362-8.286-.62-1.085.492-3.51,1.347-5.022,3.135-5.547,6.575-10.922,9.709-16.47.744-1.317,1.406-3.293.951-4.549-1.072-2.963.592-3.944,2.662-3.861,3.974.159,6.053-2.018,8.072-4.918,1.549-2.225,3.939-3.911,5.266-6.231,1.135-1.985,1.265-4.537,1.885-6.826.421-1.551.5-3.437,1.459-4.559a30.28,30.28,0,0,0,6.657-14.162c.871-4.437,2.882-7.812,7.131-10.076,3.323-1.771,6.179-4.455,9.1-6.9.624-.523.438-1.919.969-2.668a24.058,24.058,0,0,1,2.57-2.783c.2-1.505-.043-2.937.561-3.642,2.764-3.224,5.756-6.254,8.683-9.337,1.98-2.086,3.93-4.208,6-6.2,2.81-2.71,4.185-8.36,1.373-11.6-2.942-3.394-2.693-7.376-4.126-10.987a41.653,41.653,0,0,1-2.775-15.4,5.313,5.313,0,0,0-1.545-3.172c-1.65-1.758-3.545-3.287-5.3-4.874a12.3,12.3,0,0,0-4.583-13.141l5.425-1.854-4.653-2.763,7.949-.769c-.571-2.486-4.81-1.169-3.258-3.926.625-1.11,3.426-.995,5.3-1.453l1.649-2.729-3.039-2.419,11.732,2.687-3.249-6.962a74.06,74.06,0,0,0,7.92,1.347,55.989,55.989,0,0,0,11.253-.07,8.1,8.1,0,0,1,4.789.532,19.668,19.668,0,0,0,7.352,1.368c3.582-.014,6.3,1.5,9.241,3.278,3.9,2.356,8.249,3.97,12.366,5.984,1.873.916,3.256,2.2,1.952,4.617l4.562.692-2.807,2.627c3.934.08,4.052.164,4.615,5.292.263,2.4-.186,4.833,2.377,6.6.85.586.68,2.711.88,4.147.077.55-.344,1.234-.149,1.694,1.211,2.867,1.5,5.307-2.189,6.572-.323.11-.307,1.209-.5,2.072h3.235l-2.037,5.425c3.157,1.394,6.2,2.982,9.409,4.063,2.066.695,2.6,1.561,1.879,3.525-.878,2.4-1.65,4.835-2.426,7.268a4.994,4.994,0,0,0,1.579,5.923c2.653,2.237,5.181,4.636,7.608,7.118a26.357,26.357,0,0,1,2.378,3.667,6.653,6.653,0,0,0,1.715,1.969c2.33,1.443,4.723,2.793,7.15,4.069a22.131,22.131,0,0,1,7.581,6.331c1.95,2.541,5.462,4.046,8.519,5.521,2.608,1.259,5.742,1.459,8.287,2.8,2.462,1.3,4.415,3.533,6.692,5.219a51.933,51.933,0,0,0,4.491,2.7l.875-.64c-.451,1.673-.9,3.346-1.487,5.514a17.736,17.736,0,0,1,3.28,3.612c.923,1.68.885,3.875,1.753,5.6.574,1.14,2,1.85,3.288,2.512l2.86,4.229c-.167.583-.445,1.554-.7,2.43,1.749,2.288,3.376,4.471,5.062,6.607,2.222,2.815,4.1,2.781,6.163-.058.333-.458.661-.92,1.384-1.928,3.831,3.676,7.517,7.175,11.153,10.725,1.124,1.1,1.235,2.38-.346,3.093-2.393,1.08-4.9,1.917-7.341,2.887-.7.279-1.78.53-1.934,1.027a2.736,2.736,0,0,0,.763,2.126c.682.756,1.729,1.172,2.475,1.885.818.781,2.17,1.823,2.072,2.6-.4,3.179,1.395,4.059,3.85,5.082a6,6,0,0,1,2.855,3.61,43.789,43.789,0,0,1,1.469,8.9c.138,2.071.79,3.2,2.83,3.69,2.071.5,3.677,1.444,3.011,4.137-.157.633.577,1.445.742,2.21.351,1.623,1,3.318.808,4.894-.489,3.931.121,4.917,4.107,5.579,1.663.277,3.286.8,4.4,1.074a50.981,50.981,0,0,1,.923,5.156c.095,1.344-.255,2.715-.22,4.07.045,1.76-2.263,3.979.924,5.2a.659.659,0,0,1,.2.609c-2.652,4.325,2.644,7.931,1.089,12.155a52.315,52.315,0,0,0-1.676,5.023c-.295,1.149.137,2.665-.464,3.522a75.1,75.1,0,0,1-6.06,7.407,47.858,47.858,0,0,1-4.6,4.122,34.681,34.681,0,0,1-2.908,2.156c-.558.381-1.459.49-1.754.988-3.936,6.676-10.822,10.14-16.566,14.683-10.172,8.047-21.047,15.208-31.685,22.659-2.977,2.086-3.083,1.975-4.237,6.513,5.088-.293,10.049-.1,14.72,1.651l.182.988-5.947,3.31c-.136,2.341-.282,4.863-.477,8.222-2.493-1.436-4.369-2.969-6.513-3.626a18.673,18.673,0,0,0-7.036-.6,10.457,10.457,0,0,1-5.168-.556c-2.009-.757-4.874.038-7.121.84-2.147.766-2.75,2.92-2.451,5.248q1.616,12.554,3.14,25.12,1.983,16.236,3.922,32.477c1.289,10.677,2.362,21.387,3.966,32.017.754,5,2.98,9.77,3.741,14.766,1.236,8.118,1.627,16.362,2.734,24.5.836,6.149,1.163,12.719,3.7,18.181,2.3,4.947,4.429,9.511,5.07,15.032.358,3.085,3.061,5.844,4.388,8.888a54.514,54.514,0,0,1,3.147,9.1c1.23,5.18,2.189,10.43,3.081,15.682.5,2.963.679,5.984.944,8.983.737,8.321,1.253,16.61.062,24.976-.616,4.33-.351,8.8-.223,13.206a4.177,4.177,0,0,0,1.729,3.088c3.09,1.634,3.759,4.434,3.672,7.347-.127,4.319,1.373,8.121,2.577,12.134a41.248,41.248,0,0,1,1.988,15.368c-.461,5.7.216,11.522.707,17.265a45.474,45.474,0,0,0,1.841,8.485c2.014,7.051.7,14.042-.2,21.04-.367,2.843-1.2,5.636-1.409,8.481a17.794,17.794,0,0,0,.7,6.1,59.656,59.656,0,0,0,3.7,10.458c2.784,5.505.368,10.673-.443,15.939-.171,1.114-1.452,2.034-2.137,3.1-.475.737-1.289,1.7-1.119,2.335.82,3.052-1.105,4.522-3.274,5.333a31.068,31.068,0,0,1-9.013,2.186,141.862,141.862,0,0,1-15.126-.316,8.083,8.083,0,0,1-3.821-1.415c-1.918-1.281-3.587-2.929-5.452-4.3-4.087-3-5.5-6.772-4.247-11.8,1.433-5.742,2.2-11.539,1.226-17.56-.564-3.483.114-7.151-.049-10.724a15.218,15.218,0,0,0-1.305-5.354c-.381-.856-2.009-1.1-2.55-1.956a95.654,95.654,0,0,1-5.487-9.643,4.635,4.635,0,0,1,.152-3.925c1.738-2.521,1.678-5.051,1.466-7.911a21.527,21.527,0,0,1,.827-8.138c1.6-4.853.579-9.232-1.714-13.364-1.386-2.5-1.085-4.218.724-6.215,2.2-2.432,2.177-5.266.1-7.881-2.163-2.727-4.159-5.67-6.718-7.975-3.27-2.944-3.769-6.418-2.644-10.125,3.469-11.444,2.842-22.644-1.16-33.813-.852-2.38-.926-5.035-1.735-7.436-2.09-6.2-4.345-12.34-6.658-18.458a5.719,5.719,0,0,0-2.128-2.536c-3.443-2.27-5.5-6.561-4.178-10.465.359-1.057-.172-2.523-.58-3.7a32.231,32.231,0,0,0-2-3.929l3.794-1.223c0-4.455,0-4.455-5.02-4.19,1.494-2.495.4-4.345-.9-6.5a20.371,20.371,0,0,1-2.54-7.464c-1.152-8.121-4.608-15.5-7.052-23.2q-5.048-15.9-10.09-31.8c-.14-.441-.126-1-.4-1.319-5.469-6.332-4.478-15.051-8.121-21.981a100.551,100.551,0,0,0-8.633-12.9c-1.335-1.8-2.851-1.179-3.532.953-1.024,3.2-1.925,6.448-3.047,9.616a156.519,156.519,0,0,0-7.807,34.259c-1.005,8.625-2.681,17.265-2.647,25.893.031,8.039-.063,15.955-1.473,23.867a5.985,5.985,0,0,0,.852,3.288,8.381,8.381,0,0,1-.1,8.063c-2.363,4.108-2.02,7.967.016,11.924,4.538,8.819,5.632,18.361,5.4,28.032a238.939,238.939,0,0,1-1.884,27.745c-.622,4.383.067,8.142,1.074,12.165.986,3.934,1.631,7.954,2.4,11.943.107.558.292,1.352.016,1.692-3.451,4.251.215,8.643-.309,12.937a15.393,15.393,0,0,0,.226,2.038c.175,8.222.369,16.443.457,24.666a36.353,36.353,0,0,1-.584,5.126c-.348,2.6-1.892,4.281-4.453,4.365-2.677.089-3.513,1.757-4.315,3.762-.327.818-.643,1.973-1.292,2.277-4.594,2.148-9.239,4.2-13.955,6.061a3.988,3.988,0,0,1-3.128-.637,53.815,53.815,0,0,1-4.781-4.1c-.687,1.066-1.012,2.1-1.717,2.582-7.576,5.124-14.749,11.192-22.982,14.881-6.228,2.791-13.507,5.833-20.786,3.366-4.187-1.419-7.945-4.174-11.763-6.541-.526-.325-.551-1.941-.352-2.861.539-2.492,1.305-4.936,2.014-7.389a9.217,9.217,0,0,1,4.7-5.7c2.382-1.347,4.377-3.4,6.483-5.211,3.957-3.4,8.438-6.409,11.633-10.428,2.794-3.514,4.533-8.058,5.97-12.4C-242.833,3069.568-242.742,3065.568-242.128,3061.52Zm167.593-388.529a20.621,20.621,0,0,0-3.16-1.886c-4.213-1.455-8.6-2.662-8.669-8.385a.8.8,0,0,0-.381-.561c-2.861-1.555-2.567-3.994-2.046-6.631.135-.682-.528-1.521-.825-2.289a7.486,7.486,0,0,0-1.886,1.6,4.166,4.166,0,0,0-.381,2.332A86.445,86.445,0,0,1-94.5,2686.4a49.3,49.3,0,0,0-1.71,9.184c-.609,9.11-.957,18.238-1.386,27.36-.255,5.412-.292,5.276-5.383,7.306-4.82,1.922-6.211,2.862-4.532,8.244.445,1.43.537,2.966.917,4.421.951,3.646,2.572,4.267,5.265,1.5a147.467,147.467,0,0,0,12.4-14.007c5.285-7.033,9.966-14.517,15.028-21.723,3.009-4.282,3.112-4.2-.674-7.777-.139-.13-.123-.425-.179-.643a68.919,68.919,0,0,0,3.391-11.5c.5-2.2-.665-3.441-2.517-4.4-.825-.426-1.977-1.238-2.037-1.955C-76.186,2679.241-79.118,2675.8-74.534,2672.991Zm-147.5-19.7c-4.5,1.666-9.327,9.246-9.164,13.307a24.4,24.4,0,0,1-.759,7.869,103.211,103.211,0,0,1-4.629,13.5c-4.266,9.365-4.666,19.736-3.974,30.039.247,3.664-.422,7.531,3.3,10.057a2.448,2.448,0,0,1,.7,1.556,108.307,108.307,0,0,1,1.453,10.951c.189,4.2-.043,4.211,3.835,3.66,1.443-4.145,2.727-8.23,4.307-12.2.779-1.955,1.359-3.445-.417-5.292-.721-.75-.4-2.574-.417-3.911-.018-1.232.174-2.465.215-3.7.148-4.466-.006-8.964.5-13.39.379-3.343,1.5-6.565-.9-9.608-2.1-2.668-1.616-5.34,0-8.083,1.172-1.987,2.72-4.018,3.05-6.188,1.269-8.35,2.136-16.762,3.093-25.157A20.507,20.507,0,0,0-222.035,2653.287Z" transform="translate(1130.892 -2046.407)"/>
  </g>
</svg>
