<svg xmlns="http://www.w3.org/2000/svg" xmlns:xlink="http://www.w3.org/1999/xlink" width="301" height="494" viewBox="0 0 301 494">
  <defs>
    <clipPath id="clip-path">
      <rect id="Прямоугольник_853" data-name="Прямоугольник 853" width="301" height="494" transform="translate(824 371)" fill="#fff" stroke="#707070" stroke-width="1"/>
    </clipPath>
  </defs>
  <g id="maleFree" transform="translate(-824 -371)" opacity="0.2" clip-path="url(#clip-path)">
    <path id="Контур_69" data-name="Контур 69" d="M3222.352,2510.808c3.772-4.7,1.952-9.873,2.463-14.571-1.238-1.184-2.2-2.187-3.242-3.087-6.235-5.361-6.472-12.406-5.585-19.766.105-.872.3-1.735.472-2.6a3.976,3.976,0,0,1,2.819-3.221c3.069-.955,3.134-.927,3.186-3.958.062-3.537-.076-7.079.028-10.614a20.606,20.606,0,0,1,7.754-16.036c2.625-2.154,5.162-4.423,7.892-6.433,1.705-1.256,3.762-2.029,5.531-3.211a23.607,23.607,0,0,0,3.017-2.981,18.831,18.831,0,0,1,9.174,1.6,13.48,13.48,0,0,0,5.537.914c9.277.179,16.373,4.195,21.6,11.787a37.18,37.18,0,0,1,5.13,11.585c.839,3.151.325,6.761-.07,10.11-.351,2.979-1.477,5.858-2.048,8.822-.4,2.069-.438,4.208-.65,6.448l3.317.933c.891,3.8,1.059,7.5-.9,11.241a85.878,85.878,0,0,0-3.669,9.051,17.669,17.669,0,0,1-4.261,6.54c-1.6,1.56-2.246,4.17-3.079,6.4-1.361,3.644-2.135,7.521-4.884,10.545a2.519,2.519,0,0,0,.01,3.456c1.765,2.4,3.314,4.721,6.166,6.341,5.008,2.847,9.588,6.464,14.25,9.888,1.808,1.328,3.276,3.113,5.038,4.514,4.534,3.605,9.072,7.213,13.75,10.626,3.455,2.521,7.056,4.866,10.735,7.051a8.692,8.692,0,0,1,4.783,7.831c.293,5.622,1.549,11.2,2.449,16.782.538,3.34,1.17,6.663,1.774,9.992.9,4.947,1.865,9.882,2.7,14.839a119.184,119.184,0,0,1,2.1,19.118c.01,1.871.457,3.736.527,5.611s-.069,3.761-.135,5.642c-.084,2.378-.686,4.87-.171,7.106.839,3.641.643,6.743-2.246,9.333,2.079,8.973.88,17.964,1.185,26.895.033.977-.459,1.965-.5,2.957a13.77,13.77,0,0,0,.2,4.094c1.027,3.769,2.209,7.5,3.447,11.207a14.858,14.858,0,0,1,.411,7.458c-.776,4.454-1.279,8.956-2.082,13.4-.558,3.094-1.353,6.152-2.178,9.19q-1.586,5.839-3.4,11.615c-.843,2.689-.92,2.665-3.757,3.675-1.62,3.792-1.752,7.355.956,10.942,2.3,3.045,2.582,6.5,1.817,10.409-.886,4.531-.849,9.267-.955,13.92-.145,6.441.185,12.9-.115,19.332-.386,8.284-.512,16.584-1.974,24.818-1.207,6.8-1.8,13.712-2.489,20.593-.429,4.255-.526,8.543-.789,12.814q-.348,5.654-.738,11.3a3.282,3.282,0,0,1-.236,1.476c-3,4.625-2.612,9.874-2.719,14.995q-.185,8.906-.02,17.819a200.9,200.9,0,0,1-1.427,25.25,25.582,25.582,0,0,0-.061,2.652c-.013,5.182-.115,10.365-.006,15.544.193,9.206.329,18.418.849,27.606.334,5.889,1.408,11.731,1.971,17.611.456,4.76.733,9.543.929,14.322.32,7.778.49,15.561.777,23.341a11.486,11.486,0,0,0,.626,2.939c1.73,5.54,3.529,11.059,5.243,16.6a32.035,32.035,0,0,1,1.681,10.771,7.293,7.293,0,0,0,2.56,5.918c3.075,2.6,6.182,5.187,9.46,7.52a94.146,94.146,0,0,0,9.026,5.544c2.48,1.374,5.095,2.518,7.7,3.653,1.845.806,3.261,1.853,3.585,4.008a7.94,7.94,0,0,0,.768,2.126c1.435,3.052,1.172,3.245-1.114,5.341-3.35,3.071-7.424,3.469-11.56,3.763-5.024.358-10.059.539-15.09.8a46.237,46.237,0,0,1-15.668-1.986c-3.138-.946-5.845-3.389-8.681-5.26-3.854-2.542-7.646-5.178-11.815-8.012-2.4,3.723-5.186,3.4-8.3,2.186a44.292,44.292,0,0,0-5.478-1.34,27.554,27.554,0,0,1-3.633-1.02,4.506,4.506,0,0,1-2.948-3.966c-.674-4.85-1.667-9.656-2.481-14.489a20.791,20.791,0,0,1-.246-3.389c-.023-11.966-.12-23.932.023-35.9a34.827,34.827,0,0,0-1.927-11.5c-2.028-6.089-4.4-12.065-6.611-18.092a5.263,5.263,0,0,1-.5-1.809c.13-5.538.244-11.078.525-16.609.146-2.885.669-5.749.926-8.631.313-3.51.076-7.138.9-10.514.925-3.775.065-7.266-.428-10.847-.632-4.6-.913-9.27-2.622-13.687a9.787,9.787,0,0,1-.178-3.384c0-7.583-.3-15.183.113-22.744.554-10.05-1.174-19.751-3.384-29.437a10.016,10.016,0,0,1-.406-1.84c-.317-9.477-2.536-18.689-3.956-28.008-1.193-7.83-2.85-15.589-4.276-23.385-.158-.864-.023-1.793-.251-2.63a28.916,28.916,0,0,0-1.2-3.115c-2.426.035-2.54,1.671-2.941,2.9a256.752,256.752,0,0,0-8.655,32.075,48.14,48.14,0,0,1-4.528,13.985,25.662,25.662,0,0,0-1.5,5.054c-1.319,4.6-2.163,9.423-4.1,13.751a81.9,81.9,0,0,0-4.2,12.484c-2.769,10.343-6.013,20.609-7.922,31.114-1.338,7.365-3.1,14.761-2.926,22.43.1,4.352-1.037,8.728-1.557,13.1a104.249,104.249,0,0,0-1.212,12,64.208,64.208,0,0,1-2.169,15.665,167.575,167.575,0,0,0-4.86,31.292c-.388,6.741-1.947,13.413-2.954,20.12a9.656,9.656,0,0,0-.108,2.584c.39,3.12.764,6.248,1.344,9.336.546,2.9.3,5.406-1.821,7.726-3.2,3.5-6.228,7.175-9.238,10.85a4.387,4.387,0,0,0-.777,2.429,37.9,37.9,0,0,0,.032,5.681c.328,3.374.845,6.73,1.269,10.095a3.135,3.135,0,0,1,.039,1.492c-1.184,2.743-2.041,5.77-3.826,8.065-1.273,1.636-3.732,2.573-5.844,3.273a23.311,23.311,0,0,1-6.683.981c-5.559.134-11.124.026-16.686.072-2.041.017-3.613-.275-4.331-2.656a41.317,41.317,0,0,0-2.715-5.8c-1.244-2.578-1.771-5.067-.61-7.979.879-2.207,1.824-4.74.055-7.171-.317-.436-.193-1.23-.186-1.857.026-2.407.026-4.725-1.646-6.8a3.529,3.529,0,0,1-.153-4.3c2.658-3.575,2.326-7.887,3.143-11.9a65.454,65.454,0,0,0,.884-7.873c.115-1.441.751-2.929-.478-4.334-.394-.449-.288-1.474-.184-2.2.789-5.477,1.73-10.933,2.431-16.42a72.385,72.385,0,0,1,3.2-12.792,24.253,24.253,0,0,0,1.043-7.065c.092-11.121.26-22.25-.093-33.36-.176-5.521-.013-11.012.263-16.495a93.211,93.211,0,0,1,1.745-11.555c1.835-10.281,3.852-20.53,5.558-30.832.84-5.079,1.172-10.244,1.7-15.374.754-7.358,1.515-14.716,2.2-22.08.371-4.01.557-8.035.874-12.05.237-3.009.556-6.01.825-9.016.224-2.5.61-5.005.614-7.509.036-18.83.17-37.663-.127-56.489-.088-5.57.036-11.379-3.025-16.54-1.2-2.021-.75-4.131.494-6.1,1.14-1.8,2.2-3.648,3.554-5.9-2.929-.646-4.326-4.084-7.913-3.168-.534.136-1.675-.932-2.088-1.687-2.24-4.092-4.186-8.349-6.525-12.381-3.224-5.558-6.671-10.99-10.1-16.427-1.876-2.976-4.2-5.7-5.811-8.807-3.537-6.816-6.781-13.787-10.071-20.728a26.337,26.337,0,0,1-1.771-4.988,22.861,22.861,0,0,0-3.264-6.7,13.307,13.307,0,0,1-1.747-6.4c-.128-3.885.294-7.787.49-11.682a7.144,7.144,0,0,0,.085-.751c-.4-6.969.98-13.8,1.53-20.7.51-6.4.433-12.849.9-19.255a93.017,93.017,0,0,1,1.749-11.939c1.755-8.509,3.593-17.006,5.645-25.448,1.275-5.249,3.007-10.387,4.525-15.578.741-2.532,1.494-5.061,2.182-7.607,1.347-4.976,2.759-9.938,3.94-14.954a12.818,12.818,0,0,1,6.288-8.13c2.241-1.373,4.7-2.391,7.058-3.572,5.75-2.881,11.507-5.749,17.245-8.654,3.814-1.931,7.671-3.794,11.375-5.921a88.518,88.518,0,0,0,7.765-5.266q5.786-4.2,11.458-8.549c2.4-1.856,5.4-4.265,8.824-7.127" transform="translate(-2259.361 -1991.637)"/>
  </g>
</svg>
