<svg xmlns="http://www.w3.org/2000/svg" xmlns:xlink="http://www.w3.org/1999/xlink" width="301" height="494" viewBox="0 0 301 494">
  <defs>
    <clipPath id="clip-path">
      <rect id="Прямоугольник_851" data-name="Прямоугольник 851" width="301" height="494" transform="translate(824 371)" fill="#fff" stroke="#707070" stroke-width="1"/>
    </clipPath>
  </defs>
  <g id="maleCrime2" transform="translate(-824 -371)" opacity="0.2" clip-path="url(#clip-path)">
    <path id="Контур_66" data-name="Контур 66" d="M348.029,3111.63a23.013,23.013,0,0,0-4.117-2.179c-5.027-1.493-6.1-3.161-4.9-8.127,1.09-4.5,2.185-9.006,3.2-13.526a5.464,5.464,0,0,0,.042-2.879c-1.46-4.023-.349-7.665,1.2-11.367,1.171-2.8,2.059-5.715,3-8.6a3.263,3.263,0,0,0,.005-1.888c-1.43-4.42-3.02-8.789-4.357-13.236a54.97,54.97,0,0,1-.891-5.717q-.891-4.762-1.938-9.5c-.477-2.175-1.255-4.3-1.563-6.492-1.229-8.774-.283-17.764-3.232-26.412a36.031,36.031,0,0,1-1.427-11.9c.071-5.551-1.88-11.231.814-16.7.342-.695-.064-1.963-.476-2.792-2.886-5.812-1.4-11.2,1.457-16.474a26.972,26.972,0,0,1,2.151-3.271c2.13-2.847,2.658-5.194-.348-8.208-3.176-3.184-2.261-7.74-1.922-11.848a15.074,15.074,0,0,1,1.071-4.761c2.939-6.693,2.162-13.288-.134-19.925a10.561,10.561,0,0,1-.584-3.51c.086-7.071.277-14.139.406-21.209.315-17.268.674-34.537.886-51.806.063-5.179-.253-10.365-.481-15.544-.479-10.828,1.106-21.405,3.554-31.916,2.055-8.821,3.433-17.819,5.875-26.525,2.049-7.3,3.622-14.313,1.325-21.872-.631-2.075.273-4.712.789-7.021.995-4.453,3.025-8.838,3.12-13.284.1-4.637-1.385-9.361-2.575-13.942-.437-1.685-3.443-1.522-4.546.318a22.075,22.075,0,0,0-1.909,5.136c-1.372,4.656-2.861,9.29-3.926,14.019a121.1,121.1,0,0,0-1.97,12.63c-.5,4.294-.647,8.522-2.852,12.547-1.488,2.715-1.767,6.088-2.61,9.162-.255.928-.631,1.823-.878,2.754-.43,1.623-.731,3.282-1.216,4.887-.65,2.151-1.387,4.277-2.149,6.391q-5.129,14.225-10.323,28.427a7.026,7.026,0,0,1-1.844,3.018c-7.856,6.33-6.247,15.01-5.956,23.373.025.743.462,1.735.13,2.186-2.7,3.664-1.3,8.021-2.122,11.994a12.428,12.428,0,0,1-8.722,9c-4.733,1.433-10.005,2.114-12.978,7.317-.99,1.732-3.787,2.991-5.948,3.362a6.559,6.559,0,0,0-5.649,4.637c-2.164,5.965-4.223,11.971-6.542,17.875-.612,1.558-1.99,3.939-3.067,3.966-2.589.066-5.634-.451-7.641-1.909-1.056-.768-.687-4.069-.319-6.111.812-4.487,2.056-8.894,3.084-13.343q3.484-15.083,6.941-30.174c.245-1.057.614-2.085.932-3.125,1.231-4.036,3.151-5.3,7.248-5.538,1.658-.1,3.3-1.054,4.877-1.777,1.067-.488,1.932-1.569,3.02-1.83a6.854,6.854,0,0,0,5.554-5.8c.689-7.05,4.906-12.657,6.926-19.119a19.635,19.635,0,0,0,.8-3.474c.68-5.681,1.267-11.374,1.944-17.056s1.267-11.38,2.2-17.021c.6-3.616,1.7-7.153,2.642-10.708,1.252-4.718,2.418-9.468,3.9-14.113,1.35-4.223,3.113-8.313,4.63-12.485a60.893,60.893,0,0,0,2.746-8.271c1.827-8.813,3.836-17.623,4.948-26.537.756-6.059.343-12.3.059-18.444-.326-7.043-.264-13.745,2.1-20.737,2.28-6.737,6.647-11.581,10.609-16.938,2.1-2.842,5.055-4.169,8.477-5.044a41.827,41.827,0,0,0,9.978-3.854c7.858-4.393,15.541-9.1,23.244-13.767,3.368-2.039,3.659-4.106,2.158-7.737a125.311,125.311,0,0,1-4.216-12.306c-.514-1.733-1.079-2.942-3.029-3.27a5.637,5.637,0,0,1-4.853-4.69c-.789-3.913-1.481-7.858-1.922-11.823-.239-2.151.055-4.271,2.608-5.425.7-.317.881-2,1.124-3.1,1.265-5.69,1.761-11.673,3.867-17.026,3.18-8.082,10.864-11.274,18.637-12.469,5.391-.829,11.338.04,16.7,1.438,6.691,1.745,10.532,7.484,14.607,12.8,4.767,6.221,5.813,13.645,7.825,20.78.324,1.149-.151,2.557-.383,3.822-.6,3.286-1.217,6.571-1.961,9.826-.186.815-.808,2.107-1.349,2.171-4.2.5-5.509,3.725-6.42,6.943A81.889,81.889,0,0,0,413,2596.481c-.514,3.864,2.559,5.522,5.223,7.1a132.631,132.631,0,0,0,12.88,6.94c3.835,1.735,8.066,2.588,11.926,4.278,4.224,1.85,8.263,4.141,12.308,6.374,4.265,2.354,8.391,4.958,12.668,7.286,6.3,3.426,8.139,9.066,8.6,15.735.275,4.03,1.326,8.005,2,12.008.234,1.382.407,2.774.593,4.164.661,4.925,1.358,9.845,1.959,14.777.46,3.771,1.2,7.567,1.1,11.333-.242,9.047,2.421,17.338,5.726,25.546,3.524,8.751,7.255,17.438,10.313,26.352,1.675,4.88,2.324,10.146,3.12,15.287,1.31,8.462,2.083,17.016,3.6,25.437,1.711,9.495,3.853,18.921,6.145,28.294.47,1.922,2.273,3.637,3.756,5.16a31.4,31.4,0,0,0,5.316,4.266,4.989,4.989,0,0,0,3.235.709c5.244-.842,8.286,1.213,9.254,5.947,2.869,14.045,6.207,27.995,9.323,41.99.566,2.542.99,5.119,1.409,7.69.319,1.962-.451,3.138-2.572,3.263a13.7,13.7,0,0,0-2.571.415c-5.146,1.311-4.981,1.277-6.41-3.945-.693-2.531-2.246-4.813-3.194-7.291-1.043-2.726-1.871-5.536-2.734-8.327-1.233-3.99-3.234-6.713-8.071-6.431-2.912.17-4.23-2.209-5-4.734-.506-1.653-1.134-3.065-3.578-2.3l1,2.085c-.264.167-.535.489-.8.48q-6.353-.215-12.7-.507c-2.117-.1-2.635-1.385-2.643-3.307-.012-2.974.741-6.181-2.029-8.534a1.072,1.072,0,0,1-.251-.908c1.393-5.239-1.156-10.138-1.281-15.2-.151-6.1.9-12.24.554-18.314-.225-3.931-1.05-7.986-3.819-11.442-2.384-2.976-3.988-6.581-5.9-9.927-2.749-4.8-5.247-9.758-8.273-14.373-2.363-3.606-4.438-7.163-4.935-11.54a11.215,11.215,0,0,0-1.487-4.236c-1.594-2.731-2.19-5.253.815-7.659-3.712-2.561-4.163-6.33-4.44-10.17a8.564,8.564,0,0,0-.194-1.94c-1.729-5.479-3.52-10.94-5.257-16.417-1.334-4.209-2.461-8.492-4.011-12.618a5.449,5.449,0,0,0-3.165-3.109c-.927-.219-2.737,1.127-3.338,2.224a16.337,16.337,0,0,0-1.355,5.309c-.768,4.936-1.608,9.872-2.06,14.841a25.468,25.468,0,0,0,.449,8.414,23.521,23.521,0,0,1-.923,14.676,12.96,12.96,0,0,0-.338,7.342c1.1,4.325.834,9.155,4.35,12.765.858.881.84,2.642,1.161,4.013.761,3.243,1.241,6.573,2.265,9.729a75.751,75.751,0,0,1,3.518,28.911c-.485,6.907-1.878,13.749-2.459,20.654-.38,4.515-1.008,8.754-3.578,12.658-.631.958.189,2.82.2,4.268.012,1.264.317,3.112-.363,3.683-1.758,1.475-1.57,2.763-1.222,4.8a63.171,63.171,0,0,1,.582,11.017,84.831,84.831,0,0,1-.721,8.734c-.695,6.249-1.626,12.476-2.151,18.738-.776,9.258-2.736,18.426-.988,27.867.749,4.048-.193,8.407-.357,12.625-.144,3.682-.293,7.365-.409,11.048-.124,3.967.8,8.042-1.494,11.776-.38.619,0,1.686-.024,2.545-.2,7.679-.151,15.38-.776,23.026-.227,2.783-2.53,5.347-3.072,8.167a59.573,59.573,0,0,0-.612,10.577c-.057,5.625.094,11.252.081,16.878a38.387,38.387,0,0,1-4.811,18.633c-2.116,3.932-2.137,9.263-2.162,13.971-.023,4.413-.543,8.128-4.342,10.86-1.6,1.149-1.641,2.61-1.093,4.6a22.188,22.188,0,0,1,.616,7.7c-.593,6.722,2.318,12.234,5.563,17.675,2.476,4.151,4.456,8.4,4.149,13.434-.231,3.789-1.52,5.218-5.263,5.646-1.242.142-2.408.875-3.652,1.1a43.537,43.537,0,0,1-5.058.508A22.3,22.3,0,0,0,418,3107.5c-7.106,1.395-9.653.076-12.252-6.415-4.239-10.587-7.483-21.418-8.436-32.858a56.254,56.254,0,0,0-1.289-6.386,16.708,16.708,0,0,1-.5-2.885c-.138-6.033-.547-12.086-.211-18.1.3-5.28,1.531-10.5,2.2-15.768.684-5.383.766-10.875,1.85-16.168,2.1-10.241,1.205-20.551,1.585-30.836.2-5.379,1.406-10.718,2.064-16.086a29.253,29.253,0,0,0,.246-5.8c-.661-8.42-2.02-16.828-2.06-25.244-.065-13.678.021-27.429,1.389-41.013.762-7.572.556-14.164-3.541-20.691-1.425-2.271-1.6-5.356-2.205-8.1-.6-2.722-3.008-4-4.994-2.111a20.951,20.951,0,0,0-5.332,7.181,34.2,34.2,0,0,0-2.293,16,24.491,24.491,0,0,1-.193,4.865c-.465,5.06-1.043,10.109-1.462,15.173-.482,5.828-.487,11.723-1.388,17.481-.541,3.455-2.435,6.69-3.65,10.05-.694,1.917-1.99,4-1.725,5.811.816,5.583-1.5,10.4-2.77,15.515a10.8,10.8,0,0,0,.309,6.144c2.719,6.984,3.542,13.595-1.4,20.076-.885,1.161-.766,3.313-.633,4.969a7.263,7.263,0,0,1-1.709,5.643,6.765,6.765,0,0,0-1.046,5.01c.536,2.622,1.861,5.081,2.839,7.613,3.883,10.056,6.714,20.233,3.581,31.1a2.032,2.032,0,0,0-.049,1.277c3.538,7.627-.917,14.477-1.995,21.661a8,8,0,0,0,.588,4.737,18.43,18.43,0,0,1,2.185,13.017c-1.3,7.3-2.91,14.5-4.725,21.657-1.865,7.351-6.074,12.834-13.585,15.361a16.766,16.766,0,0,0-3.5,2.251Z" transform="translate(575.454 -2074.489)"/>
  </g>
</svg>
