<svg xmlns="http://www.w3.org/2000/svg" xmlns:xlink="http://www.w3.org/1999/xlink" width="301" height="494" viewBox="0 0 301 494">
  <defs>
    <clipPath id="clip-path">
      <rect id="Прямоугольник_849" data-name="Прямоугольник 849" width="301" height="494" transform="translate(824 371)" fill="#fff" stroke="#707070" stroke-width="1"/>
    </clipPath>
  </defs>
  <g id="maleLspd2" transform="translate(-824 -371)" opacity="0.2" clip-path="url(#clip-path)">
    <path id="Контур_64" data-name="Контур 64" d="M-405.167,1683.393c0,2.62.049,5.241-.01,7.86a30.352,30.352,0,0,1-5.021,16.458c-3.153,4.831-6.673,9.459-9.316,14.645-1.731,3.4-4.9,5.669-7.527,8.329-2.71,2.747-5.3,5.643-8.136,8.223-4.673,4.254-8.118,9.573-12.744,13.859a24.99,24.99,0,0,0-5.386,7.146c-1.012,2.065-1.052,4.677-1.208,7.066-.1,1.591.519,3.218.527,4.829.054,10.894,0,21.788.064,32.681a38.963,38.963,0,0,0,.664,4.815c.322,2.421.4,4.863.751,7.294.368,2.556-.7,5.312-1.094,7.987-1.013,6.873-2.066,13.759.54,20.531,1.336,3.473.772,7.01.459,10.54-.107,1.21-.373,2.406-.517,3.613a12.1,12.1,0,0,0-.01,1.653q.413,23.084.85,46.168a25.767,25.767,0,0,0,.482,2.793c.142,1.078.608,2.328.244,3.223-1.638,4.037-.1,7.737.834,11.536a63.319,63.319,0,0,1,1.705,19.106c-.276,4.441,1.624,8.219,3.484,11.96,2.4,4.819,4.386,9.685,3.952,15.193-.117,1.475-.8,2.942-.73,4.388a42.6,42.6,0,0,0,1.075,9.293,110.969,110.969,0,0,1,2.3,12.779c.961,6.094,1.034,12.22,1.681,18.294,1.127,10.587-.028,21.172.776,31.7.449,5.886.738,11.75.677,17.636a27.36,27.36,0,0,1-.739,5.213,32.761,32.761,0,0,0-.9,8.525,26.194,26.194,0,0,1-.753,8.122,44.124,44.124,0,0,0-.874,6.862c-.327,3.391-.464,6.8-.945,10.17a7.592,7.592,0,0,1-1.751,3.166c-2.075,2.7-2.742,6.138-5.1,8.777-3.786,4.247-7.559,8.5-12.809,10.826-3.515,1.558-7.224,2.961-11.352,1.721-1.653-.5-3.562-.064-5.328-.275a24.17,24.17,0,0,1-6.349-1.218c-2.69-1.115-4.882-6.048-4.3-9.09.916-4.774,1.8-9.553,3.088-14.257.787-2.867,1.94-5.568,2.991-8.313,1.789-4.671,4.487-8.957,5.71-13.887.683-2.757,1.025-5.063-1.073-7.621a14.088,14.088,0,0,1-2.624-7.454c-1.446-12.634-.25-25.284-.731-37.912a28.643,28.643,0,0,0-.727-4.393q-.827-4.181-1.725-8.348c-.256-1.186-.608-2.351-.885-3.533a19.692,19.692,0,0,1-.73-3.548c-.111-2.615-.1-5.241-.019-7.858a13.911,13.911,0,0,0-2.634-8.841,31.19,31.19,0,0,1-2.763-4.533,6.173,6.173,0,0,1-.392-2.8c.185-5.639-1.3-11.027-2.142-16.528-.993-6.484-3.975-11.778-7.414-17.035a7.363,7.363,0,0,1-1.261-4.257c.036-2.41.4-4.814-1.386-7.059-.9-1.124-.682-3.116-1.032-4.7-.408-1.848-.981-3.662-1.313-5.521-1.021-5.727-3.026-11.21-3.765-17.032-.73-5.756-2.214-11.417-3.4-17.111a4.4,4.4,0,0,0-.733-1.471.9.9,0,0,0-1.646-.007,4.913,4.913,0,0,0-.693,2.262q-.478,13.156-.849,26.316c-.064,2.189.152,4.382-1.209,6.352a2.943,2.943,0,0,0,.082,3.5c1.29,1.836,1.038,3.9,1.132,5.957a85.969,85.969,0,0,0,.567,8.971c.507,3.4,2.051,6.446,2.43,9.837a14.041,14.041,0,0,0,1.73,5.747c1.01,1.733.959,4.207,1,6.362.118,5.927-.067,11.861.069,17.787.154,6.706.185,13.445.936,20.095.432,3.824,0,7.765.858,11.4,1.057,4.459-.288,9.069,1.454,13.366a1.163,1.163,0,0,1,.025.411c.071,11.4,1.421,22.763.808,34.172a26.158,26.158,0,0,1-.928,5.609,3.938,3.938,0,0,1-1.82,2.121,22.129,22.129,0,0,1-4.895,1.949c-3.8.968-7.693,1.58-11.46,2.647-2.857.81-5.449,2.083-7.155,4.931-2.052,3.422-5.33,5.724-8.65,7.873-.227.147-.555.168-.738.348-3.746,3.682-8.471,4.673-13.464,4.938a.912.912,0,0,0-.407.046c-4.041,2.565-8.554,1.266-12.869,1.6-1.892.146-3.872.819-5.649.455-3.4-.7-7.04.2-10.264-1.94a5.4,5.4,0,0,1-2.58-3.479,14.628,14.628,0,0,1,.837-8.468,5.509,5.509,0,0,1,2.294-2.25c4.579-2.646,9.211-5.207,13.849-7.751a16.12,16.12,0,0,0,6.379-6.212,21.311,21.311,0,0,1,2.113-3,51.331,51.331,0,0,0,6.641-10.731c1.357-2.807,3.172-5.585,2.423-8.838-1.2-5.229-.423-10.581-1.444-15.85a75.523,75.523,0,0,1-.95-18.429c.124-2.3.552-4.577.783-6.871a5.165,5.165,0,0,0-.13-2.045c-.868-2.7-1.826-5.371-2.75-8.053a5.192,5.192,0,0,1-.37-1.159c-.31-3.391-.56-6.787-.887-10.176-.222-2.3-.507-4.588-.817-6.874-.529-3.892-.969-7.8-1.7-11.659a71.085,71.085,0,0,0-2.288-8.618c-1.452-4.492-3.456-8.845-4.734-13.329a105.909,105.909,0,0,1-3.035-13.865c-.854-5.905.424-12.086-2.2-17.748a2.324,2.324,0,0,1-.082-.819c-.28-5.186-.71-10.369-.782-15.558a51.292,51.292,0,0,0-1.358-10.494,38.529,38.529,0,0,1-1.1-9.283,91.055,91.055,0,0,0-1.847-18.278c-.342-1.945-.5-4.454-3.6-4.761-.754-.075-1.7-1.435-1.994-2.379q-1.868-6.007-3.365-12.129c-1.065-4.323-1.926-8.641-4.108-12.664a47.078,47.078,0,0,1-3.575-8.547c-.856-2.769-2.038-5.527-2.984-8.324-1.129-3.341-2.854-6.638-3.165-10.059-.439-4.813-1.166-9.786,1.392-14.509a10.429,10.429,0,0,0,.8-8.968,20.045,20.045,0,0,1-.789-3.959c-.266-1.6-.459-3.212-.732-4.81-.2-1.163,1.017-11.91,1.7-12.872,1.783-2.51,4-4.453,7.267-4.719a3.63,3.63,0,0,1,.826,0c2.107.319,4.38-.78,6.338.906a14.132,14.132,0,0,1,5.261,8.975c.055.407-.043.84.046,1.236a3.783,3.783,0,0,0,.483.916c.223-.15.572-.253.649-.458a14.794,14.794,0,0,0,1.258-3.815c.212-2.714.076-5.42.783-8.131.377-1.444.589-2.548,2.126-3.122,1.512-.565,3.649-.991,4.239-2.135.944-1.828.851-4.2,1.159-6.342a8.683,8.683,0,0,0,.01-1.653c-.2-3.987.65-7.829,1.415-11.708a8.521,8.521,0,0,0-.44-4.761,19.242,19.242,0,0,1-.708-14.314,29.84,29.84,0,0,0,1.42-10.476c-.041-1.48-.36-2.5-2.065-2.2-2.521.437-3.985-1.451-5.824-2.519-1.589-.924-1.081-2.705-1.585-4.067-.9-2.43-.824-2.536-3.324-2.511a17.35,17.35,0,0,1-10.989-3.687,6.42,6.42,0,0,1-1.826-2.586c-1.029-2.473-1.786-5.059-2.839-7.52-1.157-2.705-2.566-5.3-3.786-7.979-1.178-2.59-.981-5.361-.769-8.091a42.211,42.211,0,0,1,.738-4.39,8.169,8.169,0,0,1,.557-2.349c1.167-2.179,1.1-4.29.656-6.716a10.149,10.149,0,0,1,1.652-7.711,7.022,7.022,0,0,0,1.265-4.593c-.007-3.171.026-6.344-.024-9.515-.052-3.291-.187-6.631,1.105-9.7a3.065,3.065,0,0,0-.285-3.029c-1.285-2.348-2.643-4.486-5.135-5.977-1.431-.856-2.258-2.921-3.045-4.588-.562-1.189-.426-2.693-.914-3.934-1.658-4.222.028-8.324.377-12.454a5.649,5.649,0,0,1,2.294-4.2c2.978-2.114,3.564-5.481,3.87-8.691.274-2.872,1.669-5.035,3.049-7.326a5.958,5.958,0,0,0,1.133-2.5c.122-3.137.271-6.286-.877-9.343-.661-1.758-1.531-3.683-1.386-5.457.481-5.88-2.818-11.039-2.791-16.851.013-2.9-1.281-5.79-1.852-8.71-.778-3.983-1.215-8.043-2.2-11.97-.974-3.886-.029-8.266-2.961-11.68a2.909,2.909,0,0,1-.267-1.985c.449-3.791-.531-7.626.049-11.348.949-6.089-1.286-11.7-2.053-17.517a48.288,48.288,0,0,0-1.105-4.729c-.747-3.151-1.514-6.3-2.224-9.457-.237-1.054-.334-2.139-.481-3.213-.111-.808.071-1.813-.344-2.4-1.516-2.128-.9-4.823-2.074-7,.977-3.764-1.748-6.483-3.015-9.5a12.912,12.912,0,0,1-1.17-5.02c-.014-1.241-.031-2.483.006-3.723a4.036,4.036,0,0,1,2.384-3.912c1.967-.632,4.61.127,5.5,1.743,1.108,2.011,2.1,4.088,3.065,6.174a5.553,5.553,0,0,1,.585,2.337c-.1,4.57,1.615,8.781,2.507,13.152.486,2.381,1.259,4.719,1.554,7.12.678,5.528,2.412,10.818,3.592,16.225a103.068,103.068,0,0,0,2.345,10.275,97.794,97.794,0,0,1,2.608,11.451c.44,2.193,2,4.156,3.029,6.236a5.586,5.586,0,0,1,.89,2.192c-.031,5.381,1.627,10.427,2.852,15.57,1.88,7.891,4.116,15.74,5.3,23.741,1.079,7.29,3.45,14.177,5.089,21.279.334,1.449.462,2.954.9,4.367a30.833,30.833,0,0,0,2.1,5.262c.281.531,1.373.775,2.131.875,1.083.145,2.2,0,3.3.044,3.848.152,5.494,2.9,4.114,6.408-1.533,3.9-2.843,7.894-4.151,11.879a4.121,4.121,0,0,0,.021,2.452c1.153,3.372.731,6.626.065,10.057-.5,2.6-.719,5.471.571,8.093.373.759-.447,2.281,1.017,2.22.623-.026,1.3-1.2,1.772-1.963,1.721-2.781,3.2-5.724,5.077-8.391,2.908-4.136,7.7-5.509,12.006-7.474a123.254,123.254,0,0,1,15.038-6.075c1.542-.472,2.846-2.029,4.026-3.3,1.568-1.694,2.84-3.659,4.362-5.4,2.1-2.4,2.2-5.968-.223-7.99-1.671-1.395-2.112-2.947-2.675-5-1.2-4.362-1.7-9.209-5.541-12.5-.544-.466-.67-1.431-.967-2.175-1.656-4.138-3.248-8.3-4.985-12.407-.608-1.436-1.71-2.6-3.5-2.339-4.477.655-8.656-1.128-12.859-1.949a20.109,20.109,0,0,1-12.56-7.6c-2.712-3.637-1.616-6.984,2.824-7.8a6.823,6.823,0,0,1,1.65-.044c4.219.272,8.5-.647,12.67.764a6.91,6.91,0,0,0,2.872-.031c1.608-.19,3.2-.531,4.8-.727,1.92-.234,2.437-.629,2.534-2.512.092-1.788.015-3.584.024-5.376.012-2.457-.233-4.919,1.241-7.181a5.625,5.625,0,0,0,.371-2.8c.046-3.309-.017-6.62.048-9.929.114-5.848,3.731-9.287,9.49-9.492A75.056,75.056,0,0,0-512.6,1468.7a9.383,9.383,0,0,0,2.675-.977c4.124-2.484,8.853-2.54,13.367-3.073a8.787,8.787,0,0,1,8.906,4.548,81.232,81.232,0,0,1,4.187,8.371c1.119,2.607,1.914,5.354,2.851,8.039.045.128.084.258.128.387,1.339,3.872,2.83,4.815,6.593,4.112,2.652-.5,5.306-1.523,7.942-1.468,6.71.141,13.085,1.643,17.37,7.466a7.087,7.087,0,0,1,.361,8.161c-2.318,3.846-4.861,7.609-8.809,10.009-2.423,1.473-5.022,2.656-7.554,3.949-.232.119-.576.017-.808.136-3.034,1.559-6.179,2.942-5.191,7.457a7.058,7.058,0,0,1-.824,3.928c-.97,2.217-2.415,4.237-3.282,6.486-1.536,3.98-3.729,7.813-3.275,12.352.1,1.036.242,1.819,1.339,2.261.611.247,1.026.979,1.637,1.225,2.743,1.1,3.66,3.5,4.427,6.017,1.142,3.754,2.219,7.529,3.415,11.265.555,1.738,1.459,2.411,3.086,1.809,5.981-2.212,10.464,1.147,15.064,3.895a47.12,47.12,0,0,1,7.549,5.6c1.835,1.668,4.476,2.47,6.8,3.578,1.938.925,4.008,1.593,5.882,2.626,3.59,1.979,6.816,4.294,8.051,8.618a19.217,19.217,0,0,0,2.721,5.416c1.542,2.249,1.8,4.747,2.1,7.3.142,1.2.493,2.376.73,3.566.582,2.919,1.141,5.843,1.733,8.76.35,1.724.784,3.432,1.119,5.159.749,3.848,1.46,7.7,2.184,11.556a7.012,7.012,0,0,0,.288,1.6c1.676,3.675,1.421,7.709,2.191,11.55a39.529,39.529,0,0,0,.863,4.377c1.037,3.213.652,6.5.809,9.773.3,6.286.715,12.568,1.084,18.851Z" transform="translate(1520.977 -1039.582)"/>
  </g>
</svg>
