<svg xmlns="http://www.w3.org/2000/svg" xmlns:xlink="http://www.w3.org/1999/xlink" width="301" height="494" viewBox="0 0 301 494">
  <defs>
    <clipPath id="clip-path">
      <rect id="Прямоугольник_852" data-name="Прямоугольник 852" width="301" height="494" fill="#fff" stroke="#707070" stroke-width="1"/>
    </clipPath>
  </defs>
  <g id="maleLspd1" opacity="0.2" clip-path="url(#clip-path)">
    <path id="Контур_68" data-name="Контур 68" d="M80.8,707.576c4.141-2.217,5.454-5.813,4.9-10.256-1.158-9.253-2.69-18.474-3.408-27.767a95.24,95.24,0,0,1,.6-17.829c.7-6.326,2.16-12.563,3.277-18.849a8.548,8.548,0,0,0,.285-2.421c-1.467-11.6,2.315-22.419,4.516-33.531,1.321-6.693.864-13.753,1.084-20.65.3-9.343.155-18.718.84-28.036.522-7.15,2.266-14.193,3.016-21.335.359-3.424-.465-6.962-.505-10.451-.065-6.2.049-12.392.106-18.588a77.893,77.893,0,0,0,.065-8.389c-.717-7.239-2.177-14.405.481-21.637a16.7,16.7,0,0,0-.611-13.362A12.622,12.622,0,0,1,96.7,442.059c1.851-2.7,3.188-5.764,5.324-9.718.986,2.927,2.014,4.851,2.234,6.864.693,6.188,1,12.416,1.6,18.62,1.264,13.2,2.633,26.389,3.93,39.588.4,4.052.554,8.12,1.06,12.155.44,3.448,1.818,6.864,1.72,10.264-.139,4.745.024,10.248-2.25,14.03-5.258,8.756-4.965,18.449-6.783,27.792-1.679,8.617-3.514,17.2-4.875,25.868-.954,6.082-1.28,12.278-1.8,18.425-1.231,14.511,1.158,29.267-2.976,43.575-1.647,5.69-4.027,11.25-4.916,17.047-.913,5.935-.554,12.1-.375,18.147.033,1.06,1.728,2.641,2.943,2.992,4.011,1.174,8.193,1.769,12.245,2.829,2.258.6,4.9,1.133,6.506,2.633,8.519,7.932,18.2,11.022,29.585,8.046,4.068-1.06,8.071-2.364,12.123-3.457,3.742-1,4.427-3.489,3.693-6.889-.889-4.109-3.131-6.766-7.362-7.728C134.448,680,127.192,670.98,127.583,656.7c.139-5.079,1.459-10.125,2.266-15.188a13.383,13.383,0,0,0,.571-2.78c-.628-8.152,4.182-15.033,5.258-22.786a3.742,3.742,0,0,1,1.158-2.087c4.622-4.117,5.617-9.465,6.286-15.351.758-6.7,2.739-13.264,4.19-19.884,3.44-15.62,7.313-31.151,10.174-46.877a241.844,241.844,0,0,0,3.856-33.906c.986-25.362,1.313-50.757,1.647-76.144.073-5.8-1-11.625-1.337-17.446-.261-4.574.938-5.372,5.3-4.044,4.908,1.5,9.84,2.91,14.715,4.516a10.18,10.18,0,0,1,3.856,2.193c6.253,6.057,14.169,4.582,21.645,4.671.848.008,2.413-2.959,2.5-4.606.685-12.881-2.56-25.012-7.867-36.621-5.747-12.587-11.381-25.24-17.626-37.583-3.652-7.215-8.446-13.851-12.612-20.805a18.1,18.1,0,0,1-1.9-4.834c-.9-3.53-1.728-7.085-2.3-10.672a5.449,5.449,0,0,1,.807-3.766c2.332-3.082,2.063-6.245,1.166-9.669-.628-2.4-.856-4.924-1.264-7.386.424-.2.84-.391,1.264-.587.938,1.272,1.973,2.495,2.8,3.832,4.761,7.712,9.172,15.661,14.275,23.137,5.788,8.495,13.329,9.4,21.082,2.609a73.56,73.56,0,0,0,11.185-12.318c1.688-2.356,2.209-5.829,2.478-8.862.929-10.419,6.057-19.346,9.742-28.786,1.728-4.427,3.334-8.9,5.291-13.223a5.528,5.528,0,0,0-1.4-6.962,58.22,58.22,0,0,0-4.932-4.256c-1.851-1.4-3.791-3.09-2.217-5.324,1.329-1.891,3.734-4.272,5.641-4.256,4.231.041,5.943-1.72,6.709-5.421.359-1.72,1.052-3.367,1.508-5.071.277-1.035.913-2.462.481-3.122-3.9-5.976-3.383-14.1-9.775-18.963-4.525-3.449-4.394-8.707-3.334-13.859.88-4.3,2.544-8.389.579-13.06-1.207-2.862,1.109-4.826,4.2-5.055,3.652-.261,7.362-.008,10.949-.6,7.468-1.207,14.886-2.764,22.3-4.3,2.674-.554,4.7-1.981,5.218-5,.726-4.264,1.516-8.519,2.413-12.75.726-3.432-.717-4.924-4.019-4.834-1.614.041-3.22.383-4.834.546-6.7.7-13.395,1.7-20.112,1.981-5.959.253-8.381-2.992-6.44-8.576,2.022-5.821,4.859-11.348,7.068-17.1,2.8-7.3,5.707-14.609,7.867-22.118,2.535-8.8,4.492-17.764,6.318-26.74.66-3.212-.375-6.8.408-9.962,2.584-10.378,5.633-20.65,8.487-30.971,1.337-4.834.6-5.935-5.022-7.557-5.886-1.7-6.522-1.4-8.071,3.734-1.329,4.419-2.495,8.894-4.1,13.207a6.623,6.623,0,0,1-3.448,3.579,5.587,5.587,0,0,1-4.435-.97c-.677-.5-.693-2.511-.367-3.669,1.883-6.644,4.06-13.2,5.878-19.859.318-1.207-.563-2.747-.88-4.133-1.459.823-3.8,1.329-4.223,2.519-2.641,7.4-4.9,14.935-7.182,22.46-1.7,5.584-3.2,11.218-4.843,16.819-.946,3.245-2.9,4.231-6.2,3.008a29.991,29.991,0,0,0-7.476-1.769c-1.443-.139-3.644.277-4.288,1.247-.579.872.2,3.008.9,4.3,1.419,2.617,3.253,5.006,4.81,7.557,2.65,4.337,1.842,6.122-2.633,8.332-1.549.766-2.6,2.87-3.5,4.565-2.006,3.783-3.514,7.843-5.69,11.511-2.764,4.647-2.462,6.921,1.451,10.231a5.377,5.377,0,0,1,1.321,4.459c-.823,3.783-2.364,7.19-1.345,11.438.872,3.652-1.655,6.546-5.536,7.272-3.1.579-4.688,2.332-5.5,5.193q-4.109,14.43-8.291,28.843c-.717,2.47-1.484,4.932-2.185,7.411-1.541,5.462-.774,9.922,2.6,15.155,4.4,6.832,3.913,15.482,2.951,23.536-.4,3.334-2.063,6.522-3.465,10.729-2.438-6.628-4.508-12.139-6.489-17.675a15.069,15.069,0,0,0-8.316-9.253c-9.408-4.492-19.02-9.1-27.2-15.416-5.519-4.264-8.731-11.511-12.954-17.438-.465-.66-.628-1.59-1.182-2.128-7.1-6.864-4.353-14.5-1.3-21.775a31.863,31.863,0,0,0,2.535-14.234,101,101,0,0,1,.041-10.182c.644-11.992-6.139-19.444-15.759-24.506-9.807-5.16-19.794-4.158-28.061,3.277-3.652,3.277-7.239,8.185-7.989,12.816-1.557,9.661-1.508,19.639-1.467,29.479.016,3.351,1.851,6.75,3.114,10.028,1.321,3.424,1.614,6.449-1.223,9.392-1.476,1.533-2.291,3.677-3.546,5.446a29.873,29.873,0,0,1-11.731,9.71A68.9,68.9,0,0,0,53.9,162.242c-4.826,4.231-10.606,5.87-16.223,8.128-3.025,1.215-6.074,2.389-9.18,3.367a8.655,8.655,0,0,0-6.416,7.191,195.223,195.223,0,0,1-8.894,34.208c-1.223,3.375-1.2,7.2-1.753,10.818-.2,1.337-.033,2.894-.669,3.97-3.359,5.7-3.807,11.984-3.122,18.188,1.117,10.068-3.563,18.816-5.65,28.126a81.39,81.39,0,0,0-.913,30.914c2.658,16.859,5.12,33.743,7.908,50.578.726,4.353,2.421,8.544,3.554,12.84a24.756,24.756,0,0,1,1.182,6.375c-.033,4.443,2.071,7.3,6.008,8.723,3.375,1.223,4.288,3.057,3.318,6.563a5.366,5.366,0,0,0,1.549,4.68c3.294,2.315,3.612,5.1,2.682,8.568-.6,2.209-1.419,4.533-1.255,6.734.261,3.571-1.223,5.315-5.038,6.22-.13-1.639-.2-3.179-.391-4.7-.514-3.995-2.658-6.261-5.723-6.155-4.076.139-5.78,2-5.919,6.62-.082,2.764-.016,5.536-.016,8.625-2.169-.334-3.554-.554-5.764-.9.717,1.647,1.215,2.65,1.6,3.7.359.995,1.174,2.364.807,3-2.47,4.288.09,7.835,1.394,11.568a169.305,169.305,0,0,1,7.949,35c.514,4.174,1.386,8.3,2.193,12.432.954,4.883,2.821,6.563,7.818,6.326,3.9-.188,5.006,1.418,6.253,5.055,1.614,4.7,3.579,9.946,9.587,11.585,1.084.293,2.332,2.266,2.421,3.538q1.81,23.932,3.237,47.9c.2,3.237-.383,6.514-.318,9.758.09,4.582.448,9.155.693,13.737.179,3.351.383,6.7.538,10.052a28.025,28.025,0,0,0,.057,4.06c1.37,6.889,3.106,13.712,4.231,20.642.823,5.038.84,10.207,1.313,15.31.554,5.927,1.582,11.837,1.745,17.772.2,7.549-.049,15.131-.5,22.672-.367,6.2-1.239,12.367-2.005,18.531-.823,6.644,1.133,11.438,8.234,13.036Q70.61,707.564,80.8,707.576ZM39.431,327.4c-1.272-7.574-2.413-14.259-3.5-20.952a37.685,37.685,0,0,1-.628-5.642c-.065-6.742-.2-13.5.13-20.226.106-2.111,1.647-4.15,2.91-7.109.978,1.663,1.4,2.079,1.467,2.544,1.688,11.911,3.612,23.789,4.859,35.749C45.243,317.237,42.659,322.185,39.431,327.4ZM220.089,48.564c.505-.489,1.019-.978,1.525-1.467,1.6,1.207,3.554,2.16,4.647,3.718.579.823-.342,2.7-.587,4.1-.5.082-.995.171-1.484.253Q222.148,51.866,220.089,48.564Zm-20.406,90.606c.5.114.995.22,1.492.334q-1.981,6.445-3.962,12.9c-.253-.065-.5-.13-.75-.187Q198.077,145.7,199.684,139.171Z" transform="translate(11.548 0)"/>
  </g>
</svg>
