<svg xmlns="http://www.w3.org/2000/svg" xmlns:xlink="http://www.w3.org/1999/xlink" width="444.032" height="257.497" viewBox="0 0 444.032 257.497">
  <defs>
    <linearGradient id="linear-gradient" x1="0.012" y1="0.02" x2="1" y2="1" gradientUnits="objectBoundingBox">
      <stop offset="0" stop-color="#aebaf8"/>
      <stop offset="1" stop-color="#c374f2"/>
    </linearGradient>
  </defs>
  <g id="Сгруппировать_2289" data-name="Сгруппировать 2289" transform="translate(-15570.303 -6305.313)">
    <path id="Контур_7" data-name="Контур 7" d="M433.894,257.5H10.138A10.149,10.149,0,0,1,0,247.36V10.138A10.149,10.149,0,0,1,10.138,0H433.894a10.149,10.149,0,0,1,10.138,10.138V247.36A10.149,10.149,0,0,1,433.894,257.5Zm0-9.124a2.026,2.026,0,1,0,2.027,2.028A2.03,2.03,0,0,0,433.894,248.374Zm-6.083,0a2.026,2.026,0,1,0,2.024,2.028A2.032,2.032,0,0,0,427.811,248.374Zm-6.083,0a2.026,2.026,0,1,0,2.03,2.028A2.028,2.028,0,0,0,421.728,248.374Zm-6.082,0a2.026,2.026,0,1,0,2.026,2.028A2.031,2.031,0,0,0,415.646,248.374Zm-6.083,0a2.026,2.026,0,1,0,2.029,2.028A2.03,2.03,0,0,0,409.563,248.374Zm-6.083,0a2.026,2.026,0,1,0,2.03,2.028A2.03,2.03,0,0,0,403.48,248.374Zm-365.973,0a2.026,2.026,0,1,0,2.029,2.028A2.028,2.028,0,0,0,37.508,248.374Zm-6.083,0a2.026,2.026,0,1,0,2.03,2.028A2.028,2.028,0,0,0,31.425,248.374Zm-6.077,0a2.026,2.026,0,1,0,2.024,2.028A2.031,2.031,0,0,0,25.348,248.374Zm-6.088,0a2.026,2.026,0,1,0,2.026,2.028A2.028,2.028,0,0,0,19.26,248.374Zm-6.077,0a2.026,2.026,0,1,0,2.024,2.028A2.033,2.033,0,0,0,13.183,248.374Zm-6.087,0A2.026,2.026,0,1,0,9.124,250.4,2.031,2.031,0,0,0,7.1,248.374Zm429.842-4.054a2.027,2.027,0,1,0,2.024,2.025A2.031,2.031,0,0,0,436.939,244.32Zm-6.087,0a2.027,2.027,0,1,0,2.024,2.025A2.029,2.029,0,0,0,430.852,244.32Zm-6.082,0a2.027,2.027,0,1,0,2.029,2.025A2.03,2.03,0,0,0,424.77,244.32Zm-6.083,0a2.027,2.027,0,1,0,2.029,2.025A2.026,2.026,0,0,0,418.687,244.32Zm-6.087,0a2.027,2.027,0,1,0,2.034,2.025A2.027,2.027,0,0,0,412.6,244.32Zm-6.078,0a2.027,2.027,0,1,0,2.029,2.025A2.026,2.026,0,0,0,406.522,244.32Zm-365.969,0a2.027,2.027,0,1,0,2.026,2.025A2.031,2.031,0,0,0,40.553,244.32Zm-6.087,0a2.027,2.027,0,1,0,2.029,2.025A2.026,2.026,0,0,0,34.467,244.32Zm-6.083,0a2.027,2.027,0,1,0,2.029,2.025A2.028,2.028,0,0,0,28.384,244.32Zm-6.083,0a2.027,2.027,0,1,0,2.03,2.025A2.026,2.026,0,0,0,22.3,244.32Zm-6.08,0a2.027,2.027,0,1,0,2.027,2.025A2.027,2.027,0,0,0,16.221,244.32Zm-6.083,0a2.027,2.027,0,1,0,2.027,2.025A2.027,2.027,0,0,0,10.138,244.32Zm423.757-4.058a2.029,2.029,0,1,0,2.027,2.029A2.03,2.03,0,0,0,433.894,240.261Zm-6.083,0a2.029,2.029,0,1,0,2.024,2.029A2.032,2.032,0,0,0,427.811,240.261Zm-6.083,0a2.029,2.029,0,1,0,2.03,2.029A2.029,2.029,0,0,0,421.728,240.261Zm-6.082,0a2.029,2.029,0,1,0,2.026,2.029A2.032,2.032,0,0,0,415.646,240.261Zm-6.083,0a2.029,2.029,0,1,0,2.029,2.029A2.031,2.031,0,0,0,409.563,240.261Zm-6.083,0a2.029,2.029,0,1,0,2.03,2.029A2.031,2.031,0,0,0,403.48,240.261Zm-365.973,0a2.029,2.029,0,1,0,2.029,2.029A2.029,2.029,0,0,0,37.508,240.261Zm-6.083,0a2.029,2.029,0,1,0,2.03,2.029A2.029,2.029,0,0,0,31.425,240.261Zm-6.077,0a2.029,2.029,0,1,0,2.024,2.029A2.032,2.032,0,0,0,25.348,240.261Zm-6.088,0a2.029,2.029,0,1,0,2.026,2.029A2.029,2.029,0,0,0,19.26,240.261Zm-6.077,0a2.029,2.029,0,1,0,2.024,2.029A2.034,2.034,0,0,0,13.183,240.261Zm-6.087,0a2.029,2.029,0,1,0,2.027,2.029A2.032,2.032,0,0,0,7.1,240.261Zm429.842-4.054a2.027,2.027,0,1,0,2.024,2.025A2.031,2.031,0,0,0,436.939,236.208Zm-6.087,0a2.027,2.027,0,1,0,2.024,2.025A2.029,2.029,0,0,0,430.852,236.208Zm-6.082,0a2.027,2.027,0,1,0,2.029,2.025A2.03,2.03,0,0,0,424.77,236.208Zm-6.083,0a2.027,2.027,0,1,0,2.029,2.025A2.026,2.026,0,0,0,418.687,236.208Zm-6.087,0a2.027,2.027,0,1,0,2.034,2.025A2.027,2.027,0,0,0,412.6,236.208Zm-6.078,0a2.027,2.027,0,1,0,2.029,2.025A2.026,2.026,0,0,0,406.522,236.208Zm-365.969,0a2.027,2.027,0,1,0,2.026,2.025A2.031,2.031,0,0,0,40.553,236.208Zm-6.087,0a2.027,2.027,0,1,0,2.029,2.025A2.026,2.026,0,0,0,34.467,236.208Zm-6.083,0a2.027,2.027,0,1,0,2.029,2.025A2.028,2.028,0,0,0,28.384,236.208Zm-6.083,0a2.027,2.027,0,1,0,2.03,2.025A2.026,2.026,0,0,0,22.3,236.208Zm-6.08,0a2.027,2.027,0,1,0,2.027,2.025A2.027,2.027,0,0,0,16.221,236.208Zm-6.083,0a2.027,2.027,0,1,0,2.027,2.025A2.027,2.027,0,0,0,10.138,236.208Zm423.757-4.053a2.026,2.026,0,1,0,2.027,2.025A2.028,2.028,0,0,0,433.894,232.155Zm-6.083,0a2.026,2.026,0,1,0,2.024,2.025A2.03,2.03,0,0,0,427.811,232.155Zm-6.083,0a2.026,2.026,0,1,0,2.03,2.025A2.026,2.026,0,0,0,421.728,232.155Zm-6.082,0a2.026,2.026,0,1,0,2.026,2.025A2.03,2.03,0,0,0,415.646,232.155Zm-6.083,0a2.026,2.026,0,1,0,2.029,2.025A2.028,2.028,0,0,0,409.563,232.155Zm-6.083,0a2.026,2.026,0,1,0,2.03,2.025A2.028,2.028,0,0,0,403.48,232.155Zm-365.973,0a2.026,2.026,0,1,0,2.029,2.025A2.026,2.026,0,0,0,37.508,232.155Zm-6.083,0a2.026,2.026,0,1,0,2.03,2.025A2.026,2.026,0,0,0,31.425,232.155Zm-6.077,0a2.026,2.026,0,1,0,2.024,2.025A2.029,2.029,0,0,0,25.348,232.155Zm-6.088,0a2.026,2.026,0,1,0,2.026,2.025A2.026,2.026,0,0,0,19.26,232.155Zm-6.077,0a2.026,2.026,0,1,0,2.024,2.025A2.031,2.031,0,0,0,13.183,232.155Zm-6.087,0a2.026,2.026,0,1,0,2.027,2.025A2.03,2.03,0,0,0,7.1,232.155ZM436.939,228.1a2.027,2.027,0,1,0,2.024,2.025A2.031,2.031,0,0,0,436.939,228.1Zm-6.087,0a2.027,2.027,0,1,0,2.024,2.025A2.029,2.029,0,0,0,430.852,228.1Zm-6.082,0a2.027,2.027,0,1,0,2.029,2.025A2.03,2.03,0,0,0,424.77,228.1Zm-6.083,0a2.027,2.027,0,1,0,2.029,2.025A2.026,2.026,0,0,0,418.687,228.1Zm-6.087,0a2.027,2.027,0,1,0,2.034,2.025A2.027,2.027,0,0,0,412.6,228.1Zm-6.078,0a2.027,2.027,0,1,0,2.029,2.025A2.026,2.026,0,0,0,406.522,228.1Zm-365.969,0a2.027,2.027,0,1,0,2.026,2.025A2.031,2.031,0,0,0,40.553,228.1Zm-6.087,0a2.027,2.027,0,1,0,2.029,2.025A2.026,2.026,0,0,0,34.467,228.1Zm-6.083,0a2.027,2.027,0,1,0,2.029,2.025A2.028,2.028,0,0,0,28.384,228.1Zm-6.083,0a2.027,2.027,0,1,0,2.03,2.025A2.026,2.026,0,0,0,22.3,228.1Zm-6.08,0a2.027,2.027,0,1,0,2.027,2.025A2.027,2.027,0,0,0,16.221,228.1Zm-6.083,0a2.027,2.027,0,1,0,2.027,2.025A2.027,2.027,0,0,0,10.138,228.1Zm423.757-4.053a2.026,2.026,0,1,0,2.027,2.028A2.03,2.03,0,0,0,433.894,224.044Zm-6.083,0a2.026,2.026,0,1,0,2.024,2.028A2.031,2.031,0,0,0,427.811,224.044Zm-6.083,0a2.026,2.026,0,1,0,2.03,2.028A2.028,2.028,0,0,0,421.728,224.044Zm-6.082,0a2.026,2.026,0,1,0,2.026,2.028A2.031,2.031,0,0,0,415.646,224.044Zm-6.083,0a2.026,2.026,0,1,0,2.029,2.028A2.03,2.03,0,0,0,409.563,224.044Zm-6.083,0a2.026,2.026,0,1,0,2.03,2.028A2.03,2.03,0,0,0,403.48,224.044Zm-365.973,0a2.026,2.026,0,1,0,2.029,2.028A2.028,2.028,0,0,0,37.508,224.044Zm-6.083,0a2.026,2.026,0,1,0,2.03,2.028A2.028,2.028,0,0,0,31.425,224.044Zm-6.077,0a2.026,2.026,0,1,0,2.024,2.028A2.031,2.031,0,0,0,25.348,224.044Zm-6.088,0a2.026,2.026,0,1,0,2.026,2.028A2.028,2.028,0,0,0,19.26,224.044Zm-6.077,0a2.026,2.026,0,1,0,2.024,2.028A2.033,2.033,0,0,0,13.183,224.044Zm-6.087,0a2.026,2.026,0,1,0,2.027,2.028A2.031,2.031,0,0,0,7.1,224.044Zm429.842-4.058a2.027,2.027,0,1,0,2.024,2.029A2.034,2.034,0,0,0,436.939,219.985Zm-6.087,0a2.027,2.027,0,1,0,2.024,2.029A2.031,2.031,0,0,0,430.852,219.985Zm-6.082,0a2.027,2.027,0,1,0,2.029,2.029A2.032,2.032,0,0,0,424.77,219.985Zm-6.083,0a2.027,2.027,0,1,0,2.029,2.029A2.029,2.029,0,0,0,418.687,219.985Zm-6.087,0a2.027,2.027,0,1,0,2.034,2.029A2.03,2.03,0,0,0,412.6,219.985Zm-6.078,0a2.027,2.027,0,1,0,2.029,2.029A2.029,2.029,0,0,0,406.522,219.985Zm-365.969,0a2.027,2.027,0,1,0,2.026,2.029A2.034,2.034,0,0,0,40.553,219.985Zm-6.087,0a2.027,2.027,0,1,0,2.029,2.029A2.029,2.029,0,0,0,34.467,219.985Zm-6.083,0a2.027,2.027,0,1,0,2.029,2.029A2.031,2.031,0,0,0,28.384,219.985Zm-6.083,0a2.027,2.027,0,1,0,2.03,2.029A2.029,2.029,0,0,0,22.3,219.985Zm-6.08,0a2.027,2.027,0,1,0,2.027,2.029A2.03,2.03,0,0,0,16.221,219.985Zm-6.083,0a2.027,2.027,0,1,0,2.027,2.029A2.03,2.03,0,0,0,10.138,219.985Zm423.757-4.053a2.026,2.026,0,1,0,2.027,2.028A2.03,2.03,0,0,0,433.894,215.933Zm-6.083,0a2.026,2.026,0,1,0,2.024,2.028A2.031,2.031,0,0,0,427.811,215.933Zm-6.083,0a2.026,2.026,0,1,0,2.03,2.028A2.028,2.028,0,0,0,421.728,215.933Zm-6.082,0a2.026,2.026,0,1,0,2.026,2.028A2.031,2.031,0,0,0,415.646,215.933Zm-6.083,0a2.026,2.026,0,1,0,2.029,2.028A2.03,2.03,0,0,0,409.563,215.933Zm-6.083,0a2.026,2.026,0,1,0,2.03,2.028A2.03,2.03,0,0,0,403.48,215.933Zm-365.973,0a2.026,2.026,0,1,0,2.029,2.028A2.028,2.028,0,0,0,37.508,215.933Zm-6.083,0a2.026,2.026,0,1,0,2.03,2.028A2.028,2.028,0,0,0,31.425,215.933Zm-6.077,0a2.026,2.026,0,1,0,2.024,2.028A2.031,2.031,0,0,0,25.348,215.933Zm-6.088,0a2.026,2.026,0,1,0,2.026,2.028A2.028,2.028,0,0,0,19.26,215.933Zm-6.077,0a2.026,2.026,0,1,0,2.024,2.028A2.033,2.033,0,0,0,13.183,215.933Zm-6.087,0a2.026,2.026,0,1,0,2.027,2.028A2.031,2.031,0,0,0,7.1,215.933Zm429.842-4.054a2.027,2.027,0,1,0,2.024,2.025A2.031,2.031,0,0,0,436.939,211.879Zm-6.087,0a2.027,2.027,0,1,0,2.024,2.025A2.029,2.029,0,0,0,430.852,211.879Zm-6.082,0A2.027,2.027,0,1,0,426.8,213.9,2.03,2.03,0,0,0,424.77,211.879Zm-6.083,0a2.027,2.027,0,1,0,2.029,2.025A2.026,2.026,0,0,0,418.687,211.879Zm-6.087,0a2.027,2.027,0,1,0,2.034,2.025A2.027,2.027,0,0,0,412.6,211.879Zm-6.078,0a2.027,2.027,0,1,0,2.029,2.025A2.026,2.026,0,0,0,406.522,211.879Zm-365.969,0a2.027,2.027,0,1,0,2.026,2.025A2.031,2.031,0,0,0,40.553,211.879Zm-6.087,0A2.027,2.027,0,1,0,36.5,213.9,2.026,2.026,0,0,0,34.467,211.879Zm-6.083,0a2.027,2.027,0,1,0,2.029,2.025A2.028,2.028,0,0,0,28.384,211.879Zm-6.083,0a2.027,2.027,0,1,0,2.03,2.025A2.026,2.026,0,0,0,22.3,211.879Zm-6.08,0a2.027,2.027,0,1,0,2.027,2.025A2.027,2.027,0,0,0,16.221,211.879Zm-6.083,0a2.027,2.027,0,1,0,2.027,2.025A2.027,2.027,0,0,0,10.138,211.879Zm423.757-4.054a2.027,2.027,0,1,0,2.027,2.025A2.028,2.028,0,0,0,433.894,207.825Zm-6.083,0a2.027,2.027,0,1,0,2.024,2.025A2.03,2.03,0,0,0,427.811,207.825Zm-6.083,0a2.027,2.027,0,1,0,2.03,2.025A2.026,2.026,0,0,0,421.728,207.825Zm-6.082,0a2.027,2.027,0,1,0,2.026,2.025A2.03,2.03,0,0,0,415.646,207.825Zm-6.083,0a2.027,2.027,0,1,0,2.029,2.025A2.028,2.028,0,0,0,409.563,207.825Zm-6.083,0a2.027,2.027,0,1,0,2.03,2.025A2.028,2.028,0,0,0,403.48,207.825Zm-365.973,0a2.027,2.027,0,1,0,2.029,2.025A2.026,2.026,0,0,0,37.508,207.825Zm-6.083,0a2.027,2.027,0,1,0,2.03,2.025A2.026,2.026,0,0,0,31.425,207.825Zm-6.077,0a2.027,2.027,0,1,0,2.024,2.025A2.029,2.029,0,0,0,25.348,207.825Zm-6.088,0a2.027,2.027,0,1,0,2.026,2.025A2.026,2.026,0,0,0,19.26,207.825Zm-6.077,0a2.027,2.027,0,1,0,2.024,2.025A2.031,2.031,0,0,0,13.183,207.825Zm-6.087,0a2.027,2.027,0,1,0,2.027,2.025A2.03,2.03,0,0,0,7.1,207.825Zm429.842-4.057a2.027,2.027,0,1,0,2.024,2.025A2.031,2.031,0,0,0,436.939,203.768Zm-6.087,0a2.027,2.027,0,1,0,2.024,2.025A2.029,2.029,0,0,0,430.852,203.768Zm-6.082,0a2.027,2.027,0,1,0,2.029,2.025A2.03,2.03,0,0,0,424.77,203.768Zm-6.083,0a2.027,2.027,0,1,0,2.029,2.025A2.026,2.026,0,0,0,418.687,203.768Zm-6.087,0a2.027,2.027,0,1,0,2.034,2.025A2.027,2.027,0,0,0,412.6,203.768Zm-6.078,0a2.027,2.027,0,1,0,2.029,2.025A2.026,2.026,0,0,0,406.522,203.768Zm-365.969,0a2.027,2.027,0,1,0,2.026,2.025A2.031,2.031,0,0,0,40.553,203.768Zm-6.087,0a2.027,2.027,0,1,0,2.029,2.025A2.026,2.026,0,0,0,34.467,203.768Zm-6.083,0a2.027,2.027,0,1,0,2.029,2.025A2.028,2.028,0,0,0,28.384,203.768Zm-6.083,0a2.027,2.027,0,1,0,2.03,2.025A2.026,2.026,0,0,0,22.3,203.768Zm-6.08,0a2.027,2.027,0,1,0,2.027,2.025A2.027,2.027,0,0,0,16.221,203.768Zm-6.083,0a2.027,2.027,0,1,0,2.027,2.025A2.027,2.027,0,0,0,10.138,203.768Zm423.757-4.054a2.027,2.027,0,1,0,2.027,2.029A2.03,2.03,0,0,0,433.894,199.714Zm-6.083,0a2.027,2.027,0,1,0,2.024,2.029A2.032,2.032,0,0,0,427.811,199.714Zm-6.083,0a2.027,2.027,0,1,0,2.03,2.029A2.029,2.029,0,0,0,421.728,199.714Zm-6.082,0a2.027,2.027,0,1,0,2.026,2.029A2.032,2.032,0,0,0,415.646,199.714Zm-6.083,0a2.027,2.027,0,1,0,2.029,2.029A2.031,2.031,0,0,0,409.563,199.714Zm-6.083,0a2.027,2.027,0,1,0,2.03,2.029A2.031,2.031,0,0,0,403.48,199.714Zm-365.973,0a2.027,2.027,0,1,0,2.029,2.029A2.029,2.029,0,0,0,37.508,199.714Zm-6.083,0a2.027,2.027,0,1,0,2.03,2.029A2.029,2.029,0,0,0,31.425,199.714Zm-6.077,0a2.027,2.027,0,1,0,2.024,2.029A2.031,2.031,0,0,0,25.348,199.714Zm-6.088,0a2.027,2.027,0,1,0,2.026,2.029A2.029,2.029,0,0,0,19.26,199.714Zm-6.077,0a2.027,2.027,0,1,0,2.024,2.029A2.034,2.034,0,0,0,13.183,199.714Zm-6.087,0a2.027,2.027,0,1,0,2.027,2.029A2.032,2.032,0,0,0,7.1,199.714Zm429.842-4.057a2.026,2.026,0,1,0,2.024,2.028A2.033,2.033,0,0,0,436.939,195.656Zm-6.087,0a2.026,2.026,0,1,0,2.024,2.028A2.031,2.031,0,0,0,430.852,195.656Zm-6.082,0a2.026,2.026,0,1,0,2.029,2.028A2.031,2.031,0,0,0,424.77,195.656Zm-6.083,0a2.026,2.026,0,1,0,2.029,2.028A2.028,2.028,0,0,0,418.687,195.656Zm-6.087,0a2.026,2.026,0,1,0,2.034,2.028A2.029,2.029,0,0,0,412.6,195.656Zm-6.078,0a2.026,2.026,0,1,0,2.029,2.028A2.028,2.028,0,0,0,406.522,195.656Zm-365.969,0a2.026,2.026,0,1,0,2.026,2.028A2.033,2.033,0,0,0,40.553,195.656Zm-6.087,0a2.026,2.026,0,1,0,2.029,2.028A2.028,2.028,0,0,0,34.467,195.656Zm-6.083,0a2.026,2.026,0,1,0,2.029,2.028A2.03,2.03,0,0,0,28.384,195.656Zm-6.083,0a2.026,2.026,0,1,0,2.03,2.028A2.028,2.028,0,0,0,22.3,195.656Zm-6.08,0a2.026,2.026,0,1,0,2.027,2.028A2.029,2.029,0,0,0,16.221,195.656Zm-6.083,0a2.026,2.026,0,1,0,2.027,2.028A2.029,2.029,0,0,0,10.138,195.656ZM433.894,191.6a2.027,2.027,0,1,0,2.027,2.029A2.03,2.03,0,0,0,433.894,191.6Zm-6.083,0a2.027,2.027,0,1,0,2.024,2.029A2.032,2.032,0,0,0,427.811,191.6Zm-6.083,0a2.027,2.027,0,1,0,2.03,2.029A2.029,2.029,0,0,0,421.728,191.6Zm-6.082,0a2.027,2.027,0,1,0,2.026,2.029A2.032,2.032,0,0,0,415.646,191.6Zm-6.083,0a2.027,2.027,0,1,0,2.029,2.029A2.031,2.031,0,0,0,409.563,191.6Zm-6.083,0a2.027,2.027,0,1,0,2.03,2.029A2.031,2.031,0,0,0,403.48,191.6Zm-365.973,0a2.027,2.027,0,1,0,2.029,2.029A2.029,2.029,0,0,0,37.508,191.6Zm-6.083,0a2.027,2.027,0,1,0,2.03,2.029A2.029,2.029,0,0,0,31.425,191.6Zm-6.077,0a2.027,2.027,0,1,0,2.024,2.029A2.032,2.032,0,0,0,25.348,191.6Zm-6.088,0a2.027,2.027,0,1,0,2.026,2.029A2.029,2.029,0,0,0,19.26,191.6Zm-6.077,0a2.027,2.027,0,1,0,2.024,2.029A2.034,2.034,0,0,0,13.183,191.6Zm-6.087,0a2.027,2.027,0,1,0,2.027,2.029A2.032,2.032,0,0,0,7.1,191.6Zm429.842-4.058a2.029,2.029,0,1,0,2.024,2.029A2.034,2.034,0,0,0,436.939,187.544Zm-6.087,0a2.029,2.029,0,1,0,2.024,2.029A2.031,2.031,0,0,0,430.852,187.544Zm-6.082,0a2.029,2.029,0,1,0,2.029,2.029A2.032,2.032,0,0,0,424.77,187.544Zm-6.083,0a2.029,2.029,0,1,0,2.029,2.029A2.029,2.029,0,0,0,418.687,187.544Zm-6.087,0a2.029,2.029,0,1,0,2.034,2.029A2.03,2.03,0,0,0,412.6,187.544Zm-6.078,0a2.029,2.029,0,1,0,2.029,2.029A2.029,2.029,0,0,0,406.522,187.544Zm-365.969,0a2.029,2.029,0,1,0,2.026,2.029A2.034,2.034,0,0,0,40.553,187.544Zm-6.087,0a2.029,2.029,0,1,0,2.029,2.029A2.029,2.029,0,0,0,34.467,187.544Zm-6.083,0a2.029,2.029,0,1,0,2.029,2.029A2.031,2.031,0,0,0,28.384,187.544Zm-6.083,0a2.029,2.029,0,1,0,2.03,2.029A2.029,2.029,0,0,0,22.3,187.544Zm-6.08,0a2.029,2.029,0,1,0,2.027,2.029A2.03,2.03,0,0,0,16.221,187.544Zm-6.083,0a2.029,2.029,0,1,0,2.027,2.029A2.03,2.03,0,0,0,10.138,187.544Zm423.757-4.053a2.026,2.026,0,1,0,2.027,2.028A2.03,2.03,0,0,0,433.894,183.491Zm-6.083,0a2.026,2.026,0,1,0,2.024,2.028A2.031,2.031,0,0,0,427.811,183.491Zm-6.083,0a2.026,2.026,0,1,0,2.03,2.028A2.028,2.028,0,0,0,421.728,183.491Zm-6.082,0a2.026,2.026,0,1,0,2.026,2.028A2.031,2.031,0,0,0,415.646,183.491Zm-6.083,0a2.026,2.026,0,1,0,2.029,2.028A2.03,2.03,0,0,0,409.563,183.491Zm-6.083,0a2.026,2.026,0,1,0,2.03,2.028A2.03,2.03,0,0,0,403.48,183.491Zm-365.973,0a2.026,2.026,0,1,0,2.029,2.028A2.028,2.028,0,0,0,37.508,183.491Zm-6.083,0a2.026,2.026,0,1,0,2.03,2.028A2.028,2.028,0,0,0,31.425,183.491Zm-6.077,0a2.026,2.026,0,1,0,2.024,2.028A2.031,2.031,0,0,0,25.348,183.491Zm-6.088,0a2.026,2.026,0,1,0,2.026,2.028A2.028,2.028,0,0,0,19.26,183.491Zm-6.077,0a2.026,2.026,0,1,0,2.024,2.028A2.033,2.033,0,0,0,13.183,183.491Zm-6.087,0a2.026,2.026,0,1,0,2.027,2.028A2.031,2.031,0,0,0,7.1,183.491Zm429.842-4.054a2.027,2.027,0,1,0,2.024,2.025A2.031,2.031,0,0,0,436.939,179.438Zm-6.087,0a2.027,2.027,0,1,0,2.024,2.025A2.029,2.029,0,0,0,430.852,179.438Zm-6.082,0a2.027,2.027,0,1,0,2.029,2.025A2.03,2.03,0,0,0,424.77,179.438Zm-6.083,0a2.027,2.027,0,1,0,2.029,2.025A2.026,2.026,0,0,0,418.687,179.438Zm-6.087,0a2.027,2.027,0,1,0,2.034,2.025A2.027,2.027,0,0,0,412.6,179.438Zm-6.078,0a2.027,2.027,0,1,0,2.029,2.025A2.026,2.026,0,0,0,406.522,179.438Zm-365.969,0a2.027,2.027,0,1,0,2.026,2.025A2.032,2.032,0,0,0,40.553,179.438Zm-6.087,0a2.027,2.027,0,1,0,2.029,2.025A2.026,2.026,0,0,0,34.467,179.438Zm-6.083,0a2.027,2.027,0,1,0,2.029,2.025A2.028,2.028,0,0,0,28.384,179.438Zm-6.083,0a2.027,2.027,0,1,0,2.03,2.025A2.026,2.026,0,0,0,22.3,179.438Zm-6.08,0a2.027,2.027,0,1,0,2.027,2.025A2.027,2.027,0,0,0,16.221,179.438Zm-6.083,0a2.027,2.027,0,1,0,2.027,2.025A2.027,2.027,0,0,0,10.138,179.438Zm423.757-4.054a2.027,2.027,0,1,0,2.027,2.025A2.028,2.028,0,0,0,433.894,175.384Zm-6.083,0a2.027,2.027,0,1,0,2.024,2.025A2.03,2.03,0,0,0,427.811,175.384Zm-6.083,0a2.027,2.027,0,1,0,2.03,2.025A2.026,2.026,0,0,0,421.728,175.384Zm-6.082,0a2.027,2.027,0,1,0,2.026,2.025A2.03,2.03,0,0,0,415.646,175.384Zm-6.083,0a2.027,2.027,0,1,0,2.029,2.025A2.028,2.028,0,0,0,409.563,175.384Zm-6.083,0a2.027,2.027,0,1,0,2.03,2.025A2.028,2.028,0,0,0,403.48,175.384Zm-365.973,0a2.027,2.027,0,1,0,2.029,2.025A2.026,2.026,0,0,0,37.508,175.384Zm-6.083,0a2.027,2.027,0,1,0,2.03,2.025A2.026,2.026,0,0,0,31.425,175.384Zm-6.077,0a2.027,2.027,0,1,0,2.024,2.025A2.029,2.029,0,0,0,25.348,175.384Zm-6.088,0a2.027,2.027,0,1,0,2.026,2.025A2.026,2.026,0,0,0,19.26,175.384Zm-6.077,0a2.027,2.027,0,1,0,2.024,2.025A2.031,2.031,0,0,0,13.183,175.384Zm-6.087,0a2.027,2.027,0,1,0,2.027,2.025A2.03,2.03,0,0,0,7.1,175.384Zm429.842-4.057a2.027,2.027,0,1,0,2.024,2.025A2.031,2.031,0,0,0,436.939,171.326Zm-6.087,0a2.027,2.027,0,1,0,2.024,2.025A2.029,2.029,0,0,0,430.852,171.326Zm-6.082,0a2.027,2.027,0,1,0,2.029,2.025A2.03,2.03,0,0,0,424.77,171.326Zm-6.083,0a2.027,2.027,0,1,0,2.029,2.025A2.026,2.026,0,0,0,418.687,171.326Zm-6.087,0a2.027,2.027,0,1,0,2.034,2.025A2.027,2.027,0,0,0,412.6,171.326Zm-6.078,0a2.027,2.027,0,1,0,2.029,2.025A2.026,2.026,0,0,0,406.522,171.326Zm-365.969,0a2.027,2.027,0,1,0,2.026,2.025A2.031,2.031,0,0,0,40.553,171.326Zm-6.087,0a2.027,2.027,0,1,0,2.029,2.025A2.026,2.026,0,0,0,34.467,171.326Zm-6.083,0a2.027,2.027,0,1,0,2.029,2.025A2.028,2.028,0,0,0,28.384,171.326Zm-6.083,0a2.027,2.027,0,1,0,2.03,2.025A2.026,2.026,0,0,0,22.3,171.326Zm-6.08,0a2.027,2.027,0,1,0,2.027,2.025A2.027,2.027,0,0,0,16.221,171.326Zm-6.083,0a2.027,2.027,0,1,0,2.027,2.025A2.027,2.027,0,0,0,10.138,171.326Zm423.757-4.054a2.027,2.027,0,1,0,2.027,2.025A2.028,2.028,0,0,0,433.894,167.273Zm-6.083,0a2.027,2.027,0,1,0,2.024,2.025A2.03,2.03,0,0,0,427.811,167.273Zm-6.083,0a2.027,2.027,0,1,0,2.03,2.025A2.026,2.026,0,0,0,421.728,167.273Zm-6.082,0a2.027,2.027,0,1,0,2.026,2.025A2.03,2.03,0,0,0,415.646,167.273Zm-6.083,0a2.027,2.027,0,1,0,2.029,2.025A2.028,2.028,0,0,0,409.563,167.273Zm-6.083,0a2.027,2.027,0,1,0,2.03,2.025A2.028,2.028,0,0,0,403.48,167.273Zm-365.973,0a2.027,2.027,0,1,0,2.029,2.025A2.026,2.026,0,0,0,37.508,167.273Zm-6.083,0a2.027,2.027,0,1,0,2.03,2.025A2.026,2.026,0,0,0,31.425,167.273Zm-6.077,0a2.027,2.027,0,1,0,2.024,2.025A2.029,2.029,0,0,0,25.348,167.273Zm-6.088,0a2.027,2.027,0,1,0,2.026,2.025A2.026,2.026,0,0,0,19.26,167.273Zm-6.077,0a2.027,2.027,0,1,0,2.024,2.025A2.031,2.031,0,0,0,13.183,167.273Zm-6.087,0A2.027,2.027,0,1,0,9.124,169.3,2.03,2.03,0,0,0,7.1,167.273Zm429.842-4.057a2.027,2.027,0,1,0,2.024,2.029A2.034,2.034,0,0,0,436.939,163.215Zm-6.087,0a2.027,2.027,0,1,0,2.024,2.029A2.031,2.031,0,0,0,430.852,163.215Zm-6.082,0a2.027,2.027,0,1,0,2.029,2.029A2.032,2.032,0,0,0,424.77,163.215Zm-6.083,0a2.027,2.027,0,1,0,2.029,2.029A2.029,2.029,0,0,0,418.687,163.215Zm-6.087,0a2.027,2.027,0,1,0,2.034,2.029A2.03,2.03,0,0,0,412.6,163.215Zm-6.078,0a2.027,2.027,0,1,0,2.029,2.029A2.029,2.029,0,0,0,406.522,163.215Zm-365.969,0a2.027,2.027,0,1,0,2.026,2.029A2.034,2.034,0,0,0,40.553,163.215Zm-6.087,0a2.027,2.027,0,1,0,2.029,2.029A2.029,2.029,0,0,0,34.467,163.215Zm-6.083,0a2.027,2.027,0,1,0,2.029,2.029A2.031,2.031,0,0,0,28.384,163.215Zm-6.083,0a2.027,2.027,0,1,0,2.03,2.029A2.029,2.029,0,0,0,22.3,163.215Zm-6.08,0a2.027,2.027,0,1,0,2.027,2.029A2.03,2.03,0,0,0,16.221,163.215Zm-6.083,0a2.027,2.027,0,1,0,2.027,2.029A2.03,2.03,0,0,0,10.138,163.215Zm423.757-4.054a2.027,2.027,0,1,0,2.027,2.029A2.03,2.03,0,0,0,433.894,159.162Zm-6.083,0a2.027,2.027,0,1,0,2.024,2.029A2.032,2.032,0,0,0,427.811,159.162Zm-6.083,0a2.027,2.027,0,1,0,2.03,2.029A2.029,2.029,0,0,0,421.728,159.162Zm-6.082,0a2.027,2.027,0,1,0,2.026,2.029A2.032,2.032,0,0,0,415.646,159.162Zm-6.083,0a2.027,2.027,0,1,0,2.029,2.029A2.031,2.031,0,0,0,409.563,159.162Zm-6.083,0a2.027,2.027,0,1,0,2.03,2.029A2.031,2.031,0,0,0,403.48,159.162Zm-365.973,0a2.027,2.027,0,1,0,2.029,2.029A2.029,2.029,0,0,0,37.508,159.162Zm-6.083,0a2.027,2.027,0,1,0,2.03,2.029A2.029,2.029,0,0,0,31.425,159.162Zm-6.077,0a2.027,2.027,0,1,0,2.024,2.029A2.032,2.032,0,0,0,25.348,159.162Zm-6.088,0a2.027,2.027,0,1,0,2.026,2.029A2.029,2.029,0,0,0,19.26,159.162Zm-6.077,0a2.027,2.027,0,1,0,2.024,2.029A2.034,2.034,0,0,0,13.183,159.162Zm-6.087,0a2.027,2.027,0,1,0,2.027,2.029A2.032,2.032,0,0,0,7.1,159.162ZM436.939,155.1a2.029,2.029,0,1,0,2.024,2.029A2.034,2.034,0,0,0,436.939,155.1Zm-6.087,0a2.029,2.029,0,1,0,2.024,2.029A2.031,2.031,0,0,0,430.852,155.1Zm-6.082,0a2.029,2.029,0,1,0,2.029,2.029A2.032,2.032,0,0,0,424.77,155.1Zm-6.083,0a2.029,2.029,0,1,0,2.029,2.029A2.029,2.029,0,0,0,418.687,155.1Zm-6.087,0a2.029,2.029,0,1,0,2.034,2.029A2.03,2.03,0,0,0,412.6,155.1Zm-6.078,0a2.029,2.029,0,1,0,2.029,2.029A2.029,2.029,0,0,0,406.522,155.1Zm-365.969,0a2.029,2.029,0,1,0,2.026,2.029A2.034,2.034,0,0,0,40.553,155.1Zm-6.087,0a2.029,2.029,0,1,0,2.029,2.029A2.029,2.029,0,0,0,34.467,155.1Zm-6.083,0a2.029,2.029,0,1,0,2.029,2.029A2.031,2.031,0,0,0,28.384,155.1Zm-6.083,0a2.029,2.029,0,1,0,2.03,2.029A2.029,2.029,0,0,0,22.3,155.1Zm-6.08,0a2.029,2.029,0,1,0,2.027,2.029A2.03,2.03,0,0,0,16.221,155.1Zm-6.083,0a2.029,2.029,0,1,0,2.027,2.029A2.03,2.03,0,0,0,10.138,155.1Zm423.757-4.049a2.025,2.025,0,1,0,2.027,2.025A2.028,2.028,0,0,0,433.894,151.055Zm-6.083,0a2.025,2.025,0,1,0,2.024,2.025A2.03,2.03,0,0,0,427.811,151.055Zm-6.083,0a2.025,2.025,0,1,0,2.03,2.025A2.026,2.026,0,0,0,421.728,151.055Zm-6.082,0a2.025,2.025,0,1,0,2.026,2.025A2.03,2.03,0,0,0,415.646,151.055Zm-6.083,0a2.025,2.025,0,1,0,2.029,2.025A2.028,2.028,0,0,0,409.563,151.055Zm-6.083,0a2.025,2.025,0,1,0,2.03,2.025A2.028,2.028,0,0,0,403.48,151.055Zm-365.973,0a2.025,2.025,0,1,0,2.029,2.025A2.026,2.026,0,0,0,37.508,151.055Zm-6.083,0a2.025,2.025,0,1,0,2.03,2.025A2.026,2.026,0,0,0,31.425,151.055Zm-6.077,0a2.025,2.025,0,1,0,2.024,2.025A2.029,2.029,0,0,0,25.348,151.055Zm-6.088,0a2.025,2.025,0,1,0,2.026,2.025A2.026,2.026,0,0,0,19.26,151.055Zm-6.077,0a2.025,2.025,0,1,0,2.024,2.025A2.031,2.031,0,0,0,13.183,151.055Zm-6.087,0a2.025,2.025,0,1,0,2.027,2.025A2.03,2.03,0,0,0,7.1,151.055ZM436.939,147a2.027,2.027,0,1,0,2.024,2.025A2.031,2.031,0,0,0,436.939,147Zm-6.087,0a2.027,2.027,0,1,0,2.024,2.025A2.029,2.029,0,0,0,430.852,147Zm-6.082,0a2.027,2.027,0,1,0,2.029,2.025A2.03,2.03,0,0,0,424.77,147Zm-6.083,0a2.027,2.027,0,1,0,2.029,2.025A2.026,2.026,0,0,0,418.687,147Zm-6.087,0a2.027,2.027,0,1,0,2.034,2.025A2.027,2.027,0,0,0,412.6,147Zm-6.078,0a2.027,2.027,0,1,0,2.029,2.025A2.026,2.026,0,0,0,406.522,147ZM40.553,147a2.027,2.027,0,1,0,2.026,2.025A2.031,2.031,0,0,0,40.553,147Zm-6.087,0a2.027,2.027,0,1,0,2.029,2.025A2.026,2.026,0,0,0,34.467,147Zm-6.083,0a2.027,2.027,0,1,0,2.029,2.025A2.028,2.028,0,0,0,28.384,147ZM22.3,147a2.027,2.027,0,1,0,2.03,2.025A2.026,2.026,0,0,0,22.3,147Zm-6.08,0a2.027,2.027,0,1,0,2.027,2.025A2.027,2.027,0,0,0,16.221,147Zm-6.083,0a2.027,2.027,0,1,0,2.027,2.025A2.027,2.027,0,0,0,10.138,147Zm423.757-4.053a2.026,2.026,0,1,0,2.027,2.024A2.027,2.027,0,0,0,433.894,142.944Zm-6.083,0a2.026,2.026,0,1,0,2.024,2.024A2.029,2.029,0,0,0,427.811,142.944Zm-6.083,0a2.026,2.026,0,1,0,2.03,2.024A2.026,2.026,0,0,0,421.728,142.944Zm-6.082,0a2.026,2.026,0,1,0,2.026,2.024A2.029,2.029,0,0,0,415.646,142.944Zm-6.083,0a2.026,2.026,0,1,0,2.029,2.024A2.028,2.028,0,0,0,409.563,142.944Zm-6.083,0a2.026,2.026,0,1,0,2.03,2.024A2.028,2.028,0,0,0,403.48,142.944Zm-365.973,0a2.026,2.026,0,1,0,2.029,2.024A2.026,2.026,0,0,0,37.508,142.944Zm-6.083,0a2.026,2.026,0,1,0,2.03,2.024A2.026,2.026,0,0,0,31.425,142.944Zm-6.077,0a2.026,2.026,0,1,0,2.024,2.024A2.029,2.029,0,0,0,25.348,142.944Zm-6.088,0a2.026,2.026,0,1,0,2.026,2.024A2.026,2.026,0,0,0,19.26,142.944Zm-6.077,0a2.026,2.026,0,1,0,2.024,2.024A2.031,2.031,0,0,0,13.183,142.944Zm-6.087,0a2.026,2.026,0,1,0,2.027,2.024A2.029,2.029,0,0,0,7.1,142.944Zm429.842-4.058a2.027,2.027,0,1,0,2.024,2.029A2.034,2.034,0,0,0,436.939,138.885Zm-6.087,0a2.027,2.027,0,1,0,2.024,2.029A2.031,2.031,0,0,0,430.852,138.885Zm-6.082,0a2.027,2.027,0,1,0,2.029,2.029A2.032,2.032,0,0,0,424.77,138.885Zm-6.083,0a2.027,2.027,0,1,0,2.029,2.029A2.029,2.029,0,0,0,418.687,138.885Zm-6.087,0a2.027,2.027,0,1,0,2.034,2.029A2.03,2.03,0,0,0,412.6,138.885Zm-6.078,0a2.027,2.027,0,1,0,2.029,2.029A2.029,2.029,0,0,0,406.522,138.885Zm-365.969,0a2.027,2.027,0,1,0,2.026,2.029A2.034,2.034,0,0,0,40.553,138.885Zm-6.087,0a2.027,2.027,0,1,0,2.029,2.029A2.029,2.029,0,0,0,34.467,138.885Zm-6.083,0a2.027,2.027,0,1,0,2.029,2.029A2.031,2.031,0,0,0,28.384,138.885Zm-6.083,0a2.027,2.027,0,1,0,2.03,2.029A2.029,2.029,0,0,0,22.3,138.885Zm-6.08,0a2.027,2.027,0,1,0,2.027,2.029A2.03,2.03,0,0,0,16.221,138.885Zm-6.083,0a2.027,2.027,0,1,0,2.027,2.029A2.03,2.03,0,0,0,10.138,138.885Zm423.757-4.054a2.027,2.027,0,1,0,2.027,2.025A2.028,2.028,0,0,0,433.894,134.832Zm-6.083,0a2.027,2.027,0,1,0,2.024,2.025A2.03,2.03,0,0,0,427.811,134.832Zm-6.083,0a2.027,2.027,0,1,0,2.03,2.025A2.026,2.026,0,0,0,421.728,134.832Zm-6.082,0a2.027,2.027,0,1,0,2.026,2.025A2.03,2.03,0,0,0,415.646,134.832Zm-6.083,0a2.027,2.027,0,1,0,2.029,2.025A2.028,2.028,0,0,0,409.563,134.832Zm-6.083,0a2.027,2.027,0,1,0,2.03,2.025A2.028,2.028,0,0,0,403.48,134.832Zm-365.973,0a2.027,2.027,0,1,0,2.029,2.025A2.026,2.026,0,0,0,37.508,134.832Zm-6.083,0a2.027,2.027,0,1,0,2.03,2.025A2.026,2.026,0,0,0,31.425,134.832Zm-6.077,0a2.027,2.027,0,1,0,2.024,2.025A2.029,2.029,0,0,0,25.348,134.832Zm-6.088,0a2.027,2.027,0,1,0,2.026,2.025A2.026,2.026,0,0,0,19.26,134.832Zm-6.077,0a2.027,2.027,0,1,0,2.024,2.025A2.031,2.031,0,0,0,13.183,134.832Zm-6.087,0a2.027,2.027,0,1,0,2.027,2.025A2.03,2.03,0,0,0,7.1,134.832Zm429.842-4.057a2.026,2.026,0,1,0,2.024,2.028A2.033,2.033,0,0,0,436.939,130.774Zm-6.087,0a2.026,2.026,0,1,0,2.024,2.028A2.031,2.031,0,0,0,430.852,130.774Zm-6.082,0A2.026,2.026,0,1,0,426.8,132.8,2.031,2.031,0,0,0,424.77,130.774Zm-6.083,0a2.026,2.026,0,1,0,2.029,2.028A2.028,2.028,0,0,0,418.687,130.774Zm-6.087,0a2.026,2.026,0,1,0,2.034,2.028A2.029,2.029,0,0,0,412.6,130.774Zm-6.078,0a2.026,2.026,0,1,0,2.029,2.028A2.028,2.028,0,0,0,406.522,130.774Zm-365.969,0a2.026,2.026,0,1,0,2.026,2.028A2.033,2.033,0,0,0,40.553,130.774Zm-6.087,0A2.026,2.026,0,1,0,36.5,132.8,2.028,2.028,0,0,0,34.467,130.774Zm-6.083,0a2.026,2.026,0,1,0,2.029,2.028A2.03,2.03,0,0,0,28.384,130.774Zm-6.083,0a2.026,2.026,0,1,0,2.03,2.028A2.028,2.028,0,0,0,22.3,130.774Zm-6.08,0a2.026,2.026,0,1,0,2.027,2.028A2.029,2.029,0,0,0,16.221,130.774Zm-6.083,0a2.026,2.026,0,1,0,2.027,2.028A2.029,2.029,0,0,0,10.138,130.774Zm423.757-4.054a2.027,2.027,0,1,0,2.027,2.029A2.03,2.03,0,0,0,433.894,126.721Zm-6.083,0a2.027,2.027,0,1,0,2.024,2.029A2.032,2.032,0,0,0,427.811,126.721Zm-6.083,0a2.027,2.027,0,1,0,2.03,2.029A2.029,2.029,0,0,0,421.728,126.721Zm-6.082,0a2.027,2.027,0,1,0,2.026,2.029A2.032,2.032,0,0,0,415.646,126.721Zm-6.083,0a2.027,2.027,0,1,0,2.029,2.029A2.031,2.031,0,0,0,409.563,126.721Zm-6.083,0a2.027,2.027,0,1,0,2.03,2.029A2.031,2.031,0,0,0,403.48,126.721Zm-365.973,0a2.027,2.027,0,1,0,2.029,2.029A2.029,2.029,0,0,0,37.508,126.721Zm-6.083,0a2.027,2.027,0,1,0,2.03,2.029A2.029,2.029,0,0,0,31.425,126.721Zm-6.077,0a2.027,2.027,0,1,0,2.024,2.029A2.031,2.031,0,0,0,25.348,126.721Zm-6.088,0a2.027,2.027,0,1,0,2.026,2.029A2.029,2.029,0,0,0,19.26,126.721Zm-6.077,0a2.027,2.027,0,1,0,2.024,2.029A2.034,2.034,0,0,0,13.183,126.721Zm-6.087,0a2.027,2.027,0,1,0,2.027,2.029A2.032,2.032,0,0,0,7.1,126.721Zm429.842-4.053a2.026,2.026,0,1,0,2.024,2.024A2.031,2.031,0,0,0,436.939,122.668Zm-6.087,0a2.026,2.026,0,1,0,2.024,2.024A2.029,2.029,0,0,0,430.852,122.668Zm-6.082,0a2.026,2.026,0,1,0,2.029,2.024A2.029,2.029,0,0,0,424.77,122.668Zm-6.083,0a2.026,2.026,0,1,0,2.029,2.024A2.026,2.026,0,0,0,418.687,122.668Zm-6.087,0a2.026,2.026,0,1,0,2.034,2.024A2.027,2.027,0,0,0,412.6,122.668Zm-6.078,0a2.026,2.026,0,1,0,2.029,2.024A2.026,2.026,0,0,0,406.522,122.668Zm-365.969,0a2.026,2.026,0,1,0,2.026,2.024A2.031,2.031,0,0,0,40.553,122.668Zm-6.087,0a2.026,2.026,0,1,0,2.029,2.024A2.026,2.026,0,0,0,34.467,122.668Zm-6.083,0a2.026,2.026,0,1,0,2.029,2.024A2.028,2.028,0,0,0,28.384,122.668Zm-6.083,0a2.026,2.026,0,1,0,2.03,2.024A2.026,2.026,0,0,0,22.3,122.668Zm-6.08,0a2.026,2.026,0,1,0,2.027,2.024A2.027,2.027,0,0,0,16.221,122.668Zm-6.083,0a2.026,2.026,0,1,0,2.027,2.024A2.027,2.027,0,0,0,10.138,122.668Zm423.757-4.054a2.027,2.027,0,1,0,2.027,2.025A2.028,2.028,0,0,0,433.894,118.614Zm-6.083,0a2.027,2.027,0,1,0,2.024,2.025A2.03,2.03,0,0,0,427.811,118.614Zm-6.083,0a2.027,2.027,0,1,0,2.03,2.025A2.026,2.026,0,0,0,421.728,118.614Zm-6.082,0a2.027,2.027,0,1,0,2.026,2.025A2.03,2.03,0,0,0,415.646,118.614Zm-6.083,0a2.027,2.027,0,1,0,2.029,2.025A2.028,2.028,0,0,0,409.563,118.614Zm-6.083,0a2.027,2.027,0,1,0,2.03,2.025A2.028,2.028,0,0,0,403.48,118.614Zm-365.973,0a2.027,2.027,0,1,0,2.029,2.025A2.026,2.026,0,0,0,37.508,118.614Zm-6.083,0a2.027,2.027,0,1,0,2.03,2.025A2.026,2.026,0,0,0,31.425,118.614Zm-6.077,0a2.027,2.027,0,1,0,2.024,2.025A2.029,2.029,0,0,0,25.348,118.614Zm-6.088,0a2.027,2.027,0,1,0,2.026,2.025A2.026,2.026,0,0,0,19.26,118.614Zm-6.077,0a2.027,2.027,0,1,0,2.024,2.025A2.031,2.031,0,0,0,13.183,118.614Zm-6.087,0a2.027,2.027,0,1,0,2.027,2.025A2.03,2.03,0,0,0,7.1,118.614Zm429.842-4.057a2.026,2.026,0,1,0,2.024,2.025A2.031,2.031,0,0,0,436.939,114.556Zm-6.087,0a2.026,2.026,0,1,0,2.024,2.025A2.029,2.029,0,0,0,430.852,114.556Zm-6.082,0a2.026,2.026,0,1,0,2.029,2.025A2.03,2.03,0,0,0,424.77,114.556Zm-6.083,0a2.026,2.026,0,1,0,2.029,2.025A2.026,2.026,0,0,0,418.687,114.556Zm-6.087,0a2.026,2.026,0,1,0,2.034,2.025A2.027,2.027,0,0,0,412.6,114.556Zm-6.078,0a2.026,2.026,0,1,0,2.029,2.025A2.026,2.026,0,0,0,406.522,114.556Zm-365.969,0a2.026,2.026,0,1,0,2.026,2.025A2.031,2.031,0,0,0,40.553,114.556Zm-6.087,0a2.026,2.026,0,1,0,2.029,2.025A2.026,2.026,0,0,0,34.467,114.556Zm-6.083,0a2.026,2.026,0,1,0,2.029,2.025A2.028,2.028,0,0,0,28.384,114.556Zm-6.083,0a2.026,2.026,0,1,0,2.03,2.025A2.026,2.026,0,0,0,22.3,114.556Zm-6.08,0a2.026,2.026,0,1,0,2.027,2.025A2.027,2.027,0,0,0,16.221,114.556Zm-6.083,0a2.026,2.026,0,1,0,2.027,2.025A2.027,2.027,0,0,0,10.138,114.556ZM433.894,110.5a2.027,2.027,0,1,0,2.027,2.025A2.028,2.028,0,0,0,433.894,110.5Zm-6.083,0a2.027,2.027,0,1,0,2.024,2.025A2.03,2.03,0,0,0,427.811,110.5Zm-6.083,0a2.027,2.027,0,1,0,2.03,2.025A2.026,2.026,0,0,0,421.728,110.5Zm-6.082,0a2.027,2.027,0,1,0,2.026,2.025A2.03,2.03,0,0,0,415.646,110.5Zm-6.083,0a2.027,2.027,0,1,0,2.029,2.025A2.028,2.028,0,0,0,409.563,110.5Zm-6.083,0a2.027,2.027,0,1,0,2.03,2.025A2.028,2.028,0,0,0,403.48,110.5Zm-365.973,0a2.027,2.027,0,1,0,2.029,2.025A2.026,2.026,0,0,0,37.508,110.5Zm-6.083,0a2.027,2.027,0,1,0,2.03,2.025A2.026,2.026,0,0,0,31.425,110.5Zm-6.077,0a2.027,2.027,0,1,0,2.024,2.025A2.029,2.029,0,0,0,25.348,110.5Zm-6.088,0a2.027,2.027,0,1,0,2.026,2.025A2.026,2.026,0,0,0,19.26,110.5Zm-6.077,0a2.027,2.027,0,1,0,2.024,2.025A2.031,2.031,0,0,0,13.183,110.5Zm-6.087,0a2.027,2.027,0,1,0,2.027,2.025A2.03,2.03,0,0,0,7.1,110.5Zm429.842-4.058a2.027,2.027,0,1,0,2.024,2.029A2.034,2.034,0,0,0,436.939,106.444Zm-6.087,0a2.027,2.027,0,1,0,2.024,2.029A2.031,2.031,0,0,0,430.852,106.444Zm-6.082,0a2.027,2.027,0,1,0,2.029,2.029A2.032,2.032,0,0,0,424.77,106.444Zm-6.083,0a2.027,2.027,0,1,0,2.029,2.029A2.029,2.029,0,0,0,418.687,106.444Zm-6.087,0a2.027,2.027,0,1,0,2.034,2.029A2.03,2.03,0,0,0,412.6,106.444Zm-6.078,0a2.027,2.027,0,1,0,2.029,2.029A2.029,2.029,0,0,0,406.522,106.444Zm-365.969,0a2.027,2.027,0,1,0,2.026,2.029A2.034,2.034,0,0,0,40.553,106.444Zm-6.087,0a2.027,2.027,0,1,0,2.029,2.029A2.029,2.029,0,0,0,34.467,106.444Zm-6.083,0a2.027,2.027,0,1,0,2.029,2.029A2.031,2.031,0,0,0,28.384,106.444Zm-6.083,0a2.027,2.027,0,1,0,2.03,2.029A2.029,2.029,0,0,0,22.3,106.444Zm-6.08,0a2.027,2.027,0,1,0,2.027,2.029A2.03,2.03,0,0,0,16.221,106.444Zm-6.083,0a2.027,2.027,0,1,0,2.027,2.029A2.03,2.03,0,0,0,10.138,106.444Zm423.757-4.053a2.026,2.026,0,1,0,2.027,2.029A2.03,2.03,0,0,0,433.894,102.392Zm-6.083,0a2.026,2.026,0,1,0,2.024,2.029A2.032,2.032,0,0,0,427.811,102.392Zm-6.083,0a2.026,2.026,0,1,0,2.03,2.029A2.029,2.029,0,0,0,421.728,102.392Zm-6.082,0a2.026,2.026,0,1,0,2.026,2.029A2.032,2.032,0,0,0,415.646,102.392Zm-6.083,0a2.026,2.026,0,1,0,2.029,2.029A2.031,2.031,0,0,0,409.563,102.392Zm-6.083,0a2.026,2.026,0,1,0,2.03,2.029A2.031,2.031,0,0,0,403.48,102.392Zm-365.973,0a2.026,2.026,0,1,0,2.029,2.029A2.029,2.029,0,0,0,37.508,102.392Zm-6.083,0a2.026,2.026,0,1,0,2.03,2.029A2.029,2.029,0,0,0,31.425,102.392Zm-6.077,0a2.026,2.026,0,1,0,2.024,2.029A2.032,2.032,0,0,0,25.348,102.392Zm-6.088,0a2.026,2.026,0,1,0,2.026,2.029A2.029,2.029,0,0,0,19.26,102.392Zm-6.077,0a2.026,2.026,0,1,0,2.024,2.029A2.034,2.034,0,0,0,13.183,102.392Zm-6.087,0a2.026,2.026,0,1,0,2.027,2.029A2.032,2.032,0,0,0,7.1,102.392Zm429.842-4.058a2.027,2.027,0,1,0,2.024,2.029A2.034,2.034,0,0,0,436.939,98.333Zm-6.087,0a2.027,2.027,0,1,0,2.024,2.029A2.031,2.031,0,0,0,430.852,98.333Zm-6.082,0a2.027,2.027,0,1,0,2.029,2.029A2.032,2.032,0,0,0,424.77,98.333Zm-6.083,0a2.027,2.027,0,1,0,2.029,2.029A2.029,2.029,0,0,0,418.687,98.333Zm-6.087,0a2.027,2.027,0,1,0,2.034,2.029A2.03,2.03,0,0,0,412.6,98.333Zm-6.078,0a2.027,2.027,0,1,0,2.029,2.029A2.029,2.029,0,0,0,406.522,98.333Zm-365.969,0a2.027,2.027,0,1,0,2.026,2.029A2.034,2.034,0,0,0,40.553,98.333Zm-6.087,0a2.027,2.027,0,1,0,2.029,2.029A2.029,2.029,0,0,0,34.467,98.333Zm-6.083,0a2.027,2.027,0,1,0,2.029,2.029A2.031,2.031,0,0,0,28.384,98.333Zm-6.083,0a2.027,2.027,0,1,0,2.03,2.029A2.029,2.029,0,0,0,22.3,98.333Zm-6.08,0a2.027,2.027,0,1,0,2.027,2.029A2.03,2.03,0,0,0,16.221,98.333Zm-6.083,0a2.027,2.027,0,1,0,2.027,2.029A2.03,2.03,0,0,0,10.138,98.333Zm423.757-4.054a2.027,2.027,0,1,0,2.027,2.029A2.03,2.03,0,0,0,433.894,94.279Zm-6.083,0a2.027,2.027,0,1,0,2.024,2.029A2.032,2.032,0,0,0,427.811,94.279Zm-6.083,0a2.027,2.027,0,1,0,2.03,2.029A2.029,2.029,0,0,0,421.728,94.279Zm-6.082,0a2.027,2.027,0,1,0,2.026,2.029A2.032,2.032,0,0,0,415.646,94.279Zm-6.083,0a2.027,2.027,0,1,0,2.029,2.029A2.031,2.031,0,0,0,409.563,94.279Zm-6.083,0a2.027,2.027,0,1,0,2.03,2.029A2.031,2.031,0,0,0,403.48,94.279Zm-365.973,0a2.027,2.027,0,1,0,2.029,2.029A2.029,2.029,0,0,0,37.508,94.279Zm-6.083,0a2.027,2.027,0,1,0,2.03,2.029A2.029,2.029,0,0,0,31.425,94.279Zm-6.077,0a2.027,2.027,0,1,0,2.024,2.029A2.032,2.032,0,0,0,25.348,94.279Zm-6.088,0a2.027,2.027,0,1,0,2.026,2.029A2.029,2.029,0,0,0,19.26,94.279Zm-6.077,0a2.027,2.027,0,1,0,2.024,2.029A2.034,2.034,0,0,0,13.183,94.279Zm-6.087,0a2.027,2.027,0,1,0,2.027,2.029A2.032,2.032,0,0,0,7.1,94.279Zm429.842-4.053a2.026,2.026,0,1,0,2.024,2.025A2.031,2.031,0,0,0,436.939,90.227Zm-6.087,0a2.026,2.026,0,1,0,2.024,2.025A2.029,2.029,0,0,0,430.852,90.227Zm-6.082,0a2.026,2.026,0,1,0,2.029,2.025A2.03,2.03,0,0,0,424.77,90.227Zm-6.083,0a2.026,2.026,0,1,0,2.029,2.025A2.026,2.026,0,0,0,418.687,90.227Zm-6.087,0a2.026,2.026,0,1,0,2.034,2.025A2.027,2.027,0,0,0,412.6,90.227Zm-6.078,0a2.026,2.026,0,1,0,2.029,2.025A2.026,2.026,0,0,0,406.522,90.227Zm-365.969,0a2.026,2.026,0,1,0,2.026,2.025A2.031,2.031,0,0,0,40.553,90.227Zm-6.087,0A2.026,2.026,0,1,0,36.5,92.251,2.026,2.026,0,0,0,34.467,90.227Zm-6.083,0a2.026,2.026,0,1,0,2.029,2.025A2.028,2.028,0,0,0,28.384,90.227Zm-6.083,0a2.026,2.026,0,1,0,2.03,2.025A2.026,2.026,0,0,0,22.3,90.227Zm-6.08,0a2.026,2.026,0,1,0,2.027,2.025A2.027,2.027,0,0,0,16.221,90.227Zm-6.083,0a2.026,2.026,0,1,0,2.027,2.025A2.027,2.027,0,0,0,10.138,90.227Zm423.757-4.058a2.029,2.029,0,1,0,2.027,2.029A2.03,2.03,0,0,0,433.894,86.168Zm-6.083,0a2.029,2.029,0,1,0,2.024,2.029A2.032,2.032,0,0,0,427.811,86.168Zm-6.083,0a2.029,2.029,0,1,0,2.03,2.029A2.029,2.029,0,0,0,421.728,86.168Zm-6.082,0a2.029,2.029,0,1,0,2.026,2.029A2.032,2.032,0,0,0,415.646,86.168Zm-6.083,0a2.029,2.029,0,1,0,2.029,2.029A2.031,2.031,0,0,0,409.563,86.168Zm-6.083,0a2.029,2.029,0,1,0,2.03,2.029A2.031,2.031,0,0,0,403.48,86.168Zm-365.973,0A2.029,2.029,0,1,0,39.537,88.2,2.029,2.029,0,0,0,37.508,86.168Zm-6.083,0a2.029,2.029,0,1,0,2.03,2.029A2.029,2.029,0,0,0,31.425,86.168Zm-6.077,0A2.029,2.029,0,1,0,27.372,88.2,2.032,2.032,0,0,0,25.348,86.168Zm-6.088,0A2.029,2.029,0,1,0,21.285,88.2,2.029,2.029,0,0,0,19.26,86.168Zm-6.077,0A2.029,2.029,0,1,0,15.207,88.2,2.034,2.034,0,0,0,13.183,86.168Zm-6.087,0A2.029,2.029,0,1,0,9.124,88.2,2.032,2.032,0,0,0,7.1,86.168Zm429.842-4.054a2.027,2.027,0,1,0,2.024,2.025A2.031,2.031,0,0,0,436.939,82.115Zm-6.087,0a2.027,2.027,0,1,0,2.024,2.025A2.029,2.029,0,0,0,430.852,82.115Zm-6.082,0a2.027,2.027,0,1,0,2.029,2.025A2.03,2.03,0,0,0,424.77,82.115Zm-6.083,0a2.027,2.027,0,1,0,2.029,2.025A2.026,2.026,0,0,0,418.687,82.115Zm-6.087,0a2.027,2.027,0,1,0,2.034,2.025A2.027,2.027,0,0,0,412.6,82.115Zm-6.078,0a2.027,2.027,0,1,0,2.029,2.025A2.026,2.026,0,0,0,406.522,82.115Zm-365.969,0a2.027,2.027,0,1,0,2.026,2.025A2.031,2.031,0,0,0,40.553,82.115Zm-6.087,0A2.027,2.027,0,1,0,36.5,84.139,2.026,2.026,0,0,0,34.467,82.115Zm-6.083,0a2.027,2.027,0,1,0,2.029,2.025A2.028,2.028,0,0,0,28.384,82.115Zm-6.083,0a2.027,2.027,0,1,0,2.03,2.025A2.026,2.026,0,0,0,22.3,82.115Zm-6.08,0a2.027,2.027,0,1,0,2.027,2.025A2.027,2.027,0,0,0,16.221,82.115Zm-6.083,0a2.027,2.027,0,1,0,2.027,2.025A2.027,2.027,0,0,0,10.138,82.115Zm423.757-4.053a2.026,2.026,0,1,0,2.027,2.025A2.028,2.028,0,0,0,433.894,78.062Zm-6.083,0a2.026,2.026,0,1,0,2.024,2.025A2.03,2.03,0,0,0,427.811,78.062Zm-6.083,0a2.026,2.026,0,1,0,2.03,2.025A2.026,2.026,0,0,0,421.728,78.062Zm-6.082,0a2.026,2.026,0,1,0,2.026,2.025A2.03,2.03,0,0,0,415.646,78.062Zm-6.083,0a2.026,2.026,0,1,0,2.029,2.025A2.028,2.028,0,0,0,409.563,78.062Zm-6.083,0a2.026,2.026,0,1,0,2.03,2.025A2.028,2.028,0,0,0,403.48,78.062Zm-365.973,0a2.026,2.026,0,1,0,2.029,2.025A2.026,2.026,0,0,0,37.508,78.062Zm-6.083,0a2.026,2.026,0,1,0,2.03,2.025A2.026,2.026,0,0,0,31.425,78.062Zm-6.077,0a2.026,2.026,0,1,0,2.024,2.025A2.029,2.029,0,0,0,25.348,78.062Zm-6.088,0a2.026,2.026,0,1,0,2.026,2.025A2.026,2.026,0,0,0,19.26,78.062Zm-6.077,0a2.026,2.026,0,1,0,2.024,2.025A2.031,2.031,0,0,0,13.183,78.062Zm-6.087,0a2.026,2.026,0,1,0,2.027,2.025A2.03,2.03,0,0,0,7.1,78.062ZM436.939,74a2.027,2.027,0,1,0,2.024,2.029A2.034,2.034,0,0,0,436.939,74Zm-6.087,0a2.027,2.027,0,1,0,2.024,2.029A2.031,2.031,0,0,0,430.852,74Zm-6.082,0a2.027,2.027,0,1,0,2.029,2.029A2.032,2.032,0,0,0,424.77,74Zm-6.083,0a2.027,2.027,0,1,0,2.029,2.029A2.029,2.029,0,0,0,418.687,74ZM412.6,74a2.027,2.027,0,1,0,2.034,2.029A2.03,2.03,0,0,0,412.6,74Zm-6.078,0a2.027,2.027,0,1,0,2.029,2.029A2.029,2.029,0,0,0,406.522,74ZM40.553,74a2.027,2.027,0,1,0,2.026,2.029A2.034,2.034,0,0,0,40.553,74Zm-6.087,0A2.027,2.027,0,1,0,36.5,76.032,2.029,2.029,0,0,0,34.467,74Zm-6.083,0a2.027,2.027,0,1,0,2.029,2.029A2.031,2.031,0,0,0,28.384,74ZM22.3,74a2.027,2.027,0,1,0,2.03,2.029A2.029,2.029,0,0,0,22.3,74Zm-6.08,0a2.027,2.027,0,1,0,2.027,2.029A2.03,2.03,0,0,0,16.221,74Zm-6.083,0a2.027,2.027,0,1,0,2.027,2.029A2.03,2.03,0,0,0,10.138,74ZM433.894,69.95a2.026,2.026,0,1,0,2.027,2.029A2.03,2.03,0,0,0,433.894,69.95Zm-6.083,0a2.026,2.026,0,1,0,2.024,2.029A2.032,2.032,0,0,0,427.811,69.95Zm-6.083,0a2.026,2.026,0,1,0,2.03,2.029A2.029,2.029,0,0,0,421.728,69.95Zm-6.082,0a2.026,2.026,0,1,0,2.026,2.029A2.032,2.032,0,0,0,415.646,69.95Zm-6.083,0a2.026,2.026,0,1,0,2.029,2.029A2.031,2.031,0,0,0,409.563,69.95Zm-6.083,0a2.026,2.026,0,1,0,2.03,2.029A2.031,2.031,0,0,0,403.48,69.95Zm-365.973,0a2.026,2.026,0,1,0,2.029,2.029A2.029,2.029,0,0,0,37.508,69.95Zm-6.083,0a2.026,2.026,0,1,0,2.03,2.029A2.029,2.029,0,0,0,31.425,69.95Zm-6.077,0a2.026,2.026,0,1,0,2.024,2.029A2.031,2.031,0,0,0,25.348,69.95Zm-6.088,0a2.026,2.026,0,1,0,2.026,2.029A2.029,2.029,0,0,0,19.26,69.95Zm-6.077,0a2.026,2.026,0,1,0,2.024,2.029A2.034,2.034,0,0,0,13.183,69.95Zm-6.087,0A2.026,2.026,0,1,0,9.124,71.98,2.032,2.032,0,0,0,7.1,69.95Zm429.842-4.057a2.026,2.026,0,1,0,2.024,2.028A2.033,2.033,0,0,0,436.939,65.893Zm-6.087,0a2.026,2.026,0,1,0,2.024,2.028A2.031,2.031,0,0,0,430.852,65.893Zm-6.082,0a2.026,2.026,0,1,0,2.029,2.028A2.031,2.031,0,0,0,424.77,65.893Zm-6.083,0a2.026,2.026,0,1,0,2.029,2.028A2.028,2.028,0,0,0,418.687,65.893Zm-6.087,0a2.026,2.026,0,1,0,2.034,2.028A2.029,2.029,0,0,0,412.6,65.893Zm-6.078,0a2.026,2.026,0,1,0,2.029,2.028A2.028,2.028,0,0,0,406.522,65.893Zm-365.969,0a2.026,2.026,0,1,0,2.026,2.028A2.033,2.033,0,0,0,40.553,65.893Zm-6.087,0A2.026,2.026,0,1,0,36.5,67.921,2.028,2.028,0,0,0,34.467,65.893Zm-6.083,0a2.026,2.026,0,1,0,2.029,2.028A2.03,2.03,0,0,0,28.384,65.893Zm-6.083,0a2.026,2.026,0,1,0,2.03,2.028A2.028,2.028,0,0,0,22.3,65.893Zm-6.08,0a2.026,2.026,0,1,0,2.027,2.028A2.029,2.029,0,0,0,16.221,65.893Zm-6.083,0a2.026,2.026,0,1,0,2.027,2.028A2.029,2.029,0,0,0,10.138,65.893Zm423.757-4.054a2.027,2.027,0,1,0,2.027,2.029A2.03,2.03,0,0,0,433.894,61.839Zm-6.083,0a2.027,2.027,0,1,0,2.024,2.029A2.032,2.032,0,0,0,427.811,61.839Zm-6.083,0a2.027,2.027,0,1,0,2.03,2.029A2.029,2.029,0,0,0,421.728,61.839Zm-6.082,0a2.027,2.027,0,1,0,2.026,2.029A2.032,2.032,0,0,0,415.646,61.839Zm-6.083,0a2.027,2.027,0,1,0,2.029,2.029A2.031,2.031,0,0,0,409.563,61.839Zm-6.083,0a2.027,2.027,0,1,0,2.03,2.029A2.031,2.031,0,0,0,403.48,61.839Zm-365.973,0a2.027,2.027,0,1,0,2.029,2.029A2.029,2.029,0,0,0,37.508,61.839Zm-6.083,0a2.027,2.027,0,1,0,2.03,2.029A2.029,2.029,0,0,0,31.425,61.839Zm-6.077,0a2.027,2.027,0,1,0,2.024,2.029A2.032,2.032,0,0,0,25.348,61.839Zm-6.088,0a2.027,2.027,0,1,0,2.026,2.029A2.029,2.029,0,0,0,19.26,61.839Zm-6.077,0a2.027,2.027,0,1,0,2.024,2.029A2.034,2.034,0,0,0,13.183,61.839Zm-6.087,0a2.027,2.027,0,1,0,2.027,2.029A2.032,2.032,0,0,0,7.1,61.839Zm429.842-4.054a2.027,2.027,0,1,0,2.024,2.025A2.031,2.031,0,0,0,436.939,57.786Zm-6.087,0a2.027,2.027,0,1,0,2.024,2.025A2.029,2.029,0,0,0,430.852,57.786Zm-6.082,0A2.027,2.027,0,1,0,426.8,59.81,2.03,2.03,0,0,0,424.77,57.786Zm-6.083,0a2.027,2.027,0,1,0,2.029,2.025A2.026,2.026,0,0,0,418.687,57.786Zm-6.087,0a2.027,2.027,0,1,0,2.034,2.025A2.027,2.027,0,0,0,412.6,57.786Zm-6.078,0a2.027,2.027,0,1,0,2.029,2.025A2.026,2.026,0,0,0,406.522,57.786Zm-365.969,0a2.027,2.027,0,1,0,2.026,2.025A2.031,2.031,0,0,0,40.553,57.786Zm-6.087,0A2.027,2.027,0,1,0,36.5,59.81,2.026,2.026,0,0,0,34.467,57.786Zm-6.083,0a2.027,2.027,0,1,0,2.029,2.025A2.028,2.028,0,0,0,28.384,57.786Zm-6.083,0a2.027,2.027,0,1,0,2.03,2.025A2.026,2.026,0,0,0,22.3,57.786Zm-6.08,0a2.027,2.027,0,1,0,2.027,2.025A2.027,2.027,0,0,0,16.221,57.786Zm-6.083,0a2.027,2.027,0,1,0,2.027,2.025A2.027,2.027,0,0,0,10.138,57.786Zm423.757-4.054a2.027,2.027,0,1,0,2.027,2.025A2.028,2.028,0,0,0,433.894,53.732Zm-6.083,0a2.027,2.027,0,1,0,2.024,2.025A2.03,2.03,0,0,0,427.811,53.732Zm-6.083,0a2.027,2.027,0,1,0,2.03,2.025A2.026,2.026,0,0,0,421.728,53.732Zm-6.082,0a2.027,2.027,0,1,0,2.026,2.025A2.03,2.03,0,0,0,415.646,53.732Zm-6.083,0a2.027,2.027,0,1,0,2.029,2.025A2.028,2.028,0,0,0,409.563,53.732Zm-6.083,0a2.027,2.027,0,1,0,2.03,2.025A2.028,2.028,0,0,0,403.48,53.732Zm-365.973,0a2.027,2.027,0,1,0,2.029,2.025A2.026,2.026,0,0,0,37.508,53.732Zm-6.083,0a2.027,2.027,0,1,0,2.03,2.025A2.026,2.026,0,0,0,31.425,53.732Zm-6.077,0a2.027,2.027,0,1,0,2.024,2.025A2.029,2.029,0,0,0,25.348,53.732Zm-6.088,0a2.027,2.027,0,1,0,2.026,2.025A2.026,2.026,0,0,0,19.26,53.732Zm-6.077,0a2.027,2.027,0,1,0,2.024,2.025A2.031,2.031,0,0,0,13.183,53.732Zm-6.087,0a2.027,2.027,0,1,0,2.027,2.025A2.03,2.03,0,0,0,7.1,53.732Zm429.842-4.057a2.027,2.027,0,1,0,2.024,2.025A2.031,2.031,0,0,0,436.939,49.674Zm-6.087,0a2.027,2.027,0,1,0,2.024,2.025A2.029,2.029,0,0,0,430.852,49.674Zm-6.082,0A2.027,2.027,0,1,0,426.8,51.7,2.03,2.03,0,0,0,424.77,49.674Zm-6.083,0a2.027,2.027,0,1,0,2.029,2.025A2.026,2.026,0,0,0,418.687,49.674Zm-6.087,0a2.027,2.027,0,1,0,2.034,2.025A2.027,2.027,0,0,0,412.6,49.674Zm-6.078,0a2.027,2.027,0,1,0,2.029,2.025A2.026,2.026,0,0,0,406.522,49.674Zm-365.969,0A2.027,2.027,0,1,0,42.579,51.7,2.031,2.031,0,0,0,40.553,49.674Zm-6.087,0A2.027,2.027,0,1,0,36.5,51.7,2.026,2.026,0,0,0,34.467,49.674Zm-6.083,0A2.027,2.027,0,1,0,30.413,51.7,2.028,2.028,0,0,0,28.384,49.674Zm-6.083,0a2.027,2.027,0,1,0,2.03,2.025A2.026,2.026,0,0,0,22.3,49.674Zm-6.08,0A2.027,2.027,0,1,0,18.248,51.7,2.027,2.027,0,0,0,16.221,49.674Zm-6.083,0A2.027,2.027,0,1,0,12.165,51.7,2.027,2.027,0,0,0,10.138,49.674Zm423.757-4.054a2.027,2.027,0,1,0,2.027,2.029A2.03,2.03,0,0,0,433.894,45.621Zm-6.083,0a2.027,2.027,0,1,0,2.024,2.029A2.032,2.032,0,0,0,427.811,45.621Zm-6.083,0a2.027,2.027,0,1,0,2.03,2.029A2.029,2.029,0,0,0,421.728,45.621Zm-6.082,0a2.027,2.027,0,1,0,2.026,2.029A2.032,2.032,0,0,0,415.646,45.621Zm-6.083,0a2.027,2.027,0,1,0,2.029,2.029A2.031,2.031,0,0,0,409.563,45.621Zm-6.083,0a2.027,2.027,0,1,0,2.03,2.029A2.031,2.031,0,0,0,403.48,45.621Zm-365.973,0a2.027,2.027,0,1,0,2.029,2.029A2.029,2.029,0,0,0,37.508,45.621Zm-6.083,0a2.027,2.027,0,1,0,2.03,2.029A2.029,2.029,0,0,0,31.425,45.621Zm-6.077,0a2.027,2.027,0,1,0,2.024,2.029A2.032,2.032,0,0,0,25.348,45.621Zm-6.088,0a2.027,2.027,0,1,0,2.026,2.029A2.029,2.029,0,0,0,19.26,45.621Zm-6.077,0a2.027,2.027,0,1,0,2.024,2.029A2.034,2.034,0,0,0,13.183,45.621Zm-6.087,0A2.027,2.027,0,1,0,9.124,47.65,2.032,2.032,0,0,0,7.1,45.621Zm429.842-4.058a2.027,2.027,0,1,0,2.024,2.029A2.034,2.034,0,0,0,436.939,41.562Zm-6.087,0a2.027,2.027,0,1,0,2.024,2.029A2.031,2.031,0,0,0,430.852,41.562Zm-6.082,0a2.027,2.027,0,1,0,2.029,2.029A2.032,2.032,0,0,0,424.77,41.562Zm-6.083,0a2.027,2.027,0,1,0,2.029,2.029A2.029,2.029,0,0,0,418.687,41.562Zm-6.087,0a2.027,2.027,0,1,0,2.034,2.029A2.03,2.03,0,0,0,412.6,41.562Zm-6.078,0a2.027,2.027,0,1,0,2.029,2.029A2.029,2.029,0,0,0,406.522,41.562Zm-365.969,0a2.027,2.027,0,1,0,2.026,2.029A2.034,2.034,0,0,0,40.553,41.562Zm-6.087,0A2.027,2.027,0,1,0,36.5,43.591,2.029,2.029,0,0,0,34.467,41.562Zm-6.083,0a2.027,2.027,0,1,0,2.029,2.029A2.031,2.031,0,0,0,28.384,41.562Zm-6.083,0a2.027,2.027,0,1,0,2.03,2.029A2.029,2.029,0,0,0,22.3,41.562Zm-6.08,0a2.027,2.027,0,1,0,2.027,2.029A2.03,2.03,0,0,0,16.221,41.562Zm-6.083,0a2.027,2.027,0,1,0,2.027,2.029A2.03,2.03,0,0,0,10.138,41.562Zm423.757-4.053a2.026,2.026,0,1,0,2.027,2.029A2.03,2.03,0,0,0,433.894,37.509Zm-6.083,0a2.026,2.026,0,1,0,2.024,2.029A2.032,2.032,0,0,0,427.811,37.509Zm-6.083,0a2.026,2.026,0,1,0,2.03,2.029A2.029,2.029,0,0,0,421.728,37.509Zm-6.082,0a2.026,2.026,0,1,0,2.026,2.029A2.032,2.032,0,0,0,415.646,37.509Zm-6.083,0a2.026,2.026,0,1,0,2.029,2.029A2.031,2.031,0,0,0,409.563,37.509Zm-6.083,0a2.026,2.026,0,1,0,2.03,2.029A2.031,2.031,0,0,0,403.48,37.509Zm-365.973,0a2.026,2.026,0,1,0,2.029,2.029A2.029,2.029,0,0,0,37.508,37.509Zm-6.083,0a2.026,2.026,0,1,0,2.03,2.029A2.029,2.029,0,0,0,31.425,37.509Zm-6.077,0a2.026,2.026,0,1,0,2.024,2.029A2.032,2.032,0,0,0,25.348,37.509Zm-6.088,0a2.026,2.026,0,1,0,2.026,2.029A2.029,2.029,0,0,0,19.26,37.509Zm-6.077,0a2.026,2.026,0,1,0,2.024,2.029A2.034,2.034,0,0,0,13.183,37.509Zm-6.087,0a2.026,2.026,0,1,0,2.027,2.029A2.032,2.032,0,0,0,7.1,37.509Zm429.842-4.058a2.027,2.027,0,1,0,2.024,2.029A2.034,2.034,0,0,0,436.939,33.451Zm-6.087,0a2.027,2.027,0,1,0,2.024,2.029A2.031,2.031,0,0,0,430.852,33.451Zm-6.082,0A2.027,2.027,0,1,0,426.8,35.48,2.032,2.032,0,0,0,424.77,33.451Zm-6.083,0a2.027,2.027,0,1,0,2.029,2.029A2.029,2.029,0,0,0,418.687,33.451Zm-6.087,0a2.027,2.027,0,1,0,2.034,2.029A2.03,2.03,0,0,0,412.6,33.451Zm-6.078,0a2.027,2.027,0,1,0,2.029,2.029A2.029,2.029,0,0,0,406.522,33.451Zm-365.969,0a2.027,2.027,0,1,0,2.026,2.029A2.034,2.034,0,0,0,40.553,33.451Zm-6.087,0A2.027,2.027,0,1,0,36.5,35.48,2.029,2.029,0,0,0,34.467,33.451Zm-6.083,0a2.027,2.027,0,1,0,2.029,2.029A2.031,2.031,0,0,0,28.384,33.451Zm-6.083,0a2.027,2.027,0,1,0,2.03,2.029A2.029,2.029,0,0,0,22.3,33.451Zm-6.08,0a2.027,2.027,0,1,0,2.027,2.029A2.03,2.03,0,0,0,16.221,33.451Zm-6.083,0a2.027,2.027,0,1,0,2.027,2.029A2.03,2.03,0,0,0,10.138,33.451ZM433.894,29.4a2.026,2.026,0,1,0,2.027,2.028A2.03,2.03,0,0,0,433.894,29.4Zm-6.083,0a2.026,2.026,0,1,0,2.024,2.028A2.031,2.031,0,0,0,427.811,29.4Zm-6.083,0a2.026,2.026,0,1,0,2.03,2.028A2.028,2.028,0,0,0,421.728,29.4Zm-6.082,0a2.026,2.026,0,1,0,2.026,2.028A2.031,2.031,0,0,0,415.646,29.4Zm-6.083,0a2.026,2.026,0,1,0,2.029,2.028A2.03,2.03,0,0,0,409.563,29.4Zm-6.083,0a2.026,2.026,0,1,0,2.03,2.028A2.03,2.03,0,0,0,403.48,29.4Zm-365.973,0a2.026,2.026,0,1,0,2.029,2.028A2.028,2.028,0,0,0,37.508,29.4Zm-6.083,0a2.026,2.026,0,1,0,2.03,2.028A2.028,2.028,0,0,0,31.425,29.4Zm-6.077,0a2.026,2.026,0,1,0,2.024,2.028A2.031,2.031,0,0,0,25.348,29.4Zm-6.088,0a2.026,2.026,0,1,0,2.026,2.028A2.028,2.028,0,0,0,19.26,29.4Zm-6.077,0a2.026,2.026,0,1,0,2.024,2.028A2.033,2.033,0,0,0,13.183,29.4ZM7.1,29.4a2.026,2.026,0,1,0,2.027,2.028A2.031,2.031,0,0,0,7.1,29.4Zm429.842-4.054a2.027,2.027,0,1,0,2.024,2.025A2.031,2.031,0,0,0,436.939,25.344Zm-6.087,0a2.027,2.027,0,1,0,2.024,2.025A2.029,2.029,0,0,0,430.852,25.344Zm-6.082,0a2.027,2.027,0,1,0,2.029,2.025A2.03,2.03,0,0,0,424.77,25.344Zm-6.083,0a2.027,2.027,0,1,0,2.029,2.025A2.026,2.026,0,0,0,418.687,25.344Zm-6.087,0a2.027,2.027,0,1,0,2.034,2.025A2.027,2.027,0,0,0,412.6,25.344Zm-6.078,0a2.027,2.027,0,1,0,2.029,2.025A2.026,2.026,0,0,0,406.522,25.344Zm-365.969,0a2.027,2.027,0,1,0,2.026,2.025A2.031,2.031,0,0,0,40.553,25.344Zm-6.087,0A2.027,2.027,0,1,0,36.5,27.369,2.026,2.026,0,0,0,34.467,25.344Zm-6.083,0a2.027,2.027,0,1,0,2.029,2.025A2.028,2.028,0,0,0,28.384,25.344Zm-6.083,0a2.027,2.027,0,1,0,2.03,2.025A2.026,2.026,0,0,0,22.3,25.344Zm-6.08,0a2.027,2.027,0,1,0,2.027,2.025A2.027,2.027,0,0,0,16.221,25.344Zm-6.083,0a2.027,2.027,0,1,0,2.027,2.025A2.027,2.027,0,0,0,10.138,25.344Zm423.757-4.053a2.026,2.026,0,1,0,2.027,2.024A2.027,2.027,0,0,0,433.894,21.292Zm-6.083,0a2.026,2.026,0,1,0,2.024,2.024A2.029,2.029,0,0,0,427.811,21.292Zm-6.083,0a2.026,2.026,0,1,0,2.03,2.024A2.026,2.026,0,0,0,421.728,21.292Zm-6.082,0a2.026,2.026,0,1,0,2.026,2.024A2.029,2.029,0,0,0,415.646,21.292Zm-6.083,0a2.026,2.026,0,1,0,2.029,2.024A2.028,2.028,0,0,0,409.563,21.292Zm-6.083,0a2.026,2.026,0,1,0,2.03,2.024A2.028,2.028,0,0,0,403.48,21.292Zm-365.973,0a2.026,2.026,0,1,0,2.029,2.024A2.026,2.026,0,0,0,37.508,21.292Zm-6.083,0a2.026,2.026,0,1,0,2.03,2.024A2.026,2.026,0,0,0,31.425,21.292Zm-6.077,0a2.026,2.026,0,1,0,2.024,2.024A2.029,2.029,0,0,0,25.348,21.292Zm-6.088,0a2.026,2.026,0,1,0,2.026,2.024A2.026,2.026,0,0,0,19.26,21.292Zm-6.077,0a2.026,2.026,0,1,0,2.024,2.024A2.031,2.031,0,0,0,13.183,21.292Zm-6.087,0a2.026,2.026,0,1,0,2.027,2.024A2.029,2.029,0,0,0,7.1,21.292Zm429.842-4.058a2.027,2.027,0,1,0,2.024,2.025A2.031,2.031,0,0,0,436.939,17.233Zm-6.087,0a2.027,2.027,0,1,0,2.024,2.025A2.029,2.029,0,0,0,430.852,17.233Zm-6.082,0a2.027,2.027,0,1,0,2.029,2.025A2.03,2.03,0,0,0,424.77,17.233Zm-6.083,0a2.027,2.027,0,1,0,2.029,2.025A2.026,2.026,0,0,0,418.687,17.233Zm-6.087,0a2.027,2.027,0,1,0,2.034,2.025A2.027,2.027,0,0,0,412.6,17.233Zm-6.078,0a2.027,2.027,0,1,0,2.029,2.025A2.026,2.026,0,0,0,406.522,17.233Zm-365.969,0a2.027,2.027,0,1,0,2.026,2.025A2.031,2.031,0,0,0,40.553,17.233Zm-6.087,0A2.027,2.027,0,1,0,36.5,19.258,2.026,2.026,0,0,0,34.467,17.233Zm-6.083,0a2.027,2.027,0,1,0,2.029,2.025A2.028,2.028,0,0,0,28.384,17.233Zm-6.083,0a2.027,2.027,0,1,0,2.03,2.025A2.026,2.026,0,0,0,22.3,17.233Zm-6.08,0a2.027,2.027,0,1,0,2.027,2.025A2.027,2.027,0,0,0,16.221,17.233Zm-6.083,0a2.027,2.027,0,1,0,2.027,2.025A2.027,2.027,0,0,0,10.138,17.233ZM433.894,13.18a2.026,2.026,0,1,0,2.027,2.028A2.03,2.03,0,0,0,433.894,13.18Zm-6.083,0a2.026,2.026,0,1,0,2.024,2.028A2.031,2.031,0,0,0,427.811,13.18Zm-6.083,0a2.026,2.026,0,1,0,2.03,2.028A2.028,2.028,0,0,0,421.728,13.18Zm-6.082,0a2.026,2.026,0,1,0,2.026,2.028A2.031,2.031,0,0,0,415.646,13.18Zm-6.083,0a2.026,2.026,0,1,0,2.029,2.028A2.03,2.03,0,0,0,409.563,13.18Zm-6.083,0a2.026,2.026,0,1,0,2.03,2.028A2.03,2.03,0,0,0,403.48,13.18Zm-365.973,0a2.026,2.026,0,1,0,2.029,2.028A2.028,2.028,0,0,0,37.508,13.18Zm-6.083,0a2.026,2.026,0,1,0,2.03,2.028A2.028,2.028,0,0,0,31.425,13.18Zm-6.077,0a2.026,2.026,0,1,0,2.024,2.028A2.031,2.031,0,0,0,25.348,13.18Zm-6.088,0a2.026,2.026,0,1,0,2.026,2.028A2.028,2.028,0,0,0,19.26,13.18Zm-6.077,0a2.026,2.026,0,1,0,2.024,2.028A2.033,2.033,0,0,0,13.183,13.18Zm-6.087,0a2.026,2.026,0,1,0,2.027,2.028A2.031,2.031,0,0,0,7.1,13.18ZM436.939,9.122a2.027,2.027,0,1,0,2.024,2.029A2.034,2.034,0,0,0,436.939,9.122Zm-6.087,0a2.027,2.027,0,1,0,2.024,2.029A2.031,2.031,0,0,0,430.852,9.122Zm-6.082,0a2.027,2.027,0,1,0,2.029,2.029A2.032,2.032,0,0,0,424.77,9.122Zm-6.083,0a2.027,2.027,0,1,0,2.029,2.029A2.029,2.029,0,0,0,418.687,9.122Zm-6.087,0a2.027,2.027,0,1,0,2.034,2.029A2.03,2.03,0,0,0,412.6,9.122Zm-6.078,0a2.027,2.027,0,1,0,2.029,2.029A2.029,2.029,0,0,0,406.522,9.122Zm-365.969,0a2.027,2.027,0,1,0,2.026,2.029A2.034,2.034,0,0,0,40.553,9.122Zm-6.087,0A2.027,2.027,0,1,0,36.5,11.151,2.029,2.029,0,0,0,34.467,9.122Zm-6.083,0a2.027,2.027,0,1,0,2.029,2.029A2.031,2.031,0,0,0,28.384,9.122Zm-6.083,0a2.027,2.027,0,1,0,2.03,2.029A2.029,2.029,0,0,0,22.3,9.122Zm-6.08,0a2.027,2.027,0,1,0,2.027,2.029A2.03,2.03,0,0,0,16.221,9.122Zm-6.083,0a2.027,2.027,0,1,0,2.027,2.029A2.03,2.03,0,0,0,10.138,9.122ZM433.894,5.068A2.027,2.027,0,1,0,435.922,7.1,2.03,2.03,0,0,0,433.894,5.068Zm-6.083,0A2.027,2.027,0,1,0,429.835,7.1,2.032,2.032,0,0,0,427.811,5.068Zm-6.083,0a2.027,2.027,0,1,0,2.03,2.029A2.029,2.029,0,0,0,421.728,5.068Zm-6.082,0A2.027,2.027,0,1,0,417.672,7.1,2.032,2.032,0,0,0,415.646,5.068Zm-6.083,0A2.027,2.027,0,1,0,411.593,7.1,2.031,2.031,0,0,0,409.563,5.068Zm-6.083,0a2.027,2.027,0,1,0,2.03,2.029A2.031,2.031,0,0,0,403.48,5.068Zm-365.973,0A2.027,2.027,0,1,0,39.537,7.1,2.029,2.029,0,0,0,37.508,5.068Zm-6.083,0A2.027,2.027,0,1,0,33.455,7.1,2.029,2.029,0,0,0,31.425,5.068Zm-6.077,0A2.027,2.027,0,1,0,27.372,7.1,2.032,2.032,0,0,0,25.348,5.068Zm-6.088,0A2.027,2.027,0,1,0,21.285,7.1,2.029,2.029,0,0,0,19.26,5.068Zm-6.077,0A2.027,2.027,0,1,0,15.207,7.1,2.034,2.034,0,0,0,13.183,5.068Zm-6.087,0A2.027,2.027,0,1,0,9.124,7.1,2.032,2.032,0,0,0,7.1,5.068Z" transform="translate(15570.303 6305.313)" fill="url(#linear-gradient)"/>
    <path id="Icon_awesome-sim-card" data-name="Icon awesome-sim-card" d="M0,4.562V31.934A4.566,4.566,0,0,0,4.562,36.5H22.81a4.566,4.566,0,0,0,4.562-4.562V9.124L18.248,0H4.562A4.566,4.566,0,0,0,0,4.562ZM15.967,18.248H11.4V13.686h4.562Zm6.843,0H18.248V13.686h2.281a2.279,2.279,0,0,1,2.281,2.281Zm-4.562,9.124H22.81v2.281a2.279,2.279,0,0,1-2.281,2.281H18.248Zm-6.843,0h4.562v4.562H11.4Zm-6.843,0H9.124v4.562H6.843a2.279,2.279,0,0,1-2.281-2.281Zm0-6.843H22.81v4.562H4.562Zm0-4.562a2.279,2.279,0,0,1,2.281-2.281H9.124v4.562H4.562Z" transform="translate(15640.433 6418.316) rotate(-90)" opacity="0.58"/>
  </g>
</svg>
