<svg xmlns="http://www.w3.org/2000/svg" width="24.308" height="24.309" viewBox="0 0 24.308 24.309">
    <g id="safety-belt">
        <g id="Сгруппировать_189" data-name="Сгруппировать 189" transform="translate(20.075 0)">
            <g id="Сгруппировать_188" data-name="Сгруппировать 188">
                <rect id="Прямоугольник_117" data-name="Прямоугольник 117" width="2.524" height="3.463"
                      transform="translate(0 1.785) rotate(-45)" fill="#fff"/>
            </g>
        </g>
        <g id="Сгруппировать_191" data-name="Сгруппировать 191" transform="translate(12.417 0.77)">
            <g id="Сгруппировать_190" data-name="Сгруппировать 190">
                <path id="Контур_70" data-name="Контур 70"
                      d="M266,16.231l-2.678,2.678a.775.775,0,0,0-.163.24l-1.546,3.576a.775.775,0,0,0,.163.856l3.544,3.544a.775.775,0,0,0,.856.163l3.576-1.546a.775.775,0,0,0,.24-.163l2.678-2.678Z"
                      transform="translate(-261.548 -16.231)" fill="#fff"/>
            </g>
        </g>
        <g id="Сгруппировать_193" data-name="Сгруппировать 193" transform="translate(0.671 17.884)">
            <g id="Сгруппировать_192" data-name="Сгруппировать 192" transform="translate(0 0)">
                <rect id="Прямоугольник_118" data-name="Прямоугольник 118" width="4.673" height="3.463"
                      transform="translate(0 3.304) rotate(-45)" fill="#fff"/>
            </g>
        </g>
        <g id="Сгруппировать_195" data-name="Сгруппировать 195" transform="translate(0 10.697)">
            <g id="Сгруппировать_194" data-name="Сгруппировать 194" transform="translate(0)">
                <path id="Контур_71" data-name="Контур 71"
                      d="M13.612,230.072a1.534,1.534,0,0,0-.452-1.092L9.95,225.77a1.544,1.544,0,0,0-2.184,0L5.832,227.7l-1.977-.041a.77.77,0,0,0-.564.227L.228,230.953a.775.775,0,0,0,0,1.1l1.007,1.007,2.194-2.194a.775.775,0,0,1,1.1,0l3.544,3.544a.775.775,0,0,1,0,1.1L5.875,237.7,6.881,238.7a.775.775,0,0,0,1.1,0l3.063-3.063a.775.775,0,0,0,.227-.564l-.041-1.977,1.934-1.934A1.534,1.534,0,0,0,13.612,230.072Zm-3.143.5a.775.775,0,0,1-1.1,0l-1.017-1.017a.775.775,0,0,1,1.1-1.1l1.017,1.017A.775.775,0,0,1,10.469,230.574Z"
                      transform="translate(-0.001 -225.318)" fill="#fff"/>
            </g>
        </g>
    </g>
</svg>
