<svg xmlns="http://www.w3.org/2000/svg" width="23.084" height="23.084" viewBox="0 0 23.084 23.084">
  <path id="Icon_metro-plus" data-name="Icon metro-plus" d="M24.933,10.584H17V2.649a.721.721,0,0,0-.721-.721H11.948a.721.721,0,0,0-.721.721v7.935H3.292a.721.721,0,0,0-.721.721v4.328a.721.721,0,0,0,.721.721h7.935V24.29a.721.721,0,0,0,.721.721h4.328A.721.721,0,0,0,17,24.29V16.355h7.935a.721.721,0,0,0,.721-.721V11.306A.721.721,0,0,0,24.933,10.584Z" transform="translate(-2.571 -1.928)" opacity="0.5"/>
</svg>
