<svg xmlns="http://www.w3.org/2000/svg" width="29.252" height="32.917" viewBox="0 0 29.252 32.917">
  <path id="Объединение_29" data-name="Объединение 29" d="M-3934.671-704.933a12.583,12.583,0,0,1-4.022-2.693,12.825,12.825,0,0,1-2.684-4.021,12.272,12.272,0,0,1-1-4.9,12.271,12.271,0,0,1,1-4.9,12.829,12.829,0,0,1,2.684-4.022,12.617,12.617,0,0,1,4.022-2.693,12.305,12.305,0,0,1,4.892-1,12.284,12.284,0,0,1,4.875.977,12.552,12.552,0,0,1,4.031,2.736l-2.957,2.956a8.3,8.3,0,0,0-2.7-1.8,8.352,8.352,0,0,0-3.248-.642,8.093,8.093,0,0,0-5.939,2.455,8.093,8.093,0,0,0-2.455,5.939,8.1,8.1,0,0,0,2.455,5.94,8.093,8.093,0,0,0,5.939,2.455,8.353,8.353,0,0,0,3.248-.642,8.309,8.309,0,0,0,2.7-1.8l2.957,2.992a12.547,12.547,0,0,1-4.04,2.711,12.4,12.4,0,0,1-4.866.967A12.287,12.287,0,0,1-3934.671-704.933Zm2.112-8.869a3.744,3.744,0,0,1-1.144-2.746,3.735,3.735,0,0,1,1.144-2.754,3.76,3.76,0,0,1,2.745-1.135,3.752,3.752,0,0,1,2.754,1.135,3.748,3.748,0,0,1,1.135,2.754,3.758,3.758,0,0,1-1.135,2.746,3.738,3.738,0,0,1-2.754,1.144A3.746,3.746,0,0,1-3932.56-713.8Zm-13.04-12.73v-3.523h-3.321v-2.314h3.321v-3.478h2.337v3.478h3.479v2.314h-3.479v3.523Z" transform="translate(3949.421 736.347)" fill="#eaeaea" stroke="rgba(0,0,0,0)" stroke-miterlimit="10" stroke-width="1"/>
</svg>
