<svg xmlns="http://www.w3.org/2000/svg" xmlns:xlink="http://www.w3.org/1999/xlink" width="50" height="50" viewBox="0 0 50 50">
  <defs>
    <clipPath id="clip-path">
      <rect id="Прямоугольник_2079" data-name="Прямоугольник 2079" width="50" height="50" transform="translate(-7770 -6073)" opacity="0.5"/>
    </clipPath>
  </defs>
  <g id="Группа_масок_85" data-name="Группа масок 85" transform="translate(7770 6073)" clip-path="url(#clip-path)">
    <g id="Сгруппировать_2866" data-name="Сгруппировать 2866" transform="matrix(0.809, -0.588, 0.588, 0.809, -7772.145, -6037.728)">
      <path id="Контур_2969" data-name="Контур 2969" d="M0,5.466c.229-.223.258-.75.546-.863a2.773,2.773,0,0,1,1.025-.237c4.661.016,9.322.011,14.053.011a17.482,17.482,0,0,1,1.618-2.7,2.489,2.489,0,0,1,1.733-.346q5.977,0,11.954,0A2.186,2.186,0,0,0,31.44.295C33.527.1,35.513.179,35.965.489c.17-.324.435-.249.689-.25h6.491l.319.606c-.023.4.344.766.11,1.334h6.5l.357.537v1.74a1.038,1.038,0,0,0,.965.585c1.158-.027,2.318-.01,3.482-.01A16.653,16.653,0,0,0,55.5,2.705,21.973,21.973,0,0,0,55.527.019c.634.1,1.27-.217,1.889.226V5h.833V7.63h-.9c-.141.184-.056.38-.089.571l-.52.749H43.685a3.493,3.493,0,0,1-.314,1.139c-.167.2-.471.171-.775.171-2.415,0-4.83,0-7.3,0a1.353,1.353,0,0,1-.7.647H32.826l-.342-.606-.025-.669H30.483a7.963,7.963,0,0,0,.264,2.826A20.067,20.067,0,0,0,31.371,15a11.969,11.969,0,0,0,1.165,2.653,1.86,1.86,0,0,1,.388.739,9.669,9.669,0,0,0,1.544,1.937,1.54,1.54,0,0,1-.142,1.168c-.711,1.424-1.267,3-1.936,4.46-.065.143-.21.2-.205.417H31.75a19.1,19.1,0,0,1-1.88-2.493c-.21-.35-.437-.677-.665-1a13.024,13.024,0,0,1-1.495-2.993,33.307,33.307,0,0,1-1.846-7.254c-.092.674.033,1.439-.425,1.958h-.762l-.455-.484c-.03-.253.04-.45-.085-.588-.034.052-.064.144-.1.15a26.15,26.15,0,0,1-2.747.077c-.4-.356-.823-.534-1.055-1.116a14.287,14.287,0,0,0-1.142,1.922,6.547,6.547,0,0,0-.5,2.071,3.637,3.637,0,0,0,.279,1.532c-.19.221-.157.628-.406.816a9.833,9.833,0,0,1-1.206-.165,5.22,5.22,0,0,0-1.318-.53c-.289-.02-.553-.379-.727-.851a3.816,3.816,0,0,1-.122-1.241L16.854,9.7c-.237-.174-.431-.093-.616-.093-2.415-.008-4.829.012-7.244-.016a2.332,2.332,0,0,0-1.913.978,7.093,7.093,0,0,1-.65.771c-1.088.974-2.023,2.266-3.065,3.333-.36.369-.7.782-1.046,1.177-.386.442-.865.381-1.235.773l-.772-.572c-.136-.282-.081-.745-.312-1V13.962c.041-.026.119-.053.117-.076-.026-.95.116-1.875.174-2.812C.362,9.94.082,8.849.117,7.72.119,7.7.041,7.67,0,7.645Zm1.758,8.1,4.45-4.838a7.362,7.362,0,0,1,.157-1.921H2.079L1.758,7.3Zm30.848-8.28H15.817v.361H32.606Zm10.9.8H57.833V5.72H43.507ZM17.851,1.991,17.1,3.114c0,.038.03.121.134.2.277-.171.428-.61.687-.9q6.481,0,13-.005c.035,0,.068-.079.1-.122,0-.1.017-.219-.072-.3ZM43.506,7.827H56.818V7.463H43.506ZM6.941,7.342c.259-.383.508-.754.753-1.129a.991.991,0,0,1,.866-.536c1.638.017,3.276.007,4.914.007h1.115a.405.405,0,0,0-.018-.436c-2.023,0-4.045.01-6.068-.011a.924.924,0,0,0-.781.308c-.346.424-.643.94-.946,1.4ZM22.329,10.57c.107.394.48.281.55.712a.392.392,0,0,0-.068.475h.911l.176-.265V9.624H22.526C22.46,9.956,22.25,10.209,22.329,10.57ZM43.044.93h-6.5V1.29h6.5Zm-6.47,1.45h6.443a.435.435,0,0,0,0-.361H36.576A.435.435,0,0,0,36.574,2.379ZM7.366,5.287H.923l-.386.282c.105.065.147.113.188.113,1.95,0,3.9-.008,5.85.016C6.847,5.7,7.02,5.484,7.366,5.287ZM49.872,3.179a44.848,44.848,0,0,0-6.38,0c.011.1-.031.221.108.34,2.053-.106,4.163.135,6.271-.128C49.874,3.391,49.872,3.324,49.872,3.179ZM31.3,3.541H27.027c-.222.264-.6.355-.652.919.058.128.131.167.2.129a.645.645,0,0,0,.163-.194.959.959,0,0,1,.888-.461c1.223.021,2.445.008,3.679.008Zm5.078,1.676.554.91c.158-.062.338.111.472-.124-.009-.106.021-.224-.062-.3l-.394-.066-.46-.788H33.061l.012.364Zm-4.44-3.928H35.36V.924H31.786c-.053.267-.36.321-.326.695.047.16.123.142.231.146Zm-14.673,8.5h3.15l-.35-.361h-2.8Zm11.9,0h.687V9.423h-1a4.577,4.577,0,0,0,.034,1.058c.1-.018.174.041.232-.1Z" fill="#eaeaea" stroke="rgba(0,0,0,0)" stroke-width="1"/>
    </g>
  </g>
</svg>
