<svg xmlns="http://www.w3.org/2000/svg" xmlns:xlink="http://www.w3.org/1999/xlink" width="60.506" height="70.163" viewBox="0 0 60.506 70.163">
  <g transform="matrix(1, 0, 0, 1, 0, 0)" fill="#000000" opacity=".5">
    <path id="Объединение_100-2" data-name="Объединение 100" d="M2018.593,4905.976l-1.591-3.059c-.021-.042-.046-.081-.073-.13a.167.167,0,0,0-.03.122c-.035.378-.067.756-.1,1.135-.01.1-.012.22-.156.224s-.153-.113-.172-.215c-.073-.388-.145-.774-.22-1.161a.225.225,0,0,0-.057-.15c-.081.091-.16.181-.243.268q-1.237,1.33-2.475,2.657c-.066.071-.137.127-.231.064s-.08-.158-.022-.246l.906-1.389,1.166-1.792c.01-.013.017-.029.041-.071l-.206.069c-.346.122-.692.242-1.037.365-.087.031-.172.039-.224-.051s-.007-.164.07-.228c.334-.273.664-.552,1.013-.842l-.544-.146-3.286-.873a.982.982,0,0,1-.121-.04.137.137,0,0,1-.08-.15.135.135,0,0,1,.115-.127.576.576,0,0,1,.139,0l3.493.235.18.01-.507-.774q-.68-1.029-1.357-2.058c-.014-.02-.025-.041-.038-.059a.151.151,0,0,1,0-.217c.07-.069.144-.048.218,0,.228.142.457.282.685.422l.567.351a9.455,9.455,0,0,1-.345-1.267,4.137,4.137,0,0,1,2.085-4.738,14.756,14.756,0,0,1,1.8-.861c.255-.107.517-.218.772-.333l.011,0a3.663,3.663,0,0,0,1.281-.808,1.254,1.254,0,0,0,.267-1.042,1.855,1.855,0,0,0-.782-1.272,4.7,4.7,0,0,0-2.119-.551c-.032,0-.058,0-.084,0a.205.205,0,0,0-.151.043.3.3,0,0,0-.051.212,1.259,1.259,0,0,1-1.205,1.315c-1.219.082-2.463.139-3.663.2h-.03l-.725.034-3.238.15h-.049l-3.192.149q-1.561.073-3.121.15l-.037,0q-1.271.061-2.541.122c-.9.044-3.771.085-6.812.127h-.006c-3.255.045-6.619.095-7.6.147l-.059,0a.24.24,0,0,1-.177-.05c-.044-.044-.052-.118-.05-.235.007-2.122.006-4.274,0-6.4,0-.1.012-.146.041-.175a.166.166,0,0,1,.123-.033l.052,0c.369.021,2.608.036,4.68.051-.217.855-.539,2.954,1.124,3.983,2.194,1.357,3.739,1.709,7.516,1.709,3.854,0,5.63-.383,7.912-1.709a3.264,3.264,0,0,0,1.457-3.353l.576.028.421.022c1.159.057,2.328.12,3.461.179,1.216.065,2.476.132,3.722.194a1.345,1.345,0,0,1,1.442,1.432,7.627,7.627,0,0,1,1.734.2,3.646,3.646,0,0,1,3.052,2.871,2.769,2.769,0,0,1-.6,2.567,5.818,5.818,0,0,1-1.953,1.313c-.267.125-.544.239-.811.352a10.961,10.961,0,0,0-1.613.782,2.432,2.432,0,0,0-1.228,2.766,7.352,7.352,0,0,0,.269,1.06l.589,1.124c.18-.307.349-.6.517-.885q.691-1.191,1.381-2.384c.053-.09.119-.155.228-.1s.091.139.063.231q-.478,1.507-.954,3.014c-.015.047-.027.1-.053.184l.727-.655q1.538-1.393,3.078-2.787c.153-.138.307-.276.458-.416.074-.07.153-.1.235-.026s.052.16-.009.237l-1.641,2.075-1.991,2.516c-.038.047-.073.1-.127.172l1.868-.228,1.891-.23a.934.934,0,0,1,.1-.01.141.141,0,0,1,.149.106.143.143,0,0,1-.079.177,1.581,1.581,0,0,1-.185.066l-3,1a.3.3,0,0,0-.149.07l.811.431c.133.07.265.143.4.209.091.045.172.1.133.213s-.144.109-.249.086c-.537-.12-1.074-.237-1.612-.355-.054-.012-.11-.021-.195-.037.207.279.4.539.59.8q1.393,1.879,2.789,3.755c.063.084.1.171.01.249s-.171.028-.246-.043l-3.675-3.488c-.037-.036-.076-.069-.124-.112a.26.26,0,0,0,.035.164l1.145,3.284c.038.108.108.236-.051.3a.184.184,0,0,1-.068.015C2018.673,4906.163,2018.635,4906.057,2018.593,4905.976Zm-3.556-2.592a2.814,2.814,0,0,0,1.118-1.478A3.259,3.259,0,0,0,2015.037,4903.384Zm4.105-.393a5.33,5.33,0,0,0-1.614-1.737A4.541,4.541,0,0,0,2019.142,4902.991Zm-1.755-.367a1.349,1.349,0,0,0-.52-1.052A1.171,1.171,0,0,0,2017.388,4902.624Zm-39.542-10.126c-.244-.084-.243-.308-.241-.525v-.052q0-1.852,0-3.706,0-3.708,0-7.418a.612.612,0,0,1,.115-.435.329.329,0,0,1,.153-.083,1.6,1.6,0,0,1,.412-.064.777.777,0,0,1,.456.134.556.556,0,0,1,.144.473v2.079q0,3.018,0,6.038c0,.736.006,1.484.01,2.207v.007q0,.414,0,.827v.027c0,.18,0,.363-.167.456a.947.947,0,0,1-.453.108A1.4,1.4,0,0,1,1977.846,4892.5Zm-4.057-1.878a5.757,5.757,0,0,1-1.753-3.6,5.834,5.834,0,0,1,1.689-4.739,5.713,5.713,0,0,1,3.067-1.605.806.806,0,0,1,.135-.015c.161,0,.19.092.19.3,0,1.777,0,3.583,0,5.329l0,1.775q0,.99,0,1.985v.038q0,1.055,0,2.122h0A5.637,5.637,0,0,1,1973.789,4890.62Zm5.617,1.389c-.032-.033-.033-.1-.032-.183,0-.287,0-.578,0-.859v-1.575c0-2.719,0-5.53,0-8.292,0-.121.007-.193.042-.23a.108.108,0,0,1,.076-.024.5.5,0,0,1,.171.039,6.856,6.856,0,0,1,1.79.956,1.079,1.079,0,0,1,.473.962c-.021,2.309-.009,4.657,0,6.927l0,.482c0,.211-.017.463-.156.541a6.575,6.575,0,0,1-2.182,1.256.415.415,0,0,1-.121.025A.083.083,0,0,1,1979.406,4892.009Zm2.8-1.4c0-2.407,0-4.984,0-8.354a.391.391,0,0,1,.07-.276.131.131,0,0,1,.1-.038.481.481,0,0,1,.223.075c.259.142.517.294.767.441.111.066.223.13.334.2a.368.368,0,0,1,.182.366c0,2.044,0,4.279,0,6.83a.409.409,0,0,1-.121.344l-.357.2c-.261.151-.532.308-.8.453a.546.546,0,0,1-.233.079C1982.25,4890.932,1982.2,4890.835,1982.2,4890.613Zm15.751-4.364a1.036,1.036,0,0,0-.107-.51c-.057.352-.121.7-.166,1.058-.065.52-.138,1.011-.875.833-.564-.137-1.4.127-1.253-.969a11.473,11.473,0,0,0,.011-1.5c-.325.523-.19,1.1-.351,1.617-.128.408-.3.573-.723.427a5.324,5.324,0,0,0-.672-.188c-.7-.143-1.106-.448-.609-1.349-.456.222-.537.756-.9.687a3.941,3.941,0,0,1-.967-.478.991.991,0,0,1-.525-1.167,4.516,4.516,0,0,0-.047-2.52c-.255-.582.509-.463.77-.735a5.042,5.042,0,0,0-2.078.176,3.149,3.149,0,0,1-3.651-1.4,5.405,5.405,0,0,0-1.606-1.644,1.655,1.655,0,0,1-.532-2.032,15.213,15.213,0,0,1,2.188-4.189,6.553,6.553,0,0,0,.31-6.477,9.364,9.364,0,0,1-1.572,6.594c-.144-.634-.268-1.14-.377-1.649a24.138,24.138,0,0,0-1.038-3.659c-.937-2.448-.374-4.845.453-7.214,1.883-5.389,5.924-8.183,11.324-9.019a16.372,16.372,0,0,1,14.9,4.75c2.42,2.464,3.006,5.546,2.573,8.879-.264,2.039-1.124,3.953-1.267,6.016a2,2,0,0,1-.048.309c-.06.268.084.712-.182.772-.358.082-.5-.363-.672-.631a6.375,6.375,0,0,1-.832-4.264,5.6,5.6,0,0,0-.011,4.212,22.473,22.473,0,0,0,1.873,3.047,9.973,9.973,0,0,1,1.141,2.71,1.121,1.121,0,0,1-.135.972,15.387,15.387,0,0,1-2.906,3.331,2.466,2.466,0,0,1-2.605.447,4.207,4.207,0,0,0-2.247-.214c.72.305.746.681.514,1.15a2.065,2.065,0,0,0-.02,1.662,1.883,1.883,0,0,1-1.569,2.567c-.546.073-.712-.435-1.041-.706-.19.095-.128.271-.1.4.127.641-.219.852-.776.992-.613.155-.87-.139-1.036-.639a6.93,6.93,0,0,0-.513-1.287c.039.512.075,1.026.122,1.538.041.442-.12.649-.595.7-.383.04-.672.07-.89.07C1997.962,4887.719,1997.957,4887.432,1997.953,4886.249Zm2.325-3.976a1.337,1.337,0,0,0,.282-1.707c-.506-1-.819-2.066-1.268-3.082-.127-.287-.18-.778-.564-.739-.321.031-.233.513-.352.785-.033.07-.049.149-.079.221-.069.17-.135.352-.356.361-.254.01-.374-.176-.436-.375-.1-.318-.165-.644-.246-.966l-.22-.08a25.082,25.082,0,0,0-1.869,3.848,1.836,1.836,0,0,0,1.3,2.115c.867.241,1.176-.41,1.495-1.015.019-.029.07-.043.1-.064C1998.774,4882.935,1999.357,4883.118,2000.278,4882.273Zm-11.353-11.452a2.076,2.076,0,0,0-1.444,2.016c0,1.09.006,2.183.107,3.267.116,1.288.632,1.719,1.945,1.676a15.43,15.43,0,0,0,3.235-.426,4.137,4.137,0,0,0,3.456-4.408,1.339,1.339,0,0,0-.815-1.362,11.514,11.514,0,0,0-4.446-1.085h-.156A4.911,4.911,0,0,0,1988.925,4870.821Zm11.534.782a1.175,1.175,0,0,0-.736.931,4.513,4.513,0,0,0,2.184,4.246,10.4,10.4,0,0,0,4.844.936c1.217.014,1.57-.422,1.7-1.665.063-.62.092-1.243.126-1.7,0-.451,0-.737,0-1.024a2.461,2.461,0,0,0-2.524-2.813c-.282-.023-.563-.034-.841-.034A11.021,11.021,0,0,0,2000.459,4871.6Zm13.58,4.16a1.345,1.345,0,0,1-.267-.9c0-.666,0-1.348,0-2.008v-.558c0-.659,0-1.332,0-2,0-2.348,0-4.871.012-7.5,0-.746.2-1.2.627-1.44a16.454,16.454,0,0,0-1.987-5.153,1.485,1.485,0,0,1-.688-.6,17.037,17.037,0,0,0-11.88-6.843,21.325,21.325,0,0,0-2.4-.141,16.944,16.944,0,0,0-13.06,6h0a.006.006,0,0,0,0,.006,16.628,16.628,0,0,0-3.055,6.77,1.859,1.859,0,0,1,.518,1.546c.005,2.728.009,4.824.009,7,0,1.459,0,2.869-.009,4.7a1.43,1.43,0,0,1-.31,1.06,1.449,1.449,0,0,1-.974.531q-.078.007-.155.007a1.31,1.31,0,0,1-.3-.032,1.153,1.153,0,0,1-1.07-1.23s0-.01,0-.016a.061.061,0,0,0,0-.02v-3.193a6.615,6.615,0,0,0-.458,1.884c-.133.46-.238.68-.478.68a1.414,1.414,0,0,1-.579-.2,3.908,3.908,0,0,1-1.783-2.175.862.862,0,0,0-.575-.575c-.759-.259-.8-.939-.837-1.6l0-.047a2.972,2.972,0,0,0-.131-.76v-1.185c.154-.045.206-.173.186-.453a2.343,2.343,0,0,1,.023-.444,2.83,2.83,0,0,0,.03-.357c-.009-.617.281-.938.861-.952.284-.008.427-.113.478-.352a3.521,3.521,0,0,1,2.234-2.461.871.871,0,0,0,.607-.728,17.444,17.444,0,0,1,2.508-6.887,17.62,17.62,0,0,1,5.11-5.289,20.035,20.035,0,0,1,7.531-3.441,18.722,18.722,0,0,1,7.964.025,18.467,18.467,0,0,1,3.861,1.313,18.84,18.84,0,0,1,10.587,11.711,3.693,3.693,0,0,1,.195.633c.228,1.387.548,2.572,2.171,3.05a2.571,2.571,0,0,1,1.56,1.951c.086.362.217.472.577.486h.037a.78.78,0,0,1,.781.745v.022a24.023,24.023,0,0,1,.1,3.814,1.631,1.631,0,0,1-.316.962c-.188.235-.35.343-.509.343s-.341-.127-.533-.4a4.751,4.751,0,0,1-1.459,2.662,3.132,3.132,0,0,1-.41.308,1.652,1.652,0,0,1-.72.267c-.278,0-.428-.231-.537-.824-.058-.321-.107-.651-.154-.969l0-.011a16.919,16.919,0,0,0-.39-2.03v4.446a1.182,1.182,0,0,1-.857,1.3,1.518,1.518,0,0,1-.513.09A1.487,1.487,0,0,1,2014.039,4875.762Z" transform="translate(-1966.99 -4842)" stroke="rgba(0,0,0,0)" stroke-width="1"/>
  </g>
</svg>