<svg xmlns="http://www.w3.org/2000/svg" width="36.551" height="48.735" viewBox="0 0 36.551 48.735">
  <path id="Icon_awesome-fist-raised" data-name="Icon awesome-fist-raised" d="M24.366,15.23V1.523A1.523,1.523,0,0,0,22.843,0H19.8a1.523,1.523,0,0,0-1.523,1.523V15.509a4.527,4.527,0,0,1,1.52-.279Zm12.184,9.137a6.092,6.092,0,0,0-6.091-6.091H19.784a1.51,1.51,0,0,0-1.513,1.509v.053a4.53,4.53,0,0,0,4.528,4.53h3.356c.921,0,1.256.341,1.256.761v1.542a.782.782,0,0,1-.75.761c-4.238.217-6.107,2.352-9.143,6.906l-.6.9a.761.761,0,0,1-1.056.211L14.6,34.606a.761.761,0,0,1-.211-1.056l.6-.9a26.94,26.94,0,0,1,4.5-5.528,6.124,6.124,0,0,1-3.7-3.279,4.512,4.512,0,0,1-2.082.525H10.661a4.536,4.536,0,0,1-3.046-1.188,4.536,4.536,0,0,1-3.046,1.189H1.523A4.5,4.5,0,0,1,0,24.087V31.5A12.182,12.182,0,0,0,3.569,40.12l2.522,2.523v6.092H30.457V42.647l3.418-3.419a9.141,9.141,0,0,0,2.677-6.464ZM33.5,15.791V4.569A1.523,1.523,0,0,0,31.98,3.046H28.934a1.523,1.523,0,0,0-1.523,1.523V15.23h3.046a9.02,9.02,0,0,1,3.046.562Zm-31.98,5.53H4.569A1.523,1.523,0,0,0,6.092,19.8V7.615A1.523,1.523,0,0,0,4.569,6.092H1.523A1.523,1.523,0,0,0,0,7.615V19.8A1.523,1.523,0,0,0,1.523,21.322Zm9.137,0h3.046A1.523,1.523,0,0,0,15.229,19.8V4.569a1.523,1.523,0,0,0-1.523-1.523H10.66A1.523,1.523,0,0,0,9.137,4.569V19.8a1.523,1.523,0,0,0,1.523,1.523Z" opacity="0.5"/>
</svg>
