<svg xmlns="http://www.w3.org/2000/svg" width="30" height="30" viewBox="0 0 30 30">
  <path id="Контур_743" data-name="Контур 743" d="M29.7,21.961a15.2,15.2,0,0,0-7.2-1.967c-.4,0-.806.016-1.2.04a19.61,19.61,0,0,0,2.709-1.752,20.2,20.2,0,0,0,5.963-8.727.627.627,0,0,0-.117-.6.64.64,0,0,0-.569-.214,17.348,17.348,0,0,0-8.325,4.236,26.869,26.869,0,0,0-2.841,3.064,19.385,19.385,0,0,0,.634-4.8A21.972,21.972,0,0,0,15.522.264a.649.649,0,0,0-1.045,0A21.971,21.971,0,0,0,11.25,11.239a19.386,19.386,0,0,0,.634,4.8A26.858,26.858,0,0,0,9.042,12.98,17.347,17.347,0,0,0,.717,8.744a.644.644,0,0,0-.569.214.627.627,0,0,0-.117.6,20.2,20.2,0,0,0,5.963,8.727A19.615,19.615,0,0,0,8.7,20.034c-.4-.024-.8-.04-1.2-.04A15.2,15.2,0,0,0,.3,21.961a.626.626,0,0,0,0,1.071A15.424,15.424,0,0,0,7.5,25a11.176,11.176,0,0,0,2.528-.313,5.48,5.48,0,0,0-1.277,3.467.625.625,0,0,0,.624.6.635.635,0,0,0,.178-.026A9.456,9.456,0,0,0,13.6,26.031a9.16,9.16,0,0,0,.778-1.053v4.4a.625.625,0,1,0,1.25,0v-4.4a9.154,9.154,0,0,0,.778,1.053,9.457,9.457,0,0,0,4.044,2.692.635.635,0,0,0,.178.026.625.625,0,0,0,.624-.6,5.479,5.479,0,0,0-1.282-3.473A11.073,11.073,0,0,0,22.5,25a15.2,15.2,0,0,0,7.2-1.967.626.626,0,0,0,0-1.069Z" fill="#eaeaea"/>
</svg>
