<svg xmlns="http://www.w3.org/2000/svg" width="39.703" height="31.763" viewBox="0 0 39.703 31.763">
  <path id="Icon_awesome-crown" data-name="Icon awesome-crown" d="M32.755,27.792H6.948a1,1,0,0,0-.993.993V30.77a1,1,0,0,0,.993.993H32.755a1,1,0,0,0,.993-.993V28.785A1,1,0,0,0,32.755,27.792Zm3.97-19.852a2.979,2.979,0,0,0-2.978,2.978,2.917,2.917,0,0,0,.273,1.228l-4.491,2.692a1.983,1.983,0,0,1-2.742-.72L21.731,5.273a2.978,2.978,0,1,0-3.759,0L12.916,14.12a1.984,1.984,0,0,1-2.742.72L5.689,12.147A2.977,2.977,0,1,0,2.978,13.9a3.041,3.041,0,0,0,.478-.05L7.941,25.807H31.763l4.485-11.961a3.041,3.041,0,0,0,.478.05,2.978,2.978,0,1,0,0-5.956Z" opacity="0.5"/>
</svg>
