<svg xmlns="http://www.w3.org/2000/svg" width="29.998" height="30.002" viewBox="0 0 29.998 30.002">
  <path id="Объединение_141" data-name="Объединение 141" d="M-16422.838-3537.176a14.936,14.936,0,0,1-4.768-3.217,14.9,14.9,0,0,1-3.215-4.768A14.922,14.922,0,0,1-16432-3551a14.921,14.921,0,0,1,1.18-5.838,14.892,14.892,0,0,1,3.215-4.768,14.894,14.894,0,0,1,4.768-3.214,14.91,14.91,0,0,1,5.84-1.18,14.9,14.9,0,0,1,5.838,1.18,14.95,14.95,0,0,1,4.766,3.214,14.924,14.924,0,0,1,3.215,4.768A14.919,14.919,0,0,1-16402-3551a14.921,14.921,0,0,1-1.178,5.839,14.932,14.932,0,0,1-3.215,4.768,14.952,14.952,0,0,1-4.766,3.217A14.938,14.938,0,0,1-16417-3536,14.947,14.947,0,0,1-16422.838-3537.176Zm5.84-1.13a12.706,12.706,0,0,0,12.689-12.693,12.632,12.632,0,0,0-2.76-7.893l-17.824,17.826A12.629,12.629,0,0,0-16417-3538.306Zm-12.693-12.693a12.63,12.63,0,0,0,2.76,7.893l17.824-17.825a12.624,12.624,0,0,0-7.891-2.761A12.707,12.707,0,0,0-16429.691-3551Z" transform="translate(16432 3566)" opacity="0.5"/>
</svg>
