<svg xmlns="http://www.w3.org/2000/svg" xmlns:xlink="http://www.w3.org/1999/xlink" width="32.447" height="41.262" viewBox="0 0 32.447 41.262">
  <defs>
    <filter id="Icon_awesome-fist-raised" x="0" y="0" width="32.447" height="41.262" filterUnits="userSpaceOnUse">
      <feOffset dy="1" input="SourceAlpha"/>
      <feGaussianBlur stdDeviation="1" result="blur"/>
      <feFlood flood-opacity="0.749"/>
      <feComposite operator="in" in2="blur"/>
      <feComposite in="SourceGraphic"/>
    </filter>
  </defs>
  <g transform="matrix(1, 0, 0, 1, 0, 0)" filter="url(#Icon_awesome-fist-raised)">
    <path id="Icon_awesome-fist-raised-2" data-name="Icon awesome-fist-raised" d="M17.63,11.02V1.1a1.1,1.1,0,0,0-1.1-1.1h-2.2a1.1,1.1,0,0,0-1.1,1.1V11.221a3.276,3.276,0,0,1,1.1-.2Zm8.816,6.611a4.408,4.408,0,0,0-4.407-4.407H14.315a1.092,1.092,0,0,0-1.1,1.092v.039A3.278,3.278,0,0,0,16.5,17.631h2.428c.667,0,.909.247.909.551V19.3a.566.566,0,0,1-.543.551c-3.066.157-4.419,1.7-6.615,5l-.435.652a.551.551,0,0,1-.764.153l-.917-.612a.551.551,0,0,1-.153-.764l.435-.652a19.492,19.492,0,0,1,3.258-4,4.431,4.431,0,0,1-2.677-2.373,3.264,3.264,0,0,1-1.506.38h-2.2a3.282,3.282,0,0,1-2.2-.86,3.282,3.282,0,0,1-2.2.86H1.1a3.255,3.255,0,0,1-1.1-.2V22.8a8.814,8.814,0,0,0,2.582,6.234l1.825,1.826v4.408h17.63V30.857l2.473-2.474a6.614,6.614,0,0,0,1.937-4.677Zm-2.2-6.2V3.306a1.1,1.1,0,0,0-1.1-1.1h-2.2a1.1,1.1,0,0,0-1.1,1.1V11.02h2.2a6.526,6.526,0,0,1,2.2.406Zm-23.139,4h2.2a1.1,1.1,0,0,0,1.1-1.1V5.51a1.1,1.1,0,0,0-1.1-1.1H1.1A1.1,1.1,0,0,0,0,5.51v8.816A1.1,1.1,0,0,0,1.1,15.427Zm6.611,0h2.2a1.1,1.1,0,0,0,1.1-1.1V3.306a1.1,1.1,0,0,0-1.1-1.1h-2.2a1.1,1.1,0,0,0-1.1,1.1v11.02a1.1,1.1,0,0,0,1.1,1.1Z" transform="translate(3 2)" fill="#fff"/>
  </g>
</svg>
