<svg xmlns="http://www.w3.org/2000/svg" xmlns:xlink="http://www.w3.org/1999/xlink" width="54.771" height="63.605" viewBox="0 0 54.771 63.605">
  <defs>
    <filter id="Объединение_130" x="0" y="0" width="54.771" height="54.772" filterUnits="userSpaceOnUse">
      <feOffset dy="1" input="SourceAlpha"/>
      <feGaussianBlur stdDeviation="1.5" result="blur"/>
      <feFlood/>
      <feComposite operator="in" in2="blur"/>
      <feComposite in="SourceGraphic"/>
    </filter>
    <filter id="Вычитание_170" x="9.405" y="25.927" width="35.953" height="37.678" filterUnits="userSpaceOnUse">
      <feOffset dy="1" input="SourceAlpha"/>
      <feGaussianBlur stdDeviation="1.5" result="blur-2"/>
      <feFlood/>
      <feComposite operator="in" in2="blur-2"/>
      <feComposite in="SourceGraphic"/>
    </filter>
  </defs>
  <g id="Сгруппировать_2556" data-name="Сгруппировать 2556" transform="translate(-635.13 -371.379)">
    <g id="Page-1" transform="translate(685.906 397.986) rotate(135)">
      <g id="_033---Knife" data-name="033---Knife" transform="translate(0 0.717)">
        <g transform="matrix(-0.71, -0.71, 0.71, -0.71, 17.09, 54)" filter="url(#Объединение_130)">
          <path id="Объединение_130-2" data-name="Объединение 130" d="M-23180.84-11811.453a2.153,2.153,0,0,1-2.059-2.061,3.579,3.579,0,0,1,.506-1.553,7.56,7.56,0,0,0,3.654,1.263,9.275,9.275,0,0,0,1.053.058,7.677,7.677,0,0,0,2-.244c-.035.093-.076.187-.105.279-.514,1.459-2.5,2.322-4.246,2.322A4.846,4.846,0,0,1-23180.84-11811.453Zm2.223-3.521a6.164,6.164,0,0,1-3.17-1.111c.373-.57.832-1.2,1.361-1.867.006-.006.012-.018.018-.023a103.849,103.849,0,0,1,9.832-10.286l3.775,4.218a25.437,25.437,0,0,0-8.086,8.378,4.436,4.436,0,0,1-2.814.74A8.9,8.9,0,0,1-23178.617-11814.974Zm.426-2.3a.592.592,0,0,0,.594.588.59.59,0,0,0,.588-.588.59.59,0,0,0-.588-.588A.591.591,0,0,0-23178.191-11817.277Zm7.068-7.063a.586.586,0,0,0,.588.588.586.586,0,0,0,.588-.588.591.591,0,0,0-.588-.594A.591.591,0,0,0-23171.123-11824.341Zm5.748.122-4.334-4.835a.59.59,0,0,1,.047-.832l.879-.785a.6.6,0,0,1,.424-.151.608.608,0,0,1,.408.2l4.328,4.835a.568.568,0,0,1,.15.425.581.581,0,0,1-.2.407l-.873.785a.6.6,0,0,1-.395.149A.579.579,0,0,1-23165.375-11824.219Zm1.781-3.3,4.375-3.206a19.438,19.438,0,0,0,7.959-12.387l.238-.151a.6.6,0,0,1,.635.018.594.594,0,0,1,.25.576,20.74,20.74,0,0,1-8.385,12.9c-1.75,1.285-3.152,2.31-4.281,3.136Zm-3.416-3.816a101.994,101.994,0,0,1,14.371-10.915,18.472,18.472,0,0,1-7.277,10.577l-4.469,3.276Z" transform="translate(-24717.03 8044.37) rotate(135)" fill="#fff"/>
        </g>
      </g>
    </g>
    <g transform="matrix(1, 0, 0, 1, 635.13, 371.38)" filter="url(#Вычитание_170)">
      <path id="Вычитание_170-2" data-name="Вычитание 170" d="M12.475,28.678H10.4V24.384H8.317v3.475L5.474,21.647A11.677,11.677,0,0,1,0,11.995C0,5.381,6.046,0,13.477,0S26.953,5.381,26.953,11.995a11.671,11.671,0,0,1-5.476,9.653l-2.764,6.04v-3.3H16.634v4.293H14.555V24.384H12.475v4.294Zm1-10.5a1.108,1.108,0,0,0-1.067.757l-.518,1.533a1.076,1.076,0,0,0,.156.992,1.119,1.119,0,0,0,.912.457h1.035a1.116,1.116,0,0,0,.91-.456,1.075,1.075,0,0,0,.156-.993l-.517-1.533A1.106,1.106,0,0,0,13.476,18.183Zm6.859-5.672a3.251,3.251,0,0,0-1.09.3h0c-.173.064-.359.132-.568.206l-.271.1a7.611,7.611,0,0,0-2.85,1.35c-.307.464.029,2.235.6,3.157.546.883.918.893.934.893a.485.485,0,0,0,.1.008,4.828,4.828,0,0,0,1.488-.363l.338-.119a7.251,7.251,0,0,0,3.4-1.957,2.139,2.139,0,0,0-.175-2.5A2.138,2.138,0,0,0,21,12.632,2.541,2.541,0,0,0,20.335,12.511Zm-13.715,0a2.515,2.515,0,0,0-.667.121,2.1,2.1,0,0,0-1.235.953,2.132,2.132,0,0,0-.176,2.5,7.244,7.244,0,0,0,3.4,1.956l.341.12a4.812,4.812,0,0,0,1.485.363.6.6,0,0,0,.093-.006c.041,0,.418-.044.944-.895.57-.923.905-2.693.6-3.157a7.6,7.6,0,0,0-2.85-1.349l-.271-.1-.568-.206h0A3.255,3.255,0,0,0,6.62,12.511Z" transform="translate(13.9 29.43)" fill="#fff"/>
    </g>
  </g>
</svg>
