<svg xmlns="http://www.w3.org/2000/svg" xmlns:xlink="http://www.w3.org/1999/xlink" width="60.058" height="73.057"
     viewBox="0 0 60.058 73.057">
    <g transform="matrix(1, 0, 0, 1, 0, 0)" fill="#000000" opacity=".5">
        <path id="Объединение_91-2" data-name="Объединение 91"
              d="M1993.006,4905a4.036,4.036,0,0,1,.15-1.09,10.182,10.182,0,0,1,2.05-.875,2.666,2.666,0,1,0,3.6,0,10.151,10.151,0,0,1,2.045.873,3.957,3.957,0,0,1,.15,1.09,4,4,0,1,1-8,0Zm-1.723-1.6a.73.73,0,0,1-.213-.039,3.921,3.921,0,0,1-1.917-1.5,5.868,5.868,0,0,1-1.262-3.434,2.323,2.323,0,0,1,1.12-2.108,7.793,7.793,0,0,1,3.245-1.183h.01c.267-.041.478-.07.451-.448a21.087,21.087,0,0,0-3.276-10.467,11.79,11.79,0,0,0-4.372-4.006.84.84,0,0,0-.291-.123c-.049,0-.073.046-.09.118a26.632,26.632,0,0,0-.991,3.97c0,1.078,4.7,1.963,5.92,2a19.611,19.611,0,0,1,1.881,5.469c.111.563.184,1.14.257,1.7.024.2.051.4.077.605.041.3-.053.427-.346.482a8.641,8.641,0,0,0-2.292.8l-.015.01-.014.007a.3.3,0,0,1-.136.049c-.051,0-.092-.036-.128-.121a7.753,7.753,0,0,0-2.813-3.044c-.545-.4-1.117-.772-1.67-1.137l-.041-.026h-.007c-.535-.352-1.085-.715-1.614-1.1a4.246,4.246,0,0,1-1.767-3.276,15.929,15.929,0,0,1,.322-5.205.236.236,0,0,0-.01-.2c-.039-.056-.119-.07-.235-.078a10.065,10.065,0,0,1-8.469-6.257c-.012-.034-.024-.07-.039-.1a1.023,1.023,0,0,1-.094-.45l.153.063.1.039a3.82,3.82,0,0,0,.863.273,5.862,5.862,0,0,0,.952.075,10.365,10.365,0,0,0,2.067-.244,1.376,1.376,0,0,1,.2-.022c.189-.017.385-.028.417-.184.027-.126-.143-.209-.3-.286a1.243,1.243,0,0,1-.2-.1,10.034,10.034,0,0,1-4.287-5.7,10.56,10.56,0,0,1-.327-4.377,8.5,8.5,0,0,1,6.994-7.054,6.088,6.088,0,0,1,1.226-.139,2.778,2.778,0,0,1,.33.013,6.034,6.034,0,0,0-2.845,4.015,5.69,5.69,0,0,0,4.217,6.858l.119.029a14.052,14.052,0,0,1,.048-2.283,15.386,15.386,0,0,1,1.054-4.313,6.229,6.229,0,0,1,.279-.571l.029-.059c.039-.075.075-.146.112-.221.08.424.126.846.172,1.251a9.192,9.192,0,0,0,.39,2.064,4.75,4.75,0,0,0,.71,1.449,1.35,1.35,0,0,0,1.078.579,1.448,1.448,0,0,0,.456-.075,1.419,1.419,0,0,0,1.078-1.32,7.894,7.894,0,0,0-.334-2.482c-.053-.218-.116-.465-.167-.71-.029-.136-.061-.271-.09-.4a8.762,8.762,0,0,1-.266-3.8,4.43,4.43,0,0,1,1.779-2.748c.051.313.094.635.126.892a10.713,10.713,0,0,0,.4,2.009,3.481,3.481,0,0,0,1.188,1.845,2.123,2.123,0,0,0,1.263.414,2.951,2.951,0,0,0,1.153-.259,2.14,2.14,0,0,0,1.236-2.056,17.284,17.284,0,0,0-.15-3.146c-.053-.5-.109-1.008-.143-1.512a8.363,8.363,0,0,1,.325-3.211,4.242,4.242,0,0,1,3.768-2.9c-1.449,2.344-.4,4.367.8,6.235,1.032,1.611,2.2,3.438,1.917,5.733a20.182,20.182,0,0,1-.853,3.541c-.182.576-.4,1.291.3,1.737a1.052,1.052,0,0,0,.564.182,1.906,1.906,0,0,0,1.2-.725c2.031-1.994,2.244-5.789.477-8.46l-.577-.867a6.871,6.871,0,0,1,4.612,6.147,13.331,13.331,0,0,1-.114,2.082,16.517,16.517,0,0,0-.121,1.662,1.878,1.878,0,0,0,1.062,2,1.654,1.654,0,0,0,.627.134,2.409,2.409,0,0,0,1.556-.8c.94-.88,1.265-1.946,1.289-4.236a4.462,4.462,0,0,1,.787,1.7c.027.095.056.187.085.278a14.554,14.554,0,0,1,.62,5.234,5.993,5.993,0,0,0,1.876-.777,5.361,5.361,0,0,0,2.566-4.2,6.1,6.1,0,0,0-2.922-5.937h.254a7.191,7.191,0,0,1,2.106.329,8.078,8.078,0,0,1,6.09,6.62,9.694,9.694,0,0,1-3.269,9.333,10.9,10.9,0,0,1-1.6,1.2l-.046.024c-.068.036-.138.075-.136.155,0,.1.08.1.148.106a.273.273,0,0,1,.063,0,12.024,12.024,0,0,0,2.477.332,5.3,5.3,0,0,0,1.27-.144,3.612,3.612,0,0,0,.822-.342l.01,0,.024-.015a6.713,6.713,0,0,1-.844,2,10.214,10.214,0,0,1-6.95,4.786,4.933,4.933,0,0,1-.839.085c-.133,0-.2.021-.242.067s-.039.126,0,.255a15.015,15.015,0,0,1,.4,3.72,13.541,13.541,0,0,1-.2,2.186,3.916,3.916,0,0,1-1.713,2.573c-.567.422-1.168.814-1.75,1.192l-.012.008c-.48.314-.979.64-1.461.983a10.408,10.408,0,0,0-2.186,1.958,4.506,4.506,0,0,0-.649,1.069c-.043.1-.08.169-.162.169a.288.288,0,0,1-.133-.041,8.721,8.721,0,0,0-2.45-.851c-.155-.031-.225-.08-.211-.267a20.533,20.533,0,0,1,2.36-8.261c1.486-.126,5.865-1.107,5.865-2.133a18.522,18.522,0,0,0-1.086-3.533c-.007-.012-.01-.031-.017-.041l-.007-.02,0,.012a.12.12,0,0,0-.09-.048.492.492,0,0,0-.2.067,11.475,11.475,0,0,0-2.959,2.232,16.444,16.444,0,0,0-3.814,6.931,23.663,23.663,0,0,0-.926,5.481c-.012.262.15.276.3.291l.053.007a9,9,0,0,1,2.462.705c.114.049.213.1.308.146a2.6,2.6,0,0,1,1.648,3.124,5.9,5.9,0,0,1-2.421,3.931,2.082,2.082,0,0,1-.262.157,1.26,1.26,0,0,1-.6.185.982.982,0,0,1-.606-.235,7.492,7.492,0,0,0-2.709-1.274c-.133-.034-.2-.07-.218-.124s-.01-.126.048-.237a7.758,7.758,0,0,1,.519-.862,2.506,2.506,0,1,0-.4-1.367,2.894,2.894,0,0,0,.027.381,9.067,9.067,0,0,0-.824,1.706c-.063.172-.124.259-.286.259a.718.718,0,0,1-.1-.01,7.65,7.65,0,0,0-1.224-.1,7.374,7.374,0,0,0-1.2.1.867.867,0,0,1-.112.013c-.155,0-.216-.083-.276-.245a8.689,8.689,0,0,0-1.006-1.987v-.116a2.5,2.5,0,1,0-.315,1.217,6.367,6.367,0,0,1,.671,1.124.158.158,0,0,1,.019.136c-.024.054-.087.075-.165.1a9.016,9.016,0,0,0-3.058,1.477.452.452,0,0,1-.229.063Z"
              transform="translate(-1967 -4841.94)" stroke="rgba(0,0,0,0)" stroke-width="1"/>
    </g>
</svg>