<svg xmlns="http://www.w3.org/2000/svg" width="34.827" height="29.852" viewBox="0 0 34.827 29.852">
  <g id="Сгруппировать_2706" data-name="Сгруппировать 2706" transform="translate(0 29.852) rotate(-90)">
    <path id="Icon_metro-medkit" data-name="Icon metro-medkit" d="M12.438,4.975h9.951V2.488H12.438V4.975Zm-7.463,0V29.852H4.353a4.19,4.19,0,0,1-3.071-1.283A4.189,4.189,0,0,1,0,25.5V9.329A4.19,4.19,0,0,1,1.283,6.258,4.189,4.189,0,0,1,4.353,4.975Zm23.011,0V29.852H6.841V4.975h3.11V1.866A1.8,1.8,0,0,1,10.495.544,1.8,1.8,0,0,1,11.816,0H23.011a1.8,1.8,0,0,1,1.322.544,1.8,1.8,0,0,1,.544,1.322v3.11h3.11Zm6.841,4.353V25.5a4.38,4.38,0,0,1-4.353,4.353h-.622V4.975h.622a4.19,4.19,0,0,1,3.071,1.283,4.189,4.189,0,0,1,1.283,3.071Z" transform="translate(29.852) rotate(90)" fill="#eaeaea"/>
    <path id="Icon_awesome-plus" data-name="Icon awesome-plus" d="M11.825,5H7.732V.91A.91.91,0,0,0,6.822,0h-.91A.91.91,0,0,0,5,.91V5H.91a.91.91,0,0,0-.91.91v.91a.91.91,0,0,0,.91.91H5v4.093a.91.91,0,0,0,.91.91h.91a.91.91,0,0,0,.91-.91V7.732h4.093a.91.91,0,0,0,.91-.91v-.91A.91.91,0,0,0,11.825,5Z" transform="translate(17.982 11.046) rotate(90)" fill="#ff6363"/>
  </g>
</svg>
