<svg xmlns="http://www.w3.org/2000/svg" xmlns:xlink="http://www.w3.org/1999/xlink" width="199" height="326" viewBox="0 0 199 326">
  <defs>
    <clipPath id="clip-path">
      <rect id="Прямоугольник_849" data-name="Прямоугольник 849" width="199" height="326" transform="translate(0.213)" fill="#fff" stroke="#707070" stroke-width="1"/>
    </clipPath>
  </defs>
  <g id="Группа_масок_9" data-name="Группа масок 9" transform="translate(-0.213)" opacity="0.2" clip-path="url(#clip-path)">
    <path id="Контур_65" data-name="Контур 65" d="M-254.613,2861.118h1.263c0-2.977-.359-5.914.086-8.724.635-4.014-.51-8.278,1.782-12.094.52-.866.168-2.233.294-3.361.235-2.115.707-4.219.758-6.336.12-4.948.119-9.9.039-14.852-.084-5.2-.091-10.415-.569-15.584-.306-3.314-1.472-6.542-2.125-9.833-.579-2.916-1.113-5.75-2.722-8.407-.816-1.348-.463-3.4-.656-5.3.619-.032,1.2-.108,1.781-.084,1.6.066,2.091-.947,2.374-2.267.3-1.4.249-2.861-1.257-3.276-2.508-.691-2.909-2.416-2.867-4.756,1.658-.332,1.715-1.578,1.976-3.116,1.381-8.129-.852-15.957-1.614-23.91a109.555,109.555,0,0,1-.372-11.482c.1-9.966.191-19.936.562-29.894.124-3.333,1.108-6.629,1.648-9.95.167-1.031.172-2.09.236-3.137a8.9,8.9,0,0,1,.172-2.721c1.715-4.15-.19-6.93-3.178-9.531-2.844-2.476-6.059-4.676-7.158-8.678-.156-.568-1.374-.906-2.155-1.217a10.9,10.9,0,0,0-2.162-.317l1.6-2.176c-.743-3.708-1.362-7.26-2.179-10.766-1.175-5.048-.208-10.372-2.084-15.328-.54-1.427-.707-3-1.246-4.422a72.1,72.1,0,0,1-3.865-17.464,2.838,2.838,0,0,0-1.144-1.987c-1.5-.755-1.632-1.915-1.425-3.276.311-2.046.577-4.107,1.052-6.117.443-1.875.855-3.556-.239-5.472-.409-.717.325-2.318.89-3.317,2.07-3.664,4.342-7.213,6.412-10.877a4.232,4.232,0,0,0,.628-3c-.708-1.957.391-2.6,1.758-2.55,2.625.1,4-1.333,5.331-3.248,1.023-1.469,2.6-2.583,3.477-4.115.749-1.311.835-3,1.245-4.508.278-1.025.333-2.27.964-3.011a20,20,0,0,0,4.4-9.353,8.855,8.855,0,0,1,4.71-6.654,36.824,36.824,0,0,0,6.01-4.559c.412-.345.289-1.267.64-1.762a15.876,15.876,0,0,1,1.7-1.838c.133-.994-.028-1.939.371-2.405,1.825-2.129,3.8-4.13,5.734-6.166,1.308-1.378,2.6-2.779,3.962-4.1,1.856-1.79,2.764-5.521.907-7.663-1.943-2.241-1.779-4.871-2.725-7.256a27.507,27.507,0,0,1-1.832-10.169,3.509,3.509,0,0,0-1.02-2.1c-1.09-1.161-2.341-2.171-3.5-3.219a8.124,8.124,0,0,0-3.027-8.678l3.582-1.224-3.073-1.824,5.25-.508c-.377-1.642-3.176-.772-2.151-2.593.413-.733,2.263-.657,3.5-.96l1.089-1.8-2.007-1.6,7.748,1.775-2.146-4.6a48.906,48.906,0,0,0,5.231.89,36.98,36.98,0,0,0,7.431-.046,5.348,5.348,0,0,1,3.163.351,12.99,12.99,0,0,0,4.855.9c2.365-.009,4.161.993,6.1,2.165,2.578,1.556,5.448,2.622,8.167,3.951,1.237.6,2.15,1.451,1.289,3.05l3.013.457-1.854,1.735c2.6.053,2.676.108,3.048,3.495.174,1.582-.123,3.192,1.57,4.358.561.387.449,1.791.581,2.739.051.364-.227.815-.1,1.119.8,1.894.993,3.5-1.445,4.34-.213.073-.2.8-.329,1.368h2.136l-1.345,3.583c2.085.921,4.093,1.969,6.214,2.684,1.364.459,1.716,1.031,1.241,2.328-.579,1.583-1.089,3.193-1.6,4.8a3.3,3.3,0,0,0,1.043,3.911c1.752,1.477,3.422,3.062,5.024,4.7a17.4,17.4,0,0,1,1.57,2.422,4.388,4.388,0,0,0,1.133,1.3c1.539.953,3.119,1.845,4.722,2.687a14.619,14.619,0,0,1,5.007,4.181c1.288,1.678,3.607,2.672,5.626,3.646,1.722.831,3.792.964,5.473,1.851,1.626.859,2.915,2.333,4.42,3.447a34.341,34.341,0,0,0,2.966,1.785l.578-.423c-.3,1.1-.6,2.21-.982,3.641a11.714,11.714,0,0,1,2.166,2.385c.609,1.109.585,2.559,1.158,3.7a4.733,4.733,0,0,0,2.172,1.659l1.889,2.793c-.11.385-.294,1.026-.46,1.6,1.155,1.511,2.23,2.953,3.343,4.363,1.467,1.859,2.706,1.836,4.07-.039.22-.3.436-.607.914-1.273,2.53,2.428,4.964,4.739,7.365,7.083.742.725.816,1.572-.228,2.043-1.581.713-3.233,1.266-4.848,1.906-.464.184-1.176.35-1.277.679a1.806,1.806,0,0,0,.5,1.4c.451.5,1.142.774,1.634,1.245.54.516,1.433,1.2,1.368,1.716-.266,2.1.921,2.68,2.543,3.356a3.963,3.963,0,0,1,1.885,2.384,28.921,28.921,0,0,1,.97,5.879c.091,1.367.521,2.113,1.869,2.437,1.368.329,2.428.954,1.988,2.732-.1.418.381.955.49,1.459a10.252,10.252,0,0,1,.533,3.232c-.323,2.6.08,3.247,2.712,3.685,1.1.183,2.17.525,2.909.709a33.67,33.67,0,0,1,.61,3.405c.063.888-.168,1.793-.145,2.688.03,1.162-1.495,2.628.61,3.434a.435.435,0,0,1,.13.4c-1.751,2.857,1.746,5.238.719,8.027a34.581,34.581,0,0,0-1.107,3.317c-.195.759.09,1.76-.307,2.326a49.587,49.587,0,0,1-4,4.892,31.657,31.657,0,0,1-3.035,2.722,22.875,22.875,0,0,1-1.921,1.424c-.369.251-.964.324-1.158.653-2.6,4.409-7.147,6.7-10.941,9.7-6.717,5.314-13.9,10.044-20.925,14.964-1.966,1.378-2.036,1.3-2.8,4.3a23.526,23.526,0,0,1,9.721,1.09l.12.653-3.927,2.186c-.09,1.546-.186,3.212-.315,5.43a23.9,23.9,0,0,0-4.3-2.395,12.325,12.325,0,0,0-4.647-.4,6.906,6.906,0,0,1-3.413-.367c-1.327-.5-3.219.025-4.7.555-1.418.506-1.816,1.929-1.618,3.466q1.067,8.291,2.074,16.589,1.31,10.723,2.59,21.448c.851,7.051,1.56,14.124,2.619,21.144.5,3.3,1.968,6.452,2.47,9.751.816,5.361,1.075,10.806,1.806,16.182.552,4.061.768,8.4,2.443,12.007,1.517,3.267,2.925,6.281,3.348,9.927.237,2.038,2.022,3.859,2.9,5.87a35.99,35.99,0,0,1,2.078,6.013c.812,3.421,1.446,6.888,2.035,10.356.333,1.957.448,3.952.624,5.933a71.46,71.46,0,0,1,.041,16.494,51.609,51.609,0,0,0-.147,8.722,2.759,2.759,0,0,0,1.141,2.039c2.041,1.079,2.482,2.928,2.425,4.852-.084,2.853.907,5.364,1.7,8.013a27.24,27.24,0,0,1,1.313,10.149,69.279,69.279,0,0,0,.467,11.4,30.025,30.025,0,0,0,1.216,5.6c1.33,4.657.463,9.274-.134,13.895-.242,1.877-.794,3.722-.931,5.6a11.751,11.751,0,0,0,.46,4.027,39.4,39.4,0,0,0,2.445,6.906c1.839,3.636.243,7.048-.293,10.526-.113.736-.959,1.344-1.411,2.047-.314.487-.852,1.121-.739,1.542.541,2.015-.73,2.986-2.162,3.521a20.51,20.51,0,0,1-5.952,1.444,93.675,93.675,0,0,1-9.989-.209A5.339,5.339,0,0,1-155,2929.3c-1.267-.846-2.369-1.935-3.6-2.839a6.768,6.768,0,0,1-2.8-7.795,28.464,28.464,0,0,0,.81-11.6c-.372-2.3.075-4.723-.033-7.082a10.049,10.049,0,0,0-.862-3.536c-.251-.566-1.327-.728-1.684-1.292a63.136,63.136,0,0,1-3.623-6.368,3.061,3.061,0,0,1,.1-2.592c1.148-1.665,1.108-3.336.968-5.225a14.216,14.216,0,0,1,.546-5.374,10.6,10.6,0,0,0-1.132-8.826,3.067,3.067,0,0,1,.478-4.1,3.724,3.724,0,0,0,.067-5.2,41.731,41.731,0,0,0-4.437-5.267,5.972,5.972,0,0,1-1.746-6.687,34.634,34.634,0,0,0-.766-22.33c-.563-1.572-.611-3.325-1.146-4.911-1.38-4.093-2.869-8.149-4.4-12.19a3.778,3.778,0,0,0-1.405-1.675,6.174,6.174,0,0,1-2.759-6.911,4.269,4.269,0,0,0-.383-2.445,21.269,21.269,0,0,0-1.318-2.594l2.506-.808c0-2.942,0-2.942-3.315-2.767.986-1.648.261-2.869-.591-4.291a13.453,13.453,0,0,1-1.678-4.929c-.761-5.363-3.043-10.234-4.657-15.32q-3.333-10.5-6.664-21c-.093-.291-.083-.661-.265-.871-3.612-4.182-2.957-9.94-5.363-14.517a66.4,66.4,0,0,0-5.7-8.52c-.881-1.186-1.883-.778-2.333.63-.676,2.115-1.271,4.259-2.012,6.351a103.364,103.364,0,0,0-5.156,22.625c-.664,5.7-1.77,11.4-1.748,17.1a87.242,87.242,0,0,1-.973,15.762,3.953,3.953,0,0,0,.562,2.172,5.535,5.535,0,0,1-.069,5.325,7.658,7.658,0,0,0,.011,7.874c3,5.824,3.72,12.126,3.564,18.513a157.789,157.789,0,0,1-1.244,18.322,20.047,20.047,0,0,0,.709,8.033c.651,2.6,1.077,5.253,1.582,7.887.07.368.193.893.011,1.117-2.279,2.808.142,5.708-.2,8.543a10.167,10.167,0,0,0,.149,1.346c.116,5.429.243,10.859.3,16.289a24.006,24.006,0,0,1-.386,3.385,2.969,2.969,0,0,1-2.941,2.883c-1.768.058-2.32,1.16-2.85,2.484-.216.54-.425,1.3-.853,1.5-3.034,1.419-6.1,2.774-9.216,4a2.632,2.632,0,0,1-2.066-.421,35.529,35.529,0,0,1-3.157-2.71c-.454.7-.668,1.39-1.134,1.7-5,3.384-9.74,7.391-15.177,9.828-4.113,1.843-8.92,3.852-13.727,2.223-2.765-.937-5.247-2.757-7.768-4.32-.348-.215-.364-1.282-.232-1.889.356-1.646.862-3.26,1.33-4.88a6.087,6.087,0,0,1,3.1-3.767,28.52,28.52,0,0,0,4.281-3.442c2.613-2.248,5.573-4.232,7.683-6.887a26.535,26.535,0,0,0,3.942-8.19C-255.078,2866.433-255.019,2863.791-254.613,2861.118Zm110.679-256.584a13.638,13.638,0,0,0-2.087-1.246c-2.782-.96-5.677-1.758-5.725-5.538a.53.53,0,0,0-.252-.37c-1.889-1.027-1.7-2.637-1.351-4.379.089-.45-.349-1-.545-1.511a4.94,4.94,0,0,0-1.246,1.058,2.751,2.751,0,0,0-.251,1.54,57.088,57.088,0,0,1-1.728,19.3,32.559,32.559,0,0,0-1.129,6.065c-.4,6.017-.632,12.045-.916,18.069-.168,3.574-.193,3.485-3.555,4.825-3.183,1.269-4.1,1.89-2.993,5.444.294.944.354,1.959.605,2.919.628,2.408,1.7,2.818,3.477.99a97.363,97.363,0,0,0,8.19-9.25c3.49-4.645,6.582-9.587,9.925-14.345,1.987-2.828,2.055-2.777-.445-5.136-.092-.086-.081-.28-.118-.424a45.513,45.513,0,0,0,2.239-7.592c.331-1.453-.439-2.272-1.663-2.9-.545-.281-1.305-.817-1.345-1.291C-145.025,2608.66-146.961,2606.391-143.934,2604.533Zm-97.41-13.013c-2.969,1.1-6.16,6.106-6.052,8.788a16.114,16.114,0,0,1-.5,5.2,68.171,68.171,0,0,1-3.057,8.916c-2.817,6.184-3.082,13.034-2.625,19.837.163,2.42-.279,4.974,2.177,6.642a1.616,1.616,0,0,1,.46,1.028,71.525,71.525,0,0,1,.959,7.232c.125,2.774-.028,2.781,2.533,2.417.953-2.737,1.8-5.435,2.845-8.056.514-1.291.9-2.275-.275-3.5-.476-.5-.262-1.7-.275-2.583-.012-.813.115-1.628.142-2.443.1-2.949,0-5.92.327-8.843.25-2.208.991-4.336-.593-6.345-1.389-1.762-1.067-3.527,0-5.338.774-1.312,1.8-2.653,2.014-4.087.838-5.514,1.411-11.069,2.043-16.614A13.542,13.542,0,0,0-241.344,2591.52Z" transform="translate(297.602 -2435.745)"/>
  </g>
</svg>
