<svg xmlns="http://www.w3.org/2000/svg" xmlns:xlink="http://www.w3.org/1999/xlink" width="50" height="50" viewBox="0 0 50 50">
  <defs>
    <clipPath id="clip-path">
      <rect id="Прямоугольник_2077" data-name="Прямоугольник 2077" width="50" height="50" transform="translate(-7770 -6073)" fill="#fff" opacity="0.5"/>
    </clipPath>
  </defs>
  <g id="Группа_масок_83" data-name="Группа масок 83" transform="translate(7770 6073)" clip-path="url(#clip-path)">
    <g id="Сгруппировать_2865" data-name="Сгруппировать 2865" transform="translate(-8547.404 -7695.54) rotate(-30)">
      <path id="Контур_2967" data-name="Контур 2967" d="M-152.138,1839.425q2.288-5.209,4.574-10.419a14.919,14.919,0,0,0,.642-1.688c.389-1.288.206-1.791-.891-2.64a8.838,8.838,0,0,1-.885-.637c-.991-.99-.722-2.09.613-2.618.438-.174.87-.364,1.272-.533.094-.911-.621-1.219-1.046-1.687a3.36,3.36,0,0,1-1.083-2.222c-.037-1.489,1.146-2.552,2.472-1.916a2.666,2.666,0,0,0,2.7-.249,7.468,7.468,0,0,1,3.875-1.046c.971-1.242,1.563-3.184,3.817-2.494,1.721.527,1.833,2.047,2.062,3.4a3.142,3.142,0,0,0,1.7.207c5.852.011,11.7,0,17.554.011.86,0,1.712.054,2.322-.733a1.334,1.334,0,0,1,1.175-.361c1.277,0,2.555,0,3.667,0,.751.446.406,1.116.725,1.656.461.278,1.269.344,1.269,1.217,0,2.535,0,5.072,0,7.421a1.827,1.827,0,0,1-1.589.462,4.043,4.043,0,0,0-2.91.736,3.094,3.094,0,0,1-2.113.366H-125.8a8.352,8.352,0,0,0-1.375,2.729,3.753,3.753,0,0,1-3.99,2.757c-1.026-.1-2.071-.02-3.107-.017-1.991.009-2.907.658-3.463,2.5-.782,2.6-1.506,5.212-2.332,7.794a5.51,5.51,0,0,0-.264,1.777,2.148,2.148,0,0,1-.466,1.7h-1.464c-2.057-.558-4.093-1.244-6.183-1.638a4.19,4.19,0,0,1-3.7-3.1Zm6.977-18.024c1.773.663,35,.573,36.541,0Zm36.593-4.7a1.342,1.342,0,0,0-1.148-.5c-5.464.055-10.93-.142-16.394.109-.029,0-.068.082-.078.131-.055.237.226.049-.147.263Zm-21.883,8.222a2.106,2.106,0,0,0-1.779,1.823,1.36,1.36,0,0,0,1.06,1.606A3.086,3.086,0,0,0-130.451,1824.922Zm-2.329-8.4a10.716,10.716,0,0,0,4.823-.049A10.458,10.458,0,0,0-132.78,1816.521Z" transform="translate(0 0)" fill="#eaeaea" stroke="rgba(0,0,0,0)" stroke-width="1"/>
    </g>
  </g>
</svg>
