<svg xmlns="http://www.w3.org/2000/svg" width="20.486" height="23.901" viewBox="0 0 20.486 23.901">
  <path id="Icon_awesome-user-friends" data-name="Icon awesome-user-friends" d="M10.243,14.2A5.975,5.975,0,1,0,4.268,8.225,5.972,5.972,0,0,0,10.243,14.2Zm4.1,1.707H13.9a8.25,8.25,0,0,1-7.309,0H6.146A6.147,6.147,0,0,0,0,22.053V23.59a2.561,2.561,0,0,0,2.561,2.561H17.926a2.561,2.561,0,0,0,2.561-2.561V22.053A6.147,6.147,0,0,0,14.34,15.908Z" transform="translate(0 -2.25)" fill="#fff" opacity="0.75"/>
</svg>
