<svg xmlns="http://www.w3.org/2000/svg" width="39.992" height="27.994" viewBox="0 0 39.992 27.994">
    <path d="M12,16.247a7,7,0,1,0-7-7A7,7,0,0,0,12,16.247Zm4.8,2h-.519a9.663,9.663,0,0,1-8.561,0H7.2a7.2,7.2,0,0,0-7.2,7.2v1.8a3,3,0,0,0,3,3H21a3,3,0,0,0,3-3v-1.8A7.2,7.2,0,0,0,16.8,18.247Zm13.2-2a6,6,0,1,0-6-6A6,6,0,0,0,29.994,16.247Zm3,2h-.237a7.88,7.88,0,0,1-5.524,0h-.237a6.94,6.94,0,0,0-3.481.962,9.145,9.145,0,0,1,2.481,6.236v2.4c0,.137-.031.269-.037.4H36.992a3,3,0,0,0,3-3,7,7,0,0,0-7-7Z"
          transform="translate(0 -2.25)" fill="#eaeaea"/>
</svg>