<svg xmlns="http://www.w3.org/2000/svg" width="30" height="29.995" viewBox="0 0 30 29.995">
    <path d="M1963.846-1883.569a1.174,1.174,0,0,0-1.142-1.16c-.3-.012-.607-.013-.91,0-.194.008-.268-.05-.267-.255.007-1.782-.007-3.564.009-5.346a3.546,3.546,0,0,0-3.6-3.631c-1.827,0-3.655,0-5.482.01-.241,0-.4-.042-.479-.3a1.763,1.763,0,0,0-.251-.431,3.409,3.409,0,0,0-3.371-1.525,3.355,3.355,0,0,0-2.649,1.981c-.069.149-.129.27-.339.268-1.046-.01-2.093-.012-3.139,0a28.616,28.616,0,0,0-3,.043,3.4,3.4,0,0,0-2.757,2,3.865,3.865,0,0,0-.334,1.771q-.007,2.559,0,5.118c0,.213-.057.3-.282.289-.28-.016-.562.018-.841,0a1.211,1.211,0,0,0-1.166,1.155c.015,1.531,0,3.063,0,4.595a1.2,1.2,0,0,0,1.223,1.228c.242.005.485,0,.728,0,.331,0,.336,0,.335.324q0,2.638-.005,5.277a3.546,3.546,0,0,0,3.629,3.6c1.858-.015,3.715,0,5.573-.007a.3.3,0,0,1,.317.193,3.857,3.857,0,0,0,.541.865,3.408,3.408,0,0,0,4.359.794,3.333,3.333,0,0,0,1.441-1.589.387.387,0,0,1,.417-.261c.948.011,1.9,0,2.843,0v0c.955,0,1.911.006,2.866,0a3.072,3.072,0,0,0,.941-.137,3.525,3.525,0,0,0,1.81-1.311,3.08,3.08,0,0,0,.614-1.451,15.7,15.7,0,0,0,.044-1.681c0-1.448,0-2.9,0-4.345,0-.2.063-.272.262-.265.287.011.576.005.864,0a1.2,1.2,0,0,0,1.184-1.123Q1963.86-1881.226,1963.846-1883.569Zm-25.551,3.427c-.568-.083-1.134.036-1.7,0-.344-.022-.355-.033-.357-.373,0-.538.005-1.076,0-1.614,0-.184.073-.237.244-.233.288.008.575,0,.863,0v0c.3,0,.591,0,.886,0,.147,0,.228.045.227.207,0,.614,0,1.227,0,1.841C1938.457-1880.2,1938.411-1880.124,1938.3-1880.141Zm10.594-13.719a1.071,1.071,0,0,1,1.056,1.061,1.1,1.1,0,0,1-1.159,1.153,1.1,1.1,0,0,1-1.045-1.1A1.093,1.093,0,0,1,1948.889-1893.86Zm-.086,25.226a1.1,1.1,0,0,1-1.063-1.11,1.074,1.074,0,0,1,1.131-1.1,1.014,1.014,0,0,1,1.056,1.057A1.078,1.078,0,0,1,1948.8-1868.634Zm5.2-7.458H1943.7V-1886.4H1954Zm7.289-4.046c-.6-.077-1.195.022-1.792,0-.163-.006-.233-.074-.255-.247a12.473,12.473,0,0,1,.007-1.452c0-.517,0-.517.532-.517h.545c.311,0,.622,0,.932,0,.142,0,.207.053.206.2q0,.921,0,1.841C1961.47-1880.188,1961.416-1880.124,1961.293-1880.139Z"
          transform="translate(-1933.852 1896.247)" opacity="0.5"/>
</svg>