<svg xmlns="http://www.w3.org/2000/svg" xmlns:xlink="http://www.w3.org/1999/xlink" width="25.953" height="27.678" viewBox="0 0 25.953 27.678">
  <defs>
    <filter id="Вычитание_191" x="0" y="0" width="25.953" height="27.678" filterUnits="userSpaceOnUse">
      <feOffset dy="1" input="SourceAlpha"/>
      <feGaussianBlur stdDeviation="1.5" result="blur"/>
      <feFlood/>
      <feComposite operator="in" in2="blur"/>
      <feComposite in="SourceGraphic"/>
    </filter>
  </defs>
  <g transform="matrix(1, 0, 0, 1, 0, 0)" filter="url(#Вычитание_191)">
    <path id="Вычитание_191-2" data-name="Вычитание 191" d="M7.847,18.678H6.539v-2.8H5.231v2.263L3.443,14.1A7.667,7.667,0,0,1,0,7.812C0,3.5,3.8,0,8.477,0s8.477,3.5,8.477,7.812A7.663,7.663,0,0,1,13.509,14.1L11.77,18.033V15.881H10.462v2.8H9.155v-2.8H7.847v2.8Zm.63-6.835a.7.7,0,0,0-.671.493l-.326,1a.721.721,0,0,0,.1.646.7.7,0,0,0,.574.3H8.8a.694.694,0,0,0,.572-.3.72.72,0,0,0,.1-.647l-.325-1A.7.7,0,0,0,8.477,11.842Zm4.314-3.694a1.989,1.989,0,0,0-.685.194h0l-.358.134-.17.063a4.724,4.724,0,0,0-1.793.879,3.013,3.013,0,0,0,.377,2.056c.343.575.578.582.587.582a.3.3,0,0,0,.062.005,2.949,2.949,0,0,0,.936-.237l.212-.077a4.526,4.526,0,0,0,2.14-1.275,1.431,1.431,0,0,0-.11-1.626,1.358,1.358,0,0,0-.777-.621A1.549,1.549,0,0,0,12.791,8.148Zm-8.627,0a1.533,1.533,0,0,0-.42.079,1.336,1.336,0,0,0-.777.621,1.426,1.426,0,0,0-.111,1.627,4.522,4.522,0,0,0,2.137,1.274l.214.078a2.939,2.939,0,0,0,.934.237.367.367,0,0,0,.058,0c.026,0,.263-.029.594-.583a3.018,3.018,0,0,0,.376-2.056,4.716,4.716,0,0,0-1.793-.879l-.17-.064L4.85,8.344h0A1.992,1.992,0,0,0,4.164,8.148Z" transform="translate(4.5 3.5)" fill="#fff"/>
  </g>
</svg>
