<svg xmlns="http://www.w3.org/2000/svg" width="33.682" height="31.043" viewBox="0 0 33.682 31.043">
  <path id="Контур_2962" data-name="Контур 2962" d="M1922.682,532.985v3.14c-.038.033-.032.079-.034.121a4.292,4.292,0,0,1-.252,1.218,8.75,8.75,0,0,1-2.97,3.962,13.218,13.218,0,0,1-5.253,2.434,14.052,14.052,0,0,1-2.344.322.289.289,0,0,0-.229.13,9.828,9.828,0,0,1-1.613,1.629,4.121,4.121,0,0,0-.876.913,4.269,4.269,0,0,0-.576,3.323,2.077,2.077,0,0,0,1.16,1.536,3.1,3.1,0,0,0,1.365.254,4.255,4.255,0,0,1,2.436.756,2.907,2.907,0,0,1,1.348,1.892,9.362,9.362,0,0,1,.041,2.029.519.519,0,0,1-.309.418.879.879,0,0,1-.455.071h-16.745a.576.576,0,0,1-.6-.547c-.025-.426-.018-.853-.019-1.28a2.77,2.77,0,0,1,.481-1.674,4.087,4.087,0,0,1,2.225-1.512,6.6,6.6,0,0,1,1.553-.172,2.182,2.182,0,0,0,2.131-1.782,4.717,4.717,0,0,0,.039-1.593,3.592,3.592,0,0,0-1.357-2.506,11.243,11.243,0,0,1-1.778-1.779.251.251,0,0,0-.2-.1q-.726-.045-1.446-.155a13.668,13.668,0,0,1-3.048-.845,11.127,11.127,0,0,1-4.988-3.693,7.16,7.16,0,0,1-1.2-2.385c-.08-.3-.105-.607-.172-.908v-3.252a3.2,3.2,0,0,1,.2-.612,1.9,1.9,0,0,1,1.734-1.067q2.824-.008,5.649,0c.155,0,.2-.04.2-.2-.009-.6,0-1.208,0-1.812a2.842,2.842,0,0,1,.434-1.559,3.267,3.267,0,0,1,2.964-1.611c3.766.015,7.532,0,11.3.007a5.028,5.028,0,0,1,.726.038,3.221,3.221,0,0,1,2.7,2.9c.038.664.02,1.332.01,2,0,.189.046.235.235.234,1.858-.008,3.716-.006,5.574,0a1.917,1.917,0,0,1,1.865,1.314C1922.621,532.711,1922.647,532.849,1922.682,532.985Zm-24.452,8.364c.023-.057-.005-.087-.02-.12a16.44,16.44,0,0,1-1.234-4.355,18.429,18.429,0,0,1-.2-2.825c0-.133-.017-.2-.179-.2q-2.422.009-4.844,0c-.128,0-.172.034-.171.168.007.585,0,1.171,0,1.756a2.98,2.98,0,0,0,.211,1.073,5.34,5.34,0,0,0,1.2,1.74A9.948,9.948,0,0,0,1898.23,541.349Zm15.206-.015a.334.334,0,0,0,.058,0,11.006,11.006,0,0,0,2.2-.689,8.945,8.945,0,0,0,3.622-2.8,3.429,3.429,0,0,0,.759-1.872c.042-.672.006-1.344.021-2.016,0-.123-.077-.1-.149-.1q-2.441,0-4.882,0c-.121,0-.162.035-.162.159a19.468,19.468,0,0,1-.23,3.045,16.5,16.5,0,0,1-.821,3.22C1913.722,540.628,1913.578,540.976,1913.436,541.334Z" transform="translate(-1889 -526.092)" opacity="0.5"/>
</svg>
