<svg xmlns="http://www.w3.org/2000/svg" xmlns:xlink="http://www.w3.org/1999/xlink" width="50" height="50" viewBox="0 0 50 50">
  <defs>
    <clipPath id="clip-path">
      <rect id="Прямоугольник_2080" data-name="Прямоугольник 2080" width="50" height="50" transform="translate(-7770.389 -6073.389)" opacity="0.5"/>
    </clipPath>
  </defs>
  <g id="Группа_масок_86" data-name="Группа масок 86" transform="translate(7770.389 6073.389)" clip-path="url(#clip-path)">
    <g id="Сгруппировать_2868" data-name="Сгруппировать 2868" transform="matrix(0.799, -0.602, 0.602, 0.799, -7770.597, -6037.825)">
      <g id="Сгруппировать_2867" data-name="Сгруппировать 2867" transform="translate(0 0)">
        <path id="Контур_2970" data-name="Контур 2970" d="M55.865,0c.031.279.272.365.275.731s.352.364.519.513A4.286,4.286,0,0,1,57,3.573l-.315.465h-.428V6.209l-.2.278H54.791c-.109.215-.019.426-.086.658l-.156.216H53.177c-.264-.165-.212-.507-.2-.841H50.761a2.391,2.391,0,0,1-.484.833c-.25-.056-.475.137-.689.228a2.05,2.05,0,0,1-.836.135q-5.659.007-11.32,0L37.1,7.252V6.508h-4.7l-.3.509H25.864a1.8,1.8,0,0,0-.424.977,14.665,14.665,0,0,1-.66,1.989c-.211.59-.561.914-1.07.9-1.089-.024-2.178-.007-3.257-.007a3.6,3.6,0,0,0-.64,1.22c-.3.91-.636,1.795-.967,2.716a1.5,1.5,0,0,1,.129.922L18.4,16.5c-.652-.352-1.332-.665-2-1.029A3.825,3.825,0,0,0,15.474,15c-.3-.066-.385-.43-.5-.746a6.767,6.767,0,0,1,.874-2.037q.984-2.024,2-4.016a3.186,3.186,0,0,0,.281-.745c-.276-.273-.348.328-.566.261H15.249L14.954,7.2H13.77c-.074.171-.086.423-.226.483a1.511,1.511,0,0,1-1.027.192,2.289,2.289,0,0,1-.379,1.055H10.21A15.428,15.428,0,0,0,8.059,10.7c-.521.509-1.051,1-1.551,1.549-.851.93-1.7,1.861-2.58,2.737A9.738,9.738,0,0,1,3,15.9a.938.938,0,0,1-.683.248,6.989,6.989,0,0,0-.87-.008l-.374-.522a6.246,6.246,0,0,1-.191-2.146c0-.644-.036-1.291.008-1.928C.943,10.79.737,10.08.753,9.337a.377.377,0,0,0-.025-.159A17.753,17.753,0,0,0,0,7.369V4.211c.212-.121.175-.452.288-.631.259-.338.574-.24.874-.245s.628,0,.942,0H3c.034.168-.008.267.085.338h7.062l.094-.322h1.79l.344.482H15.19c.3-.462.377-1.157.974-1.375.5,0,1.13-.021,1.757.01a1.2,1.2,0,0,0,.684-.248,5.221,5.221,0,0,1,1.252-.655,3.458,3.458,0,0,1,1.217-.335c.2-.339.468-.122.7-.171.256-.053.485-.261.766-.189a2.57,2.57,0,0,0,.624.01A1.448,1.448,0,0,1,23.277,0h2.139a1.832,1.832,0,0,1,.138.844H54.007c.3-.139.17-.45.25-.62.076-.093.239.016.224-.224ZM3.288,12.041c.538-.506.99-.941,1.449-1.361.589-.54,1.174-1.092,1.781-1.591a4.823,4.823,0,0,0,.711-.827H4.5c-.436.35-.537,1.058-.917,1.365-.117.058-.231-.041-.3.081ZM.533,7.34H11.941V7.048H.545A.321.321,0,0,0,.533,7.34Zm25.5-5.328c-.056-.117-.124-.08-.182-.081-1.317,0-2.634,0-3.951,0a3.9,3.9,0,0,0-.915.293c-.368.091-.693.349-1.068.433a7.072,7.072,0,0,0-1.265.544V4.57c.089-.019.159.03.223-.122V3.582c.08-.1.14-.234.2-.238a4.678,4.678,0,0,0,1.411-.539,5,5,0,0,1,2.415-.536,17.755,17.755,0,0,0,1.818.013h1.31Zm6.188,2.872h5.009V4.592H32.222ZM23.446,9.317a1.8,1.8,0,0,0,.458-.983.248.248,0,0,0-.07-.259c-.02-.271-.293-.1-.357-.327h-.819l-.013.357c.105.446.665.469.546,1.175C23.229,9.351,23.32,9.278,23.446,9.317ZM56.611,1.972c-.246-.181-.357-.395-.572-.394-.849,0-1.7,0-2.554,0v.351c.38,0,.75-.014,1.12,0a4.007,4.007,0,0,1,1.762.168C56.395,2.115,56.438,2.067,56.611,1.972Zm-38.5,2.62h-2.72a.328.328,0,0,0,0,.291h2.722Zm-5.765.644h2.62V4.942h-2.62ZM.92,4.18H2.609A.332.332,0,0,0,2.6,3.886H.8c-.086.192-.315.271-.3.58.046.1.107.1.2.092Zm52.143.587H50.995a.328.328,0,0,0,0,.291h2.068A.328.328,0,0,0,53.063,4.768Zm.022-3.157H51.348V1.9h1.737Zm-42.5,2.6h1.082c.075.27.075.27.234.355a.546.546,0,0,0-.115-.675h-1.2Zm44.039.321h1.36v-.29h-1.36ZM32.976,2.077h1.236V1.784H32.976Zm2.975-.293H34.764a.33.33,0,0,0,0,.292h1.187A.328.328,0,0,0,35.952,1.784Zm1.761,0H36.526a.328.328,0,0,0,0,.292h1.187A.328.328,0,0,0,37.713,1.784Zm1.814.308c-.031-.154.011-.253-.042-.293H38.237c.025.123-.017.222.075.293Zm1.748-.321c-.263-.006-.527-.025-.79-.012-.158.008-.328-.084-.473.075,0,.067,0,.126,0,.183,0,.023.027.041.042.062C41.024,2.132,41.024,2.132,41.274,1.772Zm1.762,0c-.264-.006-.528-.025-.79-.012-.158.008-.329-.084-.473.075a1.733,1.733,0,0,0,0,.183c0,.023.027.041.042.062C42.786,2.132,42.786,2.132,43.036,1.772Zm.511.3h1.234v-.29H43.547Zm1.78,0h1.186a.324.324,0,0,0,.01-.292H45.337A.326.326,0,0,0,45.327,2.076Zm1.743,0H48.3v-.29H47.07Zm3-.292H48.83v.293h1.236Z" transform="translate(0 0)" fill="#eaeaea" stroke="rgba(0,0,0,0)" stroke-width="1"/>
      </g>
    </g>
  </g>
</svg>
