<svg xmlns="http://www.w3.org/2000/svg" width="31.69" height="29.499" viewBox="0 0 31.69 29.499">
    <path d="M21.178,29.5a1.262,1.262,0,0,1-1.261-1.262V23.192a1.262,1.262,0,0,1,1.261-1.262h.631V20.039a3.995,3.995,0,0,1,7.99,0V21.93h.631a1.262,1.262,0,0,1,1.261,1.262v5.045A1.261,1.261,0,0,1,30.429,29.5Zm2.734-9.46V21.93H27.7V20.039a1.892,1.892,0,1,0-3.785,0ZM16.819,25.8H6.071V24.287H16.919a12.68,12.68,0,0,0-.1,1.516h0ZM0,25.8V12.9A12.9,12.9,0,0,1,22.027,3.777,12.823,12.823,0,0,1,25.8,12.9v.841a12.58,12.58,0,0,0-4.554,2.5V10.626H4.553V25.8H0Zm6.071-3.035V21.25H17.69a12.688,12.688,0,0,0-.487,1.518H6.071ZM18.4,19.732H6.071V18.214H19.4a12.777,12.777,0,0,0-.99,1.518ZM6.071,16.7V15.179H19.732V16.7Zm0-3.035V12.144H19.732v1.517H6.071Z"
          transform="translate(0)" fill="#eaeaea"/>
</svg>