<svg xmlns="http://www.w3.org/2000/svg" width="33.736" height="32.989" viewBox="0 0 33.736 32.989">
  <path id="Контур_2961" data-name="Контур 2961" d="M-89.017,48.1c-.584-.386-1.105-.743-1.6-1.133-.109-.085-.166-.011-.235.041a5.531,5.531,0,0,1-2.468,1.017,4.232,4.232,0,0,1-3.9-1.287,7.094,7.094,0,0,1-1.35-1.925.739.739,0,0,1,.364-1.076,7.041,7.041,0,0,1,2.716-.778,4.058,4.058,0,0,1,1.352.176c.052.014.105.027.186.047l-.581-1.186c-.041-.083-.1-.041-.165-.031a3.858,3.858,0,0,1-2.921-.578,4.1,4.1,0,0,1-1.329-1.635,13.747,13.747,0,0,1-1.176-3.963.729.729,0,0,1,.941-.861,9.2,9.2,0,0,1,3.316,1.4c.028.02.059.037.149.094,0-.358,0-.675,0-.993,0-.086-.09-.1-.151-.129a6.361,6.361,0,0,1-1.564-1.063,3.775,3.775,0,0,1-1.238-2.812,7.9,7.9,0,0,1,1.115-4.16.738.738,0,0,1,1.263-.154,6.439,6.439,0,0,1,1.525,2.545c.056.164.109.328.168.5a1.628,1.628,0,0,0,.338-1.077c-.032-.526.014-1.056-.012-1.582a5.535,5.535,0,0,1,1.2-3.668,9.219,9.219,0,0,1,1.94-1.925A.747.747,0,0,1-89.9,22.2a6.5,6.5,0,0,1,.743,3.438,4.483,4.483,0,0,1-1.248,2.7,9,9,0,0,1-2.358,1.826.782.782,0,0,0-.367.382c-.105.242-.222.479-.316.732a12.085,12.085,0,0,1,1.336-.874,12.7,12.7,0,0,1,1.173-.573.737.737,0,0,1,1.065.7,7.967,7.967,0,0,1-.483,3.124,5.379,5.379,0,0,1-3.62,3.184c-.229.072-.27.168-.253.38a13.276,13.276,0,0,0,.274,1.871c.078.007.081-.058.1-.1a5.48,5.48,0,0,1,1.3-1.671.741.741,0,0,1,1.15.044,6.025,6.025,0,0,1,1.45,2.995A4.513,4.513,0,0,1-91.1,44.316c-.047.056-.148.1-.057.206A10.9,10.9,0,0,0-89.4,46.04a11.362,11.362,0,0,1-.459-2.133.756.756,0,0,1,.93-.927c.167.023.333.054.5.091a7.518,7.518,0,0,1,3.01,1.358,3.633,3.633,0,0,1,1.417,2.952,6.617,6.617,0,0,1-.207,1.775.223.223,0,0,0,.106.292c.242.155.473.329.7.508a.179.179,0,0,0,.269,0c.224-.18.457-.352.7-.51a.232.232,0,0,0,.108-.3,6.674,6.674,0,0,1-.172-2.2,3.651,3.651,0,0,1,1.8-2.826,7.936,7.936,0,0,1,3.221-1.171.742.742,0,0,1,.81.847,10.375,10.375,0,0,1-.419,2.061c-.012.038-.02.078-.043.166a10.792,10.792,0,0,0,1.738-1.5c.1-.109.008-.161-.047-.227a5.422,5.422,0,0,1-1.041-1.794,4.79,4.79,0,0,1,.1-2.943,5.5,5.5,0,0,1,1.255-2.2A.737.737,0,0,1-74,37.328a5.516,5.516,0,0,1,1.314,1.686c.018.036.04.07.073.126a4.313,4.313,0,0,0,.153-.7c.076-.408.106-.822.152-1.234.022-.2-.033-.288-.24-.35a5.824,5.824,0,0,1-2.389-1.335,5.576,5.576,0,0,1-1.638-3.3c-.083-.523-.061-1.052-.1-1.577a.78.78,0,0,1,1.189-.765A12.082,12.082,0,0,1-73.119,31.3a1.8,1.8,0,0,0-.747-1.171,9.368,9.368,0,0,1-2.323-1.837,4.632,4.632,0,0,1-1.086-4.316,7.354,7.354,0,0,1,.622-1.763.747.747,0,0,1,1.242-.3,8.151,8.151,0,0,1,2.818,3.5,4.638,4.638,0,0,1,.323,1.73c0,.7.02,1.394-.009,2.089a1.783,1.783,0,0,0,.331.935c.126-.39.239-.751.391-1.1a6.471,6.471,0,0,1,1.177-1.838,2.443,2.443,0,0,1,.229-.218.723.723,0,0,1,1.125.182,7.886,7.886,0,0,1,1.1,3.245,5.164,5.164,0,0,1-.1,2.051,4.265,4.265,0,0,1-1.906,2.385,5.243,5.243,0,0,1-.754.421.217.217,0,0,0-.142.245c.01.271,0,.543,0,.867.139-.093.224-.151.31-.206a9.437,9.437,0,0,1,3.226-1.3.723.723,0,0,1,.876.8,13.714,13.714,0,0,1-1.231,4.121,3.69,3.69,0,0,1-2.627,2.116,4,4,0,0,1-1.551.01c-.129-.024-.184,0-.239.116-.167.361-.348.715-.533,1.091.318-.063.612-.155.918-.191a4.979,4.979,0,0,1,1.915.2,7,7,0,0,1,1.486.587.692.692,0,0,1,.352.894,5.91,5.91,0,0,1-2.839,3.082,4.581,4.581,0,0,1-3.337.074,4.969,4.969,0,0,1-1.621-.835c-.077-.059-.129-.083-.217-.014-.482.377-.986.723-1.5,1.062a.438.438,0,0,0-.056.062c.313.044.61.075.9.128a7.016,7.016,0,0,1,3.126,1.34.947.947,0,0,1,.431.576.678.678,0,0,1-.29.74,9.489,9.489,0,0,1-4.627,1.6,3.7,3.7,0,0,1-3.313-1.672c-.186-.256-.185-.258-.448-.081-.111.075-.215.159-.33.227s-.111.123-.017.217A7.335,7.335,0,0,1-80.7,53c.109.212.209.43.3.652a.735.735,0,0,1-.392.982.728.728,0,0,1-.966-.432,6,6,0,0,0-1.385-2.07c-.1-.095-.147-.1-.246,0a5.943,5.943,0,0,0-1.387,2.069.72.72,0,0,1-.738.486.733.733,0,0,1-.654-.514.794.794,0,0,1,.042-.554,7.177,7.177,0,0,1,1.589-2.389c.129-.13.162-.2-.021-.3a2.536,2.536,0,0,1-.4-.273c-.118-.1-.179-.071-.259.051a4.088,4.088,0,0,1-1.3,1.273,3.729,3.729,0,0,1-2.331.5,9.819,9.819,0,0,1-4.3-1.541.728.728,0,0,1-.081-1.239,6.785,6.785,0,0,1,3.063-1.426C-89.812,48.184-89.443,48.144-89.017,48.1Z" transform="translate(100.137 -21.696)" opacity="0.5"/>
</svg>
