<svg xmlns="http://www.w3.org/2000/svg" width="21.874" height="24.608" viewBox="0 0 21.874 24.608">
    <path d="M8.886,0a2.726,2.726,0,0,0-2.64,2.059c-.034,0-.06-.009-.094-.009A2.737,2.737,0,0,0,3.418,4.785a2.52,2.52,0,0,0,.073.6,3.388,3.388,0,0,0-1.769,4.652,3.405,3.405,0,0,0,.389,6.109,3.131,3.131,0,0,0-.06.6,3.074,3.074,0,0,0,3.076,3.076,2.9,2.9,0,0,0,.513-.051,3.069,3.069,0,0,0,5.981-.974V2.734A2.737,2.737,0,0,0,8.886,0ZM24.608,12.988a3.4,3.4,0,0,0-1.722-2.952,3.363,3.363,0,0,0,.355-1.491,3.418,3.418,0,0,0-2.123-3.161,2.709,2.709,0,0,0-2.662-3.332c-.034,0-.064.009-.094.009a2.729,2.729,0,0,0-5.374.675V18.8a3.069,3.069,0,0,0,5.981.974,2.9,2.9,0,0,0,.513.051,3.074,3.074,0,0,0,3.076-3.076,3.131,3.131,0,0,0-.06-.6A3.418,3.418,0,0,0,24.608,12.988Z"
          transform="translate(21.874) rotate(90)" fill="#ff7a7a"/>
</svg>