<svg xmlns="http://www.w3.org/2000/svg" width="20" height="21.999" viewBox="0 0 20 21.999">
  <path id="Icon_map-sheild" data-name="Icon map-sheild" d="M21.079,8.5a9.484,9.484,0,0,1,1.44-4.335l-3.2-3.081a5.879,5.879,0,0,1-3.466,1.384,6.166,6.166,0,0,1-3.394-.657,6.6,6.6,0,0,1-3.4.657,6.3,6.3,0,0,1-3.3-1.256L2.551,4.287A9.282,9.282,0,0,1,3.866,8.5a7.343,7.343,0,0,1-.608,2.8q-.306.85-.534,1.725a8.392,8.392,0,0,0-.206,1.16,5.532,5.532,0,0,0,1.12,3.46,12.989,12.989,0,0,0,2.95,2.482,19.534,19.534,0,0,0,3.465,1.412l.673.3c.211.1.438.192.674.3a2.793,2.793,0,0,1,1.057.943,3.042,3.042,0,0,1,1.085-.943q.438-.181.868-.379l.508-.219c.173-.082.4-.177.676-.282q.512-.195,1.028-.376a8.669,8.669,0,0,0,1.731-.754,14.865,14.865,0,0,0,2.914-2.447,5.451,5.451,0,0,0,1.158-3.494,12.173,12.173,0,0,0-.771-2.792,7.312,7.312,0,0,1-.576-2.9Z" transform="translate(-2.519 -1.08)" fill="#7085ff"/>
</svg>
