<svg xmlns="http://www.w3.org/2000/svg" xmlns:xlink="http://www.w3.org/1999/xlink" width="35.001" height="44.209" viewBox="0 0 35.001 44.209">
  <defs>
    <filter id="Контур_828" x="0" y="0" width="35.001" height="44.209" filterUnits="userSpaceOnUse">
      <feOffset dy="1" input="SourceAlpha"/>
      <feGaussianBlur stdDeviation="1.5" result="blur"/>
      <feFlood flood-opacity="0.749"/>
      <feComposite operator="in" in2="blur"/>
      <feComposite in="SourceGraphic"/>
    </filter>
  </defs>
  <g transform="matrix(1, 0, 0, 1, 0, 0)" filter="url(#Контур_828)">
    <path id="Контур_828-2" data-name="Контур 828" d="M902.033,205.3a1.377,1.377,0,0,1,.075-.213,8.057,8.057,0,0,1,1.5-1.9,14.721,14.721,0,0,1,2.991-2.212,22.039,22.039,0,0,1,4.277-1.853c.142-.045.189-.1.189-.246q-.005-2.822,0-5.643a.189.189,0,0,0-.141-.212,6.792,6.792,0,0,1-2.583-1.744,5.57,5.57,0,0,1-1.317-2.518c-.109-.494-.158-1-.228-1.5a1.832,1.832,0,0,1,.026-.331,2.843,2.843,0,0,1,.218.216,3.52,3.52,0,0,0,1.9,1.318,3.635,3.635,0,0,0,1.82-.011c.358-.087.357-.1.358-.471,0-2.1,0-4.2,0-6.3a.53.53,0,0,0-.222-.451,5.238,5.238,0,0,1-1.786-2.634c-.066-.241-.06-.508-.271-.7-.02-.018,0-.116.029-.146a1.172,1.172,0,0,1,.213-.136c.332.363.781.24,1.2.207a4.124,4.124,0,0,0,2.513-1.126.415.415,0,0,1,.209-.1c.019,0,.076.1.083.163a1.064,1.064,0,0,0,.73.851,3.555,3.555,0,0,0,1.086.258,6.178,6.178,0,0,0,4.074-1.039,10.682,10.682,0,0,0,1.18-.929,4.115,4.115,0,0,0,1.2-2.259,5.9,5.9,0,0,0,.038-2.074,3.723,3.723,0,0,0-.207-.653c-.015-.047-.026-.1-.059-.217.318.092.592.149.849.249a12.34,12.34,0,0,1,2.76,1.57,7.543,7.543,0,0,1,2.653,3.29,7.621,7.621,0,0,1,.611,2.6,15.872,15.872,0,0,1-.018,2.2,9.476,9.476,0,0,1-.5,2.292,7.729,7.729,0,0,1-1.324,2.338,1.54,1.54,0,0,1,1.047.481,1.873,1.873,0,0,1,.546,1.247c.036,1.543.064,3.086.094,4.629q.045,2.382.089,4.764c.005.262.036.524.031.786-.014.882-.025,1.765-.066,2.646a1.416,1.416,0,0,1-.213.58c-.027.049-.2.057-.291.026a5.408,5.408,0,0,0-1.925-.246,5.853,5.853,0,0,0-2.57.719,6.967,6.967,0,0,0-2.839,2.679,5.4,5.4,0,0,0-.463,1.368,5.62,5.62,0,0,0-.09.866.9.9,0,0,1-.033.13,19.443,19.443,0,0,0-17.4-.572Zm18.83-15.5c-.023,0-.04-.011-.052-.006-1.5.631-3.006,1.261-4.506,1.9a.233.233,0,0,0-.135.34,1.168,1.168,0,0,1,.078.438q.048,2.19.084,4.379c.01.624.023.491-.492.628a11.014,11.014,0,0,0-2.813,1.088c-.089.052-.17.118-.255.177a16.5,16.5,0,0,1,8.263.177Q920.948,194.348,920.863,189.8Zm-4.438-3.444c.912-.387,1.785-.761,2.661-1.127a6.059,6.059,0,0,1,1.09-.4c.245-.05.3-.123.3-.347-.009-.959,0-1.918-.007-2.876-.01-.941-.033-1.883-.059-2.824a.636.636,0,0,0-.771-.461,14.371,14.371,0,0,1-2.636.7,8.252,8.252,0,0,1-.992.131,1.339,1.339,0,0,1,.407,1.092q.006,2.775.01,5.55Zm0,2.922a.4.4,0,0,0,.1,0q2.086-.885,4.17-1.775a.215.215,0,0,0,.111-.141c.023-.176.025-.354.036-.532-.007,0-.015-.006-.02,0q-2.129.9-4.257,1.8c-.056.024-.132.081-.137.129C916.415,188.929,916.426,189.1,916.426,189.282Z" transform="translate(-897.53 -167.21)" fill="#f0e"/>
  </g>
</svg>
