<svg xmlns="http://www.w3.org/2000/svg" width="25.445" height="25.452" viewBox="0 0 25.445 25.452">
    <g id="Сгруппировать_923" data-name="Сгруппировать 923" transform="translate(-29.621 -795.767)">
        <path id="Icon_map-car-rental" data-name="Icon map-car-rental"
              d="M12.063,4.418H5.342a3.136,3.136,0,0,1-2.4,1.333A2.9,2.9,0,0,1,0,2.855,2.869,2.869,0,0,1,2.944,0,3.05,3.05,0,0,1,5.674,1.932h.979l.709.71.709-.71h.442l.709.71.709-.71h.442l.709.71.709-.71h.271v-.1L12,1.817l1.4,1.372ZM1.991,2.07a.853.853,0,1,0,.853.852A.853.853,0,0,0,1.991,2.07Z"
              transform="translate(42.245 813.488) rotate(-135)" fill="#fff"/>
        <g id="Icon_ionic-ios-timer" data-name="Icon ionic-ios-timer" transform="translate(29.621 795.767)">
            <path id="Контур_654" data-name="Контур 654"
                  d="M16.663,29.389A12.726,12.726,0,0,1,7.832,7.5a1.021,1.021,0,0,1,1.419,1.47,10.68,10.68,0,1,0,8.431-2.94v3.983a1.024,1.024,0,1,1-2.049,0V4.962a1.024,1.024,0,0,1,1.024-1.024,12.726,12.726,0,0,1,.006,25.452Z"
                  transform="translate(-3.938 -3.938)" fill="#fff"/>
        </g>
    </g>
</svg>
