<svg id="Сгруппировать_560" data-name="Сгруппировать 560" xmlns="http://www.w3.org/2000/svg" width="21.667" height="21.4" viewBox="0 0 21.667 21.4">
  <g id="Сгруппировать_196" data-name="Сгруппировать 196">
    <path id="Контур_72" data-name="Контур 72" d="M17.762,4.547l-.289.253-.288.252-.287.253q-.143.127-.283.256a.586.586,0,0,1-.115.084.384.384,0,0,1-.114.041.341.341,0,0,1-.114,0,.431.431,0,0,1-.114-.035,1.192,1.192,0,0,1-.212-.123,1.035,1.035,0,0,1-.172-.159,1.023,1.023,0,0,1-.132-.194,1.158,1.158,0,0,1-.09-.229.438.438,0,0,1-.017-.117.346.346,0,0,1,.018-.111.386.386,0,0,1,.055-.105.582.582,0,0,1,.1-.1q.148-.125.295-.252l.293-.255.292-.258.294-.258q-.2-.191-.4-.364T16.047,2.8q-.22-.156-.452-.294t-.478-.26q-.208-.1-.423-.193t-.435-.165q-.221-.076-.447-.137t-.46-.109c-.063-.013-.127-.024-.191-.035l-.192-.03-.193-.028-.192-.029a.139.139,0,0,0-.045,0,.055.055,0,0,0-.029.014.071.071,0,0,0-.018.029.226.226,0,0,0-.009.045q-.023.18-.047.36l-.048.36q-.024.18-.048.36t-.046.36a.452.452,0,0,1-.021.093.356.356,0,0,1-.039.08.364.364,0,0,1-.059.068.48.48,0,0,1-.079.058.961.961,0,0,1-.279.106,1.423,1.423,0,0,1-.323.032,1.307,1.307,0,0,1-.312-.04.738.738,0,0,1-.249-.112.32.32,0,0,1-.056-.051.231.231,0,0,1-.037-.059.237.237,0,0,1-.017-.07.345.345,0,0,1,0-.082q.026-.183.05-.365t.049-.365q.024-.182.049-.365t.051-.365a.182.182,0,0,0,0-.054.046.046,0,0,0-.015-.03.057.057,0,0,0-.032-.011.25.25,0,0,0-.049,0,9.333,9.333,0,0,0-1.151.194,9.1,9.1,0,0,0-1.112.337A9.327,9.327,0,0,0,7.6,2.527a10.024,10.024,0,0,0-1.034.628l-.085.06-.084.061-.084.061L6.222,3.4a.19.19,0,0,0-.035.029.05.05,0,0,0-.014.026.045.045,0,0,0,.006.027A.164.164,0,0,0,6.2,3.51l.215.248.214.249.214.249.216.248a.356.356,0,0,1,.055.081.265.265,0,0,1,.025.085.284.284,0,0,1,0,.091.423.423,0,0,1-.034.1,1.578,1.578,0,0,1-.156.259,1.4,1.4,0,0,1-.431.382,1.583,1.583,0,0,1-.273.123.436.436,0,0,1-.1.023.29.29,0,0,1-.092-.005A.258.258,0,0,1,5.966,5.6a.335.335,0,0,1-.075-.069q-.1-.124-.206-.246l-.209-.244L5.267,4.8l-.208-.244a.192.192,0,0,0-.031-.031A.045.045,0,0,0,5,4.515a.054.054,0,0,0-.03.012.25.25,0,0,0-.038.035q-.353.382-.658.788a9.677,9.677,0,0,0-.564.835A9.372,9.372,0,0,0,2.866,8q-.043.127-.081.254t-.073.255q-.035.128-.067.256t-.063.257a.109.109,0,0,0,0,.045.027.027,0,0,0,.015.02.064.064,0,0,0,.027,0h.033l.317,0,.318,0,.318,0h.318a.414.414,0,0,1,.1.011.269.269,0,0,1,.082.035.239.239,0,0,1,.063.059.313.313,0,0,1,.043.084,1.219,1.219,0,0,1,.062.275,1.147,1.147,0,0,1,0,.275,1.267,1.267,0,0,1-.07.275,1.594,1.594,0,0,1-.136.274A.446.446,0,0,1,4,10.468a.333.333,0,0,1-.075.057.326.326,0,0,1-.088.033.423.423,0,0,1-.1.009l-.307-.005-.307,0-.307,0-.307,0a.218.218,0,0,0-.056,0,.066.066,0,0,0-.053.052.219.219,0,0,0-.005.052,8.489,8.489,0,0,0,.038.853,7.72,7.72,0,0,0,.124.826,7.26,7.26,0,0,0,.212.8,7.1,7.1,0,0,0,.3.769q.065.14.135.277t.147.27q.076.133.158.263t.168.256a.152.152,0,0,0,.031.035.039.039,0,0,0,.028.009A.064.064,0,0,0,3.769,15a.394.394,0,0,0,.036-.03l.225-.2.226-.2.225-.2q.112-.1.223-.2a.542.542,0,0,1,.1-.074.363.363,0,0,1,.1-.039.311.311,0,0,1,.1,0,.366.366,0,0,1,.1.028,1.234,1.234,0,0,1,.234.131,1.006,1.006,0,0,1,.186.173.975.975,0,0,1,.136.217,1.147,1.147,0,0,1,.083.262.372.372,0,0,1,.007.1.309.309,0,0,1-.019.089.348.348,0,0,1-.046.084.5.5,0,0,1-.074.079l-.521.455-.52.456-.519.457-.518.458a.238.238,0,0,1-.044.032.072.072,0,0,1-.036.01.063.063,0,0,1-.032-.011.2.2,0,0,1-.034-.029,8.631,8.631,0,0,1-.95-1.131,8.087,8.087,0,0,1-.722-1.254,8.326,8.326,0,0,1-.493-1.378,9.374,9.374,0,0,1-.263-1.5q-.032-.339-.038-.68t.014-.684q.02-.343.065-.687t.115-.69a11.112,11.112,0,0,1,.412-1.5,10.733,10.733,0,0,1,.615-1.411,10.982,10.982,0,0,1,.819-1.324A11.88,11.88,0,0,1,3.993,3.577,12.253,12.253,0,0,1,5.251,2.422,11.259,11.259,0,0,1,6.62,1.487,10.992,10.992,0,0,1,8.1.772,11.433,11.433,0,0,1,9.688.277q.359-.084.718-.14t.716-.086q.358-.029.714-.032t.711.021a9.687,9.687,0,0,1,1.445.2,8.5,8.5,0,0,1,1.341.412,8.027,8.027,0,0,1,1.234.623,8.243,8.243,0,0,1,1.124.837A8.37,8.37,0,0,1,18.7,3.18a7.891,7.891,0,0,1,.791,1.206,8.184,8.184,0,0,1,.566,1.346A9.274,9.274,0,0,1,20.4,7.216q.054.37.077.743t.015.75q-.008.377-.047.757t-.108.762a10.917,10.917,0,0,1-.374,1.479,10.69,10.69,0,0,1-.575,1.4,11.081,11.081,0,0,1-.777,1.326,12.115,12.115,0,0,1-.978,1.247q-.181.2-.372.4t-.39.377q-.2.184-.406.359t-.421.343a.4.4,0,0,1-.056.038.106.106,0,0,1-.047.014A.078.078,0,0,1,15.9,17.2a.217.217,0,0,1-.048-.045l-.393-.465-.4-.463-.4-.461-.4-.459a.357.357,0,0,1-.056-.085.277.277,0,0,1-.024-.088.3.3,0,0,1,.005-.092.421.421,0,0,1,.033-.1,1.586,1.586,0,0,1,.157-.26,1.4,1.4,0,0,1,.435-.385,1.573,1.573,0,0,1,.277-.123.434.434,0,0,1,.1-.022.289.289,0,0,1,.094.007.265.265,0,0,1,.084.038.355.355,0,0,1,.075.069q.084.1.17.2l.173.2.173.2q.086.1.171.2a.259.259,0,0,0,.039.04.063.063,0,0,0,.036.015.069.069,0,0,0,.04-.013.286.286,0,0,0,.05-.043q.327-.339.617-.7t.543-.741q.253-.381.468-.784t.392-.828q.066-.158.125-.318t.111-.321q.053-.161.1-.323t.091-.325a.086.086,0,0,0,0-.044.024.024,0,0,0-.017-.017.08.08,0,0,0-.028,0l-.031,0-.32,0-.32,0-.32,0H17.4a.4.4,0,0,1-.089-.009.255.255,0,0,1-.074-.028.212.212,0,0,1-.057-.049.258.258,0,0,1-.041-.07,1.211,1.211,0,0,1-.075-.289,1.129,1.129,0,0,1,0-.29,1.262,1.262,0,0,1,.074-.289,1.625,1.625,0,0,1,.146-.288.378.378,0,0,1,.062-.075.325.325,0,0,1,.074-.052.345.345,0,0,1,.086-.03.438.438,0,0,1,.1-.009l.322,0,.322,0,.322,0,.322,0a.252.252,0,0,0,.044,0,.067.067,0,0,0,.03-.012.056.056,0,0,0,.018-.027.171.171,0,0,0,.008-.047q.015-.262.012-.521t-.023-.514q-.02-.255-.056-.507t-.089-.5q-.072-.339-.173-.663T18.43,5.77q-.13-.309-.288-.6T17.8,4.593l-.007-.01-.008-.011-.01-.011Z" transform="translate(0 4.147)" fill="#fff"/>
    <path id="Контур_73" data-name="Контур 73" d="M5.175,1.286l-.216.371-.214.367-.212.364-.211.363-.249.428-.249.428-.249.428-.249.428c-.007.012-.013.024-.019.036a.114.114,0,0,1-.021.03.049.049,0,0,1-.032.013A.112.112,0,0,1,3.2,4.529l-.741-.356-.741-.354L.98,3.465l-.74-.353-.007,0-.008,0L.213,3.1.2,3.09l.087-.032.083-.031L.449,3l.08-.029.158-.058.158-.058L1,2.8l.159-.054a.226.226,0,0,0,.049-.022.073.073,0,0,0,.026-.026.069.069,0,0,0,.008-.035.21.21,0,0,0-.008-.047q-.047-.187-.094-.373l-.093-.373L.958,1.491Q.912,1.3.864,1.118a.257.257,0,0,1-.009-.051A.076.076,0,0,1,.862,1.03.079.079,0,0,1,.891,1,.256.256,0,0,1,.946.974l.66-.238L2.266.5l.66-.241.66-.242A.233.233,0,0,1,3.637,0a.062.062,0,0,1,.036,0A.057.057,0,0,1,3.7.031a.2.2,0,0,1,.016.047q.046.188.092.376L3.9.83l.094.376q.047.188.093.377a.182.182,0,0,0,.015.043.048.048,0,0,0,.021.022.055.055,0,0,0,.032,0A.232.232,0,0,0,4.2,1.638l.227-.085.227-.083.228-.082.228-.082.013,0,.014,0,.017-.005Z" transform="translate(4.817)" fill="#fff"/>
  </g>
  <path id="Контур_76" data-name="Контур 76" d="M1.5.818s.2.193.516.5.731.715,1.162,1.151.873.9,1.23,1.3a4.943,4.943,0,0,1,.714.942,1.493,1.493,0,0,1,.126.619,1.731,1.731,0,0,1-.127.628,1.927,1.927,0,0,1-.35.564,1.963,1.963,0,0,1-.545.428,1.818,1.818,0,0,1-.644.2,1.591,1.591,0,0,1-.62-.049,1.408,1.408,0,0,1-.527-.28,1.363,1.363,0,0,1-.364-.492,5.526,5.526,0,0,1-.235-1.2c-.07-.554-.13-1.219-.18-1.859s-.088-1.254-.114-1.708S1.5.818,1.5.818Z" transform="translate(7.638 8.812)" fill="#fff"/>
</svg>
