<svg xmlns="http://www.w3.org/2000/svg" width="22.409" height="25.61" viewBox="0 0 22.409 25.61">
    <path id="Icon_awesome-bell" data-name="Icon awesome-bell"
          d="M11.2,25.61a3.2,3.2,0,0,0,3.2-3.2H8A3.2,3.2,0,0,0,11.2,25.61Zm10.774-7.489c-.966-1.038-2.775-2.6-2.775-7.718a7.9,7.9,0,0,0-6.4-7.761V1.6a1.6,1.6,0,1,0-3.2,0V2.643a7.9,7.9,0,0,0-6.4,7.761c0,5.117-1.808,6.679-2.775,7.718A1.563,1.563,0,0,0,0,19.208a1.6,1.6,0,0,0,1.606,1.6H20.8a1.6,1.6,0,0,0,1.606-1.6,1.562,1.562,0,0,0-.431-1.086Z"
          transform="translate(0)" fill="#fff"/>
</svg>
