<svg xmlns="http://www.w3.org/2000/svg" width="19.704" height="18.062" viewBox="0 0 19.704 18.062">
  <path id="Контур_507" data-name="Контур 507" d="M19.678,8.476,17.751,3.338A5.144,5.144,0,0,0,12.935,0H1.642A1.644,1.644,0,0,0,0,1.642V16.42a1.644,1.644,0,0,0,1.642,1.642h9.507a.411.411,0,0,0,.407-.352,5.286,5.286,0,0,1,5.982-4.521.412.412,0,0,0,.434-.251l1.7-4.161A.414.414,0,0,0,19.678,8.476Zm-8.595,6.3H2.053a.411.411,0,0,1,0-.821h9.031a.411.411,0,0,1,0,.821ZM2.463,9.031V2.463H12.935a2.68,2.68,0,0,1,2.51,1.74l1.649,4.4-.146.429Zm14.368,2.463H14.368a.411.411,0,0,1,0-.821h2.463a.411.411,0,0,1,0,.821Z" fill="#fff"/>
</svg>
