<svg xmlns="http://www.w3.org/2000/svg" width="23.952" height="23.952" viewBox="0 0 23.952 23.952">
  <path id="Icon_awesome-plus" data-name="Icon awesome-plus" d="M22.241,11.66h-7.7v-7.7A1.711,1.711,0,0,0,12.831,2.25H11.12A1.711,1.711,0,0,0,9.41,3.961v7.7h-7.7A1.711,1.711,0,0,0,0,13.37v1.711a1.711,1.711,0,0,0,1.711,1.711h7.7v7.7A1.711,1.711,0,0,0,11.12,26.2h1.711a1.711,1.711,0,0,0,1.711-1.711v-7.7h7.7a1.711,1.711,0,0,0,1.711-1.711V13.37A1.711,1.711,0,0,0,22.241,11.66Z" transform="translate(0 -2.25)" fill="#fff"/>
</svg>
