<svg xmlns="http://www.w3.org/2000/svg" xmlns:xlink="http://www.w3.org/1999/xlink" width="69.92" height="72.178" viewBox="0 0 69.92 72.178">
    <defs>
        <filter id="Объединение_84" x="0" y="0" width="69.92" height="72.178" filterUnits="userSpaceOnUse">
            <feOffset dy="1" input="SourceAlpha"/>
            <feGaussianBlur stdDeviation="1.5" result="blur"/>
            <feFlood/>
            <feComposite operator="in" in2="blur"/>
            <feComposite in="SourceGraphic"/>
        </filter>
    </defs>
    <g transform="matrix(1, 0, 0, 1, 0, 0)" filter="url(#Объединение_84)">
        <path id="Объединение_84-2" data-name="Объединение 84" d="M18126.924,2764.7a14.985,14.985,0,0,1-9.238-5.516,15.408,15.408,0,0,1-3.258-10.264,15.987,15.987,0,0,1,2.162-7.527c1.271-2.258,3.41-3.761,5.473-5.265a15.974,15.974,0,0,1,4.834-2.362c.744-.223,1.514-.337,2.395-.531-.189.119-.279.171-.416.251.664-.1,1.275-.19,1.883-.29a14.612,14.612,0,0,1,4.723.232,19.211,19.211,0,0,0,3.572.346c1.93-.057,3.248-1.266,4.453-2.561,1.836-1.982,3.264-4.316,5.293-6.147,2.168-1.958,5.047-2.675,6.973-1.665a.527.527,0,0,1,.26.36c.006.1-.18.309-.27.3-4.207-.375-5.947,2.751-7.92,5.54a6.873,6.873,0,0,1-3.012,2.542c-.471.2-.973.465-.963,1.058a.8.8,0,0,0,.492.574,2.3,2.3,0,0,0,2.035-.484c1.754-1.252,2.6-3.225,3.941-4.809,2.148-2.552,4.377-3.491,6.578-2.632a2.723,2.723,0,0,1,1.119.852q.48-2.051.953-4.11a1.69,1.69,0,0,0,.029-.171c-.148.119-.252.2-.352.285-.588.484-1.182.963-1.77,1.451-.146.124-.309.2-.475.062s-.133-.318-.023-.5c.455-.773.906-1.551,1.381-2.367-.418.033-.793.066-1.166.1q-3.53.313-7.053.631a2.467,2.467,0,0,1-.262.009.284.284,0,0,1-.266-.237.277.277,0,0,1,.133-.327.9.9,0,0,1,.275-.1q3.5-1.017,7-2.03c.1-.028.205-.062.355-.109-.535-.4-1.039-.777-1.541-1.152q-2.062-1.529-4.121-3.059c-.039-.028-.076-.062-.119-.09a.31.31,0,0,1-.143-.422c.09-.185.246-.2.428-.161l1.641.341c1.309.271,2.623.545,3.938.816a.534.534,0,0,0,.084,0c.014-.119-.07-.185-.113-.266q-1.11-1.9-2.225-3.79c-.033-.052-.062-.1-.09-.152a.318.318,0,0,1,.027-.451.322.322,0,0,1,.471.043l1.238,1.124c.834.764,1.674,1.527,2.547,2.319.133-.726.256-1.414.379-2.1q.5-2.825,1.01-5.644c.039-.213.119-.389.371-.365.232.019.273.208.283.408.1,2.191.186,4.382.281,6.574,0,.1.014.2.027.4.346-.655.65-1.224.953-1.8q2.021-3.82,4.041-7.646c.2-.379.4-.759.6-1.138.1-.189.229-.308.441-.218s.219.275.156.47q-.867,2.618-1.736,5.227-1.052,3.173-2.105,6.341c-.037.119-.07.242-.123.427,1.205-.612,2.348-1.2,3.49-1.774,1.182-.6,2.357-1.2,3.539-1.8a1.344,1.344,0,0,1,.18-.09.31.31,0,0,1,.342.5,2.417,2.417,0,0,1-.318.261l-5.15,4.083a.6.6,0,0,0-.242.242c.641.09,1.268.175,1.893.266.313.042.621.09.936.123.207.024.406.071.412.323,0,.271-.205.318-.428.346-1.133.147-2.271.3-3.4.455-.115.015-.229.038-.408.066.607.4,1.162.769,1.721,1.139q4.063,2.682,8.131,5.359c.18.123.316.266.193.483s-.312.176-.512.09q-4.831-2.113-9.672-4.211c-.1-.043-.2-.081-.322-.128a.524.524,0,0,0,.186.294q2.285,2.81,4.576,5.61c.152.185.381.384.115.622-.248.223-.428,0-.6-.161q-2.648-2.427-5.289-4.852c-.07-.066-.146-.128-.236-.2-.043.109.01.185.027.261.205.764.408,1.527.617,2.291.057.213.133.441-.143.55s-.385-.114-.492-.3c-.418-.707-.836-1.414-1.262-2.115-.049-.081-.072-.185-.215-.251-.094.232-.184.465-.283.7q-1.474,3.479-2.951,6.958c-.08.19-.176.346-.408.29s-.27-.251-.217-.465c.193-.833.391-1.667.584-2.5-2.766-.973-3.99-.523-5.91,1.932-1.182,1.513-2.111,3.239-3.672,4.435a8.053,8.053,0,0,1-1.309.692c3.529.4,7.209,1.727,10.723-.455a.26.26,0,0,1,.152-.019h.076a2.11,2.11,0,0,1-.146.356c-2.187,3.329-5.137,4.216-8.988,3.168-2.377-.645-4.605,1.314-4.3,3.368a2.008,2.008,0,0,0,3.316,1.385c1.654-1.267,3.268-2.585,5.416-2.931a9.833,9.833,0,0,1,1.295-.09c.08,0,.223.109.227.181a.975.975,0,0,1-.08.512.352.352,0,0,1-.318.133c-1.631-.413-5.5,2.153-6.217,3.624-1.75,3.576-2.191,7.583-3.832,11.169-.256.569-.508,1.133-.764,1.7-.2.294-.4.588-.6.882-1.441,1.537-2.627,3.23-4.3,4.354l-1.281.7-.1.043c-.393.588-1.584.455-2.371,1.058l.014-.014a11.743,11.743,0,0,1-4.92,1.031A15.721,15.721,0,0,1,18126.924,2764.7Zm-5.492-14.646a8.913,8.913,0,0,1,1.643,2.215,28.532,28.532,0,0,0,3.566,5.331,12.759,12.759,0,0,0,4.463,3.5,14.319,14.319,0,0,0,7.6-4.615,33.028,33.028,0,0,1-16.713-8.072A14.487,14.487,0,0,0,18121.432,2750.052Zm-.312,6.578a.671.671,0,0,0,.072.1,14.1,14.1,0,0,0,1.85,1.636c.113.081.166.251.246.379-.129.023-.256.052-.441.085a3.976,3.976,0,0,1,.939.336,10.913,10.913,0,0,0,3.51,1.589,17.017,17.017,0,0,1-2.029-2.03,29.891,29.891,0,0,1-3.781-5.653,6.9,6.9,0,0,0-.492-.8A14.521,14.521,0,0,0,18121.119,2756.63Zm1.67-9.894a31.466,31.466,0,0,0,17.064,8.167,34.534,34.534,0,0,0,1.869-3.367c.592-1.171,1.063-2.4,1.57-3.619a8.866,8.866,0,0,0-1.982-1.058,2.126,2.126,0,0,1-1.025-.332,17.96,17.96,0,0,0-5.545-.455c-.881.038-1.783.1-2.65.171-1.357.1-2.756.213-4.164.213a7.059,7.059,0,0,1-4.277-1.1A15.34,15.34,0,0,0,18122.789,2746.737Zm-5.174,3.5a8.864,8.864,0,0,0,1.5,4.24,16.273,16.273,0,0,1,.342-3.771,2.719,2.719,0,0,0-.973-.437,1.967,1.967,0,0,0-.412-.038Zm-.049-2.035h1.361l-.01.375a3.938,3.938,0,0,1,1.006.361,15.908,15.908,0,0,1,.707-1.812c-.777-.778-1.521-1.6-2.215-2.438l-.109-.133A12.58,12.58,0,0,0,18117.566,2748.207Zm1.58-5.44.621.759c.541.668,1.125,1.318,1.73,1.949.3-.5.627-.986.979-1.461a5.735,5.735,0,0,1,.051-4.984A12.1,12.1,0,0,0,18119.146,2742.767Zm6.943-5.559-.854.934a6.755,6.755,0,0,0-.963,1.314,3.922,3.922,0,0,0-.01,4.045l.039.043.146.161a4.972,4.972,0,0,0,3.57,1.024h.01c1.338,0,2.7-.1,4.018-.2.887-.071,1.8-.137,2.713-.18a23.754,23.754,0,0,1,4.221.147,2.574,2.574,0,0,1,.043-.863c.318-1.542,1.912-1.869,2.609-3.121a3.823,3.823,0,0,1-1.367.081,2.473,2.473,0,0,0-.687,0,7.6,7.6,0,0,1-3.52.247c-1.242-.247-2.418-.73-2.531-2.187s.91-1.484,2.139-1.167a5.472,5.472,0,0,0-.939-.489,15.8,15.8,0,0,0-4.029-.53A14.518,14.518,0,0,0,18126.09,2737.208Zm33.158-12.317c.744-.953,1.389-3.064,1.133-3.685A6.8,6.8,0,0,0,18159.248,2724.891Zm4.059-3.164a2.807,2.807,0,0,0-1.764-1.684A2.425,2.425,0,0,0,18163.307,2721.728Zm3.7-.531a11.162,11.162,0,0,0-4.4-2.248A9.429,9.429,0,0,0,18167,2721.2Z" transform="translate(-18109.42 -2698.82)" fill="#fff" stroke="rgba(0,0,0,0)" stroke-width="1"/>
    </g>
</svg>