<svg xmlns="http://www.w3.org/2000/svg" width="14.938" height="15.932" viewBox="0 0 14.938 15.932">
  <path id="Icon_awesome-shield-alt" data-name="Icon awesome-shield-alt" d="M15.145,2.606,9.17.116a1.5,1.5,0,0,0-1.148,0L2.046,2.606a1.492,1.492,0,0,0-.921,1.379c0,6.177,3.563,10.447,6.893,11.835a1.5,1.5,0,0,0,1.148,0c2.667-1.111,6.9-4.948,6.9-11.835A1.494,1.494,0,0,0,15.145,2.606ZM8.6,13.89l0-11.857,5.474,2.281c-.1,4.712-2.555,8.126-5.471,9.576Z" transform="translate(-1.125 -0.002)" fill="#fff"/>
</svg>
