<svg xmlns="http://www.w3.org/2000/svg" width="20" height="17.5" viewBox="0 0 20 17.5">
  <path id="Icon_awesome-hamburger" data-name="Icon awesome-hamburger" d="M18.125,11H1.875a1.875,1.875,0,1,0,0,3.75h16.25a1.875,1.875,0,0,0,0-3.75Zm.625,5H1.25a.625.625,0,0,0-.625.625v.625a2.5,2.5,0,0,0,2.5,2.5h13.75a2.5,2.5,0,0,0,2.5-2.5v-.625A.625.625,0,0,0,18.75,16ZM2.291,9.75H17.709a1.9,1.9,0,0,0,1.36-2.964A10.74,10.74,0,0,0,10,2.25,10.742,10.742,0,0,0,.93,6.786,1.9,1.9,0,0,0,2.291,9.75ZM15,5.375A.625.625,0,1,1,14.375,6,.625.625,0,0,1,15,5.375Zm-5-1.25a.625.625,0,1,1-.625.625A.625.625,0,0,1,10,4.125ZM5,5.375A.625.625,0,1,1,4.375,6,.625.625,0,0,1,5,5.375Z" transform="translate(0 -2.25)" fill="#ff9770"/>
</svg>
