<svg xmlns="http://www.w3.org/2000/svg" xmlns:xlink="http://www.w3.org/1999/xlink" width="111.513" height="122.331" viewBox="0 0 111.513 122.331">
  <defs>
    <filter id="Контур_744" x="0" y="0" width="111.513" height="122.331" filterUnits="userSpaceOnUse">
      <feOffset dy="1" input="SourceAlpha"/>
      <feGaussianBlur stdDeviation="1" result="blur"/>
      <feFlood flood-opacity="0.749"/>
      <feComposite operator="in" in2="blur"/>
      <feComposite in="SourceGraphic"/>
    </filter>
  </defs>
  <g transform="matrix(1, 0, 0, 1, 0, 0)" filter="url(#Контур_744)">
    <path id="Контур_744-2" data-name="Контур 744" d="M-1068.3,250.1q-23.9,0-47.794-.016a6.636,6.636,0,0,1-2.473-.379,4.007,4.007,0,0,1-2.463-4.13c.02-4.122.005-8.244.007-12.366q.018-35.908.036-71.817c0-.527-.05-1.055-.06-1.583a4.691,4.691,0,0,1,1.008-3q7.889-10.471,15.729-20.98a4.764,4.764,0,0,1,4.119-2.057q31.9.015,63.805,0a4.767,4.767,0,0,1,4.114,2.065q7.82,10.523,15.729,20.98a5.006,5.006,0,0,1,1,3.324c-.06,1.795-.055,3.592-.054,5.389q.023,39.951.05,79.9c0,3.047-1.648,4.669-4.725,4.67Q-1044.285,250.105-1068.3,250.1Zm-.009-86.58h-43.67c-1.1,0-1.108,0-1.1,1.084.019,1.691.07,3.382.072,5.072q.025,35.549.038,71.1c0,1.257,0,1.256,1.214,1.256q43.471,0,86.943,0c1.341,0,1.18.107,1.182-1.195q.051-38.125.1-76.25c0-1.062,0-1.065-1.11-1.065Q-1046.475,163.52-1068.31,163.522Zm40.579-8.1c-.2-.3-.336-.514-.485-.714q-4.6-6.149-9.205-12.3a1.241,1.241,0,0,0-1.125-.546q-29.755.02-59.51,0a1.243,1.243,0,0,0-1.121.558q-4.638,6.223-9.3,12.428c-.117.156-.2.336-.342.574Z" transform="translate(1124.05 -131.77)" fill="#aab6ef"/>
  </g>
</svg>
