<svg xmlns="http://www.w3.org/2000/svg" xmlns:xlink="http://www.w3.org/1999/xlink" width="58.803" height="27.178" viewBox="0 0 58.803 27.178">
  <defs>
    <linearGradient id="linear-gradient" x1="1" y1="0.5" x2="0.015" y2="0.5" gradientUnits="objectBoundingBox">
      <stop offset="0" stop-color="#fff"/>
      <stop offset="1" stop-color="gray" stop-opacity="0"/>
    </linearGradient>
    <filter id="Объединение_10" x="0" y="9.087" width="58.803" height="14.001" filterUnits="userSpaceOnUse">
      <feOffset dy="1" input="SourceAlpha"/>
      <feGaussianBlur stdDeviation="1.5" result="blur"/>
      <feFlood/>
      <feComposite operator="in" in2="blur"/>
      <feComposite in="SourceGraphic"/>
    </filter>
    <filter id="Вычитание_88" x="17" y="0" width="25.781" height="27.178" filterUnits="userSpaceOnUse">
      <feOffset dy="1" input="SourceAlpha"/>
      <feGaussianBlur stdDeviation="1.5" result="blur-2"/>
      <feFlood/>
      <feComposite operator="in" in2="blur-2"/>
      <feComposite in="SourceGraphic"/>
    </filter>
  </defs>
  <g id="Сгруппировать_2516" data-name="Сгруппировать 2516" transform="translate(-821.5 -860.782)">
    <g transform="matrix(1, 0, 0, 1, 821.5, 860.78)" filter="url(#Объединение_10)">
      <path id="Объединение_10-2" data-name="Объединение 10" d="M-5991-15023v-1h24.571v-1H-5991v-1h24.571v-1H-5991v-1h27.29v.061h.013v4.628h-.013v.313Zm41.9-.312v-4.628h.313c.12,0,.24,0,.364,0l.36.011c.12.008.241.012.36.023s.24.015.356.026l.352.033.352.046c.115.015.231.03.347.049s.228.038.339.061.227.041.338.063.219.05.331.076.218.053.326.079.214.057.322.087l.313.094c.107.034.21.068.309.105s.206.072.3.109.2.076.3.117c.047.019.1.038.146.061s.094.041.142.061.094.041.137.063.09.046.137.064l.133.067.128.068.129.067c.043.023.082.046.125.068l.12.071c.039.023.077.05.116.072s.077.049.115.071.078.049.112.075a1.045,1.045,0,0,1,.107.076c.039.026.074.049.107.075s.069.053.1.075.064.053.1.079l.262.215-.262.212c-.034.026-.068.053-.1.079s-.069.053-.1.075-.068.053-.107.079-.068.049-.107.075-.073.05-.112.072-.077.049-.115.075-.077.045-.116.071-.081.046-.12.072-.085.045-.125.067l-.129.068-.128.067c-.043.022-.091.046-.133.064s-.09.045-.137.064-.09.045-.137.063l-.142.064a1.345,1.345,0,0,0-.146.061c-.1.037-.2.079-.3.116s-.2.072-.3.109-.2.068-.309.1-.21.063-.313.094l-.322.091-.326.079c-.112.026-.223.049-.331.075s-.228.046-.338.064l-.339.057c-.115.019-.231.037-.347.053s-.232.03-.348.041-.236.026-.356.034-.236.022-.356.03-.24.015-.36.019-.24.012-.36.012-.244,0-.364,0Zm-11.659,0v-.377h-1.724v-3.87h1.724v-.381h10.441v4.628Z" transform="translate(5995.5 15040.59)" fill="url(#linear-gradient)"/>
    </g>
    <g transform="matrix(1, 0, 0, 1, 821.5, 860.78)" filter="url(#Вычитание_88)">
      <path id="Вычитание_88-2" data-name="Вычитание 88" d="M7.769,18.178H6.474V15.455h-1.3v2.2L3.409,13.723A7.436,7.436,0,0,1,0,7.6C0,3.411,3.765,0,8.392,0s8.39,3.411,8.39,7.6a7.433,7.433,0,0,1-3.409,6.119l-1.724,3.83v-2.1H10.356v2.72H9.063V15.455H7.769v2.722Zm.623-6.652A.689.689,0,0,0,7.727,12l-.323.973a.7.7,0,0,0,.665.917h.645a.7.7,0,0,0,.664-.917L9.054,12A.687.687,0,0,0,8.392,11.526Zm4.27-3.595a1.938,1.938,0,0,0-.683.19l-.118.044-.022.008-.21.078-.172.063a4.8,4.8,0,0,0-1.775.855,2.909,2.909,0,0,0,.376,2c.34.558.569.564.579.564a.257.257,0,0,0,.063.007,2.976,2.976,0,0,0,.929-.232l.118-.042.013,0,.076-.027a4.5,4.5,0,0,0,2.118-1.24,1.369,1.369,0,0,0-.109-1.584,1.334,1.334,0,0,0-.769-.6A1.487,1.487,0,0,0,12.661,7.931Zm-8.538,0a1.526,1.526,0,0,0-.417.077,1.349,1.349,0,0,0-.768.6,1.377,1.377,0,0,0-.11,1.584,4.483,4.483,0,0,0,2.117,1.24L5,11.456l.014,0,.138.048a2.909,2.909,0,0,0,.926.232.346.346,0,0,0,.047,0h.011c.044,0,.272-.049.586-.567a2.874,2.874,0,0,0,.373-2,4.658,4.658,0,0,0-1.774-.854l-.168-.063c-.112-.043-.213-.079-.3-.111L4.8,8.121A1.947,1.947,0,0,0,4.123,7.931Z" transform="translate(21.5 3.5)" fill="#fff"/>
    </g>
  </g>
</svg>