<svg xmlns="http://www.w3.org/2000/svg" width="32.77" height="31.962" viewBox="0 0 32.77 31.962">
  <g id="_033---Knife" data-name="033---Knife" transform="translate(0 0.001)">
    <path id="Объединение_130" data-name="Объединение 130" d="M-23180.84-11811.453a2.153,2.153,0,0,1-2.059-2.061,3.579,3.579,0,0,1,.506-1.553,7.56,7.56,0,0,0,3.654,1.263,9.275,9.275,0,0,0,1.053.058,7.677,7.677,0,0,0,2-.244c-.035.093-.076.187-.105.279-.514,1.459-2.5,2.322-4.246,2.322A4.846,4.846,0,0,1-23180.84-11811.453Zm2.223-3.521a6.164,6.164,0,0,1-3.17-1.111c.373-.57.832-1.2,1.361-1.867.006-.006.012-.018.018-.023a103.849,103.849,0,0,1,9.832-10.286l3.775,4.218a25.437,25.437,0,0,0-8.086,8.378,4.436,4.436,0,0,1-2.814.74A8.9,8.9,0,0,1-23178.617-11814.974Zm.426-2.3a.592.592,0,0,0,.594.588.59.59,0,0,0,.588-.588.59.59,0,0,0-.588-.588A.591.591,0,0,0-23178.191-11817.277Zm7.068-7.063a.586.586,0,0,0,.588.588.586.586,0,0,0,.588-.588.591.591,0,0,0-.588-.594A.591.591,0,0,0-23171.123-11824.341Zm5.748.122-4.334-4.835a.59.59,0,0,1,.047-.832l.879-.785a.6.6,0,0,1,.424-.151.608.608,0,0,1,.408.2l4.328,4.835a.568.568,0,0,1,.15.425.581.581,0,0,1-.2.407l-.873.785a.6.6,0,0,1-.395.149A.579.579,0,0,1-23165.375-11824.219Zm1.781-3.3,4.375-3.206a19.438,19.438,0,0,0,7.959-12.387l.238-.151a.6.6,0,0,1,.635.018.594.594,0,0,1,.25.576,20.74,20.74,0,0,1-8.385,12.9c-1.75,1.285-3.152,2.31-4.281,3.136Zm-3.416-3.816a101.994,101.994,0,0,1,14.371-10.915,18.472,18.472,0,0,1-7.277,10.577l-4.469,3.276Z" transform="translate(23182.898 11843.35)" fill="#fff"/>
  </g>
</svg>
