<svg xmlns="http://www.w3.org/2000/svg" width="27.133" height="27.133" viewBox="0 0 27.133 27.133">
    <g transform="translate(27.133) rotate(90)">
        <path d="M26.863,19.862a13.743,13.743,0,0,0-6.512-1.779c-.366,0-.729.015-1.088.037a17.736,17.736,0,0,0,2.45-1.584,18.271,18.271,0,0,0,5.393-7.893A.567.567,0,0,0,27,8.1a.579.579,0,0,0-.515-.194,15.69,15.69,0,0,0-7.529,3.831,24.3,24.3,0,0,0-2.57,2.771,17.533,17.533,0,0,0,.573-4.346A19.872,19.872,0,0,0,14.04.239a.587.587,0,0,0-.945,0,19.871,19.871,0,0,0-2.919,9.926,17.533,17.533,0,0,0,.573,4.346,24.291,24.291,0,0,0-2.57-2.771A15.69,15.69,0,0,0,.65,7.908.583.583,0,0,0,.135,8.1a.567.567,0,0,0-.106.54,18.271,18.271,0,0,0,5.393,7.893,17.741,17.741,0,0,0,2.45,1.584c-.359-.022-.722-.037-1.088-.037A13.742,13.742,0,0,0,.272,19.862a.566.566,0,0,0,0,.968,13.95,13.95,0,0,0,6.509,1.777,10.108,10.108,0,0,0,2.286-.283A4.956,4.956,0,0,0,7.915,25.46.565.565,0,0,0,8.48,26a.574.574,0,0,0,.161-.023A8.552,8.552,0,0,0,12.3,23.543a8.285,8.285,0,0,0,.7-.952v3.976a.565.565,0,1,0,1.131,0V22.591a8.279,8.279,0,0,0,.7.952,8.553,8.553,0,0,0,3.658,2.435.574.574,0,0,0,.161.023.565.565,0,0,0,.565-.541,4.955,4.955,0,0,0-1.159-3.141,10.014,10.014,0,0,0,2.29.289,13.742,13.742,0,0,0,6.512-1.779.566.566,0,0,0,0-.967Z"
              transform="translate(-0.001 0)" fill="#ff7a7a"/>
    </g>
</svg>