<svg xmlns="http://www.w3.org/2000/svg" width="25.231" height="36.699" viewBox="0 0 25.231 36.699">
    <path d="M24.084,13.762H22.937a1.147,1.147,0,0,0-1.147,1.147V18.35A9.185,9.185,0,0,1,11.7,27.48a9.453,9.453,0,0,1-8.258-9.539V14.909a1.147,1.147,0,0,0-1.147-1.147H1.147A1.147,1.147,0,0,0,0,14.909v2.879c0,6.425,4.585,12.153,10.9,13.023v2.448H6.881a1.147,1.147,0,0,0-1.147,1.147v1.147A1.147,1.147,0,0,0,6.881,36.7H18.35A1.147,1.147,0,0,0,19.5,35.552V34.405a1.147,1.147,0,0,0-1.147-1.147H14.336V30.838a12.628,12.628,0,0,0,10.9-12.488V14.909A1.147,1.147,0,0,0,24.084,13.762ZM12.615,25.231A6.881,6.881,0,0,0,19.5,18.35H13.38c-.422,0-.765-.257-.765-.573V16.629c0-.317.343-.573.765-.573H19.5V13.762H13.38c-.422,0-.765-.257-.765-.573V12.042c0-.317.343-.573.765-.573H19.5V9.175H13.38c-.422,0-.765-.257-.765-.573V7.455c0-.317.343-.573.765-.573H19.5a6.881,6.881,0,1,0-13.762,0V18.35A6.881,6.881,0,0,0,12.615,25.231Z"
          fill="#8f8e92"/>
</svg>