<svg xmlns="http://www.w3.org/2000/svg" width="42" height="24" viewBox="0 0 42 24">
    <g transform="translate(-628.3 -939)">
        <g transform="translate(635.8 933)">
            <path d="M25.5,18a12,12,0,1,1-12-12A12,12,0,0,1,25.5,18Z" fill="#8f8e92"/>
            <path d="M25.5,6.39V9.525a8.985,8.985,0,0,1,0,16.95V29.61a11.988,11.988,0,0,0,0-23.22Z" fill="#8f8e92"/>
        </g>
        <g transform="translate(662.8 969) rotate(180)">
            <path d="M25.5,6.39V9.525a8.985,8.985,0,0,1,0,16.95V29.61a11.988,11.988,0,0,0,0-23.22Z" fill="#8f8e92"/>
        </g>
    </g>
</svg>