<svg xmlns="http://www.w3.org/2000/svg" width="16.781" height="18.178" viewBox="0 0 16.781 18.178">
  <path id="Вычитание_91" data-name="Вычитание 91" d="M7.769,0H6.474V2.723h-1.3V.523L3.409,4.456A7.436,7.436,0,0,0,0,10.575c0,4.192,3.765,7.6,8.392,7.6s8.39-3.411,8.39-7.6a7.433,7.433,0,0,0-3.409-6.119L11.648.626v2.1H10.356V0H9.063V2.723H7.769V0Zm.623,6.652a.689.689,0,0,1-.665-.478L7.4,5.2a.7.7,0,0,1,.665-.917h.645a.7.7,0,0,1,.664.917l-.323.973A.687.687,0,0,1,8.392,6.652Zm4.27,3.595a1.938,1.938,0,0,1-.683-.19l-.118-.044L11.838,10l-.21-.078-.172-.063A4.8,4.8,0,0,1,9.681,9.01a2.909,2.909,0,0,1,.376-2c.34-.558.569-.564.579-.564a.257.257,0,0,1,.063-.007,2.976,2.976,0,0,1,.929.232l.118.042.013,0,.076.027a4.5,4.5,0,0,1,2.118,1.24,1.369,1.369,0,0,1-.109,1.584,1.334,1.334,0,0,1-.769.6A1.487,1.487,0,0,1,12.661,10.247Zm-8.538,0a1.526,1.526,0,0,1-.417-.077,1.349,1.349,0,0,1-.768-.6,1.377,1.377,0,0,1-.11-1.584,4.483,4.483,0,0,1,2.117-1.24L5,6.722l.014,0,.138-.048a2.909,2.909,0,0,1,.926-.232.346.346,0,0,1,.047,0h.011c.044,0,.272.049.586.567a2.874,2.874,0,0,1,.373,2,4.658,4.658,0,0,1-1.774.854l-.168.063c-.112.043-.213.079-.3.111l-.055.019A1.947,1.947,0,0,1,4.123,10.247Z" transform="translate(16.781 18.178) rotate(180)" fill="#fff"/>
</svg>
