<svg xmlns="http://www.w3.org/2000/svg" width="26.953" height="28.678" viewBox="0 0 26.953 28.678">
  <path id="Вычитание_170" data-name="Вычитание 170" d="M12.475,28.678H10.4V24.384H8.317v3.475L5.474,21.647A11.677,11.677,0,0,1,0,11.995C0,5.381,6.046,0,13.477,0S26.953,5.381,26.953,11.995a11.671,11.671,0,0,1-5.476,9.653l-2.764,6.04v-3.3H16.634v4.293H14.555V24.384H12.475v4.294Zm1-10.5a1.108,1.108,0,0,0-1.067.757l-.518,1.533a1.076,1.076,0,0,0,.156.992,1.119,1.119,0,0,0,.912.457h1.035a1.116,1.116,0,0,0,.91-.456,1.075,1.075,0,0,0,.156-.993l-.517-1.533A1.106,1.106,0,0,0,13.476,18.183Zm6.859-5.672a3.251,3.251,0,0,0-1.09.3h0c-.173.064-.359.132-.568.206l-.271.1a7.611,7.611,0,0,0-2.85,1.35c-.307.464.029,2.235.6,3.157.546.883.918.893.934.893a.485.485,0,0,0,.1.008,4.828,4.828,0,0,0,1.488-.363l.338-.119a7.251,7.251,0,0,0,3.4-1.957,2.139,2.139,0,0,0-.175-2.5A2.138,2.138,0,0,0,21,12.632,2.541,2.541,0,0,0,20.335,12.511Zm-13.715,0a2.515,2.515,0,0,0-.667.121,2.1,2.1,0,0,0-1.235.953,2.132,2.132,0,0,0-.176,2.5,7.244,7.244,0,0,0,3.4,1.956l.341.12a4.812,4.812,0,0,0,1.485.363.6.6,0,0,0,.093-.006c.041,0,.418-.044.944-.895.57-.923.905-2.693.6-3.157a7.6,7.6,0,0,0-2.85-1.349l-.271-.1-.568-.206h0A3.255,3.255,0,0,0,6.62,12.511Z" fill="#fff"/>
</svg>
