<svg xmlns="http://www.w3.org/2000/svg" width="29.837" height="18.093" viewBox="0 0 29.837 18.093">
    <path d="M-2731.722-8116.9v-6.473a1.733,1.733,0,0,1-1.276.557,1.736,1.736,0,0,1-1.276-.557v3.689a1.74,1.74,0,0,1-1.739,1.74,1.74,1.74,0,0,1-1.74-1.74v-8.544a5.251,5.251,0,0,1-1.709-1.144,5.222,5.222,0,0,1-1.538-3.714v-2.866a8.991,8.991,0,0,1,.711-3.521,9.019,9.019,0,0,1,1.939-2.875,9.01,9.01,0,0,1,2.875-1.938,8.979,8.979,0,0,1,3.521-.711,8.982,8.982,0,0,1,3.521.711,9.018,9.018,0,0,1,2.875,1.938,9.019,9.019,0,0,1,1.939,2.875,8.991,8.991,0,0,1,.711,3.521v2.866a5.219,5.219,0,0,1-1.539,3.714,5.277,5.277,0,0,1-1.477,1.042v8.414a1.739,1.739,0,0,1-1.74,1.74,1.742,1.742,0,0,1-.58-.1v1.375a1.74,1.74,0,0,1-1.739,1.74A1.739,1.739,0,0,1-2731.722-8116.9Zm6.727-12.99v-.17a2.849,2.849,0,0,0-2.846-2.846h-7.994a2.849,2.849,0,0,0-2.845,2.846v.17h.927v-1.74h11.83v1.74Z"
          transform="translate(-8115.162 2741) rotate(90)" fill="#ff7a7a"/>
</svg>