<svg xmlns="http://www.w3.org/2000/svg" width="20.983" height="20.983" viewBox="0 0 20.983 20.983">
  <path id="Icon_awesome-skull" data-name="Icon awesome-skull" d="M10.491,0C4.7,0,0,4.11,0,9.18A8.782,8.782,0,0,0,3.873,16.3a1.288,1.288,0,0,1,.553,1.225l-.385,2.713a.651.651,0,0,0,.643.746H7.868V18.688A.329.329,0,0,1,8.2,18.36h.656a.329.329,0,0,1,.328.328v2.295H11.8V18.688a.329.329,0,0,1,.328-.328h.656a.329.329,0,0,1,.328.328v2.295H16.3a.651.651,0,0,0,.643-.746l-.385-2.713A1.284,1.284,0,0,1,17.11,16.3,8.782,8.782,0,0,0,20.983,9.18C20.983,4.11,16.286,0,10.491,0ZM6.557,13.114A2.623,2.623,0,1,1,9.18,10.491,2.625,2.625,0,0,1,6.557,13.114Zm7.868,0a2.623,2.623,0,1,1,2.623-2.623A2.625,2.625,0,0,1,14.426,13.114Z" fill="#fff"/>
</svg>
