<svg xmlns="http://www.w3.org/2000/svg" width="27.134" height="13.567" viewBox="0 0 27.134 13.567">
    <path d="M11.871,5.088a5.088,5.088,0,1,0-10.175,0V15.864A6.783,6.783,0,0,0,6.735,27.133h.048a6.783,6.783,0,0,0,5.088-11.27ZM6.783,24.59H6.753a4.257,4.257,0,0,1-4.209-4.262,4.932,4.932,0,0,1,1.7-3.5V5.088a2.544,2.544,0,1,1,5.088,0V16.826a4.923,4.923,0,0,1,1.7,3.524A4.244,4.244,0,0,1,6.783,24.59Zm3.392-4.24a3.392,3.392,0,1,1-5.088-2.937V5.088a1.7,1.7,0,1,1,3.392,0V17.413A3.39,3.39,0,0,1,10.175,20.35Z"
          transform="translate(27.134) rotate(90)" fill="#ff7a7a"/>
</svg>