<svg xmlns="http://www.w3.org/2000/svg" width="15.384" height="20" viewBox="0 0 15.384 20">
  <path id="Icon_ionic-ios-water" data-name="Icon ionic-ios-water" d="M19.057,8.105a21.5,21.5,0,0,0-4.365-4.644.411.411,0,0,0-.5,0A21.235,21.235,0,0,0,9.841,8.1a14.584,14.584,0,0,0-3.086,8.216c0,.058,0,.12,0,.178a6.283,6.283,0,0,0,.524,2.5A6.755,6.755,0,0,0,8,20.259a7.936,7.936,0,0,0,6.432,3.115c4.25,0,7.7-3.082,7.7-6.884A14.64,14.64,0,0,0,19.057,8.105ZM14.923,20.812H14.9a.422.422,0,0,1-.125-.822,5.986,5.986,0,0,0,4.154-3.884.418.418,0,0,1,.808.149v.067A4.665,4.665,0,0,1,14.923,20.812Z" transform="translate(-6.75 -3.374)" fill="#91c1f1"/>
</svg>
