<svg xmlns="http://www.w3.org/2000/svg" xmlns:xlink="http://www.w3.org/1999/xlink" width="22.264" height="30.727" viewBox="0 0 22.264 30.727">
  <defs>
    <filter id="Icon_awesome-mouse-pointer" x="0" y="0" width="22.264" height="30.727" filterUnits="userSpaceOnUse">
      <feOffset dy="1" input="SourceAlpha"/>
      <feGaussianBlur stdDeviation="1" result="blur"/>
      <feFlood flood-opacity="0.749"/>
      <feComposite operator="in" in2="blur"/>
      <feComposite in="SourceGraphic"/>
    </filter>
  </defs>
  <g transform="matrix(1, 0, 0, 1, 0, 0)" filter="url(#Icon_awesome-mouse-pointer)">
    <path id="Icon_awesome-mouse-pointer-2" data-name="Icon awesome-mouse-pointer" d="M12.376,13.479H8.031l2.287,5.569a.761.761,0,0,1-.387.983l-2.014.878a.724.724,0,0,1-.956-.4L4.789,15.222,1.24,18.873A.725.725,0,0,1,0,18.346V.749A.725.725,0,0,1,1.24.223L12.888,12.2A.751.751,0,0,1,12.376,13.479Z" transform="translate(4.57 3.97)" fill="none" stroke="#aab6ef" stroke-width="2"/>
  </g>
</svg>
