<svg xmlns="http://www.w3.org/2000/svg" xmlns:xlink="http://www.w3.org/1999/xlink" width="35.024" height="41.669" viewBox="0 0 35.024 41.669">
  <defs>
    <filter id="Контур_859" x="0" y="0" width="35.024" height="41.669" filterUnits="userSpaceOnUse">
      <feOffset dy="1" input="SourceAlpha"/>
      <feGaussianBlur stdDeviation="1" result="blur"/>
      <feFlood flood-opacity="0.749"/>
      <feComposite operator="in" in2="blur"/>
      <feComposite in="SourceGraphic"/>
    </filter>
  </defs>
  <g transform="matrix(1, 0, 0, 1, 0, 0)" filter="url(#Контур_859)">
    <path id="Контур_859-2" data-name="Контур 859" d="M3454.345,1676.827a3.7,3.7,0,0,1-4.487.236,5.147,5.147,0,0,1,.321-8.891,17.715,17.715,0,0,1,1.63-.749,7.776,7.776,0,0,0,4.349-7.832c-.03-.174-.219-.322-.333-.482-.145.16-.368.3-.419.483-.1.36-.079.751-.151,1.121a2.574,2.574,0,0,1-3.234,2.241,22.521,22.521,0,0,1-2.552-.684c-3.609-1.1-5.947.077-7.177,3.631a4.574,4.574,0,0,0-.333,1.274q-.143,4.007-.212,8.018c-.063,3.848-.045,7.7-.16,11.544a4.862,4.862,0,0,1-2.115,4.036c-.822-.955-2.1-1.79-2.34-2.856a37.573,37.573,0,0,1-.389-6.326h3.282l.653-3.594h-3.8c0-2.271-.037-4.442.032-6.608a2.087,2.087,0,0,1,.716-1.142,17.8,17.8,0,0,1,1.565-1.254l-5.2-3.462q-3.4,2.9-6.781,5.8c.119-.062.237-.126.358-.185.722-.349,1.494-.559,2.233-.859a1.237,1.237,0,0,1,1.794.131,2.969,2.969,0,0,1,.8,1.637c.1,1.942.038,3.891.038,5.923q-.064,1.844-.13,3.687c.046,4.465.058,7.59-.007,8.3a1.867,1.867,0,0,0,.092.818,2.068,2.068,0,0,0,.592.827c1.052.953,2.021,2,3.078,2.942a1.171,1.171,0,0,0,1.031.172c1.315-.606,2.612-1.261,3.872-1.976a18.219,18.219,0,0,0,5.663-4.512,11.549,11.549,0,0,0,2.636-6.815,6.256,6.256,0,0,0,4.4-1.256,4.922,4.922,0,0,0,1.8-4A4.114,4.114,0,0,0,3454.345,1676.827Zm-10.216-2.127a50.867,50.867,0,0,1,.1,11.229c-.319,2.329-1.115,4.39-3.638,5.661,2.192-3.046,2.408-6.292,2.313-9.61-.1-3.4-.213-6.809-.274-10.214a9.4,9.4,0,0,1,.259-2.431c.546-2.161,2.282-2.957,4.392-2.071C3444.048,1668.822,3443.877,1671.69,3444.13,1674.7Z" transform="translate(-3424.21 -1657.11)" fill="#ffff36"/>
  </g>
</svg>
