<svg xmlns="http://www.w3.org/2000/svg" width="768.444" height="858.481" viewBox="0 0 768.444 858.481">
  <g id="Сгруппировать_2546" data-name="Сгруппировать 2546" transform="translate(-1064.5 -164.263)" opacity="0.1">
    <g id="Сгруппировать_3479" data-name="Сгруппировать 3479">
      <path id="Объединение_290" data-name="Объединение 290" d="M-5519.33,5227.708c-.353-1.517.02-3.2.056-4.6,1.909-2.278.989-3.13-1.082-4.234a10.438,10.438,0,0,1-4.29-4.323c-12.467-25.785-24.929-51.576-37.011-77.542-2.154-4.628-2.563-10.062-3.837-15.111-1.232-4.883-1.7-10.194-3.991-14.525-4.773-9.014-6.211-19.042-9.852-28.368a240.642,240.642,0,0,1-7.739-22.885c-2.633-9.454-2.477-19.2-1.505-28.906.357-3.565,2.665-4.544,5.822-2.818,10.474,5.729,18.745,13.958,25.494,23.57,5.592,7.965,9.419,17.311,15.7,24.608,5.865,6.817,8.2,15.2,13.079,22.291a11.429,11.429,0,0,0,3.341,3.526c6.347,3.651,9.638,9.543,12.768,15.84,11.336,22.813,22.932,45.5,34.413,68.237,1.385,2.745,3.042,5.441,3.854,8.358.59,2.128-.092,4.589-.006,6.895a2.191,2.191,0,0,0,1.245,1.66c3.885.66,7.062,4.418,5.676,7.493a18.567,18.567,0,0,1-4.71,6.31c-10.937,9.32-23.121,16.276-37.443,19.044a14.969,14.969,0,0,1-2.828.286C-5515.863,5232.518-5518.591,5230.894-5519.33,5227.708Zm22.567-20.4c-.2.126-.216.542-.458,1.205a25.168,25.168,0,0,0,4.608-.419c3.814-1.129,7.575-2.435,11.339-3.727a6.142,6.142,0,0,0,1.433-1.018l-1.414-1.711a6.62,6.62,0,0,1-1.1.962,2.8,2.8,0,0,1-1.52.48,12.75,12.75,0,0,0-1.666-.11C-5489.766,5202.967-5493.277,5205.095-5496.763,5207.3Zm9.552-6.8c-2.416.632-4.822,1.3-7.229,1.969,1.527,1.712-.792,1.4-1.1,2.138-.009.021.307.271.4.232,2.8-1.118,5.6-2.259,8.642-3.5-.4-.488-.6-.845-.7-.845Zm-45.678-67.559c.42.123.986.3,1.155.63.885,1.734,1.647,3.531,2.49,5.288,1.491,3.11,2.855,6.3,4.584,9.273.878,1.511.939,3.015,1.333,4.536.52,2.018,2.481,3.705,3.955,5.422.813.952.928.836-.062,1.287a.565.565,0,0,0-.139.529c.952,1.763,2.031,3.465,2.885,5.273,1.741,3.688,3.265,7.482,5.07,11.137,1.219,2.466,2.81,4.746,4.157,7.153.865,1.544,2.154,3.135,2.245,4.762.147,2.616,2.943,6.6,5.562,6.525a19.312,19.312,0,0,0,5.225-1.011c2.273-.728,4.455-1.741,6.689-2.6a6.468,6.468,0,0,1,1.321-.219,9.362,9.362,0,0,0-.46-1.454c-.9-1.794-1.88-3.548-2.754-5.354-3.778-7.8-7.485-15.64-11.306-23.419-2.566-5.221-5.308-10.354-7.922-15.549q-5.405-10.738-10.732-21.514c-1.855-3.755-3.452-7.648-5.5-11.291-1.265-2.25-2.82-5.328-4.859-5.919-3.019-.879-6.723-.37-9.859.522-1.641.466-5.227,1.563-3.154,5.093.876,1.494,2.1,2.8,2.894,4.327,1.748,3.362,3.306,6.821,4.976,10.224.7,1.424,1.492,2.8,2.241,4.2l.552-.362.608.811a12.836,12.836,0,0,1-1.128.73c-.28.146-.684.119-.9.316-.14.129-.039.519-.044.793a4.324,4.324,0,0,1,.733-.168A.509.509,0,0,1-5532.889,5132.943Zm-17-56.593c-2.863.762-5.7,1.628-8.531,2.5-.106.033-.208.417-.15.584a54.874,54.874,0,0,0,2.231,6.241c.765,1.6,2.128,2.892,2.992,4.452a26.249,26.249,0,0,1,2.89,6.284c.541,2.249,1.9,3.366,3.954,2.231s3.96-3.121,6.107-3.408c3.469-.464,1.9-1.937,1.261-3.408-1.043-2.4-2.062-4.826-3.233-7.169-1.321-2.638-2.772-5.213-4.244-7.771-.2-.354-.852-.45-1.3-.665a4.282,4.282,0,0,0,.206,1.295c.825,1.617,1.728,3.194,2.572,4.8a3.486,3.486,0,0,1,.2.928,5.72,5.72,0,0,1-.975-.392,3.417,3.417,0,0,1-.972-.786c-1-1.324-1.95-2.682-2.919-4.028l.9-.7c-.322-.333-.73-.993-.963-.993A.11.11,0,0,0-5549.884,5076.35Zm-23.141-27.139c.937,2.011,1.9,4.01,2.728,6.068.934,2.337,1.518,4.833,2.626,7.076,1.917,3.875,4.133,7.6,6.194,11.406a13.444,13.444,0,0,0,1.023,2.281c1.069,1.279,5.087.347,6.2-1.558.472-.809.317-1.99.424-3,.029-.274-.068-.567-.013-.831.016-.071.38-.077.586-.1.337-.033.676-.053,1.285-.1a8.067,8.067,0,0,0-.359-2.159c-2.514-4.608-5.013-9.23-7.71-13.729-.4-.66-1.827-.677-2.76-1.041a7.454,7.454,0,0,1-2-.971,8.56,8.56,0,0,1-1.241-1.682c-.3-.4-.649-.762-.918-1.178-.427-.66-.806-1.352-1.205-2.03a1.649,1.649,0,0,0-.273-.46c-1.173-.965-2.338-1.942-3.551-2.854a20.993,20.993,0,0,0-2.005-1.2l-1.192,2.1c.139.008.283.005.429,0a2.082,2.082,0,0,1,.931.119,2.351,2.351,0,0,1,.9,1.02c.043.079-.466.643-.763.685-1.6.22-1.109,1.207-.839,2.125a1.662,1.662,0,0,0,.213.357,4.189,4.189,0,0,1,.683-.785.038.038,0,0,1,.021-.005A1.117,1.117,0,0,1-5573.025,5049.211Zm356.818,126.716a11.742,11.742,0,0,1-1.81-2.377c.065-1.931-.748-2-2.249-1.734a6.788,6.788,0,0,1-3.927-.5c-16.7-8.217-33.4-16.439-49.983-24.9-2.955-1.508-5.338-4.128-8.01-6.2-2.586-2.007-4.949-4.541-7.856-5.841-6.051-2.708-10.8-7.268-16.4-10.587a156.637,156.637,0,0,1-13.12-8.624c-5.132-3.788-8.952-8.841-12.338-14.2-1.242-1.968-.453-3.394,1.855-3.772a49.213,49.213,0,0,1,22.487,1.87c6.051,1.841,11.75,5.1,17.886,6.323,5.732,1.144,10.282,4.5,15.619,6.182a7.437,7.437,0,0,0,3.121.469c4.712-.669,8.756,1.031,12.878,3,14.934,7.147,29.949,14.125,44.928,21.178a30.944,30.944,0,0,1,5.318,2.739c1.155.854,1.79,2.386,2.756,3.533a1.421,1.421,0,0,0,1.3.353c2.254-1.217,5.385-.563,5.905,1.566a12.038,12.038,0,0,1,.113,5.116c-1.873,9.15-5.329,17.587-11.556,24.735a6.374,6.374,0,0,1-4.546,2.545A3.718,3.718,0,0,1-5216.207,5175.928Zm8.886-27.655a1.813,1.813,0,0,1-.584.855c-2.815,1.658-3.89,4.47-4.908,7.319-.051.146.106.365.248.8a16.358,16.358,0,0,0,2.193-2.057c1.5-2.1,2.9-4.28,4.315-6.446a4.034,4.034,0,0,0,.327-1.095l-1.409-.31A4.217,4.217,0,0,1-5207.321,5148.272Zm-3.321.869c-.986,1.291-1.948,2.6-2.916,3.9,1.468.266.154,1.032.292,1.537,0,.014.265.014.3-.042.989-1.694,1.964-3.4,3.026-5.248-.34-.076-.567-.162-.659-.162A.048.048,0,0,0-5210.642,5149.142Zm-49.583-16.462c1.148.533,2.256,1.149,3.391,1.711,2.009,1,3.983,2.084,6.059,2.915a10.368,10.368,0,0,1,2.5,1.79c1.074.826,2.753.9,4.2,1.2.8.16.809.056.483.684a.368.368,0,0,0,.14.326c1.192.522,2.427.961,3.588,1.545,2.368,1.192,4.665,2.527,7.053,3.675,1.611.776,3.338,1.307,4.99,2,1.061.444,2.357.743,3.055,1.54,1.122,1.281,4.15,2.2,5.459,1.116a12.535,12.535,0,0,0,2.271-2.607c.874-1.282,1.585-2.674,2.387-4.007a4.223,4.223,0,0,1,.589-.641,6.239,6.239,0,0,0-.818-.56c-1.178-.561-2.383-1.065-3.552-1.64-5.058-2.484-10.092-5.015-15.163-7.469-3.4-1.648-6.86-3.179-10.278-4.794q-7.065-3.336-14.106-6.725c-2.452-1.179-4.828-2.534-7.333-3.581-1.548-.645-3.577-1.6-4.857-1.088a12.213,12.213,0,0,0-4.84,4.213c-.653.9-2.051,2.892.422,3.87,1.048.416,2.194.593,3.215,1.059,2.24,1.022,4.421,2.171,6.639,3.245.929.45,1.887.839,2.83,1.256.046-.136.092-.27.139-.406.21.057.423.114.635.173a8.444,8.444,0,0,1-.286.823c-.084.188-.3.336-.333.522-.02.122.188.281.294.423.128-.147.23-.363.392-.427a1.992,1.992,0,0,1,.658-.174A.439.439,0,0,1-5260.225,5132.68Zm-32.192-22.044c-1.162,1.537-2.267,3.114-3.369,4.693-.042.059.06.3.157.36a35.482,35.482,0,0,0,3.64,2.3c1.029.512,2.247.63,3.313,1.083a16.987,16.987,0,0,1,3.994,2.061c1.178.935,2.32.965,2.919-.438s.779-3.182,1.764-4.19c1.591-1.625.2-1.751-.717-2.249-1.5-.813-2.988-1.647-4.524-2.379-1.732-.822-3.507-1.561-5.285-2.281-.245-.1-.616.11-.929.177a2.825,2.825,0,0,0,.625.582c1.069.5,2.163.945,3.238,1.43a2.228,2.228,0,0,1,.472.4,3.922,3.922,0,0,1-.656.188,2.243,2.243,0,0,1-.812-.013c-1.041-.28-2.073-.595-3.107-.9l.183-.719c-.236-.034-.584-.15-.776-.15A.156.156,0,0,0-5292.417,5110.635Zm-22.71-4.639c1.284.655,2.581,1.291,3.824,2.016,1.414.823,2.711,1.868,4.177,2.573,2.532,1.218,5.158,2.24,7.736,3.363a8.759,8.759,0,0,0,1.437.759c1.061.227,2.745-1.858,2.551-3.279a5.159,5.159,0,0,0-.983-1.707c-.1-.153-.261-.263-.339-.42-.021-.044.165-.192.262-.285.16-.151.325-.3.619-.564-.5-.466-.726-.824-1.049-.963-3.13-1.354-6.26-2.721-9.442-3.944-.466-.18-1.207.383-1.83.57a4.824,4.824,0,0,1-1.414.3,5.541,5.541,0,0,1-1.309-.365c-.312-.087-.636-.131-.941-.236-.483-.168-.955-.37-1.431-.559a1.106,1.106,0,0,0-.323-.126c-.986-.024-1.974-.059-2.96-.042a13.871,13.871,0,0,0-1.508.186q.114.776.228,1.551a2.536,2.536,0,0,1,.746-.481,1.534,1.534,0,0,1,.871.161.9.9,0,0,1-.117.655c-.733.756-.084,1.062.42,1.424a1.069,1.069,0,0,0,.253.1,2.649,2.649,0,0,1,.036-.676c.008-.029.131-.053.258-.053A.554.554,0,0,1-5315.128,5106Zm341,9.325c-1.015-1.445-1.339-3.375-1.894-4.856,1.039-3.207-.29-3.711-2.935-3.99a11.833,11.833,0,0,1-6.344-2.723c-24.053-21.806-48.1-43.621-71.828-65.78-4.229-3.951-6.966-9.489-10.448-14.253-3.368-4.609-6.112-9.994-10.364-13.572-8.843-7.448-14.614-17.375-22.4-25.632a272.818,272.818,0,0,1-17.852-20.765c-6.781-8.817-10.755-19.127-13.856-29.742-1.139-3.9.871-5.908,4.922-5.434,13.441,1.574,25.628,6.71,36.8,13.946,9.259,6,17.25,14.195,26.949,19.2,9.061,4.673,15.073,12.493,23.212,17.873a12.961,12.961,0,0,0,5.007,2.289c8.221,1.141,14.184,5.937,20.146,11.226,21.6,19.163,43.422,38.078,65.144,57.1,2.623,2.3,5.508,4.426,7.6,7.149,1.524,1.986,1.852,4.862,2.92,7.248a2.479,2.479,0,0,0,2.014,1.216c4.364-.956,9.3,1.646,9.147,5.465a21.023,21.023,0,0,1-2.27,8.633c-7.538,14.44-17.39,26.924-31.266,35.915a12.947,12.947,0,0,1-6.847,2.352A6.523,6.523,0,0,1-4974.127,5115.321Zm28.192-42.094a3.179,3.179,0,0,1-1.392,1.152c-5.515,1.427-8.67,5.623-11.746,9.912-.156.219,0,.662.03,1.462a28.621,28.621,0,0,0,4.666-2.4c3.528-2.806,6.927-5.777,10.333-8.731a7,7,0,0,0,1.074-1.678l-2.213-1.2A7.445,7.445,0,0,1-4945.935,5073.227Zm-5.987-.139c-2.271,1.689-4.514,3.418-6.763,5.139,2.332,1.151-.239,1.8-.251,2.715,0,.027.437.153.52.074,2.472-2.366,4.925-4.751,7.6-7.343a7.806,7.806,0,0,0-1.069-.594A.053.053,0,0,0-4951.921,5073.088Zm-75.216-51.437c1.667,1.445,3.231,3.011,4.862,4.5,2.889,2.636,5.675,5.408,8.757,7.8,1.565,1.215,2.267,2.77,3.325,4.2,1.405,1.9,4.183,2.839,6.46,4.02,1.261.653,1.331.485.482,1.379a.635.635,0,0,0,.079.613c1.748,1.45,3.6,2.779,5.271,4.317,3.4,3.138,6.608,6.479,10.058,9.552,2.329,2.076,4.969,3.8,7.407,5.754,1.564,1.256,3.594,2.38,4.38,4.051,1.266,2.687,5.9,5.69,8.617,4.5a21.865,21.865,0,0,0,5.062-3.279c2.082-1.731,3.944-3.721,5.927-5.571a7.281,7.281,0,0,1,1.3-.789,10.509,10.509,0,0,0-1.1-1.333c-1.706-1.506-3.482-2.933-5.169-4.458-7.285-6.6-14.507-13.26-21.829-19.812-4.912-4.4-9.974-8.627-14.928-12.979q-10.243-8.989-20.416-18.055c-3.544-3.158-6.875-6.571-10.574-9.529-2.287-1.827-5.228-4.4-7.622-4.159-3.545.359-7.222,2.466-10.139,4.734-1.527,1.187-4.831,3.861-1.152,6.693,1.555,1.2,3.394,2.048,4.879,3.319,3.264,2.791,6.37,5.767,9.572,8.631,1.34,1.2,2.758,2.314,4.14,3.468q.214-.307.426-.615l.983.595a15.078,15.078,0,0,1-.875,1.245c-.233.273-.669.416-.809.713-.093.194.181.562.29.852.286-.186.559-.5.86-.529.194-.02.415-.039.631-.039A1.331,1.331,0,0,1-5027.137,5021.652Zm-43.375-52.435c-2.686,2.016-5.3,4.128-7.905,6.248-.1.079-.04.526.09.678a62.291,62.291,0,0,0,5,5.612c1.481,1.351,3.465,2.136,5.035,3.408a29.665,29.665,0,0,1,5.705,5.378c1.524,2.133,3.426,2.732,5.1.666s2.836-4.96,4.971-6.175c3.449-1.961,1.172-2.842-.122-4.116-2.119-2.084-4.216-4.2-6.443-6.163-2.509-2.211-5.127-4.3-7.761-6.367a1.709,1.709,0,0,0-1.079-.154,4.978,4.978,0,0,1-.563.007,4.808,4.808,0,0,0,.766,1.274c1.553,1.349,3.171,2.623,4.742,3.954a3.968,3.968,0,0,1,.6.892,6.739,6.739,0,0,1-1.191,0,3.888,3.888,0,0,1-1.355-.415c-1.611-.966-3.189-1.991-4.779-2.995l.652-1.117a6.554,6.554,0,0,0-1.361-.647A.164.164,0,0,0-5070.512,4969.217Zm-35.846-18.7c1.838,1.715,3.706,3.4,5.444,5.219,1.973,2.06,3.648,4.436,5.765,6.321,3.659,3.259,7.572,6.235,11.353,9.359.729.6,1.242,1.536,2.044,1.964,1.668.889,5.5-1.8,5.855-4.271.151-1.051-.512-2.226-.829-3.336a9.1,9.1,0,0,1-.366-.868c-.014-.08.368-.242.575-.35.342-.177.689-.342,1.31-.649a9.275,9.275,0,0,0-1.294-2.117c-4.6-3.775-9.188-7.571-13.935-11.156-.7-.523-2.207.065-3.342.079a8.416,8.416,0,0,1-2.517-.167,9.765,9.765,0,0,1-2.02-1.242c-.48-.3-1-.526-1.464-.848-.729-.513-1.421-1.079-2.128-1.624-.162-.123-.3-.31-.482-.367-1.643-.516-3.282-1.048-4.944-1.492a24.206,24.206,0,0,0-2.619-.414q-.18,1.356-.363,2.71a4.319,4.319,0,0,1,1.481-.449,2.682,2.682,0,0,1,1.384.686,1.58,1.58,0,0,1-.512,1.043c-1.592.914-.653,1.741.02,2.589a1.8,1.8,0,0,0,.376.285,4.785,4.785,0,0,1,.385-1.114c.011-.018.049-.026.1-.026A1.354,1.354,0,0,1-5106.358,4950.519Zm-290.305,108.958c-3.135-.492-6.2-1.712-9.33-1.893-2.929-.169-5.425-1.521-8.194-1.981a3.707,3.707,0,0,0-1.584-.016c-2.294.662-4.423.1-6.61-.593-7.921-2.509-15.871-4.929-23.807-7.388a15.36,15.36,0,0,1-2.834-.989c-.633-.343-1.057-1.061-1.617-1.562a.714.714,0,0,0-.672-.084c-1.035.762-2.636.654-3.043-.368a6.044,6.044,0,0,1-.415-2.533,26.481,26.481,0,0,1,4.016-13.1c.92-1.413,2.187-2,3.323-1.316a5.908,5.908,0,0,1,1.065,1.055c.1.965.512.942,1.24.7a3.405,3.405,0,0,1,1.985-.027c8.875,2.917,17.75,5.838,26.58,8.886a27.662,27.662,0,0,1,4.416,2.524,21.167,21.167,0,0,0,4.313,2.354c3.195.922,5.874,2.857,8.887,4.117a77.671,77.671,0,0,1,7.123,3.37,25.389,25.389,0,0,1,7.123,6.2c.756.892.463,1.655-.657,2.005a22.779,22.779,0,0,1-6.818,1.005A28.935,28.935,0,0,1-5396.664,5059.477Zm-6.9-5.3c.083.294.395.525.607.779.059.068.149.111.2.185.013.02-.068.107-.11.16-.069.087-.142.172-.269.325a2.73,2.73,0,0,0,.588.4c1.651.453,3.3.915,4.969,1.3.245.057.573-.274.869-.411a2.389,2.389,0,0,1,.682-.251,2.853,2.853,0,0,1,.676.09c.162.021.326.021.485.053.251.048.5.116.749.176a.547.547,0,0,0,.17.042c.492-.057.985-.109,1.474-.187a6.688,6.688,0,0,0,.738-.2q-.111-.377-.223-.754c-.11.1-.206.244-.336.292a.779.779,0,0,1-.444-.019.461.461,0,0,1,.013-.334c.312-.426-.031-.535-.309-.678a.481.481,0,0,0-.133-.033,1.332,1.332,0,0,1,.03.34.326.326,0,0,1-.242.04c-.683-.236-1.372-.46-2.041-.734-.759-.311-1.478-.739-2.256-.986-1.344-.429-2.719-.753-4.08-1.131a4.281,4.281,0,0,0-.767-.277h-.027C-5403.093,5052.367-5403.759,5053.494-5403.566,5054.176Zm-7.426-3.654a6.8,6.8,0,0,1-.583,2.2c-.678.919.024.885.513,1.068.8.3,1.6.61,2.416.866.918.287,1.85.53,2.785.765.129.033.3-.1.449-.153a1.382,1.382,0,0,0-.351-.246c-.566-.173-1.141-.317-1.709-.484a1.109,1.109,0,0,1-.262-.165,1.782,1.782,0,0,1,.313-.139,1.1,1.1,0,0,1,.4-.051c.536.067,1.071.151,1.606.229l-.04.37c.157,0,.419.059.456-.008.47-.845.909-1.706,1.347-2.567.017-.033-.051-.145-.1-.167a17.825,17.825,0,0,0-1.97-.892c-.547-.182-1.161-.155-1.723-.306a8.5,8.5,0,0,1-2.128-.746,1.442,1.442,0,0,0-.706-.229C-5410.61,5049.87-5410.87,5050.07-5410.993,5050.522Zm-33.166-10.788a6.3,6.3,0,0,0-.946,1.455c-.345.7-.6,1.439-.907,2.159a2.2,2.2,0,0,1-.247.359,3.191,3.191,0,0,0,.444.221c.625.2,1.258.363,1.881.568,2.686.88,5.365,1.787,8.057,2.653,1.806.581,3.632,1.1,5.442,1.664q3.746,1.165,7.48,2.356c1.3.416,2.576.923,3.894,1.268.816.213,1.89.546,2.491.2a6.127,6.127,0,0,0,2.111-2.432c.262-.49.818-1.58-.481-1.894-.549-.133-1.131-.142-1.67-.3-1.185-.352-2.35-.771-3.526-1.149-.493-.159-1-.285-1.5-.426-.013.07-.026.14-.04.212l-.328-.042c.027-.143.043-.291.084-.43.029-.1.127-.187.13-.282,0-.063-.114-.127-.177-.19-.053.082-.088.2-.164.24a.645.645,0,0,1-.409.127c-.607-.186-1.2-.413-1.805-.613-1.068-.354-2.125-.758-3.215-1.026a5.179,5.179,0,0,1-1.365-.715,5.23,5.23,0,0,0-2.168-.3c-.408-.024-.406.027-.288-.306a.19.19,0,0,0-.093-.153c-.629-.176-1.274-.309-1.891-.517-1.26-.428-2.495-.931-3.761-1.334-.856-.273-1.751-.416-2.622-.646a4.146,4.146,0,0,1-1.625-.552,2.816,2.816,0,0,0-1.7-.547A1.463,1.463,0,0,0-5444.158,5039.734Zm-4.723-1.368c-.6,1.151-1.145,2.329-1.7,3.505a2.016,2.016,0,0,0-.086.566l.722.056a2.1,2.1,0,0,1,.026-.476.92.92,0,0,1,.23-.466c1.284-1.021,1.621-2.493,1.929-3.98.016-.076-.079-.174-.179-.381A8.15,8.15,0,0,0-5448.881,5038.366Zm1.335.142c-.373.912-.739,1.827-1.138,2.82.213.017.343.053.359.024.4-.709.786-1.427,1.176-2.142-.748-.03-.148-.5-.251-.743h-.009C-5447.44,5038.466-5447.535,5038.483-5447.546,5038.507Zm257.73,10.318c-4.455-.71-7.261-3.167-6.833-6.687a15.82,15.82,0,0,1,1.418-3.752c2.246-1.3,1.745-2.273.376-3.794a9.106,9.106,0,0,1-2.226-4.825c-2.527-24.864-5.049-49.73-7.208-74.628-.384-4.437.9-9.016,1.364-13.535.448-4.372,1.651-8.866,1.063-13.1-1.224-8.814.59-17.466.389-26.2a209.825,209.825,0,0,1,.483-21.075c.662-8.537,3.7-16.481,7.394-24.151,1.356-2.816,3.541-2.931,5.614-.572,6.88,7.823,11.206,17.038,13.87,26.935,2.209,8.2,2.556,17.006,5.528,24.863,2.775,7.34,2.186,14.911,4.071,22.181a9.987,9.987,0,0,0,1.687,3.888c4.115,4.888,5.055,10.7,5.742,16.8,2.487,22.088,5.226,44.148,7.852,66.221a41.433,41.433,0,0,1,.665,8c-.15,1.921-1.444,3.734-2.062,5.651a1.908,1.908,0,0,0,.525,1.732c2.989,1.7,4.473,5.731,2.418,7.838a16.157,16.157,0,0,1-5.745,3.77,76.057,76.057,0,0,1-26.645,5.209A61.679,61.679,0,0,1-5189.816,5048.825Zm17.761-16.684c-.2.044-.339.38-.735.852a22,22,0,0,0,3.9,1.032c3.465.213,6.938.264,10.41.329a5.405,5.405,0,0,0,1.478-.407q-.324-.913-.649-1.826a5.668,5.668,0,0,1-1.192.459,2.442,2.442,0,0,1-1.388-.059,11.61,11.61,0,0,0-5.492-1.28A29.942,29.942,0,0,0-5172.055,5032.142Zm1.8-1.845c-.015.016.171.313.259.312,2.633-.08,5.265-.182,8.129-.289-.191-.537-.245-.895-.33-.9-2.17-.2-4.343-.37-6.516-.544C-5167.968,5030.732-5169.775,5029.783-5170.251,5030.3Zm11.563-8.491a8.28,8.28,0,0,0,.056-1.33c-.2-1.74-.481-3.471-.66-5.212-.771-7.525-1.47-15.057-2.283-22.578-.544-5.046-1.261-10.072-1.854-15.114q-1.228-10.417-2.38-20.844c-.4-3.631-.547-7.3-1.141-10.9-.368-2.223-.722-5.209-2.217-6.3-2.214-1.62-5.4-2.309-8.24-2.514-1.485-.107-4.751-.279-4.107,3.235.273,1.488.886,2.92,1.082,4.413.429,3.278.675,6.579,1.029,9.868.147,1.376.385,2.745.582,4.117l.56-.133c.086.282.17.564.256.846a11.062,11.062,0,0,1-1.142.262,1.523,1.523,0,0,1-.366-.019.915.915,0,0,0-.463.01c-.153.064-.186.415-.273.638.259.04.576,0,.765.14.308.226.718.543.758.862.208,1.686.3,3.387.464,5.078.295,3,.46,6.018.991,8.973a13.888,13.888,0,0,1-.26,4.115c-.176,1.812.929,3.78,1.624,5.628.385,1.022.512.962-.435,1.037-.105.008-.289.271-.271.392.254,1.729.632,3.448.792,5.185.327,3.544.443,7.109.833,10.646.264,2.386.888,4.73,1.273,7.106.248,1.524.831,3.214.419,4.575-.659,2.188.443,6.292,2.613,7.01a16.863,16.863,0,0,0,4.585.73c2.082.082,4.173-.1,6.26-.134h.022A6.016,6.016,0,0,1-5158.688,5021.805Zm-25.882-112.955a48.448,48.448,0,0,0-.033,5.784c.151,1.535.882,3.006,1.125,4.543a22.866,22.866,0,0,1,.495,6.015c-.228,2,.553,3.327,2.576,3.009s4.178-1.376,6.025-.971c2.983.653,2.134-1.023,2.05-2.419-.137-2.283-.249-4.573-.512-6.843-.294-2.559-.716-5.1-1.161-7.641-.06-.349-.565-.622-.863-.931a3.77,3.77,0,0,0-.217,1.125c.193,1.571.463,3.133.676,4.7a2.994,2.994,0,0,1-.117.819,5.141,5.141,0,0,1-.682-.612,2.975,2.975,0,0,1-.562-.935c-.424-1.384-.8-2.782-1.192-4.174l.949-.3c-.172-.385-.313-1.089-.518-1.106-2.575-.23-5.159-.366-7.741-.5h0C-5184.373,4908.416-5184.566,4908.7-5184.57,4908.851Zm-2.836-29.1c.167,1.927.366,3.855.426,5.788.067,2.2-.2,4.417.042,6.587.415,3.75,1.119,7.466,1.675,11.2a11.74,11.74,0,0,0,.157,2.177c.5,1.368,4.068,1.8,5.549.572a6.908,6.908,0,0,0,1.244-2.336c.1-.216.113-.483.237-.683.034-.054.334.05.509.1.288.073.572.159,1.083.3a7.156,7.156,0,0,0,.352-1.877c-.688-4.529-1.357-9.064-2.228-13.559-.127-.659-1.295-1.1-1.951-1.677a6.519,6.519,0,0,1-1.354-1.392,7.546,7.546,0,0,1-.516-1.751c-.122-.417-.3-.818-.4-1.24-.153-.669-.257-1.349-.382-2.025a1.411,1.411,0,0,0-.087-.458c-.673-1.142-1.336-2.29-2.059-3.4a19.025,19.025,0,0,0-1.285-1.585l-1.6,1.364a3.377,3.377,0,0,1,1.08.506,2.079,2.079,0,0,1,.438,1.1,1.21,1.21,0,0,1-.831.333c-1.382-.3-1.271.659-1.322,1.491a1.434,1.434,0,0,0,.068.357,3.668,3.668,0,0,1,.795-.44h.005A.926.926,0,0,1-5187.406,4879.754Zm-361.521,140.611a6.057,6.057,0,0,1-2.386-.952,26.472,26.472,0,0,1-9.162-10.189c-.736-1.516-.586-2.9.583-3.525a5.919,5.919,0,0,1,1.454-.37c.879.409,1.069.047,1.242-.7a3.407,3.407,0,0,1,1-1.715c7.073-6.105,14.146-12.209,21.307-18.208a27.673,27.673,0,0,1,4.438-2.484,21.087,21.087,0,0,0,4.24-2.484c2.437-2.264,5.474-3.564,8.1-5.5a78.358,78.358,0,0,1,6.557-4.371,25.444,25.444,0,0,1,8.98-2.914c1.153-.188,1.657.455,1.379,1.6a24.69,24.69,0,0,1-5.273,10.022c-2.037,2.435-4.66,4.429-6.429,7.023-1.652,2.425-4.1,3.867-5.918,6a3.722,3.722,0,0,0-.829,1.351c-.615,2.307-2.193,3.842-3.913,5.359-6.231,5.5-12.4,11.067-18.595,16.6a15.584,15.584,0,0,1-2.307,1.92,10.3,10.3,0,0,1-2.173.58.707.707,0,0,0-.417.532c.111,1.2-.689,2.438-1.687,2.438A1.281,1.281,0,0,1-5548.928,5020.366Zm-2.527-7.905c.678,1.106,1.407,2.181,2.131,3.258a2,2,0,0,0,.442.366l.42-.59a2.119,2.119,0,0,1-.4-.267.9.9,0,0,1-.279-.437c-.214-1.625-1.3-2.673-2.419-3.7-.057-.053-.19-.022-.418-.042A8.163,8.163,0,0,0-5551.455,5012.46Zm.811-1.071c.587.788,1.184,1.572,1.831,2.427.123-.174.222-.267.2-.3-.4-.708-.816-1.408-1.231-2.111-.409.626-.506-.131-.766-.167C-5550.614,5011.243-5550.665,5011.362-5550.645,5011.39Zm12.094-11.492c-.475.449-.919.934-1.417,1.355-1.016.859-2.083,1.66-3.081,2.538-.674.592-1.259,1.285-1.9,1.913-.413.4-.806.943-1.311,1.109-.811.269-1.831,1.485-1.586,2.3a6.382,6.382,0,0,0,.76,1.561c.422.655.925,1.255,1.382,1.887a2.047,2.047,0,0,1,.18.4,3.093,3.093,0,0,0,.42-.269c.489-.433.959-.891,1.454-1.319,2.14-1.849,4.294-3.678,6.424-5.54,1.428-1.249,2.814-2.546,4.23-3.808q2.927-2.61,5.872-5.2c1.026-.9,2.119-1.734,3.092-2.686.6-.589,1.441-1.339,1.455-2.031a6.123,6.123,0,0,0-1-3.062c-.286-.477-.933-1.515-1.871-.563-.4.4-.7.9-1.119,1.276-.911.835-1.87,1.617-2.8,2.43-.389.342-.756.708-1.135,1.062l.162.143-.2.26a4.351,4.351,0,0,1-.326-.294c-.069-.076-.094-.2-.174-.256-.053-.033-.167.033-.254.053.042.089.124.177.121.265a.634.634,0,0,1-.1.417c-.472.426-.974.817-1.456,1.23-.854.733-1.744,1.431-2.536,2.228a5.151,5.151,0,0,1-1.315.8,5.251,5.251,0,0,0-1.375,1.7c-.23.337-.185.363-.41.09a.124.124,0,0,0-.086-.023A.149.149,0,0,0-5538.551,4999.9Zm22.063-19.078a18.028,18.028,0,0,0-1.777,1.229c-.438.376-.732.915-1.15,1.319a8.589,8.589,0,0,1-1.735,1.441c-.664.36-.9.882-.369,1.434s1.317.983,1.588,1.637c.439,1.053.771.435,1.179.108.67-.532,1.348-1.056,1.987-1.624.719-.639,1.408-1.313,2.09-1.993.094-.094.07-.307.1-.464a1.432,1.432,0,0,0-.391.174c-.441.4-.86.813-1.3,1.216a1.066,1.066,0,0,1-.276.139,2.014,2.014,0,0,1,.042-.34,1.143,1.143,0,0,1,.166-.372c.333-.426.681-.84,1.022-1.259l.3.225c.081-.134.266-.329.227-.4-.48-.838-.994-1.658-1.507-2.476-.009-.016-.046-.023-.086-.023A.217.217,0,0,0-5516.488,4980.82Zm3.247.923c.039.1.073.209.139.4a2.665,2.665,0,0,0,.65-.294c1.239-1.182,2.484-2.358,3.674-3.589.174-.18.06-.632.1-.958a2.4,2.4,0,0,1,.136-.712,2.811,2.811,0,0,1,.425-.533c.1-.127.187-.269.294-.389.171-.19.357-.369.538-.552.042-.04.1-.074.123-.124.2-.451.415-.9.6-1.36a7.027,7.027,0,0,0,.208-.733l-.76-.2a1.244,1.244,0,0,1,.076.438.769.769,0,0,1-.245.371.453.453,0,0,1-.28-.182c-.2-.488-.475-.248-.741-.086a.557.557,0,0,0-.094.1,1.4,1.4,0,0,1,.3.149c.021.017-.03.18-.089.229-.555.465-1.1.939-1.681,1.371-.658.492-1.4.888-2.008,1.426-1.058.931-2.046,1.943-3.069,2.914-.2.187-.483.3-.633.515-.313.446.32,1.632,1.015,1.823a2.6,2.6,0,0,0,.98-.12,2.529,2.529,0,0,1,.262-.073h0C-5513.3,4981.567-5513.266,4981.679-5513.242,4981.743Zm262.523,11.379c-1.382-.286-2.753-.64-4.148-.851-28.929-4.373-57.875-8.641-86.788-13.111-31.019-4.8-62.006-9.786-93.007-14.678q-31.662-5-63.33-9.947c-18.138-2.809-36.3-5.471-54.431-8.307-8.057-1.259-16.153-2.439-24.08-4.3-7.173-1.683-11.878-9.167-11.027-16.484.563-4.842,1.261-9.676,2.137-14.471q6.628-36.25,13.386-72.477,6.456-34.931,12.9-69.868,7.215-39.122,14.428-78.248,7.537-40.552,15.184-81.083,7.844-41.849,15.69-83.694c2.077-11.071,3.978-22.18,6.327-33.193,1.9-8.933,7.255-13.061,16.354-12.652,6.183.279,12.347,1.211,18.494,2.037,26.714,3.586,53.417,7.255,80.132,10.838a8.485,8.485,0,0,0,4.418-.293c1.016-.467,1.537-2.014,2.415-3.279-.991,8.553-2.006,16.994-2.909,25.446a9.492,9.492,0,0,0,.426,3.637c2.173.033,2.09-1.913,2.541-3.371a8.576,8.576,0,0,0,.26-1.305c1.209-8.42,2.544-16.825,3.546-25.269.339-2.856.263-5.987-3.158-7.492.74-3.122,3.041-3.512,5.522-3.684,9.434-.652,16.195-6.04,18.558-15.2,2.309-8.95,7.244-15.269,16.432-17.751h7.99a21.513,21.513,0,0,1,14.371,12.45,28.706,28.706,0,0,1,1.677,6.9c.34,2.093.3,4.246.5,6.364.735,7.65,4.753,12.8,11.942,15.463,6.15,2.277,6.986,3.4,7.249,10.074.014.356.031.71.039,1.065.125,6.714,1.581,8.427,8.3,9.27,20.142,2.536,40.293,4.986,60.435,7.517,11.346,1.426,22.7,2.83,34.009,4.507a26.946,26.946,0,0,1,8.493,2.9c6.553,3.483,9.894,8.938,9.035,16.585q-2.258,20.085-4.48,40.173c-1.494,13.482-2.937,26.969-4.46,40.446-2.01,17.793-4.09,35.577-6.112,53.369-1.712,15.06-3.367,30.128-5.082,45.188q-2.785,24.44-5.632,48.875-2.517,21.929-5.009,43.864-2.515,21.931-5.058,43.857-2.837,24.7-5.658,49.406c-1.441,12.5-2.874,25.012-4.383,37.508q-2.216,18.342-4.595,36.666c-1.048,8.011-4.832,14-12.91,16.6Zm-254.662-487.144c-1.229,5.9-2.286,11.845-3.372,17.779-4.157,22.688-8.177,45.4-12.47,68.063-8.52,44.975-17.255,89.91-25.767,134.886-5.459,28.853-10.624,57.76-16.013,86.626-5.959,31.918-11.925,63.834-18.127,95.7-1.088,5.591,1,6.725,5.6,7.4q36.855,5.438,73.707,10.9c21.15,3.109,42.318,6.111,63.465,9.26,17.9,2.666,35.773,5.479,53.662,8.212q29.2,4.463,58.4,8.9c15,2.3,29.978,4.679,44.975,6.972,13.327,2.037,26.667,3.979,39.993,6.029,1.814.279,2.62-.21,2.839-2.07q3.435-29.32,6.95-58.631c1.991-16.642,4.042-33.277,6.022-49.921,2.294-19.288,4.526-38.582,6.814-57.87,1.817-15.324,3.725-30.637,5.509-45.964,2.3-19.732,4.484-39.479,6.771-59.214,1.92-16.565,3.945-33.116,5.871-49.679,2.111-18.15,4.155-36.308,6.24-54.459q2.277-19.826,4.583-39.646a23.293,23.293,0,0,1,.254-2.38c.392-1.786-.229-2.52-2.093-2.765-9.585-1.265-19.147-2.7-28.729-3.982-10.636-1.425-21.284-2.761-31.928-4.122-1.221-.156-2.454-.221-3.681-.329l-.1.452c3.394,1.484,6.852,2.837,10.149,4.509,1.434.728,2.49,2.164,3.8,3.175a32.681,32.681,0,0,0,3.684,2.447c.828.476,2.148.478,2.613,1.138,2.4,3.417,4.983,6.794,6.762,10.539,1.76,3.709.139,7.475-1.529,10.976-1.841,3.864-9.089,7.515-13.279,6.956q-29.531-3.939-59.078-7.761c-10.81-1.414-21.617-2.858-32.433-4.226q-25.46-3.215-50.929-6.344-23.884-2.95-47.775-5.854-13.734-1.677-27.471-3.316c-3.185-.383-3.708-.891-2.542-3.9,5.515-14.2,13.561-22.288,29.349-22.689,5.828-.147,11.645-.658,17.471-.872a42.386,42.386,0,0,1,6.88.337c3.462.438,6.2-1.049,8.827-2.94a2.1,2.1,0,0,0,.6-.849,4.729,4.729,0,0,0,.089-1.171c-3.167-.559-6.334-1.234-9.536-1.666-16.79-2.264-33.592-4.443-50.383-6.7q-19.9-2.673-39.778-5.456a13.338,13.338,0,0,0-1.778-.155C-5504.173,4502.324-5504.8,4503.17-5505.381,4505.978Zm154.557-40.137a10.36,10.36,0,0,0,10.177,10.2c5.451,0,9.852-4.754,9.915-10.7.054-4.926-4.592-10.1-9.083-10.122h-.053A10.684,10.684,0,0,0-5350.824,4465.841Zm326.46,448.778a10.6,10.6,0,0,1-.843-2.549c.62-1.621-.049-1.917-1.4-2.131a6.086,6.086,0,0,1-3.189-1.573c-11.786-11.866-23.571-23.737-35.178-35.776-2.069-2.147-3.328-5.069-4.991-7.615-1.609-2.462-2.875-5.305-4.966-7.261-4.349-4.07-7.049-9.333-10.833-13.79a140.592,140.592,0,0,1-8.624-11.165c-3.25-4.719-5.016-10.129-6.326-15.673-.48-2.037.608-3.017,2.679-2.663a44.188,44.188,0,0,1,18.556,8.168c4.6,3.333,8.493,7.767,13.346,10.6,4.536,2.647,7.418,6.833,11.46,9.819a6.671,6.671,0,0,0,2.515,1.313c4.2.809,7.136,3.437,10.061,6.318,10.6,10.44,21.311,20.759,31.974,31.132a27.762,27.762,0,0,1,3.717,3.884c.73,1.062.822,2.55,1.308,3.807a1.277,1.277,0,0,0,1,.681c2.271-.375,4.739,1.1,4.559,3.058a10.819,10.819,0,0,1-1.4,4.38c-4.267,7.225-9.67,13.382-17.053,17.633a6.892,6.892,0,0,1-3.358,1.031A3.388,3.388,0,0,1-5024.364,4914.619Zm15.639-20.9a1.639,1.639,0,0,1-.748.556c-2.876.584-4.612,2.659-6.31,4.781-.087.109-.017.342-.024.753a14.608,14.608,0,0,0,2.464-1.108c1.891-1.348,3.721-2.785,5.552-4.212a3.577,3.577,0,0,0,.6-.835l-1.106-.675A3.849,3.849,0,0,1-5008.725,4893.724Zm-3.076-.233c-1.215.808-2.415,1.637-3.618,2.461,1.169.655-.171.922-.2,1.391,0,.013.222.09.266.052,1.335-1.151,2.662-2.312,4.107-3.574a3.794,3.794,0,0,0-.537-.334A.024.024,0,0,0-5011.8,4893.491ZM-5049.11,4865c.819.789,1.583,1.635,2.38,2.446,1.417,1.434,2.774,2.935,4.3,4.249a9.333,9.333,0,0,1,1.6,2.25c.672,1.017,2.076,1.574,3.215,2.243.632.37.672.284.21.722a.333.333,0,0,0,.024.319c.861.792,1.781,1.527,2.6,2.363,1.663,1.706,3.224,3.51,4.916,5.185,1.142,1.129,2.455,2.087,3.655,3.159.771.688,1.786,1.322,2.144,2.2.579,1.417,2.882,3.086,4.312,2.546a11.272,11.272,0,0,0,2.693-1.552c1.116-.833,2.128-1.808,3.2-2.706a3.76,3.76,0,0,1,.688-.372,5.5,5.5,0,0,0-.53-.715c-.836-.82-1.713-1.6-2.539-2.433-3.569-3.588-7.1-7.21-10.7-10.78-2.409-2.4-4.9-4.708-7.329-7.079q-5.026-4.9-10.017-9.839c-1.737-1.72-3.359-3.565-5.183-5.187-1.126-1-2.57-2.406-3.808-2.346a10.966,10.966,0,0,0-5.344,2.163c-.817.569-2.589,1.855-.773,3.411.768.659,1.69,1.146,2.42,1.84,1.6,1.524,3.122,3.138,4.691,4.7.658.653,1.357,1.265,2.037,1.9l.234-.3.49.332c-.16.207-.3.429-.483.617-.129.136-.356.2-.436.345-.053.1.079.294.126.447.153-.088.3-.242.457-.25.063,0,.132-.005.2-.005A.843.843,0,0,1-5049.11,4865Zm-20.9-28.145c-1.435.966-2.836,1.982-4.235,3-.051.037-.034.27.028.352a32.166,32.166,0,0,0,2.419,3.022c.726.734,1.726,1.192,2.5,1.89a15.289,15.289,0,0,1,2.791,2.919c.726,1.138,1.688,1.5,2.607.48s1.592-2.476,2.723-3.042c1.829-.917.681-1.431.049-2.122-1.034-1.129-2.056-2.273-3.148-3.343-1.232-1.205-2.521-2.352-3.821-3.485-.18-.156-.556-.084-.842-.12a2.494,2.494,0,0,0,.36.676c.762.736,1.561,1.435,2.333,2.162a1.975,1.975,0,0,1,.283.476c-.064,0-.129,0-.193,0a2.013,2.013,0,0,1-.418-.029,2.015,2.015,0,0,1-.687-.249c-.8-.542-1.586-1.111-2.377-1.67l.366-.558c-.225-.115-.543-.371-.691-.371A.081.081,0,0,0-5070.009,4836.857Zm-17.936-10.584c.9.932,1.814,1.851,2.659,2.832.96,1.112,1.757,2.38,2.8,3.408,1.794,1.775,3.727,3.411,5.588,5.12.359.329.6.822,1,1.065.833.5,2.875-.776,3.126-2.04a4.612,4.612,0,0,0-.337-1.738,4.591,4.591,0,0,1-.163-.456c-.006-.043.194-.114.3-.165.18-.083.363-.157.692-.3a4.811,4.811,0,0,0-.609-1.125c-2.264-2.065-4.523-4.141-6.869-6.114-.226-.19-.647-.142-1.075-.093a4.442,4.442,0,0,1-.646.043,4.324,4.324,0,0,1-1.291-.154,5.036,5.036,0,0,1-1-.692c-.239-.166-.5-.3-.73-.476-.362-.284-.7-.593-1.052-.893-.079-.067-.146-.167-.237-.2-.832-.311-1.66-.627-2.5-.9a12.29,12.29,0,0,0-1.337-.284c-.085.461-.173.923-.259,1.385a2.226,2.226,0,0,1,.773-.192,1.387,1.387,0,0,1,.693.392.811.811,0,0,1-.292.522c-.843.429-.383.878-.06,1.333a1,1,0,0,0,.187.157,2.4,2.4,0,0,1,.228-.563c0-.007.02-.011.041-.011A.7.7,0,0,1-5087.945,4826.273Zm-543.841,58.233a15.807,15.807,0,0,1-.02-4.013c1.63-2.017.813-2.746-1.009-3.677a9.1,9.1,0,0,1-3.808-3.707c-11.27-22.306-22.535-44.618-33.472-67.088-1.951-4.005-2.39-8.74-3.578-13.124-1.149-4.242-1.635-8.869-3.7-12.613-4.3-7.791-5.708-16.518-9.027-24.6a210.011,210.011,0,0,1-7.1-19.847c-2.442-8.208-2.453-16.713-1.753-25.2.257-3.116,2.256-4.007,5.036-2.547,9.226,4.839,16.566,11.892,22.6,20.176,5,6.863,8.481,14.96,14.07,21.231,5.222,5.858,7.386,13.137,11.75,19.249a10.016,10.016,0,0,0,2.969,3.026c5.592,3.088,8.554,8.178,11.38,13.625,10.238,19.73,20.7,39.343,31.063,59.008a41.656,41.656,0,0,1,3.489,7.233c.547,1.848-.01,4.005.1,6.015a1.911,1.911,0,0,0,1.112,1.43c3.4.518,6.228,3.747,5.066,6.451a16.172,16.172,0,0,1-4.013,5.578c-9.4,8.3-19.924,14.552-32.376,17.184a12.861,12.861,0,0,1-2.652.295C-5628.781,4888.595-5631.106,4887.22-5631.786,4884.506Zm19.378-18.147c-.173.114-.18.477-.382,1.059a21.953,21.953,0,0,0,4.016-.435c3.309-1.043,6.571-2.24,9.835-3.424a5.394,5.394,0,0,0,1.233-.911l-1.259-1.471a5.738,5.738,0,0,1-.949.855,2.428,2.428,0,0,1-1.316.443,11.169,11.169,0,0,0-1.263-.072C-5606.263,4862.4-5609.348,4864.346-5612.407,4866.359Zm8.229-6.077c-2.1.586-4.187,1.209-6.277,1.827,1.358,1.471-.669,1.232-.929,1.882-.009.019.271.229.353.2,2.429-1.018,4.85-2.056,7.485-3.182-.357-.417-.534-.725-.622-.725Zm-40.879-58.248c.368.1.865.25,1.017.533.8,1.5,1.491,3.055,2.253,4.574,1.349,2.692,2.586,5.452,4.141,8.021a13.908,13.908,0,0,1,1.231,3.936c.484,1.754,2.223,3.195,3.534,4.673.725.816.822.713-.035,1.122a.489.489,0,0,0-.113.463c.856,1.524,1.824,2.992,2.6,4.557,1.574,3.191,2.96,6.479,4.593,9.639,1.1,2.133,2.523,4.1,3.735,6.177.777,1.335,1.927,2.7,2.031,4.122.168,2.28,2.667,5.716,4.952,5.608a16.931,16.931,0,0,0,4.543-.961c1.973-.67,3.86-1.588,5.8-2.369a5.678,5.678,0,0,1,1.149-.21,8.309,8.309,0,0,0-.423-1.262c-.811-1.551-1.694-3.066-2.484-4.629-3.417-6.75-6.769-13.53-10.223-20.26-2.317-4.516-4.787-8.952-7.147-13.444q-4.88-9.287-9.692-18.606c-1.675-3.248-3.127-6.62-4.97-9.766-1.139-1.944-2.542-4.6-4.33-5.09-2.646-.721-5.871-.22-8.593.606-1.425.43-4.536,1.442-2.674,4.491.788,1.29,1.874,2.409,2.591,3.731,1.576,2.906,2.986,5.9,4.5,8.843.633,1.233,1.344,2.424,2.02,3.635l.476-.325.542.7a11.569,11.569,0,0,1-.972.653c-.243.132-.595.115-.777.289-.12.114-.026.455-.027.693a3.52,3.52,0,0,1,.648-.158A.442.442,0,0,1-5645.057,4802.034Zm-15.69-49.115c-2.486.708-4.946,1.507-7.4,2.309-.092.03-.174.368-.123.513a47.968,47.968,0,0,0,2.043,5.412c.692,1.378,1.9,2.49,2.677,3.837a22.871,22.871,0,0,1,2.617,5.439c.506,1.953,1.708,2.908,3.484,1.887s3.408-2.783,5.276-3.066c3.021-.458,1.626-1.72,1.048-2.993-.948-2.082-1.872-4.179-2.929-6.2-1.193-2.283-2.5-4.507-3.822-6.717-.182-.3-.75-.379-1.14-.559a3.719,3.719,0,0,0,.2,1.128c.742,1.4,1.555,2.759,2.316,4.148a2.978,2.978,0,0,1,.185.806,5.2,5.2,0,0,1-.856-.327,2.967,2.967,0,0,1-.859-.67c-.892-1.141-1.742-2.312-2.608-3.471l.777-.624c-.285-.285-.649-.851-.853-.852A.1.1,0,0,0-5660.747,4752.919Zm-20.6-23.325c.848,1.74,1.724,3.47,2.473,5.252.849,2.024,1.4,4.194,2.4,6.134,1.73,3.352,3.72,6.568,5.577,9.856a11.617,11.617,0,0,0,.928,1.974c.952,1.1,4.444.226,5.385-1.454a6.9,6.9,0,0,0,.325-2.626,6.811,6.811,0,0,1-.023-.723c.013-.063.33-.073.509-.093.294-.035.59-.057,1.121-.106a7.158,7.158,0,0,0-.346-1.878c-2.264-3.982-4.514-7.975-6.937-11.86-.354-.569-1.6-.562-2.423-.866a6.461,6.461,0,0,1-1.763-.815,7.528,7.528,0,0,1-1.109-1.45c-.263-.346-.576-.655-.817-1.013-.383-.571-.725-1.167-1.082-1.754-.083-.133-.13-.306-.246-.4-1.038-.825-2.068-1.659-3.141-2.437a18.478,18.478,0,0,0-1.768-1.019l-1.008,1.847c.123.006.251,0,.38,0a1.8,1.8,0,0,1,.808.089,2.077,2.077,0,0,1,.8.876c.039.067-.4.568-.655.607-1.4.219-.951,1.071-.7,1.867a1.417,1.417,0,0,0,.192.309,3.643,3.643,0,0,1,.584-.7.032.032,0,0,1,.02-.005A.979.979,0,0,1-5681.351,4729.594Zm424.541,110.638-281.571-37.07a6,6,0,0,1-5.165-6.731,6,6,0,0,1,6.731-5.167l281.571,37.07a6,6,0,0,1,5.165,6.731,6,6,0,0,1-5.942,5.218A6.1,6.1,0,0,1-5256.81,4840.232Zm-31.346-33.586c-1.1-.31-2.179-.72-3.254-1.122a27,27,0,0,0-6.028-1.758.609.609,0,0,1-.576-.757c.07-.635.163-1.267.246-1.9l-.021,0c.08-.6.145-1.2.243-1.8.054-.326-.039-.43-.372-.441a5.769,5.769,0,0,1-3.891-1.539,6.286,6.286,0,0,1-2.059-5.5,5.2,5.2,0,0,1,2.292-3.865,5.949,5.949,0,0,1,4.677-1.006,2.006,2.006,0,0,0,2.3-.689,6.209,6.209,0,0,1,7.712-1.167,6.338,6.338,0,0,0,1.541.825,2.683,2.683,0,0,0,1.583-.023,6.288,6.288,0,0,1,3.351-.087,5.609,5.609,0,0,1,3.621,2.815,1.838,1.838,0,0,0,1.778,1.052c2.337-.086,3.967,1.085,5.316,2.906a4.29,4.29,0,0,1,.813,1.681,4.92,4.92,0,0,1,.136,2.139c-.771,3.352-3.275,5.463-6.539,5.243-.319-.022-.376.1-.4.382-.134,1.285-.294,2.569-.45,3.853-.039.319-.147.575-.552.532a36.97,36.97,0,0,0-7.554.266c-.752.072-1.511.169-2.266.169A6.034,6.034,0,0,1-5288.156,4806.646Zm-5.207-9.792a2.633,2.633,0,0,0-.053,3.384,21.407,21.407,0,0,0,2.427,2.5,6.91,6.91,0,0,0,3.917,1.892,6.614,6.614,0,0,0,4.456-.921c1.079-.6,2.087-1.333,3.126-2.008.137-.089.3-.171.324-.347.074-.641.379-1.3-.276-1.86a2.61,2.61,0,0,1-.563-.8,1.829,1.829,0,0,0-1.8-1.049,5.887,5.887,0,0,1-3.551-1.119,3.048,3.048,0,0,0-2.867-.486,4.912,4.912,0,0,1-2.862.114,2.768,2.768,0,0,0-.77-.123A1.858,1.858,0,0,0-5293.362,4796.854Zm14.854-1.777a3.657,3.657,0,0,0,3.272,4.087,3.6,3.6,0,0,0,4.124-2.96,3.729,3.729,0,0,0-3.248-4.23,3.762,3.762,0,0,0-.472-.03A3.7,3.7,0,0,0-5278.508,4795.077Zm-23.362-2.734c-.449,2.085,1.415,4.108,3.427,4.357a4.147,4.147,0,0,0,4.684-3.538,3.976,3.976,0,0,0-3.429-4.306,4.66,4.66,0,0,0-.643-.045A4,4,0,0,0-5301.871,4792.342Zm16.428-1.132a3.533,3.533,0,0,0,3.093,3.731,3.579,3.579,0,0,0,4.028-2.906,3.509,3.509,0,0,0-3.109-3.9,3.922,3.922,0,0,0-.5-.033A3.484,3.484,0,0,0-5285.443,4791.21Zm-7.849-1.361a3.529,3.529,0,0,0,3.082,3.738,3.629,3.629,0,0,0,4.048-3.034,3.55,3.55,0,0,0-3.065-3.811,3.677,3.677,0,0,0-.514-.036A3.592,3.592,0,0,0-5293.292,4789.849Zm125.2,7.515c-3.244-.873-5.132-2.912-4.542-5.485a11.86,11.86,0,0,1,1.342-2.669c1.766-.788,1.47-1.548.575-2.782a6.777,6.777,0,0,1-1.273-3.748c.064-18.613.131-37.23.472-55.84.06-3.318,1.369-6.608,2.064-9.919.672-3.2,1.913-6.438,1.807-9.622-.22-6.627,1.8-12.893,2.327-19.379a157,157,0,0,1,2-15.573c1.156-6.271,4.024-11.92,7.357-17.314,1.224-1.979,2.851-1.9,4.2.013a49.2,49.2,0,0,1,8.178,21.032c1,6.245.569,12.8,2.159,18.848,1.484,5.654.459,11.216,1.289,16.747a7.411,7.411,0,0,0,.947,3.012c2.666,3.941,2.912,8.321,2.944,12.892.123,16.555.435,33.108.662,49.664a31.013,31.013,0,0,1-.13,5.981c-.262,1.412-1.361,2.654-1.969,4.025a1.424,1.424,0,0,0,.254,1.325c2.082,1.492,2.866,4.593,1.181,5.994a12.053,12.053,0,0,1-4.549,2.345,60.426,60.426,0,0,1-15.078,2.046A46.741,46.741,0,0,1-5168.088,4797.364Zm14.457-10.974c-.153.017-.282.254-.612.573a16.387,16.387,0,0,0,2.811,1.068c2.549.427,5.119.736,7.685,1.054a4.018,4.018,0,0,0,1.128-.186c-.113-.467-.226-.936-.34-1.4a4.207,4.207,0,0,1-.918.246,1.821,1.821,0,0,1-1.023-.15,9.316,9.316,0,0,0-5.353-1.444A30.729,30.729,0,0,0-5153.632,4786.39Zm1.479-1.227c-.013.01.1.245.167.249,1.956.147,3.914.276,6.044.42-.1-.413-.112-.682-.174-.694-1.591-.319-3.188-.612-4.785-.909.264.942-.19.9-.644.859-.093-.008-.186-.017-.272-.017A.5.5,0,0,0-5152.152,4785.163Zm-1.3-32.958c.054,1.3.2,2.6.183,3.9-.033,2.652-.225,5.3-.211,7.951.01,1.789.29,3.574.39,5.364.066,1.147.366,2.444-.044,3.42-.659,1.57-.162,4.7,1.39,5.4a12.565,12.565,0,0,0,3.339.9c1.535.223,3.1.251,4.647.389a4.244,4.244,0,0,1,.835.249,6.26,6.26,0,0,0,.145-.98c-.012-1.3-.087-2.607-.083-3.913.016-5.634.083-11.267.067-16.9-.011-3.781-.15-7.561-.2-11.34q-.1-7.813-.14-15.625c-.015-2.721.163-5.451,0-8.161-.1-1.675-.128-3.916-1.15-4.843a12.221,12.221,0,0,0-5.908-2.5c-1.092-.2-3.5-.576-3.293,2.076.085,1.124.429,2.233.458,3.352.063,2.463-.013,4.927-.006,7.391,0,1.032.071,2.063.111,3.095l.425-.054c.042.214.083.43.124.646a8.174,8.174,0,0,1-.866.106,1.059,1.059,0,0,1-.271-.043.671.671,0,0,0-.343-.029c-.119.036-.17.293-.251.452.189.05.427.046.555.163.211.19.49.458.495.7.024,1.265-.043,2.532-.051,3.8-.015,2.243-.127,4.494.036,6.724a10.351,10.351,0,0,1-.513,3.028c-.272,1.328.395,2.873.765,4.3.206.788.3.753-.4.735h0C-5153.3,4751.936-5153.458,4752.114-5153.455,4752.2Zm.15-58.119a36.181,36.181,0,0,0-.475,4.283c-.007,1.149.42,2.3.48,3.452a17.029,17.029,0,0,1-.1,4.494c-.324,1.468.15,2.509,1.674,2.43s3.2-.695,4.539-.251c2.159.718,1.661-.59,1.708-1.631.075-1.7.17-3.407.153-5.109-.02-1.917-.135-3.834-.265-5.748-.019-.264-.37-.506-.567-.757a2.793,2.793,0,0,0-.249.816c.02,1.18.1,2.357.135,3.537a2.285,2.285,0,0,1-.15.6,3.755,3.755,0,0,1-.458-.507,2.2,2.2,0,0,1-.344-.736c-.206-1.058-.375-2.122-.558-3.184l.728-.151c-.1-.3-.148-.832-.3-.861-1.888-.37-3.791-.673-5.695-.97h-.006C-5153.129,4693.788-5153.291,4693.976-5153.3,4694.086Zm.164-21.773c-.025,1.441-.03,2.885-.136,4.321-.12,1.631-.49,3.256-.48,4.882.015,2.809.248,5.618.368,8.427a8.716,8.716,0,0,0-.052,1.625c.26,1.052,2.874,1.651,4.066.855.506-.337.75-1.071,1.1-1.633.1-.151.122-.349.23-.487.029-.039.243.063.369.11.208.077.411.161.779.309a5.406,5.406,0,0,0,.407-1.365c-.157-3.408-.3-6.819-.595-10.215-.042-.5-.875-.916-1.315-1.4a4.792,4.792,0,0,1-.894-1.136,5.549,5.549,0,0,1-.246-1.337c-.059-.319-.162-.63-.2-.949-.062-.507-.087-1.019-.126-1.531a1.058,1.058,0,0,0-.028-.346c-.411-.9-.812-1.8-1.261-2.679a13.612,13.612,0,0,0-.829-1.275l-1.292.886a2.5,2.5,0,0,1,.759.458,1.541,1.541,0,0,1,.237.854.91.91,0,0,1-.641.182c-1-.329-.992.389-1.1,1a.979.979,0,0,0,.023.269,2.706,2.706,0,0,1,.622-.263h0A.667.667,0,0,1-5153.14,4672.313Zm-179.8,125.62-198.29-26.105a6,6,0,0,1-5.165-6.731,6,6,0,0,1,6.732-5.167l198.288,26.105a6,6,0,0,1,5.166,6.731,6,6,0,0,1-5.941,5.218A6.1,6.1,0,0,1-5332.939,4797.933Zm84.483-21.154-276.613-36.417a6,6,0,0,1-5.166-6.733,6,6,0,0,1,6.733-5.165l276.613,36.416a6,6,0,0,1,5.165,6.732,6,6,0,0,1-5.942,5.218A6.1,6.1,0,0,1-5248.456,4776.779Zm-61.252-31.941,3-22.8,72.375,9.528-3,22.8Zm286.278,4.978c-13.971-3.371-26.759-9.139-37.416-19.1-3.776-3.529-4.867-7.665-2.207-10.732a18.172,18.172,0,0,1,3.754-2.656c2.965.2,3.113-1.041,2.788-3.365a10.438,10.438,0,0,1,.978-6.011c13.532-25.242,27.072-50.484,40.977-75.521,2.479-4.463,6.636-7.988,9.971-11.985,3.225-3.868,7.249-7.365,9.4-11.768,4.487-9.159,11.755-16.218,17.16-24.645a240.367,240.367,0,0,1,13.965-19.713c6.1-7.687,14.076-13.289,22.5-18.208,3.094-1.807,5.242-.516,5.7,3.053,1.522,11.842-.274,23.368-4.084,34.479-3.155,9.206-8.469,17.8-10.681,27.165-2.067,8.752-7.478,15.568-10.346,23.684a11.416,11.416,0,0,0-.889,4.774c.776,7.281-2.055,13.408-5.311,19.64-11.793,22.58-23.326,45.295-34.977,67.95-1.407,2.733-2.613,5.658-4.5,8.029-1.374,1.73-3.767,2.623-5.581,4.048a2.19,2.19,0,0,0-.612,1.983c1.75,3.532.576,8.31-2.725,9a18.471,18.471,0,0,1-3.727.374A17.792,17.792,0,0,1-5023.43,4749.816Zm-11.093-23.229a25.122,25.122,0,0,0,3.048,3.482c3.155,2.422,6.423,4.7,9.679,6.983a6.173,6.173,0,0,0,1.666.56q.276-1.074.552-2.15a6.612,6.612,0,0,1-1.425-.329,2.78,2.78,0,0,1-1.282-.945c-2.4-4.417-6.665-6.223-10.992-7.939a.289.289,0,0,0-.108-.019A8.564,8.564,0,0,0-5034.523,4726.587Zm4.14-.935c-.023.006-.037.407.048.46,2.553,1.612,5.118,3.2,7.907,4.936.165-.632.342-1.006.266-1.069-1.931-1.584-3.89-3.135-5.842-4.69-.32,1.473-.909,1.086-1.5.7a1.641,1.641,0,0,0-.778-.351A.465.465,0,0,0-5030.383,4725.652Zm22.04-45.715c-.866,1.807-1.608,3.68-2.569,5.434-1.961,3.577-4.136,7.038-6.03,10.648-1.279,2.436-2.19,5.063-3.345,7.567-.74,1.607-1.271,3.585-2.533,4.615-2.03,1.657-3.612,6.263-2.01,8.335a19.317,19.317,0,0,0,3.888,3.632c1.925,1.412,4.027,2.58,6.034,3.884a6.5,6.5,0,0,1,.952.942,9.465,9.465,0,0,0,.906-1.227c.925-1.781,1.766-3.606,2.712-5.376,4.091-7.642,8.254-15.249,12.3-22.914,2.716-5.143,5.256-10.378,7.923-15.549q5.509-10.685,11.1-21.328c1.947-3.707,4.158-7.288,5.9-11.086,1.076-2.347,2.653-5.412,1.933-7.411-1.063-2.958-3.652-5.656-6.217-7.669-1.342-1.054-4.336-3.31-5.974.441-.693,1.588-1.029,3.344-1.8,4.886-1.692,3.389-3.577,6.683-5.348,10.034-.74,1.4-1.391,2.856-2.084,4.286l.617.233c-.1.323-.2.645-.3.968a12.787,12.787,0,0,1-1.252-.482c-.285-.142-.5-.484-.783-.542-.186-.037-.443.276-.668.43.22.206.546.373.636.625a1.959,1.959,0,0,1,.167,1.3c-.881,1.737-1.887,3.408-2.813,5.124-1.64,3.035-3.418,6.012-4.807,9.159-.707,1.6-1.887,2.533-2.886,3.744-1.327,1.608-1.538,4.187-2.063,6.387-.29,1.218-.13,1.242-1.076.708a.151.151,0,0,0-.073-.015A.613.613,0,0,0-5008.343,4679.937Zm42.186-78.847a54.937,54.937,0,0,0-3.738,5.474c-.839,1.557-1.089,3.422-1.843,5.038a26.269,26.269,0,0,1-3.385,6.032c-1.5,1.76-1.606,3.515.519,4.51s4.852,1.369,6.347,2.938c2.414,2.533,2.683.4,3.5-.983,1.332-2.257,2.694-4.5,3.9-6.83,1.358-2.619,2.587-5.307,3.792-8,.166-.372-.137-.952-.223-1.437-.316.306-.739.557-.928.928-.823,1.617-1.568,3.275-2.372,4.9a3.521,3.521,0,0,1-.636.7,6.017,6.017,0,0,1-.257-1.018,3.436,3.436,0,0,1,.065-1.249c.485-1.585,1.025-3.154,1.544-4.729l1.1.319c.084-.475.4-1.235.217-1.384-2.3-1.868-4.666-3.652-7.035-5.434a.115.115,0,0,0-.068-.016A.786.786,0,0,0-4966.158,4601.09Zm15.082-30.687a1.636,1.636,0,0,0-.163.383,4.182,4.182,0,0,1,1.036.091,1,1,0,0,1,0,.75c-1.077,1.938-2.125,3.9-3.305,5.772-1.342,2.128-3.019,4.069-4.181,6.285-2.009,3.828-3.721,7.811-5.586,11.715a13.552,13.552,0,0,0-1.245,2.168c-.406,1.618,2.71,4.32,4.906,4.1.932-.093,1.8-.914,2.678-1.422.239-.137.418-.388.665-.5.067-.029.286.263.422.417.226.254.441.516.836.982.745-.738,1.305-1.071,1.537-1.56,2.25-4.743,4.519-9.48,6.573-14.309.3-.707-.526-1.875-.779-2.843a7.411,7.411,0,0,1-.393-2.19,8.565,8.565,0,0,1,.632-1.994c.151-.473.236-.972.415-1.434.283-.733.619-1.447.934-2.168a1.645,1.645,0,0,0,.211-.492c.091-1.517.2-3.032.223-4.55a21.847,21.847,0,0,0-.2-2.33l-2.4.269a3.814,3.814,0,0,1,.7,1.17,2.361,2.361,0,0,1-.292,1.331,1.392,1.392,0,0,1-1-.216,1.392,1.392,0,0,0-.942-.54C-4950.332,4569.293-4950.687,4569.9-4951.076,4570.4Zm-373.8,164.039-194.056-25.548a6,6,0,0,1-5.165-6.731,6,6,0,0,1,6.731-5.165l194.054,25.548a6,6,0,0,1,5.166,6.731,6,6,0,0,1-5.94,5.217A6.04,6.04,0,0,1-5324.875,4734.442Zm84.772-21.115-272.662-35.9a6,6,0,0,1-5.165-6.733,6,6,0,0,1,6.732-5.165l272.662,35.9a6,6,0,0,1,5.166,6.731,6,6,0,0,1-5.941,5.218A6.042,6.042,0,0,1-5240.1,4713.327Zm-49.1-27.018c-1.388-.421-2.767-.866-4.146-1.313a17.3,17.3,0,0,0-2.016-.673A3.923,3.923,0,0,1-5298.7,4681l.09-.737a18.21,18.21,0,0,0,1.574-2.8c1.458-2.216,2.914-4.44,4.239-6.736.674-1.169,1.469-2.332,1.262-3.875a3.963,3.963,0,0,0-1.258-2.074c-.274-.326-.723-.583-.593-1.071.146-.547.709-.613,1.144-.615a1.608,1.608,0,0,0,1.605-1.025,1.917,1.917,0,0,0-.507-2.007,3.994,3.994,0,0,1-.859-1.088,1,1,0,0,1,.13-1.348.752.752,0,0,1,1.156.043c.7.744,1.237.466,1.823-.127.332-.334.9-.317,1.232-.533,1.074-.687,2.246-.468,3.37-.673a4.127,4.127,0,0,0,2.49-1.971,1.441,1.441,0,0,1,1.735-.685c.766.189.871.775.932,1.417a10.692,10.692,0,0,1,.063,2.3.6.6,0,0,0,.545.777,41.075,41.075,0,0,0,7.894.989c.616.017,1.232.125,1.846.2q6.321.774,12.641,1.556c.563.07,1.1.167,1.5-.4.167-.239.438-.233.752-.14a7.26,7.26,0,0,0,2.384.294c.406-.017.61.062.493.5a1.672,1.672,0,0,0,.463,1.525c.113.143.318.356.278.452-.347.82.009,1.884-.36,2.477a5.756,5.756,0,0,0-.713,2.808c-.069.9-.449,1.276-1.294,1.219a1.284,1.284,0,0,0-1.205.506c-.377.476-.913.409-1.454.341q-7.563-.941-15.13-1.861c-1.6-.2-1.772-.109-2.39,1.345a12.291,12.291,0,0,1-1.775,2.8,1.777,1.777,0,0,1-1.768.542c-1.292-.145-2.589-.279-3.874-.478-2.516-.39-3.408.472-4.354,2.392-1.6,3.256-2.967,6.631-4.443,9.952-.122.273-.124.435.149.613.179.116.584.167.436.482a.27.27,0,0,1-.256.181A1.877,1.877,0,0,1-5289.2,4686.309Zm10.8-17.421a4.839,4.839,0,0,0-.082,2.206c.1.489,0,1.2.641,1.315.879.16,1.857.621,2.663-.1a5.42,5.42,0,0,0,1.56-2.48,1.991,1.991,0,0,0-.975-2.354,3.943,3.943,0,0,0-1.208-.253,4.813,4.813,0,0,0-.586-.039C-5277.506,4667.185-5278.093,4667.695-5278.4,4668.888Zm-41.8,1.618-188.376-24.8a6,6,0,0,1-5.166-6.732,6,6,0,0,1,6.731-5.165l188.377,24.8a6,6,0,0,1,5.165,6.731,6,6,0,0,1-5.94,5.217A6.125,6.125,0,0,1-5320.191,4670.506Zm88.441-20.632-267.689-35.241a6,6,0,0,1-5.166-6.733,6,6,0,0,1,6.731-5.165l267.69,35.241a6,6,0,0,1,5.166,6.731,6,6,0,0,1-5.943,5.218A6.018,6.018,0,0,1-5231.75,4649.874Zm-29.452-26.89c-.565-.047-1.134-.051-1.69-.1a11.623,11.623,0,0,1-2.557-.242.928.928,0,0,0-.342-.036,8.292,8.292,0,0,1-3.359-.553,17.064,17.064,0,0,1-1.824-.478,3.054,3.054,0,0,0-1.441-.25,1.315,1.315,0,0,1-1-.386,1.138,1.138,0,0,0-1.239-.229c-.149.07-.171.049-.274-.087a2.877,2.877,0,0,0-1.114-.846,16.479,16.479,0,0,1-1.741-.881.959.959,0,0,0-.39-.116c-.322-.044-.646-.089-.966-.137a1.537,1.537,0,0,1-1.407-1.851c.047-.5.063-1,.066-1.508a3.848,3.848,0,0,1,.114-.681c.11-.6.023-1.224.147-1.818.237-1.14.214-2.312.458-3.45a7.014,7.014,0,0,0,.147-1.564c-.007-.626.233-1.215.236-1.839a.671.671,0,0,1,.386-.641.432.432,0,0,0,.253-.373c.023-.25.176-.288.4-.269s.455.243.652.057c.163-.153.072-.42.113-.635.1-.48.08-.48.555-.445a5.653,5.653,0,0,0,.692.032,1.134,1.134,0,0,0,.959-.51,7.828,7.828,0,0,0,.88-2.317,14.968,14.968,0,0,0,.521-2.88,12.493,12.493,0,0,1,.6-2.974c.243-.768.3-1.562.516-2.321a17.644,17.644,0,0,1,.547-1.837.537.537,0,0,1,.579-.416c.45.03.9.029,1.359.029a15.162,15.162,0,0,1,2.088.094,3.761,3.761,0,0,1,1.608.547c.149.071.133.185.107.319-.06.31-.113.62-.157.932a.7.7,0,0,0,.427.809c.049.025.1.044.11.1a.714.714,0,0,0,.587.555c.527.13.994.483,1.585.4a1.432,1.432,0,0,1,.59.186,1.99,1.99,0,0,0,1.046.166,5.362,5.362,0,0,1,1.5.082,2.846,2.846,0,0,0,2.07-.573,3.173,3.173,0,0,0,1-.877,5.151,5.151,0,0,0,.4-.812.5.5,0,0,1,.55-.362,10.8,10.8,0,0,1,1.994.436c.625.142,1.236.333,1.854.5l.062.016c1.052.314,1.176.524,1.245,1.615a14.994,14.994,0,0,1-.177,3.2c-.12.8-.273,1.605-.316,2.413a30.631,30.631,0,0,0-.114,5.469,14.38,14.38,0,0,0,.6,2.539.645.645,0,0,0,.535.434c.3.064.486.2.345.547a.188.188,0,0,0,.064.226.732.732,0,0,1,.2.781c-.206,1.082-.45,2.159-.629,3.245-.187,1.14-.475,2.257-.7,3.388-.3,1.491-.662,2.969-1,4.454a.555.555,0,0,1-.213.376c-.333.206-.661.425-1,.626a2.177,2.177,0,0,1-1.219.234c-.108,0-.217,0-.324,0a3.809,3.809,0,0,1-1.218-.089,1.136,1.136,0,0,0-.716,0c-.545.206-1.128.251-1.67.439a3.528,3.528,0,0,1-1.165.173C-5260.668,4623.024-5260.935,4623.005-5261.2,4622.984Zm-325.7-7.254c-2.853-.985-4.417-2.932-3.727-5.2a10.661,10.661,0,0,1,1.371-2.309c1.631-.6,1.414-1.3.689-2.458a6.1,6.1,0,0,1-.906-3.438c1.224-16.681,2.452-33.361,3.923-50.021.261-2.97,1.643-5.836,2.472-8.761.8-2.829,2.118-5.651,2.223-8.513.217-5.951,2.417-11.441,3.3-17.223a140.292,140.292,0,0,1,2.768-13.832c1.428-5.549,4.353-10.433,7.679-15.057,1.221-1.7,2.674-1.521,3.767.274a44.2,44.2,0,0,1,6.01,19.363c.5,5.661-.291,11.5.755,17.028.975,5.16-.292,10.081.105,15.092a6.672,6.672,0,0,0,.659,2.758c2.144,3.7,2.088,7.641,1.833,11.739-.928,14.847-1.686,29.7-2.52,44.555a27.928,27.928,0,0,1-.492,5.354c-.323,1.248-1.385,2.293-2.016,3.485a1.277,1.277,0,0,0,.144,1.2c1.773,1.468,2.282,4.3.684,5.447a10.843,10.843,0,0,1-4.224,1.817,57.272,57.272,0,0,1-10.366,1A42.877,42.877,0,0,1-5586.9,4615.729Zm13.645-8.932c-.137.006-.267.211-.583.476a14.625,14.625,0,0,0,2.453,1.133c2.257.543,4.542.981,6.822,1.427a3.614,3.614,0,0,0,1.022-.1q-.109-.639-.216-1.278a3.809,3.809,0,0,1-.839.164,1.639,1.639,0,0,1-.909-.2,9.29,9.29,0,0,0-5.976-1.671C-5572.069,4606.752-5572.662,4606.773-5573.255,4606.8Zm1.4-1.006c-.011.008.077.227.134.234,1.744.254,3.491.493,5.391.755-.063-.376-.057-.618-.113-.633-1.405-.386-2.819-.748-4.23-1.114.177.861-.227.795-.633.729a2.013,2.013,0,0,0-.312-.035A.38.38,0,0,0-5571.851,4605.792Zm.9-29.622c-.033,1.169.016,2.346-.081,3.509-.2,2.375-.533,4.737-.687,7.112-.1,1.6.035,3.222.013,4.832a7.406,7.406,0,0,1-.256,3.063c-.689,1.367-.439,4.2.908,4.925a11.267,11.267,0,0,0,2.938,1.014c1.362.3,2.762.42,4.141.64a3.677,3.677,0,0,1,.732.274,5.438,5.438,0,0,0,.191-.869c.07-1.169.086-2.343.17-3.512.367-5.049.78-10.094,1.119-15.144.228-3.389.339-6.786.535-10.177q.4-7.009.854-14.013c.159-2.44.487-4.876.515-7.315.017-1.508.128-3.518-.729-4.413a10.974,10.974,0,0,0-5.138-2.615c-.966-.244-3.1-.736-3.082,1.654.006,1.012.245,2.028.2,3.033-.1,2.21-.32,4.416-.469,6.624-.063.924-.066,1.853-.095,2.781l.385-.023c.024.2.046.392.07.587a7.266,7.266,0,0,1-.783.04c-.185-.007-.38-.139-.544-.1-.109.026-.172.253-.256.389.167.057.38.068.489.181.176.185.409.442.4.656-.059,1.137-.2,2.267-.283,3.4-.154,2.008-.4,4.02-.39,6.028a9.325,9.325,0,0,1-.65,2.683c-.326,1.172.174,2.6.417,3.9.135.719.225.693-.407.633h0A.336.336,0,0,0-5570.952,4576.169Zm8.355-38.784c1.89.778,1.525-.426,1.631-1.355.176-1.521.367-3.043.459-4.57.1-1.72.12-3.446.123-5.169,0-.239-.3-.476-.461-.715a2.517,2.517,0,0,0-.273.716c-.056,1.058-.059,2.12-.1,3.178a2.008,2.008,0,0,1-.172.526,3.452,3.452,0,0,1-.378-.481,2.025,2.025,0,0,1-.263-.682c-.117-.96-.2-1.925-.3-2.889l.661-.09c-.067-.274-.08-.755-.213-.791-1.669-.45-3.356-.84-5.043-1.227-.063-.016-.228.15-.248.251a32.088,32.088,0,0,0-.693,3.808c-.079,1.029.232,2.084.213,3.125a15.345,15.345,0,0,1-.374,4.021c-.383,1.295-.022,2.257,1.348,2.283a12.73,12.73,0,0,0,1.427-.083c.439-.041.877-.083,1.3-.083A3.539,3.539,0,0,1-5562.6,4537.386Zm-3.067-32.8c-.113,1.29-.206,2.584-.392,3.864-.21,1.456-.644,2.888-.738,4.346-.162,2.521-.13,5.051-.2,7.577a7.74,7.74,0,0,0-.149,1.454c.167.959,2.472,1.66,3.59,1.022.475-.271.742-.913,1.092-1.4a4.651,4.651,0,0,1,.236-.423c.029-.031.215.072.325.122.18.083.357.172.679.326a4.765,4.765,0,0,0,.449-1.2c.073-3.064.159-6.131.108-9.194-.007-.449-.726-.876-1.092-1.333a4.35,4.35,0,0,1-.73-1.075,5.069,5.069,0,0,1-.136-1.214c-.032-.289-.1-.575-.12-.863-.023-.459-.013-.919-.016-1.379a.99.99,0,0,0,0-.312c-.312-.831-.615-1.666-.962-2.48a12.662,12.662,0,0,0-.662-1.195l-1.215.713a2.256,2.256,0,0,1,.652.458,1.4,1.4,0,0,1,.16.779.821.821,0,0,1-.586.123c-.876-.356-.915.287-1.045.829a.92.92,0,0,0,0,.243,2.544,2.544,0,0,1,.575-.2h0A.592.592,0,0,1-5565.664,4504.583Zm255.589,102.7-185.188-24.38a6,6,0,0,1-5.165-6.733,6,6,0,0,1,6.731-5.165l185.188,24.38a6,6,0,0,1,5.165,6.731,6,6,0,0,1-5.94,5.218A6.042,6.042,0,0,1-5310.075,4607.287Zm187.859-6.935a21,21,0,0,1-8.633-2.269c-14.44-7.539-26.924-17.39-35.915-31.267-3.187-4.917-3.253-9.765.515-12.41,1.445-1.014,3.376-1.339,4.857-1.893,3.205,1.038,3.709-.292,3.988-2.936a11.837,11.837,0,0,1,2.723-6.344c21.807-24.053,43.621-48.1,65.781-71.827,3.95-4.23,9.488-6.967,14.252-10.45,4.609-3.368,9.994-6.112,13.573-10.362,7.446-8.844,17.374-14.614,25.631-22.4a272.414,272.414,0,0,1,20.766-17.853c8.817-6.782,19.127-10.756,29.742-13.856,3.9-1.138,5.908.871,5.432,4.923-1.574,13.441-6.708,25.626-13.946,36.8-6,9.26-14.195,17.251-19.2,26.949-4.675,9.061-12.494,15.073-17.873,23.212a12.946,12.946,0,0,0-2.289,5.009c-1.143,8.22-5.937,14.182-11.226,20.145-19.163,21.6-38.079,43.422-57.105,65.145-2.3,2.622-4.426,5.508-7.149,7.6-1.984,1.525-4.86,1.852-7.248,2.922a2.483,2.483,0,0,0-1.216,2.013c.942,4.3-1.568,9.15-5.292,9.15C-5122.1,4600.355-5122.158,4600.354-5122.216,4600.352Zm-14.463-30.861a28.385,28.385,0,0,0,2.4,4.666c2.8,3.529,5.775,6.929,8.73,10.335a7.048,7.048,0,0,0,1.678,1.074q.6-1.107,1.2-2.214a7.458,7.458,0,0,1-1.479-.752,3.167,3.167,0,0,1-1.152-1.391c-1.425-5.517-5.623-8.671-9.912-11.748a.474.474,0,0,0-.283-.068C-5135.757,4569.393-5136.137,4569.472-5136.679,4569.491Zm4.736.627c2.366,2.473,4.751,4.926,7.345,7.6.353-.65.652-1.014.583-1.1-1.689-2.271-3.417-4.514-5.137-6.761-1.152,2.332-1.806-.239-2.716-.253C-5131.9,4569.6-5132.022,4570.036-5131.943,4570.118Zm36.853-44.757c-1.45,1.75-2.779,3.606-4.317,5.272-3.138,3.4-6.477,6.607-9.552,10.058-2.074,2.329-3.8,4.969-5.754,7.406-1.255,1.563-2.38,3.594-4.051,4.381-2.687,1.265-5.69,5.9-4.5,8.617a21.871,21.871,0,0,0,3.281,5.062c1.729,2.08,3.721,3.942,5.569,5.927a7.321,7.321,0,0,1,.791,1.3,10.689,10.689,0,0,0,1.332-1.1c1.505-1.706,2.932-3.482,4.459-5.167,6.594-7.285,13.258-14.508,19.813-21.83,4.4-4.912,8.627-9.974,12.977-14.928q8.989-10.241,18.055-20.416c3.158-3.542,6.571-6.875,9.529-10.574,1.829-2.286,4.4-5.226,4.16-7.621-.36-3.546-2.467-7.223-4.736-10.141-1.186-1.527-3.861-4.83-6.691-1.152-1.2,1.557-2.048,3.394-3.319,4.879-2.792,3.265-5.767,6.37-8.632,9.572-1.2,1.341-2.314,2.758-3.467,4.142.2.142.409.283.613.426q-.3.491-.595.982a14.4,14.4,0,0,1-1.245-.875c-.273-.233-.415-.669-.712-.809-.2-.092-.563.182-.853.29.187.286.5.559.53.86a2.235,2.235,0,0,1-.174,1.481c-1.445,1.668-3.011,3.231-4.5,4.863-2.637,2.889-5.409,5.675-7.8,8.756-1.215,1.565-2.769,2.267-4.2,3.326-1.9,1.4-2.839,4.182-4.02,6.46-.653,1.259-.485,1.33-1.378.48a.306.306,0,0,0-.2-.049A.636.636,0,0,0-5095.091,4525.361Zm68.021-75.154a62.517,62.517,0,0,0-5.612,5c-1.351,1.481-2.136,3.465-3.408,5.035a29.717,29.717,0,0,1-5.378,5.707c-2.133,1.524-2.73,3.426-.666,5.1s4.962,2.836,6.175,4.972c1.961,3.449,2.843,1.172,4.117-.123,2.084-2.117,4.2-4.216,6.161-6.441,2.213-2.509,4.3-5.129,6.367-7.762.285-.363.11-1.086.147-1.643a4.874,4.874,0,0,0-1.274.768c-1.349,1.551-2.623,3.171-3.953,4.74a3.929,3.929,0,0,1-.893.6,6.738,6.738,0,0,1,0-1.191,3.855,3.855,0,0,1,.413-1.355c.968-1.611,1.991-3.188,2.995-4.777l1.118.65c.223-.5.778-1.25.619-1.462-2.016-2.686-4.13-5.3-6.248-7.905a.263.263,0,0,0-.188-.049A.882.882,0,0,0-5027.07,4450.207Zm11.586,1.811c.177.34.343.688.65,1.308a9.239,9.239,0,0,0,2.117-1.294c3.775-4.6,7.571-9.187,11.154-13.935.525-.695-.065-2.207-.079-3.342a8.419,8.419,0,0,1,.169-2.517,9.693,9.693,0,0,1,1.242-2.019c.3-.48.524-1,.848-1.464.513-.73,1.078-1.422,1.623-2.13.123-.16.312-.3.367-.482.516-1.643,1.048-3.282,1.492-4.944a24.424,24.424,0,0,0,.415-2.618l-2.711-.363a4.357,4.357,0,0,1,.45,1.481,2.68,2.68,0,0,1-.687,1.382,1.571,1.571,0,0,1-1.042-.511c-.915-1.592-1.741-.654-2.59.019a1.85,1.85,0,0,0-.285.377,4.753,4.753,0,0,1,1.115.385c.077.047-.032.632-.21.823-1.715,1.838-3.4,3.706-5.219,5.444-2.06,1.974-4.436,3.648-6.321,5.767-3.259,3.659-6.234,7.57-9.357,11.353-.6.729-1.536,1.242-1.964,2.044-.891,1.668,1.8,5.494,4.271,5.854,1.051.153,2.224-.512,3.335-.829a9.211,9.211,0,0,1,.868-.365h0C-5015.747,4451.442-5015.59,4451.813-5015.484,4452.018Zm-303.455-20.256a5.844,5.844,0,0,1-.446-1.431c.362-.9-.009-1.072-.763-1.2a3.408,3.408,0,0,1-1.766-.909c-6.467-6.743-12.933-13.487-19.3-20.324a27.69,27.69,0,0,1-2.713-4.3,21.188,21.188,0,0,0-2.7-4.1c-2.39-2.314-3.847-5.28-5.916-7.806a78.006,78.006,0,0,1-4.708-6.32,25.43,25.43,0,0,1-3.38-8.814c-.249-1.142.369-1.68,1.521-1.461a24.672,24.672,0,0,1,10.285,4.742c2.537,1.907,4.667,4.421,7.351,6.052,2.506,1.524,4.075,3.888,6.3,5.6a3.73,3.73,0,0,0,1.391.756c2.337.493,3.953,1.99,5.558,3.626,5.817,5.935,11.7,11.8,17.553,17.7a15.586,15.586,0,0,1,2.038,2.2,10.264,10.264,0,0,1,.693,2.139.711.711,0,0,0,.553.39c1.272-.186,2.636.659,2.516,1.752a6.044,6.044,0,0,1-.825,2.432,26.459,26.459,0,0,1-9.7,9.682,3.89,3.89,0,0,1-1.841.544A1.9,1.9,0,0,1-5318.939,4431.762Zm8.938-11.516a.919.919,0,0,1-.422.3c-1.612.3-2.6,1.441-3.572,2.609-.048.06-.013.191-.02.421a8.112,8.112,0,0,0,1.387-.595c1.069-.734,2.105-1.52,3.142-2.3a1.976,1.976,0,0,0,.341-.46l-.61-.389A2.147,2.147,0,0,1-5310,4420.246Zm-1.715-.16c-.687.439-1.365.889-2.044,1.339.646.376-.105.513-.127.773,0,.009.123.053.147.032.758-.629,1.51-1.265,2.329-1.956a2.032,2.032,0,0,0-.3-.191A.014.014,0,0,0-5311.717,4420.085Zm-20.559-16.275c.45.449.868.929,1.307,1.388.776.815,1.52,1.667,2.357,2.416a5.157,5.157,0,0,1,.869,1.272,5.222,5.222,0,0,0,1.774,1.284c.349.213.372.166.11.4a.182.182,0,0,0,.011.179c.472.45.978.869,1.425,1.345.912.968,1.767,1.991,2.7,2.943.626.642,1.349,1.189,2.01,1.8.424.391.985.755,1.176,1.25.309.8,1.58,1.752,2.384,1.465a6.4,6.4,0,0,0,1.519-.841c.632-.456,1.206-.99,1.813-1.481a2.068,2.068,0,0,1,.389-.2,3.163,3.163,0,0,0-.29-.4c-.459-.467-.941-.911-1.394-1.384-1.958-2.039-3.9-4.1-5.868-6.125-1.323-1.361-2.69-2.676-4.026-4.024q-2.759-2.788-5.5-5.592c-.954-.978-1.841-2.025-2.843-2.947-.621-.572-1.413-1.37-2.1-1.348a6.129,6.129,0,0,0-3.006,1.156c-.462.311-1.464,1.011-.465,1.9.422.375.932.655,1.334,1.051.88.866,1.712,1.783,2.574,2.669.36.372.745.72,1.118,1.079l.136-.168c.09.064.179.127.27.19a3.974,3.974,0,0,1-.277.34c-.071.074-.2.107-.246.188-.03.054.041.166.065.251.086-.048.171-.133.259-.136h.087A.5.5,0,0,1-5332.276,4403.811Zm-11.4-15.921c-.812.524-1.6,1.079-2.395,1.634-.03.021-.021.151.012.2a18.209,18.209,0,0,0,1.322,1.711c.4.417.952.682,1.376,1.08a8.5,8.5,0,0,1,1.53,1.658c.395.643.929.853,1.452.293s.914-1.367,1.551-1.673c1.029-.493.394-.793.047-1.184-.566-.642-1.126-1.291-1.726-1.9-.676-.685-1.386-1.338-2.1-1.982-.1-.09-.311-.054-.469-.076a1.4,1.4,0,0,0,.195.381c.418.419.857.816,1.281,1.229a1.1,1.1,0,0,1,.154.268,1.848,1.848,0,0,1-.342-.023,1.13,1.13,0,0,1-.38-.146c-.443-.31-.875-.635-1.312-.955l.21-.309c-.124-.066-.3-.212-.382-.212A.042.042,0,0,0-5343.673,4387.889Zm-9.914-6.087c.492.529,1,1.051,1.457,1.606.526.632.958,1.347,1.528,1.932.985,1.009,2.048,1.941,3.072,2.913.2.188.326.466.546.606.461.288,1.614-.406,1.767-1.11a2.579,2.579,0,0,0-.171-.974c-.019-.087-.077-.169-.087-.256,0-.024.11-.062.172-.089.1-.044.206-.084.39-.16a2.7,2.7,0,0,0-.329-.635c-1.245-1.175-2.486-2.357-3.776-3.481-.125-.109-.36-.086-.6-.063a2.439,2.439,0,0,1-.36.019,2.426,2.426,0,0,1-.719-.1,2.821,2.821,0,0,1-.555-.4c-.133-.094-.279-.171-.4-.273-.2-.162-.387-.337-.579-.509-.044-.039-.08-.1-.132-.116-.461-.18-.92-.366-1.389-.528a6.819,6.819,0,0,0-.744-.17q-.079.384-.157.771a1.261,1.261,0,0,1,.433-.1.776.776,0,0,1,.383.226.453.453,0,0,1-.167.289c-.476.23-.223.486-.047.743a.6.6,0,0,0,.1.09,1.36,1.36,0,0,1,.133-.313s.01-.006.021-.006A.39.39,0,0,1-5353.587,4381.8Z" transform="translate(6760.622 -4210.273)" fill="#fff" stroke="rgba(0,0,0,0)" stroke-miterlimit="10" stroke-width="1"/>
    </g>
  </g>
</svg>
