<svg xmlns="http://www.w3.org/2000/svg" width="35.054" height="29.499" viewBox="0 0 35.054 29.499">
  <path id="Объединение_28" data-name="Объединение 28" d="M21.178,29.5a1.261,1.261,0,0,1-1.262-1.261V23.192a1.261,1.261,0,0,1,1.262-1.261h5.887V20.078a3.995,3.995,0,1,1,7.989-.04v2.1a.629.629,0,0,1-.631.631h-.841a.629.629,0,0,1-.631-.631v-2.1a1.892,1.892,0,1,0-3.785.023v1.869h1.262a1.261,1.261,0,0,1,1.261,1.261v5.046A1.261,1.261,0,0,1,30.429,29.5ZM6.071,25.8V24.287H16.918a13.068,13.068,0,0,0-.1,1.517H6.071Zm-1.518,0H0V12.9A12.9,12.9,0,0,1,22.027,3.777,12.82,12.82,0,0,1,25.8,12.9v.842a12.572,12.572,0,0,0-4.554,2.5V10.625H4.553V25.8h0Zm1.518-3.035V21.251H17.69a12.669,12.669,0,0,0-.486,1.517H6.071Zm0-3.037V18.214H19.4a12.847,12.847,0,0,0-.99,1.518ZM19.732,16.7H6.071V15.179H19.733V16.7h0Zm0-3.036H6.071V12.144H19.733V13.66h0Z" fill="#eaeaea"/>
</svg>
