<svg xmlns="http://www.w3.org/2000/svg" width="19.012" height="19.012" viewBox="0 0 19.012 19.012">
  <g id="Icon_ionic-ios-arrow-dropright" data-name="Icon ionic-ios-arrow-dropright" transform="translate(19.012) rotate(90)">
    <path id="Контур_19" data-name="Контур 19" d="M.261.257a.885.885,0,0,1,1.248,0l4.36,4.374A.881.881,0,0,1,5.9,5.846l-4.3,4.31A.881.881,0,1,1,.352,8.913L4,5.207.261,1.5A.872.872,0,0,1,.261.257Z" transform="translate(7.175 4.295)" fill="#fff"/>
    <path id="Контур_20" data-name="Контур 20" d="M0,9.506A9.506,9.506,0,1,0,9.506,0,9.5,9.5,0,0,0,0,9.506Zm1.462,0A8.04,8.04,0,0,1,15.191,3.821,8.04,8.04,0,1,1,3.821,15.191,7.974,7.974,0,0,1,1.462,9.506Z" fill="#fff"/>
  </g>
</svg>
