<svg xmlns="http://www.w3.org/2000/svg" width="22.297" height="22.297" viewBox="0 0 22.297 22.297">
  <g id="Icon_ionic-ios-arrow-dropright" data-name="Icon ionic-ios-arrow-dropright" transform="translate(22.297) rotate(90)" opacity="0.5">
    <path id="Контур_19" data-name="Контур 19" d="M.306.3A1.038,1.038,0,0,1,1.769.3L6.882,5.431a1.033,1.033,0,0,1,.032,1.426L1.876,11.911A1.033,1.033,0,1,1,.413,10.453L4.7,6.106.306,1.759A1.022,1.022,0,0,1,.306.3Z" transform="translate(8.415 5.037)" fill="#f19191"/>
    <path id="Контур_20" data-name="Контур 20" d="M0,11.149A11.149,11.149,0,1,0,11.149,0,11.147,11.147,0,0,0,0,11.149Zm1.715,0a9.43,9.43,0,0,1,16.1-6.668A9.43,9.43,0,1,1,4.481,17.816,9.352,9.352,0,0,1,1.715,11.149Z" transform="translate(0)" fill="#f19191"/>
  </g>
</svg>
