<svg xmlns="http://www.w3.org/2000/svg" width="22" height="25" viewBox="0 0 22 25">
  <path id="Icon_metro-gas-station" data-name="Icon metro-gas-station" d="M29.187,12.3h0l-5-5-1,1,3,3c-1.294.5-3,1.534-3,3a4.474,4.474,0,0,0,4,4c.489,0,.58.186,1,0v9c0,.757-.243,2-1,2a2.691,2.691,0,0,1-2-2v-6c0-1.521-.479-2-2-2h-2V9.3c0-1.521-.479-3-2-3h-9c-1.521,0-2,1.479-2,3v22h13v-10h2v6a4.474,4.474,0,0,0,4,4c1.9,0,3-2.1,3-4v-13A2.516,2.516,0,0,0,29.187,12.3Zm-10,4h-9v-7h9Zm8,0a2.691,2.691,0,0,1-2-2c0-.757,1.243-1,2-1s1,.243,1,1S27.944,16.3,27.187,16.3Z" transform="translate(-8.187 -6.298)" opacity="0.5"/>
</svg>
