<svg xmlns="http://www.w3.org/2000/svg" width="1024.492" height="465.5" viewBox="0 0 1024.492 465.5">
  <g id="Сгруппировать_749" data-name="Сгруппировать 749" transform="translate(1740.545 -1001.565)">
    <g id="Сгруппировать_737" data-name="Сгруппировать 737" transform="translate(-1737.197 922.297)">
      <path id="Контур_1" data-name="Контур 1" d="M6.235-.2A225.6,225.6,0,0,0,61.92,6.833c31.27.047,37.445-8.995,69.86-10.683s30.081,8.076,59.528,9.081,28.275-7.659,58.475-8.9,35.4,11.681,62.637,12.682S328.452-4.151,357.953-3.506s28.28,11.67,63.155,12.683S437.572.6,478.546-1.524s37.53,8.723,62.4,8.435,26.8-12.686,49.532-12.248S621.8,6.073,651.726,5.127,675.847-8.481,706.874-7.8,737.266,3.862,773.061,3.7,850.054-8.463,850.054-8.463L969.485,231.325l-395.216-1.6L-4.608,214.3Z" transform="matrix(0.978, -0.208, 0.208, 0.978, 2.92, 289.114)" fill="#e3c040"/>
      <path id="Контур_2" data-name="Контур 2" d="M6.172,1.384a229.444,229.444,0,0,0,56.181,7c31.545.03,37.77-9.015,70.47-10.722s30.351,8.06,60.059,9.048S221.4-.961,251.868-2.22s35.72,11.661,63.2,12.647S331.23-2.744,360.992-2.116s28.536,11.655,63.72,12.648S441.315,1.946,482.651-.2,520.517,8.5,545.6,8.2,572.628-4.5,595.565-4.077s31.6,11.394,61.8,10.429S681.688-7.268,712.989-6.6,743.656,5.041,779.766,4.855s77.665-12.2,77.665-12.2L978.055,232.374l-398.7-1.383-583.994-15.1Z" transform="matrix(0.978, -0.208, 0.208, 0.978, 5.601, 302.814)" fill="#e3a830"/>
      <path id="Контур_3" data-name="Контур 3" d="M6.339.84A233.528,233.528,0,0,0,63.032,7.855c31.834.036,38.118-9.008,71.118-10.708s30.627,8.066,60.606,9.059,28.783-7.67,59.528-8.923S290.328,8.95,318.056,9.941,334.373-3.227,364.407-2.593s28.794,11.659,64.3,12.66S445.464,1.485,487.178-.656,525.388,8.053,550.7,7.756,577.98-4.94,601.126-4.51s31.89,11.4,62.36,10.441,24.552-13.617,56.14-12.946S750.57,4.636,787.011,4.457,865.39-7.731,865.39-7.731L987.054,232.013,584.7,230.555-4.631,215.348Z" transform="matrix(0.978, -0.208, 0.208, 0.978, 7.422, 316.863)" fill="#e3c040"/>
    </g>
  </g>
</svg>
