<svg xmlns="http://www.w3.org/2000/svg" width="106.316" height="70.45" viewBox="0 0 106.316 70.45">
  <g id="Сгруппировать_730" data-name="Сгруппировать 730" transform="translate(-606 -916.96)">
    <g id="Сгруппировать_723" data-name="Сгруппировать 723" transform="translate(643.147 916.96)">
      <g id="Прямоугольник_1004" data-name="Прямоугольник 1004" transform="translate(0)" fill="none" stroke="#111211" stroke-width="1">
        <rect width="32.023" height="32.023" stroke="none"/>
        <rect x="0.5" y="0.5" width="31.023" height="31.023" fill="none"/>
      </g>
      <g id="Многоугольник_1" data-name="Многоугольник 1" transform="translate(10.247 10.888)" fill="none">
        <path d="M5.764,0l5.764,10.247H0Z" stroke="none"/>
        <path d="M 5.764122009277344 2.039738655090332 L 1.709853172302246 9.247323989868164 L 9.818389892578125 9.247323989868164 L 5.764122009277344 2.039738655090332 M 5.764122009277344 3.814697265625e-06 L 11.52824211120605 10.24732398986816 L 1.9073486328125e-06 10.24732398986816 L 5.764122009277344 3.814697265625e-06 Z" stroke="none" fill="#111211"/>
      </g>
    </g>
    <g id="Сгруппировать_724" data-name="Сгруппировать 724" transform="translate(675.169 987.411) rotate(180)">
      <g id="Прямоугольник_1004-2" data-name="Прямоугольник 1004" fill="none" stroke="#111211" stroke-width="1">
        <rect width="32.023" height="32.023" stroke="none"/>
        <rect x="0.5" y="0.5" width="31.023" height="31.023" fill="none"/>
      </g>
      <g id="Многоугольник_1-2" data-name="Многоугольник 1" transform="translate(10.247 10.888)" fill="none">
        <path d="M5.764,0l5.764,10.247H0Z" stroke="none"/>
        <path d="M 5.764122009277344 2.039738655090332 L 1.709853172302246 9.247323989868164 L 9.818389892578125 9.247323989868164 L 5.764122009277344 2.039738655090332 M 5.764122009277344 3.814697265625e-06 L 11.52824211120605 10.24732398986816 L 1.9073486328125e-06 10.24732398986816 L 5.764122009277344 3.814697265625e-06 Z" stroke="none" fill="#111211"/>
      </g>
    </g>
    <g id="Сгруппировать_725" data-name="Сгруппировать 725" transform="translate(606 987.411) rotate(-90)">
      <g id="Прямоугольник_1004-3" data-name="Прямоугольник 1004" fill="none" stroke="#111211" stroke-width="1">
        <rect width="32.023" height="32.023" stroke="none"/>
        <rect x="0.5" y="0.5" width="31.023" height="31.023" fill="none"/>
      </g>
      <g id="Многоугольник_1-3" data-name="Многоугольник 1" transform="translate(10.247 10.888)" fill="none">
        <path d="M5.764,0l5.764,10.247H0Z" stroke="none"/>
        <path d="M 5.764122009277344 2.039738655090332 L 1.709853172302246 9.247323989868164 L 9.818389892578125 9.247323989868164 L 5.764122009277344 2.039738655090332 M 5.764122009277344 3.814697265625e-06 L 11.52824211120605 10.24732398986816 L 1.9073486328125e-06 10.24732398986816 L 5.764122009277344 3.814697265625e-06 Z" stroke="none" fill="#111211"/>
      </g>
    </g>
    <g id="Сгруппировать_726" data-name="Сгруппировать 726" transform="translate(712.316 955.388) rotate(90)">
      <g id="Прямоугольник_1004-4" data-name="Прямоугольник 1004" fill="none" stroke="#111211" stroke-width="1">
        <rect width="32.023" height="32.023" stroke="none"/>
        <rect x="0.5" y="0.5" width="31.023" height="31.023" fill="none"/>
      </g>
      <g id="Многоугольник_1-4" data-name="Многоугольник 1" transform="translate(10.247 10.888)" fill="none">
        <path d="M5.764,0l5.764,10.247H0Z" stroke="none"/>
        <path d="M 5.764122009277344 2.039738655090332 L 1.709853172302246 9.247323989868164 L 9.818389892578125 9.247323989868164 L 5.764122009277344 2.039738655090332 M 5.764122009277344 3.814697265625e-06 L 11.52824211120605 10.24732398986816 L 1.9073486328125e-06 10.24732398986816 L 5.764122009277344 3.814697265625e-06 Z" stroke="none" fill="#111211"/>
      </g>
    </g>
  </g>
</svg>
