<svg xmlns="http://www.w3.org/2000/svg" width="71.723" height="64.109" viewBox="0 0 71.723 64.109">
  <g id="Сгруппировать_733" data-name="Сгруппировать 733" transform="translate(-5744.099 400.543)">
    <g id="Сгруппировать_727" data-name="Сгруппировать 727" transform="translate(5744.625 -402.629)">
      <path id="Контур_538" data-name="Контур 538" d="M5774.032-362.821a.686.686,0,0,1-.142.041,4.151,4.151,0,0,1-.529-.023,56.4,56.4,0,0,1-11.05-2,25.6,25.6,0,0,1-6.831-2.925,10.423,10.423,0,0,1-1.755-1.52.814.814,0,0,1-.1-1.146.771.771,0,0,1,.088-.089,6.929,6.929,0,0,1,1.174-1.129,20.116,20.116,0,0,1,5.4-2.671,46.046,46.046,0,0,1,5.245-1.494v-9.006c-.3.055-.6.113-.911.174a44.808,44.808,0,0,0-11.063,3.528,19,19,0,0,0-6.468,4.744,9.65,9.65,0,0,0-2.293,8.257,10.665,10.665,0,0,0,3.581,6.04,23.587,23.587,0,0,0,7.408,4.383,60.31,60.31,0,0,0,17.676,3.71c.433.032.6.121.594.6-.027,2.371-.011,4.74-.011,7.111v1.438l17.1-13.3L5774.033-371.4Z" transform="translate(-5744.625 409.967)" fill="none" stroke="#0c0d0d" stroke-width="1"/>
      <path id="Контур_539" data-name="Контур 539" d="M5800.2-373.008a11.77,11.77,0,0,0-4.3-5.586,28.27,28.27,0,0,0-8.433-4.25,55.79,55.79,0,0,0-7.621-1.95v9.032a39.623,39.623,0,0,1,6.886,2.117,14.47,14.47,0,0,1,4.5,2.659c.88.83.931,1.386.021,2.162a17.064,17.064,0,0,1-2.777,1.931,28.229,28.229,0,0,1-6.434,2.4.485.485,0,0,0-.44.528v.042c.012,2.724,0,5.447.008,8.171,0,.141.017.282.027.423.058,0,.117-.006.175-.013a46.944,46.944,0,0,0,9.862-3.26,19.647,19.647,0,0,0,6.267-4.437A9.6,9.6,0,0,0,5800.2-373.008Z" transform="translate(-5730.144 409.963)" fill="none" stroke="#0c0d0d" stroke-width="1"/>
    </g>
    <g id="Сгруппировать_734" data-name="Сгруппировать 734" transform="translate(1.824 2.586)">
      <path id="Контур_540" data-name="Контур 540" d="M5773.51-402.629h-3.871a8.851,8.851,0,0,0-8.841,8.841v12.875a8.853,8.853,0,0,0,8.841,8.841h3.871a8.85,8.85,0,0,0,8.841-8.841v-12.875A8.849,8.849,0,0,0,5773.51-402.629Zm-.467,2.641a.075.075,0,0,1,.072-.072h.447a6.275,6.275,0,0,1,6.215,6.269v4.212h0a.072.072,0,0,1-.073.072h-6.589a.078.078,0,0,1-.072-.072Z" transform="translate(6.65)" fill="none" stroke="#0c0d0d" stroke-width="1"/>
      <path id="Контур_542" data-name="Контур 542" d="M5769.881-400.429a.074.074,0,0,0-.073-.072h-.446a6.275,6.275,0,0,0-6.215,6.269v4.212h0a.073.073,0,0,0,.072.072h6.59a.076.076,0,0,0,.073-.072Z" transform="translate(7.136 0.44)" fill="#0c0c0c" stroke="#0c0d0d" stroke-width="1"/>
    </g>
  </g>
</svg>
