<svg xmlns="http://www.w3.org/2000/svg" xmlns:xlink="http://www.w3.org/1999/xlink" width="28" height="39" viewBox="0 0 28 39">
  <defs>
    <filter id="Объединение_5" x="0" y="0" width="28" height="39" filterUnits="userSpaceOnUse">
      <feOffset dy="1" input="SourceAlpha"/>
      <feGaussianBlur stdDeviation="1" result="blur"/>
      <feFlood flood-opacity="0.749"/>
      <feComposite operator="in" in2="blur"/>
      <feComposite in="SourceGraphic"/>
    </filter>
  </defs>
  <g transform="matrix(1, 0, 0, 1, 0, 0)" filter="url(#Объединение_5)">
    <path id="Объединение_5-2" data-name="Объединение 5" d="M8.9,33A8.9,8.9,0,0,1,0,24.1V11a11,11,0,1,1,22,0h0V24.1A8.9,8.9,0,0,1,13.1,33ZM2.063,24.1A6.85,6.85,0,0,0,8.9,30.938H13.1A6.85,6.85,0,0,0,19.937,24.1V15.125H2.063ZM11,14.437V2.062A8.937,8.937,0,0,0,2.063,11v3.437Z" transform="translate(3 2)" fill="#fff"/>
  </g>
</svg>
