<svg xmlns="http://www.w3.org/2000/svg" xmlns:xlink="http://www.w3.org/1999/xlink" width="32.446" height="81.734" viewBox="0 0 32.446 81.734">
  <defs>
    <filter id="Контур_2961" x="0" y="0" width="32.446" height="81.734" filterUnits="userSpaceOnUse">
      <feOffset dy="1" input="SourceAlpha"/>
      <feGaussianBlur stdDeviation="1" result="blur"/>
      <feFlood flood-opacity="0.749"/>
      <feComposite operator="in" in2="blur"/>
      <feComposite in="SourceGraphic"/>
    </filter>
  </defs>
  <g transform="matrix(1, 0, 0, 1, 0, 0)" filter="url(#Контур_2961)">
    <path id="Контур_2961-2" data-name="Контур 2961" d="M-6818.364-175.508l-4.948-4.952a.831.831,0,0,1,0-1.171.822.822,0,0,1,1.166,0l4.367,4.371,4.371-4.367a.822.822,0,0,1,1.166,0,.827.827,0,0,1,.241.585.823.823,0,0,1-.241.583l-4.983,4.975a.819.819,0,0,1-.557.216A.824.824,0,0,1-6818.364-175.508Zm0-5.4-4.948-4.952a.829.829,0,0,1,0-1.168.822.822,0,0,1,1.166,0l4.367,4.371,4.371-4.367a.822.822,0,0,1,1.166,0,.822.822,0,0,1,.241.583.827.827,0,0,1-.241.585l-4.983,4.973a.819.819,0,0,1-.557.216A.824.824,0,0,1-6818.364-180.911Zm-1.816-12.388A10.831,10.831,0,0,1-6831-204.118v-15.627a13.237,13.237,0,0,1,13.223-13.222,13.238,13.238,0,0,1,13.224,13.222v15.627a10.831,10.831,0,0,1-10.818,10.819Zm-8.414-26.447v15.19a8.863,8.863,0,0,0,8.852,8.853h3.934a8.863,8.863,0,0,0,8.852-8.853v-15.19a10.831,10.831,0,0,0-10.819-10.817A10.83,10.83,0,0,0-6828.595-219.746Zm9.615,2.189v-7.823a1.107,1.107,0,0,1,1.2-.977,1.107,1.107,0,0,1,1.2.977v7.823a1.107,1.107,0,0,1-1.2.977A1.107,1.107,0,0,1-6818.979-217.557Zm5.571-21.678-4.367-4.371-4.371,4.367a.822.822,0,0,1-1.166,0,.822.822,0,0,1-.241-.583.827.827,0,0,1,.241-.585l4.982-4.973a.826.826,0,0,1,.557-.216.823.823,0,0,1,.583.241l4.948,4.952a.829.829,0,0,1,0,1.168.813.813,0,0,1-.581.243A.823.823,0,0,1-6813.408-239.235Zm0-5.4-4.367-4.371-4.371,4.367a.822.822,0,0,1-1.166,0,.827.827,0,0,1-.241-.585.822.822,0,0,1,.241-.583l4.982-4.975a.827.827,0,0,1,.557-.216.82.82,0,0,1,.583.241l4.948,4.952a.831.831,0,0,1,0,1.171.813.813,0,0,1-.581.243A.823.823,0,0,1-6813.408-244.637Z" transform="translate(6834 253)" fill="#fff"/>
  </g>
</svg>
