<svg xmlns="http://www.w3.org/2000/svg" xmlns:xlink="http://www.w3.org/1999/xlink" width="1675" height="583" viewBox="0 0 1675 583">
  <defs>
    <linearGradient id="linear-gradient" x1="0.888" y1="0.448" x2="0.078" y2="0.445" gradientUnits="objectBoundingBox">
      <stop offset="0" stop-color="#8c8992"/>
      <stop offset="1" stop-color="#fff"/>
    </linearGradient>
  </defs>
  <path id="Вычитание_54" data-name="Вычитание 54" d="M-2095-5517h-115.842c.592-.187,1.22-.39,1.867-.607a46.888,46.888,0,0,0,8.045-3.391,21.425,21.425,0,0,0,6.668-5.615,5.376,5.376,0,0,1,4.65-2.358c.226,0,.467.009.714.028,5.291.4,10.771.6,16.286.6a262.93,262.93,0,0,0,30.151-1.805,222.534,222.534,0,0,0,21.985-3.514,134.788,134.788,0,0,0,21.317-6.387c1.531-.608,2.892-1.179,4.161-1.746v24.8Zm-383.77,0H-3770v-583h1675v516.772c-2.118-.951-4.421-1.867-7.039-2.8-2.828-1.011-5.74-1.967-8.557-2.892l-.051-.017c-1.167-.383-2.526-.829-3.88-1.281.032-.25.063-.474.092-.683l0-.038c.051-.373.1-.758.14-1.123.4-4.128.852-8.322,1.285-12.379v-.022c.975-9.14,1.983-18.591,2.568-27.911a180.49,180.49,0,0,0-.479-28.152,210.065,210.065,0,0,0-4.583-27.811,6.97,6.97,0,0,1-.243-3.335,3.851,3.851,0,0,1,2.589-2.368c1.567-.638,2.952-2.9,3.51-4.795a21.05,21.05,0,0,0,.4-7.171c-.431-6.287-.937-13.024-1.721-19.693-.9-7.657-2-15.664-3.368-24.479a10.5,10.5,0,0,0-1.945-4.8,9.975,9.975,0,0,0-4.241-3.17,3.939,3.939,0,0,1-1.976-1.984c-1.115-2.9-3.277-4.292-7.01-4.5-.693-.039-1.4-.117-2.083-.192h-.02a27.04,27.04,0,0,0-2.933-.217c-.311,0-.6.011-.884.033-.22.017-.433.026-.633.026-2.833,0-4-1.647-4.961-4.3-2.71-7.477-5.665-15.005-8.522-22.287l-.014-.036-.545-1.388a53.948,53.948,0,0,0-9.282-15.742,43.315,43.315,0,0,0-14.513-10.939,114.04,114.04,0,0,0-21.365-7.6c-15.35-3.693-31.3-4.668-46.723-5.61h-.025c-4.759-.291-9.681-.592-14.51-.968-11.626-.905-21.865-1.448-31.3-1.658-.965-.021-1.952-.047-2.905-.072l-.122,0c-2.57-.067-5.227-.138-7.865-.138a77.328,77.328,0,0,0-13.417.974c-25.229,4.418-50.805,9.283-75.539,13.987-7.851,1.493-15.524,2.952-23.086,4.379-50.623,9.556-110.281,20.824-168.942,31.948-11.707,2.221-23.6,4.539-35.1,6.781l-.193.038-.08.016c-6.032,1.176-12.27,2.392-18.405,3.579a15.733,15.733,0,0,0-6.187,2.583,16.4,16.4,0,0,0-4.506,4.979,41.262,41.262,0,0,0-4.725,11.812,70.249,70.249,0,0,0-1.7,12.515c-.846,15.116-1.449,31.761-1.9,52.383-.373,17.211-.32,34.426-.231,47.5a4.879,4.879,0,0,1-.925,3.432,5.687,5.687,0,0,1-3.179,1.488,179.913,179.913,0,0,0-19.086,5.184,74.884,74.884,0,0,0-11.96,5.079,40.7,40.7,0,0,0-10.372,7.884,19.143,19.143,0,0,0-3.446,4.958,12.311,12.311,0,0,0-1.2,5.062c-.036,3.454,1.517,6.768,4.614,9.85a51.228,51.228,0,0,0,11.35,8.34c10,5.5,21.692,9.139,35.751,11.14,7.754,1.1,15.69,1.772,23.365,2.42,4.277.361,8.7.734,13.039,1.178,1.533.156,3.87.851,4.089,1.7a12.315,12.315,0,0,0,4.255,6.653,27.531,27.531,0,0,0,6.813,3.775c1.98.833,4.029,1.534,6.2,2.276l.073.025c1.021.35,2.076.711,3.179,1.1-.65.466-1.225.869-1.855,1.309l-.009.006c-1.087.759-2.027,1.415-2.918,2.128-4.511,3.609-6.8,7.623-6.61,11.608.184,3.915,2.76,7.611,7.451,10.69a62.152,62.152,0,0,0,14.712,7.289,159.94,159.94,0,0,0,26.208,6.1,183.777,183.777,0,0,0,26.5,1.866,239.287,239.287,0,0,0,33.787-2.527,6.468,6.468,0,0,1,.912-.062,11.693,11.693,0,0,1,4.581,1.1c2.355,1.053,4.688,2.227,6.944,3.362q.843.424,1.686.846l0,0h0Zm107.463-49.162a12,12,0,0,1-6.3-1.85,19.087,19.087,0,0,1-5.651-5.554,39.636,39.636,0,0,1-5.847-12.973,50.109,50.109,0,0,1-1.354-13.918,54,54,0,0,1,1.538-14.857,37.149,37.149,0,0,1,6.308-13.2,18.038,18.038,0,0,1,5.335-4.906,11.7,11.7,0,0,1,5.883-1.635c3.807,0,7.556,1.95,10.842,5.638a24.716,24.716,0,0,1,3.388,4.849,46.975,46.975,0,0,1,4.674,13.685,58.4,58.4,0,0,1,.655,14.435,55.881,55.881,0,0,1-2.081,12.133,35.273,35.273,0,0,1-5.459,11.059,19.507,19.507,0,0,1-5.706,5.32A12.229,12.229,0,0,1-2371.308-5566.163Zm114.02-9.587a144.829,144.829,0,0,1-18.38-1.586l-1.917-.247c-13.355-1.705-26.922-3.545-40.042-5.324l-.157-.021c-6.582-.893-14.773-2-22.585-3.044l-.156-.021c-5.3-.7-5.3-.7-5.553-6.126l-.012-.256c-.081-1.716-.138-3.464-.194-5.155-.266-8.132-.541-16.539-3.614-24.448a51.345,51.345,0,0,0-5.033-9.971,33.364,33.364,0,0,0-7.606-8.2,27.237,27.237,0,0,0-16.284-5.571c-.125,0-.243,0-.361,0-5.39,0-9.828,2.7-13.192,8.025-4.725,7.484-6.284,16.013-7.266,24.115-.567,4.676-.685,9.485-.8,14.137-.016.664-.032,1.324-.05,1.983-.047,1.809-.421,2.855-2.191,2.855a6.714,6.714,0,0,1-.935-.074c-27.6-3.888-59.74-8.4-91.826-12.717a4.772,4.772,0,0,1-3.151-1.272,4.667,4.667,0,0,1-.826-3.239c.078-23.968.07-48.309.062-71.848q0-9.269,0-18.538c0-.3,0-.6,0-.872.008-1.017.016-2.064-.078-3.084a6.559,6.559,0,0,0-1.643-4.211,5.552,5.552,0,0,0-4.132-1.422h-.181c-6.708.115-12.744.392-18.452.847-4.368.348-6.07,2.523-6.072,7.759-.009,20.159-.008,40.583-.007,60.335q0,12.88,0,25.761v.034a13.415,13.415,0,0,1-.248,3.711c-.242.677-.713.928-1.738.929a26.4,26.4,0,0,1-2.72-.241h-.008l-.4-.046c-8.032-.933-16.653-1.886-25.268-2.537-2.938-.221-3.411-1.381-3.791-3.975a246.542,246.542,0,0,0-4.593-24.525c-.724-2.867-2.578-5.957-5.511-9.186a8.8,8.8,0,0,0-6.508-3.056,7.608,7.608,0,0,0-3.9,1.072,8.454,8.454,0,0,0-3.048,3.213,56.16,56.16,0,0,0-5.376,15.058,73.4,73.4,0,0,0-1.427,14.736,5.217,5.217,0,0,1-.76,3.032,2.618,2.618,0,0,1-2.253.956,7.344,7.344,0,0,1-1.353-.141c-1.861-.348-3.754-.7-5.585-1.041l-.159-.029-.026,0c-7.763-1.442-15.791-2.934-23.645-4.6a55.22,55.22,0,0,1-7.117-2.2l-.055-.02c-1.246-.447-2.534-.909-3.814-1.311-2.439-.767-3.469-2.217-3.443-4.848.114-10.771.194-21.684.271-32.237v-.1c.09-12.3.183-25.023.33-37.533.094-8.122.336-16.379.57-24.364v-.023c.1-3.565.213-7.252.306-10.886a3.484,3.484,0,0,1,.467-1.937c0,2.058,0,4.145,0,6.185v.952c-.006,5.414-.012,11.011.014,16.517.013,2.7.065,4.417.677,5.384.634,1,1.907,1.2,3.892,1.2.5,0,1.087-.013,1.892-.042,18.657-.682,38.4-1.5,58.676-2.442,9.843-.456,19.844-1.053,29.516-1.629l.029,0,6.683-.4c11.468-.676,22.929-1.363,35.648-2.126l.258-.016c9.385-.563,19.091-1.145,28.634-1.711,4.919-.292,9.922-.576,14.759-.851l.039,0c7.228-.411,14.7-.835,22.093-1.3,11.984-.747,24.068-1.527,35.755-2.282l.959-.062c7.5-.484,15.251-.984,22.87-1.468,8.044-.513,16.137-1.02,24.412-1.537l.934-.058c6.479-.406,13.179-.826,19.762-1.243,2.586-.165,4.915-.322,7.232-.579a8.219,8.219,0,0,1,.89-.053c1.994,0,3,.977,3.363,3.265l.189,1.192,0,.015c1.956,12.3,3.978,25.025,6.3,37.479a160.7,160.7,0,0,0,7.719,27.392,186.422,186.422,0,0,0,12.193,25.782,34.4,34.4,0,0,0,14.4,13.862c6.129,3.211,13,4.842,18.913,6.015a3.964,3.964,0,0,0,.76.083,1.571,1.571,0,0,0,1.175-.416,2.861,2.861,0,0,0,.552-2.082c-.042-5.827-.078-11.7-.114-17.372-.047-7.474-.095-15.2-.156-22.87-.006-.806-.073-1.622-.138-2.412a27.255,27.255,0,0,1-.134-2.853,272.469,272.469,0,0,0-.769-29.311,189.8,189.8,0,0,0-4.586-28.963c-1.945-8.045-3.883-16.237-5.758-24.16l-.063-.267c-3.751-15.856-7.631-32.251-11.751-48.31a30.228,30.228,0,0,0-3.175-7.935,19.731,19.731,0,0,0-4.866-5.581,19.737,19.737,0,0,0-6.607-3.3,30.209,30.209,0,0,0-8.4-1.083c-.3,0-.6,0-.9.01a212.567,212.567,0,0,0-27.538,2.618c-35.629,5.4-71.7,11.116-106.583,16.64l-1.971.312c-25.415,4.023-51.251,8.154-76.237,12.15l-.444.071c-14.131,2.259-30.147,4.82-45.506,7.268-23.26,3.706-45.957,7.3-67.459,10.673a8.923,8.923,0,0,1-1.388.093c-.4,0-.8-.016-1.23-.032h-.008c-.439-.017-.937-.037-1.449-.037a7.372,7.372,0,0,1,2.659-4.35,10.478,10.478,0,0,1,4.5-1.783c6.117-1.171,12.332-2.378,18.343-3.546l.011,0c6.671-1.3,14.231-2.765,21.5-4.149l.134-.025c30.69-5.844,62.425-11.888,93.886-17.81,40.607-7.644,94.224-17.725,148.871-27.916l4.973-.93.017,0c12.4-2.322,25.216-4.723,37.9-6.5a42.982,42.982,0,0,1,5.972-.375c2.751,0,5.573.192,8.3.377h.005c1.384.094,2.952.2,4.471.275l1.476.071,1.408.068h.023c9.959.478,20.257.972,30.357,1.806,4.489.37,9.064.672,13.488.964l.033,0c14.553.959,29.6,1.951,44.095,5.539a67.81,67.81,0,0,1,14.539,5.214,43.346,43.346,0,0,1,12.4,9.249c.663.715,1.288,1.479,2.079,2.446.442.54.943,1.152,1.537,1.862-1.78-.189-3.444-.369-5.052-.544l-.051-.005c-3.125-.339-6.077-.66-8.99-.942-4.975-.482-10.229-1-14.45-1.411l-.023,0c-14.838-1.455-30.182-2.959-45.288-4.279-4.188-.365-9.138-.739-14.094-.739-2.353,0-4.517.081-6.616.247-3.436.271-7.324,1.719-11.557,4.305-5.647,3.451-7.8,8.745-6.22,15.309,1.535,6.381,3.037,12.868,4.49,19.142l.011.05c1.566,6.763,3.186,13.755,4.846,20.616,3.743,15.452,7.567,30.965,11.266,45.966,1.436,5.826,2.963,12.021,4.454,18.081.116.476.253.957.386,1.421l0,.008a22.542,22.542,0,0,1,.594,2.4,32.885,32.885,0,0,0,3.518,10.408,26.574,26.574,0,0,0,6.181,7.514,31.887,31.887,0,0,0,8.418,5,49.161,49.161,0,0,0,10.23,2.857c8.089,1.407,16.327,1.654,24.294,1.894h.009c15.031.454,28.232.674,40.358.674,1.537,0,3.059,0,4.525-.01,7.229-.035,14.361-.393,21.912-.773l.212-.011c3.3-.166,6.721-.337,10.174-.48,0,.991,0,2,0,3.119v.072c0,2.556.01,5.2-.012,7.859-.008,1.183-.041,2.386-.073,3.549v.061c-.051,1.844-.1,3.75-.06,5.624l0,.071a9.956,9.956,0,0,1-.413,4.006c-.535,1.249-1.638,1.957-3.47,2.228-.786.115-1.681,1.929-1.877,3.049a35.109,35.109,0,0,0-.4,4.376v.012c-.042.883-.09,1.883-.185,2.833l-.008.077c-.514,5.136-.514,5.136,5.324,5.933-.3,1.576-.591,3.176-.875,4.723-.814,4.437-1.656,9.024-2.747,13.465-.289,1.177-2.242,2.495-3.729,2.843s-3.06.733-4.434,1.069a119.885,119.885,0,0,1-17.161,3.324c-16.794,1.565-33.876,2.8-50.4,3.994l-.625.045c-4.08.295-8.3.6-12.444.905-2.936.216-5.925.448-8.815.673l-.569.044c-10.5.818-21.367,1.663-32.083,1.985C-2255.941-5575.759-2256.616-5575.75-2257.288-5575.75Zm51.086-44.736c1.012,0,2.041,0,3.037.007h.452c1.037,0,2.11.008,3.163.008,1.613,0,2.919-.009,4.109-.027,2.9-.044,4.441-.1,5.187-.88s.741-2.241.666-5.22c-.076-2.957-.485-4.582-1.414-5.61-.947-1.048-2.5-1.5-5.177-1.5-.189,0-.384,0-.579.006-7.067.146-14.221.51-21.14.861l-1.083.055c-2.613.133-4.181.377-4.984,1.286s-.873,2.438-.739,5.138c.019.379.073.773.12,1.121l0,.025c.037.273.074.555.1.833a3.963,3.963,0,0,0,1.028,2.579,3.624,3.624,0,0,0,2.63.893h14.537c0,.138,0,.278,0,.419Zm-372.495,23.85c-3.969,0-5.839-3.4-7.025-6.369a51.958,51.958,0,0,1-3.84-19.4,54.111,54.111,0,0,1,3.78-19.445,2.011,2.011,0,0,1,.139-.3c.177-.3.354-.605.525-.9l.016-.029c1.456-2.539,2.96-5.163,6.444-5.163h.084a5.817,5.817,0,0,1,4.431,2.008,17.387,17.387,0,0,1,2.54,4.2,36.235,36.235,0,0,1,3.015,9.529,44.272,44.272,0,0,1,.527,9.862,49.828,49.828,0,0,1-.515,10.006,35.227,35.227,0,0,1-2.865,9.453c-1.344,2.875-3.017,6.455-7.083,6.554Zm72.375-11.61c-.523,0-1.156-.03-1.946-.074-2.044-.115-4.12-.291-6.127-.46h-.005l-.025,0c-2.4-.2-4.88-.413-7.324-.52a4.037,4.037,0,0,1-3.174-1.214,5.181,5.181,0,0,1-.82-3.373c.073-21.556.066-43.464.059-64.65q0-9.4,0-18.793c0-.678.006-1.368.012-2.035.013-1.386.026-2.82-.017-4.229-.07-2.236.869-3.269,3.044-3.348,4.223-.152,9.8-.375,15.487-.758.22-.014.4-.02.559-.02a3.076,3.076,0,0,1,2.279.727,3.978,3.978,0,0,1,.811,2.924c-.061,11.512-.053,23.2-.045,34.512v1.833c0,3.245,0,6.56,0,9.829q0,5.242,0,10.478v1.787c0,10.794,0,21.955,0,32.918C-2503.556-5609.026-2503.649-5608.246-2506.321-5608.246Zm264.387-85.637a10.722,10.722,0,0,1-5.93-1.553,8.03,8.03,0,0,1-3.368-4.686,104.974,104.974,0,0,1-3.426-17.734c-1.088-10.182-1.691-20.585-2.171-29.537a15.9,15.9,0,0,1,.634-6.33,7.806,7.806,0,0,1,4.736-4.565c.895-.36,1.061-.844,1.042-1.187-.034-.632-.726-1.28-1.646-1.54a34.9,34.9,0,0,0-5.493-.935l-.338-.039c-2.231-.259-4.566-.478-6.626-.671-.9-.083-1.821-.17-2.743-.26l.037-.516.069-.957c1.315.063,2.654.125,3.95.184l.331.015c4.357.2,8.863.4,13.324.707a3.306,3.306,0,0,1,2.453,1.448c.875,2.188,2.61,3.43,4.289,4.63l.009.006a25.753,25.753,0,0,1,2.048,1.573,10.7,10.7,0,0,1,3.124,5.934c1.34,8.365,2.528,17.255,3.529,26.422.648,5.938,1.113,12.3,1.463,20.024.253,5.551-1.552,8.4-5.852,9.22A18.443,18.443,0,0,1-2241.933-5693.883Zm106.539-60.14h0l-.631-1.775-1.915-5.39,6.381.933,2.379.348-3.865,3.661-.338.32-2.01,1.9Z" transform="translate(3770 6100)" fill="url(#linear-gradient)"/>
</svg>
