<svg xmlns="http://www.w3.org/2000/svg" xmlns:xlink="http://www.w3.org/1999/xlink" width="200" height="292" viewBox="0 0 200 292">
  <defs>
    <clipPath id="clip-path">
      <rect id="Прямоугольник_1173" data-name="Прямоугольник 1173" width="200" height="149" transform="translate(0.317 0.084)"/>
    </clipPath>
  </defs>
  <g id="Сгруппировать_860" data-name="Сгруппировать 860" transform="translate(-64 -371)" opacity="0.2">
    <path id="Объединение_17" data-name="Объединение 17" d="M54.695,135.608A68.158,68.158,0,0,1,30.2,125.3,68.69,68.69,0,0,1,5.384,95.163,68.137,68.137,0,0,1,1.391,82.305a69.181,69.181,0,0,1,0-27.61A68.187,68.187,0,0,1,11.7,30.2,68.665,68.665,0,0,1,41.837,5.384,68.067,68.067,0,0,1,54.695,1.391a69.181,69.181,0,0,1,27.61,0A68.165,68.165,0,0,1,106.8,11.7a68.713,68.713,0,0,1,24.818,30.139,68.188,68.188,0,0,1,3.991,12.857,69.181,69.181,0,0,1,0,27.61,68.437,68.437,0,0,1-18.671,34.631,68.582,68.582,0,0,1-21.773,14.681,68.167,68.167,0,0,1-12.859,3.992,69.181,69.181,0,0,1-27.61,0ZM11.831,68.5A56.756,56.756,0,0,0,61.5,124.738V83.791A16.829,16.829,0,0,1,51.826,70.67L12.45,60.119A56.875,56.875,0,0,0,11.831,68.5ZM75.5,124.738a56.706,56.706,0,0,0,49.11-64.2L85.111,71.12A16.837,16.837,0,0,1,75.5,83.792Zm5.835-67.1,39.608-10.612a56.669,56.669,0,0,0-104.723-.39L55.972,57.287a16.814,16.814,0,0,1,25.363.351Z" transform="translate(95 526)"/>
    <g id="Группа_масок_24" data-name="Группа масок 24" transform="translate(63.683 451.916)" clip-path="url(#clip-path)">
      <path id="Объединение_19" data-name="Объединение 19" d="M100.5,201A100.032,100.032,0,0,1,44.31,183.835,100.793,100.793,0,0,1,7.9,139.619a100.367,100.367,0,0,1,9.266-95.31A100.793,100.793,0,0,1,61.381,7.9a100.369,100.369,0,0,1,95.31,9.266A100.793,100.793,0,0,1,193.1,61.38a100.367,100.367,0,0,1-9.266,95.309A100.793,100.793,0,0,1,139.62,193.1,99.873,99.873,0,0,1,100.5,201Zm0-189.64A89.141,89.141,0,1,0,189.642,100.5,89.242,89.242,0,0,0,100.5,11.359Z" transform="translate(0.317 49.084)"/>
    </g>
    <path id="Объединение_20" data-name="Объединение 20" d="M59,118a59.442,59.442,0,0,1-11.891-1.2,58.69,58.69,0,0,1-21.1-8.877A59.175,59.175,0,0,1,4.636,81.965,58.709,58.709,0,0,1,1.2,70.89a59.575,59.575,0,0,1,0-23.781,58.679,58.679,0,0,1,8.878-21.1A59.171,59.171,0,0,1,36.035,4.636,58.727,58.727,0,0,1,47.109,1.2a59.577,59.577,0,0,1,23.781,0,58.68,58.68,0,0,1,21.1,8.877,59.175,59.175,0,0,1,21.376,25.958A58.7,58.7,0,0,1,116.8,47.109a59.569,59.569,0,0,1,0,23.781,58.664,58.664,0,0,1-8.878,21.1,59.162,59.162,0,0,1-25.958,21.376A58.707,58.707,0,0,1,70.891,116.8,59.441,59.441,0,0,1,59,118ZM59,10.191A48.809,48.809,0,1,0,107.809,59,48.864,48.864,0,0,0,59,10.191Z" transform="translate(105 371)"/>
  </g>
</svg>
