<svg xmlns="http://www.w3.org/2000/svg" xmlns:xlink="http://www.w3.org/1999/xlink" width="408" height="540.637" viewBox="0 0 408 540.637">
  <defs>
    <linearGradient id="linear-gradient" x1="0.888" y1="0.448" x2="0.078" y2="0.445" gradientUnits="objectBoundingBox">
      <stop offset="0" stop-color="#8c8992"/>
      <stop offset="1" stop-color="#fff"/>
    </linearGradient>
  </defs>
  <path id="Вычитание_67" data-name="Вычитание 67" d="M290.039-6873.363h-408v-407.445a366.714,366.714,0,0,1,44.068,44.14,250.87,250.87,0,0,1,21.9,30.359c5.16,8.52,8.543,15.491,11.528,21.641,6.111,12.59,10.147,20.907,23.318,28.822a42.645,42.645,0,0,0,10.8,4.735,41.69,41.69,0,0,0,11.121,1.4c8.151,0,17.343-1.8,30.065-4.3h.006a592.68,592.68,0,0,1,84.711-11.29c16.517-1.035,37.432-1.264,79.1-1.721,8.911-.1,17.147-.155,24.413-.205h.219c33.628-.233,52.151-.361,66.744-3.636v297.5ZM43.766-7183.448c-.728,0-1.49-.021-2.331-.062-1.107-.057-2.276-.092-3.679-.111-.112-.023-.221-.041-.331-.056a11.869,11.869,0,0,1-7.558-4.134,23,23,0,0,1-4.851-9.217c-2.081-7.195-2.892-14.721-3.677-22-.16-1.483-.325-3.017-.5-4.535a3.243,3.243,0,0,0-1.587-2.7c-6.989-4.523-14.277-9.283-20.708-13.482l-1.261-.824c-2.478-1.618-5.012-3.272-7.511-4.9-2.545-1.66-5.15-3.346-7.67-4.977l-.107-.069-1.266-.819c.433-.561.837-1.134,1.265-1.742l0-.006c.288-.41.615-.875.955-1.334l3.083,2,.028.018c2.627,1.7,5.343,3.458,8,5.188,2.818,1.837,5.681,3.707,8.45,5.515,5.152,3.365,10.479,6.843,15.748,10.265l.057.1.032.055.012.02a1.444,1.444,0,0,0,.726.457,3.951,3.951,0,0,1,.4.174h0l0-.007c1.161.754,2.058,1.335,2.907,1.885a3.153,3.153,0,0,1,1.526,2.594c.167,1.456.326,2.923.479,4.343.754,7,1.534,14.238,3.535,21.158a22.115,22.115,0,0,0,4.665,8.857,11.4,11.4,0,0,0,7.262,3.974c.094.012.195.028.316.052,1.391.022,2.515.056,3.535.108.8.04,1.53.06,2.231.06.42,0,.837-.008,1.241-.022.17-.006.341-.017.506-.027H47.7c.251-.016.51-.032.764-.032.154,0,.3.006.436.019l0-.03c.33-.063.677-.125.956-.176l.036-.006c.621-.113,1.263-.229,1.889-.365a13.507,13.507,0,0,0,9.08-6.63c2.392-4.067,4.456-7.7,6.311-11.121a6.637,6.637,0,0,1,3.078-3.2,14.12,14.12,0,0,0,2.677-1.548c2.785-2.084,6.094-2.491,8.976-2.709,5.238-.4,10.655-.85,15.433-1.25,5.4-.452,10.987-.919,16.531-1.332,5.842-.435,11.788-.8,17.538-1.149l.058,0,.249-.015c2.881-.176,5.86-.358,8.786-.547,1.754-.113,3.581-.241,5.193-.354h.006c2.648-.185,5.386-.376,8.081-.528,2.753-.155,5.554-.288,8.262-.417h.019c3.656-.174,7.437-.354,11.154-.589l.293-.019c9.814-.623,19.962-1.266,29.952-2.1,9.819-.814,19.491-1.826,28.556-2.793,3.423-.366,6.891-.856,10.245-1.33,1.54-.218,3.133-.443,4.7-.653.294-.04.583-.073.889-.107l.054-.006.338-.039.064-.007c.157.553.306,1.109.451,1.648l0,.015,0,.016c.14.521.284,1.06.432,1.583l-1.057.149-.3.042-.014,0c-3.42.482-6.957.98-10.448,1.353-11.042,1.18-20.321,2.125-29.715,2.907-10.12.841-20.428,1.5-30.4,2.131h-.01l-1.064.068c-3.833.242-7.735.428-11.508.608l-.066,0c-2.688.128-5.734.272-8.648.437-2.763.156-5.57.353-8.286.542l-.061,0-.032,0c-1.783.125-3.627.254-5.441.37-3.076.2-6.274.393-9.1.564-6.086.371-12.38.755-18.616,1.22-5.746.426-11.585.914-17.231,1.386l-.138.012-.112.009c-5.171.433-10.518.88-15.78,1.278-3,.226-6.442.649-9.341,2.819a14.4,14.4,0,0,1-2.785,1.607,6.916,6.916,0,0,0-3.2,3.331c-1.925,3.546-4.073,7.331-6.568,11.57a14.054,14.054,0,0,1-9.448,6.9c-.666.145-1.349.269-2.009.389l-.062.011c-.306.055-.618.112-.925.169v.03c-.138-.013-.284-.019-.448-.019-.274,0-.565.019-.8.034-.174.011-.359.022-.544.029C44.639-7183.456,44.208-7183.448,43.766-7183.448Zm-5.516-23.523v0a21.623,21.623,0,0,0,.762-8.683l-.333-.147c.463-.588.926-1.193,1.373-1.778l.006-.008.047-.061c.277-.362.563-.736.846-1.1.1.043.2.087.3.132l.13.058c.206,3.082.284,6.642-1.409,9.9a3.4,3.4,0,0,1-1.721,1.687Zm228.008-2.4a8.866,8.866,0,0,1-3.688-.8,10.072,10.072,0,0,1-3.226-2.364c.132.007.272.011.428.011a10.329,10.329,0,0,0,6.138-2.2,12.834,12.834,0,0,0,5.5-10.449c.015-.8.286-1.118,1.036-1.215,1.221-.159,2.487-.333,3.6-.488h.008c2.05-.284,4.17-.577,6.26-.813a6.63,6.63,0,0,0,5.865-4.473c.572-1.511,1.053-3.083,1.517-4.6q.168-.551.338-1.1v12.675c-.119.018-.219.03-.314.041-2.193.247-4.4.552-6.526.847-1.337.185-2.541.351-3.749.508-.78.1-1.063.432-1.079,1.265a13.358,13.358,0,0,1-5.723,10.874A10.747,10.747,0,0,1,266.258-7209.37ZM34.19-7210.936c-.338,0-.636-.283-.938-.888a9.118,9.118,0,0,1-.234-1.04,76.7,76.7,0,0,1-.822-20.172,2.355,2.355,0,0,1,2.065-1.317H34.4c-.031.081-.064.172-.112.305-1.683,4.812-1.942,8.84-.815,12.675a61.832,61.832,0,0,0,2.181,6.066c.362.885.7,1.28,1.092,1.28a1.059,1.059,0,0,0,.65-.3c-.534.7-1.2,1.568-1.889,2.412C34.951-7211.238,34.546-7210.936,34.19-7210.936Zm8.289-10.394v0c-.141-.669-.275-1.316-.407-1.947l0-.017c-.317-1.52-.616-2.955-.931-4.382-.409-1.852-.858-3.787-1.336-5.75a3.262,3.262,0,0,0-.331-.761c-.039-.072-.077-.144-.114-.215a7.4,7.4,0,0,0-.692-1.135c-.365-1.385-.777-2.768-1.224-4.11a10.894,10.894,0,0,0-1.561-2.947,2.848,2.848,0,0,0-1.235-1.042c.127-.238.261-.478.4-.712a2.014,2.014,0,0,1,1.634-1.2,2.236,2.236,0,0,1,1.693,1.1,10.51,10.51,0,0,1,1.5,2.834,61.181,61.181,0,0,1,3.18,18.471,8.508,8.508,0,0,1-.087,1.208c-.009.066-.061.125-.176.253-.076.085-.176.2-.3.357ZM65.15-7222.8h0a4.724,4.724,0,0,0-1.908-5.686,25.812,25.812,0,0,0-2.268-1.366l-.028-.016c-.4-.221-.8-.449-1.2-.684-1.6-.953-3.338-2.143-3.656-4.21a44.257,44.257,0,0,1-.333-6.66c0-.19,0-.378,0-.567a1.362,1.362,0,0,1,.342-.99,1.151,1.151,0,0,1,.837-.312,2,2,0,0,1,.534.076,41.921,41.921,0,0,0,.322,6.291c.291,1.893,1.86,3.064,3.513,4.047.388.231.789.454,1.178.67l.011.006a24.586,24.586,0,0,1,2.172,1.308,4.613,4.613,0,0,1,1.533,6.185c-.227.469-.481.949-.754,1.425C65.349-7223.113,65.254-7222.955,65.15-7222.8Zm9.374-9.392h0a6.566,6.566,0,0,0,.366-1.733c.248-4.271.4-8.98.463-14.824.02-1.455-.046-2.936-.11-4.368-.015-.342-.03-.68-.044-1.017-12.355-3.358-25.254-7.044-39.433-11.267a32.513,32.513,0,0,0-4.071-1.963c-.474-.19-.957-.388-1.372-.559a47.291,47.291,0,0,0-5.43-1.974,56.748,56.748,0,0,1-9.706-3.98l-.013-.006c-1.06-.514-2.156-1.044-3.245-1.543-8.421-3.855-17.009-7.721-25.313-11.459l-.062-.028c-3.751-1.688-7.134-3.212-10.549-4.753a1.216,1.216,0,0,1-.208-.125l-.06-.041c1.427-.168,2.872-.315,4.27-.457l.026,0c3.15-.321,6.407-.652,9.562-1.236,5.673-1.051,11.309-2.368,16.752-3.915a19.261,19.261,0,0,1,5.342-.709c.9,0,1.852.051,2.9.155,7.127.714,14.2,3.134,22.246,7.614a151.928,151.928,0,0,1,23.515,16.621c3.337,2.776,6.622,5.717,9.8,8.561,1.65,1.477,3.357,3,5.072,4.508a2.619,2.619,0,0,1,.871,2.245c0,1.294.054,2.608.111,3.878.061,1.377.125,2.8.109,4.2-.069,5.7-.208,10.1-.448,14.245a10.79,10.79,0,0,1-1.267,3.8C74.568-7232.273,74.546-7232.23,74.524-7232.187Zm-51.917-.771h0a3.755,3.755,0,0,0-.381-.168,1.371,1.371,0,0,1-.695-.438,41.8,41.8,0,0,1-2.13-4.008c-.1-1.669-.213-3.639-.223-5.6a10.7,10.7,0,0,1,3.937-8.639,20.194,20.194,0,0,0,2.549-2.6,13.6,13.6,0,0,0,1.669-2.57,1.085,1.085,0,0,0,.078-1.047.874.874,0,0,0-.785-.35,1.843,1.843,0,0,0-.281.021c-.126.019-.25.04-.37.061.29-.189.57-.364.834-.521a6.731,6.731,0,0,1,2.4-.783,1.834,1.834,0,0,1,.273-.021.835.835,0,0,1,.75.335,1.046,1.046,0,0,1-.074,1.009,12.927,12.927,0,0,1-1.606,2.469,19.329,19.329,0,0,1-2.449,2.5,10.281,10.281,0,0,0-3.783,8.3c.012,2.371.172,4.78.327,7.109.082,1.23.166,2.5.228,3.755a2.4,2.4,0,0,1-.156.8c-.039.125-.079.251-.108.375Zm108.483-.27h0c-.127-.684-.274-1.378-.415-2.049a38.279,38.279,0,0,1-.764-4.481c-.672-7.614-1.323-15.774-2.112-26.458a24.536,24.536,0,0,1,.114-3.769l0-.019c.021-.26.042-.52.062-.778a1.763,1.763,0,0,1,1.773-1.686c2.831-.37,5.7-.757,8.479-1.131l.036,0c5.782-.779,11.761-1.585,17.653-2.276,2.658-.311,5.387-.406,8.026-.5h.007l.079,0c1.09-.038,2.217-.078,3.323-.132l.344-.017.347-.017c4.356-.214,8.86-.435,13.135-1.869a2,2,0,0,1,.642-.1,5.674,5.674,0,0,1,1.576.3,14.234,14.234,0,0,0,4.268.6,26.388,26.388,0,0,0,3.187-.217c3.892-.472,7.766-.758,11.4-1.01,1.18-.082,2.381-.176,3.543-.267l.075-.006c3.531-.276,7.183-.562,10.77-.562.379,0,.738,0,1.066.008a32.814,32.814,0,0,1,6.659,1.045c1.014.231,2.063.47,3.1.659a2.162,2.162,0,0,1,1.909,2.224c.085,1.147.184,2.3.279,3.413.221,2.576.449,5.239.515,7.864a100.228,100.228,0,0,1-1.059,19.348c-.009.054-.018.108-.027.163v.006a5.362,5.362,0,0,1-.354,1.392,3.828,3.828,0,0,1-.608.854l0,0,0,0c-.1.116-.2.235-.3.356a5.18,5.18,0,0,0-.379-.376,1.934,1.934,0,0,1-.657-.869,37.761,37.761,0,0,1-.886-5.435c-.192-3.053-.338-6.153-.479-9.151v-.011c-.108-2.291-.219-4.66-.35-6.988a34.487,34.487,0,0,0-.577-4.808c-.429-2.181-1.456-3.111-3.433-3.111-.212,0-.437.011-.671.032-2.109.191-4.249.43-6.319.66l-.049.005c-1.556.174-3.32.371-5.018.538-6.294.623-12.66,1.217-18.64,1.771-3.058.284-6.17.563-9.18.833l-.256.023c-5.951.534-12.1,1.086-18.2,1.7-5.969.6-12.015,1.284-17.862,1.946l-.672.076c-2.4.271-4.873.551-7.306.82-.295.032-.6.075-.886.116h-.011a13.532,13.532,0,0,1-1.875.177h-.075c-1.359,0-1.981.661-2.017,2.144-.042,1.629-.1,3.286-.148,4.888v.036c-.095,2.888-.192,5.874-.221,8.812-.027,2.842,0,5.732.033,8.218l-.116-.025-.668-.143q.06.687.118,1.374t.118,1.371a32.678,32.678,0,0,0,.592,3.7c-.009.1-.02.206-.031.309v.01c-.012.12-.025.244-.035.365l-.568.1Zm-169.272-7.71a29.679,29.679,0,0,1-4.263-.352c-4.527-.65-7.453-2.43-9.21-5.6l-.129-.233a16.445,16.445,0,0,1-1.763-3.958c-1.53-6.326-2.685-11.531-3.632-16.381-.924-4.725-2.334-8.337-6.211-10.608a6.245,6.245,0,0,1-2.824-4.2c-.11-.484-.237-.969-.359-1.437-.062-.236-.123-.472-.183-.708v-7.577c.021-.035.046-.069.071-.1l0,0a.66.66,0,0,0,.13-.241c.063-.319.111-.649.157-.969.2-1.376.4-2.8,1.908-3.656a.39.39,0,0,0,.082-.066c-10.177-3.322-20.462-6.694-30.982-10.143-.147-.048-.359-.117-.633-.2a161.543,161.543,0,0,0-21.941-5.051V-7414h408v171.923a7.309,7.309,0,0,0-3.037-2.607c-.776-.416-1.575-.819-2.348-1.21l-.012-.006c-.681-.344-1.385-.7-2.07-1.063a6.165,6.165,0,0,1-3.438-5.543c-.059-1.454-.108-2.934-.156-4.364v-.021c-.124-3.724-.253-7.575-.558-11.349a95.748,95.748,0,0,0-1.66-10.894,9.6,9.6,0,0,0-5.924-7.062c-4.07-1.781-8.445-3.634-12.863-5.115-13.691-4.6-27.63-9.213-41.109-13.679l-.087-.029-.3-.1c-7.233-2.4-14.713-4.874-22.064-7.319-1.309-.436-2.624-.93-3.9-1.408l-.016-.006-.009,0c-1.922-.723-3.909-1.47-5.913-2.03-3.245-.907-5.455-3.172-7.591-5.363-.394-.4-.8-.821-1.208-1.223-6.317-6.235-12.651-12.665-18.777-18.882l-.035-.035c-1.95-1.98-3.86-3.918-5.78-5.862-.414-.419-.791-.887-1.156-1.339l0,0-.025-.031c-.164-.2-.334-.414-.505-.617.117-.156.234-.314.35-.471.355.2.733.376,1.1.55l.005,0h0a8.92,8.92,0,0,1,2.267,1.365c2.868,2.661,5.826,5.559,9.043,8.859,2.941,3.021,5.912,6.113,8.784,9.1l.047.049c2.711,2.823,5.514,5.742,8.291,8.6a16.715,16.715,0,0,0,2.719,2.107l.152.1a1.747,1.747,0,0,0,.967.335,1.8,1.8,0,0,0,1.375-.81,9.469,9.469,0,0,0-.8-12.427,4.384,4.384,0,0,0-2.4-1.007,7.974,7.974,0,0,0-1.12-.076,10.411,10.411,0,0,0-1.959.2,8.174,8.174,0,0,1-1.542.155,6.336,6.336,0,0,1-4.721-2.1c-2.228-2.34-4.471-4.727-6.64-7.035-1.161-1.235-2.3-2.444-3.439-3.655q-1.841-1.952-3.68-3.906l-.031-.033c-3.658-3.886-7.441-7.9-11.2-11.819a26.1,26.1,0,0,0-3.424-2.832l-.215-.158a13.948,13.948,0,0,0-8.42-2.763c-6.765-.011-13.642-.055-20.294-.1q-3.944-.026-7.884-.049H105.2v-1.811c0-1.5,0-3.033,0-4.388-.006-3.954-.012-8.043.048-12.062.02-1.241-.468-1.876-1.582-2.058-.584-.1-1.178-.194-1.752-.291l-.021,0c-2.377-.4-4.834-.81-7.275-1.025-2.729-.241-5.509-.368-8.2-.49H86.4c-1.276-.058-2.6-.119-3.892-.19a6.832,6.832,0,0,1-.815-.114l-.028,0c-.114-.021-.231-.042-.346-.06H64.331c-.89.054-1.8.1-2.671.146h-.01c-1.939.1-3.943.206-5.909.387-3.131.291-6.292.653-9.349,1l-.483.055q-1.237.142-2.474.282a4.391,4.391,0,0,0-.659.146h-.006c-.167.046-.34.094-.513.125-1.187.215-1.666.838-1.652,2.151.051,4.316.044,8.707.037,12.952v.021c0,1.331-.005,2.986-.005,4.556v1.85h-.014c-.607,0-1.207,0-1.872-.01-.567,0-1.209-.01-1.826-.01-.8,0-1.464.008-2.1.027-4.063.12-8.2.253-12.194.382l-.418.014-.1,0c-8.509.275-17.307.559-25.963.737-4.37.089-8.034,2-11.2,5.837-3.275,3.965-6.623,8.442-10.236,13.687-1.982,2.878-3.826,5.922-5.608,8.866l0,.008c-.778,1.285-1.583,2.614-2.388,3.911-.3.491-.606,1-.9,1.486l-.02.033c-.64,1.076-1.3,2.188-2.044,3.22a3.655,3.655,0,0,1-3.182,1.542c-.1,0-.212,0-.329-.009-.32-.018-.647-.026-.974-.026a23.751,23.751,0,0,0-7.747,1.44,9.612,9.612,0,0,0-5.435,4.568c-3.65,6.586-4.9,13.03-3.831,19.7a12.46,12.46,0,0,1,.106,2.545c-.023.479-.172,1.065-.445,1.22a3.122,3.122,0,0,0-1.275,1.321q-.765-.248-1.529-.5l-.089-.029c.2,1.235.467,2.533.806,3.855l-.02.027-.008.011c-.022.031-.045.063-.065.1v7.281c.057.226.116.453.175.679.117.451.239.917.344,1.383a6,6,0,0,0,2.715,4.032,10.555,10.555,0,0,1,4.156,4.407,21.744,21.744,0,0,1,1.813,5.786c.291,1.486.59,2.953.889,4.36a10.434,10.434,0,0,0,.543,3.619,5.731,5.731,0,0,0,.515,1.2c.456,2.011.96,4.158,1.543,6.563a15.928,15.928,0,0,0,1.715,3.84l.1.188c1.689,3.051,4.5,4.762,8.849,5.385a28.633,28.633,0,0,0,4.1.338,16.616,16.616,0,0,0,1.967-.111A12.643,12.643,0,0,1-38.183-7240.937ZM80-7241.5h0c.021-.346.042-.675.064-1.014l.009-.135c.015-.236.03-.479.047-.739,5.75-.087,11.573-.435,17.205-.771h.013c6.518-.39,13.259-.792,19.917-.792,2.564,0,5.063.062,7.426.185a1.141,1.141,0,0,1-.083.96c-.211.286-.626.371-1.184.409-1.372.1-2.715.2-4.328.326l-.081-.019-.081-.019-.957,0c-6.924,0-13.936.418-20.718.823h-.017C91.591-7241.956,85.761-7241.608,80-7241.5Zm31.692-7.312h0l-.006-.241h-.1c-.554,0-1.114.008-1.608.015h-.053c-.541.007-1.1.015-1.65.015-.815,0-1.488-.017-2.116-.052a3.535,3.535,0,0,1-2.4-.779,3.471,3.471,0,0,1-.767-2.39,39.123,39.123,0,0,1,.115-4.358c.01-.158.02-.316.03-.474a1.984,1.984,0,0,1,1.777-1.926,24.106,24.106,0,0,1,3.74-.359c.688-.008,1.4-.013,2.1-.013,1.742,0,3.6.024,5.849.076,1.589.037,2.568.352,3.174,1.021a3.519,3.519,0,0,1,.681,2.741,20.42,20.42,0,0,0-.02,2.042c.012.521.025,1.06.005,1.588a2.461,2.461,0,0,1-2.32,2.668c-1.492.185-3.022.256-4.5.325h-.017c-.63.029-1.281.06-1.92.1Zm-17.3-.251h0c-4.086-1.043-8.282-2.138-12.472-3.254-.041-.615-.047-1.339-.047-1.967,0-4.395.505-4.917,4.9-5.078.411-.017.828-.019,1.144-.019.293,0,.591,0,.88.005h.2c.284,0,.578.005.866.005v.1h.091c.436,0,.878-.006,1.3-.012h.051c.517-.007.983-.014,1.448-.014.7,0,1.273.015,1.807.046,2.081.12,2.836.846,2.992,2.877a31.421,31.421,0,0,1,0,4.426c-.129,2.021-.909,2.773-2.979,2.875l-.04,0-.038,0Zm180.107-.674h0c-.1-.206-.209-.415-.31-.6a4.823,4.823,0,0,1-.559-1.326c-.687-3.6-1.349-7.127-1.9-10.727-.839-5.478-1.577-11-2.127-15.194-.11-.846-.427-1.161-1.17-1.161-.093,0-.2,0-.324.015-5.439.46-10.971.917-16.32,1.359l-.071.006c-5.182.428-10.54.87-15.824,1.316-.163.014-.325.021-.483.021a3.256,3.256,0,0,1-2.968-1.6l-.045-.071-.021-.032a3.839,3.839,0,0,1-.392-.719c-1.7-4.563-5.043-7.964-10.226-10.4l-.01,0c-7.014-3.292-15.743-7.39-24.322-10.808-8.213-3.271-16.629-6.369-24.769-9.365-3.29-1.211-7.019-2.584-10.617-3.928l-.613-.23-.349-.131-.234-.088c1.616-.028,3.254-.09,4.838-.151,2.134-.082,4.34-.166,6.513-.166a41.476,41.476,0,0,1,13.186,1.758c2.164.7,4.389,1.414,6.352,2.042l.082.026c3.42,1.093,6.957,2.223,10.418,3.382l5.427,1.814c10.043,3.356,20.428,6.826,30.622,10.392,5.82,2.034,11.657,4.254,17.3,6.4,2.329.887,4.428,1.685,6.524,2.473,1.065.4,2.133.848,3.165,1.28l.024.01.044.019c.527.22,1.073.449,1.61.667,3.109,1.267,5.293,3.67,6.674,7.346,1.477,3.918,1.817,8.079,2.117,11.75.188,2.307.347,4.743.5,7.664a14.505,14.505,0,0,1-1.289,6.849l-.191.042-.092.02-.025.005-.147.032Zm-39.217-2.3h0c.082-2.537.213-2.677,2.8-3.007,7.863-1.007,15.8-2.013,23.48-2.986l5.344-.678a1.732,1.732,0,0,1,.2-.009c.055,0,.114,0,.18,0h.022c.079,0,.167,0,.27,0v2.487l-9.058,1.174-3.8.493-5.687.737-13.743,1.782Zm-277.4-7.563c-.935,0-1.379-.979-1.689-1.935a11.5,11.5,0,0,1-.305-1.118,15.4,15.4,0,0,0,.594-4.4l.019.033,0,.007c.2.342.35.612.522.874.478.715,1.015,1.414,1.859,1.414a1.754,1.754,0,0,0,.381-.044c1.14-.259,1.4-1.249,1.518-2.279.068-.605.16-1.218.248-1.811.038-.254.081-.542.122-.828h.5c.044.138.1.278.156.413a2.6,2.6,0,0,1,.246.9,12.949,12.949,0,0,1-1.7,7.206,3.649,3.649,0,0,1-2.259,1.558A1.5,1.5,0,0,1-42.12-7259.6Zm277.054-1.086c-1.215,0-1.9-.732-2.026-2.177a12.81,12.81,0,0,1-.019-1.382c0-.2.01-.42.01-.635h-.026c0-.144,0-.291,0-.432,0-.3-.007-.607.005-.913.123-2.955.572-3.468,3.439-3.926.923-.147,1.86-.312,2.766-.472l.112-.02c1.615-.286,3.284-.581,4.937-.788a6.688,6.688,0,0,1,.824-.06c1.224,0,1.635.517,1.76,2.214a38.175,38.175,0,0,1,0,4.055l0,.045q-.013.363-.024.727a2.706,2.706,0,0,1-2.365,2.847c-3.167.438-6.262.745-9.2.912C235.06-7260.692,235-7260.69,234.933-7260.69Zm18.878-.982a1.308,1.308,0,0,1-1.394-1.173,14.12,14.12,0,0,1,.4-7.815,1.864,1.864,0,0,1,1.187-1.014c1.905-.368,3.854-.689,5.738-1l.055-.009.024,0c.87-.144,1.769-.292,2.652-.442a9.433,9.433,0,0,1,1.559-.166,1.688,1.688,0,0,1,1.606.7,4.938,4.938,0,0,1,.45,2.432c.009.372.006.745,0,1.106v.027c0,.16,0,.321,0,.481l.11.009c-.037.358-.069.722-.1,1.073-.07.788-.142,1.6-.27,2.39a2.385,2.385,0,0,1-2.341,2.032c-3.7.521-6.557.935-9.274,1.342A2.745,2.745,0,0,1,253.811-7261.672Zm-150.786-2.4c-.316,0-.659-.013-1.02-.038-3.9-.273-7.857-.35-11.689-.424h-.086c-2.057-.04-4.185-.082-6.274-.153a14.365,14.365,0,0,1-8.5-3.225c-10.443-8.076-24.408-18.425-39.837-26.84-2.085-1.138-4.283-2.152-6.408-3.132l-.008,0-.006,0c-1.276-.589-2.6-1.2-3.878-1.827a24.211,24.211,0,0,1-2.174-1.267c-.449-.282-.858-.539-1.33-.822.38-.2.718-.407,1.016-.586l.008,0a6.3,6.3,0,0,1,1.594-.782c.853-.223,1.724-.454,2.492-.659,3.143-.837,6.393-1.7,9.649-2.307a396.723,396.723,0,0,1,47.421-5.783c4.48-.28,9.035-.59,13.44-.89l.192-.013c4.21-.287,8.563-.583,12.859-.855.069,0,.155-.007.24-.007a4.917,4.917,0,0,1,1.946.424,433.029,433.029,0,0,1,43.955,22.774c2.717,1.594,5.561,3.075,8.312,4.507l.029.015c1.461.761,2.971,1.547,4.444,2.342a11.516,11.516,0,0,1,2.114,1.423,3.173,3.173,0,0,1,.637.932c.1.191.23.429.382.677h-.188c-.223,0-.42,0-.6,0H171.7l-.427,0c-.226,0-.4,0-.555-.012-1.327-.067-2.7-.1-4.076-.1a144.941,144.941,0,0,0-19.285,1.582c-6.179.83-12.313,1.568-16.967,2.119a1.584,1.584,0,0,1-.184.01,3.457,3.457,0,0,1-1.45-.419c-2.768-1.414-5.572-2.861-8.045-4.137l-.059-.031c-4.244-2.19-8.632-4.454-12.972-6.633-4.177-2.1-8.275-4.024-12.18-5.72-8.991-3.9-18.169-7.792-27.045-11.555l-.189-.08-2.568-1.088a24.906,24.906,0,0,0-2.657-.894l-.033-.01c-.29-.086-.59-.174-.883-.265a.786.786,0,0,0-.236-.03c-.066,0-.135,0-.2.01H61.67c-.066,0-.134.009-.2.009l-.008.012q-.124.187-.248.371l.223.141.044.027c.207.13.42.264.622.4A193.191,193.191,0,0,0,83.122-7293.8c1.09.568,2.213,1.145,3.2,1.654a131.769,131.769,0,0,1,16.888,9.774,22.758,22.758,0,0,1,6.207,6.1c1.679,2.667,1.641,5.194-.13,8.451a7.124,7.124,0,0,1-2.643,2.914A7.025,7.025,0,0,1,103.025-7264.073Zm-141.5-13.489h0c-.105-.217-.223-.444-.317-.627l0-.005a12.709,12.709,0,0,1-.657-1.412c-.176-.478-.32-.974-.459-1.454-.156-.537-.316-1.088-.519-1.612-.264-.676-.519-.977-.828-.977-.256,0-.562.216-.962.679-.383.448-.757.918-1.118,1.374l-.013.017-.184.232a20.422,20.422,0,0,0-.515-2.974,7.261,7.261,0,0,1,1.5-3.721,1.443,1.443,0,0,1,1.119-.6,2.162,2.162,0,0,1,1.656,1.111,13.167,13.167,0,0,1,1.879,6.371,19.538,19.538,0,0,1,.038,2.39c-.009.356-.018.723-.018,1.084l-.223.048-.075.016-.072.016-.23.049Zm-10.366-1.086c-.361-.776-.658-1.422-.934-2.032l.147.042c.173-.214.348-.435.517-.647l.023-.029.023-.029.384-.481q-.037.79-.078,1.579t-.08,1.6Zm231.117-1.9h0a7.9,7.9,0,0,0-2.226-3.976,14.38,14.38,0,0,0-3.663-2.513c-6.946-3.558-14.341-7.174-21.98-10.749-7.805-3.654-15.686-7.258-23.306-10.742l-.6-.275c-3.223-1.474-6.555-3-9.825-4.5a.99.99,0,0,1-.229-.176c-.058-.053-.146-.132-.268-.233h.274c.552,0,1.1,0,1.565-.008h.09c.539,0,1.049-.008,1.56-.008.714,0,1.361.009,1.978.026l2.049.062.147,0c6.079.184,12.365.375,18.543.625a54.691,54.691,0,0,1,17.756,4.083c2.943,1.153,5.93,2.315,8.736,3.407l.007,0c11.022,4.29,22.419,8.726,33.483,13.432a95.254,95.254,0,0,1,11.732,6.359c1.688,1.021,3.433,2.075,5.172,3.06a2.09,2.09,0,0,1,.72.687,74.169,74.169,0,0,0-13.028-1.07,190.062,190.062,0,0,0-22.3,1.769l-.252.03c-2.009.239-4.087.486-6.133.709Zm-232.349-.8a70.432,70.432,0,0,1-3.537-9.407,8,8,0,0,1,1.461-2.283q-1.105-.357-2.21-.718a34.439,34.439,0,0,1-.768-8.669,34.679,34.679,0,0,1,3.435-13.873l.036-.075a2.881,2.881,0,0,1,.447-.732c1.566-1.664,3.161-3.335,4.7-4.951l1.019-1.068a.763.763,0,0,1,.137-.107c.027-.019.054-.036.079-.055a4.451,4.451,0,0,1,2.553-1.038c1.093,0,2.059.688,3.04,2.167,1.883,2.837,2.746,6.158,2.8,10.766.037,3.178-.151,6.412-.333,9.538-.049.845-.1,1.718-.145,2.579a3.113,3.113,0,0,1-1.933,2.722c-.9.416-1.84.765-2.751,1.1l-.749.279a8.17,8.17,0,0,0-5.548,7.24c-1.586,1.978-1.659,4.319-1.73,6.583Zm64.216-22.986h0c.44-7.594.98-15.731,1.95-23.785a165.344,165.344,0,0,1,4.41-23.5c-.7-.068-1.388-.138-2.059-.206l-.126-.013c-1.727-.175-3.357-.34-5.014-.468-1.179-.092-2.376-.092-3.533-.093H9.389a6.116,6.116,0,0,0-5.669,3.243l-.45.814-.173.314a127.071,127.071,0,0,0-5.874,11.544c-1.274,3-2.33,6.145-3.35,9.189l0,.008c-.576,1.717-1.171,3.493-1.8,5.229a45.732,45.732,0,0,1-1.876,4.236l-.072.148-.25.517a3.784,3.784,0,0,1-.629.846c-.1.115-.22.245-.323.375l-.417-.111c.023-.264.028-.538.033-.8a5.287,5.287,0,0,1,.216-1.7c.467-1.267.939-2.564,1.355-3.709l0-.007c1.59-4.371,3.233-8.891,5.1-13.231,1.781-4.144,3.8-8.288,5.747-12.295.862-1.772,1.754-3.605,2.624-5.435a10.039,10.039,0,0,0-5.605-1.813,10.758,10.758,0,0,0-4.762,1.2,24.429,24.429,0,0,0-8.215,7.057,68.1,68.1,0,0,0-9.3,16.175c-.985,2.29-2.1,4.654-3.3,7.03-.469.921-.846,1.264-1.392,1.264a3.4,3.4,0,0,1-1.332-.4c-.067-.031-.134-.066-.2-.1l-.007,0c-.051-.027-.1-.054-.153-.08-1.479-.74-2.262-1.24-2.441-1.918s.257-1.49,1.063-2.688q.864-1.286,1.727-2.574l.4-.6c4.175-6.228,8.492-12.667,12.975-18.832a32.386,32.386,0,0,1,5.141-5.694,19.452,19.452,0,0,1,6.651-3.81,33.854,33.854,0,0,1,9.231-1.519c22.035-.793,41.513-1.4,59.549-1.842,1.044-.026,2.122-.039,3.3-.039,2.71,0,5.436.07,8.072.138,2.515.065,5.365.139,8.168.139h.672c4.779-.024,9.639-.1,14.339-.175l.124,0c5.734-.091,11.664-.185,17.562-.185.752,0,1.5,0,2.213,0,7.82.034,13.663.92,18.943,2.873a15.131,15.131,0,0,1,7.487,5.262c.2.285.38.579.6.951l.016.026c.1.172.221.368.352.581-.162-.032-.3-.053-.4-.071l-.019,0a1.879,1.879,0,0,1-.439-.1,36.681,36.681,0,0,0-14.427-2.824c-.2,0-.386,0-.559,0-5.4.07-10.886.236-16.193.4h-.05c-4.346.132-8.839.268-13.262.351-9.829.184-20.055.339-29.078.476l-.268,0c-8.1.124-16.473.25-24.706.4-2.82.05-5.663.161-8.413.268-2.368.093-5.052.2-7.617.253a5.756,5.756,0,0,0-5.351,3.429,39.466,39.466,0,0,0-3.47,11.694c-.812,4.595-1.595,9.26-2.352,13.772l-.007.04c-.729,4.344-1.483,8.836-2.26,13.248a34.867,34.867,0,0,1-1.23,4.527c-.121.379-.247.771-.368,1.161a4.024,4.024,0,0,1-.551,1.014l0,.006C14.333-7304.627,14.233-7304.479,14.145-7304.331Zm-4.721-3.578h0l-3.22-1.36-.856-.362-.048-.021c-3.716-1.572-7.226-3.058-10.8-4.523-1.288-.528-1.525-1.082-1.012-2.369.415-1.042.832-2.1,1.236-3.13l.009-.022c2.482-6.312,5.048-12.837,8.634-18.776a30.1,30.1,0,0,1,6.557-8.144,31.373,31.373,0,0,1,3.409-2.286l.009-.006c.52-.316,1.057-.644,1.578-.979q.1.11.193.219l.1.114q-2.678,19.241-5.354,38.5l-.438,3.148Zm-24.416-9.381h0l-7.323-3.364-2.712-1.246a63.61,63.61,0,0,1,9.053-16.139,39.746,39.746,0,0,1,14.492-11.44c-4.16,9.91-8.958,21.341-13.508,32.189ZM179.1-7328.417h0c-.338-.052-.65-.091-.925-.126a9.594,9.594,0,0,1-1.585-.285c-.428-.129-.671-.316-.721-.556-.053-.256.123-.564.508-.89a7.56,7.56,0,0,1,4.252-1.081,4.865,4.865,0,0,1,2.2.4c.29.156.7.565.687.85a1.182,1.182,0,0,1-.75.8c-.963.277-1.943.495-2.807.687C179.662-7328.545,179.376-7328.481,179.1-7328.417Zm-152.255-6.606h-.5l-.746,0c.285-.977.543-1.957.793-2.905l0-.006a48,48,0,0,1,1.893-6.092,8.629,8.629,0,0,1,3.878-4.4,12.762,12.762,0,0,1,5.7-1.412c2.514-.1,5.212-.14,8.749-.14,1.246,0,2.592,0,4.235.013l.5,0h.433c1.093,0,2.223.009,3.332.009l1.2,0h3.314c-.518.221-1.042.432-1.55.637l-.031.013-.018.007a34.42,34.42,0,0,0-3.445,1.535,8.079,8.079,0,0,0-4.127,5.093c-.293,1.034-.312,1.594-.068,2,.232.383.725.628,1.646.82a40.185,40.185,0,0,0,6.78.968c4.78.151,9.643.244,14.345.333h.04l.11,0c3.506.066,7.131.135,10.694.228,2.271.06,4.558.241,6.769.417l.2.016,1.616.126a3.742,3.742,0,0,1,.945.242c.138.048.279.1.421.139l0,.124c0,.108,0,.215,0,.321-.484.056-.978.124-1.414.184a29.012,29.012,0,0,1-3.091.314c-11.824.339-27.378.775-42.836,1.148-4.495.108-9.02.156-13.4.2l-.287,0c-1.833.02-3.728.041-5.59.065C27.2-7335.024,27.038-7335.023,26.844-7335.023Zm52.273-30.764a2.832,2.832,0,0,1-.516-.052,2.821,2.821,0,0,0-.545-.043c-.153,0-.317.007-.475.013-.185.008-.395.017-.627.017.314-.86.62-1.721.916-2.554l.009-.024c.736-2.071,1.43-4.028,2.241-5.973a4.7,4.7,0,0,0,0-3.83c-.718-1.809-1.358-3.634-2.035-5.566l-.006-.017c-.265-.755-.565-1.611-.871-2.465h.064c.262,0,.515-.007.759-.015h.021c.261-.008.5-.015.734-.015a6.119,6.119,0,0,1,1.044.074,1.522,1.522,0,0,1,.893.914c.448,1.3.86,2.645,1.3,4.07.144.471.322,1.054.5,1.641.182-.593.359-1.149.53-1.687l.012-.037c.407-1.278.758-2.383,1.044-3.531.26-1.037.686-1.46,1.472-1.46a2.7,2.7,0,0,1,.459.043,3.453,3.453,0,0,0,.594.044c.163,0,.332-.006.511-.013h.018c.2-.008.412-.016.643-.016-.295.806-.6,1.614-.9,2.44-.786,2.112-1.528,4.1-2.2,6.155a4.4,4.4,0,0,0-.017,2.542c.615,1.924,1.321,3.852,2,5.715l.021.059c.281.766.571,1.558.85,2.338.079.219.14.441.218.721l.005.019c.036.129.074.269.119.425-.2,0-.38-.007-.579-.017h-.03c-.152-.006-.295-.012-.433-.012a2.713,2.713,0,0,0-.528.043,2.763,2.763,0,0,1-.526.057c-1.01,0-1.349-.784-1.566-1.63-.312-1.215-.71-2.433-1.131-3.723l0-.009c-.187-.573-.4-1.221-.613-1.9-.2.624-.4,1.215-.591,1.787l-.012.035c-.444,1.325-.863,2.577-1.186,3.833C80.409-7366.252,79.95-7365.787,79.117-7365.787Zm13.435-.1H89.792v-20.306h2.759v20.3Zm-24.578-.033h-2.91l.4-2.082c1.174-6.088,2.338-12.125,3.485-18.073.057-.038.1-.068.13-.091l.015-.011a.252.252,0,0,1,.1-.056l.029,0a16.647,16.647,0,0,1,1.733-.153c1.227,0,1.333.558,1.725,2.632l.015.081c.663,3.517,1.353,7.089,2.02,10.543l.007.038.058.3c.34,1.759.689,3.569,1.031,5.352.065.33.113.665.163,1.021l0,.03c.022.151.044.307.069.47h-2.9c-.047-.275-.1-.555-.15-.826-.117-.625-.237-1.27-.3-1.912-.084-.806-.394-1.135-1.072-1.135-.067,0-.136,0-.207.009-.29.025-.6.037-.986.037-.248,0-.5,0-.76-.01h-.083c-.276,0-.561-.01-.858-.01l-.358,1.833-.07.36c-.107.546-.214,1.1-.324,1.656Zm-7.1-.03H57.809v-17.621H54.5v-2.618h9.629v2.54H60.87v17.7Z" transform="translate(117.961 7414)" fill="url(#linear-gradient)"/>
</svg>
