<svg xmlns="http://www.w3.org/2000/svg" xmlns:xlink="http://www.w3.org/1999/xlink" width="1710" height="583" viewBox="0 0 1710 583">
  <defs>
    <linearGradient id="linear-gradient" x1="0.888" y1="0.448" x2="0.078" y2="0.445" gradientUnits="objectBoundingBox">
      <stop offset="0" stop-color="#8c8992"/>
      <stop offset="1" stop-color="#fff"/>
    </linearGradient>
  </defs>
  <path id="Вычитание_60" data-name="Вычитание 60" d="M-704.541-1367H-1990v-583H-280v513.724c-1.911.47-4.164,1.02-6.392,1.544l-.014.048c-.547,1.786-1.167,3.81-1.9,5.738a8.6,8.6,0,0,1-7.6,5.8c-2.724.308-5.485.689-8.156,1.059l-.017,0-.132.018c-1.474.2-3,.414-4.5.609-.973.127-1.324.539-1.344,1.577a16.647,16.647,0,0,1-7.132,13.548,13.389,13.389,0,0,1-7.961,2.845,11.042,11.042,0,0,1-4.6-1,12.556,12.556,0,0,1-4.02-2.946c.167.008.346.013.531.013a12.862,12.862,0,0,0,7.65-2.734,15.993,15.993,0,0,0,6.853-13.02c.02-1,.358-1.393,1.292-1.515,1.5-.195,3.007-.4,4.469-.606l.047-.006c2.55-.353,5.188-.717,7.787-1.011a8.264,8.264,0,0,0,7.308-5.574c.711-1.877,1.308-3.829,1.885-5.718l.02-.064c.25-.816.508-1.66.771-2.485v-3.361a8.287,8.287,0,0,0-4.148-3.982c-.954-.511-1.936-1.008-2.886-1.489l-.02-.01c-.812-.411-1.733-.876-2.613-1.342a7.954,7.954,0,0,1-3.133-2.83,8.311,8.311,0,0,1-1.154-4.075c-.073-1.808-.134-3.648-.194-5.427l0-.073c-.154-4.627-.313-9.412-.692-14.106a119.768,119.768,0,0,0-2.069-13.575,11.961,11.961,0,0,0-7.382-8.8c-5.069-2.218-10.519-4.525-16.028-6.374-16.894-5.669-34.095-11.368-50.729-16.879l-.251-.083c-8.736-2.894-18.639-6.175-28.215-9.36-1.638-.545-3.285-1.164-4.877-1.762l-.007,0c-2.392-.9-4.866-1.829-7.367-2.53-4.044-1.131-6.8-3.954-9.46-6.683-.437-.449-.981-1.007-1.5-1.523-7.915-7.813-15.832-15.849-23.488-23.62l-.453-.46c-2.2-2.23-4.469-4.536-6.7-6.8a22.1,22.1,0,0,1-1.447-1.677l-.007-.009c-.2-.248-.425-.529-.649-.795l.113-.152.038-.052.284-.383c.447.247.919.472,1.375.689l.007,0a11.122,11.122,0,0,1,2.818,1.7c3.6,3.34,7.287,6.951,11.268,11.038,3.749,3.849,7.6,7.863,11,11.4l.157.164c3.328,3.465,6.77,7.048,10.175,10.55a20.738,20.738,0,0,0,3.38,2.62l.2.132a2.17,2.17,0,0,0,1.2.417,2.246,2.246,0,0,0,1.714-1.009,11.8,11.8,0,0,0-1-15.484,5.717,5.717,0,0,0-2.99-1.255,9.863,9.863,0,0,0-1.395-.1,12.907,12.907,0,0,0-2.444.245,10.126,10.126,0,0,1-1.919.193,7.893,7.893,0,0,1-5.885-2.616c-2.752-2.891-5.532-5.847-8.22-8.706l-.086-.092c-1.359-1.445-2.814-2.993-4.253-4.519q-2.239-2.374-4.474-4.751c-4.6-4.884-9.35-9.933-14.105-14.886a32.609,32.609,0,0,0-4.248-3.514l-.287-.212a17.625,17.625,0,0,0-4.947-2.577,17.827,17.827,0,0,0-5.545-.865c-8.317-.012-16.774-.067-24.953-.119h-.046c-2.949-.019-6.619-.043-10.113-.062h-2.026v-1.126c0-.389,0-.76,0-1.13,0-1.845,0-3.736,0-5.406-.007-4.946-.014-10.06.06-15.092.023-1.548-.585-2.339-1.972-2.565-.7-.114-1.412-.233-2.1-.348l-.077-.013h-.006c-2.972-.5-6.045-1.012-9.088-1.281-3.412-.3-6.895-.46-10.263-.613-1.412-.064-3.167-.144-4.827-.234a8.287,8.287,0,0,1-1.014-.141c-.151-.028-.312-.057-.468-.081h-21.171c-1.047.063-2.114.118-3.145.172l-.157.008c-2.428.126-4.938.256-7.4.485-3.912.362-7.867.816-11.693,1.255-1.112.128-2.4.276-3.642.415a5.377,5.377,0,0,0-.834.185c-.206.057-.42.117-.634.156-1.48.267-2.076,1.043-2.057,2.678.061,5.326.053,10.743.046,15.982v.125c0,1.85-.006,3.817-.006,5.734v2.305c-.815,0-1.636-.006-2.34-.012-.747-.006-1.516-.012-2.266-.012-1,0-1.842.011-2.639.034-5.235.155-10.532.327-15.654.493-10.651.345-21.664.7-32.538.925-5.444.112-10.008,2.491-13.954,7.271-4.078,4.939-8.25,10.518-12.753,17.056-2.478,3.6-4.781,7.4-7.01,11.081l-.01.017c-.961,1.588-1.956,3.23-2.951,4.833-.4.645-.81,1.335-1.139,1.889l-.008.013c-.8,1.338-1.62,2.722-2.542,4a4.558,4.558,0,0,1-3.968,1.922c-.127,0-.264,0-.408-.011-.406-.022-.816-.033-1.218-.033a29.606,29.606,0,0,0-9.647,1.794,11.988,11.988,0,0,0-6.772,5.693,42.024,42.024,0,0,0-4.508,11.855,35.106,35.106,0,0,0-.266,12.689,15.41,15.41,0,0,1,.131,3.172c-.026.6-.211,1.327-.554,1.523a3.857,3.857,0,0,0-1.586,1.643l-.492-.16-.94-.307-.585-.191c.249,1.564.586,3.18,1,4.8l-.021.029-.006.008c-.03.042-.062.085-.088.129v9.073q.1.4.207.8c.15.576.306,1.172.44,1.768a7.475,7.475,0,0,0,3.382,5.024,13.17,13.17,0,0,1,5.179,5.493,27.085,27.085,0,0,1,2.259,7.209c.336,1.726.7,3.5,1.108,5.432a13,13,0,0,0,.678,4.507,7.141,7.141,0,0,0,.642,1.5c.582,2.564,1.211,5.238,1.922,8.176a19.739,19.739,0,0,0,2.122,4.76l.144.26c2.1,3.8,5.608,5.929,11.029,6.709a35.665,35.665,0,0,0,5.1.421,20.748,20.748,0,0,0,2.456-.14,15.739,15.739,0,0,1-9.152,2.535,37.124,37.124,0,0,1-5.312-.438c-5.641-.811-9.288-3.03-11.476-6.981l-.147-.265a20.522,20.522,0,0,1-2.211-4.957c-1.9-7.857-3.341-14.344-4.527-20.413a28.169,28.169,0,0,0-2.351-7.5,13.7,13.7,0,0,0-5.388-5.715,7.78,7.78,0,0,1-3.52-5.228c-.142-.63-.31-1.275-.459-1.844-.072-.276-.144-.553-.214-.83v-9.441c.027-.045.061-.09.092-.134a.8.8,0,0,0,.163-.3c.08-.4.142-.833.2-1.21.247-1.711.5-3.481,2.376-4.552a.544.544,0,0,0,.1-.083c-12.25-4-24.73-8.09-38.6-12.639l-.1-.033-.065-.021-.623-.2a194.786,194.786,0,0,0-22.931-5.538A147.982,147.982,0,0,0-824.2-1533.8a39.216,39.216,0,0,0-9.565.957c-2.666.695-4.42,1.774-5.214,3.208-2.838,5.127,7.116,13.509,23.607,27.4,8.546,7.2,19.178,16.15,30.562,26.841a418.1,418.1,0,0,1,35.824,37.9,312.585,312.585,0,0,1,27.292,37.828c6.425,10.611,10.641,19.3,14.36,26.958l0,.008c.965,1.988,1.876,3.865,2.792,5.705Zm102.164-4.187c-.915,0-1.867-.025-2.91-.078-1.374-.07-2.83-.114-4.584-.139-.131-.026-.271-.052-.411-.07a14.777,14.777,0,0,1-9.417-5.153,28.648,28.648,0,0,1-6.045-11.483c-2.593-8.967-3.6-18.344-4.582-27.413l-.023-.209c-.193-1.785-.392-3.63-.6-5.442a4.04,4.04,0,0,0-1.976-3.362c-8.617-5.577-17.355-11.284-25.805-16.8l-.01-.007c-3.371-2.2-7.192-4.7-10.918-7.127-3.359-2.191-6.852-4.45-9.934-6.443l-1.335-.864c.537-.7,1.037-1.406,1.567-2.159l.014-.019c.383-.544.779-1.106,1.19-1.661,1.41.914,2.834,1.835,4.211,2.726l.454.294.231.15c2.938,1.9,5.976,3.866,8.943,5.8,3.472,2.264,7.089,4.626,10.28,6.711,6.114,3.993,13.043,8.519,19.871,12.953l.083.141.029.049.015.024a1.788,1.788,0,0,0,.9.568,5,5,0,0,1,.5.219.041.041,0,0,0,0-.01l1.052.682,2.574,1.667a3.882,3.882,0,0,1,1.9,3.232c.21,1.827.416,3.737.6,5.422.94,8.72,1.912,17.734,4.4,26.353a27.556,27.556,0,0,0,5.81,11.036,14.2,14.2,0,0,0,9.05,4.952c.118.015.244.037.4.067,1.693.024,3.093.066,4.406.133,1.011.051,1.926.075,2.8.075.53,0,1.044-.009,1.529-.028.216-.008.431-.022.64-.035.3-.019.64-.041.965-.041.192,0,.368.007.538.022v-.036c.371-.07.738-.137,1.144-.21l.01,0c.8-.145,1.628-.3,2.436-.47a16.826,16.826,0,0,0,11.313-8.263c2.973-5.051,5.546-9.583,7.866-13.854a8.275,8.275,0,0,1,3.834-3.986,17.47,17.47,0,0,0,3.336-1.928,15.15,15.15,0,0,1,5.336-2.509,32.968,32.968,0,0,1,5.849-.866c6.417-.485,12.9-1.028,19.171-1.552l.04,0c6.756-.565,13.743-1.149,20.619-1.66,7.39-.55,14.869-1.006,22.1-1.448l.074,0c3.609-.221,7.34-.448,11.009-.685,2.13-.137,4.295-.289,6.388-.435h.015c3.316-.232,6.745-.472,10.143-.663,3.422-.192,6.9-.358,10.269-.518l.064,0c4.552-.217,9.26-.441,13.884-.734l.583-.037.071,0c12.144-.771,24.7-1.567,37.032-2.591,12.381-1.029,24.858-2.336,35.581-3.481,4.276-.457,8.592-1.067,12.767-1.656l.069-.01c1.9-.268,3.86-.545,5.791-.8.384-.052.76-.095,1.158-.14l.516-.06c.2.708.39,1.411.572,2.09.188.7.359,1.337.539,1.973l-1.191.168-.277.039c-4.341.613-8.829,1.246-13.26,1.72-11.158,1.192-24.141,2.553-37.024,3.623-12.79,1.061-25.79,1.887-38.361,2.685l-.854.054c-4.856.308-9.759.541-14.5.766h-.018c-3.5.167-7.123.339-10.681.539-3.537.2-7.1.448-10.544.689-2.186.153-4.446.311-6.674.455-3.863.249-7.778.488-11.564.719-7.514.459-15.284.933-22.965,1.5-7.172.534-14.423,1.14-21.435,1.727-6.548.548-13.319,1.114-20.01,1.62a34.314,34.314,0,0,0-6.087.9,15.771,15.771,0,0,0-5.552,2.611,18.079,18.079,0,0,1-3.472,2.006,8.613,8.613,0,0,0-3.99,4.148c-2.417,4.452-5.095,9.168-8.185,14.416a17.508,17.508,0,0,1-11.772,8.6c-.857.185-1.733.343-2.581.5q-.591.107-1.153.211v.039c-.171-.016-.355-.024-.561-.024-.337,0-.689.022-1,.042-.217.014-.442.028-.669.037C-601.294-1371.2-601.829-1371.188-602.377-1371.188Zm-6.879-29.31v0c1.238-3.512,1.188-7.277.951-10.822l-.232-.1-.185-.082c.582-.738,1.163-1.5,1.724-2.231l.04-.053c.349-.456.71-.928,1.068-1.39l.192.085.075.034.15.066.117.052c.258,3.838.355,8.273-1.753,12.342a4.245,4.245,0,0,1-2.146,2.1Zm-5.06-4.942c-.42,0-.791-.351-1.167-1.1a11.272,11.272,0,0,1-.292-1.3,95.631,95.631,0,0,1-1.025-25.137,2.94,2.94,0,0,1,2.573-1.641h.046l.125,0c-.042.109-.085.225-.139.379a31.822,31.822,0,0,0-1.776,7.82,21.311,21.311,0,0,0,.76,7.974,77.573,77.573,0,0,0,2.717,7.558c.451,1.1.871,1.594,1.361,1.594a1.324,1.324,0,0,0,.81-.372c-.628.822-1.491,1.945-2.354,3C-613.367-1405.816-613.873-1405.439-614.316-1405.439Zm10.33-12.952v0c-.193-.917-.378-1.8-.557-2.66-.378-1.813-.735-3.526-1.115-5.248-.5-2.283-1.048-4.626-1.663-7.163a4.073,4.073,0,0,0-.417-.954c-.047-.087-.094-.174-.139-.261a9.332,9.332,0,0,0-.861-1.415c-.449-1.7-.962-3.427-1.526-5.12a13.562,13.562,0,0,0-1.945-3.675,3.568,3.568,0,0,0-1.538-1.3c.162-.307.329-.6.5-.887a2.507,2.507,0,0,1,2.037-1.495,2.784,2.784,0,0,1,2.108,1.365,13.046,13.046,0,0,1,1.869,3.533,76.2,76.2,0,0,1,3.963,23.016,10.859,10.859,0,0,1-.109,1.5c-.011.082-.076.155-.219.315-.093.1-.218.245-.38.445Zm28.249-1.828h0a5.887,5.887,0,0,0-2.378-7.083,31.7,31.7,0,0,0-2.828-1.7c-.474-.263-1.012-.561-1.529-.869a14.405,14.405,0,0,1-2.921-2.156,5.533,5.533,0,0,1-1.634-3.092,54.939,54.939,0,0,1-.416-8.252q0-.376,0-.751a1.7,1.7,0,0,1,.428-1.237,1.432,1.432,0,0,1,1.042-.389,2.557,2.557,0,0,1,.667.1,51.867,51.867,0,0,0,.4,7.838c.362,2.36,2.318,3.819,4.378,5.044.475.282.966.556,1.442.82l.029.016.006,0a30.553,30.553,0,0,1,2.71,1.632,5.752,5.752,0,0,1,1.912,7.708c-.293.6-.609,1.2-.94,1.776C-575.5-1420.592-575.62-1420.4-575.736-1420.219Zm11.681-11.7h0a8.3,8.3,0,0,0,.454-2.159c.31-5.369.489-11.066.579-18.47.022-1.823-.06-3.677-.14-5.469q-.028-.62-.054-1.239c-15.426-4.194-31.5-8.787-49.136-14.039a40.272,40.272,0,0,0-5.072-2.447c-.564-.226-1.137-.461-1.691-.688l-.015-.006a59.293,59.293,0,0,0-6.773-2.461,70.866,70.866,0,0,1-12.1-4.962c-1.255-.609-2.676-1.3-4.053-1.928-10.6-4.853-21.28-9.661-31.61-14.31l-.585-.263c-4.121-1.855-8.383-3.773-12.568-5.663a1.68,1.68,0,0,1-.269-.163l-.063-.043c1.789-.211,3.589-.394,5.329-.571l.016,0c3.927-.4,7.988-.812,11.921-1.54,7.053-1.306,14.076-2.948,20.875-4.878a24.031,24.031,0,0,1,6.654-.884c1.121,0,2.3.063,3.609.193,8.881.889,17.69,3.9,27.722,9.486a155.193,155.193,0,0,1,15.136,9.675c4.4,3.159,9.033,6.769,14.163,11.036,4.152,3.454,8.246,7.118,12.206,10.662l.087.078c2.039,1.824,4.147,3.711,6.237,5.545a3.262,3.262,0,0,1,1.086,2.795c0,1.6.068,3.224.137,4.8v.02c.077,1.718.156,3.494.135,5.254-.086,7.127-.258,12.6-.557,17.752a13.431,13.431,0,0,1-1.579,4.733Zm-64.691-.957h0a4.781,4.781,0,0,0-.466-.206l-.008,0a1.725,1.725,0,0,1-.867-.546,51.554,51.554,0,0,1-2.656-4.995c-.13-2.074-.265-4.524-.278-6.972a14.2,14.2,0,0,1,1.183-5.913,13.528,13.528,0,0,1,3.724-4.851,25.265,25.265,0,0,0,3.174-3.238,16.712,16.712,0,0,0,2.082-3.2,1.357,1.357,0,0,0,.1-1.308,1.084,1.084,0,0,0-.974-.435,2.483,2.483,0,0,0-.352.027c-.16.024-.311.049-.463.076.342-.224.692-.442,1.04-.649a8.384,8.384,0,0,1,2.988-.977,2.35,2.35,0,0,1,.338-.026,1.043,1.043,0,0,1,.937.418,1.306,1.306,0,0,1-.092,1.258,16.035,16.035,0,0,1-2,3.077,24.241,24.241,0,0,1-3.051,3.112,13,13,0,0,0-3.579,4.661,13.648,13.648,0,0,0-1.136,5.682c.016,2.956.215,5.953.407,8.851.1,1.532.207,3.116.284,4.685a2.991,2.991,0,0,1-.193,1.005c-.048.153-.1.311-.134.468Zm135.173-.338h0c-.158-.853-.341-1.719-.518-2.556v-.005a47.466,47.466,0,0,1-.949-5.576c-.836-9.483-1.648-19.651-2.632-32.968a30.571,30.571,0,0,1,.14-4.677c.025-.31.054-.667.08-1.011a2.2,2.2,0,0,1,2.21-2.1c3.349-.438,6.756-.9,10.05-1.342l.369-.05c7.259-.979,14.766-1.992,22.188-2.861,3.31-.388,6.706-.506,9.991-.62h.04c1.384-.048,2.814-.1,4.219-.168l.851-.042c5.433-.266,11.048-.542,16.378-2.33a2.508,2.508,0,0,1,.8-.116,6.992,6.992,0,0,1,1.965.367,17.694,17.694,0,0,0,5.314.751,32.775,32.775,0,0,0,3.976-.272c4.85-.587,9.677-.943,14.206-1.257,1.5-.1,3.03-.224,4.508-.34h.012c4.4-.344,8.958-.7,13.431-.7.433,0,.872,0,1.306.01a40.833,40.833,0,0,1,8.293,1.3l.01,0c1.263.288,2.569.585,3.855.819a2.7,2.7,0,0,1,2.38,2.771c.108,1.45.236,2.943.349,4.261.275,3.2.559,6.519.641,9.793a124.878,124.878,0,0,1-1.319,24.106q-.018.106-.035.213a6.737,6.737,0,0,1-.44,1.733,4.8,4.8,0,0,1-.761,1.066l-.019.023c-.12.14-.244.284-.357.43a6.512,6.512,0,0,0-.473-.471,2.406,2.406,0,0,1-.816-1.08,45.334,45.334,0,0,1-1.1-6.771c-.24-3.8-.422-7.664-.6-11.4l0-.071c-.133-2.833-.271-5.762-.434-8.651a43.359,43.359,0,0,0-.718-5.99c-.535-2.719-1.816-3.878-4.283-3.878-.259,0-.539.013-.832.04-2.681.243-5.48.556-7.949.832l-.036,0c-2.032.227-4.134.461-6.2.665-8.071.8-16.221,1.557-23.226,2.207-3.948.366-7.964.727-11.848,1.076-7.4.664-15.041,1.351-22.589,2.109-7.453.751-15.022,1.606-22.342,2.434l-.065.008-.191.021c-3.146.356-6.4.724-9.6,1.078-.351.039-.7.088-1.09.143a16.977,16.977,0,0,1-2.349.221h-.1a2.409,2.409,0,0,0-1.939.7,3.065,3.065,0,0,0-.583,1.972c-.053,2.07-.121,4.144-.186,6.15-.117,3.592-.239,7.307-.274,10.965-.034,3.465,0,6.96.042,10.242l-.494-.106-.078-.017-.4-.086q.04.462.079.925l.012.144c.062.728.131,1.553.2,2.35a40.549,40.549,0,0,0,.736,4.606c-.012.135-.026.274-.038.393-.015.148-.031.307-.044.463l-.709.124Zm-63.662-10.308h0c.024-.381.047-.744.071-1.114l.016-.253.062-.985c7.17-.11,14.421-.543,21.434-.962h.007c8.129-.485,16.534-.987,24.834-.987,3.272,0,6.3.075,9.25.229a1.424,1.424,0,0,1-.1,1.2c-.262.356-.78.462-1.477.511-1.865.132-3.761.279-5.391.406l-.2-.047c-.394,0-.8,0-1.2,0-8.628,0-17.365.521-25.815,1.025h-.025C-542.8-1444.09-550.056-1443.657-557.236-1443.524Zm39.491-9.113h0v-.051c0-.033,0-.066,0-.1,0-.053,0-.1,0-.15h-.1c-.665,0-1.34.009-1.992.018h-.026c-.752.011-1.431.02-2.119.02-1.022,0-1.862-.021-2.643-.066a4.4,4.4,0,0,1-2.988-.97,4.315,4.315,0,0,1-.955-2.978,48.382,48.382,0,0,1,.139-5.378v-.021q.019-.311.039-.622a2.475,2.475,0,0,1,2.216-2.4,29.685,29.685,0,0,1,4.659-.447c.843-.011,1.724-.016,2.617-.016,2.169,0,4.485.03,7.289.095,1.979.045,3.2.437,3.956,1.271a4.385,4.385,0,0,1,.849,3.416c-.064.847-.044,1.713-.025,2.551.015.647.03,1.316.007,1.975a3.689,3.689,0,0,1-.746,2.286,3.193,3.193,0,0,1-2.145,1.038c-1.853.229-3.755.318-5.594.4h-.016l-.04,0C-516.149-1452.722-516.954-1452.685-517.745-1452.637Zm-21.558-.313h0c-5.059-1.291-10.287-2.655-15.539-4.054-.041-.625-.058-1.381-.057-2.452,0-5.475.63-6.125,6.1-6.325.424-.015.879-.023,1.43-.023.4,0,.82,0,1.211.008h.086c.369,0,.751.007,1.126.007v.122h.1c.574,0,1.15-.008,1.708-.016s1.2-.017,1.805-.017c.863,0,1.578.018,2.249.057,2.593.151,3.533,1.056,3.728,3.587a39.207,39.207,0,0,1,0,5.514c-.161,2.52-1.133,3.457-3.713,3.583Zm224.424-.838h0c-.116-.251-.253-.5-.385-.745a5.93,5.93,0,0,1-.7-1.655c-.816-4.267-1.671-8.813-2.366-13.365-1.056-6.906-1.97-13.745-2.648-18.932-.138-1.054-.533-1.446-1.46-1.446-.124,0-.26.006-.4.019-6.851.579-13.818,1.155-20.556,1.711l-.026,0-.2.016c-6.346.524-12.909,1.066-19.361,1.611-.2.017-.407.026-.6.026a4.058,4.058,0,0,1-3.7-1.987l-.1-.153a4.73,4.73,0,0,1-.473-.871,21.078,21.078,0,0,0-5.082-7.8,27.818,27.818,0,0,0-7.658-5.155c-11.149-5.232-20.461-9.547-30.32-13.472-10.2-4.061-20.676-7.918-30.808-11.649l-.057-.021c-4.338-1.6-8.823-3.248-13.226-4.893l-.865-.325-.627-.235c2.021-.035,4.057-.112,6.026-.187,2.659-.1,5.409-.206,8.114-.206a51.7,51.7,0,0,1,16.434,2.191c2.645.86,5.34,1.721,7.945,2.554l.074.024c4.254,1.359,8.653,2.765,12.98,4.213l6.767,2.263c12.519,4.184,25.464,8.511,38.151,12.946,7.232,2.528,14.5,5.3,21.537,7.972l.043.016c2.657,1.011,5.4,2.057,8.109,3.074,1.35.507,2.7,1.072,4,1.618l.039.016c.652.273,1.327.556,1.994.827,3.872,1.577,6.593,4.571,8.317,9.153,1.708,4.538,2.188,9.121,2.637,14.641.233,2.851.431,5.886.624,9.55a18.085,18.085,0,0,1-1.606,8.534l-.087.019-.483.105Zm-48.866-2.87h0c.1-3.16.265-3.335,3.485-3.747,11.206-1.434,22.7-2.889,32.845-4.174l3.071-.389a2.027,2.027,0,0,1,.248-.014c.068,0,.14,0,.221,0,.116,0,.229.006.365.006v3.1l-4.926.638ZM-709.4-1466.08c-1.166,0-1.719-1.22-2.106-2.413-.153-.471-.281-.94-.38-1.394a19.149,19.149,0,0,0,.737-5.484l.026.046.014.024c.24.417.43.747.641,1.066.594.892,1.262,1.763,2.316,1.763a2.162,2.162,0,0,0,.476-.056c1.42-.322,1.748-1.555,1.892-2.839.084-.754.2-1.517.309-2.256l0-.012c.05-.336.1-.68.15-1.02h.628c.054.168.123.339.189.5l0,.011a3.243,3.243,0,0,1,.307,1.116,16.123,16.123,0,0,1-2.122,8.978,4.549,4.549,0,0,1-2.813,1.942A1.842,1.842,0,0,1-709.4-1466.08Zm345.222-1.355c-1.516,0-2.366-.913-2.526-2.714a15.748,15.748,0,0,1-.024-1.727c.006-.257.012-.523.012-.785h-.034c0-.165,0-.333,0-.495v-.032c0-.356-.009-.759.007-1.148.151-3.683.712-4.323,4.285-4.894,1.2-.192,2.409-.405,3.576-.612,2.013-.357,4.1-.725,6.161-.983a8.308,8.308,0,0,1,1.031-.075c1.524,0,2.036.645,2.19,2.758a47.3,47.3,0,0,1,0,5.058v.022q-.017.468-.032.935a3.965,3.965,0,0,1-.8,2.4,3.265,3.265,0,0,1-2.148,1.151c-3.94.545-7.8.927-11.46,1.136C-364.023-1467.437-364.1-1467.435-364.177-1467.435Zm23.519-1.225a1.628,1.628,0,0,1-1.736-1.461,17.574,17.574,0,0,1,.5-9.736,2.33,2.33,0,0,1,1.48-1.264c2.387-.462,4.827-.864,7.187-1.252l.012,0c1.135-.187,2.246-.37,3.356-.559a11.758,11.758,0,0,1,1.942-.205,2.1,2.1,0,0,1,2,.869,6.161,6.161,0,0,1,.562,3.031c.01.461.007.924,0,1.372,0,.213,0,.426,0,.639l.137.012c-.044.426-.082.853-.124,1.327-.087.982-.178,2-.338,2.987-.238,1.462-1.191,2.29-2.916,2.533-4.5.632-8.172,1.163-11.555,1.67A3.453,3.453,0,0,1-340.657-1468.66Zm-187.889-2.99c-.4,0-.824-.016-1.268-.047-4.838-.34-9.774-.436-14.548-.528h-.01c-2.6-.05-5.288-.1-7.93-.193a17.9,17.9,0,0,1-10.6-4.018c-9.074-7.017-16.749-12.645-24.154-17.711a295.706,295.706,0,0,0-25.486-15.733c-2.6-1.42-5.344-2.685-8-3.908l-.01,0c-1.589-.733-3.232-1.491-4.829-2.275a30.124,30.124,0,0,1-2.7-1.576l-.009-.005c-.483-.3-1.029-.648-1.653-1.023.478-.257.9-.511,1.274-.736a7.78,7.78,0,0,1,1.987-.974c1-.26,2.011-.53,2.992-.792l.11-.029c3.921-1.044,7.976-2.125,12.025-2.876a494.567,494.567,0,0,1,59.089-7.205c5.676-.355,11.445-.748,17.025-1.128l.074-.005c5.209-.354,10.595-.721,15.908-1.058.094-.006.191-.009.3-.009a6.219,6.219,0,0,1,2.427.527,539.536,539.536,0,0,1,54.77,28.38c3.383,1.984,6.925,3.828,10.349,5.612l.006,0c1.825.95,3.711,1.932,5.574,2.937a14.5,14.5,0,0,1,2.635,1.773,3.97,3.97,0,0,1,.8,1.167l0,.006c.134.249.285.532.47.834l-.008,0h-.2c-.258,0-.487,0-.7,0h-.08c-.229,0-.419,0-.6,0-.27,0-.482,0-.685-.015-1.65-.084-3.363-.126-5.091-.126a180.822,180.822,0,0,0-24.02,1.97c-7.575,1.02-14.938,1.908-21.141,2.641a1.954,1.954,0,0,1-.232.013,4.267,4.267,0,0,1-1.8-.524c-3.359-1.715-6.768-3.474-10.064-5.175l-.04-.021c-5.268-2.718-10.714-5.529-16.155-8.263-5.306-2.664-10.271-5-15.178-7.125-11.327-4.917-22.847-9.8-33.987-14.52l-3.148-1.334a30.935,30.935,0,0,0-3.31-1.114l-.053-.016c-.358-.106-.728-.215-1.09-.327a.964.964,0,0,0-.29-.037c-.087,0-.177.007-.264.013s-.177.013-.264.013l-.063.095-.1.155-.076.113-.076.113c.119.077.242.153.36.227.247.155.5.314.747.485a241.111,241.111,0,0,0,26.189,16.3c1.281.667,2.589,1.34,3.854,1.99l.136.07c7.1,3.65,14.433,7.422,21.045,12.179a28.4,28.4,0,0,1,7.736,7.605c2.093,3.324,2.044,6.474-.164,10.532a8.882,8.882,0,0,1-3.295,3.63A8.761,8.761,0,0,1-528.546-1471.649Zm-176.309-16.807h0c-.13-.267-.271-.54-.4-.781a15.794,15.794,0,0,1-.822-1.767c-.216-.587-.394-1.2-.566-1.792l0-.014,0-.009c-.193-.665-.393-1.352-.647-2.006-.329-.843-.647-1.219-1.032-1.219-.321,0-.7.269-1.2.847-.467.543-.921,1.115-1.36,1.667l-.221.279-.058.073a24.9,24.9,0,0,0-.642-3.7,9.056,9.056,0,0,1,1.874-4.638,1.8,1.8,0,0,1,1.393-.751,2.693,2.693,0,0,1,2.063,1.385c1.67,2.426,2.073,5.252,2.342,7.938a23.988,23.988,0,0,1,.048,2.979c-.011.419-.023.894-.023,1.35Zm-12.918-1.354c-.455-.979-.825-1.784-1.163-2.533l.182.054c.191-.237.384-.48.571-.715l.041-.052q.283-.357.568-.713l-.045.905,0,.048q-.075,1.5-.151,3Zm287.984-2.366h0a9.845,9.845,0,0,0-2.774-4.953,17.886,17.886,0,0,0-4.562-3.131c-8.617-4.415-17.832-8.922-27.389-13.4-9.633-4.51-19.455-9-28.954-13.345l-.145-.066c-4.241-1.939-8.627-3.945-12.936-5.925a1.261,1.261,0,0,1-.29-.224c-.1-.087-.193-.173-.328-.287h.31c.675,0,1.331,0,1.966-.01h.024c.675-.005,1.372-.01,2.062-.01.955,0,1.734.01,2.45.032l2.83.086.075,0c7.519.228,15.294.463,22.937.774a58.029,58.029,0,0,1,11.279,1.616,82.244,82.244,0,0,1,10.846,3.468c3.481,1.364,7.027,2.744,10.457,4.08l.535.208.042.016c13.688,5.329,27.841,10.839,41.581,16.682a118.48,118.48,0,0,1,14.608,7.918l.012.007c2.1,1.27,4.276,2.584,6.442,3.81a2.605,2.605,0,0,1,.9.856,92.381,92.381,0,0,0-16.23-1.332c-9.276,0-18.684,1.12-27.782,2.2l-.029,0C-424.453-1492.786-427.141-1492.466-429.788-1492.177Zm-289.518-.994a88.8,88.8,0,0,1-4.41-11.723,9.948,9.948,0,0,1,1.821-2.843l-1.39-.452-.686-.223-.678-.221a43,43,0,0,1-.959-10.8,45.166,45.166,0,0,1,1.238-8.872,42.165,42.165,0,0,1,3.044-8.415l.05-.1a3.527,3.527,0,0,1,.551-.9c1.963-2.086,3.973-4.192,5.918-6.229l.056-.058,1.158-1.214a1.056,1.056,0,0,1,.178-.139c.03-.02.061-.04.09-.062a5.552,5.552,0,0,1,3.18-1.293c1.362,0,2.566.859,3.788,2.7a19.514,19.514,0,0,1,2.744,6.484,32.082,32.082,0,0,1,.743,6.929c.046,3.958-.187,7.986-.414,11.881v.025c-.067,1.141-.126,2.169-.181,3.192a3.882,3.882,0,0,1-2.408,3.393c-1.107.514-2.276.947-3.406,1.366l-.006,0-.067.025c-.289.107-.588.218-.881.329a10.607,10.607,0,0,0-4.885,3.507,11.1,11.1,0,0,0-2.03,5.515c-1.978,2.467-2.068,5.382-2.156,8.2Zm80.014-28.64h0c.547-9.461,1.22-19.6,2.429-29.639a206.084,206.084,0,0,1,5.5-29.285c-.915-.089-1.823-.181-2.7-.27l-.066-.007-.018,0c-2.13-.216-4.143-.42-6.185-.579-1.434-.111-2.9-.113-4.32-.114h-.556a8.293,8.293,0,0,0-4.153,1.026,7.627,7.627,0,0,0-2.913,3.018l-.4.729-.331.6,0,.005a158.583,158.583,0,0,0-7.361,14.456c-1.589,3.735-2.9,7.656-4.173,11.448l-.012.037c-.716,2.135-1.456,4.343-2.237,6.491a56.58,56.58,0,0,1-2.317,5.235l-.111.23-.309.64a4.689,4.689,0,0,1-.783,1.053l-.009.01c-.133.149-.271.3-.4.458l-.418-.11-.1-.027c.029-.33.036-.675.042-1.009a6.554,6.554,0,0,1,.268-2.114c.565-1.534,1.134-3.1,1.684-4.609l.011-.031c1.979-5.44,4.024-11.066,6.349-16.477,2.222-5.172,4.736-10.339,7.166-15.336,1.073-2.206,2.183-4.487,3.263-6.758a12.519,12.519,0,0,0-6.985-2.259,13.4,13.4,0,0,0-5.933,1.49,25.021,25.021,0,0,0-5.6,3.831,41,41,0,0,0-4.635,4.962,69.494,69.494,0,0,0-6.482,9.679,110.737,110.737,0,0,0-5.108,10.476c-1.232,2.863-2.616,5.81-4.113,8.759-.583,1.148-1.053,1.575-1.735,1.576a4.23,4.23,0,0,1-1.658-.5c-.089-.041-.177-.089-.268-.138-.06-.032-.119-.064-.18-.094-1.843-.921-2.819-1.544-3.042-2.389-.219-.829.32-1.856,1.323-3.35q1.341-1.994,2.678-3.991l.022-.032c5.189-7.739,10.555-15.742,16.126-23.4a40.343,40.343,0,0,1,6.4-7.1,24.248,24.248,0,0,1,8.287-4.748,42.144,42.144,0,0,1,11.5-1.89c27.318-.985,51.589-1.737,74.2-2.3,1.3-.032,2.626-.047,4.069-.047,3.371,0,6.79.088,10.1.172h.005c3.318.085,6.749.172,10.123.172l.886,0c6.016-.03,12.134-.127,18.05-.22h.055c7.136-.113,14.516-.23,21.773-.23.913,0,1.849,0,2.783.006a91.247,91.247,0,0,1,11.943.747,54.461,54.461,0,0,1,11.662,2.833c4.3,1.589,7.261,3.672,9.329,6.556.251.349.467.711.741,1.168l.023.038c.131.219.279.466.446.735-.207-.041-.378-.068-.514-.091l-.02,0a2.371,2.371,0,0,1-.541-.125,45.669,45.669,0,0,0-17.981-3.52c-.23,0-.462,0-.692,0-6.751.087-13.6.3-20.22.5-5.425.165-11.03.335-16.544.438-11.948.223-24.1.409-35.853.588l-.475.007-.3,0c-10.07.153-20.482.312-30.721.494-3.5.062-7.047.2-10.476.334-3.108.121-6.321.247-9.5.315a7.3,7.3,0,0,0-3.992,1.151,8.149,8.149,0,0,0-2.675,3.121c-2.429,4.613-3.468,9.728-4.324,14.571-1.017,5.758-1.988,11.545-2.927,17.141l-.009.051c-.91,5.419-1.85,11.023-2.819,16.527a43.412,43.412,0,0,1-1.531,5.634c-.167.519-.316.986-.461,1.453a5.043,5.043,0,0,1-.682,1.257C-639.053-1522.191-639.18-1522-639.292-1521.811Zm-5.883-4.462h0c-1.806-.761-3.613-1.525-5.166-2.182l-.05-.021c-4.6-1.947-8.95-3.787-13.374-5.6-1.6-.659-1.9-1.348-1.259-2.951.5-1.25,1-2.523,1.483-3.755l.064-.163c3.092-7.869,6.29-16,10.762-23.407,2.176-3.6,4.672-7.328,8.168-10.146a39.035,39.035,0,0,1,4.254-2.851l.012-.007c.647-.394,1.316-.8,1.961-1.217l.13.147.053.06.183.207Q-641.564-1552.224-645.175-1526.273Zm-30.422-11.688h0l-3.842-1.764-4.5-2.066-4.162-1.911a79.266,79.266,0,0,1,11.28-20.111,49.529,49.529,0,0,1,18.057-14.256l-1.333,3.177-3.216,7.662C-667.425-1557.436-671.5-1547.722-675.6-1537.962Zm241.845-13.864h0c-.424-.066-.8-.113-1.17-.159a11.869,11.869,0,0,1-1.957-.351c-.534-.162-.835-.4-.9-.7-.066-.319.153-.7.633-1.109.919-.78,3.148-1.347,5.3-1.347a6.08,6.08,0,0,1,2.736.5c.37.2.876.7.858,1.063a1.477,1.477,0,0,1-.935,1c-1.175.338-2.387.608-3.456.846C-433.061-1551.983-433.408-1551.906-433.752-1551.826Zm-189.775-8.232h-1.494c.356-1.224.676-2.441.986-3.619a59.8,59.8,0,0,1,2.36-7.6,10.755,10.755,0,0,1,4.833-5.488,15.909,15.909,0,0,1,7.1-1.761c4.012-.155,7.95-.174,10.931-.174,1.783,0,3.61.009,5.223.016h.023c1.822.009,3.6.017,5.37.017l1.443,0q.809,0,1.619,0h2.509c-.652.279-1.312.545-1.951.8l-.044.017a43.226,43.226,0,0,0-4.293,1.911,10.08,10.08,0,0,0-5.143,6.347c-.363,1.291-.386,1.989-.082,2.49.29.477.9.783,2.049,1.021a49.36,49.36,0,0,0,8.449,1.2c6,.19,12.05.3,17.9.415,4.416.084,8.982.17,13.485.288,2.792.073,5.626.3,8.368.514h.018c.822.065,1.563.124,2.314.18a4.694,4.694,0,0,1,1.163.3c.169.059.356.124.539.177,0,.162,0,.339.005.557-.6.069-1.223.155-1.771.23a36.1,36.1,0,0,1-3.844.389c-14.6.419-33.86.96-53.375,1.431-5.584.134-11.206.195-16.643.253l-.286,0c-2.323.025-4.725.051-7.086.083C-623.034-1560.059-623.243-1560.058-623.527-1560.058Zm65.194-38.333a3.568,3.568,0,0,1-.643-.065,3.747,3.747,0,0,0-.685-.054c-.176,0-.36.007-.555.015h-.034c-.231.009-.493.02-.778.02.39-1.067.77-2.136,1.137-3.17l.013-.038c.917-2.582,1.783-5.02,2.793-7.446a5.841,5.841,0,0,0,0-4.77c-.891-2.25-1.687-4.517-2.53-6.918l-.017-.049c-.349-.993-.709-2.02-1.082-3.061h.07c.33,0,.647-.009.954-.018h.041c.314-.009.611-.018.9-.018a7.655,7.655,0,0,1,1.3.092,1.892,1.892,0,0,1,1.111,1.139c.552,1.595,1.057,3.246,1.592,4.994l0,.007c.2.665.42,1.375.65,2.116.237-.776.468-1.5.691-2.2l0-.007c.5-1.569.93-2.924,1.282-4.337.321-1.293.852-1.821,1.833-1.821a3.382,3.382,0,0,1,.571.054,4.334,4.334,0,0,0,.74.054c.206,0,.426-.008.638-.016.258-.01.524-.019.824-.019-.358.978-.72,1.952-1.071,2.894l-.057.153-.006.016c-.976,2.622-1.9,5.1-2.734,7.644a5.472,5.472,0,0,0-.02,3.168c.77,2.408,1.652,4.813,2.5,7.139l.011.03c.353.962.717,1.958,1.069,2.938.1.266.172.542.26.861.05.181.1.376.167.59-.253,0-.486-.01-.711-.02h-.012c-.2-.009-.389-.017-.57-.017a3.409,3.409,0,0,0-.665.055,3.443,3.443,0,0,1-.654.07c-1.188,0-1.64-.813-1.953-2.033-.39-1.525-.891-3.056-1.421-4.676l0-.013c-.242-.74-.493-1.506-.752-2.328-.264.82-.53,1.617-.765,2.32-.547,1.634-1.064,3.177-1.46,4.729C-556.723-1598.97-557.295-1598.39-558.333-1598.39Zm16.74-.129h-3.439v-25.3h3.439v25.3Zm-30.625-.041h-3.625l1.558-8.081.685-3.552q1.309-6.79,2.6-13.482c.08-.053.135-.093.181-.126.063-.046.091-.066.121-.069a21.261,21.261,0,0,1,2.194-.2c1.529,0,1.66.695,2.148,3.279l.019.1c.825,4.369,1.682,8.807,2.512,13.1l.015.08c.436,2.258.9,4.675,1.359,7.048.075.392.133.79.194,1.212l.009.059c.029.2.059.407.093.625h-3.62c-.055-.321-.116-.649-.175-.966l-.009-.049c-.147-.782-.3-1.592-.381-2.4-.1-1-.489-1.412-1.332-1.412-.082,0-.169,0-.259.011-.365.031-.761.046-1.248.046-.313,0-.628-.006-.961-.012h-.021c-.336-.006-.718-.014-1.117-.014-.264,1.346-.519,2.655-.783,4l0,.008-.154.784Zm-8.851-.037h-3.815v-21.957H-589v-3.261h12v3.165h-4.064v22.052Z" transform="translate(1990 1950)" fill="url(#linear-gradient)"/>
</svg>
