<svg xmlns="http://www.w3.org/2000/svg" xmlns:xlink="http://www.w3.org/1999/xlink" width="408.001" height="540.637" viewBox="0 0 408.001 540.637">
  <defs>
    <linearGradient id="linear-gradient" x1="0.888" y1="0.448" x2="0.078" y2="0.445" gradientUnits="objectBoundingBox">
      <stop offset="0" stop-color="#8c8992"/>
      <stop offset="1" stop-color="#fff"/>
    </linearGradient>
  </defs>
  <path id="Вычитание_70" data-name="Вычитание 70" d="M-3662.348-2852.363h-408v-303.952c60.429,13.42,124.831,27.7,189.431,41.769,5.6,1.219,11.257,2.657,16.729,4.048,14.777,3.754,30.057,7.636,45.68,7.637a86.724,86.724,0,0,0,13.934-1.087c7.01-1.127,14.338-3.046,20.443-9.4a10.628,10.628,0,0,1,5.612-3.13c6.784-.809,13.776-1.874,20.538-2.9l.031,0c11.675-1.78,23.747-3.621,35.34-4.24,3.819,3.147,8.046,4.55,13.707,4.55a73.107,73.107,0,0,0,8.117-.616h.011c2.059-.233,4.187-.474,6.275-.573,10.312-.326,14.658-5.178,19.689-10.8a67.63,67.63,0,0,1,6.348-6.459,23.365,23.365,0,0,0,6.114-4.4v289.56ZM-3824.1-3119.777h0a7.551,7.551,0,0,1-4.138-1.334,13.749,13.749,0,0,1-3.811-3.918c-4.818-5.279-6.04-12.456-6.217-17.547a44.086,44.086,0,0,1,3.5-18.685,23.366,23.366,0,0,1,4.579-7.078,8.064,8.064,0,0,1,5.618-2.729,6.731,6.731,0,0,1,3.938,1.376,15.485,15.485,0,0,1,3.912,4.441,69.176,69.176,0,0,1,4.414,13.194c.557,2.115,1.131,4.3,1.8,6.489-.663,2.159-1.247,4.37-1.812,6.508l0,.011c-1.314,4.977-2.555,9.678-4.752,14.015C-3818.8-3121.643-3821.291-3119.777-3824.1-3119.777Zm-.019-46.122a7.843,7.843,0,0,0-3.023.688,26.532,26.532,0,0,1,6.615,8,24.7,24.7,0,0,1,2.635,8.677c.725,5.963-.342,12.36-1.374,18.548l-.039.236q-.117.7-.233,1.4c5.714-10.649,6.068-21.754,1.05-33.006C-3819.838-3164.368-3821.733-3165.9-3824.123-3165.9Zm.641,10.85-1.466,10.111-1.919,13.233a13.353,13.353,0,0,0,7.3-9.153,14.743,14.743,0,0,0-.2-7,19.544,19.544,0,0,0-3.718-7.195Zm-7.944,2.106a12.724,12.724,0,0,0-3.313,3.679,7.412,7.412,0,0,0-1.033,3.882c.069,2.545,1.572,4.912,4.346,6.843v-14.4Zm26.389,31.466h0a72.064,72.064,0,0,0-.72-47.325c4.966,5.471,7.883,13.955,8.005,23.277C-3797.633-3136.244-3800.288-3127.479-3805.038-3121.477Zm40.678-10.086h0v-28.983l70.828-5.123,31.183-2.255v20.576a7.423,7.423,0,0,1-4.816,3.112c-26.285,3.519-52.05,6.845-79.328,10.367l-.083.011-.759.1q-8.48,1.095-17.024,2.2Zm101.949-28.042c-18.867.08-38.291,1.876-57.076,3.613h-.008c-11.719,1.084-23.837,2.2-35.708,2.9a5.4,5.4,0,0,0-3.938,2.657c-1.276,3.455-1.329,6.058-.16,7.737,1.153,1.654,3.458,2.458,7.049,2.458a60.514,60.514,0,0,0,9.6-1.109c.636-.108,1.237-.211,1.81-.3v-7.648c4.445-.431,8.957-.871,13.319-1.3l.294-.029c19.32-1.883,39.3-3.83,58.947-5.576.045,0,.093-.006.141-.006.917,0,1.9.757,3.047,1.633l.007.006a23.106,23.106,0,0,0,1.975,1.4c.191-1.754.367-3.372.533-4.9l.057-.527.11-1.011Zm-283.509,19.661h0a10.217,10.217,0,0,1-6.209-5.755c-2.172-4.526-2.387-10.35-2.184-14.438a44.417,44.417,0,0,1,2.593-13.349c1.013-2.215,2.411-3.434,3.937-3.434a3.456,3.456,0,0,1,2.278.963,7.841,7.841,0,0,1,1.88,2.789,38.21,38.21,0,0,1,2.762,13.4,33.188,33.188,0,0,1-2.815,13.68c-.442-3.807-.585-7.684-.723-11.434v-.011c-.13-3.547-.265-7.213-.652-10.813-3.25,7.418-2.209,12.362-1.2,17.143.759,3.6,1.475,7.006.336,11.259Zm-22.433-4.174h0c-1.1,0-2.3-.891-3.45-2.577-1.785-2.611-2.959-8.318-3.063-14.894s.88-12.272,2.566-14.9c1.079-1.681,2.262-2.569,3.421-2.569,1.242,0,2.361,1.063,3.069,2.916,2.268,6.241,3.24,10.427,3.355,14.448.125,4.348-.8,8.844-2.985,14.577C-3966.156-3145.155-3967.163-3144.118-3968.352-3144.118Zm34.259-.552h0v-26.817a26.752,26.752,0,0,1,3.143,12.451A34.544,34.544,0,0,1-3934.093-3144.67Zm-120.432-18.077h0a11.268,11.268,0,0,1-4.713-8.244,15.736,15.736,0,0,1,.779-6.786,18.293,18.293,0,0,1,3.935-6.549v21.581Zm-12.145-2.481h0a11.825,11.825,0,0,1-3.678-5.535v-7.624a24.488,24.488,0,0,1,2.763-6.4,18.212,18.212,0,0,1,3.53,9.953,19.236,19.236,0,0,1-2.613,9.607Zm222.8-1.02h0l-21.524-3.47-12.622-2.034q0-.5,0-1h34.8c-.208,2.082-.369,3.692-.584,5.846l-.066.659Zm69.431-4.072h0c-.915,0-2-2.44-2.785-4.221l-.029-.066c-.059-.132-.115-.26-.17-.382-.839-1.875-1.544-3.845-2.226-5.751-.289-.808-.588-1.644-.9-2.473a36.127,36.127,0,0,1,11.132-1.74,34.835,34.835,0,0,1,7.967.905,28.733,28.733,0,0,1,7.064,2.634,18.306,18.306,0,0,1,9.031,9.958c-2.162.1-4.334.209-6.434.313l-.277.014C-3759.768-3170.746-3767.041-3170.383-3774.436-3170.321Zm44.42-.484a7.466,7.466,0,0,1-5.008-1.472,6.9,6.9,0,0,1-2.137-4.763c-1.41-12.987-2.8-26.2-4.145-38.973l-.007-.07c-.509-4.84-1.086-10.325-1.658-15.733-.308-2.921.238-5.182,1.622-6.72a7.5,7.5,0,0,1,5.849-2.176c.269,0,.548.008.828.025,13.675.794,28.322,1.888,46.1,3.442a10.14,10.14,0,0,1,7.214,3.4,12.3,12.3,0,0,1,2.538,7.649c.295,8.335.541,16.812.779,25.01v.014c.22,7.591.448,15.441.715,23.185.068,1.972-.311,3.357-1.157,4.233s-2.182,1.3-4.18,1.3c-.117,0-.232,0-.343,0-2.905-.065-6.044-.1-9.878-.1-2.281,0-4.6.011-6.846.021h-.22c-2.244.01-4.565.021-6.846.021,0,.505,0,1.028,0,1.6-2.205,0-4.449-.023-6.619-.045h-.072c-2.078-.021-4.432-.045-6.691-.045-3.512,0-6.392.058-9.064.182C-3729.509-3170.811-3729.767-3170.805-3730.017-3170.805Zm40.276-58.817c-.2,0-.416.005-.631.016.646,11.244,1.279,22.278,1.908,33.238l1,17.387.886.838.977.923a23.426,23.426,0,0,1,1.976-1.807c1.508-1.28,3.065-2.6,3.052-3.889-.119-12.463-.654-25.562-1.635-40.046C-3682.5-3227.194-3685.241-3229.622-3689.74-3229.622Zm-39.338-2.683c-3.127,0-5.151.626-6.368,1.969-1.172,1.294-1.584,3.247-1.3,6.146.691,6.972,1.524,14.033,2.33,20.862v.011c.731,6.2,1.487,12.6,2.133,18.917.483,4.726,2.4,6.833,6.221,6.833a20.586,20.586,0,0,0,5.345-.9l-1.9-26.617-1.915-26.885A35.541,35.541,0,0,0-3729.078-3232.305Zm10.3.3a16.325,16.325,0,0,0-3.061.3l.621,9.083.31,4.532c.906,13.259,1.815,26.56,2.737,40.053h13.288c.035-9.677-.683-19.206-1.378-28.42v-.006c-.365-4.838-.742-9.841-1.01-14.85C-3707.719-3227.808-3712.236-3232-3718.778-3232Zm22.372.91a6.365,6.365,0,0,0-1.48.2c-3.852.932-7.561,2.32-6.938,8.031,1.547,16.489,2.524,30.4,2.264,44.708h12.546c-.256-4.109-.5-8.141-.754-12.253-.722-11.806-1.4-22.958-2.208-34.331-.016-.234-.03-.47-.045-.72C-3693.168-3227.972-3693.351-3231.095-3696.406-3231.095Zm34.058,57.42h-11.633v-31.16l.9-.44.9-.44,9.207,15.9-.374.062-.331.055-1.858.308q-1.824,3.366-3.647,6.733l-2.053,3.792,3.826,2.07,5.065,2.74v.375Zm-6.428-3.942h0l-.045-.06-.144-.194-1-1.351,1.387-1.974,4.845-6.892,1.386,4.281v5.58l-6.093.579-.335.032Zm-219.157-2.354h0c-.052,0-.1,0-.153-.006a209.32,209.32,0,0,1-32.257-5h36.253l.536.534,1.005,1a19.678,19.678,0,0,0-1.776,1.391C-3885.536-3181.028-3886.788-3179.97-3887.933-3179.97Zm142.11-4.637c-10.05-16.892-23.959-34.393-50.919-36.122a25.832,25.832,0,0,1,10.731-2.267,33.341,33.341,0,0,1,13.479,3.009,44.363,44.363,0,0,1,12.313,8.215,47.863,47.863,0,0,1,9.464,12.2,43.214,43.214,0,0,1,4.935,14.963ZM-3979.1-3186h0c-19.936-1.076-40.287-2.172-62.217-3.352,0-.215-.01-.43-.015-.645v-.023q-.008-.315-.015-.63l20.343-.861,41.9-1.774V-3186Zm184.454-6.548c-8.275-8.286-15.088-11.981-22.091-11.981-4.406,0-8.819,1.475-13.49,4.509,2.9-7.9,7.987-12.255,14.311-12.255,4.156,0,8.571,1.933,12.431,5.444a29.77,29.77,0,0,1,5.16,6.23,34.417,34.417,0,0,1,3.682,8.053Zm-47.849-.421-.1,0c-20.1-.848-40.518-1.969-60.268-3.052l-.045,0-.069,0c-5.076-.279-10.324-.567-15.486-.845l.049-1.769h80.587l.967,1.087.535.6a22.342,22.342,0,0,0-2,1.581l0,0C-3839.706-3194.191-3841.136-3192.97-3842.494-3192.97Zm180.145-1.727h0v0a78.841,78.841,0,0,0-6.159-11.407c-2.7-2.952-5.7-7.421-6.015-11.111.874-20.563-15.52-27.694-31.375-34.589-3.871-1.684-7.872-3.424-11.562-5.333l12.088,1.428.609.072,3.538.418c0-1.613.017-3.133.032-4.474.032-2.893.06-5.391-.057-7.932-.4-8.733-.606-13.116-2.895-15.7s-6.624-3.34-15.282-4.869l-.173-.031c-2.1-.369-5.5-1.374-5.686-2.5-1.378-8.944-7.634-11.5-14.257-14.209a41.373,41.373,0,0,1-8.963-4.546c-10.26-10.483-23.97-14.934-37.229-19.239-4.611-1.5-9.376-3.044-13.942-4.824a40.449,40.449,0,0,1-6.61-3.546c-2.786-1.722-5.662-3.5-8.7-4.174-39.161-7.4-78.519-14.462-111.855-20.4a40.3,40.3,0,0,0-7.067-.7,21.253,21.253,0,0,0-12.615,3.761,7.448,7.448,0,0,0-.771.45,3.433,3.433,0,0,1-1.88.717c-.077,0-.155,0-.232-.011-5.619,1.811-10.382,5.327-14.988,8.727l-.005,0h0a84.134,84.134,0,0,1-9.441,6.331l.2.023h.029c.077.008.157.017.235.027l-36.331,21.984-3.4,2.056-49.917,30.2c23.7-10.091,46.884-23.4,69.3-36.272,15.895-9.126,32.329-18.563,48.835-26.789a27.4,27.4,0,0,1,12.461-3.079,21.077,21.077,0,0,1,2.987.2c37.248,5.351,65.657,9.872,92.115,14.658,2.771.5,5.706.741,8.545.973h.017a60.62,60.62,0,0,1,12.745,1.954,23.692,23.692,0,0,1,5.86,2.649,21.552,21.552,0,0,1,5.2,4.651,179,179,0,0,1,19.879,5.594,179.383,179.383,0,0,1,30.962,14.114c-36.6-8-59.814-12.052-69.011-12.052a14.554,14.554,0,0,0-3.295.287l-.073.019a26.377,26.377,0,0,1-4.352.713c-.71.057-1.431.085-2.144.085a29.785,29.785,0,0,1-11-2.2c-2.37.041-4.645.095-6.844.146-4.125.1-8.021.188-11.913.188-.64,0-1.269,0-1.869-.007l-.415,0c-9.194,0-11.856,2.664-11.866,11.877-.015,16.138-.012,32.556-.01,48.433v1.119q0,9.874,0,19.748c-2.354-26.662-3.728-53.561-4.933-78.826-.179-3.757-.816-6.259-2-7.873-1.284-1.746-3.253-2.559-6.2-2.559a21.911,21.911,0,0,0-3.014.234c-5.265.741-10.437,2.812-15.439,4.814-1.425.57-2.9,1.16-4.352,1.709-4.845,1.833-6.873,5.363-6.78,11.8.252,17.558.212,35.41.173,52.674-.014,6.331-.029,12.878-.029,19.372l-.349.016-.319.013c-.508-10.11-1.016-20.219-1.53-30.446l-.023-.457c-.733-14.593-1.479-29.427-2.253-44.843-.88,1.1-1.7,2.159-2.5,3.181l0,0c-3.019,3.865-5.627,7.2-8.765,9.907a30.08,30.08,0,0,1-12.072,6.25c-10.806,3.453-21.661,7.376-32.159,11.17-12.223,4.417-24.863,8.985-37.5,12.837,14.886-8.53,31.205-15.343,46.987-21.931l.009,0c9.466-3.952,19.254-8.039,28.619-12.449,6.333-2.205,5.784-7.2,5.2-12.479v-.008a40.065,40.065,0,0,1-.347-5.269l-26.6,10.953-5.443,2.241-14.971,6.165-8.012,3.3c12.847-8.054,29.908-18.43,47.939-27.269,7.791-3.82,8.366-8.9,6.728-16.384l-133.512,69.557V-3393h408Zm-399.021-1.445h0q-.036-.4-.071-.8l79.7-7.687,46.446-4.479v8.116l-99.2,3.814-26.874,1.033h0Zm6.243-9.081h0l-.117-.357-.058-.178-.175-.536,68.213-10.806,51.672-8.186v7.979l-54.042,5.464-1.808.183-18.744,1.9-44.94,4.544h0Zm3.658-18.91v0h0l-.079-.4q-.077-.393-.155-.785l58.263-13.774.744-.176,29.221-6.908,27.762-6.563v7.892l-69.893,12.508Zm302.689-3.273-17.2-5.576-8.928-2.894-.128-.042-30.147-9.773a103.945,103.945,0,0,1,29.192,4.266,85.525,85.525,0,0,1,13.845,5.593,89.448,89.448,0,0,1,13.368,8.424Zm1.438-10.142h0l-12.865-5.2-12.555-5.076-20.588-8.324a71.13,71.13,0,0,1,18.55-2.395,96.066,96.066,0,0,1,25.294,3.66,184.754,184.754,0,0,1,29.838,11.295c-2.632-.169-5.414-.327-7.932-.327-7.7,0-12.5,1.547-19.743,6.367Zm52.213-2.44h0a147.731,147.731,0,0,1-41.311-14.946,27.348,27.348,0,0,1,3.349-.195c5.773,0,12.83,1.521,19.871,4.284a58.1,58.1,0,0,1,18.093,10.855Zm-125.37-12.784h0c-.808-10.833-7.927-13.027-14.811-15.148a50.289,50.289,0,0,1-6.205-2.211l.031.953q.03.9.059,1.8a47.92,47.92,0,0,1-5.117,5.267,6.7,6.7,0,0,1-4.148,1.863c-2.338,0-4.756-1.977-8.346-6.822a20.517,20.517,0,0,1-3.816-5.265,20.93,20.93,0,0,1-1.844-5.548,51.012,51.012,0,0,1-.4-11.543v-.007a58.633,58.633,0,0,0-.158-9.966c-.447-3.384.017-5.806,1.42-7.407,1.372-1.565,3.633-2.326,6.912-2.326.364,0,.744.01,1.132.028,5.06.247,10.007.665,15.245,1.107h.013c2.11.178,4.5.381,6.864.564-.192.518-.333.954-.436,1.272l0,.011c-.161.5-.25.776-.345.779-.734-.056-1.423-.084-2.05-.084-2.719,0-4.444.509-5.428,1.6-1.4,1.553-1.134,4.105-.8,7.337a42.546,42.546,0,0,1,.324,6.231c-.8,7.411.226,12.741,3.135,16.3,2.556,3.123,6.149,4.479,9.625,5.791,3.043,1.148,5.915,2.232,7.737,4.417C-3819.87-3261.335-3819.422-3257.837-3820.5-3252.772Zm-38.989-53.857q-.039.809-.079,1.618v.005l4.516.478.1.01,3.009.318c0,2.314.038,4.6.074,6.8v.005c.084,5.055.163,9.829-.194,14.618-.226,3.063.333,5.291,1.708,6.81,1.317,1.454,3.374,2.316,6.476,2.712l-.8-13.475c-.372-6.275-.747-12.593-1.138-19.166l-3.406-.185-3.333-.18-6.933-.375Zm145.778,47.791h0a18.507,18.507,0,0,0-1.173-1.548l0,0c-.9-1.106-1.831-2.249-1.889-3.418-.256-5.048-.218-10.1-.178-15.457.014-1.9.031-4.052.031-6.2l2.722.191,5.907.415c-3.852,5.953-3.633,12.056-3.4,18.518v.014c.076,2.118.154,4.308.08,6.5l-.547.258-1.372.647-.176.083Zm-8.1-.269v0c-1.491-9.026-2.982-18.052-4.492-27.2,1.74.08,3.31,1.174,4.541,3.164,1.577,2.549,2.515,6.476,2.574,10.772a32.337,32.337,0,0,1-2.622,13.265Zm-7.446-1.532h0c-16.7-3.036-32.948-3.29-48.156-3.29-2.152,0-4.345.006-6.466.012h-.521c-2.037.006-4.345.012-6.592.012-4.357,0-7.908-.025-11.174-.079a67.285,67.285,0,0,1-7.488-.376,7.7,7.7,0,0,1-4.146-1.557c-1.953-1.689-2.51-4.937-3.4-11.011-.8-5.454-1.394-11.031-1.967-16.424l0-.038c-.179-1.684-.364-3.425-.552-5.137-.02-.184.135-.386.511-.874.266-.345.628-.814,1.113-1.514,1.064,7.074,1.678,12.719,2.172,17.255.809,7.429,1.3,11.913,2.919,14.419,1.7,2.631,4.752,3.13,9.783,3.13,2.146,0,4.752-.1,7.77-.217l.1,0,2.282-.086c4.11-.151,9.12-.306,15.112-.306,4.43,0,8.806.082,13.378.25-.576-3.344-1.26-7.315-2.069-12.011l-.317-1.839c10.681-2.319,21.631-4.7,33.476-7.271l1.666,10.592.244,1.549c.756,4.8,1.517,9.644,2.33,14.813Zm-1.422-31.607h0c-11.42-.546-23.17-1.571-34.923-3.045-11.234-1.409-22.834-3.275-34.478-5.545a656.439,656.439,0,0,1-67.814-17.239v-.046q0-.369,0-.738a461.456,461.456,0,0,1,46.046,3.877c15.285,1.976,30.765,4.5,45.735,6.947,9.989,1.631,20.318,3.317,30.5,4.824,3.8.631,7.429,2.729,10.936,4.758,1.618.937,3.291,1.9,4.96,2.716q-.48,1.746-.962,3.49Z" transform="translate(4070.349 3393)" fill="url(#linear-gradient)"/>
</svg>
