<svg xmlns="http://www.w3.org/2000/svg" xmlns:xlink="http://www.w3.org/1999/xlink" width="1675" height="583" viewBox="0 0 1675 583">
  <defs>
    <linearGradient id="linear-gradient" x1="0.888" y1="0.448" x2="0.078" y2="0.445" gradientUnits="objectBoundingBox">
      <stop offset="0" stop-color="#8c8992"/>
      <stop offset="1" stop-color="#fff"/>
    </linearGradient>
  </defs>
  <path id="Вычитание_69" data-name="Вычитание 69" d="M-315-4030h-3.639c1.094-1.029,2.217-2.18,3.639-3.733V-4030Zm-166.036,0h-2.32c4.676-18.663,3.738-36.953-2.867-55.914,5.787,6.375,9.473,15.789,10.381,26.508a59.978,59.978,0,0,1-.655,15.281A50.8,50.8,0,0,1-481.036-4030Zm-19.212,0h-22.414a32,32,0,0,1-5.151-11.087,47.954,47.954,0,0,1-1.453-12.769,57.05,57.05,0,0,1,5.567-24.015,27.534,27.534,0,0,1,5.748-8,10.242,10.242,0,0,1,6.832-3.039,8.9,8.9,0,0,1,5.21,1.821,20.5,20.5,0,0,1,5.177,5.877c2.658,5.374,4.2,11.243,5.839,17.456.737,2.8,1.5,5.691,2.379,8.584-.879,2.863-1.653,5.793-2.4,8.627l0,.008A105.7,105.7,0,0,1-500.248-4030Zm-10.272-52.071a10.373,10.373,0,0,0-4,.911,35.091,35.091,0,0,1,8.753,10.59,32.674,32.674,0,0,1,3.487,11.48c.959,7.889-.453,16.353-1.819,24.539q-.181,1.084-.36,2.169c7.56-14.088,8.029-28.78,1.39-43.669C-504.85-4080.045-507.356-4082.071-510.52-4082.071Zm.848,14.356c-1.565,10.791-3.011,20.77-4.477,30.885a17.669,17.669,0,0,0,9.657-12.112,19.506,19.506,0,0,0-.261-9.256A25.843,25.843,0,0,0-509.672-4067.715Zm-10.511,2.784a16.823,16.823,0,0,0-4.384,4.868,9.807,9.807,0,0,0-1.366,5.136,9.4,9.4,0,0,0,1.505,4.776,15.1,15.1,0,0,0,4.245,4.277v-19.057ZM-658.2-4030H-1990v-583H-315v447.109a33.232,33.232,0,0,0-6.355-10.185,48.167,48.167,0,0,0-9.286-7.849c-6.948-4.626-15.34-8.276-23.455-11.806l-.009,0c-5.118-2.226-10.411-4.528-15.3-7.055l1.993.235,1.361.161,18.126,2.142c0-2.106.021-4.042.042-5.915v-.008c.042-3.826.079-7.13-.076-10.491-.533-11.555-.8-17.354-3.829-20.775-3.013-3.4-8.763-4.419-20.219-6.442l-.23-.041c-2.776-.489-7.273-1.818-7.522-3.3a21.025,21.025,0,0,0-2.5-7.431,18.2,18.2,0,0,0-4.364-5.076c-3.4-2.777-7.58-4.486-12-6.294-4.065-1.662-8.269-3.381-11.86-6.015a68.008,68.008,0,0,0-10.91-9.012,89.167,89.167,0,0,0-12.107-6.74c-8.384-3.9-17.464-6.853-26.244-9.7-6.1-1.98-12.4-4.026-18.439-6.38a53.544,53.544,0,0,1-8.749-4.693c-3.683-2.276-7.489-4.628-11.514-5.52-51.755-9.778-103.852-19.129-147.988-26.987a53.31,53.31,0,0,0-9.349-.924,28.113,28.113,0,0,0-16.691,4.976,9.928,9.928,0,0,0-1.016.591l-.006,0a4.546,4.546,0,0,1-2.486.948c-.1,0-.206,0-.308-.015-7.436,2.4-13.738,7.05-19.832,11.55a111.328,111.328,0,0,1-12.495,8.378c.1.013.2.023.291.033h.009c.088.009.2.021.321.037l-50.142,30.34-17.664,10.688-20.942,12.672-29.859,18.067c14.06-5.986,29.2-13.347,46.29-22.506,15.222-8.158,30.551-16.96,45.376-25.472l.025-.015c21.027-12.073,42.77-24.558,64.606-35.44a36.259,36.259,0,0,1,16.49-4.073,27.938,27.938,0,0,1,3.95.27c49.247,7.075,86.833,13.057,121.872,19.394,3.668.664,7.553.98,11.311,1.287h.014c5.642.461,11.476.937,16.863,2.585a31.348,31.348,0,0,1,7.754,3.5,28.525,28.525,0,0,1,6.884,6.154,237.121,237.121,0,0,1,26.3,7.4,237.311,237.311,0,0,1,40.965,18.674c-25.728-5.623-46.643-9.812-62.164-12.451-13.64-2.318-23.444-3.494-29.137-3.494a19.249,19.249,0,0,0-4.363.38l-.084.021a34.647,34.647,0,0,1-5.77.947c-.936.075-1.891.113-2.837.113a39.356,39.356,0,0,1-14.552-2.907c-3.175.056-6.277.129-9.013.194h-.008c-5.459.128-10.616.25-15.763.25-.838,0-1.681,0-2.505-.01l-.542,0c-12.17,0-15.692,3.525-15.7,15.714-.021,21.674-.016,43.711-.012,65.023v.19q0,13.239,0,26.475c-3.114-35.244-4.932-70.846-6.528-104.29-.237-4.97-1.079-8.28-2.65-10.417-1.7-2.31-4.3-3.386-8.2-3.386a28.969,28.969,0,0,0-3.989.31c-6.969.981-13.814,3.722-20.435,6.373-1.879.752-3.82,1.53-5.747,2.259a12.679,12.679,0,0,0-7.167,5.935c-1.291,2.451-1.864,5.527-1.8,9.68.333,23.243.281,46.881.23,69.741v.027c-.018,7.938-.038,16.936-.038,25.552l-.351.016-.092,0-.443.02-1.853-36.893-.24-4.774c-.957-19.056-1.93-38.428-2.941-58.549-1.14,1.429-2.216,2.806-3.256,4.137l-.054.07c-4,5.119-7.448,9.537-11.6,13.116a37.2,37.2,0,0,1-6.943,4.758,44.321,44.321,0,0,1-9.028,3.513c-14.288,4.566-28.643,9.753-42.525,14.77l-.04.014c-16.167,5.842-32.885,11.883-49.593,16.979,19.69-11.283,41.279-20.3,62.156-29.013,12.529-5.23,25.482-10.638,37.885-16.48a11.763,11.763,0,0,0,4.72-2.821,8.636,8.636,0,0,0,2.155-3.889c.77-2.884.4-6.243.009-9.8a53.079,53.079,0,0,1-.46-6.98l-34.548,14.227-12.825,5.282-25.427,10.471c17-10.658,39.576-24.389,63.422-36.078,4.966-2.435,7.868-5.28,9.134-8.957,1.095-3.18,1.025-6.984-.232-12.722l-70.277,36.613-17.826,9.287L-849.4-4220.46c-.026.5-.005,9.669.025,22.368.07,30.261.188,80.909-.183,82l3.063.992,4.934,1.6.088.848q.106,1.019.211,2.039a33.455,33.455,0,0,1-10.444,1.469c-3.21,0-6.492-.309-9.665-.607h-.008l-.03,0-.019,0c-3.18-.3-6.469-.608-9.735-.608a37.615,37.615,0,0,0-8.186.817,78.223,78.223,0,0,1-9.965,3.889l-.011,0c-5.708,1.969-12.178,4.2-17.05,7.209-5.638,3.479-8.058,7.353-7.4,11.843l38.434,8.537,5.606,1.245.3.066c69.222,15.377,140.8,31.279,211.236,46.755h.009Zm226.748-6.643h0v-38.348l36.1-2.611,13.192-.954,67.158-4.858v10.118c-18.943.805-38.337,2.6-57.092,4.333h-.007l-.031,0c-15.5,1.433-31.526,2.915-47.2,3.83a7.077,7.077,0,0,0-3.073,1.2,5.478,5.478,0,0,0-2.138,2.315,18.583,18.583,0,0,0-1.328,6.2,6.9,6.9,0,0,0,1.117,4.04c1.525,2.189,4.575,3.253,9.326,3.253a80.206,80.206,0,0,0,12.711-1.47h.005c.79-.135,1.607-.275,2.379-.4v-10.117c5.427-.527,10.943-1.064,16.276-1.584l.974-.095c22.321-2.176,45.4-4.425,68.085-6.49v16.491c-30.873,4.1-61.157,8.01-93.219,12.15l-.057.007-.1.012Q-419.868-4038.141-431.45-4036.644Zm-240.211-11.088h0c-3.546-1.084-6.31-3.646-8.215-7.616a30.359,30.359,0,0,1-2.513-8.958,54.862,54.862,0,0,1-.377-10.145,68.371,68.371,0,0,1,1.2-9.784,46.2,46.2,0,0,1,2.227-7.876c1.34-2.93,3.19-4.544,5.208-4.544a4.573,4.573,0,0,1,3.014,1.274,10.385,10.385,0,0,1,2.489,3.69,50.556,50.556,0,0,1,3.654,17.728,42.893,42.893,0,0,1-.845,9.006,45.689,45.689,0,0,1-2.88,9.092c-.585-5.039-.773-10.171-.955-15.133-.172-4.694-.35-9.548-.864-14.313-4.3,9.814-2.922,16.354-1.59,22.68,1,4.768,1.953,9.27.445,14.9Zm-29.681-5.524c-1.462,0-3.04-1.179-4.564-3.41a23.2,23.2,0,0,1-2.938-8.263,66.313,66.313,0,0,1-1.113-11.442c-.137-8.683,1.164-16.236,3.395-19.711,1.427-2.222,2.992-3.4,4.525-3.4,1.643,0,3.123,1.406,4.06,3.858,3,8.256,4.288,13.793,4.44,19.115a38.667,38.667,0,0,1-.829,9,66.67,66.67,0,0,1-3.12,10.284C-698.434-4054.627-699.767-4053.255-701.342-4053.255Zm45.327-.728h0v-35.483a35.407,35.407,0,0,1,4.157,16.474A45.7,45.7,0,0,1-656.015-4053.983Zm-159.334-23.92h0a14.908,14.908,0,0,1-6.237-10.907,20.815,20.815,0,0,1,1.031-8.979,24.207,24.207,0,0,1,5.207-8.665v28.552Zm-16.07-3.282h0a16.1,16.1,0,0,1-3.974-5.068,15.674,15.674,0,0,1-1.568-6.151,21.121,21.121,0,0,1,.9-7.011,33.286,33.286,0,0,1,3.43-7.649c3.043,4.464,4.57,8.771,4.67,13.167a25.447,25.447,0,0,1-3.457,12.711Zm294.778-1.35h0l-45.177-7.282q0-.662,0-1.327h46.039l-.111,1.11-.109,1.1c-.205,2.053-.394,3.942-.64,6.4Zm91.861-5.387h-.005c-1.211,0-2.639-3.223-3.682-5.576l-.031-.069c-.082-.185-.161-.363-.237-.533-1.111-2.48-2.045-5.09-2.948-7.613-.384-1.073-.78-2.182-1.186-3.267a47.783,47.783,0,0,1,14.728-2.3,46.107,46.107,0,0,1,10.541,1.2,38.032,38.032,0,0,1,9.346,3.485c5.945,3.2,10.076,7.76,11.948,13.173-2.867.133-5.746.277-8.53.416l-.347.017C-425.373-4088.484-435-4088-444.781-4087.922Zm58.77-.64c-2.918,0-5.086-.637-6.628-1.947-1.59-1.35-2.515-3.412-2.828-6.3-1.864-17.185-3.7-34.667-5.483-51.572l-.012-.117c-.777-7.388-1.479-14.052-2.19-20.78-.408-3.864.313-6.856,2.145-8.891a8.074,8.074,0,0,1,3.246-2.155,12.941,12.941,0,0,1,4.493-.724c.356,0,.725.011,1.1.033,18.072,1.051,37.45,2.5,60.985,4.553,4.133.361,7.345,1.876,9.546,4.5,2.079,2.481,3.209,5.885,3.358,10.118.39,11.029.715,22.245,1.03,33.092l0,.055c.291,10.036.592,20.413.944,30.637.09,2.609-.41,4.44-1.531,5.6s-2.888,1.715-5.533,1.715c-.153,0-.306,0-.453-.005-3.833-.086-7.969-.125-13.015-.125-3.09,0-6.211.015-9.23.029h-.093c-3,.014-6.092.028-9.137.028q0,.576,0,1.153,0,.479,0,.959h-.2c-2.857,0-5.759-.03-8.568-.058h-.146c-2.876-.029-5.851-.059-8.775-.059-4.656,0-8.47.077-12,.241C-385.333-4088.57-385.674-4088.562-386.011-4088.562Zm53.286-77.818c-.273,0-.554.007-.836.021,1.117,19.455,2.206,38.43,3.291,57.335l.554,9.643q1.055,1,2.112,2l.352.333a31.03,31.03,0,0,1,2.614-2.39c1.994-1.693,4.056-3.444,4.038-5.145-.157-16.483-.864-33.813-2.163-52.983a9.09,9.09,0,0,0-2.966-6.557A10.527,10.527,0,0,0-332.725-4166.38Zm-52.047-3.549a17.56,17.56,0,0,0-5.139.636,7.086,7.086,0,0,0-3.284,1.969c-1.551,1.712-2.1,4.3-1.716,8.131.913,9.207,2.013,18.536,3.077,27.558.969,8.215,1.971,16.71,2.828,25.086.641,6.252,3.18,9.041,8.231,9.041a27.165,27.165,0,0,0,7.071-1.188l-2.544-35.712-2.5-35.073a47.016,47.016,0,0,0-6.02-.448Zm13.625.4a21.567,21.567,0,0,0-4.048.4l4.853,71.007h17.58c.046-12.806-.9-25.415-1.823-37.608v-.007c-.482-6.4-.98-13.017-1.336-19.643a15.051,15.051,0,0,0-4.675-10.333A15.29,15.29,0,0,0-371.147-4169.532Zm29.6,1.2a8.409,8.409,0,0,0-1.957.26c-5.1,1.236-10,3.074-9.181,10.627,2.048,21.825,3.341,40.236,3,59.15h16.6c-.335-5.378-.666-10.775-.985-15.993l-.024-.4v-.019c-.953-15.564-1.852-30.266-2.91-45.223-.021-.3-.039-.605-.059-.947C-337.26-4164.193-337.5-4168.329-341.545-4168.329Zm-253.4,67.639c-.07,0-.137,0-.2-.008-7.682-.645-14.673-1.449-21.373-2.458-7.516-1.131-14.484-2.491-21.3-4.156h47.965l1.151,1.148.288.287.6.6a26.006,26.006,0,0,0-2.338,1.83l-.009.008C-591.771-4102.089-593.428-4100.69-594.943-4100.69Zm188.018-6.132A153.484,153.484,0,0,0-419.385-4125a90.6,90.6,0,0,0-14.742-14.713c-11.587-9.038-24.726-13.912-40.168-14.9a34.156,34.156,0,0,1,14.2-3,40.8,40.8,0,0,1,8.97,1.029,48.474,48.474,0,0,1,8.863,2.952,56.261,56.261,0,0,1,8.477,4.674,61.958,61.958,0,0,1,7.813,6.195,63.326,63.326,0,0,1,12.523,16.143,57.172,57.172,0,0,1,6.529,19.8Zm-308.634-1.847-36.674-1.977-45.641-2.459-.006-.262v-.041q-.017-.706-.033-1.412l34.643-1.466,12.21-.517,35.5-1.5v9.635Zm244.041-8.662c-10.949-10.963-19.964-15.852-29.229-15.853a27.669,27.669,0,0,0-8.614,1.425,40.017,40.017,0,0,0-9.234,4.539c3.841-10.456,10.565-16.213,18.932-16.213,5.5,0,11.34,2.558,16.447,7.2a39.371,39.371,0,0,1,6.827,8.242,45.536,45.536,0,0,1,4.873,10.656Zm-63.31-.556c-.042,0-.084,0-.126,0-26.647-1.125-53.726-2.612-79.914-4.05l-.086,0c-6.2-.34-13.391-.735-20.377-1.113l.066-2.338h106.619l1.166,1.31.823.925a29.407,29.407,0,0,0-2.651,2.1C-531.138-4119.5-533.032-4117.887-534.828-4117.887Zm-289.579-4.2h0q-.044-.513-.09-1.025l0-.029,166.9-16.1v10.739l-91.042,3.5-12.953.5-32.4,1.246Zm8.261-12.012h0q-.231-.709-.463-1.418l100.124-15.861,25.6-4.055,32.894-5.211v10.556Zm4.838-25.02v0h0l-.254-1.292-.054-.275,139.007-32.861,14.453-3.417v10.441l-37.135,6.646-30.855,5.521L-758.9-4168.5Zm400.473-4.331-48.962-15.871-25.665-8.319A137.541,137.541,0,0,1-446.839-4182a113.224,113.224,0,0,1,18.318,7.4,118.387,118.387,0,0,1,17.688,11.146Zm1.9-13.418h0l-60.87-24.609a94.108,94.108,0,0,1,24.543-3.169,113.248,113.248,0,0,1,16.11,1.2A147.059,147.059,0,0,1-411.8-4199.8a244.46,244.46,0,0,1,39.477,14.942c-3.493-.224-7.181-.432-10.49-.432a41.426,41.426,0,0,0-12.97,1.716,51.449,51.449,0,0,0-13.155,6.709Zm69.081-3.227h0a195.5,195.5,0,0,1-54.659-19.776,36.438,36.438,0,0,1,4.429-.257,60.143,60.143,0,0,1,12.655,1.5,89.726,89.726,0,0,1,13.637,4.169c9.541,3.745,18.043,8.846,23.938,14.363Zm-165.871-16.913h0a23.193,23.193,0,0,0-2.21-8.774,16.187,16.187,0,0,0-4.518-5.552c-3.61-2.864-8.317-4.314-12.869-5.716l-.007,0a66.527,66.527,0,0,1-8.2-2.923l0,.117.04,1.188q.039,1.169.078,2.338a63.45,63.45,0,0,1-6.771,6.968c-2.058,1.682-3.8,2.465-5.489,2.465-3.093,0-6.292-2.615-11.041-9.025a27.159,27.159,0,0,1-5.049-6.967,27.678,27.678,0,0,1-2.439-7.341c-.95-4.99-.737-10.221-.531-15.279a77.633,77.633,0,0,0-.208-13.187c-.592-4.476.022-7.681,1.878-9.8,1.815-2.072,4.806-3.079,9.143-3.079.478,0,.982.013,1.5.038,6.73.329,13.3.884,20.247,1.471,2.781.235,5.933.5,9.022.742-.259.7-.445,1.276-.581,1.7-.213.662-.33,1.025-.455,1.028-.968-.073-1.88-.111-2.709-.111-3.6,0-5.884.673-7.187,2.119-1.852,2.055-1.5,5.432-1.055,9.708a56.31,56.31,0,0,1,.43,8.242,42.457,42.457,0,0,0,.362,13.349,19.008,19.008,0,0,0,3.786,8.213c3.382,4.133,8.136,5.927,12.735,7.661,4.025,1.519,7.825,2.952,10.235,5.843a11.112,11.112,0,0,1,2.422,5.619A25.19,25.19,0,0,1-505.724-4197.006Zm-51.584-71.257q-.049.979-.1,1.957l-.009.192,6.9.729,3.187.337c0,3.055.05,6.07.1,8.986v.036c.111,6.683.216,13-.254,19.329-.3,4.053.438,7,2.258,9.011,1.742,1.924,4.465,3.063,8.569,3.587-.476-8.017-.945-15.9-1.42-23.9l-.145-2.442-1-16.84-6.439-.348-11.649-.631Zm192.868,63.229h0a24.429,24.429,0,0,0-1.548-2.043l-.009-.012c-1.19-1.463-2.42-2.975-2.5-4.52-.337-6.672-.287-13.356-.234-20.433v-.059c.02-2.644.04-5.378.04-8.167l8.646.608,2.771.195a27.91,27.91,0,0,0-4.276,12.028,75.855,75.855,0,0,0-.225,12.473c.1,2.808.205,5.711.107,8.624l-2.773,1.307Zm-10.714-.354v0l-.9-5.47c-1.672-10.124-3.346-20.263-5.04-30.519,2.3.105,4.38,1.554,6.009,4.186a21.339,21.339,0,0,1,2.462,6.263,36.688,36.688,0,0,1,.944,7.988,42.784,42.784,0,0,1-3.47,17.552Zm-9.85-2.027c-22.1-4.018-43.607-4.354-63.742-4.354-2.867,0-5.734.007-8.917.016h-.069c-2.951.009-6,.018-9.06.018-5.718,0-10.381-.033-14.674-.1a88.982,88.982,0,0,1-9.907-.5,10.193,10.193,0,0,1-5.485-2.06c-2.584-2.235-3.321-6.532-4.5-14.568-1.061-7.21-1.842-14.57-2.6-21.687-.239-2.255-.487-4.587-.741-6.889-.027-.244.179-.511.677-1.157.348-.451.824-1.069,1.472-2,1.406,9.351,2.22,16.823,2.874,22.827v.009c1.07,9.828,1.716,15.759,3.862,19.074a7.8,7.8,0,0,0,4.6,3.312,30.093,30.093,0,0,0,8.346.827c2.838,0,6.287-.133,10.28-.287l.1,0q1.465-.056,3.047-.115c5.445-.2,12.081-.406,20.019-.406,5.852,0,11.634.108,17.675.33-.46-2.674-.973-5.651-1.543-8.959l-.337-1.957q-.6-3.469-1.276-7.406l44.289-9.62,2.375,15.094c1.05,6.676,2.105,13.382,3.235,20.566Zm-1.882-41.818c-15.111-.723-30.656-2.078-46.2-4.028-14.864-1.865-30.212-4.333-45.616-7.337-14.623-2.852-29.794-6.283-45.091-10.2-14.38-3.681-29.4-7.923-44.629-12.61q0-.211,0-.422,0-.308,0-.614a610.826,610.826,0,0,1,60.917,5.129c20.239,2.616,40.709,5.958,60.506,9.191h.009c13.22,2.158,26.889,4.39,40.345,6.382,5.032.835,9.829,3.611,14.468,6.3l.012.007c2.137,1.236,4.347,2.515,6.551,3.587l-.542,1.966-.1.365-.63,2.285Z" transform="translate(1990 4613)" fill="url(#linear-gradient)"/>
</svg>
