<svg xmlns="http://www.w3.org/2000/svg" xmlns:xlink="http://www.w3.org/1999/xlink" width="1051.001" height="677.319" viewBox="0 0 1051.001 677.319">
  <defs>
    <linearGradient id="linear-gradient" x1="0.888" y1="0.448" x2="0.078" y2="0.445" gradientUnits="objectBoundingBox">
      <stop offset="0" stop-color="#8c8992"/>
      <stop offset="1" stop-color="#fff"/>
    </linearGradient>
  </defs>
  <path id="Объединение_21" data-name="Объединение 21" d="M-6268-2715.682v-598h16.53a9.215,9.215,0,0,1-1.565-5.273,9.174,9.174,0,0,1,9.11-9.106,9.156,9.156,0,0,1,9.135,9.3,9.127,9.127,0,0,1-1.574,5.081h6.011a9.129,9.129,0,0,1-1.6-5.248,9.246,9.246,0,0,1,9.1-9.13,9.156,9.156,0,0,1,9.162,9.265,9.138,9.138,0,0,1-1.568,5.113h93.229a9.3,9.3,0,0,1-1.666-5.325,9.438,9.438,0,0,1,9.418-9.556,9.446,9.446,0,0,1,9.479,9.5,9.42,9.42,0,0,1-1.652,5.385H-5217v598Zm19.895-603.1a4.123,4.123,0,0,0,4.31,4.159,4.259,4.259,0,0,0,4.137-4.383,4.324,4.324,0,0,0-4.249-4.077h-.01A4.211,4.211,0,0,0-6248.106-3318.784Zm21.125-.031a4.073,4.073,0,0,0,4.224,4.184,4.23,4.23,0,0,0,4.241-4.224,4.33,4.33,0,0,0-4.244-4.229h-.032A4.167,4.167,0,0,0-6226.981-3318.815Zm108.345-.3a4.292,4.292,0,0,0,4.312,4.408,4.408,4.408,0,0,0,4.455-4.3,4.506,4.506,0,0,0-4.345-4.463h-.032A4.452,4.452,0,0,0-6118.637-3319.113Zm-125.815,2.923c-.582-.9-1.7-1.859-1.6-2.668.105-.826,1.406-1.5,2.184-2.24.738.775,1.983,1.5,2.064,2.339.077.807-1.054,1.727-1.653,2.6Zm21.729-.48a3.35,3.35,0,0,1-2.215-2.139,1.778,1.778,0,0,1,2.083-2.206c.938.134,1.763,1.031,2.639,1.586l.021,1.056c-.818.6-1.7,1.708-2.444,1.708A.5.5,0,0,1-6222.723-3316.669Zm106.24-2.511a3.242,3.242,0,0,1,2.195-2.1c.892-.027,1.82,1.095,2.732,1.716q-.007.519-.011,1.038c-.92.6-1.792,1.578-2.773,1.705a2.414,2.414,0,0,1-.3.019A1.851,1.851,0,0,1-6116.483-3319.18Zm-73.24.2c-3.6,0-4.073-.486-4.134-4.063-.009-.59-.058-1.18-.113-2.231h-7.942c-.3,0-.605.006-.908.016a13.7,13.7,0,0,1-2.216-.063,2.5,2.5,0,0,1-1.614-1.328c4.154-1.035,8.345-.455,12.4-.8,1.12-3.952,1.12-3.948,5.166-3.948q47.819,0,95.639,0c3.68,0,4.128.44,4.147,4.092q.014,2.8-.013,5.588c-.016,1.444-.639,2.61-2.147,2.649-4.076.105-8.156.036-12.295.036-1.715-6.784-5.119-10.1-10.237-10.256-5.243-.159-8.658,3.019-10.79,10.181-.879.041-1.826.124-2.774.123q-22.119-.007-44.238-.031c-5.954,0-11.907.03-17.859.039Zm-50.083-13.875,2.313-.189v3.884l-2.312.2Zm-14.853,3.763v-3.857h13.5v3.857Zm22.6-.044v-3.767h25.432v3.767Zm-4.008-.017v-3.81c.872.041,1.6.077,2.526.121l-.164,3.689Zm55.691-3.148c-.062-1.1-.157-2.045-.159-2.986-.01-15.273.145-30.547-.1-45.817a15.926,15.926,0,0,1,3.916-10.648c21.277-1.5,49.259,10.052,53.042,22.177h-24.8v37.274Zm13.232-2.124h16.9v-10.047l-5.182,7.411h-11.72Zm-10.41-28.65c-.011,1.93-.025,3.864.006,5.8a2.1,2.1,0,0,0,2.381,2.308c1.035-.006,2.07-.006,3.107-.006q1.01,0,2.02,0,2.676,0,5.35,0a1.982,1.982,0,0,0,2.225-2.2q.037-3.119-.006-6.242c-.021-1.578-.919-2.235-2.44-2.229-3.343.014-6.687.023-10.03-.006h-.049A2.267,2.267,0,0,0-6177.549-3363.073Zm.536-20.049a20.848,20.848,0,0,0-.174,9.46c.105.5,1.266,1.07,1.955,1.092,3.5.109,7,.066,10.5.038a2.021,2.021,0,0,0,2.271-2.188,48.826,48.826,0,0,0-.083-6.25c-.094-.776-1.107-2.028-1.748-2.058-2.054-.094-4.112-.118-6.231-.118C-6172.605-3383.146-6174.752-3383.122-6177.013-3383.122Zm-14.722,50.821-.783-1.584h-61.958l-.522-2.747h62.826v-55.148c4.833-1.852,9.459-1.361,14.6-.088a32.958,32.958,0,0,0-2.238,3.963,14.573,14.573,0,0,0-1.386,5c-.105,15.877-.065,31.752-.066,47.629v2.976Zm45.345-.011v-35.513h21.924c1.719,4.194,3.492,8.513,5.331,13,5.073,1.576,10.192,3.134,15.289,4.755,11.088,3.528,8.687,3.2,10.738,12.124.41,1.782.679,3.6,1.057,5.635Zm47.429-2.187h4.969c-.321-1.62-.59-2.981-.887-4.482-2.18-.777-4.282-1.526-6.844-2.437C-6100.646-3338.719-6099.8-3336.6-6098.961-3334.5Zm-42.808-2.312h7.562v-3.126h-7.562Zm.019-26.868v13.267h22.881c-1.924-4.689-3.712-9.052-5.646-13.766-2.319.148-4.615.1-6.9.046-1.158-.025-2.312-.051-3.467-.051A39.529,39.529,0,0,0-6141.75-3363.679Zm.984,25.306c1.59-1.756,3.358-.947,5.691-.818-.613.9-.9,1.765-1.29,1.82a13.872,13.872,0,0,1-1.944.241A2.879,2.879,0,0,1-6140.765-3338.373ZM-6176-3356.448v-7.518a37.078,37.078,0,0,1,12.133.053v7.214a27.388,27.388,0,0,1-5.674.526C-6171.649-3356.172-6173.78-3356.33-6176-3356.448Zm.057-17.628v-7.5h12.026v7.5Z" transform="translate(6268 3393)" fill="url(#linear-gradient)"/>
</svg>
