<svg xmlns="http://www.w3.org/2000/svg" width="25.486" height="34.795" viewBox="0 0 25.486 34.795">
  <g id="Сгруппировать_804" data-name="Сгруппировать 804" transform="translate(-407 -155)">
    <path id="Контур_161" data-name="Контур 161" d="M5.082-22.74a12.511,12.511,0,0,1-1.711-6.381A12.487,12.487,0,0,1,5.082-35.5a12.74,12.74,0,0,1,4.643-4.669A12.375,12.375,0,0,1,16.1-41.888a12.466,12.466,0,0,1,6.389,1.716,12.694,12.694,0,0,1,4.654,4.656,12.491,12.491,0,0,1,1.711,6.4,12.366,12.366,0,0,1-1.017,4.946A12.941,12.941,0,0,1,25.111-20.1a12.926,12.926,0,0,1-4.068,2.731A12.335,12.335,0,0,1,16.1-16.354,12.4,12.4,0,0,1,9.724-18.07,12.7,12.7,0,0,1,5.082-22.74ZM4.639-7.093v-5.743H27.277v5.743Zm6.461-27a6.757,6.757,0,0,0-2.058,4.976A6.757,6.757,0,0,0,11.1-24.145a6.826,6.826,0,0,0,5,2.048,6.826,6.826,0,0,0,5-2.048,6.757,6.757,0,0,0,2.058-4.976A6.757,6.757,0,0,0,21.1-34.1a6.826,6.826,0,0,0-5-2.048A6.826,6.826,0,0,0,11.1-34.1Z" transform="translate(403.629 196.888)" fill="#ffef84"/>
    <circle id="Эллипс_10" data-name="Эллипс 10" cx="6.5" cy="6.5" r="6.5" transform="translate(413.2 161.3)" fill="#ffef84"/>
  </g>
</svg>
