<svg xmlns="http://www.w3.org/2000/svg" width="340" height="223.413" viewBox="0 0 340 223.413">
  <g id="Сгруппировать_14" data-name="Сгруппировать 14" transform="translate(1340.159 164.997)" opacity="0.1">
    <path id="Контур_1" data-name="Контур 1" d="M-1310.372-162.051a27.2,27.2,0,0,0-4.685.045c-3.586.636-7.145,1.447-10.683,2.316-1.191.293-1.819.15-2.133-1.1-.256-1.017-.665-2-1.067-3.169h23.241a6.831,6.831,0,0,0,.616,1.623c.912,1.294.426,2.113-.664,3-4.145,3.382-8.992,5.238-14.057,6.653-1.18.33-2.362.653-3.543.98l-.076.5a11.844,11.844,0,0,0,1.967.894c2.552.648,5.129,1.2,7.688,1.826.716.174,1.4.485,2.108.687a2.068,2.068,0,0,1,1.744,2.358,15.362,15.362,0,0,0,.883,4.176c.678,2.4.309,3.321-1.87,4.7q-4.386,2.776-8.706,5.658c-.879.587-1.632,1.36-2.458,2.028a.978.978,0,0,0-.124,1.634c.719.84,1.377,1.735,2.025,2.633.535.74,1.01.748,1.462-.042.5-.882.937-1.808,1.484-2.662,1.186-1.849,2.7-3,5.094-2.369a15.353,15.353,0,0,0,3.555.537c1.261.024,1.649.664,1.86,1.742a29.987,29.987,0,0,1-.072,9.653c-1.044,8.228-4.471,15.584-8.215,22.832-.785,1.519-1.553,3.049-2.409,4.527a3.1,3.1,0,0,0,.066,3.533,15.471,15.471,0,0,0,3.353,3.8,91.794,91.794,0,0,0,10.089,6.292c2.272,1.187,3.659,2.373,3.042,5.131-.279,1.246.032,2.642-.338,3.842a4.059,4.059,0,0,1-1.893,2.139c-1.924.99-3.992,1.7-5.988,2.551-2.843,1.217-5.738,2.337-8.483,3.747a19.28,19.28,0,0,0-4.042,3.111c-1.422,1.309-1.308,1.786.441,2.532,4.889,2.085,9.807,4.1,14.686,6.208,2.119.915,4.163,2,6.252,2.987a1.242,1.242,0,0,1,.781,1.757c-.408,1.223-.653,2.5-1.008,3.741a1.95,1.95,0,0,1-1.812,1.44q-5.616.863-11.208,1.879a9.825,9.825,0,0,0-2.066.89,10.174,10.174,0,0,0,1.3,1.7c3.006,2.6,6.058,5.144,9.091,7.711.281.239.515.538.809.758,3.444,2.573,3.886,5.982,3.265,10a9.48,9.48,0,0,1-4.149,6.852c-2.961,2.108-5.588,4.686-8.343,7.08a14.287,14.287,0,0,0-1.217,1.46c1.6.277,2.848.447,4.079.717,3.419.751,6.827,1.559,10.246,2.313a1.644,1.644,0,0,1,1.413,1.615c.142,1.469.277,2.939.417,4.408a1.451,1.451,0,0,1-1.1,1.69c-1.984.613-3.972,1.211-5.958,1.817a69.54,69.54,0,0,0-15.29,6.8c-1.634.971-1.646,1.312-.117,2.542,3.483,2.8,7.567,4.4,11.722,5.86,1.463.513,2.933,1.009,4.782,1.645-2.086,1.345-3.82,2.542-5.645,3.578a2.23,2.23,0,0,1-1.708-.194c-3.039-1.448-6.078-2.9-9.041-4.5-1.034-.557-1.733-.887-2.569.236a2.047,2.047,0,0,1-2.766.457,3.333,3.333,0,0,1-1.367-1.847,1.979,1.979,0,0,1,1.259-2.49c1.105-.415,1.244-1.142,1.248-2.156.008-2.029.076-4.062.252-6.082a2.173,2.173,0,0,1,.946-1.347A71.832,71.832,0,0,1-1309.4,8.792c.448-.169.864-.425,1.687-.836a20.038,20.038,0,0,0-2.087-.831q-3.943-1.013-7.907-1.946a6.057,6.057,0,0,0-1.377-.051,1.961,1.961,0,0,1-2.114-1.79,1.889,1.889,0,0,1,1.351-2.4c1.413-.365,1.733-1.13,1.336-2.456a2.637,2.637,0,0,1,1.081-3.045c4.482-3.41,8.937-6.857,13.443-10.235,1.729-1.3,1.916-1.542.274-2.994-2.729-2.412-5.6-4.664-8.459-6.926-1.485-1.175-3.069-2.223-4.6-3.335a4.331,4.331,0,0,1-1.811-5.091c.6-2.127,1.068-4.29,1.727-6.4a2.158,2.158,0,0,1,1.315-1.053c1.668-.54,3.38-.943,5.07-1.419a13.372,13.372,0,0,0,1.353-.594,12.6,12.6,0,0,0-1.945-1.168c-2.917-1.034-5.88-1.942-8.777-3.026a16.3,16.3,0,0,1-3.913-2.025c-2.329-1.707-2.7-4.172-2.138-6.841a12.008,12.008,0,0,1,6.282-8.4c3.657-1.953,7.534-3.494,11.315-5.214.8-.364,1.611-.7,2.4-1.089,1.178-.579,1.187-.939.068-1.685-2.806-1.871-5.565-3.817-8.433-5.587a11.789,11.789,0,0,1-5.586-9.095c-.232-1.785-.435-3.58-.5-5.376a5.123,5.123,0,0,1,.572-2.1c3.089-7.084,5.966-14.243,7.4-21.88.433-2.311.666-4.661.958-7a6.559,6.559,0,0,0-.089-1.292l-.365-.089a6.9,6.9,0,0,0-.643,1.083c-1.6,4.275-3.212,8.543-4.72,12.849-.373,1.065-.669,1.71-1.981,1.362a16.346,16.346,0,0,0-3.157-.394c-1.226-.077-1.484-.663-1.363-1.824.307-2.937.6-5.885.674-8.834.1-4.09-.843-7.89-4.006-11.012,4.027-4.2,8.873-7.228,13.908-10.624a14.187,14.187,0,0,0-1.647-.643c-4.077-.933-8.08-2.048-11.455-4.681-.906-.707-1.753-1.5-2.591-2.285-1.659-1.562-1.547-3.572-1.238-5.56.049-.315.764-.657,1.221-.757,4.324-.942,8.685-1.726,12.975-2.8a23.151,23.151,0,0,0,4.615-2.189,6.248,6.248,0,0,0,1.011-.808Z" transform="translate(-7.135 -0.752)"/>
    <path id="Контур_2" data-name="Контур 2" d="M-608.177-164.21h5.23a10.823,10.823,0,0,1-.3,1.392,1.46,1.46,0,0,0,.924,2.09,2.357,2.357,0,0,1,1.577,2.769,2.5,2.5,0,0,1-2.722,2.077,1.179,1.179,0,0,0-1.343,1.229c-.89,8.689-.279,17.117,3.842,25.066a11.448,11.448,0,0,0,6.085,5.349,2.118,2.118,0,0,0,1.444-.037q7.494-2.9,14.955-5.885a10.386,10.386,0,0,0,2.082-1.083c1.532-1.066,1.5-1.812-.219-2.672-2.683-1.34-5.43-2.554-8.156-3.807-.545-.25-1.122-.428-1.679-.652-2.568-1.031-2.571-1.033-2.071-3.749.142-.772.337-1.534.464-2.308.328-2.008.581-2.284,2.687-2.322,2.167-.039,4.339.095,6.5.024,3.125-.1,6.255-.231,9.367-.517,2.386-.219,4.754-.668,7.121-1.071,1.751-.3,1.951-.815,1-2.3a35.363,35.363,0,0,0-9.787-9.682c-1.762-1.248-3.554-2.453-5.551-3.827h10.978c.557.615,1.03,1.212,1.578,1.729a25.034,25.034,0,0,1,6.305,8.512,3.962,3.962,0,0,1,.128,2.243,32.294,32.294,0,0,1-1.318,4.369,6.123,6.123,0,0,1-5.015,4.283c-4.293.585-8.6,1.03-12.908,1.539-.519.061-1.034.153-1.552.23l-.107.37a8.949,8.949,0,0,0,1.089.825c1.337.733,2.742,1.353,4.024,2.169a2.45,2.45,0,0,1,1.059,1.59c.147,1.837.089,3.692.094,5.54.009,3.006-1.635,4.784-4.33,5.759-2.433.881-4.876,1.735-7.3,2.632a10.056,10.056,0,0,0-1.375.761q.017.217.034.434c1.1.215,2.187.452,3.287.64a5.269,5.269,0,0,0,5.239-1.767c3.858-4.1,8.977-5.894,14.432-6.738,2.05-.317,4.138-.378,6.2-.61a1.248,1.248,0,0,1,1.583,1.076c.439,1.6,1.1,3.14,1.509,4.746.468,1.845-.108,2.972-1.773,3.916a29.728,29.728,0,0,1-12.288,3.567c-1.61.14-3.23.165-4.844.259a8.62,8.62,0,0,0-1,.174l-.106.441a11.656,11.656,0,0,0,2.552,1.021c3.652.54,7.322.962,10.987,1.415,1.514.187,3.029.373,4.548.5.852.07,1.714.012,2.579.012-.106-2.211.285-2.79,1.871-2.93,1.325-.117,2.226.482,2.36,1.568.176,1.429-.409,2.059-2.466,2.4a7.2,7.2,0,0,0,.786,2.067c1.63,2,3.406,3.884,5.053,5.873a8.657,8.657,0,0,1,1.382,2.39c.3.774.616.886,1.169.361a30.347,30.347,0,0,0,2.735-2.753,3.747,3.747,0,0,1,4.371-1.2,23.906,23.906,0,0,1,4.507,2.072,2.165,2.165,0,0,1,.666,1.635,32.892,32.892,0,0,1-5.3,17.981,148.941,148.941,0,0,1-9.056,12.41,38.049,38.049,0,0,0-6.843,12.107c-.093.3-.235.581-.487,1.193-1.277-1.208-2.492-2.23-3.517-3.416-.257-.3-.065-1.2.191-1.689a107.879,107.879,0,0,1,5.343-9.67c3.028-4.528,6.505-8.754,9.594-13.244a24.7,24.7,0,0,0,4.554-12.489,6.826,6.826,0,0,0,.008-.823c0-.074-.1-.143-.3-.388a10.8,10.8,0,0,0-1.2.916c-3.283,3.3-5.45,7.331-7.387,11.486-.551,1.182-1.055,1.336-2.188.809-2.787-1.3-2.811-1.248-1.973-4.209a46.868,46.868,0,0,0,1.606-13.717,1.917,1.917,0,0,0-1.352-1.861A28.947,28.947,0,0,0-558-107.7c-3.817-.34-7.657-.563-11.432-1.179a11.074,11.074,0,0,1-8.781-6.678,2.984,2.984,0,0,0-1.736-1.346c-3.314-1-6.665-1.872-10-2.784a4.558,4.558,0,0,0-3.577,1.417c-.47.883.29,1.113.822,1.439,3.349,2.052,6.765,4,10.039,6.169a46.248,46.248,0,0,1,11.6,10.429c3.09,4.067,4.934,8.547,4.513,13.763a10.769,10.769,0,0,1-.268,1.636c-.439,1.827-.968,3.635-1.337,5.475a4.292,4.292,0,0,1-2.388,3.339c-2.746,1.319-5.467,2.69-8.217,4a1.716,1.716,0,0,1-1.152.059c-.122-.037-.1-.637-.091-.978.01-.412.1-.822.112-1.234.042-2.185,1.255-3.264,3.237-4.024a31.352,31.352,0,0,0,6.263-3.193c2.6-1.75,2.95-3.362,1.99-6.349A23.1,23.1,0,0,0-576.319-98.9c-4.42-3.479-9.151-6.563-13.747-9.819-1.7-1.2-3.4-2.4-5.08-3.611a3.375,3.375,0,0,1-1.387-3.522q.484-3.262.787-6.549c.028-.293-.366-.726-.673-.933-8.454-5.69-11.908-14.05-12.749-23.8A59.97,59.97,0,0,1-608.177-164.21Z" transform="translate(-527.826 -0.568)"/>
    <path id="Контур_3" data-name="Контур 3" d="M-1054.595-164.038H-1050c1.182,12.338-2.515,22.843-11.447,31.418-1.132,1.086-2.328,2.114-3.56,3.085-1.7,1.343-1.759,3.279-1.848,5.135-.072,1.5.347,3.018.255,4.511a3.247,3.247,0,0,1-1.171,2.188,26.53,26.53,0,0,1-4.561,2.557c-8.075,3.6-15.33,8.343-21.2,15.023-.908,1.033-1.56,2.288-2.377,3.406-1.369,1.872-1.138,4.041-1.126,6.146a1.8,1.8,0,0,0,.928,1.223c4.41,2.238,8.835,4.448,13.305,6.561a2.446,2.446,0,0,0,1.949-.318c1.851-1.156,3.541-1.01,4.577.691a2.729,2.729,0,0,1,.335,1.926,1.517,1.517,0,0,0,.9,2q8.134,4.772,16.222,9.62c1.733,1.038,1.713,1.086.937,2.9-.4.922-.818,1.833-1.289,2.885-.576-.31-1.022-.523-1.442-.779-10.9-6.648-21.978-12.967-33.44-18.6a5.806,5.806,0,0,1-2.959-3.974c-.694-2.385-1.408-4.764-2.128-7.142a8.539,8.539,0,0,1,.659-6.589,37.421,37.421,0,0,1,9.6-11.362c5.465-4.59,11.686-7.929,18.073-11.01a7.149,7.149,0,0,0,1.548-1.449,25.955,25.955,0,0,0-2.807-1.451c-.339-.131-.859.267-1.31.36-3.205.667-6.406,1.364-9.628,1.942a1.906,1.906,0,0,0-1.7,1.121,8.718,8.718,0,0,1-7.146,5.292c-4.536.511-9.132.465-13.687.841-3.35.277-6.677.845-10.013,1.29a1.8,1.8,0,0,0-1.792,2.259c.587,4.758,1.069,9.531,1.753,14.275.177,1.229-.189,1.71-1.213,2.028-3.57,1.11-3.763,1.009-5.484-2.327-1.375-2.665-2.8-5.305-4.24-7.936a4.869,4.869,0,0,0-1.194-1.509,1.747,1.747,0,0,0-1.445-.377,1.6,1.6,0,0,0-.506,1.392c.414,2.173.969,4.318,1.439,6.481.212.975.371,1.963.5,2.953a8.192,8.192,0,0,0,2.2,4.8,5.056,5.056,0,0,1,.573.592c.643.94,1.264,1.9,1.969,2.961a2.584,2.584,0,0,1-4.258,0c-1.091-1.779-1.812-3.783-2.882-5.578-1.865-3.127-1.726-6.853-3.3-10.134-1.07-2.232-.827-5.107-1.067-7.7-.029-.315.533-.826.93-1.011,1-.467,2.056-.812,3.1-1.184a4.773,4.773,0,0,1,5.632,1.459c.6.7,1.088,1.491,1.627,2.24,1.066,1.481,1.637,1.464,2.695.014s2.154-2.89,3.28-4.295c3.319-4.139,7.865-5.587,12.949-5.91,3.6-.228,7.185-.548,10.773-.866a21.773,21.773,0,0,0,2.348-.46q0-.257,0-.514c-.782-.145-1.563-.3-2.347-.434a31.327,31.327,0,0,1-14.554-6.083,2.273,2.273,0,0,1-.914-2.753,46.556,46.556,0,0,0,1.224-4.548c.29-1.492,1.166-1.833,2.541-1.922,6.264-.4,11.454,2,16.081,5.957,1.762,1.505,3.493,3.04,4.307,5.327a1.571,1.571,0,0,0,.73.775c1.1.553,6.736.026,8.2-.831a12.854,12.854,0,0,0-1.443-.991q-4.652-2.322-9.33-4.593a3.429,3.429,0,0,1-2.016-3.734,48.952,48.952,0,0,0,.3-5.921c-.066-1.677.889-2.535,2.026-3.342.6-.423,1.317-.665,1.942-1.052a4.384,4.384,0,0,0,.765-.788c-.373-.271-.719-.724-1.123-.783-2.33-.338-4.723-.375-7-.915a55.815,55.815,0,0,1-7.152-2.472,2.144,2.144,0,0,1-1.136-1.287c-.642-2.594-1.265-5.2-1.661-7.842-.13-.869.437-1.843.7-2.831h7.287c-1.108,1.2-2.258,2.292-3.226,3.526-2.879,3.673-2.1,3.24,1.208,3.99a149.246,149.246,0,0,0,21.538,2.875c1.118.087,1.529.464,1.646,1.538.152,1.4.5,2.774.714,4.167a2.318,2.318,0,0,1-1.8,2.971c-1.776.607-3.626,1-5.382,1.655-2.057.766-4.076,1.653-6.053,2.607-.989.477-.874,1.342.276,1.942,3.972,2.074,7.977,4.085,11.962,6.135,1.438.74,2.9,1.447,4.263,2.311a2.445,2.445,0,0,0,2.6.081,16.262,16.262,0,0,0,7.509-7.322,34.358,34.358,0,0,0,3.887-15.727C-1054.529-156.842-1054.595-160.43-1054.595-164.038Zm-35.449,36.532c-2.952-3.727-12.218-6.8-15.689-5.828C-1104.561-130.928-1093.686-126.8-1090.044-127.506Z" transform="translate(-148.54 -0.692)"/>
    <path id="Контур_4" data-name="Контур 4" d="M-248.184-26.925a6.86,6.86,0,0,0,.862.592A54.954,54.954,0,0,0-229.563-21.2c1.742.206,2.869-.288,3.42-1.977a3.219,3.219,0,0,1,.359-.593c1.142,2.221.31,5.522-1.672,6.692a2.751,2.751,0,0,1-1.444.359c-8.578-.393-16.3-3.446-23.613-7.71a1.579,1.579,0,0,1-.586-1.321c.387-2.133.828-4.263,1.425-6.345a2.246,2.246,0,0,1,1.454-1.215,27.116,27.116,0,0,1,4.24-.612c1.637-.13,1.811-.347,1.351-1.969-.654-2.308-1.352-4.608-1.884-6.945a11.319,11.319,0,0,1,1.268-8.568c2.347-3.924,4.8-7.784,7.154-11.7a34.57,34.57,0,0,0,1.832-3.7,4.123,4.123,0,0,0,.137-1.256l-.366-.2a17.946,17.946,0,0,0-1.287,1.254c-2.848,3.365-5.829,6.616-9.715,8.79a38.569,38.569,0,0,1-5.875,2.386,2.421,2.421,0,0,1-2.86-.793c-1.224-1.44-2.581-2.768-3.8-4.213a1.327,1.327,0,0,1-.026-1.283c4.589-4.9,9.506-9.383,16.194-11.205,1.467-.4,3.1-.15,4.648-.315.54-.057,1.329-.324,1.52-.725,3.31-6.948,6.263-14.028,6.87-21.819a30.328,30.328,0,0,0-.84-9.9c-.3-1.186-.8-1.467-1.975-.988-5.061,2.069-9.007,5.593-12.572,9.586-1.937,2.169-3.75,4.455-5.51,6.771-.779,1.025-1.352,1.093-2.335.3-1.207-.98-2.55-1.792-3.956-2.761,1.25-1.5,2.436-2.9,3.6-4.312a32.736,32.736,0,0,0,6.4-10.939,11.575,11.575,0,0,0-.132-8.074,50.393,50.393,0,0,1-3.609-19.77,40.246,40.246,0,0,1,3.673-15.675c1-2.224,1.041-2.564-.777-4.031a4.891,4.891,0,0,1-1.911-4.6c.1-1.194.142-2.393.215-3.674h5.6l-1.4,6.688.642.256,4.226-6.919h7.083l-5.395,6.653c1.975-.048,7.08-4.675,7.835-6.783h7.182A14.728,14.728,0,0,1-228.842-159c-2.228,1.939-4.6,3.721-6.945,5.517a11.209,11.209,0,0,1-6.834,2.342,1.718,1.718,0,0,0-1.735,1.065,49.338,49.338,0,0,0-5.41,19.341,41.336,41.336,0,0,0,.908,10.714,5.951,5.951,0,0,0,1.956,3.389c1.86,1.664,3.626,3.451,4.248,6.022.594,2.454.549,2.321,2.831,1.285a27.474,27.474,0,0,1,5.256-1.586,2.581,2.581,0,0,1,1.785.512,26.691,26.691,0,0,1,4.567,3.577,7.553,7.553,0,0,1,1.682,3.806c1.365,9.195-1.191,17.658-5.114,25.827-1,2.081-2.044,4.144-3.147,6.172a1.512,1.512,0,0,0,.255,1.94,17.2,17.2,0,0,1,2.355,3.987A5.084,5.084,0,0,1-233-60.236c-2.4,3.507-4.8,7.02-7.075,10.611a24.645,24.645,0,0,0-3.648,9.658,2.287,2.287,0,0,0,.9,2.416,37.575,37.575,0,0,0,12.257,6.3c1.333.4,1.6.918,1.169,2.146-1.48,4.247-.524,3.538-4.615,2.614-3.609-.816-7.2-1.723-10.944-1.472a28.539,28.539,0,0,0-3.237.581Z" transform="translate(-780.037 -0.451)"/>
    <path id="Контур_5" data-name="Контур 5" d="M-709.716-164.134c.119.085.61.291.595.448a41.46,41.46,0,0,1-.795,6.2c-.422,1.655-1.954,2.466-3.52,3.087a2.19,2.19,0,0,0-1.112,1.132c-.428,1.121-.922,1.339-2.113.967a4.809,4.809,0,0,0-2.169-.138c-3.177.545-6.339,1.176-9.507,1.777-.162.031-.322.073-.746.171a24.952,24.952,0,0,0,2.093,1.647c3.166,1.965,4.439,4.837,4.44,8.5,0,2.249.374,4.5.5,6.748.052.921.417,1.254,1.3,1.118a6.607,6.607,0,0,1,.966-.087c1.226-.005,2.872-.489,3.587.118a13.412,13.412,0,0,1,3.118,4.476,3.47,3.47,0,0,1-.494,2.679,20.757,20.757,0,0,1-6.946,6.637c-3.946,2.555-8.03,4.908-12.135,7.205-1.944,1.088-2.888.731-4.288-.971-1.235-1.5-2.6-2.943-1.955-5.154.11-.376.223-.75.441-1.485.579.741.952,1.22,1.327,1.7.673.856,1.415,1.442,2.607.931a56.907,56.907,0,0,0,14.811-9.111,3.463,3.463,0,0,0,.405-.5l-.17-.387a39.681,39.681,0,0,0-4.733,1.53c-2.93,1.352-5.8,2.843-8.635,4.387-1.148.625-1.783.568-2.4-.663a12.075,12.075,0,0,0-1.923-2.7c-.815-.889-.524-1.289.338-1.915,3.132-2.274,6.247-4.579,9.256-7.011a17.7,17.7,0,0,0,2.777-3.259c1.111-1.48,1.023-2.174-.352-3.414q-4.008-3.614-8.058-7.181a2.923,2.923,0,0,1-1.106-3.413c.517-1.574.874-3.2,1.283-4.809a2.022,2.022,0,0,1,2.088-1.619c4.733-.423,9.5-.785,13.994-2.462a35.042,35.042,0,0,0,5.755-2.963C-710.585-162.291-710.311-163.206-709.716-164.134Z" transform="translate(-434.162 -0.623)"/>
    <path id="Контур_6" data-name="Контур 6" d="M-1202.7-164.869h1.444a29.661,29.661,0,0,0,4.569-.037c2.895-.454,4.852.851,6.477,2.983a28.66,28.66,0,0,1,2.16,3.042,8.772,8.772,0,0,1,.185,9.224,34.509,34.509,0,0,1-3.689,4.807,5.92,5.92,0,0,1-3.86,1.952c-.816.113-1.611.376-2.639.625a17.419,17.419,0,0,1,1.907,2.066c1.133,1.72,2.219,3.481,3.178,5.3a2.036,2.036,0,0,1-.231,1.737,39.73,39.73,0,0,1-3.988,5.136,4.706,4.706,0,0,1-3.152,1.36,48.278,48.278,0,0,1-7.338-1.072c-.335-.066-.792-1.023-.7-1.467a25.5,25.5,0,0,1,1.3-4.212c.107-.269.86-.47,1.264-.4,1.859.318,3.7.762,5.55,1.115a7.927,7.927,0,0,0,1.458.013l.3-.424c-1.642-1.7-3.182-3.513-4.947-5.074-4.306-3.808-9.4-6.319-14.643-8.559-1.962-.839-1.957-.817-1.035-2.662a23.477,23.477,0,0,0,1.564-3.386c.4-1.283.876-1.412,2.081-.848,3.379,1.581,6.771,3.174,10.275,4.435a23.347,23.347,0,0,0,12.817,1.015c2.779-.576,3.319-1.922,2.015-4.476-1.767-3.459-4.692-5.762-7.631-8.074-1.234-.971-2.525-1.868-3.777-2.815-.374-.283-.705-.622-1.057-.936Z" transform="translate(-86.988)"/>
    <path id="Контур_7" data-name="Контур 7" d="M-362.978-144.768c-.062-.493-.084-.848-.154-1.193-.6-2.99-1.064-6.019-1.857-8.958-1-3.712,1.068-6.365,2.765-9.188a.774.774,0,0,1,.546-.337c2.338-.023,4.675-.015,7.338-.015-.405.685-.628,1.1-.889,1.5-2.218,3.346-4.51,6.645-6.643,10.044-1.342,2.138-1.292,2.564.87,3.9,3.132,1.931,6.415,3.62,9.655,5.371,1.175.635,2.4,1.189,3.631,1.708.826.348.967.823.666,1.63A27.382,27.382,0,0,0-348.077-137c-.246,1.051-.716,1.315-1.774,1.017-3.2-.9-6.407-1.812-9.656-2.51a51.484,51.484,0,0,0-5.84-.608l-.188.567c1.517.876,3.012,1.793,4.555,2.619,4.452,2.381,9.381,3.226,14.23,4.312a1.356,1.356,0,0,0,1.1-.467c.7-.9,1.288-1.886,2.143-3.176.336,2.01.914,3.629-.153,5.284-1.247,1.935-2.422,3.34-5.305,2.773-5.721-1.124-11.484-2.021-16.752-4.644a71.629,71.629,0,0,1-6.449-4.024,1.27,1.27,0,0,1-.524-1.915c.854-1.734,1.52-3.563,2.235-5.363a1.9,1.9,0,0,1,2.01-1.314C-366.66-144.462-364.873-144.65-362.978-144.768Z" transform="translate(-698.621 -0.386)"/>
    <path id="Контур_8" data-name="Контур 8" d="M-827.245-164.074h6.224c-1.224,3.7-2.42,7.287-3.592,10.879a111.828,111.828,0,0,0-4.917,19.447,40.318,40.318,0,0,0,2.149,20.833c.119.3.225.605.317.915.019.063-.055.154-.143.375a26.587,26.587,0,0,1-4.7-8.446c-2.4-6.788-2.454-13.765-1.529-20.8A100.417,100.417,0,0,1-827.89-162C-827.656-162.643-827.48-163.31-827.245-164.074Z" transform="translate(-365.597 -0.666)"/>
    <path id="Контур_9" data-name="Контур 9" d="M-274.941,312.208a3.8,3.8,0,0,1,3.536,3.418,3.523,3.523,0,0,1-3.311,3.115,3.535,3.535,0,0,1-3.351-3.359A3.108,3.108,0,0,1-274.941,312.208Z" transform="translate(-767.133 -344.678)"/>
    <path id="Контур_10" data-name="Контур 10" d="M-185.53,72.525c.85,1.158.592,3.255-.478,3.727a2.441,2.441,0,0,1-1.886-.542,2.707,2.707,0,0,1-.913-1.557c-.074-.354.468-.8.528-1.23a2.235,2.235,0,0,0-.176-1.531c-.839-1.027-.684-1.708.306-2.536,2.274-1.9,2.513-1.878,4.4.5.665.84.5,1.366-.254,1.934C-184.51,71.669-184.987,72.083-185.53,72.525Z" transform="translate(-831.467 -167.925)"/>
    <path id="Контур_11" data-name="Контур 11" d="M-899.177-89.412c1.767.024,3.417,1.506,3.351,3.011a3.048,3.048,0,0,1-3.294,3.007,3.21,3.21,0,0,1-3.351-2.994A3.156,3.156,0,0,1-899.177-89.412Z" transform="translate(-316.135 -54.594)"/>
    <path id="Контур_12" data-name="Контур 12" d="M-733.783-65.522a2.853,2.853,0,0,1,2.97-3.078,3.269,3.269,0,0,1,3.5,3.282,3.179,3.179,0,0,1-3.053,2.824A3.217,3.217,0,0,1-733.783-65.522Z" transform="translate(-437.977 -69.626)"/>
    <path id="Контур_13" data-name="Контур 13" d="M-1016.589,430.751a2.626,2.626,0,0,0-.1.442c-.1,2.48-.566,2.851-2.975,2.2a1.4,1.4,0,0,1-.816-.916,5.122,5.122,0,0,1-.01-2.054c.079-.364.625-.936.888-.9,1.452.2,1.953-.817,2.394-1.786.516-1.134,1.223-1.239,2.207-.728s2.334.768,1.747,2.421c-.061.173-.083.359-.134.535-.528,1.81-.651,1.862-2.306,1.007a3.8,3.8,0,0,0-.5-.222A1.6,1.6,0,0,0-1016.589,430.751Z" transform="translate(-230.819 -427.39)"/>
    <path id="Контур_14" data-name="Контур 14" d="M-1121.744,303.375c-.385.106-.559.152-.731.2-.787.23-1.573,1.656-2.373.107-1-1.94-.683-2.939,1.036-3.727,1.65-.757,1.824-.722,2.645.913.46.917.905,1.629,2.157,1.437.3-.046.77.645,1.065,1.064.13.185.021.539.02.816a2.132,2.132,0,0,1-3.23,2.021,1.513,1.513,0,0,1-.565-1.006A11.37,11.37,0,0,1-1121.744,303.375Z" transform="translate(-155.107 -335.485)"/>
    <path id="Контур_15" data-name="Контур 15" d="M-1008.494,548.593a3.075,3.075,0,0,1,3.363,2.753,3.242,3.242,0,0,1-3.255,3.1,3,3,0,0,1-3.124-2.822A2.832,2.832,0,0,1-1008.494,548.593Z" transform="translate(-237.379 -515.416)"/>
    <path id="Контур_16" data-name="Контур 16" d="M-512.243,426.907a3.009,3.009,0,0,1-3.149-2.85c-.019-1.445,1.658-2.893,3.342-2.886a3.145,3.145,0,0,1,3.14,2.733A3.225,3.225,0,0,1-512.243,426.907Z" transform="translate(-595.717 -423.38)"/>
    <path id="Контур_17" data-name="Контур 17" d="M-207.228,541.339c-1.92-1.2-2.712-2.4-2.091-3.281.578-.82,1.1-2.056,2.454-1.479,1.727.739,2.39,2.234,1.737,3.509,2.209,1.245,2.209,1.245,1.1,3.367-.607,1.165-.948,1.138-2.888.325C-208.452,543.135-207.545,542.269-207.228,541.339Z" transform="translate(-816.64 -506.631)"/>
    <path id="Контур_18" data-name="Контур 18" d="M-1152.74,93.651c2.128.061,2.35.222,2.384,2.161.02,1.143.291,1.932,1.543,2.227.917.216,1.121.867.622,1.7a6.73,6.73,0,0,0-.29.627c-.92,1.969-2.21,2.137-3.587.389a1.77,1.77,0,0,1-.029-1.352c.438-1.448.344-1.81-1.083-2.021-1.36-.2-1.01-1.066-.9-1.847C-1153.958,94.663-1154.1,93.538-1152.74,93.651Z" transform="translate(-134.314 -186.812)"/>
    <path id="Контур_19" data-name="Контур 19" d="M-792.115,136.171a2.98,2.98,0,0,1-3.065-2.582,3.007,3.007,0,0,1,2.915-3.077,3.016,3.016,0,0,1,3.289,2.824A3.015,3.015,0,0,1-792.115,136.171Z" transform="translate(-393.63 -213.441)"/>
    <path id="Контур_20" data-name="Контур 20" d="M-935.891,33.812c-2.036-.044-3.368-1.173-3.368-2.853a2.759,2.759,0,0,1,3.125-2.863,2.983,2.983,0,0,1,3.071,2.875C-933.149,32.822-934.172,33.85-935.891,33.812Z" transform="translate(-289.564 -139.466)"/>
    <path id="Контур_21" data-name="Контур 21" d="M-894.872,315a2.912,2.912,0,0,1-2.991-2.646,2.974,2.974,0,0,1,2.942-3.03,3.015,3.015,0,0,1,3.216,2.888A2.973,2.973,0,0,1-894.872,315Z" transform="translate(-319.464 -342.594)"/>
    <path id="Контур_22" data-name="Контур 22" d="M-863.81-.814c1.178-3.116,2.8-3.508,5.123-1.306a1.279,1.279,0,0,1,.1,1.246c-1.034,1.079-.747,2.023.012,3.078.771,1.073.511,1.522-1.174,2.535-.983.59-1.231-.234-1.537-.786-.42-.759-1.159-1.541-.149-2.457.1-.089-.2-.827-.477-1.068A16.073,16.073,0,0,0-863.81-.814Z" transform="translate(-344.06 -116.638)"/>
    <path id="Контур_23" data-name="Контур 23" d="M-721.647,187.427a2.958,2.958,0,0,1,3.077-3.037,2.866,2.866,0,0,1,2.984,2.946,3.415,3.415,0,0,1-3.3,2.939A2.771,2.771,0,0,1-721.647,187.427Z" transform="translate(-446.743 -252.357)"/>
    <path id="Контур_24" data-name="Контур 24" d="M-297.385,94.228c1.852.034,3.171,1.205,3.128,2.778a3.167,3.167,0,0,1-3.192,2.8c-1.818-.027-3.251-1.247-3.213-2.733A3.057,3.057,0,0,1-297.385,94.228Z" transform="translate(-750.814 -187.234)"/>
    <path id="Контур_25" data-name="Контур 25" d="M-162.5,423.659a6,6,0,0,1,.81,1.324c.337,1.252.656,2.423,2.29,2.531.241.016.633.579.63.885a9.186,9.186,0,0,1-.357,2.311c-.076.275-.52.671-.748.642a11.2,11.2,0,0,1-2.93-.673c-.266-.112-.309-1.025-.255-1.55.067-.653.378-1.39-.5-1.608-1.5-.373-1.509-1.66-1.335-2.608C-164.813,424.43-163.533,424.164-162.5,423.659Z" transform="translate(-848.817 -425.178)"/>
    <path id="Контур_26" data-name="Контур 26" d="M-1041.177,228.378a3.069,3.069,0,0,1,3.258-3.034,2.889,2.889,0,0,1,2.743,2.749,3.26,3.26,0,0,1-3.215,2.988A2.9,2.9,0,0,1-1041.177,228.378Z" transform="translate(-215.95 -281.937)"/>
    <path id="Контур_27" data-name="Контур 27" d="M-742.772-91.715c1.952,0,3.16,1.121,3.12,2.9a3.063,3.063,0,0,1-2.815,2.883,3.207,3.207,0,0,1-3.242-2.96A2.867,2.867,0,0,1-742.772-91.715Z" transform="translate(-429.363 -52.93)"/>
    <path id="Контур_28" data-name="Контур 28" d="M-762.384-32.436a3.345,3.345,0,0,1,.953-.766c1.025-.373,1.268-.908.5-1.713-.557-.585-.414-1,.095-1.512,1.914-1.934,3.044-1.857,4.657.463a1.285,1.285,0,0,1-.236,1.193c-.546.547-1.335.858-1.857,1.421-.468.5-1.06,1.262-.988,1.831.221,1.733-1.141,1.477-1.965,1.67-1.136.267-.793-.825-.97-1.4A10.978,10.978,0,0,1-762.384-32.436Z" transform="translate(-417.319 -91.874)"/>
    <path id="Контур_29" data-name="Контур 29" d="M-575.432,516.9A2.725,2.725,0,0,1-578.1,519.8a3.215,3.215,0,0,1-3.292-2.875,2.877,2.877,0,0,1,2.833-2.805A2.936,2.936,0,0,1-575.432,516.9Z" transform="translate(-548.046 -490.513)"/>
    <path id="Контур_30" data-name="Контур 30" d="M-727.459,320.149a2.882,2.882,0,0,1,3.053,2.865,2.834,2.834,0,0,1-2.787,2.826,3.345,3.345,0,0,1-3.173-2.885A2.7,2.7,0,0,1-727.459,320.149Z" transform="translate(-440.445 -350.413)"/>
    <path id="Контур_31" data-name="Контур 31" d="M-1071.146-76.631a2.945,2.945,0,0,1-2.933-2.878,2.981,2.981,0,0,1,3.032-2.8,3.041,3.041,0,0,1,2.914,2.915A2.847,2.847,0,0,1-1071.146-76.631Z" transform="translate(-192.185 -59.725)"/>
    <path id="Контур_32" data-name="Контур 32" d="M-641.313,86.4a3.106,3.106,0,0,1-3.1-2.92,3,3,0,0,1,2.8-2.736,3.172,3.172,0,0,1,3.142,3.058A2.687,2.687,0,0,1-641.313,86.4Z" transform="translate(-502.527 -177.491)"/>
    <path id="Контур_33" data-name="Контур 33" d="M-866.442,52.081c.049-1.813,1.337-2.905,3.332-2.825A2.613,2.613,0,0,1-860.617,52a2.969,2.969,0,0,1-3.152,2.948A2.747,2.747,0,0,1-866.442,52.081Z" transform="translate(-342.159 -154.749)"/>
    <path id="Контур_34" data-name="Контур 34" d="M-790.295,421.665c-1.857-.006-2.975-1.022-2.982-2.706a2.478,2.478,0,0,1,2.793-2.688,2.8,2.8,0,0,1,3.048,2.713A2.6,2.6,0,0,1-790.295,421.665Z" transform="translate(-395.005 -419.841)"/>
    <path id="Контур_35" data-name="Контур 35" d="M-1191.112,252.418a2.739,2.739,0,0,1,2.84,3.042,2.74,2.74,0,0,1-2.894,2.536A2.871,2.871,0,0,1-1194,254.9,2.565,2.565,0,0,1-1191.112,252.418Z" transform="translate(-105.563 -301.49)"/>
    <path id="Контур_36" data-name="Контур 36" d="M-1053.449-118.363c1.834.011,2.909.888,2.927,2.388a2.955,2.955,0,0,1-3.183,3.047,2.541,2.541,0,0,1-2.645-2.571A2.573,2.573,0,0,1-1053.449-118.363Z" transform="translate(-204.991 -33.682)"/>
    <path id="Контур_37" data-name="Контур 37" d="M-1220.693,56.761a7.09,7.09,0,0,0-1.149-1.847c-.781-.666-.464-1.21-.063-1.782.425-.607.745-1.434,1.817-.966,1.634.713,1.825,1.1,1.381,2.69-.082.294.309,1.033.509,1.043,1.212.062,1.285.783,1.179,1.7-.052.456-.066.917-.087,1.376-.034.745-.385,1.017-1.155.981C-1221,59.829-1221.028,59.824-1220.693,56.761Z" transform="translate(-85.113 -156.755)"/>
    <path id="Контур_38" data-name="Контур 38" d="M-708.9,136.4c-.007,1.733-1.244,2.547-2.882,1.826a1.248,1.248,0,0,1-.635-.934c.063-1.609-.912-2.3-2.232-2.715-1.248-.392-1.373-1.115-.789-2.184.4-.728.9-1.073,1.667-.666.922.488,2.575.225,2.233,2.117-.029.162.544.581.878.636C-708.9,134.777-708.9,134.749-708.9,136.4Z" transform="translate(-450.983 -214.198)"/>
    <path id="Контур_39" data-name="Контур 39" d="M-1160.96,283.34a4.861,4.861,0,0,0-.688-.433,3.615,3.615,0,0,0-1.382-.488c-1.492.037-1.605-1.362-2.22-2.159-.146-.189.61-1.153,1.059-1.667a.987.987,0,0,1,.942.117c.786.956,1.67.687,2.637.41a2.315,2.315,0,0,1,3,2.7.876.876,0,0,1-.44.617C-1158.961,282.761-1159.9,283.016-1160.96,283.34Z" transform="translate(-126.321 -320.344)"/>
    <path id="Контур_40" data-name="Контур 40" d="M-563.892,246.151c-.434.309-.787.594-1.172.825-.954.573-1.713,1.1-1.247,2.516.152.46-.592,1.345-1.117,1.829-.186.172-1.021-.167-1.4-.472a1.141,1.141,0,0,1-.135-1.112c1.115-1.114.64-2.127-.179-3.019s-.776-1.451.292-2.015C-565.482,242.927-566.094,242.662-563.892,246.151Z" transform="translate(-556.488 -294.999)"/>
    <path id="Контур_41" data-name="Контур 41" d="M-316.7,244.416a16.9,16.9,0,0,1-2.865.281c-.37-.026-.847-.545-1.019-.949-.282-.666-.267-1.458-.551-2.123a1.83,1.83,0,0,0-1.035-1c-.969-.228-1.42-.6-1-1.617.377-.918.5-2.011,2.053-1.44,1.05.387,1.952.573,1.506,2.03-.072.235.532.978.789.961,1.529-.1,1.752.865,1.866,2.009C-316.9,243.152-316.8,243.728-316.7,244.416Z" transform="translate(-734.442 -290.655)"/>
    <path id="Контур_42" data-name="Контур 42" d="M-343.679-4.039a5.81,5.81,0,0,1-1.27.745c-.492.158-1.308.324-1.545.073-.759-.8-1.291-.537-1.814.131-.659.84-1.292.638-2.018.1-1.864-1.371-1.968-2.1-.558-3.6.771-.82,1.487-.993,2.352-.153a2.834,2.834,0,0,0,3.394.747C-344.493-6.273-343.634-5.255-343.679-4.039Z" transform="translate(-713.845 -113.913)"/>
    <path id="Контур_43" data-name="Контур 43" d="M-205.859,394.8c-.954.459-1.788,1.226-2.493,1.121-1.295-.194-2.454-.911-3.841-.077-.3.179-1.246-.5-1.738-.954-.26-.24-.217-.842-.243-1.284-.008-.141.2-.293.309-.444,1.341-1.933,1.333-1.919,3.334-.8.43.241,1.044.6,1.394.46C-207.268,392.07-206.786,393.505-205.859,394.8Z" transform="translate(-813.283 -402.019)"/>
    <path id="Контур_44" data-name="Контур 44" d="M-1068.8-21.534a2.9,2.9,0,0,1-2.943-2.7,2.785,2.785,0,0,1,2.9-2.556,2.655,2.655,0,0,1,2.739,2.83A2.327,2.327,0,0,1-1068.8-21.534Z" transform="translate(-193.87 -99.828)"/>
    <path id="Контур_45" data-name="Контур 45" d="M-1099.434-53.6c-.628-.182-1.849.939-1.946-.819-.133-2.423.01-2.508,2.113-2.631,1.9-.112,1.137,1.082,1.068,1.949.854-.045,1.84-.394,2.347-.046a2.744,2.744,0,0,1,1.007,2.16c-.156,1.424-1.714,1.364-2.681,1.6C-1099.145-50.979-1098.62-52.811-1099.434-53.6Z" transform="translate(-172.441 -77.964)"/>
    <path id="Контур_46" data-name="Контур 46" d="M-1126.511,226.469a22.912,22.912,0,0,0,2.361-.2,2.6,2.6,0,0,0,1.446-.621c.678-.79,1.168-.929,2.038-.2,2.145,1.788,2.151,1.717.365,3.858-.745.892-1.288,1.023-2.242.212-.526-.446-1.523-.289-2.188-.633a13.572,13.572,0,0,1-2.033-1.57Z" transform="translate(-154.133 -281.667)"/>
    <path id="Контур_47" data-name="Контур 47" d="M-1332.247,170.785a8.512,8.512,0,0,1-1.472,1.5,1.516,1.516,0,0,1-1.353.067,1.981,1.981,0,0,0-2.732-.248c-.879.619-1.448.36-1.752-.606-.227-.72-.8-1.825-.532-2.11a8.542,8.542,0,0,1,2.7-1.569c.155-.071.526.349.808.523.57.353,1.14.707,1.724,1.034C-1334.06,169.825-1333.245,170.249-1332.247,170.785Z" transform="translate(0 -240.382)"/>
    <path id="Контур_48" data-name="Контур 48" d="M-1138.7,578.826a2.53,2.53,0,0,1-2.481,2.588,3.083,3.083,0,0,1-3.024-2.846,2.611,2.611,0,0,1,2.549-2.584A2.894,2.894,0,0,1-1138.7,578.826Z" transform="translate(-141.534 -535.199)"/>
    <path id="Контур_49" data-name="Контур 49" d="M-1153.86,460.356a10.375,10.375,0,0,1,.3,1.445c.137,1.9-.045,2.153-1.714,2.121a2.149,2.149,0,0,0-1.616,1.108c-.625,1.532-1.534.912-2.443.523-1.244-.532-.4-1.3-.118-1.911.174-.381.664-.6.936-.957a3.518,3.518,0,0,0,.9-1.485c.088-.872.451-1.122,1.229-1.052C-1155.565,460.221-1154.753,460.283-1153.86,460.356Z" transform="translate(-130.135 -451.525)"/>
    <path id="Контур_50" data-name="Контур 50" d="M-299.965-123.572a2.4,2.4,0,0,1,2.384-2.633,2.774,2.774,0,0,1,2.906,2.706,2.522,2.522,0,0,1-2.519,2.725A2.687,2.687,0,0,1-299.965-123.572Z" transform="translate(-751.318 -28.018)"/>
    <path id="Контур_51" data-name="Контур 51" d="M-451.129-66.29a2.431,2.431,0,0,1-2.705-2.62,2.221,2.221,0,0,1,2.242-2.439c1.757.019,3.217,1.2,3.226,2.609A2.512,2.512,0,0,1-451.129-66.29Z" transform="translate(-640.18 -67.64)"/>
    <path id="Контур_52" data-name="Контур 52" d="M-1241.373,75.886a2.468,2.468,0,0,1-2.48,2.437,3.1,3.1,0,0,1-2.972-2.9,2.63,2.63,0,0,1,2.313-2.362A2.961,2.961,0,0,1-1241.373,75.886Z" transform="translate(-67.414 -171.944)"/>
    <path id="Контур_53" data-name="Контур 53" d="M-587.7,137.845a3,3,0,0,1-2.939,2.75,2.65,2.65,0,0,1-2.735-2.39,3.009,3.009,0,0,1,3-2.7A2.872,2.872,0,0,1-587.7,137.845Z" transform="translate(-539.389 -217.047)"/>
    <path id="Контур_54" data-name="Контур 54" d="M-502.784-126.9a2.35,2.35,0,0,1-2.526-2.51,2.569,2.569,0,0,1,2.756-2.63,2.57,2.57,0,0,1,2.584,2.527A2.617,2.617,0,0,1-502.784-126.9Z" transform="translate(-603 -23.805)"/>
    <path id="Контур_55" data-name="Контур 55" d="M-298.5,31.417c-.944-.25-2.027-.221-2.389-.718-.394-.54-.411-2.1-.078-2.281a7.273,7.273,0,0,1,3.106-.594,2.767,2.767,0,0,1,.44,1.592c-.092,1,.016,1.7,1.154,1.953,1.268.284.785,1.229.646,2a1.222,1.222,0,0,1-1.6,1.074c-.841-.145-1.511-.394-1.293-1.509A7.028,7.028,0,0,0-298.5,31.417Z" transform="translate(-750.426 -139.272)"/>
    <path id="Контур_56" data-name="Контур 56" d="M-216.684,438.153c-1.5.469-1.31,1.3-.418,2.233a8.755,8.755,0,0,1-.6.8c-1.836,1.939-1.974,1.909-3.788-.08-.593-.65-.508-1.066.1-1.591.864-.742,1.843-1.413,1.547-2.859-.039-.19.815-.7,1.311-.813a1.382,1.382,0,0,1,1.19.437A7.862,7.862,0,0,1-216.684,438.153Z" transform="translate(-807.71 -433.964)"/>
    <path id="Контур_57" data-name="Контур 57" d="M-1081.657,368.467c.476-.653.717-1.341,1.106-1.439.663-.166,1.417-.36,1.932.706.325.673,1.409,1,2.183,1.428.525.291,1.452.276.991,1.247-.427.9-.254,2.579-1.884,2.2-1.157-.272-2.934-.089-2.852-2.274C-1080.16,369.778-1081.055,369.192-1081.657,368.467Z" transform="translate(-186.712 -384.18)"/>
    <path id="Контур_58" data-name="Контур 58" d="M-946.559-158.222a2.191,2.191,0,0,1-2.281,2.375,2.624,2.624,0,0,1-2.806-2.608,2.461,2.461,0,0,1,2.342-2.58A2.644,2.644,0,0,1-946.559-158.222Z" transform="translate(-280.617 -2.861)"/>
    <path id="Контур_59" data-name="Контур 59" d="M-559.722-61.619a2.973,2.973,0,0,1-2.9,2.464,2.572,2.572,0,0,1-2.624-2.348,2.8,2.8,0,0,1,2.938-2.539A2.706,2.706,0,0,1-559.722-61.619Z" transform="translate(-559.707 -72.917)"/>
    <path id="Контур_60" data-name="Контур 60" d="M-158.138-11.564c1.081-.174,2.061-.38,3.051-.456.237-.018.628.346.736.618a14.862,14.862,0,0,1,.362,1.617c.243.9-.085,1.3-.978,1.605-.748.257-1.321.994-2.059,1.322a4.039,4.039,0,0,1-1.887.223c-.305-.024-.821-.442-.82-.679,0-.55.181-1.53.432-1.577C-157.7-9.193-157.815-10.239-158.138-11.564Z" transform="translate(-852.605 -110.493)"/>
    <path id="Контур_61" data-name="Контур 61" d="M-633.6-8.233a2.6,2.6,0,0,1-2.573,2.392,2.669,2.669,0,0,1-2.6-2.536,2.19,2.19,0,0,1,2.246-2.411A2.853,2.853,0,0,1-633.6-8.233Z" transform="translate(-506.598 -111.383)"/>
    <path id="Контур_62" data-name="Контур 62" d="M-1068.823,167.137a2.433,2.433,0,0,1-2.674-2.357,2.3,2.3,0,0,1,2.519-2.329,2.636,2.636,0,0,1,2.705,2.563C-1066.238,166.238-1067.306,167.127-1068.823,167.137Z" transform="translate(-194.05 -236.51)"/>
    <path id="Контур_63" data-name="Контур 63" d="M-1178.747,310.87a2.344,2.344,0,0,1-2.438,2.444,2.48,2.48,0,0,1-2.634-2.279,2.656,2.656,0,0,1,2.772-2.517A2.122,2.122,0,0,1-1178.747,310.87Z" transform="translate(-112.922 -342.012)"/>
    <path id="Контур_64" data-name="Контур 64" d="M-268.156,166.855a2.487,2.487,0,0,1-2.579-2.464,2.151,2.151,0,0,1,2.316-2.176,2.565,2.565,0,0,1,2.786,2.272A2.466,2.466,0,0,1-268.156,166.855Z" transform="translate(-772.43 -236.34)"/>
    <path id="Контур_65" data-name="Контур 65" d="M-774.176,72.662a2.81,2.81,0,0,1-2.719,2.764A2.554,2.554,0,0,1-779.23,73.1a2.649,2.649,0,0,1,2.766-2.527A2.146,2.146,0,0,1-774.176,72.662Z" transform="translate(-405.15 -170.148)"/>
    <path id="Контур_66" data-name="Контур 66" d="M-844.206,234.586a2.866,2.866,0,0,1,2.716,2.491,2.452,2.452,0,0,1-2.271,2.515,2.7,2.7,0,0,1-2.676-2.481A2.372,2.372,0,0,1-844.206,234.586Z" transform="translate(-356.608 -288.612)"/>
    <path id="Контур_67" data-name="Контур 67" d="M-1313.943,444.536a2.657,2.657,0,0,1-2.563,2.413,2.429,2.429,0,0,1-2.6-2.444,2.44,2.44,0,0,1,2.594-2.326A2.445,2.445,0,0,1-1313.943,444.536Z" transform="translate(-15.203 -438.554)"/>
    <path id="Контур_68" data-name="Контур 68" d="M-336.959,490.227a2.429,2.429,0,0,1-2.459,2.433,2.6,2.6,0,0,1-2.5-2.449,2.369,2.369,0,0,1,2.378-2.479A2.55,2.55,0,0,1-336.959,490.227Z" transform="translate(-721.016 -471.455)"/>
    <path id="Контур_69" data-name="Контур 69" d="M-1317.257,54.484a2.1,2.1,0,0,1,2.236-2.248,2.456,2.456,0,0,1,2.655,2.555,2.359,2.359,0,0,1-2.269,2.316A2.535,2.535,0,0,1-1317.257,54.484Z" transform="translate(-16.542 -156.903)"/>
    <path id="Контур_70" data-name="Контур 70" d="M-1304.325,374.879c-1.694.005-2.756-.931-2.737-2.409a2.109,2.109,0,0,1,2.3-2.315,2.474,2.474,0,0,1,2.668,2.513A2.037,2.037,0,0,1-1304.325,374.879Z" transform="translate(-23.905 -386.532)"/>
    <path id="Контур_71" data-name="Контур 71" d="M-512.291-153.116a2.775,2.775,0,0,1-2.716,2.3,2.521,2.521,0,0,1-2.587-2.216,2.714,2.714,0,0,1,2.951-2.322A2.3,2.3,0,0,1-512.291-153.116Z" transform="translate(-594.127 -6.962)"/>
    <path id="Контур_72" data-name="Контур 72" d="M-1302.17,622.035a2.757,2.757,0,0,1,2.874,2.405,2.414,2.414,0,0,1-2.307,2.437,2.626,2.626,0,0,1-2.7-2.4A2.337,2.337,0,0,1-1302.17,622.035Z" transform="translate(-25.898 -568.461)"/>
    <path id="Контур_73" data-name="Контур 73" d="M-155.551,493.771a2.571,2.571,0,0,1-2.442,2.371,2.529,2.529,0,0,1-2.556-2.243,2.305,2.305,0,0,1,2.311-2.552A2.554,2.554,0,0,1-155.551,493.771Z" transform="translate(-852.015 -474.068)"/>
    <path id="Контур_74" data-name="Контур 74" d="M-643.534-115.451a2.168,2.168,0,0,1-2.308,2.206,2.475,2.475,0,0,1-2.729-2.338A2.447,2.447,0,0,1-646.219-118,2.511,2.511,0,0,1-643.534-115.451Z" transform="translate(-499.524 -33.942)"/>
    <path id="Контур_75" data-name="Контур 75" d="M-362.174,323.262a2.314,2.314,0,0,1-2.6-2.268,2.558,2.558,0,0,1,2.8-2.289,2.409,2.409,0,0,1,2.422,2.487C-359.562,322.409-360.643,323.26-362.174,323.262Z" transform="translate(-704.509 -349.37)"/>
    <path id="Контур_76" data-name="Контур 76" d="M-1232.319,207.477a2.311,2.311,0,0,1-2.284-2.417,3.11,3.11,0,0,1,2.485-2.586,2.734,2.734,0,0,1,2.468,2.531A2.811,2.811,0,0,1-1232.319,207.477Z" transform="translate(-76.241 -265.419)"/>
    <path id="Контур_77" data-name="Контур 77" d="M-250.534,10.8a2.485,2.485,0,0,1-2.362,2.255,2.73,2.73,0,0,1-2.708-2.6,2.021,2.021,0,0,1,2.286-2.169A2.728,2.728,0,0,1-250.534,10.8Z" transform="translate(-783.359 -125.16)"/>
    <path id="Контур_78" data-name="Контур 78" d="M-494.6,252.516a2.657,2.657,0,0,1,2.62-2.364,2.274,2.274,0,0,1,2.234,2.342,2.674,2.674,0,0,1-2.673,2.48A2.451,2.451,0,0,1-494.6,252.516Z" transform="translate(-610.733 -299.856)"/>
    <path id="Контур_79" data-name="Контур 79" d="M-1247.1,225.59a2.174,2.174,0,0,1-2.325,2.327,2.491,2.491,0,0,1-2.532-2.366,2.294,2.294,0,0,1,2.413-2.283A2.148,2.148,0,0,1-1247.1,225.59Z" transform="translate(-63.708 -280.438)"/>
    <path id="Контур_80" data-name="Контур 80" d="M-133.348,155.04a2.357,2.357,0,0,1-2.571,2.449,2.289,2.289,0,0,1-2.322-2.52,2.285,2.285,0,0,1,2.2-2.354A2.64,2.64,0,0,1-133.348,155.04Z" transform="translate(-868.128 -229.407)"/>
    <path id="Контур_81" data-name="Контур 81" d="M-391.928-42.88a2.186,2.186,0,0,1,2.171-2.348,2.777,2.777,0,0,1,2.728,2.613,2.329,2.329,0,0,1-2.344,2.245A2.505,2.505,0,0,1-391.928-42.88Z" transform="translate(-684.894 -86.507)"/>
    <path id="Контур_82" data-name="Контур 82" d="M-172.107-81.371a2.3,2.3,0,0,1,2.491,2.192,2.82,2.82,0,0,1-2.792,2.354,2.173,2.173,0,0,1-2.343-2.164A2.394,2.394,0,0,1-172.107-81.371Z" transform="translate(-841.756 -60.401)"/>
    <path id="Контур_83" data-name="Контур 83" d="M-1008.929-100.295a2.647,2.647,0,0,1,2.68,2.458,2.842,2.842,0,0,1-2.224,2.333,2.677,2.677,0,0,1-2.674-2.644A2.107,2.107,0,0,1-1008.929-100.295Z" transform="translate(-237.64 -46.733)"/>
    <path id="Контур_84" data-name="Контур 84" d="M-675.2,245.437a2.661,2.661,0,0,1-2.683,2.458,2.213,2.213,0,0,1-2.37-2.024,2.533,2.533,0,0,1,2.416-2.544A2.426,2.426,0,0,1-675.2,245.437Z" transform="translate(-476.637 -294.925)"/>
    <path id="Контур_85" data-name="Контур 85" d="M-1169.911,19.666a2.855,2.855,0,0,1,2.525,2.488,2.515,2.515,0,0,1-2.473,2.319,2.41,2.41,0,0,1-2.317-2.575A2.119,2.119,0,0,1-1169.911,19.666Z" transform="translate(-121.332 -133.379)"/>
    <path id="Контур_86" data-name="Контур 86" d="M-813.5,47.048a2.5,2.5,0,0,1-2.586,2.17,2.293,2.293,0,0,1-2.271-2.438,2.059,2.059,0,0,1,2.194-2.14A2.512,2.512,0,0,1-813.5,47.048Z" transform="translate(-376.89 -151.417)"/>
    <path id="Контур_87" data-name="Контур 87" d="M-853.657,487.8a2.275,2.275,0,0,1,2.489,2.042,2.5,2.5,0,0,1-2.791,2.422,2.361,2.361,0,0,1-2.445-2.122A2.569,2.569,0,0,1-853.657,487.8Z" transform="translate(-349.409 -471.503)"/>
    <path id="Контур_88" data-name="Контур 88" d="M-1092.857-157.414c-1.671.008-2.426-.648-2.426-2.108a2.226,2.226,0,0,1,2.227-2.451,2.825,2.825,0,0,1,2.587,2.435A2.185,2.185,0,0,1-1092.857-157.414Z" transform="translate(-176.87 -2.184)"/>
    <path id="Контур_89" data-name="Контур 89" d="M-777.125-156.08a2.531,2.531,0,0,1-2.577,2.509,2.414,2.414,0,0,1-2.51-2.07,2.78,2.78,0,0,1,2.7-2.461A2.336,2.336,0,0,1-777.125-156.08Z" transform="translate(-402.997 -4.979)"/>
    <path id="Контур_90" data-name="Контур 90" d="M-1220.947-19.942a2.169,2.169,0,0,1-2.477,2.306,2.243,2.243,0,0,1-2.423-2.1,2.771,2.771,0,0,1,2.687-2.485A2.15,2.15,0,0,1-1220.947-19.942Z" transform="translate(-82.566 -103.121)"/>
    <path id="Контур_91" data-name="Контур 91" d="M-611.936,122.96a2.266,2.266,0,0,1,2.447,2.086,2.553,2.553,0,0,1-2.625,2.471c-1.551-.028-2.489-.79-2.471-2.008A2.469,2.469,0,0,1-611.936,122.96Z" transform="translate(-524.071 -207.986)"/>
    <path id="Контур_92" data-name="Контур 92" d="M-725.894,100.206a2.524,2.524,0,0,1,2.418,2.53,2.873,2.873,0,0,1-2.489,2.389,2.648,2.648,0,0,1-2.379-2.6A2.422,2.422,0,0,1-725.894,100.206Z" transform="translate(-441.905 -191.551)"/>
    <path id="Контур_93" data-name="Контур 93" d="M-1171.736,167.405a2.411,2.411,0,0,1-2.518-2.05,2.617,2.617,0,0,1,2.829-2.41,2.238,2.238,0,0,1,2.4,1.973A2.478,2.478,0,0,1-1171.736,167.405Z" transform="translate(-119.831 -236.868)"/>
    <path id="Контур_94" data-name="Контур 94" d="M-375.694,256.466a20.464,20.464,0,0,1-2.85,1.94,1.9,1.9,0,0,1-1.66-.306c-2.106-1.845-1.782-3.368.857-4.429.126-.051.325-.154.381-.106C-377.959,254.438-376.968,255.33-375.694,256.466Z" transform="translate(-692.366 -302.312)"/>
    <path id="Контур_95" data-name="Контур 95" d="M-1304.116,147.659a1.906,1.906,0,0,1-2.137,2.115c-1.661,0-2.751-.9-2.733-2.248a2.2,2.2,0,0,1,2.271-2.246A2.32,2.32,0,0,1-1304.116,147.659Z" transform="translate(-22.516 -224.109)"/>
    <path id="Контур_96" data-name="Контур 96" d="M-191.2-58.652a2.562,2.562,0,0,1-2.658-2.43,2.251,2.251,0,0,1,2.232-2.178,2.514,2.514,0,0,1,2.677,2.406A2.028,2.028,0,0,1-191.2-58.652Z" transform="translate(-827.96 -73.482)"/>
    <path id="Контур_97" data-name="Контур 97" d="M-1232.574-56.1c-1.477-.03-2.481-.864-2.454-2.038a2.517,2.517,0,0,1,2.839-2.334,2.043,2.043,0,0,1,2.238,2.218A2.605,2.605,0,0,1-1232.574-56.1Z" transform="translate(-75.934 -75.496)"/>
    <path id="Контур_98" data-name="Контур 98" d="M-717.189,610.96a2.447,2.447,0,0,1,2.539,2.368,2.4,2.4,0,0,1-2.31,2.134c-1.49.006-2.6-.908-2.568-2.119A2.328,2.328,0,0,1-717.189,610.96Z" transform="translate(-448.272 -560.463)"/>
    <path id="Контур_99" data-name="Контур 99" d="M-1119.529,151.14c1.612.007,2.515.822,2.536,2.287a2.413,2.413,0,0,1-2.257,2.344,2.848,2.848,0,0,1-2.593-2.769A2.052,2.052,0,0,1-1119.529,151.14Z" transform="translate(-157.687 -228.341)"/>
    <path id="Контур_100" data-name="Контур 100" d="M-623.919,33.943a2.348,2.348,0,0,1-2.561-2.307,2.128,2.128,0,0,1,2.381-2.263,2.726,2.726,0,0,1,2.437,2.4A2.3,2.3,0,0,1-623.919,33.943Z" transform="translate(-515.48 -140.39)"/>
    <path id="Контур_101" data-name="Контур 101" d="M-253.885,357.376a2.329,2.329,0,0,1-2.247,2.168,2.644,2.644,0,0,1-2.566-2.694,2.065,2.065,0,0,1,2.235-1.947A2.46,2.46,0,0,1-253.885,357.376Z" transform="translate(-781.121 -375.516)"/>
    <path id="Контур_102" data-name="Контур 102" d="M-926.078,249.264a2.687,2.687,0,0,1-2.391-2.431,2.4,2.4,0,0,1,2.437-2.474,2.4,2.4,0,0,1,2.3,2.313A2.492,2.492,0,0,1-926.078,249.264Z" transform="translate(-297.358 -295.671)"/>
    <path id="Контур_103" data-name="Контур 103" d="M-456.2,365.922q2.543-.024,2.628,2.167a2.175,2.175,0,0,1-2.36,2.162,2.6,2.6,0,0,1-2.616-2.346C-458.582,366.773-457.591,365.936-456.2,365.922Z" transform="translate(-636.773 -383.475)"/>
    <path id="Контур_104" data-name="Контур 104" d="M-972.76,193.1a2.332,2.332,0,0,1-2.461-1.928,2.462,2.462,0,0,1,2.513-2.568,2.139,2.139,0,0,1,2.295,2.083A2.4,2.4,0,0,1-972.76,193.1Z" transform="translate(-263.588 -255.398)"/>
    <path id="Контур_105" data-name="Контур 105" d="M-232.893,248.213a2.155,2.155,0,0,1,2.431,1.913,2.649,2.649,0,0,1-2.738,2.393,2.326,2.326,0,0,1-2.294-1.978A2.477,2.477,0,0,1-232.893,248.213Z" transform="translate(-797.884 -298.455)"/>
    <path id="Контур_106" data-name="Контур 106" d="M-360.705-146.864a2.176,2.176,0,0,1-2.289,2.217,2.6,2.6,0,0,1-2.512-2.446,2.309,2.309,0,0,1,2.3-2.116A2.34,2.34,0,0,1-360.705-146.864Z" transform="translate(-703.976 -11.403)"/>
    <path id="Контур_107" data-name="Контур 107" d="M-886.779-164.57c.2,1.267.767,2.514.4,3.358-.285.658-1.707.9-2.668,1.166-.685.193-2.07-1.7-1.9-2.815C-890.526-165.553-888.309-164.057-886.779-164.57Z" transform="translate(-324.452 -0.308)"/>
    <path id="Контур_108" data-name="Контур 108" d="M-989.238,360.68a2.285,2.285,0,0,1-2.52,2.176c-1.146-.043-2.3-1.094-2.233-2.026a3.158,3.158,0,0,1,2.763-2.48A2.022,2.022,0,0,1-989.238,360.68Z" transform="translate(-250.03 -378.005)"/>
    <path id="Контур_109" data-name="Контур 109" d="M-349.031,408.655a2.534,2.534,0,0,1-2.406-1.9,3.21,3.21,0,0,1,2.616-2.613,1.968,1.968,0,0,1,2.138,2.139A2.329,2.329,0,0,1-349.031,408.655Z" transform="translate(-714.139 -411.082)"/>
    <path id="Контур_110" data-name="Контур 110" d="M-1024.546,294.131a12.432,12.432,0,0,1-.272,1.543c-.241.755-.452,2.049-.851,2.119a5.787,5.787,0,0,1-3.065-.47c-.338-.141-.461-1.2-.4-1.813.2-2.114.456-2.263,2.486-1.825C-1025.988,293.828-1025.32,293.967-1024.546,294.131Z" transform="translate(-224.636 -331.155)"/>
    <path id="Контур_111" data-name="Контур 111" d="M-778.016,209.267a2.313,2.313,0,0,1,2.419,2.318,2.012,2.012,0,0,1-2.152,2.034,2.458,2.458,0,0,1-2.628-2.422A2.01,2.01,0,0,1-778.016,209.267Z" transform="translate(-404.322 -270.323)"/>
    <path id="Контур_112" data-name="Контур 112" d="M-1318.314,271.8a1.88,1.88,0,0,1-2.074-2.164,2.522,2.522,0,0,1,2.662-2.554,2.2,2.2,0,0,1,1.973,2.23A2.47,2.47,0,0,1-1318.314,271.8Z" transform="translate(-14.277 -312.085)"/>
    <path id="Контур_113" data-name="Контур 113" d="M-634.251,213.706a1.983,1.983,0,0,1-2.063-2.076,2.393,2.393,0,0,1,2.516-2.215,2.058,2.058,0,0,1,2.25,2.07A2.6,2.6,0,0,1-634.251,213.706Z" transform="translate(-508.377 -270.431)"/>
    <path id="Контур_114" data-name="Контур 114" d="M-152.563,534.865a17.041,17.041,0,0,1-2.326,2.6c-.3.225-1.279-.172-1.755-.536-.621-.475-1.6-1.469-1.46-1.766a9.283,9.283,0,0,1,2.082-2.3.679.679,0,0,1,.642-.009C-154.486,533.452-153.621,534.1-152.563,534.865Z" transform="translate(-853.771 -503.99)"/>
    <path id="Контур_115" data-name="Контур 115" d="M-528.9,113.372c-.014,1.159-1.2,1.777-3.072,1.8-.764.009-1.432-1.316-1.461-2.9-.012-.689,1.779-1.708,3.175-1.5C-528.672,111.013-529.377,112.641-528.9,113.372Z" transform="translate(-582.69 -199.166)"/>
    <path id="Контур_116" data-name="Контур 116" d="M-591.645,62.665c-.034.715.49,1.738-1.062,1.757-2.559.031-2.932-.08-2.963-1.357-.057-2.389.156-2.71,1.838-2.764C-591.783,60.234-591.736,60.284-591.645,62.665Z" transform="translate(-537.728 -162.718)"/>
    <path id="Контур_117" data-name="Контур 117" d="M-1212.221-164.191h4.407c.446.838.836,1.537,1.192,2.252.218.439.639,1.217.532,1.3-.576.468-1.473,1.207-1.914,1.023-.722-.3-2.131-.475-1.642-2.045.1-.32-.479-.98-.888-1.3a10.183,10.183,0,0,0-1.8-.919Z" transform="translate(-92.328 -0.582)"/>
    <path id="Контур_118" data-name="Контур 118" d="M-263.865,263.561c-.808.745.472,2.559-1.39,2.666-1.741.1-3.221-.8-3.2-1.652.044-1.984.266-2.34,1.718-2.219C-265.735,262.441-264.418,262-263.865,263.561Z" transform="translate(-774.075 -308.656)"/>
    <path id="Контур_119" data-name="Контур 119" d="M-131.116,228.2a17.926,17.926,0,0,1,2.516,1.438c.164.125-.149,1.079-.431,1.534-.332.534-1.007,1.4-1.3,1.318a9.471,9.471,0,0,1-3.012-1.524C-133.837,230.59-132.15,228.239-131.116,228.2Z" transform="translate(-871.604 -284.002)"/>
    <path id="Контур_120" data-name="Контур 120" d="M-1233.885,110.391a1.906,1.906,0,0,1,1.948,2.189,2.145,2.145,0,0,1-1.984,1.918c-1.585.005-2.286-.709-2.25-2.293C-1236.144,111.011-1235.351,110.382-1233.885,110.391Z" transform="translate(-75.108 -198.908)"/>
    <path id="Контур_121" data-name="Контур 121" d="M-290.633,137.885c-.84.6-1.741,1.746-2.5,1.66-.913-.1-1.707-1.257-2.553-1.955.716-.784,1.485-2.246,2.137-2.2,1.011.078,1.943,1.187,2.909,1.858Z" transform="translate(-754.406 -216.967)"/>
    <path id="Контур_122" data-name="Контур 122" d="M-397.483-137.366c.676.449,2.445-.365,2.261,1.417-.092.895.613,2.726-1.3,2.594-.93-.064-2.621.3-2.7-1.4C-399.312-136.813-398.816-137.431-397.483-137.366Z" transform="translate(-679.62 -19.954)"/>
    <path id="Контур_123" data-name="Контур 123" d="M-789.526,1.377c1.309.021,2,.619,2.011,1.729a2.234,2.234,0,0,1-2.278,2.1,1.9,1.9,0,0,1-2.118-1.677C-791.9,2.067-791.112,1.352-789.526,1.377Z" transform="translate(-395.992 -120.169)"/>
    <path id="Контур_124" data-name="Контур 124" d="M-559.633-126.528c-1.8.022-2.632-.65-2.474-2.462s1.876-.975,2.882-1.234c.9-.232,1.395.814,1.386,2.652C-557.844-126.647-558.014-126.548-559.633-126.528Z" transform="translate(-561.962 -25.092)"/>
    <path id="Контур_125" data-name="Контур 125" d="M-450.358,149.129a2.153,2.153,0,0,1-2.07,1.989c-1.3.029-2.229-.673-2.252-1.707a2.134,2.134,0,0,1,2.159-2.186C-451.134,147.176-450.4,147.825-450.358,149.129Z" transform="translate(-639.569 -225.512)"/>
    <path id="Контур_126" data-name="Контур 126" d="M-403.8-81.125a1.754,1.754,0,0,1,1.976,1.942,2.127,2.127,0,0,1-2.295,2.041,2.081,2.081,0,0,1-1.853-2.009A2.065,2.065,0,0,1-403.8-81.125Z" transform="translate(-674.747 -60.579)"/>
    <path id="Контур_127" data-name="Контур 127" d="M-784.9-69.2c-.831-.593-2.5.02-2.365-1.54.079-.939-.19-2.529,1.341-2.71,1.354-.16,2.845.918,2.576,1.612C-783.7-70.92-783.56-69.62-784.9-69.2Z" transform="translate(-399.345 -66.114)"/>
    <path id="Контур_128" data-name="Контур 128" d="M-946.8,410.991c-1.017,1.008-1.693,2.216-2.395,2.231-.809.017-1.641-1.018-2.463-1.6.711-.713,1.321-1.787,2.164-2.02C-948.875,409.434-947.949,410.359-946.8,410.991Z" transform="translate(-280.606 -415.012)"/>
    <path id="Контур_129" data-name="Контур 129" d="M-395.6,291.663c.064,1.967-1.57,1.437-2.5,1.533-1.579.164-1.183-1.384-1.181-2.12,0-1.683,1.638-1.23,2.55-1.332C-395.407,289.6-395.788,290.9-395.6,291.663Z" transform="translate(-679.551 -328.444)"/>
    <path id="Контур_130" data-name="Контур 130" d="M-433.757,171.616c1.1-.626,2.04-1.585,2.779-1.451a2.7,2.7,0,0,1,1.665,2.128c-.1.7-1.5,1.82-2.1,1.693C-432.232,173.814-432.832,172.622-433.757,171.616Z" transform="translate(-654.681 -242.073)"/>
    <path id="Контур_131" data-name="Контур 131" d="M-256.934-164.19c-.675,1.176-1.026,2.617-1.866,3.007-.773.359-2.071-.412-3.2-.7l.818-2.305Z" transform="translate(-778.737 -0.583)"/>
    <path id="Контур_132" data-name="Контур 132" d="M-1013.772,155.945a2,2,0,0,1-2.112,1.92,1.787,1.787,0,0,1-1.9-1.64,2.093,2.093,0,0,1,2.045-2.016A1.9,1.9,0,0,1-1013.772,155.945Z" transform="translate(-232.842 -230.558)"/>
    <path id="Контур_133" data-name="Контур 133" d="M-626.575-47.3a3.954,3.954,0,0,1-.077-.961c.086-.537.134-1.416.423-1.519a4.41,4.41,0,0,1,2.578-.242c.4.121.57,1.232.667,1.921.033.232-.449.73-.75.779a25.3,25.3,0,0,1-2.724.182C-626.5-47.188-626.536-47.243-626.575-47.3Z" transform="translate(-515.346 -82.97)"/>
    <path id="Контур_134" data-name="Контур 134" d="M-177.1,470.637c-1.554-.142-1.445-1.373-1.5-2.205-.1-1.483,1.31-1.213,2.133-1.324,1.456-.2,1.437,1.222,1.486,2.016C-174.887,470.612-176.452,470.1-177.1,470.637Z" transform="translate(-838.976 -456.547)"/>
    <path id="Контур_135" data-name="Контур 135" d="M-421.255,77.381c1.443-.024,2.3.7,2.323,1.817a1.688,1.688,0,0,1-1.839,1.765,1.979,1.979,0,0,1-2.01-1.985A1.582,1.582,0,0,1-421.255,77.381Z" transform="translate(-662.607 -175.066)"/>
    <path id="Контур_136" data-name="Контур 136" d="M-569.646,317.091a1.671,1.671,0,0,1-1.935,1.648,1.643,1.643,0,0,1-1.857-1.733,1.768,1.768,0,0,1,1.848-1.793A1.885,1.885,0,0,1-569.646,317.091Z" transform="translate(-553.791 -346.848)"/>
    <path id="Контур_137" data-name="Контур 137" d="M-1281.609,614.741a1.594,1.594,0,0,1-1.716,1.618,1.863,1.863,0,0,1-1.983-1.841,1.692,1.692,0,0,1,1.726-1.782A1.926,1.926,0,0,1-1281.609,614.741Z" transform="translate(-39.617 -561.743)"/>
    <path id="Контур_138" data-name="Контур 138" d="M-553.477,69.989A1.993,1.993,0,0,1-555.63,68.3a1.871,1.871,0,0,1,1.838-1.836,1.825,1.825,0,0,1,1.884,1.787A1.62,1.62,0,0,1-553.477,69.989Z" transform="translate(-566.654 -167.178)"/>
    <path id="Контур_139" data-name="Контур 139" d="M-1121.644-21.061c-1.036-.023-1.886-.394-1.839-1.555a1.71,1.71,0,0,1,1.812-1.7,2.011,2.011,0,0,1,1.991,1.72A1.81,1.81,0,0,1-1121.644-21.061Z" transform="translate(-156.501 -101.611)"/>
    <path id="Контур_140" data-name="Контур 140" d="M-286.488,192.554a2.042,2.042,0,0,1,2.066,1.912,1.757,1.757,0,0,1-1.674,1.716,1.988,1.988,0,0,1-2.015-1.848A1.688,1.688,0,0,1-286.488,192.554Z" transform="translate(-759.879 -258.253)"/>
    <path id="Контур_141" data-name="Контур 141" d="M-207.3,617.823c.023.761-.549,1.374-1.643,1.462A1.835,1.835,0,0,1-210.8,617.6a1.616,1.616,0,0,1,1.674-1.781C-208.1,615.866-207.323,616.258-207.3,617.823Z" transform="translate(-815.722 -563.97)"/>
    <path id="Контур_142" data-name="Контур 142" d="M-351.656,220.377c-1.079-.016-2.011-.811-1.9-1.724a1.578,1.578,0,0,1,1.752-1.539c1.139.026,1.958.74,1.871,1.739A1.5,1.5,0,0,1-351.656,220.377Z" transform="translate(-712.605 -275.993)"/>
    <path id="Контур_143" data-name="Контур 143" d="M-580.021-13.722c-.037.9-.673,1.37-1.683,1.4-1.072.035-1.788-.409-1.833-1.57a1.443,1.443,0,0,1,1.562-1.674A1.733,1.733,0,0,1-580.021-13.722Z" transform="translate(-546.496 -107.932)"/>
    <path id="Контур_144" data-name="Контур 144" d="M-1045.638,49.8a1.365,1.365,0,0,1-1.5-1.493c-.03-1.16.656-1.667,1.725-1.7a1.471,1.471,0,0,1,1.728,1.524C-1043.632,49.32-1044.3,49.786-1045.638,49.8Z" transform="translate(-211.646 -152.842)"/>
    <path id="Контур_145" data-name="Контур 145" d="M-1321.585,388.282a1.529,1.529,0,0,1-1.687,1.534,1.618,1.618,0,0,1-1.765-1.717,1.538,1.538,0,0,1,1.672-1.646A1.736,1.736,0,0,1-1321.585,388.282Z" transform="translate(-10.922 -398.304)"/>
    <path id="Контур_146" data-name="Контур 146" d="M-312.62,313.423a1.763,1.763,0,0,1-1.766-1.751c-.009-1.033.815-1.46,1.8-1.463a1.558,1.558,0,0,1,1.748,1.684C-310.837,312.976-311.655,313.32-312.62,313.423Z" transform="translate(-740.901 -343.234)"/>
    <path id="Контур_147" data-name="Контур 147" d="M-664.53,153.818c-.488-.624-1.286-1.2-1.392-1.884-.155-1.005.695-1.507,1.7-1.514a1.656,1.656,0,0,1,1.831,1.626C-662.436,152.879-663.279,153.58-664.53,153.818Z" transform="translate(-486.979 -227.821)"/>
    <path id="Контур_148" data-name="Контур 148" d="M-1323.906,81.383a17.121,17.121,0,0,1,1.927-1.649c1.079-.679,1.514.5,2.123.975.185.145.075.987-.169,1.3C-1321.2,83.548-1321.5,83.489-1323.906,81.383Z" transform="translate(-11.739 -176.616)"/>
    <path id="Контур_149" data-name="Контур 149" d="M-233.538,482.093c-1.057-.095-1.873-.573-1.925-1.638a1.469,1.469,0,0,1,1.662-1.607,1.576,1.576,0,0,1,1.769,1.677C-232,481.57-232.6,482-233.538,482.093Z" transform="translate(-797.905 -465.04)"/>
    <path id="Контур_150" data-name="Контур 150" d="M-1301.952,571.413c-.945.747-1.786,1.836-2.266,1.695-.737-.217-1.225-1.279-1.818-1.982.678-.557,1.327-1.492,2.045-1.549C-1303.441,569.535-1302.8,570.6-1301.952,571.413Z" transform="translate(-24.646 -530.572)"/>
    <path id="Контур_151" data-name="Контур 151" d="M-872.53-34.427c-.045.88-.569,1.377-1.58,1.364-.944-.012-1.683-.392-1.724-1.393a1.526,1.526,0,0,1,1.421-1.73A1.834,1.834,0,0,1-872.53-34.427Z" transform="translate(-335.374 -93.032)"/>
    <path id="Контур_152" data-name="Контур 152" d="M-161.635,276.368c.829.134,1.768.275,1.753,1.443-.011.9-.455,1.664-1.475,1.624-.913-.037-1.71-.4-1.717-1.553A1.329,1.329,0,0,1-161.635,276.368Z" transform="translate(-850.193 -318.791)"/>
    <path id="Контур_153" data-name="Контур 153" d="M-826.267,100.369c-.808.849-1.278,1.741-1.922,1.891-.49.114-1.2-.714-1.812-1.123a8.079,8.079,0,0,1,1.642-2.038C-828.114,98.937-827.2,99.777-826.267,100.369Z" transform="translate(-368.48 -190.738)"/>
    <path id="Контур_154" data-name="Контур 154" d="M-632.081-42.182c.039.054.079.109.117.161a1.309,1.309,0,0,1-.04,2.13,1.975,1.975,0,0,1-1.82-.09,1.881,1.881,0,0,1-.444-1.584c.084-.527.578-.988.892-1.478Z" transform="translate(-509.84 -88.085)"/>
    <path id="Контур_155" data-name="Контур 155" d="M-913.99,55.147c-.035,1.671-1.077,1.683-1.788,1.7-1.2.021-.809-1.163-.909-1.795-.181-1.141,1.018-1.244,1.578-1.128C-914.584,54.027-914.213,54.881-913.99,55.147Z" transform="translate(-305.854 -158.093)"/>
    <path id="Контур_156" data-name="Контур 156" d="M-623.173,416.032c-.372-.518-.99-1-1.06-1.56-.122-.961.618-1.343,1.534-1.311.88.032,1.512.485,1.3,1.367-.134.564-.739,1.017-1.133,1.519Z" transform="translate(-517.094 -417.594)"/>
    <path id="Контур_157" data-name="Контур 157" d="M-691.391,57.345c-1.536.011-1.963-.633-2.047-1.567-.069-.765.3-1.106,1.092-1s1.888-.212,1.758,1.1C-690.646,56.464-691.191,57-691.391,57.345Z" transform="translate(-467.112 -158.726)"/>
    <path id="Контур_158" data-name="Контур 158" d="M-1157.162,380.734c.582-.358,1.2-1.041,1.734-.976.466.058,1.075.908,1.18,1.489.162.891-.641,1.367-1.409,1.223-.556-.1-1.02-.7-1.525-1.072Z" transform="translate(-132.162 -393.465)"/>
    <path id="Контур_159" data-name="Контур 159" d="M-542.457,186.115c.488-.362.948-.97,1.47-1.031a1.211,1.211,0,0,1,1.424,1.423c-.056.794-.461,1.41-1.294,1.224a5.841,5.841,0,0,1-1.615-.984Q-542.464,186.431-542.457,186.115Z" transform="translate(-576.159 -252.85)"/>
    <path id="Контур_160" data-name="Контур 160" d="M-199.868,94.243c-.914,0-1.384-.226-1.213-1.12a16.564,16.564,0,0,1,.357-1.884c.08-.253.454-.413.694-.615.208.262.607.538.589.783C-199.509,92.348-199.711,93.279-199.868,94.243Z" transform="translate(-822.715 -184.631)"/>
  </g>
</svg>
