<svg xmlns="http://www.w3.org/2000/svg" width="17.326" height="17.315" viewBox="0 0 17.326 17.315">
  <path id="Icon_awesome-redo" data-name="Icon awesome-redo" d="M17.476,0H15.847a.412.412,0,0,0-.412.432l.137,2.843a8.52,8.52,0,1,0-.781,11.844.412.412,0,0,0,.016-.6L13.64,13.352a.412.412,0,0,0-.563-.019A6.046,6.046,0,1,1,14.1,5.421l-3.488-.167a.412.412,0,0,0-.432.412V7.295a.412.412,0,0,0,.412.412h6.882a.412.412,0,0,0,.412-.412V.412A.412.412,0,0,0,17.476,0Z" transform="translate(-0.562 0)" opacity="0.5"/>
</svg>
