<svg xmlns="http://www.w3.org/2000/svg" width="11.137" height="15.205" viewBox="0 0 11.137 15.205">
  <g id="Сгруппировать_751" data-name="Сгруппировать 751" transform="translate(-1480 -440.112)">
    <path id="Контур_161" data-name="Контур 161" d="M4.118-33.52a5.467,5.467,0,0,1-.748-2.789A5.457,5.457,0,0,1,4.118-39.1a5.567,5.567,0,0,1,2.029-2.04,5.408,5.408,0,0,1,2.787-.752,5.448,5.448,0,0,1,2.792.75A5.547,5.547,0,0,1,13.76-39.1a5.459,5.459,0,0,1,.748,2.795,5.4,5.4,0,0,1-.444,2.161,5.655,5.655,0,0,1-1.192,1.779,5.648,5.648,0,0,1-1.778,1.193,5.39,5.39,0,0,1-2.159.445,5.419,5.419,0,0,1-2.787-.75A5.548,5.548,0,0,1,4.118-33.52Zm-.193,6.838v-2.51h9.893v2.51Zm2.824-11.8a2.953,2.953,0,0,0-.9,2.174,2.953,2.953,0,0,0,.9,2.174,2.983,2.983,0,0,0,2.186.895,2.983,2.983,0,0,0,2.186-.895,2.953,2.953,0,0,0,.9-2.174,2.953,2.953,0,0,0-.9-2.174,2.983,2.983,0,0,0-2.186-.895A2.983,2.983,0,0,0,6.748-38.483Z" transform="translate(1476.629 482)" fill="#fff"/>
    <circle id="Эллипс_9" data-name="Эллипс 9" cx="2.904" cy="2.904" r="2.904" transform="translate(1482.657 442.797)" fill="#fff"/>
  </g>
</svg>
