<svg xmlns="http://www.w3.org/2000/svg" xmlns:xlink="http://www.w3.org/1999/xlink" width="184" height="69" viewBox="0 0 184 69">
  <defs>
    <clipPath id="clip-path">
      <rect id="Прямоугольник_1098" data-name="Прямоугольник 1098" width="184" height="69" transform="translate(199 450)" fill="#fff" stroke="#707070" stroke-width="1"/>
    </clipPath>
  </defs>
  <g id="Группа_масок_25" data-name="Группа масок 25" transform="translate(-199 -450)" clip-path="url(#clip-path)">
    <g id="_1986226" data-name="1986226" transform="translate(110.195 951.98)" opacity="0.5">
      <path id="Контур_1517" data-name="Контур 1517" d="M237.858-501.643a10.643,10.643,0,0,0-.267,2.643l-.089,2.3-1.351,2.747c-.742,1.515-1.515,3.148-1.708,3.638l-.356.891-7.87-.059c-6.905-.045-7.9-.074-8.227-.282a8.336,8.336,0,0,0-1.648-.564,12.48,12.48,0,0,1-1.93-.653,9.261,9.261,0,0,1-3.148-3.594,15.3,15.3,0,0,0-1.292-1.975c-.282-.252-.861-.267-8.85-.238-6.385.015-8.613-.03-8.776-.163a6.581,6.581,0,0,0-1.752-.238l-1.559-.074-.252-.535c-.238-.475-.342-.535-.921-.579a2.521,2.521,0,0,1-.965-.252c-.238-.148-1.767-.238-6.326-.356-3.311-.089-6.846-.193-7.87-.238-3.772-.163-12.34-.119-12.518.059a1.4,1.4,0,0,1-.742.163,1.609,1.609,0,0,0-.95.3c-.535.416-.757.371-.98-.193a3.258,3.258,0,0,0-.742-.95c-.535-.475-.564-.475-2.124-.475-1.426,0-1.619-.03-1.93-.327a1.2,1.2,0,0,0-1.5-.1c-.3.267-1.277.371-4.886.5-2.079.089-2.45.059-2.747-.148a1.948,1.948,0,0,0-1.871.015,1.956,1.956,0,0,1-2.242-.3c-.579-.564-.846-.416-.683.4.119.7.535.98,1.648,1.084,1.426.134,1.693.639.312.564-.8-.03-1.307.193-1.307.624,0,.238-1.262.238-33.456.045-15.117-.074-22.572-.074-22.943.03a3.238,3.238,0,0,0-1.218.846c-.371.371-1.233,1.277-1.916,1.99-1.218,1.277-1.247,1.292-1.945,1.292a1.037,1.037,0,0,0-1.143.564c-.653.832-.683.921-.431,1.188.208.238.178.312-.282.906a4.514,4.514,0,0,0-.609.95,2.987,2.987,0,0,1-.431.728,2.225,2.225,0,0,0-.431,1.114c-.178,1.44.074,2.7,1.93,9.355.3,1.1.475,1.218,1.544,1.129a2.484,2.484,0,0,1,.891,0c0,.044-.1.549-.223,1.129-.252,1.188-.252,1.143.564,2.836a5.074,5.074,0,0,1,.668,2.183c.074,1.01.03,1.158-.906,3.163-.327.7-.965,2.3-1.44,3.564s-1.173,3.133-1.559,4.158c-2.183,5.762-2.138,5.613-1.841,6.653a4.983,4.983,0,0,0,1.633,2.51,17.889,17.889,0,0,0,2.138.95,6,6,0,0,0,3.341.639,6.74,6.74,0,0,0,2.6-.327c1.44-.535,1.559-.713,1.812-2.94a20.35,20.35,0,0,1,1.827-6.3c.49-.98,2.51-5.955,2.9-7.128a11.684,11.684,0,0,1,1.723-3.386,4.911,4.911,0,0,1,1.218-.861l.757-.386.223.3c.134.178.356.49.5.7a3.538,3.538,0,0,0,2.435,1.084c.5.03,2.985-.015,5.494-.1,4.188-.163,4.633-.208,5.242-.5a2.046,2.046,0,0,0,.98-.921l.3-.594.995-.045c.609-.03.995.015.995.1s.178.252.416.371c.4.208.4.223.4,1.812,0,1.411.03,1.619.267,1.663.327.059.342.015.549-2.331.178-1.812.223-2.02.594-2.45a2.8,2.8,0,0,0,.772-2.465l-.015-1.262.921.045a3.513,3.513,0,0,1,1.039.163,11.442,11.442,0,0,1,.4,1.812,62.143,62.143,0,0,0,8.019,20.255A90.769,90.769,0,0,0,130.361-446a82.938,82.938,0,0,0,12.8,11.865,12.588,12.588,0,0,1,1.47,1.143,1.145,1.145,0,0,0,.535.371,4.981,4.981,0,0,0,1.039-1.218c1.2-1.752,5.7-8.717,5.866-9.088a20.264,20.264,0,0,1,1.114-1.723l.98-1.4-.342-.282c-.193-.148-1.129-.772-2.064-1.4a31.429,31.429,0,0,1-7.469-6.385c-.861-.995-1.648-1.841-1.737-1.9a63.664,63.664,0,0,1-4.084-5.569,49.487,49.487,0,0,1-5.45-12.548,24.025,24.025,0,0,1-1.039-5.242c.059-.475.074-.475.906-.475.46,0,2.821-.074,5.272-.163l4.425-.148.772.728a4.945,4.945,0,0,0,1.351.936,9.169,9.169,0,0,0,4.009-.059,60.347,60.347,0,0,1,11.657-1.381,37.828,37.828,0,0,1,9.4.772,13.437,13.437,0,0,0,4.99.356,4.761,4.761,0,0,0,2.331-2.02c.193-.445.223-.46,1.426-.549.683-.059,2.406-.1,3.831-.119a31.871,31.871,0,0,0,3.415-.148c.445-.089,1.218-.193,1.708-.252.846-.1.906-.134,1.158-.668l.252-.549,9.623-.015c5.287-.015,9.712,0,9.831.015a.506.506,0,0,1,.342.238c.178.312,1.426.267,1.8-.074.3-.267.772-.267,14.568-.163,7.841.074,14.672.148,15.191.193.891.074.921.059.921-.267,0-.46.267-.624.327-.193.134.921.936-.089,1.1-1.411l.1-.7h1.752c2.094,0,2.064.03,2.064-1.812,0-1.737,0-1.737-2.079-1.782l-1.708-.045.059-6.029c.045-4.41.015-6.1-.119-6.341-.208-.386-1.054-.445-1.648-.1a1.73,1.73,0,0,1-1.752-.074C238.616-502.073,238.1-502.058,237.858-501.643Zm-85.386,2.227c.252.252-.059.713-.475.713a.484.484,0,0,1-.445-.238C151.358-499.445,152.071-499.816,152.472-499.415Zm-4.425.134a36.34,36.34,0,0,1-4.425.653c-.03-.015.03-.178.134-.356.223-.356.594-.4,2.955-.431C147.9-499.415,148.3-499.386,148.047-499.282Zm93.063,5.866a5.684,5.684,0,0,1-.045,2.391c-.03.148-.609.193-2.213.193-1.782,0-2.183-.045-2.242-.223-.089-.223.03-.564.668-2.064l.327-.728,1.663.1C240.531-493.668,240.977-493.594,241.11-493.416ZM197.987-491.6c7.276-.03,9.34.015,9.593.223.134.119.178.371.1.906a4.207,4.207,0,0,1-.134.787c-.03.03-3.668,0-8.063-.059l-8-.119-.045-.549-.045-.549-1.069-.045c-.861-.03-1.069-.089-1.114-.3s.134-.267,1.411-.3a15.363,15.363,0,0,1,1.648-.015C192.359-491.6,194.942-491.589,197.987-491.6Zm9.682,6.415c.609.683.52.683-6.4.787-3.564.059-7.826.1-9.444.1-2.777,0-2.94-.015-2.94-.282,0-.238.148-.282,1.114-.342a4.18,4.18,0,0,0,1.307-.238c.148-.134,2.376-.193,7.841-.223,4.2-.015,7.766-.044,7.945-.074A.835.835,0,0,1,207.669-485.189Zm22.23,0a3.7,3.7,0,0,0,1.856.015,11.787,11.787,0,0,1,1.411-.267c.624-.059.713-.03.95.327.252.386.267.386,1.53.3,1.322-.1,2.287.089,2,.371-.1.1-3.727.134-9.875.119l-9.712-.045-.045-.342c-.119-.817-.312-.787,5.42-.728A57.518,57.518,0,0,1,229.9-485.189Zm-15.1.579a.136.136,0,0,1-.03.193,13.207,13.207,0,0,1-3.163-.193A9.592,9.592,0,0,1,214.8-484.61Zm-105.983,5.925c.4.4.549,1.218.223,1.218-.208,0-.223.312-.119,3.074.1,3.089.1,3.089-.252,3.609a1.492,1.492,0,0,1-1.025.683c-.846.208-9.43.564-10.35.431-1.277-.193-2.034-.713-2.257-1.589-.148-.5-.119-.639.238-1.247a2.2,2.2,0,0,0,.312-1.737,2.244,2.244,0,0,0-.238-1.114,5.913,5.913,0,0,1,0-2.792c.089-.045.371.1.624.356a6.018,6.018,0,0,0,1.143.8c.713.371.876.609,1.366,1.975.52,1.47,2.539,3.148,3.638,3.015.386-.045.327-.1-.7-.787a3.454,3.454,0,0,1-1.515-1.544,2.971,2.971,0,0,1,.742-3.935c.564-.386.713-.416,3.029-.52C108-479,108.517-478.982,108.814-478.685Z" fill="#fff"/>
    </g>
  </g>
</svg>
