<svg xmlns="http://www.w3.org/2000/svg" width="28.663" height="37.884" viewBox="0 0 28.663 37.884">
    <path id="Icon_awesome-fist-raised" data-name="Icon awesome-fist-raised"
          d="M18.44,11.526V1.153A1.152,1.152,0,0,0,17.288,0H14.983A1.152,1.152,0,0,0,13.83,1.153V11.737a3.426,3.426,0,0,1,1.15-.211Zm9.221,6.915a4.611,4.611,0,0,0-4.61-4.61H14.973a1.142,1.142,0,0,0-1.145,1.142v.04a3.428,3.428,0,0,0,3.427,3.428h2.54c.7,0,.951.258.951.576v1.167a.592.592,0,0,1-.568.576c-3.207.164-4.622,1.78-6.919,5.226l-.455.682a.576.576,0,0,1-.8.16l-.959-.64a.576.576,0,0,1-.16-.8l.455-.682a20.388,20.388,0,0,1,3.408-4.184,4.635,4.635,0,0,1-2.8-2.482,3.414,3.414,0,0,1-1.575.4H8.068a3.433,3.433,0,0,1-2.305-.9,3.433,3.433,0,0,1-2.305.9H1.153A3.4,3.4,0,0,1,0,18.229v5.614a9.22,9.22,0,0,0,2.7,6.52l1.909,1.91v4.61H23.05V32.276l2.587-2.588A6.918,6.918,0,0,0,27.663,24.8Zm-2.306-6.49V3.458A1.152,1.152,0,0,0,24.2,2.305H21.9a1.152,1.152,0,0,0-1.153,1.153v8.068H23.05a6.827,6.827,0,0,1,2.305.425Zm-24.2,4.185H3.458A1.152,1.152,0,0,0,4.61,14.984V5.763A1.152,1.152,0,0,0,3.458,4.61H1.153A1.152,1.152,0,0,0,0,5.763v9.221A1.152,1.152,0,0,0,1.153,16.137Zm6.915,0h2.305a1.152,1.152,0,0,0,1.153-1.153V3.458a1.152,1.152,0,0,0-1.153-1.153H8.068A1.152,1.152,0,0,0,6.915,3.458V14.984a1.152,1.152,0,0,0,1.153,1.153Z"
          transform="translate(0.5 0.5)" fill="#fff" stroke="rgba(0,0,0,0)" stroke-width="1"/>
</svg>
