<svg xmlns="http://www.w3.org/2000/svg" xmlns:xlink="http://www.w3.org/1999/xlink" width="466.456" height="200" viewBox="0 0 466.456 200">
    <defs>
        <clipPath id="clip-path">
            <path id="path160" d="M466.456-200H0V0H466.456Z" transform="translate(0 200)"/>
        </clipPath>
    </defs>
    <g id="g156" opacity="0.5">
        <g id="g158" clip-path="url(#clip-path)">
            <g id="g164" transform="translate(89.751 24.115)">
                <path id="path166" d="M218.905,0h.083V-4.976l-.728-.008a13.19,13.19,0,0,1,.012,2.048A10.792,10.792,0,0,1,218.905,0M84.409,39.672H69.14c-9.56,8.073,1.147,16.411-.954,16.509s-4.59-1.917-6.024-4.975-.861-8.9-.861-9.853a2.513,2.513,0,0,0-.86-1.681H58.229c-1.669,0-3.245,3.5-3.245,3.5-1.549,3.151-3.144,6.552-4.721,10.012l8.1,4.965H72.95c4.393,0,6.121-.892,7.583-5.005s2.53-7.113,3.728-11.569a4.377,4.377,0,0,0,.148-1.905M35.294-23.951a1.272,1.272,0,0,0,1.269,1.273,1.271,1.271,0,0,0,1.269-1.273,1.268,1.268,0,0,0-1.269-1.268,1.269,1.269,0,0,0-1.269,1.268M252.922,5.757c0,2.235-.713,4.048-1.593,4.048H240.138v.048c0,3.8-7.1,2.9-7.1,2.9V9.805h-3.789c-.107.419-.227.843-.372,1.275h-7.714V9.847l-1.907-.025a11.374,11.374,0,0,1-2.488,4.976,1.219,1.219,0,0,1-.453.188l-90.639,8.929s-.3-2.221-.5-4.359a9.232,9.232,0,0,0-3.932,2.4c0,.031,0,.047,0,.047-.429.74-.865,1.443-1.3,2.116-.071.2-.136.4-.189.619,0,0-.068-.015-.189-.047l-.079.113.474,4.82,1.147.937.24,1.027L119.3,32.3c.16.851.263,1.381.263,1.381s5.992,35.647,27.919,73.653c0,0,.569.991-.96,1.884s-9.944,6.252-11.729,7.144a2.345,2.345,0,0,1-2.929-.633c-21.927-38.008-27.917-73.656-27.917-73.656l-1.6-3.339-2.424.4c-.849.191-1.613.293-1.92.331-.449,3.092-1.339,8.827-1.845,9.395-.694.777-1.03-.316-1.03-.316l.509-8.876H89.209a9.578,9.578,0,0,0-2.287,3.752c-1.6,4.631-3.729,10.66-5.058,13.605s-3.828,4.207-11.026,4.207H59.064c-4.075,0-3.552-3.252-8.2-3.5a11.4,11.4,0,0,0-2.713.137c-6.184,13.891-11.58,27.305-11.9,27.795-.537.9.319,3.143-.179,5.251-.219,2.267-2.745,1.475-2.745,1.475C26.717,90.856,11.542,79.83,9.676,78.509a2.608,2.608,0,0,1-.76-3.365c1.23-3.1,18.914-30.352,20.741-34.2C33.674,33.287,29.491,29,29.4,28.9A25.614,25.614,0,0,0,21.7,27a4.3,4.3,0,0,1-3.894-2.676v.588H4.553C1.874,25-.292,22.448-.292,23.98s-1.147,1.115-1.914,0c-.514-.745-4.067-6.323-6.353-9.908l-.047-.1h-.117c-2.236,0,0,2.829,2.083,4.692s3.2,5.512-1.566,6.181-5.21-1.564-5.21-4.544V11h3.373a.017.017,0,0,0-.005-.011h2.971v-.943h-5.695c-.129.313-.215.493-.215.493-11.267,0-10.968,28.676-14.23,34.42s-8.6,2.563-6.228-2.184C-27.81,24.973-31.664.535-31.664.535s-1.166-2.729,9.221-2.729h.007c2.247.025,4.826.343,7.966.343A3.24,3.24,0,0,1-11.509-.469V-.941h1.723V-4.384s4.2-6.176,5.823-8.912,2.58-2.869,5.463-2.869H18.684l.105.1h3.836s-.012-.615-.02-1.635c-.007-.879-.009-2.063,0-3.428a5.389,5.389,0,0,1,5.423-5.332h4.443a2.984,2.984,0,0,1-.007-.447,1.945,1.945,0,0,1,.716-1.609c5.346.86,10.575,4.4,10.575,4.4l-1.052,2.392h-1l-.009.029-1.271,4-.011.039,1.577,1.6h84.228l11.066,1.2h35.075c.452-1.917,2.615-3.373,5.23-3.373s4.779,1.456,5.231,3.373h20.632l1.359.708h14.947v-5.037c-1.718-5.929,0-12.371,0-12.371a19.575,19.575,0,0,1,6.057,0c3.89,5.037,3.061,12.371,3.061,12.371v5.037h-.2a12.57,12.57,0,0,1,.2,9.821V0a12.574,12.574,0,0,1,.492,1.713h3.669V-.649s6.39-.808,7.039,2.363h11.256c.88,0,1.593,1.812,1.593,4.044" transform="translate(34.032 31.792)" fill="#231f20"/>
            </g>
        </g>
    </g>
</svg>