<svg xmlns="http://www.w3.org/2000/svg" width="44.814" height="36.762" viewBox="0 0 44.814 36.762">
    <g id="Сгруппировать_758" data-name="Сгруппировать 758" transform="translate(0.001 0)">
        <g id="gun" transform="translate(-0.001 0)">
            <g id="Сгруппировать_740" data-name="Сгруппировать 740" transform="translate(8.385 2.626)">
                <g id="Сгруппировать_739" data-name="Сгруппировать 739">
                    <path id="Контур_35" data-name="Контур 35" d="M98.428,76,95.8,83.878h2.485L100.911,76Z"
                          transform="translate(-95.801 -76)" fill="#fff"/>
                </g>
            </g>
            <g id="Сгруппировать_742" data-name="Сгруппировать 742" transform="translate(13.638 0)">
                <g id="Сгруппировать_741" data-name="Сгруппировать 741">
                    <path id="Контур_36" data-name="Контур 36"
                          d="M185.682,48.626h-1.313V47.313a1.313,1.313,0,1,0-2.626,0v1.313h-23.3L155.819,56.5h31.176V49.939A1.312,1.312,0,0,0,185.682,48.626Z"
                          transform="translate(-155.819 -46)" fill="#fff"/>
                </g>
            </g>
            <g id="Сгруппировать_744" data-name="Сгруппировать 744" transform="translate(0 2.626)">
                <g id="Сгруппировать_743" data-name="Сгруппировать 743">
                    <path id="Контур_37" data-name="Контур 37"
                          d="M3.939,76a1.312,1.312,0,0,0-1.313,1.313,1.315,1.315,0,0,1-1.313,1.313A1.312,1.312,0,0,0,0,79.939v3.939H5.618L8.244,76Z"
                          transform="translate(0 -76)" fill="#fff"/>
                </g>
            </g>
            <g id="Сгруппировать_746" data-name="Сгруппировать 746" transform="translate(0 13.129)">
                <g id="Сгруппировать_745" data-name="Сгруппировать 745">
                    <path id="Контур_38" data-name="Контур 38"
                          d="M0,196v1.313a1.312,1.312,0,0,0,1.313,1.313,1.317,1.317,0,0,1,1.326,1.127L.459,215.136a3.933,3.933,0,0,0,3.883,4.5H9.506a3.952,3.952,0,0,0,3.908-3.439l.905-7.065h5.375a3.943,3.943,0,0,0,3.939-3.939v-3.939H38.25a1.313,1.313,0,0,0,1.174-.726L41.687,196Zm15.755,10.5a2.626,2.626,0,1,1,0-5.252h.087a6.121,6.121,0,0,0,.626,5.252Zm5.252-1.313a1.3,1.3,0,0,1-1.031,1.256,3.8,3.8,0,0,1-1.3-5.195h2.33Z"
                          transform="translate(0 -196)" fill="#fff"/>
                </g>
            </g>
        </g>
    </g>
</svg>
