<svg xmlns="http://www.w3.org/2000/svg" width="48.245" height="33.23" viewBox="0 0 48.245 33.23">
  <g id="Сгруппировать_747" data-name="Сгруппировать 747" transform="translate(0.5 0.499)">
    <path id="Контур_42" data-name="Контур 42" d="M1060.72,591.532h-1.652c-.688,1.7-.156,3.483-.429,5.245a6.512,6.512,0,0,1-2.229.377c-1.578,0-3.155-.005-4.733,0-1.033,0-1.026.016-1.42,1.012q-1.051,2.661-2.122,5.313c-.326.808-.732,1.038-1.572.737-.914-.328-1.785-.777-2.683-1.152-1.058-.442-2.12-.876-3.192-1.284-1.1-.42-1.241-.6-.829-1.724.791-2.153,1.746-4.246,2.634-6.364.524-1.251,1.07-2.492,1.557-3.757a3.264,3.264,0,0,0,.12-1.138q.013-5.051.007-10.1c0-.245-.013-.492.007-.736.053-.634.187-.76.855-.8.279-.018.561-.006.841-.006h26.2c.026-.661.047-1.24.07-1.82.033-.835.085-.9.906-.916.694-.015,1.389,0,2.2,0,.051.924.1,1.743.147,2.669.554.025,1.065.051,1.577.07.861.032,1.027.185,1.075,1.055.021.385.007.771.007,1.157q0,5.314,0,10.628c0,.246-.006.491-.009.736a.689.689,0,0,1-.794.76c-.21,0-.421,0-.631,0-1.858,0-3.716,0-5.575,0-.343,0-.685.03-1.073.049a3.026,3.026,0,0,0,.149,2.074,19.152,19.152,0,0,0,.947,2.078,12.255,12.255,0,0,0,3.557,3.5c.746.526.861.881.213,1.7-1.273,1.619-2.532,3.249-3.8,4.874-.107.138-.205.285-.325.412-.519.551-.85.651-1.453.17a46.658,46.658,0,0,1-3.652-3.145,16.444,16.444,0,0,1-3.756-6.223,12.61,12.61,0,0,1-.875-4.157A7.068,7.068,0,0,0,1060.72,591.532Zm11.364-7.9a49.465,49.465,0,0,0-9.09.056v1.5a49.276,49.276,0,0,0,9.09-.048Zm-17.023,7.92h-2.131l-.743,2.166a11.458,11.458,0,0,0,2.874-.042Zm-4.672-8.026v1.745h2.115v-1.745Z" transform="translate(-1036.138 -574.406)" fill="#fff" stroke="rgba(0,0,0,0)" stroke-width="1"/>
    <path id="Контур_43" data-name="Контур 43" d="M1023.176,621.406a32.789,32.789,0,0,1-.028-7.02c1.77-.145,3.568-.057,5.331-.057a30.8,30.8,0,0,1,.136,6.953A19.689,19.689,0,0,1,1023.176,621.406Z" transform="translate(-1022.974 -605.907)" fill="#fff" stroke="rgba(0,0,0,0)" stroke-width="1"/>
    <path id="Контур_44" data-name="Контур 44" d="M1235.438,605.07c0,1.19.017,2.38-.007,3.569-.016.756-.1.816-.871.845-.349.013-.7.01-1.049,0-1.041-.025-1.258-.246-1.274-1.333-.012-.874,0-1.749,0-2.624,0-1.294-.012-2.589.005-3.884.013-.946.252-1.177,1.178-1.21.384-.013.77-.014,1.154,0,.763.029.844.091.857.856C1235.454,602.551,1235.438,603.811,1235.438,605.07Z" transform="translate(-1188.198 -594.949)" fill="#fff" stroke="rgba(0,0,0,0)" stroke-width="1"/>
  </g>
</svg>
