<svg xmlns="http://www.w3.org/2000/svg" width="44.723" height="49.1" viewBox="0 0 44.723 49.1">
  <path id="Объединение_4" data-name="Объединение 4" d="M-16888.971-23192.564c.045-.047.172-.178.3-.3q5.206-5,10.41-10.01a1.169,1.169,0,0,1,.9-.359c1.471.012,2.947,0,4.439,0,0-1.5.014-2.883-.012-4.266a1.058,1.058,0,0,1,.379-.859q10.148-9.738,20.291-19.477a4.476,4.476,0,0,1,.574-.395c-.947-.857-1.779-1.617-2.592-2.354.477-.445.877-.82,1.3-1.219.74.738,1.529,1.533,2.313,2.32.881-.859,1.688-1.643,2.459-2.393.9.867,1.713,1.656,2.523,2.439q-6.7,6.437-13.631,13.09c.506.385.947.725,1.414,1.088-.828,1.012-1.559,1.9-2.287,2.793s-1.5,1.8-2.219,2.727a1.172,1.172,0,0,0-.24.664c-.018,2.256-.008,4.516-.012,6.775v.6c-.2.008-.383.021-.564.021-1.494,0-2.986.012-4.48,0a.536.536,0,0,0-.6.393q-.926,2.35-1.9,4.686a3.963,3.963,0,0,1-.568.979c-3.178,3.828-6.361,7.646-9.5,11.418C-16883.164-23186.986-16886.055-23189.768-16888.971-23192.564Zm21.457-10.838h3.064v-3.869C-16865.492-23205.93-16866.594-23204.791-16867.514-23203.4Zm-11.486-5.748q6.188-5.941,12.385-11.9c.766.74,1.576,1.518,2.348,2.26q-6.173,5.93-12.383,11.893C-16877.418-23207.635-16878.229-23208.41-16879-23209.15Z" transform="translate(16889.678 23232.572)" fill="#fff" stroke="rgba(0,0,0,0)" stroke-width="1"/>
</svg>
