<svg xmlns="http://www.w3.org/2000/svg" xmlns:xlink="http://www.w3.org/1999/xlink" width="60.837" height="54.983" viewBox="0 0 60.837 54.983">
  <defs>
    <filter id="Вычитание_106" x="0" y="0" width="60.837" height="54.983" filterUnits="userSpaceOnUse">
      <feOffset input="SourceAlpha"/>
      <feGaussianBlur stdDeviation="5" result="blur"/>
      <feFlood/>
      <feComposite operator="in" in2="blur"/>
      <feComposite in="SourceGraphic"/>
    </filter>
  </defs>
  <g transform="matrix(1, 0, 0, 1, 0, 0)" filter="url(#Вычитание_106)">
    <path id="Вычитание_106-2" data-name="Вычитание 106" d="M12.666,24.983l-.053,0c-2.841-.279-5.053-2.017-6.576-5.165a22.437,22.437,0,0,1-1.876-7.03l-3.2,3.109a.553.553,0,0,1-.566.121.525.525,0,0,1-.35-.449,9.985,9.985,0,0,1,.993-5.419A9.59,9.59,0,0,1,3.479,7.11H1.413a1.05,1.05,0,0,1-1-.682A1,1,0,0,1,.734,5.285C5.089,1.778,9.411,0,13.581,0a14.045,14.045,0,0,1,6.643,1.644,13.007,13.007,0,0,1,3.053,2.2l.12-.007c.06,0,.121-.008.184-.008a10.668,10.668,0,0,1,3.215.542,6.073,6.073,0,0,1,3.606,3.3,8.251,8.251,0,0,1-.319,5.911.54.54,0,0,1-.49.306.5.5,0,0,1-.073,0,.53.53,0,0,1-.46-.436c-.215-1.33-1.057-1.923-2.729-1.923a10.769,10.769,0,0,0-1.942.206A16.98,16.98,0,0,1,21.616,12a33.788,33.788,0,0,0-4.491,3.29,6.172,6.172,0,0,0,.043,5.566.511.511,0,0,1-.041.563.55.55,0,0,1-.433.208.573.573,0,0,1-.111-.011c-1.818-.38-4-2.438-5.142-3.632.021,4.549,1.585,6.084,1.6,6.1a.514.514,0,0,1,.109.6A.543.543,0,0,1,12.666,24.983ZM17.4,2.923a1.222,1.222,0,1,0,1.259,1.221A1.242,1.242,0,0,0,17.4,2.923Z" transform="translate(15 15)" fill="#fff"/>
  </g>
</svg>
