<svg xmlns="http://www.w3.org/2000/svg" xmlns:xlink="http://www.w3.org/1999/xlink" width="21.042" height="28.057" viewBox="0 0 21.042 28.057">
  <defs>
    <linearGradient id="linear-gradient" x1="0.5" x2="0.5" y2="1" gradientUnits="objectBoundingBox">
      <stop offset="0" stop-color="#c373f3"/>
      <stop offset="1" stop-color="#dda4ff"/>
    </linearGradient>
  </defs>
  <path id="Icon_awesome-fist-raised" data-name="Icon awesome-fist-raised" d="M14.027,8.768V.877A.877.877,0,0,0,13.15,0H11.4a.877.877,0,0,0-.877.877V8.928a2.606,2.606,0,0,1,.875-.161Zm7.014,5.26a3.507,3.507,0,0,0-3.507-3.507H11.39a.869.869,0,0,0-.871.869v.031a2.608,2.608,0,0,0,2.607,2.608h1.932c.53,0,.723.2.723.438v.888a.45.45,0,0,1-.432.438c-2.44.125-3.516,1.354-5.263,3.976l-.346.519a.438.438,0,0,1-.608.122L8.4,19.922a.438.438,0,0,1-.122-.608l.346-.519a15.509,15.509,0,0,1,2.593-3.183,3.526,3.526,0,0,1-2.13-1.888,2.6,2.6,0,0,1-1.2.3H6.137a2.611,2.611,0,0,1-1.754-.684,2.611,2.611,0,0,1-1.754.684H.877A2.59,2.59,0,0,1,0,13.867v4.27A7.013,7.013,0,0,0,2.054,23.1L3.507,24.55v3.507H17.534v-3.5L19.5,22.583a5.263,5.263,0,0,0,1.541-3.721ZM19.287,9.091V2.63a.877.877,0,0,0-.877-.877H16.657a.877.877,0,0,0-.877.877V8.768h1.754a5.193,5.193,0,0,1,1.754.323ZM.877,12.275H2.63a.877.877,0,0,0,.877-.877V4.384a.877.877,0,0,0-.877-.877H.877A.877.877,0,0,0,0,4.384V11.4A.877.877,0,0,0,.877,12.275Zm5.26,0H7.89a.877.877,0,0,0,.877-.877V2.63a.877.877,0,0,0-.877-.877H6.137a.877.877,0,0,0-.877.877V11.4a.877.877,0,0,0,.877.877Z" fill="url(#linear-gradient)"/>
</svg>
