<svg xmlns="http://www.w3.org/2000/svg" width="23.34" height="19.45" viewBox="0 0 23.34 19.45">
  <g id="Сгруппировать_2296" data-name="Сгруппировать 2296" transform="translate(0 0)">
    <path id="Контур_1" data-name="Контур 1" d="M21.395,45.584H16.532v-.973a1.947,1.947,0,0,0-1.945-1.945H8.752a1.947,1.947,0,0,0-1.945,1.945v.972H1.945A1.947,1.947,0,0,0,0,47.528v2.917a1.947,1.947,0,0,0,1.945,1.945h7.78V51.9a.486.486,0,0,1,.486-.486h2.917a.486.486,0,0,1,.486.486v.486h7.78a1.947,1.947,0,0,0,1.945-1.945V47.528A1.947,1.947,0,0,0,21.395,45.584Zm-6.807,0H8.752v-.973h5.835Z" transform="translate(0 -42.666)" fill="#fff"/>
    <path id="Контур_2" data-name="Контур 2" d="M23.07,266.435a.487.487,0,0,0-.51.048,1.92,1.92,0,0,1-1.165.4h-7.78v1.459a.486.486,0,0,1-.486.486H10.211a.486.486,0,0,1-.486-.486v-1.459H1.945a1.92,1.92,0,0,1-1.165-.4.486.486,0,0,0-.78.388v6.82a1.947,1.947,0,0,0,1.945,1.945h19.45a1.947,1.947,0,0,0,1.945-1.945v-6.82A.486.486,0,0,0,23.07,266.435Z" transform="translate(0 -256.185)" fill="#fff"/>
  </g>
</svg>
