<svg xmlns="http://www.w3.org/2000/svg" width="27.857" height="19.5" viewBox="0 0 27.857 19.5">
    <path id="Icon_awesome-car-side" data-name="Icon awesome-car-side"
          d="M23.679,9.214h-.7L18.247,3.3A2.787,2.787,0,0,0,16.072,2.25H6.761A2.785,2.785,0,0,0,4.175,4L2.089,9.313A2.779,2.779,0,0,0,0,12v4.875a.7.7,0,0,0,.7.7H2.786a4.179,4.179,0,1,0,8.357,0h5.571a4.179,4.179,0,0,0,8.357,0h2.089a.7.7,0,0,0,.7-.7V13.393A4.179,4.179,0,0,0,23.679,9.214ZM6.964,19.661a2.089,2.089,0,1,1,2.089-2.089A2.092,2.092,0,0,1,6.964,19.661ZM10.1,9.214H5.09L6.761,5.036H10.1Zm2.089,0V5.036h3.884l3.343,4.179Zm8.705,10.446a2.089,2.089,0,1,1,2.089-2.089A2.092,2.092,0,0,1,20.893,19.661Z"
          transform="translate(0 -2.25)" fill="#ffffff"/>
</svg>
