<svg xmlns="http://www.w3.org/2000/svg" xmlns:xlink="http://www.w3.org/1999/xlink" width="37.604" height="33.088" viewBox="0 0 37.604 33.088">
  <defs>
    <linearGradient id="linear-gradient" x1="0.5" x2="0.5" y2="1" gradientUnits="objectBoundingBox">
      <stop offset="0" stop-color="#ffef84"/>
      <stop offset="1" stop-color="#d4c357"/>
    </linearGradient>
  </defs>
  <g id="Сгруппировать_1854" data-name="Сгруппировать 1854" transform="translate(0 0)">
    <path id="Вычитание_86" data-name="Вычитание 86" d="M31.957,0H10.451L9,3.232,0,23.2,12.647,19.32l12.571,2.946a7.486,7.486,0,0,1,9.777-2.018L31.957,0Z" transform="translate(37.604 33.088) rotate(180)" fill="url(#linear-gradient)"/>
    <path id="Вычитание_85" data-name="Вычитание 85" d="M6.373,0A6.374,6.374,0,0,0,3.892,12.244,6.374,6.374,0,0,0,8.854.5,6.333,6.333,0,0,0,6.373,0Zm0,10.148a3.776,3.776,0,1,1,3.776-3.776A3.781,3.781,0,0,1,6.373,10.148Z" transform="translate(12.746 12.745) rotate(180)" fill="url(#linear-gradient)"/>
  </g>
</svg>
