<svg xmlns="http://www.w3.org/2000/svg" xmlns:xlink="http://www.w3.org/1999/xlink" width="35.217" height="38.573" viewBox="0 0 35.217 38.573">
  <defs>
    <linearGradient id="linear-gradient" x1="0.5" x2="0.5" y2="1" gradientUnits="objectBoundingBox">
      <stop offset="0" stop-color="#ffef84"/>
      <stop offset="1" stop-color="#d4c357"/>
    </linearGradient>
  </defs>
  <g id="Сгруппировать_2461" data-name="Сгруппировать 2461" transform="translate(2818.357 3368.398)">
    <path id="Контур_1530" data-name="Контур 1530" d="M-2785.335-3270.286c1.965.535,1.772,1.48,1.66,3.114a2.467,2.467,0,0,1-2.569,2.11q-10.548.008-21.1,0c-2.553,0-5.107-.019-7.66.005-2.66.026-3.219-2.53-2.606-4.183a1.734,1.734,0,0,1,1.527-1.008c.341-2.288.672-4.58,1.028-6.868a59.474,59.474,0,0,1,.985-5.867,13.738,13.738,0,0,1,13.785-10.266,13.769,13.769,0,0,1,13.178,11.2c.6,3.179.972,6.4,1.448,9.6C-2785.551-3271.721-2785.442-3271-2785.335-3270.286Zm-16.2-1.277c-.138.781.07,1.193.661,1.338s1.855-.768,1.874-1.371a.678.678,0,0,1,.427-.655,4.27,4.27,0,0,0,2.083-4.244,4.066,4.066,0,0,0-3.383-3.269,13.987,13.987,0,0,1-1.724-.262,1.546,1.546,0,0,1-.9-2.472,2.282,2.282,0,0,1,2.452-.705,1.788,1.788,0,0,1,1.505,1.692,1.032,1.032,0,0,0,1.166,1.037,1.053,1.053,0,0,0,.917-1.216,4.265,4.265,0,0,0-2.137-3.553c-.145-.093-.374-.247-.365-.357.06-.742-.555-.984-.973-1.35a1,1,0,0,0-1.216-.184.924.924,0,0,0-.413,1.086c.076.435-.083.656-.541.794a3.918,3.918,0,0,0-2.391,1.9,3.964,3.964,0,0,0,3.5,5.738,4.942,4.942,0,0,1,1.113.143,1.666,1.666,0,0,1,1.247,2.065,2.188,2.188,0,0,1-2.334,1.21,1.92,1.92,0,0,1-1.883-1.615c-.116-.837-.514-1.246-1.153-1.183s-1.03.645-.933,1.451a3.812,3.812,0,0,0,2.771,3.308C-2801.688-3272.066-2801.451-3271.88-2801.539-3271.563Z" transform="translate(0 -65.271)" stroke="rgba(0,0,0,0)" stroke-width="1" fill="url(#linear-gradient)"/>
    <path id="Контур_1531" data-name="Контур 1531" d="M-2729.069-3360.26a12.935,12.935,0,0,1-2-.018,4.008,4.008,0,0,1-2.965-2.095c-.542-.965-1.081-1.933-1.594-2.914a1.693,1.693,0,0,1,1.556-2.611q5.049-.011,10.1,0a1.67,1.67,0,0,1,1.572,2.479,36.573,36.573,0,0,1-1.817,3.29,3.965,3.965,0,0,1-3.468,1.909c-.46.008-.92,0-1.38,0Z" transform="translate(-71.655)" stroke="rgba(0,0,0,0)" stroke-width="1" fill="url(#linear-gradient)"/>
  </g>
</svg>
