<svg xmlns="http://www.w3.org/2000/svg" width="27.002" height="24.002" viewBox="0 0 27.002 24.002">
  <path id="Icon_awesome-hand-holding-heart" data-name="Icon awesome-hand-holding-heart" d="M12.9,11.742a.817.817,0,0,0,1.2,0l5.1-5.353A3.886,3.886,0,0,0,18.943.82a3.563,3.563,0,0,0-4.917.361l-.525.548-.52-.544A3.559,3.559,0,0,0,8.063.82,3.89,3.89,0,0,0,7.8,6.389ZM26.5,15.38a1.552,1.552,0,0,0-2,0l-4.331,3.464A2.984,2.984,0,0,1,18.3,19.5H12.75a.75.75,0,0,1,0-1.5h3.67a1.561,1.561,0,0,0,1.561-1.247A1.5,1.5,0,0,0,16.5,15H9a5.517,5.517,0,0,0-3.474,1.233L3.347,18H.75a.752.752,0,0,0-.75.75v4.5A.752.752,0,0,0,.75,24H17.475a3,3,0,0,0,1.875-.656l7.088-5.672A1.5,1.5,0,0,0,26.5,15.38Z" transform="translate(0 0.002)" fill="#fff"/>
</svg>
