<svg xmlns="http://www.w3.org/2000/svg" xmlns:xlink="http://www.w3.org/1999/xlink" width="28.499" height="25.367" viewBox="0 0 28.499 25.367">
  <defs>
    <filter id="Контур_3" x="0" y="0" width="28.499" height="25.367" filterUnits="userSpaceOnUse">
      <feOffset dy="1" input="SourceAlpha"/>
      <feGaussianBlur stdDeviation="1.5" result="blur"/>
      <feFlood flood-opacity="0.329"/>
      <feComposite operator="in" in2="blur"/>
      <feComposite in="SourceGraphic"/>
    </filter>
  </defs>
  <g transform="matrix(1, 0, 0, 1, 0, 0)" filter="url(#Контур_3)">
    <path id="Контур_3-2" data-name="Контур 3" d="M2.909,5.305l9.875-15.7h4.259L7.179,5.305ZM3.665-7.509a1.091,1.091,0,0,0-.307.816,1.11,1.11,0,0,0,.307.821,1.11,1.11,0,0,0,.821.307A1.091,1.091,0,0,0,5.3-5.873a1.121,1.121,0,0,0,.3-.821,1.1,1.1,0,0,0-.3-.816,1.1,1.1,0,0,0-.816-.3A1.121,1.121,0,0,0,3.665-7.509Zm3.826-2A3.807,3.807,0,0,1,8.745-6.688,3.807,3.807,0,0,1,7.491-3.864a4.175,4.175,0,0,1-3.005,1.21,4.175,4.175,0,0,1-3.005-1.21A3.807,3.807,0,0,1,.227-6.688,3.807,3.807,0,0,1,1.481-9.513a4.175,4.175,0,0,1,3.005-1.21A4.175,4.175,0,0,1,7.491-9.513Zm8.8,11.933a1.091,1.091,0,0,0,.307-.816,1.091,1.091,0,0,0-.307-.816,1.121,1.121,0,0,0-.821-.3,1.1,1.1,0,0,0-.816.3,1.1,1.1,0,0,0-.3.816,1.1,1.1,0,0,0,.3.816,1.1,1.1,0,0,0,.816.3A1.121,1.121,0,0,0,16.288,2.421ZM12.467,4.435a3.8,3.8,0,0,1,0-5.655,4.177,4.177,0,0,1,3.005-1.215,4.158,4.158,0,0,1,3,1.215,3.815,3.815,0,0,1,0,5.655,4.168,4.168,0,0,1-3,1.21A4.187,4.187,0,0,1,12.467,4.435Z" transform="translate(4.27 14.22)" fill="#fff"/>
  </g>
</svg>
