<svg xmlns="http://www.w3.org/2000/svg" xmlns:xlink="http://www.w3.org/1999/xlink" width="40.627" height="47.683" viewBox="0 0 40.627 47.683">
  <defs>
    <filter id="Вычитание_112" x="0" y="0" width="40.626" height="47.683" filterUnits="userSpaceOnUse">
      <feOffset input="SourceAlpha"/>
      <feGaussianBlur stdDeviation="2" result="blur"/>
      <feFlood/>
      <feComposite operator="in" in2="blur"/>
      <feComposite in="SourceGraphic"/>
    </filter>
    <filter id="Контур_2384" x="6.146" y="6.512" width="34.482" height="34.658" filterUnits="userSpaceOnUse">
      <feOffset input="SourceAlpha"/>
      <feGaussianBlur stdDeviation="2" result="blur-2"/>
      <feFlood/>
      <feComposite operator="in" in2="blur-2"/>
      <feComposite in="SourceGraphic"/>
    </filter>
  </defs>
  <g id="Сгруппировать_2482" data-name="Сгруппировать 2482" transform="translate(-13.62 -1142.748)">
    <g transform="matrix(1, 0, 0, 1, 13.62, 1142.75)" filter="url(#Вычитание_112)">
      <path id="Вычитание_112-2" data-name="Вычитание 112" d="M18.277,35.683h0c-.582,0-1.184-.023-1.791-.069a17.683,17.683,0,0,1-12.02-6.253A17.024,17.024,0,0,1,.07,19.193a16.987,16.987,0,0,1,1.381-8.545A18.92,18.92,0,0,1,6.828,3.893,16.987,16.987,0,0,1,15.578.2C16.2.121,16.84.089,17.459.059c.254-.012.539-.026.822-.045.2-.009.406-.014.607-.014a17.609,17.609,0,0,1,9.738,3.239V5.43A16.693,16.693,0,0,0,18.414,1.635c-.111,0-.225,0-.336,0C10.367,1.631,2.025,8.079,1.9,17.678,1.775,27.1,10.324,33.893,18.074,34.1q.205.005.4.005a16.139,16.139,0,0,0,10.148-3.7v2.212A17.924,17.924,0,0,1,18.277,35.683Z" transform="translate(6 6)" fill="#fff"/>
    </g>
    <g id="Сгруппировать_2481" data-name="Сгруппировать 2481" transform="translate(25.766 1155.259)">
      <g transform="matrix(1, 0, 0, 1, -12.15, -12.51)" filter="url(#Контур_2384)">
        <path id="Контур_2384-2" data-name="Контур 2384" d="M3.156,113.795c.128-.072.227-.125.324-.181l3.471-2.006a.863.863,0,0,1,1.246.329q1.284,2.222,2.565,4.446a.86.86,0,0,1-.354,1.276l-3.6,2.077c-.045.026-.088.057-.156.1.188.111.356.213.526.311l3.253,1.875a.858.858,0,0,1,.34,1.241Q9.49,125.5,8.2,127.726a.866.866,0,0,1-1.259.329q-1.8-1.04-3.6-2.078c-.051-.029-.1-.055-.188-.1v.233q0,2.052,0,4.1a.862.862,0,0,1-.943.948H-2.852a.865.865,0,0,1-.959-.95q0-2.052,0-4.1v-.225c-.067.032-.114.052-.158.077q-1.8,1.037-3.6,2.077a.873.873,0,0,1-1.308-.345q-1.275-2.207-2.547-4.415a.861.861,0,0,1,.351-1.265q1.807-1.042,3.613-2.086c.041-.024.081-.05.143-.089-.054-.037-.094-.068-.137-.093q-1.8-1.04-3.6-2.078a.863.863,0,0,1-.357-1.3q1.276-2.217,2.556-4.431a.864.864,0,0,1,1.247-.325l3.629,2.095c.041.024.084.045.164.088v-.245q0-2.052,0-4.1a.86.86,0,0,1,.934-.938H2.207a.862.862,0,0,1,.95.941q0,2.052,0,4.1Zm-4.285,3.547c0-.218-.014-.411,0-.6a.4.4,0,0,0-.244-.426,1.119,1.119,0,0,1-.551-1.3,1.538,1.538,0,0,1,1.465-1.144,4.422,4.422,0,0,1,1.211.194c.388.089.779.168,1.172.228.329.051.426-.082.316-.4a1.448,1.448,0,0,0-.124-.261,2.01,2.01,0,0,0-1.973-.932,3.473,3.473,0,0,0-2.6,1.324,1.8,1.8,0,0,0-.142,2.288A3.918,3.918,0,0,0-1.128,117.342Zm1.292-3.2a2.288,2.288,0,0,0-.914-.012c-.179.033-.242.107-.237.3.045,1.807.079,3.614.117,5.421,0,.056.01.112.018.2.275-.163.516-.311.763-.45a.251.251,0,0,0,.136-.249c.011-.665.031-1.33.046-1.994C.115,116.291.139,115.228.163,114.14Zm.159,3.091a.416.416,0,0,0-.035.075c-.01.218-.028.435-.022.653a.352.352,0,0,0,.1.2c.111.118.25.211.355.334a.462.462,0,0,1,.018.659,2.216,2.216,0,0,1-.487.455c-.45.294-.919.557-1.376.838a2.52,2.52,0,0,0-.838.707.779.779,0,0,0,0,.932,2.1,2.1,0,0,0,1.034.64c.023-.333.061-.646-.34-.76a.312.312,0,0,1-.089-.061c-.229-.174-.255-.336-.032-.518a7.5,7.5,0,0,1,.779-.525c.531-.332,1.094-.62,1.594-.993a1.242,1.242,0,0,0,.114-2.018A9.506,9.506,0,0,0,.322,117.232Zm-.364,3.562c-.2.111-.419.24-.645.352a.247.247,0,0,0-.148.271c.029,1.052.05,2.1.074,3.155,0,.033.006.066.01.1.429-.2.816-.407.706-.976a1.273,1.273,0,0,1,0-.235C-.042,122.577-.042,121.689-.042,120.794Zm-.764,6.379c-.027-.25,0-.483-.247-.605a.392.392,0,0,1-.1-.1c-.231-.263-.242-.457.016-.69a6.542,6.542,0,0,1,.713-.526c.359-.245.732-.471,1.085-.724a1.181,1.181,0,0,0,.469-.63A1.171,1.171,0,0,0,.1,122.607c-.046.285-.084.564.286.677a.451.451,0,0,1,.158.12.345.345,0,0,1,.054.516,1.932,1.932,0,0,1-.381.383c-.291.215-.606.4-.9.614a6.984,6.984,0,0,0-.8.651.7.7,0,0,0-.142.868A1.993,1.993,0,0,0-.806,127.172Zm.712-1.881c-.189.119-.344.222-.506.316a.236.236,0,0,0-.133.248c.055.825.1,1.65.156,2.475.007.107.035.217.171.213.12,0,.149-.1.155-.206.051-.855.1-1.71.155-2.566C-.087,125.624-.094,125.475-.094,125.291Zm-.921-12.606c.381-.066.741-.134,1.1-.188.11-.016.121-.074.122-.16,0-.326.014-.652.015-.979,0-.178-.083-.252-.262-.235a1.073,1.073,0,0,0-.785.431A1.609,1.609,0,0,0-1.016,112.684Zm1,14.52c-.051.383-.123.309.229.422.263.085.537.134.808.195.1.023.2.035.3.051l.009-.04Z" transform="translate(23.71 -95.99)" fill="#fff"/>
      </g>
      <path id="Контур_2385" data-name="Контур 2385" d="M227.848,228.751a3.917,3.917,0,0,1-1.468-1.024,1.8,1.8,0,0,1,.142-2.288,3.473,3.473,0,0,1,2.6-1.324,2.01,2.01,0,0,1,1.973.932,1.448,1.448,0,0,1,.124.261c.111.316.013.449-.316.4-.393-.061-.784-.14-1.172-.228a4.42,4.42,0,0,0-1.211-.194,1.538,1.538,0,0,0-1.465,1.144,1.119,1.119,0,0,0,.551,1.3.4.4,0,0,1,.244.426C227.834,228.34,227.848,228.533,227.848,228.751Zm2.6-3.677c.024-.033.106-.095.115-.166.02-.159-.217-.341-.405-.328-.107.007-.186.051-.178.177A.435.435,0,0,0,230.452,225.074Z" transform="translate(-217.409 -219.914)" fill="#ff2c2c"/>
      <path id="Контур_2386" data-name="Контур 2386" d="M280.922,262.318c-.024,1.087-.048,2.151-.072,3.214-.015.665-.035,1.329-.046,1.994a.251.251,0,0,1-.136.249c-.247.139-.488.287-.763.45-.008-.086-.017-.142-.018-.2-.038-1.807-.072-3.614-.117-5.421,0-.192.058-.266.237-.3A2.287,2.287,0,0,1,280.922,262.318Z" transform="translate(-269.191 -256.682)" fill="#ff2c2c"/>
      <path id="Контур_2387" data-name="Контур 2387" d="M251.165,348.833a9.508,9.508,0,0,1,.777.622,1.242,1.242,0,0,1-.114,2.018c-.5.372-1.063.661-1.594.993a7.49,7.49,0,0,0-.779.525c-.223.182-.2.344.032.518a.312.312,0,0,0,.089.061c.4.114.363.427.34.76a2.1,2.1,0,0,1-1.034-.64.779.779,0,0,1,0-.932,2.519,2.519,0,0,1,.838-.707c.458-.281.927-.545,1.376-.838a2.217,2.217,0,0,0,.487-.455.462.462,0,0,0-.018-.659c-.1-.123-.243-.216-.355-.334a.352.352,0,0,1-.1-.2c-.005-.217.013-.435.022-.653A.418.418,0,0,1,251.165,348.833Z" transform="translate(-239.275 -340.106)" fill="#ff2c2c"/>
      <path id="Контур_2388" data-name="Контур 2388" d="M284.776,446.928c0,.9,0,1.783,0,2.671a1.274,1.274,0,0,0,0,.235c.11.569-.277.778-.706.976,0-.038-.01-.071-.01-.1-.024-1.052-.046-2.1-.074-3.155a.247.247,0,0,1,.148-.271C284.357,447.168,284.574,447.039,284.776,446.928Z" transform="translate(-273.25 -434.639)" fill="#ff2c2c"/>
      <path id="Контур_2389" data-name="Контур 2389" d="M260.711,501.424a1.993,1.993,0,0,1-.816-.736.7.7,0,0,1,.142-.868,6.98,6.98,0,0,1,.8-.651c.292-.215.606-.4.9-.615a1.933,1.933,0,0,0,.381-.383.345.345,0,0,0-.054-.516.451.451,0,0,0-.158-.12c-.37-.113-.333-.392-.286-.677a1.033,1.033,0,0,1,.559,1.918c-.354.253-.726.479-1.085.724a6.548,6.548,0,0,0-.713.526c-.258.233-.247.427-.016.69a.391.391,0,0,0,.1.1C260.715,500.942,260.684,501.174,260.711,501.424Z" transform="translate(-249.95 -482.757)" fill="#ff2c2c"/>
      <path id="Контур_2390" data-name="Контур 2390" d="M287.435,570.783c0,.184.007.333,0,.481-.05.855-.1,1.71-.155,2.566-.006.108-.035.2-.155.206-.136,0-.164-.105-.171-.213-.053-.825-.1-1.65-.156-2.475a.236.236,0,0,1,.133-.248C287.091,571.005,287.247,570.9,287.435,570.783Z" transform="translate(-275.962 -553.997)" fill="#ff2c2c"/>
      <path id="Контур_2391" data-name="Контур 2391" d="M278.632,182.094a1.61,1.61,0,0,1,.193-1.131,1.073,1.073,0,0,1,.785-.431c.18-.017.263.057.262.235,0,.326-.01.652-.015.979,0,.085-.012.143-.122.16C279.373,181.96,279.013,182.027,278.632,182.094Z" transform="translate(-268.08 -177.914)" fill="#ff2c2c"/>
      <path id="Контур_2392" data-name="Контур 2392" d="M305.383,623.485l1.349.629-.009.04c-.1-.017-.2-.029-.3-.052-.27-.061-.545-.11-.808-.195C305.26,623.794,305.331,623.868,305.383,623.485Z" transform="translate(-293.832 -604.785)" fill="#ff2c2c"/>
      <path id="Контур_2393" data-name="Контур 2393" d="M335.187,237.479a.435.435,0,0,1-.468-.317c-.007-.126.071-.17.178-.177.188-.012.425.17.405.328C335.294,237.384,335.212,237.446,335.187,237.479Z" transform="translate(-322.144 -232.319)" fill="#fff"/>
    </g>
  </g>
</svg>
