<svg xmlns="http://www.w3.org/2000/svg" xmlns:xlink="http://www.w3.org/1999/xlink" width="29.398" height="20.579" viewBox="0 0 29.398 20.579">
  <defs>
    <linearGradient id="linear-gradient" y1="0.097" x2="1" y2="1.086" gradientUnits="objectBoundingBox">
      <stop offset="0" stop-color="#afafaf"/>
      <stop offset="0.163" stop-color="#6a6a6a"/>
      <stop offset="0.385" stop-color="#aaa"/>
      <stop offset="0.423" stop-color="#7d7d7d"/>
      <stop offset="0.636" stop-color="#a7a7a7"/>
      <stop offset="0.724" stop-color="#878787"/>
      <stop offset="0.778" stop-color="#bebebe"/>
      <stop offset="1" stop-color="#585858"/>
    </linearGradient>
  </defs>
  <path id="Icon_awesome-users" data-name="Icon awesome-users" d="M4.41,11.069A2.94,2.94,0,1,0,1.47,8.13,2.943,2.943,0,0,0,4.41,11.069Zm20.579,0a2.94,2.94,0,1,0-2.94-2.94A2.943,2.943,0,0,0,24.988,11.069Zm1.47,1.47h-2.94a2.931,2.931,0,0,0-2.072.854,6.719,6.719,0,0,1,3.45,5.025h3.032a1.468,1.468,0,0,0,1.47-1.47v-1.47A2.943,2.943,0,0,0,26.458,12.539Zm-11.759,0A5.145,5.145,0,1,0,9.554,7.395,5.142,5.142,0,0,0,14.7,12.539Zm3.528,1.47h-.381a7.1,7.1,0,0,1-6.293,0h-.381A5.293,5.293,0,0,0,5.88,19.3v1.323a2.205,2.205,0,0,0,2.2,2.2H21.314a2.205,2.205,0,0,0,2.2-2.2V19.3A5.293,5.293,0,0,0,18.227,14.009ZM7.951,13.394a2.931,2.931,0,0,0-2.072-.854H2.94A2.943,2.943,0,0,0,0,15.479v1.47a1.468,1.468,0,0,0,1.47,1.47H4.5A6.736,6.736,0,0,1,7.951,13.394Z" transform="translate(0 -2.25)" fill="url(#linear-gradient)"/>
</svg>
