<svg xmlns="http://www.w3.org/2000/svg" xmlns:xlink="http://www.w3.org/1999/xlink" width="37.605" height="35.584" viewBox="0 0 37.605 35.584">
  <defs>
    <linearGradient id="linear-gradient" x1="0.5" x2="0.5" y2="1" gradientUnits="objectBoundingBox">
      <stop offset="0" stop-color="#ffef84"/>
      <stop offset="1" stop-color="#d4c357"/>
    </linearGradient>
  </defs>
  <path id="Объединение_27" data-name="Объединение 27" d="M-12609.929-1632.415a2.367,2.367,0,0,1-2.33-2.455c.354-13.344,1.32-16.089,2.243-20.276a19.624,19.624,0,0,1,3.5-7.609,10.139,10.139,0,0,0-6.163,9.359,1.05,1.05,0,0,1-1.9.565,8.585,8.585,0,0,1-.565-8.988c3.735-6.548,13.157-4.031,15.317-6.179.409,3.27,1.692,8.452-1.071,13.506-1.6,3.163-4.518,4.971-6.705,5.047a94.441,94.441,0,0,0-.921,10.743,13.968,13.968,0,0,1,10.863-5.277,13.668,13.668,0,0,0-7.354.337c-1.3.427-1.239-1.052-.166-2.531,1.6-2.2,5.436-4.4,10.331-.331a20.061,20.061,0,0,0,3.458,2.525c-1.636,1.674-3.542,7.331-7.625,7.953a6.193,6.193,0,0,1-5.778-2.031,10.9,10.9,0,0,0-2.957,4.1,2.368,2.368,0,0,1-2.144,1.539Zm-10.339-3.51a6.091,6.091,0,0,1-1.106-.1c-4.1-.624-5.981-6.27-7.625-7.952a20.161,20.161,0,0,0,3.455-2.526c4.746-3.941,9.848-2.284,11.256,2.159a.791.791,0,0,1-1.021,1.007,13.7,13.7,0,0,0-8.219-.64,13.736,13.736,0,0,1,7.4,2.163c3,1.908-.115,5.89-4.137,5.89Z" transform="translate(12628.999 1667.999)" fill="url(#linear-gradient)"/>
</svg>
