<svg xmlns="http://www.w3.org/2000/svg" xmlns:xlink="http://www.w3.org/1999/xlink" width="35.392" height="62.523" viewBox="0 0 35.392 62.523">
  <defs>
    <filter id="Контур_1516" x="13.941" y="37.183" width="21.451" height="22.054" filterUnits="userSpaceOnUse">
      <feOffset input="SourceAlpha"/>
      <feGaussianBlur stdDeviation="2" result="blur"/>
      <feFlood/>
      <feComposite operator="in" in2="blur"/>
      <feComposite in="SourceGraphic"/>
    </filter>
    <filter id="Контур_1517" x="8.33" y="34.784" width="23.259" height="19.647" filterUnits="userSpaceOnUse">
      <feOffset input="SourceAlpha"/>
      <feGaussianBlur stdDeviation="2" result="blur-2"/>
      <feFlood/>
      <feComposite operator="in" in2="blur-2"/>
      <feComposite in="SourceGraphic"/>
    </filter>
    <filter id="Контур_1518" x="13.354" y="18.986" width="21.953" height="19.58" filterUnits="userSpaceOnUse">
      <feOffset input="SourceAlpha"/>
      <feGaussianBlur stdDeviation="2" result="blur-3"/>
      <feFlood/>
      <feComposite operator="in" in2="blur-3"/>
      <feComposite in="SourceGraphic"/>
    </filter>
    <filter id="Контур_1519" x="17.336" y="29.443" width="17.893" height="20.342" filterUnits="userSpaceOnUse">
      <feOffset input="SourceAlpha"/>
      <feGaussianBlur stdDeviation="2" result="blur-4"/>
      <feFlood/>
      <feComposite operator="in" in2="blur-4"/>
      <feComposite in="SourceGraphic"/>
    </filter>
    <filter id="Контур_1520" x="4.322" y="30.309" width="25.814" height="19.271" filterUnits="userSpaceOnUse">
      <feOffset input="SourceAlpha"/>
      <feGaussianBlur stdDeviation="2" result="blur-5"/>
      <feFlood/>
      <feComposite operator="in" in2="blur-5"/>
      <feComposite in="SourceGraphic"/>
    </filter>
    <filter id="Контур_1521" x="1.958" y="25.35" width="25.847" height="18.371" filterUnits="userSpaceOnUse">
      <feOffset input="SourceAlpha"/>
      <feGaussianBlur stdDeviation="2" result="blur-6"/>
      <feFlood/>
      <feComposite operator="in" in2="blur-6"/>
      <feComposite in="SourceGraphic"/>
    </filter>
    <filter id="Контур_1522" x="14.376" y="25.385" width="20.853" height="18.447" filterUnits="userSpaceOnUse">
      <feOffset input="SourceAlpha"/>
      <feGaussianBlur stdDeviation="2" result="blur-7"/>
      <feFlood/>
      <feComposite operator="in" in2="blur-7"/>
      <feComposite in="SourceGraphic"/>
    </filter>
    <filter id="Контур_1523" x="19.301" y="40.664" width="16.052" height="21.859" filterUnits="userSpaceOnUse">
      <feOffset input="SourceAlpha"/>
      <feGaussianBlur stdDeviation="2" result="blur-8"/>
      <feFlood/>
      <feComposite operator="in" in2="blur-8"/>
      <feComposite in="SourceGraphic"/>
    </filter>
    <filter id="Контур_1524" x="1.018" y="11.418" width="28.635" height="21.603" filterUnits="userSpaceOnUse">
      <feOffset input="SourceAlpha"/>
      <feGaussianBlur stdDeviation="2" result="blur-9"/>
      <feFlood/>
      <feComposite operator="in" in2="blur-9"/>
      <feComposite in="SourceGraphic"/>
    </filter>
    <filter id="Контур_1525" x="2.934" y="0" width="23.144" height="27.949" filterUnits="userSpaceOnUse">
      <feOffset input="SourceAlpha"/>
      <feGaussianBlur stdDeviation="2" result="blur-10"/>
      <feFlood/>
      <feComposite operator="in" in2="blur-10"/>
      <feComposite in="SourceGraphic"/>
    </filter>
    <filter id="Контур_1526" x="0" y="18.838" width="28.254" height="18.622" filterUnits="userSpaceOnUse">
      <feOffset input="SourceAlpha"/>
      <feGaussianBlur stdDeviation="2" result="blur-11"/>
      <feFlood/>
      <feComposite operator="in" in2="blur-11"/>
      <feComposite in="SourceGraphic"/>
    </filter>
    <filter id="Контур_1527" x="12.362" y="6.655" width="22.959" height="26.832" filterUnits="userSpaceOnUse">
      <feOffset input="SourceAlpha"/>
      <feGaussianBlur stdDeviation="2" result="blur-12"/>
      <feFlood/>
      <feComposite operator="in" in2="blur-12"/>
      <feComposite in="SourceGraphic"/>
    </filter>
  </defs>
  <g id="Сгруппировать_2445" data-name="Сгруппировать 2445" transform="translate(3230.563 2927.968)">
    <g transform="matrix(1, 0, 0, 1, -3230.56, -2927.97)" filter="url(#Контур_1516)">
      <path id="Контур_1516-2" data-name="Контур 1516" d="M-3202.1-2882.5l-3.009,3.174-.288-.247,1.605-2.727-.187-.289a5.744,5.744,0,0,0-1.449.6c-1.212.961-2.37,1.988-3.524,3.017-.266.236-.634.593-.617.872a22.333,22.333,0,0,0,.466,3.532,1.318,1.318,0,0,0,1,.777,3.948,3.948,0,0,0,3.568-1.773c.93-1.5,1.868-2.993,2.886-4.434a3.509,3.509,0,0,0,.409-2.726Z" transform="translate(3230.01 2926.51)" fill="#fff" stroke="rgba(0,0,0,0)" stroke-width="1"/>
    </g>
    <g transform="matrix(1, 0, 0, 1, -3230.56, -2927.97)" filter="url(#Контур_1517)">
      <path id="Контур_1517-2" data-name="Контур 1517" d="M-3207.166-2885.323a2.8,2.8,0,0,0-1.222.2c-1.613.629-3.187,1.39-4.843,1.875a2.807,2.807,0,0,0-2.036,2.255c-.4,1.462-.02,2.042,1.469,2.205a5,5,0,0,0,4.227-1.14c1.193-1.09,2.543-2.012,3.949-3.1l-.988-.428c-1.178.576-2.244,1.346-3.709,1.174C-3209.309-2883.469-3207.641-2883.778-3207.166-2885.323Z" transform="translate(3230.24 2926.61)" fill="#fff" stroke="rgba(0,0,0,0)" stroke-width="1"/>
    </g>
    <g transform="matrix(1, 0, 0, 1, -3230.56, -2927.97)" filter="url(#Контур_1518)">
      <path id="Контур_1518-2" data-name="Контур 1518" d="M-3203.969-2901.042c-1.613-1.05-3.314-.819-5-.38a1.5,1.5,0,0,0-1.18,1.768,1.5,1.5,0,0,0,.2.505,5.785,5.785,0,0,0,1.769,1.957c2.093,1.3,4.52,1.486,6.95,1.918l0-4.223C-3202.147-2900.008-3203.092-2900.471-3203.969-2901.042Z" transform="translate(3230.04 2927.24)" fill="#fff" stroke="rgba(0,0,0,0)" stroke-width="1"/>
    </g>
    <g transform="matrix(1, 0, 0, 1, -3230.56, -2927.97)" filter="url(#Контур_1519)">
      <path id="Контур_1519-2" data-name="Контур 1519" d="M-3205.947-2886.43a2.23,2.23,0,0,0,.875,2.379,5.566,5.566,0,0,0,3.924.274v-6.735c-1.013.575-2,1.211-3.049,1.707A3.3,3.3,0,0,0-3205.947-2886.43Z" transform="translate(3229.88 2926.81)" fill="#fff" stroke="rgba(0,0,0,0)" stroke-width="1"/>
    </g>
    <g transform="matrix(1, 0, 0, 1, -3230.56, -2927.97)" filter="url(#Контур_1520)">
      <path id="Контур_1520-2" data-name="Контур 1520" d="M-3215.061-2883.934c2.274-.71,4.5-1.578,6.763-2.325a2.189,2.189,0,0,0,1.453-1.775l-4.829.917-.042-.149,3.788-1.816-1.045-.863c-2.514.47-5.05.886-7.555,1.435a4.165,4.165,0,0,0-3,2.949C-3218.335-2883.854-3217.013-2883.324-3215.061-2883.934Z" transform="translate(3230.39 2926.79)" fill="#fff" stroke="rgba(0,0,0,0)" stroke-width="1"/>
    </g>
    <g transform="matrix(1, 0, 0, 1, -3230.56, -2927.97)" filter="url(#Контур_1521)">
      <path id="Контур_1521-2" data-name="Контур 1521" d="M-3218.469-2895.127a4.04,4.04,0,0,0-3.569,3.279l0,0c1.381,1.21,2.711,2.566,4.913,1.975a14.429,14.429,0,0,1,2.02-.288c1.74-.207,3.483-.4,5.385-.623l-.493-.939-5.589-.653a40.08,40.08,0,0,1,4.818-1.127,2.2,2.2,0,0,0,1.594-1.346c-.917-.076-1.743-.184-2.569-.2C-3214.132-2895.107-3216.3-2895.167-3218.469-2895.127Z" transform="translate(3230.49 2926.99)" fill="#fff" stroke="rgba(0,0,0,0)" stroke-width="1"/>
    </g>
    <g transform="matrix(1, 0, 0, 1, -3230.56, -2927.97)" filter="url(#Контур_1522)">
      <path id="Контур_1522-2" data-name="Контур 1522" d="M-3208.386-2891.143c.841.84,1.673,1.79,3.095,1.432,1.338-.336,2.685-.654,4.027-.976v-4.043a9.066,9.066,0,0,0-.936-.14c-1.3-.073-2.6-.1-3.891-.193a2.539,2.539,0,0,0-2.619,1.361A2,2,0,0,0-3208.386-2891.143Z" transform="translate(3229.99 2926.99)" fill="#fff" stroke="rgba(0,0,0,0)" stroke-width="1"/>
    </g>
    <g transform="matrix(1, 0, 0, 1, -3230.56, -2927.97)" filter="url(#Контур_1523)">
      <path id="Контур_1523-2" data-name="Контур 1523" d="M-3200.948-2871.521v-7.582l-.221-.046c-.893,1.589-1.8,3.174-2.663,4.776a1.3,1.3,0,0,0-.118.966c.391.928.878,1.815,1.394,2.847Z" transform="translate(3229.8 2926.38)" fill="#fff" stroke="rgba(0,0,0,0)" stroke-width="1"/>
    </g>
    <g transform="matrix(1, 0, 0, 1, -3230.56, -2927.97)" filter="url(#Контур_1524)">
      <path id="Контур_1524-2" data-name="Контур 1524" d="M-3216.812-2902.664a41.713,41.713,0,0,1,5.2,1.564l1.184-1.107c-1.986-1.027-3.906-1.691-5.333-3.174a2.856,2.856,0,0,1,1.088.237c1.538.644,3.054,1.371,4.627,1.924a12.537,12.537,0,0,0,2.517.362l.081-.35c-2.678-1.546-5.277-3.257-8.061-4.58a35.821,35.821,0,0,0-6.009-1.791,4.744,4.744,0,0,0-1.232-.015,2.033,2.033,0,0,0,.225,2.206C-3221.157-2905.182-3219.7-2903.148-3216.812-2902.664Z" transform="translate(3230.53 2927.54)" fill="#fff" stroke="rgba(0,0,0,0)" stroke-width="1"/>
    </g>
    <g transform="matrix(1, 0, 0, 1, -3230.56, -2927.97)" filter="url(#Контур_1525)">
      <path id="Контур_1525-2" data-name="Контур 1525" d="M-3217.065-2910.512c1.837.955,3.56,2.135,5.333,3.209.219.133.454.239.672.353-.577-2.974-3.281-4.217-4.879-6.386l3.544,2.256-.184-2.044c-2.867-2.34-5.921-4.43-8.067-7.618a14.07,14.07,0,0,0-.367,3.366C-3220.9-2914.423-3219.889-2911.979-3217.065-2910.512Z" transform="translate(3230.45 2927.97)" fill="#fff" stroke="rgba(0,0,0,0)" stroke-width="1"/>
    </g>
    <g transform="matrix(1, 0, 0, 1, -3230.56, -2927.97)" filter="url(#Контур_1526)">
      <path id="Контур_1526-2" data-name="Контур 1526" d="M-3218.309-2896.307c2.85.036,5.7.011,8.553,0a3.266,3.266,0,0,0,.587-.113,3.432,3.432,0,0,0-2.817-1.282,11.113,11.113,0,0,1-3.005-.5,5.858,5.858,0,0,1-1.436-.9l.142-.163,4.562.3.181-.447a3.49,3.49,0,0,0-.854-.614c-1.767-.578-3.537-1.154-5.332-1.63a7.643,7.643,0,0,0-4.576.214,8.489,8.489,0,0,0-1.673,1.063A6.042,6.042,0,0,0-3218.309-2896.307Z" transform="translate(3230.56 2927.25)" fill="#fff" stroke="rgba(0,0,0,0)" stroke-width="1"/>
    </g>
    <g transform="matrix(1, 0, 0, 1, -3230.56, -2927.97)" filter="url(#Контур_1527)">
      <path id="Контур_1527-2" data-name="Контур 1527" d="M-3206.508-2904.229c1.539.866,3,1.867,4.494,2.8.219.137.462.234.759.385v-5.944l-9.889-7.051c.056.827.082,1.584.161,2.337C-3210.645-2908.528-3209.445-2905.88-3206.508-2904.229Z" transform="translate(3230.08 2927.71)" fill="#fff" stroke="rgba(0,0,0,0)" stroke-width="1"/>
    </g>
  </g>
</svg>
