<svg xmlns="http://www.w3.org/2000/svg" xmlns:xlink="http://www.w3.org/1999/xlink" width="40.085" height="51" viewBox="0 0 40.085 51">
  <defs>
    <filter id="Вычитание_109" x="0" y="0" width="40.085" height="51" filterUnits="userSpaceOnUse">
      <feOffset input="SourceAlpha"/>
      <feGaussianBlur stdDeviation="2" result="blur"/>
      <feFlood/>
      <feComposite operator="in" in2="blur"/>
      <feComposite in="SourceGraphic"/>
    </filter>
  </defs>
  <g transform="matrix(1, 0, 0, 1, 0, 0)" filter="url(#Вычитание_109)">
    <path id="Вычитание_109-2" data-name="Вычитание 109" d="M-15569.908-1624.083h0a2.4,2.4,0,0,0-.153-.19,1.163,1.163,0,0,1-.277-.449,11.673,11.673,0,0,1-.255-1.9,13.438,13.438,0,0,1,.4-3.69l.006-.021c.03-.142.065-.3.212-.3a.265.265,0,0,1,.079.013.474.474,0,0,1,.262.31c.184,1.113.345,2.227.5,3.3l.006.032,0,.027c-.03.2-.056.389-.082.578l-.013.1-.007.04c-.072.524-.142,1.019-.248,1.507a1.1,1.1,0,0,1-.277.449c-.055.064-.106.127-.153.19Zm-2.19-.614h0c-.015-.086-.035-.179-.059-.283a2.3,2.3,0,0,1-.079-.6,15.746,15.746,0,0,1,1.56-5.075l.1.019.239.044c-.018.095-.039.189-.061.283l-.027.127v.01a7.8,7.8,0,0,0-.161.866c-.1.946-.183,1.922-.246,2.9a1.978,1.978,0,0,1-1.261,1.71Zm4.259-.021h0a2.084,2.084,0,0,1-1.154-1.737c-.062-.872-.155-1.755-.246-2.608l-.015-.13c-.028-.253-.055-.505-.082-.758a2.206,2.206,0,0,0-.1-.42l0-.013c-.02-.06-.039-.12-.055-.181a.443.443,0,0,1,.233-.088c.134,0,.216.12.3.313a16.241,16.241,0,0,1,1.373,4.671,2.365,2.365,0,0,1-.054.638c-.019.1-.035.2-.046.3l-.149.01Zm-5.689-.766v0c-.008-.1-.02-.2-.03-.293a2.455,2.455,0,0,1-.026-.572,9.426,9.426,0,0,1,1.579-3.9c.119-.186.244-.362.37-.541.025-.033.05-.067.073-.1l.092-.129c.217.108.4.2.6.294a19.477,19.477,0,0,0-1.241,3.337c-.05.167-.1.334-.153.5a2.12,2.12,0,0,1-1.266,1.406Zm7.146-.042h0a2.246,2.246,0,0,1-1.221-1.5c-.4-1.181-.735-2.174-1.067-3.123a2.5,2.5,0,0,0-.167-.361l-.01-.019c-.033-.062-.067-.125-.1-.192l.154-.077.049-.024.026-.014c.107-.055.22-.109.33-.168a.465.465,0,0,0,.041.025.178.178,0,0,1,.061.048,10.419,10.419,0,0,1,2.038,4.424,2.937,2.937,0,0,1,.019.642v.013c0,.116-.01.209-.01.295l-.132.029-.011,0Zm-8.561-1.155v0c.05-1.981,1.19-3.292,2.294-4.559.138-.159.276-.318.414-.478.1.1.2.191.3.28l.065.062c.086.081.17.16.253.241a16.768,16.768,0,0,0-1.883,3.459c-.252.565-.787.759-1.4.983l-.037.013Zm9.027-.525v0a1.647,1.647,0,0,1-.491-.669,14.187,14.187,0,0,0-1.789-3.254l.363-.348.218-.209.038-.036c.146.172.292.344.438.511l.009.01a18.133,18.133,0,0,1,1.215,1.511v2.486Zm-12.266-.666h0c-.434-.217-.772-.392-1.095-.566-.041-.021-.065-.117-.065-.173a3.826,3.826,0,0,0-1.3-2.582c-.191-.2-.412-.387-.624-.57-.086-.073-.172-.148-.263-.227-.084.61-.306.882-.718.882h-.03a.81.81,0,0,1-.56-.3.743.743,0,0,1-.084-.39,1.471,1.471,0,0,0-.009-.156c-.058.042-.116.09-.173.14a1.686,1.686,0,0,1-.457.3.661.661,0,0,1-.233.044.556.556,0,0,1-.439-.216.7.7,0,0,1-.117-.584l.015-.067c.039-.177.089-.4.134-.615l-.093-.031a.89.89,0,0,1-.034.089l-.006.014,0,.008a1.159,1.159,0,0,0-.06.167.687.687,0,0,1-.541.509.211.211,0,0,1-.048,0,.6.6,0,0,1-.3-.29.873.873,0,0,1-.158-.539c.043-.2.093-.407.142-.614l.075-.3c.093-.427.411-.484.721-.538.078-.014.153-.027.223-.045a.642.642,0,0,1,.153-.02.572.572,0,0,1,.518.372l-.151.034c-.095.022-.2.047-.295.065.071.076.138.149.205.22l.038.04.285.307c.21-.048.477-.106.8-.173-.028.169-.052.317-.075.454l-.02.123c-.018.119-.036.231-.055.347.328-.031.328-.031.421-.289.028-.081.059-.162.086-.244s.06-.168.088-.249h.088c.039.132.073.264.111.4l.065.231.061.221c.038.13.075.261.11.391l.071-.016.008,0,.082-.019-.01-.038c-.012-.057-.021-.113-.029-.169l-.006-.027a5.162,5.162,0,0,0-.119-.532c-.041-.134-.093-.268-.146-.4l-.008-.019c-.063-.157-.118-.3-.162-.445a.379.379,0,0,1,.062-.318.493.493,0,0,1,.377-.2c.371-.013.757-.032,1.1-.049l.063,0,.671-.031a.375.375,0,0,1,.231.089,2.039,2.039,0,0,1,.205.245c.033.043.063.082.092.117-.045.074-.088.148-.131.222l0,.009a6.628,6.628,0,0,1-.356.573.422.422,0,0,1-.3.11c-.315.018-.63.026-.935.034l-.467.013a.7.7,0,0,0,.266.756,8.955,8.955,0,0,1,2.663,3.018,7.326,7.326,0,0,1,.393,1.03l.011.036c.043.135.089.274.138.409l-.088.042Zm2.041-.1h-.047a7.976,7.976,0,0,1,3.428-4.429l.032.022c.023.014.034.021.039.031.31.475.31.475-.063.894l-.008.009a12.743,12.743,0,0,0-1.923,2.745A1.786,1.786,0,0,1-15576.142-1627.972Zm-9.877-1.317h0a2.393,2.393,0,0,1-.535-1.726.358.358,0,0,1,.079-.161l.007-.012.224-.313.166-.232c.188-.266.384-.54.576-.814a1.491,1.491,0,0,1,.46,1.632,2.942,2.942,0,0,1-.973,1.626Zm20.1-.721v0a14.632,14.632,0,0,0-1.128-1.417c-.394-.441-.394-.441-.056-.945a4.152,4.152,0,0,1,1.185.816v1.549Zm-21.912-.544v0c.164-.6.323-1.157.45-1.606l.089-.319c.091.023.175.048.257.071l.038.011a2.607,2.607,0,0,0,.628.132h.012c.118,0,.282-.169.359-.289a.508.508,0,0,0,.08-.407.939.939,0,0,0-.543-.512c.043-.054.092-.111.15-.183l.1-.013a5.213,5.213,0,0,1,.528-.05c.025,0,.082.117.082.184a3.239,3.239,0,0,1-1.966,2.923.811.811,0,0,1-.1.022l-.006,0-.16.033Zm17.392-.247,0,0-.123-.071-.1-.062c-.271-.156-.551-.316-.815-.49a.406.406,0,0,1-.143-.315,2.625,2.625,0,0,1,.608-1.632.528.528,0,0,1,.286-.123c.015,0,.024,0,.028.008a.689.689,0,0,1,.178.414c-.011.206-.035.414-.059.616l0,.015-.006.039c-.027.238-.058.484-.063.727a1.863,1.863,0,0,0,.123.552l0,.009c.034.1.065.2.095.312Zm1.095-.026h0c-.014-.027-.031-.055-.046-.082l-.009-.01a2.461,2.461,0,0,0,.112-2.064c-.08-.25-.018-.427.17-.5a.106.106,0,0,1,.039-.006.566.566,0,0,1,.345.206,2.574,2.574,0,0,1,.529,1.464.519.519,0,0,1-.16.4,6.973,6.973,0,0,1-.656.4l-.017.009c-.123.069-.218.123-.306.175Zm-.57-.042h0c-.045-.058-.095-.116-.145-.172l-.014-.016a1.892,1.892,0,0,1-.329-.456,2.581,2.581,0,0,1,.1-1.5c.113.177.226.352.391.6.1-.154.192-.309.3-.486l.074-.123.112.006c.009.135.02.273.034.414v.018a4.277,4.277,0,0,1,.012,1.005,1.052,1.052,0,0,1-.338.492,2.661,2.661,0,0,0-.2.215Zm1.989-.971v0c-.023-.079-.043-.157-.064-.233l-.011-.042-.007-.025a5.105,5.105,0,0,0-.224-.684,4.685,4.685,0,0,0-.308-.556c-.055-.085-.114-.182-.17-.279a1.129,1.129,0,0,1,.365-.066.826.826,0,0,1,.727.443,1.163,1.163,0,0,1-.3,1.442Zm-3.97-.021h0a1.189,1.189,0,0,1-.341-1.337.789.789,0,0,1,.815-.514,2.441,2.441,0,0,1,.337.026c-.046.081-.1.16-.147.239a4.914,4.914,0,0,0-.343.611,4.589,4.589,0,0,0-.222.645l-.008.024c-.031.118-.06.215-.09.305Zm-14.647-.472h0a.489.489,0,0,1-.5-.477.486.486,0,0,1,.134-.348.521.521,0,0,1,.379-.156.5.5,0,0,1,.508.472.48.48,0,0,1-.136.337A.544.544,0,0,1-15586.541-1632.333Zm-2.538-.063a2.914,2.914,0,0,1-1.069-.21,5.787,5.787,0,0,0,.78-.926l.011-.016a3.16,3.16,0,0,1,1.684-1.425,2.23,2.23,0,0,0-1.329.8.524.524,0,0,1-.419.234.654.654,0,0,1-.187-.03c-.3-.079-.6-.157-.917-.238l-.7-.182a2.38,2.38,0,0,1,1.122-.6,1.037,1.037,0,0,0,.671-.425.956.956,0,0,1,.617-.325h.049a10.158,10.158,0,0,1,1.136.086l.023,0c.131.015.262.03.395.043a.9.9,0,0,1,.117.022.784.784,0,0,0,.181.026h.039l-.1-.084-.027-.022c-.1-.083-.211-.17-.321-.267-.155-.138-.311-.278-.468-.419s-.3-.267-.445-.4h0a.137.137,0,0,1,.018.034.166.166,0,0,0,.038.055c.231.2.274.38.135.577a.461.461,0,0,1-.369.21.477.477,0,0,1-.218-.053c-.241-.119-.3-.313-.179-.593-.033.025-.064.052-.1.079l-.021.018a1.066,1.066,0,0,1-.306.207,1.505,1.505,0,0,1-.469.052h-.086a.662.662,0,0,1-.174-.026.737.737,0,0,0-.158-.026.165.165,0,0,0-.085.02.538.538,0,0,1-.264.077.8.8,0,0,1-.485-.245,1.436,1.436,0,0,0-.936-.339,2.006,2.006,0,0,0-.531.077.991.991,0,0,1,.74-.882,7.759,7.759,0,0,1,1.154-.147c.125-.01.25-.02.374-.031h.008a.512.512,0,0,1,.25.132.761.761,0,0,0,.5.2,1.015,1.015,0,0,0,.265-.039.313.313,0,0,1,.084-.011,1.028,1.028,0,0,1,.34.089l.019.007a1.913,1.913,0,0,0,.182.062c.013-.548-.273-.881-1.527-1.779a.438.438,0,0,0,.142-.32.484.484,0,0,0-.2-.326l.014.046c.06.2.123.415-.121.542a.371.371,0,0,1-.166.034.692.692,0,0,1-.569-.291.434.434,0,0,1,.021-.336.506.506,0,0,1,.342-.189h.009a.955.955,0,0,1,.332.11l.008,0c.048.023.1.046.147.065l-.089-.251-.05-.146c-.078-.214-.152-.428-.227-.644l0,.537h0l-.377-.054-.162-.023-.041-.006c-.251-.036-.513-.073-.769-.106a2.327,2.327,0,0,1-1.9-1.585,4.428,4.428,0,0,1-.189-.58c-.038-.135-.071-.252-.109-.37.27.1.534.2.791.29l.009,0,.01,0c.654.239,1.273.464,1.881.726a1.487,1.487,0,0,1,.856,1.135l-.016-.125c-.037-.311-.075-.631-.138-.943a.428.428,0,0,0-.213-.268,2.452,2.452,0,0,1-1.508-2.535c.014-.554.01-1.117.006-1.661v-.1c0-.3-.006-.588-.006-.881l.062-.018.022-.006.08-.023a4.733,4.733,0,0,0,.765,1.153,3.711,3.711,0,0,1,.939,1.7,2.865,2.865,0,0,1,1.36-2.162c.012.235.026.477.041.711l.008.109c.027.432.053.855.068,1.28a2.094,2.094,0,0,1-.708,1.721,1.7,1.7,0,0,0-.539,1.874c.04.174.067.359.092.508l.012.076c.009.054.017.107.025.161l.088-.01c-.012-.213-.024-.422-.04-.645l-.007-.114-.009-.154h.05c.194,0,.272.086.278.306,0,.318.037.652.064.92.007.077.014.153.021.23a1.4,1.4,0,0,0,.585,1.023l.3-.106.116-.041c.033.139.062.274.085.389v.007a4.663,4.663,0,0,0,.223.806,3.712,3.712,0,0,0,.414.687c.064.092.132.19.2.289a.137.137,0,0,1,.023-.013l.013-.007a.583.583,0,0,0,.056-.033l0-.036-.007-.073c-.006-.091-.015-.188-.021-.311.119-.005.234-.016.334-.026a1.316,1.316,0,0,1,.057.342.661.661,0,0,0,.494.718c-.031-.11-.055-.215-.08-.318l-.013-.05a2.349,2.349,0,0,0-.209-.635,3.116,3.116,0,0,1,.638-3.842c.041.2.082.394.125.585l.024.114c.121.548.244,1.114.337,1.689a2.159,2.159,0,0,1-.492,1.674,1.247,1.247,0,0,0-.111,1.06l.015.073c.013.068.108.12.217.181a1.8,1.8,0,0,1,.156.092c.011-.067.021-.126.027-.2s.024-.155.039-.26l.064.068.015.014a.584.584,0,0,1,.132.166.951.951,0,0,1,.063.181c.029.108.057.205.123.244a4.076,4.076,0,0,0,.674.3c.075.028.146.055.218.084.023.009.048.016.071.024a.457.457,0,0,1,.175.081,1,1,0,0,1-.514.194.762.762,0,0,1-.328-.083,3.969,3.969,0,0,0-1.333-.315l-.037,0a.506.506,0,0,0-.407.22.825.825,0,0,0-.113.7,1.658,1.658,0,0,0,.154.358l.018.033c.024.044.047.088.068.133A2.258,2.258,0,0,1-15589.079-1632.4Zm10.819-.037h-.119c.01-.1.019-.2.03-.322l.011-.161-.22.017-.045,0-.035,0-.239.019c-.039-.112-.078-.22-.119-.327l0-.009c-.082.049-.162.1-.246.146l-.078.046-.073.043c-.119.069-.239.14-.367.216a1.505,1.505,0,0,1,.644-1.306l.06-.059-.261-.178c.013-.045.028-.088.045-.131a1.2,1.2,0,0,0,.078-.289.788.788,0,0,1,.636-.8.374.374,0,0,0,.19-.257,1.168,1.168,0,0,1,1.215-1.144.772.772,0,0,1,.375-.756.5.5,0,0,1,.281-.092.994.994,0,0,1,.341.084,1.781,1.781,0,0,0,.256.081c0,.145,0,.292-.006.438v.037c0,.308-.011.627.011.936a5.053,5.053,0,0,0,.18,1.234,1.959,1.959,0,0,0,1.292,1.265,1.22,1.22,0,0,1-1.016.656,2.268,2.268,0,0,0-1.277.509c.019-.093.041-.19.063-.3.017-.079.033-.166.055-.268-.159.072-.312.157-.459.24l-.021.012A2.393,2.393,0,0,1-15578.26-1632.433Zm8.352-.525h0c-.054-.059-.109-.116-.161-.173l-.1-.108c-.121-.129-.257-.276-.386-.421a.827.827,0,0,0-.671-.31h-.021c-.382.01-.79.015-1.282.015-.343,0-.686,0-1.027,0a1.956,1.956,0,0,1-2.092-2.136c-.012-3.785-.018-7.631-.021-11.35v-.438a.388.388,0,0,1,.06-.283.307.307,0,0,1,.23-.068c3.19.009,6.3.01,9.461.01v4.7h-.21v9.169c.052,0,.1,0,.156,0h.054v.366a6.138,6.138,0,0,1-.667.024h-.229l-.377,0c-.2,0-.4.006-.6.006-.3,0-.548-.007-.779-.021l-.066,0a1.026,1.026,0,0,0-.867.464c-.117.153-.228.306-.354.482l-.039.054-.012.015Zm-1.262-10.565v9.132l.147.053.021.008c.191.069.373.134.559.207v-9.4Zm1.728-.01v9.384c.227-.069.457-.141.725-.226v-9.158Zm-5.013.01,0,.006c0,.013-.011.025-.015.034l0,.007a.128.128,0,0,0-.011.037c0,2.7-.012,5.771,0,8.733a.3.3,0,0,0,.134.231,2.973,2.973,0,0,0,.4.124l.014,0c.063.016.128.032.193.051v-9.227Zm1.634.005v9.174h.733v-9.174Zm5.031-.005v9.174h.729v-9.174Zm-18.879,9.919a.6.6,0,0,1-.565-.567.619.619,0,0,1,.153-.464.531.531,0,0,1,.4-.176h.009a.43.43,0,0,1,.336.13.486.486,0,0,1,.078.379c-.02.127-.028.258-.036.384v.011l-.006.078c0,.054-.007.108-.013.161l-.039.011c-.073.016-.153.034-.233.047A.462.462,0,0,1-15586.669-1633.6Zm3.566-.147h-.006a.858.858,0,0,1-.091-.026.443.443,0,0,0,.044-.367c-.027-.187-.06-.38.226-.52-.025,0-.052,0-.084,0-.33,0-.417.211-.449.529-.179-.312-.382-.618-.762-.618a.875.875,0,0,0-.151.014c-.014,0-.034-.022-.047-.041a.345.345,0,0,1-.08-.216c.024-.122.117-.31.2-.325a.593.593,0,0,1,.1-.008.977.977,0,0,1,.472.144l.015-.012a.191.191,0,0,0,.057-.056c.228-.339.4-.478.591-.478a.5.5,0,0,1,.193.042,1.56,1.56,0,0,1,.668,1.065c0,.007,0,.015,0,.023,0,.03-.008.06-.024.072-.263.241-.555.5-.868.782Zm-2.632-.016h0a.546.546,0,0,1-.393-.2.33.33,0,0,1-.076-.24.424.424,0,0,1,.447-.41h.009a.413.413,0,0,1,.3.132.4.4,0,0,1,.1.3A.41.41,0,0,1-15585.734-1633.766Zm.737-1.181h-.021a.4.4,0,0,1-.415-.431.412.412,0,0,1,.1-.311.444.444,0,0,1,.332-.135.4.4,0,0,1,.374.43.431.431,0,0,1-.109.327A.353.353,0,0,1-15585-1634.947Zm-5.048-.184h-.016a.475.475,0,0,1-.482-.472.5.5,0,0,1,.123-.35.479.479,0,0,1,.345-.154h.011a.466.466,0,0,1,.485.467.5.5,0,0,1-.131.355A.466.466,0,0,1-15590.045-1635.131Zm5.558-.278v0q.026-.1.044-.171a.615.615,0,0,1,.082-.231,2.594,2.594,0,0,0,.406-2.057.381.381,0,0,1,.026-.289,4.167,4.167,0,0,1,1.707-1.417.616.616,0,0,1,.123.063c-.054.227-.1.459-.151.683l-.016.071,0,.011a16.141,16.141,0,0,1-.451,1.764,2.845,2.845,0,0,1-1.767,1.573Zm-.036-.309h0a.844.844,0,0,0-.519-.214.658.658,0,0,0-.389.136c-.687-1.09-.168-3.386,1.042-4.634.031.4.1.81.166,1.2v.009a4.786,4.786,0,0,1-.3,3.5Zm-1.5-.178a.416.416,0,0,1-.332-.158.725.725,0,0,1-.149-.509c.04-.288.314-.356.55-.383.059.3.118.606.194.981A.536.536,0,0,1-15586.019-1635.9Zm-1.655-1.307h-.032a.529.529,0,0,1-.415-.184,1.162,1.162,0,0,1-.056-.666c.016-.076.109-.136.225-.211l.015-.01c.055-.035.116-.075.176-.12.025.04.051.075.072.108l.022.032a1.04,1.04,0,0,1,.14.228.955.955,0,0,1,.043.178.839.839,0,0,0,.055.21.312.312,0,0,1,.036.291A.337.337,0,0,1-15587.674-1637.2Zm-1.8-.262h-.009a.486.486,0,0,1-.457-.483.492.492,0,0,1,.46-.5h.018a.491.491,0,0,1,.457.483A.49.49,0,0,1-15589.472-1637.466Zm-2.134-.236h-.025a.2.2,0,0,1-.148-.053c-.236-.31-.469-.633-.693-.944l-.183-.252a4.235,4.235,0,0,1,1.137-.164,3.739,3.739,0,0,1,1.813.473l-.266.467c-.055.1-.11.2-.171.3l-.189.023c-.371.044-.832.1-1.273.145Zm2.921-1.186a.541.541,0,0,1-.457-.247.62.62,0,0,1,.092-.771l.056-.06.019-.02.043-.045c-.041.026-.082.056-.125.087l-.107.079-.369.267h0v0c-.007-.078-.016-.155-.022-.229l-.013-.129,0-.022c-.028-.285-.056-.553-.069-.824a.361.361,0,0,1,.158-.262c.658-.473.69-.644.246-1.307-.007-.016-.017-.037-.022-.054a.063.063,0,0,1-.006-.017s0-.01-.007-.014l.062-.039.045-.028c.412-.26.8-.5,1.2-.751a2.926,2.926,0,0,1-.472,2.761c-.156.149-.314.306-.468.458l-.013.013,0,.006-.01.006h.135c.021,0,.045,0,.066,0h.034a.523.523,0,0,1,.555.42.565.565,0,0,1-.3.672A.561.561,0,0,1-15588.685-1638.888Zm11.475-.026c-.071,0-.147-.005-.22-.01.048-.107.091-.189.13-.261.019-.038.038-.072.055-.106.063-.125.126-.248.192-.371.148-.286.3-.58.428-.884l.028-.068c.136-.323.142-.336.6-.425a3.2,3.2,0,0,0,.014.464l0,.039a1.637,1.637,0,0,1-.134,1.013A1.2,1.2,0,0,1-15577.21-1638.915Zm-1.144-.116a1.021,1.021,0,0,1-.4-.089c.089-.148.193-.293.294-.434l.03-.041a2.661,2.661,0,0,0,.691-1.729c.208.084.4.158.568.224l.405.159C-15577.021-1639.8-15577.659-1639.03-15578.354-1639.03Zm-1.194-.336h0a1.007,1.007,0,0,1-.636-.252,5.6,5.6,0,0,0,1.5-2.12l.191.091.257.124.33.158,0,.02a2.677,2.677,0,0,1-1.02,1.785,1.1,1.1,0,0,1-.6.194Zm-1.032-.609c-.18,0-.4-.061-.43-.142a.775.775,0,0,1,.092-.614c.283-.365.595-.7.9-1.03.11-.121.223-.243.335-.367l.124.048.046.018c.184.07.41.158.687.26-.05.084-.1.166-.149.254l-.045.079a8.162,8.162,0,0,1-.436.712,1.622,1.622,0,0,1-1.036.777A.417.417,0,0,1-15580.58-1639.975Zm-1.133-.85h-.058c-.165-.011-.421-.086-.466-.2a.534.534,0,0,1,.261-.667c.1-.062.2-.118.295-.167a3.18,3.18,0,0,0,.394-.232c.216-.159.425-.339.611-.5.094-.08.187-.159.281-.237l.147.186.041.052.246.314A2.2,2.2,0,0,1-15581.713-1640.825Zm5.161-.394a1.383,1.383,0,0,1-.563-.142,1.486,1.486,0,0,1-.152-.087l-.043-.027-.058-.034a3.162,3.162,0,0,0,1.025-1.343l.013-.025c.1-.2.205-.4.326-.595v1.26a.575.575,0,0,0,0,.058.677.677,0,0,1,0,.11c-.007.069-.009.148-.011.226v.037c0,.188-.006.365-.092.425A.717.717,0,0,1-15576.552-1641.219Zm-13.107-.016h0a.547.547,0,0,1-.55-.546.6.6,0,0,1,.159-.427.536.536,0,0,1,.389-.171h.009a.576.576,0,0,1,.552.556.577.577,0,0,1-.156.418.538.538,0,0,1-.394.169Zm7.008-.315h-.026l-.049-.005a.787.787,0,0,1-.47-.147.283.283,0,0,1-.053-.233.7.7,0,0,1,.278-.465l.595-.374.106-.067.7-.436c.1.339.362.349.669.361.079,0,.166.007.254.017-.056.053-.1.1-.149.15a1.931,1.931,0,0,1-.286.259c-.367.252-.774.517-1.277.835A.6.6,0,0,1-15582.651-1641.549Zm4.749-.063a.475.475,0,0,1-.343-.142.413.413,0,0,1-.082-.357c.386-.61.807-1.229,1.175-1.774l.182-.267c.105.054.223.111.355.176l.383.186c-.045.1-.089.192-.132.286l-.03.073a4.411,4.411,0,0,1-1.01,1.6A.734.734,0,0,1-15577.9-1641.612Zm-1.1-.656a1.207,1.207,0,0,1-.738-.357,3.262,3.262,0,0,1-.242-.221l.153-.152.33-.326c.438-.435.936-.928,1.4-1.416l.08-.083a.851.851,0,0,1,.637-.331,1.021,1.021,0,0,1-.114,1.176,7.321,7.321,0,0,0-.452.718c-.06.1-.12.208-.183.311a.881.881,0,0,1-.088.142C-15578.479-1642.44-15578.729-1642.268-15579-1642.268Zm-4.7-.241h-.137c-.038,0-.075,0-.114,0-.181,0-.368,0-.436-.243a.812.812,0,0,1,.374-.782c.125-.055.252-.106.379-.154l.018-.008c.157-.06.311-.12.462-.19s.321-.161.5-.258l.033-.017.01-.006c.1-.052.2-.107.313-.165a.721.721,0,0,0,.106.551.618.618,0,0,0,.468.189A2.9,2.9,0,0,1-15583.7-1642.51Zm2.985-.672a1.83,1.83,0,0,1-.455-.063.2.2,0,0,1-.163-.178.192.192,0,0,1,.127-.19,7.279,7.279,0,0,0,2.591-1.973l.009.011c.11.165.231.352.38.588-.171.162-.337.343-.5.519l-.01.011a3.665,3.665,0,0,1-1.642,1.228A1.221,1.221,0,0,1-15580.719-1643.182Zm-3.743-.646a1.286,1.286,0,0,1-.5-.084.326.326,0,0,1-.21-.493,1.062,1.062,0,0,1,.773-.756l1.218-.241a.842.842,0,0,0,.62.9A3.043,3.043,0,0,1-15584.462-1643.827Zm2.856-.01a.6.6,0,0,1-.375-.189.081.081,0,0,1-.009-.06.54.54,0,0,1,.134-.313c.3-.276.62-.541.928-.8l.02-.015.292-.243c.084-.071.17-.152.243-.222a1.761,1.761,0,0,1,.615-.444.837.837,0,0,1,.261-.037,2.764,2.764,0,0,1,.453.053c.1.017.216.037.322.047a.032.032,0,0,1,.015,0l.006,0c.013.007.035.017.076.034-.021.033-.043.068-.063.109a.717.717,0,0,1-.142.2l-.2.171-.1.085-.024.022c-.511.429-1.038.874-1.581,1.281a2.124,2.124,0,0,1-.825.31A.094.094,0,0,1-15581.605-1643.837Zm5.3-.452a.725.725,0,0,1-.734-.7.488.488,0,0,1,.067-.315c.238-.353.5-.7.739-1l.075-.1a.207.207,0,0,1,.067-.044l.007,0,.011-.005c.021-.012.052-.026.084-.047v2.168A.978.978,0,0,1-15576.31-1644.289Zm-6.035-.509a.619.619,0,0,1-.262-.053.631.631,0,0,1-.3-.388.51.51,0,0,1,.216-.394c.415-.257.844-.508,1.258-.752l.045-.026c.262-.152.538-.315.81-.477.145-.084.289-.179.441-.28l.094-.062a1.336,1.336,0,0,1-.545,1.47,4.941,4.941,0,0,0-.437.33l-.009.008a2.335,2.335,0,0,1-1.095.6A1.4,1.4,0,0,1-15582.345-1644.8Zm-2.872-.462a1.148,1.148,0,0,1-.759-.3.532.532,0,0,1-.155-.415.69.69,0,0,1,.707-.651c.209-.022.419-.043.617-.063l.05,0,.571-.058c.328.415.585.74.881,1.118l-.49.1-.015,0-.015,0c-.371.077-.754.156-1.138.238A1.077,1.077,0,0,1-15585.217-1645.26Zm7.355-.1c-.105,0-.356-.01-.4-.1a.814.814,0,0,1-.031-.661,3.785,3.785,0,0,1,.611-.676l.01-.008c.026-.026.052-.051.082-.077s.057-.056.087-.085a.06.06,0,0,1,.041-.012.51.51,0,0,1,.164.043c.166.07.33.143.483.213l.1.045c.1.045.207.092.32.141-.085.109-.167.227-.244.339-.281.415-.548.807-1.126.831l-.041,0Zm-5.124-.609c-.235,0-.435-.161-.611-.493a.7.7,0,0,1,.236-.939,3.329,3.329,0,0,1,.7-.294c.355-.118.73-.224,1.113-.315a.21.21,0,0,1,.052-.006.4.4,0,0,1,.226.079c.183.144.353.29.572.481l.112.1q.069.062.146.126l-.47.254-.1.052-.008,0c-.534.29-1.087.59-1.642.866A.8.8,0,0,1-15582.985-1645.969Zm3.838-.283a.95.95,0,0,1-.585-.142.687.687,0,0,1-.125-.441.446.446,0,0,1,.171-.315c.262-.144.545-.27.795-.382.113-.05.226-.1.338-.154.263.173.555.367.884.588l-.213.188-.034.03c-.192.168-.367.325-.553.475A1.255,1.255,0,0,1-15579.147-1646.252Zm-6.367-.614h-.016a1.857,1.857,0,0,1-.5-.068c-.319-.1-.562-.382-.518-.614a.678.678,0,0,1,.605-.541c.4-.062.8-.1,1.193-.139l.444-.044h.018a.261.261,0,0,1,.131.037c.131.1.26.2.39.3l.043.032.28.215a1.3,1.3,0,0,1-1.107.775c-.034,0-.068,0-.105,0s-.072,0-.111,0a3.6,3.6,0,0,0-.387.028h-.011C-15585.281-1646.881-15585.4-1646.868-15585.515-1646.866Zm5.705-.53h0a1.7,1.7,0,0,1-1.385-1.086.3.3,0,0,1,.041-.263.4.4,0,0,1,.323-.151.474.474,0,0,1,.07.005l.24.035c.487.07.988.143,1.479.238a.412.412,0,0,1,.263.283c.014.158-.016.428-.128.5a3.328,3.328,0,0,1-.614.309c-.1.042-.194.082-.289.126Zm-2.965-.525a1.573,1.573,0,0,1-.761-.189l-.039-.021c-.229-.122-.515-.273-.433-.625.132-.558.339-.756.794-.756h.017c.48.005.98.035,1.488.089a.9.9,0,0,1,.334.138l.013.009.057.032-.026.142c-.056.247-.107.5-.161.74-.024.108-.059.172-.093.183A3.786,3.786,0,0,1-15582.774-1647.921Zm-2.191-.5h-.046a9.442,9.442,0,0,1-1.215-.079c-.485-.071-.687-.3-.771-.871l.5-.039.089-.007c.744-.057,1.513-.116,2.316-.175,0,.03-.006.062-.008.1l0,.034c-.007.11-.015.207-.026.294a.366.366,0,0,1-.025.081l-.006.013a.358.358,0,0,0-.024.063l-.007.018C-15584.386-1648.452-15584.4-1648.419-15584.966-1648.419Zm12.853-.074h-.041c-.263,0-.335-.147-.365-.367a1.594,1.594,0,0,1,.671-1.454,9.782,9.782,0,0,0,1.033-1.134,1.311,1.311,0,0,0,.312-1.391.953.953,0,0,0,.369.089.448.448,0,0,0,.421-.289.657.657,0,0,0-.312-.839,4.158,4.158,0,0,0-.8-.383.564.564,0,0,1-.442-.519l-.007-.145,0-.023c-.019-.321-.036-.653-.026-.976a.465.465,0,0,1,.221-.3.521.521,0,0,1,.264-.063.7.7,0,0,1,.09.006c.153.016.306.031.46.046h.009a11.281,11.281,0,0,1,1.588.227,3.9,3.9,0,0,1,.9.388c.143.076.289.154.436.221.164.075.334.139.531.214l.01,0,.156.06c-.022.037-.046.074-.071.112l-.025.041c-.063.1-.135.219-.223.346a3.544,3.544,0,0,1,.483,2.231c0,.313,0,.636.03.955l-.285-.147c-.009.118-.014.237-.018.357l0,.058c-.016.387-.037.786-.066,1.181a1.72,1.72,0,0,0,.286,1.118c.014.023.026.046.041.07s.02.036.03.054l.022.04c.034.06.072.127.122.209h-4.376c-.147,0-.295,0-.439,0h-.009c-.143,0-.287,0-.428,0C-15571.777-1648.506-15571.951-1648.5-15572.113-1648.493Zm1.852-6.712.031,0,.03,0a.689.689,0,0,1,.451.21c.041.055-.047.216-.118.346l-.02.041a.524.524,0,0,0-.026.048c-.013.024-.054.037-.11.055-.029.01-.062.02-.1.034a.714.714,0,0,0,.259.06c.161,0,.258-.094.286-.28.037-.219.141-.312.348-.312l.067,0a1.612,1.612,0,0,0,.164.006h.164a.776.776,0,0,0,.026-.11l-.211-.061-.115-.034-.007,0c-.342-.1-.694-.2-1.047-.281a.6.6,0,0,0-.134-.016c-.205,0-.356.131-.451.389.063-.013.121-.027.177-.041l.012,0A1.36,1.36,0,0,1-15570.262-1655.205Zm-8.82,6.271h-.009l-.264-.057-.013,0c-.5-.108-1.016-.219-1.51-.37a.637.637,0,0,1-.359-.462.722.722,0,0,1,.371-.457,1.063,1.063,0,0,1,.568-.121c.382.009.761.034,1.2.064l.3.02c-.006.086-.014.174-.018.263-.02.345-.041.656-.076.97A.26.26,0,0,1-15579.082-1648.934Zm-6.747-.8a3.894,3.894,0,0,1-.913-.1.562.562,0,0,1-.5-.472.679.679,0,0,1,.333-.682.641.641,0,0,1,.209-.1c.073-.017.147-.037.221-.056a2.693,2.693,0,0,1,.582-.111c.221-.007.46-.011.749-.011l.5,0h.054l.533,0-.026.154c-.073.448-.134.807-.205,1.211l-.1.016A9.028,9.028,0,0,1-15585.829-1649.737Zm3.828-.021c-.051,0-.1,0-.153-.005-.343-.031-.7-.048-1.015-.063l-.052,0-.35-.018c-.235-.015-.338-.138-.332-.4.011-.544.211-.848.628-.955.433-.106.861-.171,1.277-.233l.017,0c.177-.027.345-.052.509-.08.041.1.082.186.119.271.021.051.043.1.065.149.072.168.142.323.211.482-.028.033-.063.069-.108.114a.987.987,0,0,0-.257.338A.522.522,0,0,1-15582-1649.758Zm2.714-.9h-.011a6.158,6.158,0,0,1-1.075-.078c-.348-.062-.653-.393-.637-.6a.845.845,0,0,1,.724-.6c.33-.046.662-.083,1.011-.122l.021,0c.207-.023.42-.047.639-.074a.725.725,0,0,0-.2.855.559.559,0,0,1-.02.484C-15578.908-1650.7-15579.052-1650.655-15579.287-1650.655Zm-7.259-.761h-.006a.841.841,0,0,1-.281-.053.794.794,0,0,1-.5-.693.75.75,0,0,1,.647-.481.4.4,0,0,1,.082.009,8.324,8.324,0,0,0,1.8.234,5.038,5.038,0,0,0,.941-.087c-.053.1-.1.2-.141.29l-.033.07c-.084.179-.162.349-.259.511a.384.384,0,0,1-.275.152c-.656.026-1.326.037-1.972.047Zm2.688-.042h0a1.166,1.166,0,0,1,.462-1.143,4.8,4.8,0,0,1,.665-.294c.241-.087.476-.168.724-.254l.033-.011c.231-.08.468-.162.71-.249a1.115,1.115,0,0,0,.4,1.328c-.043.034-.08.068-.117.1a.568.568,0,0,1-.215.15,11.7,11.7,0,0,1-2.661.372Zm3.877-.782h0l-.175-.04-.028-.007a5.432,5.432,0,0,1-.564-.148c-.214-.07-.295-.235-.252-.519.036-.256.166-.4.369-.4a3.834,3.834,0,0,0,1.637-.532c.108-.054.211-.106.313-.156a.457.457,0,0,1,.191-.053c.1,0,.175.057.259.195a.983.983,0,0,1,.13.879.906.906,0,0,1-.642.533c-.278.075-.552.125-.841.178l-.037.007c-.118.022-.237.043-.36.068Zm-5.124-.368a3.174,3.174,0,0,1-1.078-.184,2.069,2.069,0,0,1-1.107-.756.468.468,0,0,1-.1-.373.366.366,0,0,1,.229-.225,1.815,1.815,0,0,1,.685-.189.724.724,0,0,1,.089.005c.423.054.833.142,1.268.235l.031.007c.188.04.381.082.575.12-.246.561-.246.561.477,1.207A4.062,4.062,0,0,1-15585.1-1652.608Zm15-.336c-.121,0-.287-.053-.318-.121a.552.552,0,0,0-.544-.334,2.359,2.359,0,0,0-.262.02,3.267,3.267,0,0,1-.416.028,2.278,2.278,0,0,1-1.59-.594.564.564,0,0,0-.274-.105,1.3,1.3,0,0,1-.15-.037c0-.016-.01-.033-.016-.05s-.009-.034-.015-.049a1.679,1.679,0,0,0,.168-.07.768.768,0,0,1,.294-.094.228.228,0,0,1,.055.006c.829.207,1.649.451,2.443.687a.747.747,0,0,1,.227.127,1.656,1.656,0,0,0,.141.094c.049.027.1.05.153.072s.077.032.109.048l.02-.033.006-.009c.009-.02.021-.039.031-.057-.026-.019-.052-.04-.076-.061a.591.591,0,0,0-.19-.122c-.919-.289-1.866-.575-2.811-.85a.642.642,0,0,0-.178-.027c-.3,0-.474.257-.629.521a1.136,1.136,0,0,1-.061-.864,1.075,1.075,0,0,1,.513-.648,1.579,1.579,0,0,1,.535-.173,1.5,1.5,0,0,0,.717-.268.553.553,0,0,1,.319-.116c.253,0,.431.222.431.541,0,.186.015.379.027.55l0,.022a.774.774,0,0,0,.591.792,2.975,2.975,0,0,1,.712.341.6.6,0,0,1,.282.346.548.548,0,0,1-.127.462A.235.235,0,0,1-15570.1-1652.943Zm-13.283-.058a2.124,2.124,0,0,1-.7-.179l-.111-.042c-.123-.047-.2-.126-.205-.217a.292.292,0,0,1,.181-.256c.412-.246.848-.476,1.234-.678l.154-.083a2.191,2.191,0,0,1,.233-.092l.007,0a1.443,1.443,0,0,0,.311-.135.926.926,0,0,1,.512-.154,1.594,1.594,0,0,1,.6.138,1.19,1.19,0,0,1-.163.283c-.155.223-.3.433-.053.772-.188.066-.377.139-.545.2a9.542,9.542,0,0,1-1.3.427A.76.76,0,0,1-15583.387-1653Zm3.121-.766a3.111,3.111,0,0,1-.545-.067l-.1-.017a.26.26,0,0,1-.219-.148.3.3,0,0,1,.079-.282,2.559,2.559,0,0,1,.564-.493,1.877,1.877,0,0,1,.38-.175c.062-.022.135-.048.2-.077a1.612,1.612,0,0,1,.571-.148c.3,0,.468.2.686.825-.144.061-.293.129-.414.184a6.363,6.363,0,0,1-.944.373A1.112,1.112,0,0,1-15580.266-1653.767Zm-3.85-.493a.828.828,0,0,1-.271-.071c-.052-.02-.1-.037-.143-.05.009-.036.016-.075.025-.123l0-.007a1.19,1.19,0,0,1,.089-.289,2,2,0,0,1,1.515-1.076c.222-.043.458-.083.768-.131v1.023c-.191.072-.388.146-.621.236-.4.154-.85.328-1.3.478A.284.284,0,0,1-15584.115-1654.261Zm-.882-.057h0c-.113-.028-.229-.054-.347-.082l-.007,0c-.325-.074-.653-.15-.969-.252-.331-.111-.731-.334-.749-.766-.007-.337.309-.465.587-.579l.034-.014.053-.021a4.952,4.952,0,0,1,.731-.225l.008,0c.123-.031.237-.06.353-.093-.059.275-.078.443-.013.544s.2.139.443.191c.1.02.188.035.287.051l.02,0,.244.041c-.207.366-.4.712-.56,1l-.114.2Zm3.844-.688a1.577,1.577,0,0,1-.4-.074c-.047-.013-.091-.025-.136-.036-.246-.058-.237-.247-.23-.429,0-.034,0-.065,0-.1,0-.192.126-.213.26-.236l.06-.011.177-.033.028-.005a7.04,7.04,0,0,0,1.078-.261.759.759,0,0,1,.234-.044.424.424,0,0,1,.377.244c.078.125.164.25.285.425l.011.017.056.083-.469.132-.028.008c-.411.117-.8.227-1.194.307A.374.374,0,0,1-15581.153-1655.006Zm-3.054-.866a2.913,2.913,0,0,1-.983-.168c.058-.077.109-.148.159-.216l.016-.019c.118-.159.211-.283.311-.41a.5.5,0,0,1,.079-.077l.007-.006c.014-.01.024-.021.037-.032a1.854,1.854,0,0,1,1.181-.588,1.259,1.259,0,0,1,.9.452c-.008.061-.015.124-.022.189l-.015.114-.021.175-.03.252A4.993,4.993,0,0,1-15584.207-1655.872Zm2.437-.215h-.023a.7.7,0,0,1-.406-.194.416.416,0,0,1-.112-.346.493.493,0,0,1,.3-.263,8.036,8.036,0,0,1,.88-.156l.121-.017h.018a.317.317,0,0,1,.188.064c.209.172.409.354.6.525a.489.489,0,0,1-.01.089l-.006.048-.391.07c-.356.065-.76.138-1.149.182Zm-4.412-.257a1.386,1.386,0,0,1-.785-.231,4.792,4.792,0,0,1-.859-.827l-.009-.011-.059-.065c-.047-.055-.095-.109-.143-.162a.118.118,0,0,1-.025-.091.394.394,0,0,1,.08-.235.757.757,0,0,1,.537-.277.651.651,0,0,1,.258.057,2.757,2.757,0,0,0,.435.129l.032.008c.055.013.11.027.165.042v.071a.7.7,0,0,1,0,.091c-.11.654-.056.742.564.939a5.489,5.489,0,0,0,.592.151l.05.011.193.044A1.61,1.61,0,0,1-15586.183-1656.344Zm.895-.682a1.948,1.948,0,0,1-.687-.126c-.151-.054-.375-.2-.371-.288.021-.186.131-.473.261-.52l.017,0a4.749,4.749,0,0,1,1.475-.331h.045a1.27,1.27,0,0,1,.649.339c.1.074.205.157.314.228A2.839,2.839,0,0,1-15585.288-1657.026Zm3.523-.089a2.3,2.3,0,0,1-1.631-.714c.2-.01.38-.022.559-.033.371-.023.719-.044,1.063-.051h.007c.233,0,.487.233.7.64A1.523,1.523,0,0,1-15581.765-1657.116Zm-.919-.945c-1.062,0-2.007-.553-2.114-1.233l.522.158.034.01c.27.082.526.161.784.237.058.017.113.036.172.054a2.251,2.251,0,0,0,.525.125,1.092,1.092,0,0,1,.708.423l.132.133A3.186,3.186,0,0,1-15582.684-1658.06Zm-3.638-.136h-.066c-.31,0-.595-.244-.6-.436a.429.429,0,0,1,.127-.291.7.7,0,0,1,.494-.23l.046,0a8.225,8.225,0,0,1,1.288.247c.081.021.145.108.205.192l.014.019c.026.034.053.069.079.1l-.041.121c-.157.029-.317.061-.473.092-.332.067-.708.142-1.072.186Zm-.988-.273h-.042a1.7,1.7,0,0,1-1.126-.588,1.782,1.782,0,0,1-.558-1.165.248.248,0,0,1,.047-.152.715.715,0,0,1,.55-.184.822.822,0,0,1,.574.178c.115.125.235.251.353.376l.285.306.373.4c-.069.123-.137.247-.205.372l-.08.148-.171.309Zm4.171-.53h0l-.054-.019-.08-.028c-.121-.043-.24-.086-.358-.12-.2-.053-.389-.1-.605-.157l-.07-.018c-.174-.045-.355-.091-.533-.139l-.025-.005a.319.319,0,0,1-.171-.073c-.267-.336-.527-.668-.8-1.019l-.185-.235c-.2-.25-.395-.505-.6-.767a12,12,0,0,1,3.534,2.488l-.045.093Zm-1.823-.079h0c-1.229-.192-2.816-1.007-2.822-1.611.181.061.368.119.548.176l.021.006a9.494,9.494,0,0,1,1.39.511,1.92,1.92,0,0,1,.589.577l.007.008c.084.109.173.222.27.33Zm-.943-1.16h0a3.742,3.742,0,0,1-2.388-1.4,1.427,1.427,0,0,1,.425-.068c.634,0,1.24.45,1.965,1.46Zm-2.228-.525h0a10.815,10.815,0,0,1-2.955-2.319,8.054,8.054,0,0,1,3.684,1.223h-1.3l.175.267.19.292c.1.156.2.3.293.453l-.088.083Z" transform="translate(15600 1669.08)" fill="#fff"/>
  </g>
</svg>
