<svg xmlns="http://www.w3.org/2000/svg" width="23.662" height="21.033" viewBox="0 0 23.662 21.033">
  <path id="Icon_awesome-house-damage" data-name="Icon awesome-house-damage" d="M11.831,4.723,2.854,12.641a1.9,1.9,0,0,1-.225.138v7.6a.657.657,0,0,0,.657.657H20.376a.657.657,0,0,0,.657-.657v-7.6a1.917,1.917,0,0,1-.216-.131ZM23.444,9.706,21.033,7.577V1.972a.657.657,0,0,0-.657-.657H17.747a.657.657,0,0,0-.657.657V4.1L12.93.424a1.637,1.637,0,0,0-2.2,0L.218,9.706a.657.657,0,0,0-.05.928l.879.979a.657.657,0,0,0,.928.05L11.4,3.353a.658.658,0,0,1,.87,0l9.421,8.309a.658.658,0,0,0,.928-.05l.879-.979A.657.657,0,0,0,23.444,9.706Z" transform="translate(0 0)" fill="#fff"/>
</svg>
