<svg xmlns="http://www.w3.org/2000/svg" xmlns:xlink="http://www.w3.org/1999/xlink" width="31.686" height="52.462" viewBox="0 0 31.686 52.462">
  <defs>
    <filter id="Вычитание_117" x="0" y="0" width="31.686" height="52.462" filterUnits="userSpaceOnUse">
      <feOffset input="SourceAlpha"/>
      <feGaussianBlur stdDeviation="2" result="blur"/>
      <feFlood/>
      <feComposite operator="in" in2="blur"/>
      <feComposite in="SourceGraphic"/>
    </filter>
  </defs>
  <g transform="matrix(1, 0, 0, 1, 0, 0)" filter="url(#Вычитание_117)">
    <path id="Вычитание_117-2" data-name="Вычитание 117" d="M-16648.937-1619.088v0a40.533,40.533,0,0,1-7.531-5.763,28.693,28.693,0,0,1-5.178-6.616,17.679,17.679,0,0,1-2.354-8.578v-18.075a60.439,60.439,0,0,0,15.063,2.279c1.2-.028,2.418-.093,3.623-.193v2c-1.209.111-2.428.181-3.623.209a53.5,53.5,0,0,1-13.307-2.016v15.971a15.609,15.609,0,0,0,2.078,7.574,25.521,25.521,0,0,0,4.576,5.842,35.831,35.831,0,0,0,6.652,5.094,36.161,36.161,0,0,0,3.623-2.464v2.316a40.959,40.959,0,0,1-3.621,2.427Zm0-4.558h0a31.18,31.18,0,0,1-5.775-4.42,21.963,21.963,0,0,1-3.969-5.069,13.52,13.52,0,0,1-1.8-6.574v-13.86a46.322,46.322,0,0,0,11.547,1.748c1.207-.028,2.426-.105,3.623-.228v8.75l-1.318.005c-.43-1.3-.861-2.625-1.281-3.9l-.008-.029q-.2-.6-.395-1.2-.29-.884-.582-1.774l-.01.02a.416.416,0,0,1-.025.048.138.138,0,0,0-.014.037q-.48,1.443-.957,2.883c-.26.78-.518,1.559-.768,2.316-.055.164-.107.329-.162.493l-.223.664-.109.332c-.051.138-.051.138-.2.138l-.16,0h-.018l-.152,0-2.939-.017c-1.187-.013-2.4-.021-3.463-.028h-.154l-.037,0a.146.146,0,0,0-.105.041l5.871,4.132-2.27,6.909.029.017,5.824-4.186,3.623,2.638v7.614a31.179,31.179,0,0,1-3.623,2.516Z" transform="translate(16670.5 1664.79)" fill="#fff" stroke="rgba(0,0,0,0)" stroke-width="1"/>
  </g>
</svg>
