<svg xmlns="http://www.w3.org/2000/svg" xmlns:xlink="http://www.w3.org/1999/xlink" width="50.611" height="74.228" viewBox="0 0 50.611 74.228">
  <defs>
    <filter id="Объединение_14" x="0" y="0" width="50.611" height="74.228" filterUnits="userSpaceOnUse">
      <feOffset input="SourceAlpha"/>
      <feGaussianBlur stdDeviation="6.5" result="blur"/>
      <feFlood/>
      <feComposite operator="in" in2="blur"/>
      <feComposite in="SourceGraphic"/>
    </filter>
  </defs>
  <g id="Сгруппировать_2517" data-name="Сгруппировать 2517" transform="translate(-0.692 5.665)">
    <g id="Сгруппировать_2373" data-name="Сгруппировать 2373" transform="translate(19.687 13)">
      <path id="Контур_1472" data-name="Контур 1472" d="M37.454,0V13.612H0V0ZM26.388,11.855,28.4,1.746H26.678L25.435,8.575l-.073-.01-1.4-6.81H21.881L20.4,8.43h-.085L19.123,1.76H17.352l1.938,10.094h1.917l1.627-7.359.082,0,1.6,7.356ZM1.846,1.742v10.11H3.4v-6.4l.082-.013,3.3,6.4H8.488V1.765H6.916v6.5l-.088.014L3.476,1.742Zm27.109,6.8a3.652,3.652,0,0,0,1.3,2.937,3.7,3.7,0,0,0,2.445.58,2.92,2.92,0,0,0,3.038-2.773,2.975,2.975,0,0,0-1.6-3.215c-.5-.236-1.045-.379-1.567-.573a9.191,9.191,0,0,1-1.293-.519.827.827,0,0,1,0-1.484,1.589,1.589,0,0,1,2.452.935c.023.085.045.171.078.3l1.675-.091a2.767,2.767,0,0,0-1.9-2.9,5.207,5.207,0,0,0-1.724-.18A2.521,2.521,0,0,0,29.4,3.27a2.962,2.962,0,0,0,.568,3.161,4.279,4.279,0,0,0,1.9,1c.477.161.971.284,1.432.483a1.143,1.143,0,0,1,.322,1.92,1.79,1.79,0,0,1-2.92-.794c-.057-.21-.111-.421-.181-.69ZM12.113,7.4h4.163V5.68H12.111V3.436h4.46V1.751H10.4v10.1h6.341V10.155H12.113Z" transform="translate(0 37.561) rotate(-90)" fill="#ff5454" stroke="rgba(0,0,0,0)" stroke-width="1"/>
      <g id="Сгруппировать_2372" data-name="Сгруппировать 2372" transform="translate(15.313)">
        <rect id="Прямоугольник_1580" data-name="Прямоугольник 1580" width="3" height="37" transform="translate(0 0.204)" opacity="0.5"/>
        <rect id="Прямоугольник_1581" data-name="Прямоугольник 1581" width="3" height="37" transform="translate(4 0.204)" opacity="0.5"/>
        <rect id="Прямоугольник_1582" data-name="Прямоугольник 1582" width="3" height="37" transform="translate(8 0.204)" opacity="0.5"/>
      </g>
    </g>
    <g transform="matrix(1, 0, 0, 1, 0.69, -5.67)" filter="url(#Объединение_14)">
      <path id="Объединение_14-2" data-name="Объединение 14" d="M4.773,34.228H.666c-.454,0-.454,0-.454-.444,0-.315.01-.632,0-.947a.413.413,0,0,1,.258-.419q2.8-1.425,5.59-2.86c.184-.094.372-.176.551-.27a1.523,1.523,0,0,0,.188-.139l-.02-.067c-.095-.007-.191-.02-.288-.02L.708,29.057c-.085,0-.166,0-.251,0-.158,0-.245-.069-.243-.233,0-.372-.01-.746.011-1.116,0-.074.111-.166.2-.2A.722.722,0,0,1,.7,27.487c3.12,0,6.24.005,9.357-.007.293,0,.372.089.357.365-.022.379-.013.764-.008,1.146a.339.339,0,0,1-.216.347Q8.16,30.368,6.139,31.406c-.687.35-1.376.7-2.061,1.052a.258.258,0,0,0-.124.169c.156.01.313.027.469.027l5.588,0c.392,0,.392,0,.395.407v.781c0,.389,0,.389-.38.389Zm5.3-8.628c-1.582-.015-3.167-.007-4.749-.007q-2.276,0-4.556,0c-.672,0-.559-.01-.561-.553v-5.3c0-.394.013-.4.411-.4.114,0,.229,0,.343,0,.211,0,.424,0,.635,0,.238-.01.3.084.3.31q-.007,1.912,0,3.827c0,.427,0,.432.441.432.5,0,1.007-.017,1.508-.007.256,0,.345-.094.342-.347-.01-1.173,0-2.346,0-3.517,0-.372.02-.387.4-.389.315,0,.633,0,.947,0,.357,0,.367.007.367.355v3.489c0,.394.013.412.407.414.662,0,1.321,0,1.983-.007.393,0,.412-.03.412-.412q0-1.942,0-3.881c0-.432.018-.446.464-.449.109,0,.218,0,.33,0,.2,0,.394.007.59-.005.25-.015.32.077.32.318-.011,1.49-.008,2.981-.008,4.469,0,.446-.008.9.008,1.342.007.242-.063.335-.322.335ZM.207,18.229c.01-.382.012-.764,0-1.143-.007-.216.067-.325.285-.362.752-.126,1.5-.265,2.252-.4q1.979-.346,3.958-.694a1.443,1.443,0,0,0,.238-.087l-.01-.077c-.312-.072-.625-.149-.937-.218L1.145,14.187c-.072-.015-.142-.042-.216-.059-.72-.186-.72-.186-.72-.935,0-.335.008-.67,0-1a.3.3,0,0,1,.272-.347c1.066-.216,2.133-.442,3.2-.66s2.133-.439,3.2-.66a.257.257,0,0,0,.169-.109,3.212,3.212,0,0,0-.369-.109q-2.348-.431-4.7-.853C1.49,9.361.994,9.269.5,9.192.3,9.16.2,9.078.212,8.865c.01-.372,0-.744,0-1.116C.2,7.513.284,7.431.525,7.481c1.223.245,2.445.484,3.668.724,1.1.213,2.192.424,3.286.645.8.164,1.6.337,2.4.506.161.035.409.012.464.107a1.236,1.236,0,0,1,.06.565c0,.355,0,.707,0,1.062a.236.236,0,0,1-.213.27c-1.272.275-2.545.556-3.814.831-1.064.233-2.128.461-3.189.694A1.329,1.329,0,0,0,2.985,13c.261.074.454.144.652.186q2.708.6,5.424,1.193c.38.082.764.161,1.139.265a.329.329,0,0,1,.193.231c.02.494,0,.987.015,1.478,0,.2-.114.253-.272.283l-3.068.6c-1.25.243-2.5.491-3.75.732-.933.179-1.864.345-2.8.521a.631.631,0,0,1-.111.012C.27,18.492.2,18.419.207,18.229ZM7.047,6.62c-.032-.342-.069-.684-.119-1.024-.037-.268.057-.394.327-.439a1.9,1.9,0,0,0,1.31-.771,1.953,1.953,0,0,0-.319-2.393,1.17,1.17,0,0,0-1.878.568c-.24.655-.429,1.327-.667,1.982a2.841,2.841,0,0,1-1.587,1.81A3.148,3.148,0,0,1,.805,5.8,2.8,2.8,0,0,1,.034,4.043,3.618,3.618,0,0,1,.617,1.357,3.03,3.03,0,0,1,2.908.251c.154-.012.224.059.224.213,0,.223,0,.446,0,.67h.027c0,.055.01.112.01.166,0,.2.062.434-.024.573s-.328.164-.5.223a1.393,1.393,0,0,0-.905,1.7,1.911,1.911,0,0,0,.258.754.8.8,0,0,0,1.377.077,6.511,6.511,0,0,0,.6-1.307c.226-.568.382-1.166.63-1.724A2.6,2.6,0,0,1,6.764.048,3.757,3.757,0,0,1,9.051.375a2.665,2.665,0,0,1,1.461,1.992,4.622,4.622,0,0,1-.124,2.45A2.649,2.649,0,0,1,8.7,6.513c-.43.149-.878.243-1.317.355a.455.455,0,0,1-.108.015C7.142,6.883,7.063,6.8,7.047,6.62Z" transform="translate(20 20)" fill="#fff" stroke="rgba(0,0,0,0)" stroke-width="1"/>
    </g>
  </g>
</svg>
