<svg xmlns="http://www.w3.org/2000/svg" width="26" height="26" viewBox="0 0 26 26">
  <path id="Icon_awesome-fan" data-name="Icon awesome-fan" d="M17.9,6.5a11.465,11.465,0,0,0-3.913.653L14.621.9a.831.831,0,0,0-.944-.895A8.178,8.178,0,0,0,6.5,8.1a11.465,11.465,0,0,0,.653,3.913L.9,11.379a.831.831,0,0,0-.895.944A8.178,8.178,0,0,0,8.1,19.5a11.465,11.465,0,0,0,3.913-.653l-.63,6.252a.832.832,0,0,0,.944.895A8.178,8.178,0,0,0,19.5,17.9a11.465,11.465,0,0,0-.653-3.913l6.252.63a.831.831,0,0,0,.895-.944A8.178,8.178,0,0,0,17.9,6.5ZM13,14.625A1.625,1.625,0,1,1,14.625,13,1.625,1.625,0,0,1,13,14.625Z" transform="translate(0 0)" fill="#fff"/>
</svg>
