<svg xmlns="http://www.w3.org/2000/svg" width="19.5" height="19.5" viewBox="0 0 19.5 19.5">
    <path id="Icon_awesome-phone-square-alt" data-name="Icon awesome-phone-square-alt"
          d="M17.411,2.25H2.089A2.089,2.089,0,0,0,0,4.339V19.661A2.089,2.089,0,0,0,2.089,21.75H17.411A2.089,2.089,0,0,0,19.5,19.661V4.339A2.089,2.089,0,0,0,17.411,2.25ZM16.7,15.629l-.653,2.829a.653.653,0,0,1-.636.506A12.624,12.624,0,0,1,2.786,6.342a.683.683,0,0,1,.506-.636l2.829-.653a.793.793,0,0,1,.147-.017.708.708,0,0,1,.6.4L8.174,8.478a.779.779,0,0,1,.053.257.74.74,0,0,1-.239.505L6.338,10.59a10.094,10.094,0,0,0,4.822,4.822l1.349-1.649a.74.74,0,0,1,.505-.239.777.777,0,0,1,.257.053l3.047,1.306a.707.707,0,0,1,.4.6.758.758,0,0,1-.017.147Z"
          transform="translate(0 -2.25)" fill="#ffffff"/>
</svg>
