<svg xmlns="http://www.w3.org/2000/svg" xmlns:xlink="http://www.w3.org/1999/xlink" width="56.668" height="62.519" viewBox="0 0 56.668 62.519">
  <defs>
    <filter id="Объединение_17" x="0" y="0" width="56.668" height="62.519" filterUnits="userSpaceOnUse">
      <feOffset input="SourceAlpha"/>
      <feGaussianBlur stdDeviation="5" result="blur"/>
      <feFlood/>
      <feComposite operator="in" in2="blur"/>
      <feComposite in="SourceGraphic"/>
    </filter>
  </defs>
  <g id="Сгруппировать_2408" data-name="Сгруппировать 2408" transform="translate(-9933.521 -3860.583)">
    <g id="paw" transform="translate(9948.521 3875.583)">
      <g transform="matrix(1, 0, 0, 1, -15, -15)" filter="url(#Объединение_17)">
        <path id="Объединение_17-2" data-name="Объединение 17" d="M9.511,32.513A5.608,5.608,0,0,1,6.742,22.188a2.171,2.171,0,0,0,.992-1.945c-.005-.1-.008-.207-.008-.311a5.609,5.609,0,0,1,11.214-.18c.005.162,0,.325-.005.486a2.178,2.178,0,0,0,.992,1.949,5.608,5.608,0,0,1-5.6,9.7,2.156,2.156,0,0,0-1.983,0,5.6,5.6,0,0,1-2.579.626C9.679,32.519,9.595,32.517,9.511,32.513ZM20.392,14.57c0-.438.131-1.243,1.258-3.187.364-.627.725-1.188.95-1.528.059-.316.132-.675.222-1.085.219-1,.435-1.834.444-1.87.06-.229.159-.367.265-.367s.2.138.264.367c.009.036.225.866.444,1.87.09.41.163.769.222,1.085.225.34.585.9.95,1.527,1.127,1.944,1.258,2.75,1.258,3.188a3.138,3.138,0,0,1-6.276,0ZM0,14.57c0-.438.13-1.243,1.258-3.187.364-.627.725-1.188.95-1.528.06-.316.132-.675.222-1.085.219-1,.435-1.834.444-1.87.06-.229.159-.367.264-.367s.2.138.264.367c.01.036.226.866.444,1.87.09.41.163.769.222,1.085.225.34.585.9.95,1.527,1.127,1.944,1.258,2.75,1.258,3.188A3.138,3.138,0,0,1,0,14.57ZM14.151,8.855c0-.437.132-1.243,1.258-3.186.28-.482.558-.924.773-1.258.065-.5.184-1.192.4-2.174.219-1,.436-1.835.444-1.87.06-.231.159-.367.265-.367s.2.137.263.367c.009.035.225.866.444,1.87.215.983.333,1.674.4,2.174.216.333.493.776.772,1.257,1.127,1.943,1.258,2.75,1.258,3.186a3.138,3.138,0,1,1-6.276,0Zm-7.91,0c0-.437.13-1.243,1.258-3.186.28-.482.557-.924.772-1.258.065-.5.184-1.192.4-2.174.22-1,.436-1.835.444-1.87C9.174.137,9.273,0,9.379,0s.2.137.264.367c.008.035.224.866.444,1.87.214.982.333,1.673.4,2.174.215.333.493.776.772,1.258,1.127,1.943,1.258,2.75,1.258,3.186a3.137,3.137,0,1,1-6.275,0Z" transform="translate(15 15)" fill="#fff"/>
      </g>
    </g>
  </g>
</svg>
