<svg xmlns="http://www.w3.org/2000/svg" xmlns:xlink="http://www.w3.org/1999/xlink" width="40.756" height="50.615" viewBox="0 0 40.756 50.615">
  <defs>
    <filter id="Контур_2405" x="0" y="15.569" width="20.768" height="30.879" filterUnits="userSpaceOnUse">
      <feOffset input="SourceAlpha"/>
      <feGaussianBlur stdDeviation="2" result="blur"/>
      <feFlood/>
      <feComposite operator="in" in2="blur"/>
      <feComposite in="SourceGraphic"/>
    </filter>
    <filter id="Контур_2406" x="10.821" y="34.739" width="28.896" height="15.876" filterUnits="userSpaceOnUse">
      <feOffset input="SourceAlpha"/>
      <feGaussianBlur stdDeviation="2" result="blur-2"/>
      <feFlood/>
      <feComposite operator="in" in2="blur-2"/>
      <feComposite in="SourceGraphic"/>
    </filter>
    <filter id="Контур_2407" x="0.518" y="0.063" width="30.5" height="26.397" filterUnits="userSpaceOnUse">
      <feOffset input="SourceAlpha"/>
      <feGaussianBlur stdDeviation="2" result="blur-3"/>
      <feFlood/>
      <feComposite operator="in" in2="blur-3"/>
      <feComposite in="SourceGraphic"/>
    </filter>
    <filter id="Контур_2408" x="19.601" y="0" width="21.155" height="18.248" filterUnits="userSpaceOnUse">
      <feOffset input="SourceAlpha"/>
      <feGaussianBlur stdDeviation="2" result="blur-4"/>
      <feFlood/>
      <feComposite operator="in" in2="blur-4"/>
      <feComposite in="SourceGraphic"/>
    </filter>
    <filter id="Контур_2409" x="2.168" y="1.471" width="38.586" height="47.188" filterUnits="userSpaceOnUse">
      <feOffset input="SourceAlpha"/>
      <feGaussianBlur stdDeviation="2" result="blur-5"/>
      <feFlood/>
      <feComposite operator="in" in2="blur-5"/>
      <feComposite in="SourceGraphic"/>
    </filter>
  </defs>
  <g id="Сгруппировать_2490" data-name="Сгруппировать 2490" transform="translate(-537.506 1079.029)">
    <g transform="matrix(1, 0, 0, 1, 537.51, -1079.03)" filter="url(#Контур_2405)">
      <path id="Контур_2405-2" data-name="Контур 2405" d="M545.962-871.012c0-.312.019-.657.04-1.028-.371-.324-.785-.678-1.194-1.023l-.151-.129-.494-.42a20.2,20.2,0,0,0-.086,4.193,18.2,18.2,0,0,0,4.519,10.709,23.07,23.07,0,0,0,2.534,2.49h0v-.005a.2.2,0,0,0,.015-.033v-.016a.193.193,0,0,1,.01-.033.428.428,0,0,1,.023-.088l.528-1.887A16.977,16.977,0,0,1,545.962-871.012Z" transform="translate(-537.51 896.16)" fill="#fff" stroke="rgba(0,0,0,0)" stroke-width="1"/>
    </g>
    <g transform="matrix(1, 0, 0, 1, 537.51, -1079.03)" filter="url(#Контур_2406)">
      <path id="Контур_2406-2" data-name="Контур 2406" d="M698.85-639.826l-.023-.015c-.356-.255-.653-.469-.934-.671a15.642,15.642,0,0,1-5.514,1.007c-.136,0-.272,0-.41-.005a15.742,15.742,0,0,1-5.384-1.14l-.584.41c-.429.3-.854.6-1.277.9a16.913,16.913,0,0,0,5.614,1.433c.595.047,1.215.072,1.839.072a18.833,18.833,0,0,0,7.424-1.443c-.214-.157-.454-.327-.75-.536Z" transform="translate(-666.89 681.95)" fill="#fff" stroke="rgba(0,0,0,0)" stroke-width="1"/>
    </g>
    <g transform="matrix(1, 0, 0, 1, 537.51, -1079.03)" filter="url(#Контур_2407)">
      <path id="Контур_2407-2" data-name="Контур 2407" d="M554.742-1058.37a17.135,17.135,0,0,1,14.393-11.645l.01-.039.017-.039c.031-.093.065-.187.1-.28.04-.113.08-.229.117-.337.061-.175.126-.358.184-.523s.117-.33.172-.5c-.492.025-1.171.058-1.807.144a17.28,17.28,0,0,0-8.99,3.889,19.064,19.064,0,0,0-6.327,9.328h2.134Z" transform="translate(-545.42 1078.33)" fill="#fff" stroke="rgba(0,0,0,0)" stroke-width="1"/>
    </g>
    <g transform="matrix(1, 0, 0, 1, 537.51, -1079.03)" filter="url(#Контур_2408)">
      <path id="Контур_2408-2" data-name="Контур 2408" d="M790.2-1072.491c.086.242.172.486.256.729.05.142.1.285.149.429.063.171.119.34.178.51l.055.149A17.108,17.108,0,0,1,798.13-1068l.006.006v-2.145A17.68,17.68,0,0,0,790.2-1072.491Z" transform="translate(-763.88 1079.03)" fill="#fff" stroke="rgba(0,0,0,0)" stroke-width="1"/>
    </g>
    <g transform="matrix(1, 0, 0, 1, 537.51, -1079.03)" filter="url(#Контур_2409)">
      <path id="Контур_2409-2" data-name="Контур 2409" d="M594.131-1032.579a1.083,1.083,0,0,1-1.215-.9c-.833-2.48-1.713-4.994-2.557-7.427l-.161-.458c-.341-.97-.679-1.942-1.007-2.884-.052-.155-.119-.309-.2-.493-.036-.084-.077-.191-.124-.3-.142.338-.235.562-.323.8-.124.353-.247.7-.373,1.057s-.249.719-.377,1.079c-1.058,2.986-2.086,5.909-3.089,8.828a.839.839,0,0,1-.938.692h-.025c-1.518-.014-3.148-.014-5.279-.014h-6.077l-.088.188.119.107.017.017c.149.131.3.266.452.392,2.285,1.949,5.3,4.525,8.423,7.153a.891.891,0,0,1,.352,1.106c-.482,1.6-.932,3.211-1.367,4.775-.151.531-.3,1.061-.448,1.592-.222.789-.444,1.579-.672,2.389-.1.361-.2.727-.31,1.1-.182.649-.369,1.313-.563,2l.008.008c.124-.082.233-.153.323-.214l.119-.078.107-.067c.094-.063.176-.115.258-.171l2.756-1.93.008-.005c1.987-1.383,4.226-2.95,6.383-4.484a1.035,1.035,0,0,1,.605-.242,1.1,1.1,0,0,1,.643.269c2.532,1.856,5.12,3.713,7.627,5.509l.017.012.62.445v-4.034l-.126-.462c-.542-1.974-1.16-4.21-1.782-6.433a.9.9,0,0,1,.341-1.112c.523-.422,1.043-.842,1.566-1.271v-6.561c-1.323,0-2.5.012-3.589.026Zm2.314,2.881.035.072c-.084.072-.167.146-.253.215-1.33,1.065-2.657,2.133-3.995,3.189a.394.394,0,0,0-.154.495c.466,1.626.92,3.255,1.377,4.884.028.1.051.2.094.393-.164-.113-.26-.176-.354-.242-1.34-.941-2.686-1.877-4.019-2.828a.414.414,0,0,0-.568-.012c-1.381.959-2.774,1.9-4.162,2.848-.095.064-.189.124-.364.237.252-.874.473-1.656.7-2.439.272-.946.538-1.892.828-2.828a.392.392,0,0,0-.159-.493c-1.284-1.053-2.559-2.116-3.837-3.177-.094-.075-.178-.152-.268-.228l.038-.084h.351c1.608,0,3.216-.006,4.817.006A.389.389,0,0,0,587-1030c.568-1.627,1.162-3.247,1.746-4.87.035-.094.077-.189.144-.355.069.163.113.255.148.353.568,1.593,1.145,3.184,1.694,4.783a.5.5,0,0,0,.579.4c1.595-.021,3.19-.01,4.785-.01Z" transform="translate(-563.52 1053.79)" fill="#fff" stroke="rgba(0,0,0,0)" stroke-width="1"/>
    </g>
  </g>
</svg>
