<svg xmlns="http://www.w3.org/2000/svg" xmlns:xlink="http://www.w3.org/1999/xlink" width="37.143" height="47.223" viewBox="0 0 37.143 47.223">
  <defs>
    <filter id="Контур_2415" x="0" y="0" width="37.143" height="47.223" filterUnits="userSpaceOnUse">
      <feOffset input="SourceAlpha"/>
      <feGaussianBlur stdDeviation="2" result="blur"/>
      <feFlood/>
      <feComposite operator="in" in2="blur"/>
      <feComposite in="SourceGraphic"/>
    </filter>
  </defs>
  <g transform="matrix(1, 0, 0, 1, 0, 0)" filter="url(#Контур_2415)">
    <path id="Контур_2415-2" data-name="Контур 2415" d="M-6527.955-2299.941l-1.441,1.052q1.187,3.58,2.357,7.134a.139.139,0,0,1-.023.017.022.022,0,0,1-.019,0l-6.091-4.426-5.842,4.2-.03-.021,2.277-6.931-5.892-4.149c.063-.058.124-.036.178-.035q1.8.011,3.594.026l2.954.018c.109,0,.221,0,.33,0,.146,0,.148,0,.195-.137q.252-.747.5-1.5.867-2.609,1.729-5.218c.014-.034.031-.067.048-.1.77,2.331,1.518,4.629,2.277,6.931l4.151-.018v-4.334l-.055-.051a3.442,3.442,0,0,0-.355-.3,5.951,5.951,0,0,0-.516-.324l-.035-.021c-.111-.062-.225-.13-.332-.2a.792.792,0,0,1-.268-.272c-.195-.379-.39-.769-.578-1.146l-.082-.163-.246-.5a.143.143,0,0,1-.018-.042v-.008a.113.113,0,0,0-.007-.029c0-.01-.008-.022-.014-.034l.133.033h.012a1.477,1.477,0,0,1,.191.056,11.014,11.014,0,0,1,2.156,1.137l.01.005.008.006v-3.755l-.033-.015-.038-.016-.043-.019c-.458-.2-.964-.392-1.593-.606-.367-.126-.782-.243-1.309-.368-.187-.044-.383-.073-.572-.1-.125-.018-.24-.038-.352-.055a3.439,3.439,0,0,1-.336-.074l-.086-.022c-.062-.112-.123-.23-.183-.343v-.006l-.043-.086a.137.137,0,0,1,.016-.025.107.107,0,0,0,.013-.022,12.3,12.3,0,0,1,2.033.381,16.322,16.322,0,0,1,2.53.916v-.315l-.135-.057-.207-.086-.035-.015c-.309-.129-.629-.264-.953-.365-.539-.175-1.088-.317-1.618-.456h-.013c-.285-.074-.588-.138-.949-.2-.19-.033-.385-.059-.573-.084h-.013l-.039,0-.245-.034q-.062-.115-.123-.225l-.007-.018c-.043-.076-.086-.155-.125-.233-.362-.733-.754-1.537-1.2-2.456a.227.227,0,0,0-.2-.133.2.2,0,0,0-.1.029.519.519,0,0,0-.2.2c-.213.422-.427.851-.635,1.266-.126.255-.253.511-.384.769l-.141.293c-.082.164-.17.341-.254.524l-.164.014a3.822,3.822,0,0,0-.48.057c-.471.089-.936.189-1.385.289a14.174,14.174,0,0,0-2.4.8,13.775,13.775,0,0,0-2.836,1.589l-.084.062-.019.014c-.477.355-.969.724-1.418,1.124a13.751,13.751,0,0,0-2.231,2.522c-.285.414-.548.829-.785,1.229s-.441.8-.677,1.263a.27.27,0,0,1-.231.163c-.273.026-.545.065-.785.1l-.475.075h-.013c-.219.032-.448.068-.674.1-.125.019-.248.035-.387.051h-.006c-.2.026-.408.052-.607.09a.5.5,0,0,0-.3.2c-.084.114.025.228.1.306l.812.774c.053.056.1.1.16.156s.121.119.184.179l.059.06c.31.3.632.621.947.935a.276.276,0,0,1,.076.192c-.016.148-.037.3-.059.435,0,.024-.009.047-.009.071-.006.046-.014.092-.02.138-.01.064-.021.129-.033.193a.686.686,0,0,0-.018.1v.015a5.919,5.919,0,0,0-.092.636c-.031.568-.044,1.147-.058,1.707l-.006.192v.158a11.827,11.827,0,0,0,.246,2.344v.019c.008.053.018.106.027.16s.018.108.028.162a10.915,10.915,0,0,0,.381,1.443c.14.456.31.905.523,1.438.137.343.3.7.459,1.012s.307.58.455.824c.217.355.465.737.737,1.137a11.576,11.576,0,0,0,1.308,1.618c.309.3.57.576.809.832a.366.366,0,0,1,.1.226c-.041.375-.091.752-.154,1.12-.033.194-.072.4-.109.594l-.037.187-.018.1c-.035.174-.068.353-.1.529a3.978,3.978,0,0,0-.068.443.313.313,0,0,0,.072.242.236.236,0,0,0,.18.073.347.347,0,0,0,.144-.031,2.1,2.1,0,0,0,.3-.138l2.313-1.229a.3.3,0,0,1,.15-.043.27.27,0,0,1,.151.048l.357.2.053.029.1.059a14.124,14.124,0,0,0,2.166.928,12.248,12.248,0,0,0,2.082.535c.137.021.276.044.41.067l.051.008c.363.061.74.125,1.111.151.44.031,1.018.067,1.59.067.192,0,.381-.005.565-.008a14.037,14.037,0,0,0,2.789-.4,15.628,15.628,0,0,0,2.045-.619c.312-.125.574-.235.828-.347v-15.529Zm-5.172-17.648a.049.049,0,0,1,.006-.024v0l.012-.013.009-.009.012-.011.029.042c.008.014.018.028.028.042l.011.021c.049.079.094.154.135.233.27.548.682,1.375,1.1,2.233.123.256.244.5.365.756l.029.057.12.248c.117.243.236.49.357.732.158.325.324.654.484.973l.02.038c.119.238.25.5.387.774.214.443.441.907.668,1.38.078.161.158.323.238.484.037.076.076.152.113.227l.176.355a.32.32,0,0,1,.033.091c.006.018.012.037.018.059a.558.558,0,0,1-.5-.368c-.221-.437-.442-.889-.651-1.314l-.148-.3c-.106-.217-.213-.437-.322-.654q-.261-.524-.518-1.046l-.156-.317c-.119-.242-.241-.485-.36-.728q-.5-1.021-1.013-2.081l-.241-.5c-.029-.058-.058-.118-.087-.178l-.022-.046a4.157,4.157,0,0,0-.2-.369,1.219,1.219,0,0,1-.133-.7Zm-15,15.54c-.047.256-.1.508-.146.756l-.082.422h-.026l.047-.444c.018-.143.033-.286.049-.428l.041-.376c.014-.131.029-.261.043-.391l.057-.034c.031.038.06.082.089.115Zm11.01-8.449c-.121.239-.227.45-.342.654l-.019.04-.036.068v.008c-.123.246-.285.571-.443.9a1.117,1.117,0,0,1-.6.606,2.8,2.8,0,0,0-.908.64,1.815,1.815,0,0,1-1.187.59c-.205.017-.414.053-.614.088-.082.014-.193.034-.3.05-.166.027-.336.051-.5.075l-.037.005-.084.012-.026-.033a.8.8,0,0,0,.078-.1,1.56,1.56,0,0,1,.119-.149c.17-.166.34-.335.489-.484l.056-.056c.4-.391.805-.8,1.225-1.17a8.642,8.642,0,0,1,2.479-1.522c.164-.069.335-.137.511-.2a.261.261,0,0,1,.076-.016l.065-.009Zm-8.315,2.319c-.187.262-.382.542-.56.827-.219.353-.4.68-.565,1a.492.492,0,0,1-.367.237l-.068.019a15.157,15.157,0,0,1,5.281-6.2,15.067,15.067,0,0,1,6.69-2.5l-.024.049c-.021.049-.035.081-.049.109l-.039.052v0a.393.393,0,0,0-.074.113.418.418,0,0,1-.389.246l-.171.027-.071.011h-.006c-.193.027-.394.059-.593.1l-.213.046h-.012c-.348.078-.709.157-1.055.265-.431.133-.851.3-1.316.488a8.966,8.966,0,0,0-.842.386c-.3.155-.6.326-.892.493l-.127.071-.194.108c-.152.093-.3.19-.463.3l-.228.155c-.26.172-.576.385-.86.615-.341.277-.689.6-1.142,1.045-.338.326-.67.681-.99,1.054-.2.231-.379.483-.555.731Zm2.555,15.607a.757.757,0,0,0-.031.114c-.01.039-.016.078-.022.118,0,.018,0,.037,0,.057v.013a8.619,8.619,0,0,1-1.956-5.76,10.337,10.337,0,0,0,2.038,5.368C-6542.865-2292.629-6542.873-2292.6-6542.881-2292.572Zm.438-2.416c-.063.309-.11.628-.157.937l-.013.083c-.022.156-.045.311-.069.465-.015.095-.031.182-.052.282a.76.76,0,0,1-.018.094.546.546,0,0,0-.014.08,8.493,8.493,0,0,1-1.066-1.878,9.033,9.033,0,0,1-.731-4.139l.11.091.015.013c.1.087.167.147.229.208l.189.184.161.159.324.318c.1.094.185.2.277.3l.065.075a.235.235,0,0,1,.05.1c.028.108.053.218.079.324l.019.077c.057.247.119.509.2.766a3.754,3.754,0,0,0,.211.507l.01.02.029.062.065.14A1.136,1.136,0,0,1-6542.443-2294.988Zm7.027,5.969.219-.11c.134-.064.267-.135.394-.212a1.194,1.194,0,0,1,.666-.176l0,0a2.387,2.387,0,0,1,.307.03c.344.03.684.046,1.008.046a3.648,3.648,0,0,0,.51-.05h.007l.11-.016a.638.638,0,0,1,.1-.007,1.368,1.368,0,0,1,.629.2h.008l.014.009c.527.275,1,.522,1.433.757a.48.48,0,0,1,.094.059.5.5,0,0,1,.045.034l.02.012-.038.016-.025.009a.766.766,0,0,1-.121.046,9.061,9.061,0,0,1-2.455.251h-.625c-.559,0-1.152-.011-1.766-.034a5.639,5.639,0,0,1-1.422-.247c-.025-.01-.05-.02-.074-.032l-.014-.007c-.015-.008-.035-.018-.058-.028C-6536.051-2288.684-6535.723-2288.859-6535.416-2289.019Zm6.127,1.215-.037.011h-.014c-.15.047-.293.091-.435.124a10.759,10.759,0,0,1-2.295.309h-1.576c-.366,0-.668,0-.952-.012a8.058,8.058,0,0,1-1.052-.136l-.235-.04a7.546,7.546,0,0,1-.748-.172c-.144-.036-.287-.08-.437-.127l-.053-.016c-.055-.018-.111-.036-.172-.053l.012-.014a.31.31,0,0,0,.021-.03l.008-.009a.162.162,0,0,1,.043-.048c.188-.141.266-.2.381-.2h0a1.145,1.145,0,0,1,.289.069l.064.017a8.884,8.884,0,0,0,1.008.2,13.686,13.686,0,0,0,2.053.133c.461,0,.918-.013,1.361-.026l.241-.007a7.472,7.472,0,0,0,2.275-.368.184.184,0,0,1,.062-.009.267.267,0,0,1,.106.021,1.842,1.842,0,0,1,.262.176.251.251,0,0,1,.052.091.123.123,0,0,0,.016.043Z" transform="translate(6557.34 2324.68)" fill="#fff" stroke="rgba(0,0,0,0)" stroke-width="1"/>
  </g>
</svg>
