<svg xmlns="http://www.w3.org/2000/svg" width="23.479" height="26.833" viewBox="0 0 23.479 26.833">
  <path id="Icon_map-local-government" data-name="Icon map-local-government" d="M26.359,16.373v11.18H17.973V25.317H10.706v2.236H2.88V16.373ZM21.3,14.335a6.413,6.413,0,0,0-2.186-3.578c-1.105-.918-2.413-1.092-3.929-1.651h-.006V5.568l.293-.079.641-.238a6.162,6.162,0,0,1,.7-.2,2.3,2.3,0,0,1,.495-.077,3.829,3.829,0,0,1,.789.1c.318.077.656.16,1,.255s.678.191.988.261a3.39,3.39,0,0,0,.749.1,5.408,5.408,0,0,0,1.052-.144V1.492a3.829,3.829,0,0,1-1.052.206,3.134,3.134,0,0,1-.755-.106c-.309-.059-.628-.151-.986-.255q-.479-.144-.969-.249a2.977,2.977,0,0,0-.716-.107,5.232,5.232,0,0,0-2.23.479V.72H14.06V9.105h-.035c-1.5.559-2.822.765-3.927,1.683a6.474,6.474,0,0,0-2.19,3.5.909.909,0,0,0-1.072.966H22.473c0-1.118-1.174-.92-1.174-.92Z" transform="translate(-2.88 -0.72)" fill="#fff"/>
</svg>
