<svg xmlns="http://www.w3.org/2000/svg" xmlns:xlink="http://www.w3.org/1999/xlink" width="33" height="33" viewBox="0 0 33 33">
  <defs>
    <linearGradient id="linear-gradient" x1="0.5" x2="0.5" y2="1" gradientUnits="objectBoundingBox">
      <stop offset="0" stop-color="#ffef84"/>
      <stop offset="1" stop-color="#d4c357"/>
    </linearGradient>
  </defs>
  <path id="Объединение_17" data-name="Объединение 17" d="M13.175,32.665a16.418,16.418,0,0,1-5.9-2.483A16.546,16.546,0,0,1,1.3,22.922a16.412,16.412,0,0,1-.962-3.1,16.664,16.664,0,0,1,0-6.651,16.425,16.425,0,0,1,2.483-5.9A16.54,16.54,0,0,1,10.078,1.3a16.4,16.4,0,0,1,3.1-.962,16.664,16.664,0,0,1,6.651,0,16.419,16.419,0,0,1,5.9,2.483,16.551,16.551,0,0,1,5.978,7.26,16.425,16.425,0,0,1,.961,3.1,16.664,16.664,0,0,1,0,6.651,16.485,16.485,0,0,1-4.5,8.342A16.52,16.52,0,0,1,22.923,31.7a16.42,16.42,0,0,1-3.1.961,16.664,16.664,0,0,1-6.651,0ZM2.85,16.5A13.671,13.671,0,0,0,14.814,30.046V20.183a4.054,4.054,0,0,1-2.33-3.161L3,14.481A13.7,13.7,0,0,0,2.85,16.5ZM18.186,30.046A13.659,13.659,0,0,0,30.016,14.582L20.5,17.131a4.056,4.056,0,0,1-2.315,3.052Zm1.405-16.163,9.541-2.556a13.65,13.65,0,0,0-25.225-.094L13.482,13.8a4.05,4.05,0,0,1,6.109.085Z" fill="url(#linear-gradient)"/>
</svg>
