<svg xmlns="http://www.w3.org/2000/svg" xmlns:xlink="http://www.w3.org/1999/xlink" width="51.076" height="61.187" viewBox="0 0 51.076 61.187">
  <defs>
    <filter id="Контур_1515" x="0" y="0" width="51.076" height="61.187" filterUnits="userSpaceOnUse">
      <feOffset input="SourceAlpha"/>
      <feGaussianBlur stdDeviation="5" result="blur"/>
      <feFlood/>
      <feComposite operator="in" in2="blur"/>
      <feComposite in="SourceGraphic"/>
    </filter>
  </defs>
  <g transform="matrix(1, 0, 0, 1, 0, 0)" filter="url(#Контур_1515)">
    <path id="Контур_1515-2" data-name="Контур 1515" d="M-2180.307-2349.128a7.314,7.314,0,0,1,.241-1.358,29.25,29.25,0,0,1,1.25-2.956c.7-1.385,1.482-2.728,2.228-4.09a1.121,1.121,0,0,1,.265-.369,2.918,2.918,0,0,1,.057.327c.115,1.7.252,3.4.333,5.1a11.485,11.485,0,0,1-.507,4.617,17.183,17.183,0,0,0-.719,2.221,2.569,2.569,0,0,0,.46,2.409,2.384,2.384,0,0,0,1.239.752,5.3,5.3,0,0,0,3.378-.323.738.738,0,0,0,.532-.69c.091-1.4.256-2.791.32-4.189.115-2.5.192-5,.251-7.508.018-.749-.072-1.5-.126-2.251-.031-.429-.2-.551-.59-.333a17.039,17.039,0,0,0-1.428.971,2.783,2.783,0,0,0-.249.228c-.017-.075-.039-.116-.031-.148.248-.917.435-1.856.765-2.743.405-1.087.919-2.134,1.408-3.189.234-.505.514-.99.782-1.479.1-.182.233-.174.322.008.649,1.335,1.357,2.646,1.913,4.018a25.178,25.178,0,0,1,.822,2.982,1.394,1.394,0,0,1,.062.538,6.036,6.036,0,0,0-.692-.636,10.494,10.494,0,0,0-1.092-.61c-.2-.1-.3.027-.327.2a10.993,10.993,0,0,0-.188,1.464c-.021,1.529-.04,3.059.011,4.587.051,1.546.176,3.09.287,4.633.084,1.174.185,2.347.31,3.518a.725.725,0,0,0,.324.485,4.668,4.668,0,0,0,3.919.329,2.248,2.248,0,0,0,1.382-1.873,5.923,5.923,0,0,0-.528-2.839,10.1,10.1,0,0,1-.721-4.6q.092-2.287.177-4.574c.015-.421.005-.844.013-1.265,0-.048.043-.095.081-.17a1.373,1.373,0,0,1,.161.194c.97,1.806,1.943,3.611,2.9,5.422a10.1,10.1,0,0,1,1,2.941,1.729,1.729,0,0,1,0,.308l-.113.031a2.627,2.627,0,0,0-.145-.275c-.506-.748-1-1.506-1.536-2.234a1.743,1.743,0,0,0-.627-.433c-.223-.114-.377-.026-.44.236a5.808,5.808,0,0,0,.532,3.874,7.652,7.652,0,0,1,.839,3.489,3.567,3.567,0,0,1-1.4,2.733,10.343,10.343,0,0,1-3.258,1.668c-.734.252-1.482.466-2.215.722a.508.508,0,0,0-.27.327c-.042.193-.092.409.139.575a10.449,10.449,0,0,1,.838.709.481.481,0,0,1,.067.691,7.35,7.35,0,0,0-.591.965,1.287,1.287,0,0,0,.207,1.269c.169.25.1.342-.138.4a6.678,6.678,0,0,1-1.147.231,6.956,6.956,0,0,1-2.47-.19,1.683,1.683,0,0,1-.308-.164,7.664,7.664,0,0,0,.324-1.081,1.353,1.353,0,0,0-.456-1.112c-.608-.658-.6-.756.122-1.295a4.73,4.73,0,0,0,.559-.426.594.594,0,0,0,.192-.415c-.031-.2-.054-.419-.346-.509-1.009-.309-2.02-.621-3-1a7.65,7.65,0,0,1-2.983-1.821,3.754,3.754,0,0,1-.916-3.328,19.586,19.586,0,0,1,1.2-3.322,4.72,4.72,0,0,0,.252-2.673c0-.022-.012-.043-.016-.065-.1-.584-.3-.707-.761-.318a7.753,7.753,0,0,0-1.192,1.349,14.678,14.678,0,0,0-.806,1.372Z" transform="translate(2195.88 2379.76)" fill="#fff" stroke="#fff" stroke-width="1"/>
  </g>
</svg>
