<svg xmlns="http://www.w3.org/2000/svg" width="36.107" height="72.425" viewBox="0 0 36.107 72.425">
  <path id="Контур_538" data-name="Контур 538" d="M-7293.329,2043.323l1.093-2.714c-.318-.015-.542-.031-.767-.034-8.43-.107-16.86-.227-25.291-.309-2.337-.023-4.677.1-7.015.089a10.677,10.677,0,0,1-4.725-.854,8.126,8.126,0,0,0-2.952-.429,2.519,2.519,0,0,1-1.947-1.2,10.759,10.759,0,0,1-1.865-5.241,47.349,47.349,0,0,1,.381-16.026,7.689,7.689,0,0,1,1.847-3.675,2.747,2.747,0,0,1,1.362-.734,26.849,26.849,0,0,1,2.672-.343,1.078,1.078,0,0,0,.38-.053c2.364-1.316,4.948-.9,7.471-.949,4.341-.078,8.683-.158,13.024-.188,5.476-.037,10.952-.025,16.427-.034h1.01c-.4-.986-.755-1.875-1.1-2.745a.952.952,0,0,1,1.449,0c.711.73,1.339,1.542,2.034,2.289a1.273,1.273,0,0,0,.768.452c2.462,0,4.924-.087,7.387-.076,2.26.01,4.521.084,6.779.188a4.075,4.075,0,0,1,1.354.468c.445.2.85.483,1.3.669a10.728,10.728,0,0,1,6.153,6.031c.029.071.043.164.1.208,1.184,1,.792,2.378.877,3.643.077,1.142.169,2.283.247,3.424a6.547,6.547,0,0,1,.007.771c-.087,1.81-.159,3.621-.285,5.428a3.173,3.173,0,0,1-.4,1.1c-.144.294-.413.531-.535.831-1.185,2.9-3.428,4.611-6.132,6.082-3.15,1.714-6.432,1.157-9.692,1.24-2.409.061-4.822-.049-7.233-.042-.234,0-.509.249-.692.449-.69.752-1.31,1.573-2.035,2.287C-7292.363,2043.793-7292.642,2043.737-7293.329,2043.323Zm10.337-17.735c-.188-3.311-.18-6.69-1.575-9.862-.66-1.5-1.373-2.048-2.966-1.823-2.362.334-4.715.739-7.062,1.165-1.208.219-1.473.713-1.226,1.907a21.5,21.5,0,0,1,.7,3.7c.124,4.587.519,9.2-.72,13.721-.271.993.088,1.529,1.1,1.71,2.374.426,4.75.841,7.136,1.188,1.646.24,2.359-.3,3.034-1.831C-7283.18,2032.316-7283.18,2028.964-7282.992,2025.588Zm-17.526.014-.008,0c0-1.978.051-3.957-.018-5.932-.047-1.358-.614-1.816-1.952-1.821q-2.159-.009-4.318,0c-1.277.006-1.811.445-1.9,1.706-.1,1.46-.17,2.927-.161,4.391.016,2.6.064,5.191.172,7.784.048,1.16.638,1.621,1.811,1.628,1.439.009,2.879.005,4.319,0s1.985-.444,2.038-1.9C-7300.465,2029.508-7300.518,2027.553-7300.518,2025.6Zm-30.267,8.126a8,8,0,0,1-2.037-4.675c-.094-1.638-.167-3.282-.151-4.922a9.619,9.619,0,0,1,2.064-6.534c.021-.024,0-.089-.011-.165-.57-.2-1.144-.422-1.731-.6a1.658,1.658,0,0,0-2.115.791,4.61,4.61,0,0,0-.7,1.92c-.134,3.483-.227,6.969-.2,10.454a8.974,8.974,0,0,0,.692,3.2c.505,1.259,1.336,1.5,2.634,1.068C-7331.862,2034.1-7331.38,2033.931-7330.785,2033.728Zm19.764-19.4.168.267c.319,0,.638.006.958,0a123,123,0,0,0,14.939-1.363c.964-.141,1.934-.261,2.888-.455.448-.091,1.065-.123.991-.877a1.086,1.086,0,0,0-.255-.064q-8.927.245-17.854.508a.879.879,0,0,0-.6.268C-7310.224,2013.166-7310.613,2013.756-7311.021,2014.332Zm.075,22.259c.484,1.672,1.129,2.21,2.6,2.313.384.027.767.093,1.15.1q7.7.189,15.4.363c.242.005.485-.026.773-.044-.084-.818-.676-.849-1.179-.93a131.1,131.1,0,0,0-17.906-1.8C-7310.358,2036.587-7310.6,2036.592-7310.947,2036.592Zm-17.157-22.141v.273a4.806,4.806,0,0,0,3.183.822c1.092-.148,2.2-.2,3.3-.286,2.839-.234,5.678-.459,8.514-.716a.993.993,0,0,0,.7-.41,11.4,11.4,0,0,0,.55-1.637Zm16.243,24.256c-.173-.552-.319-.908-.392-1.278a.9.9,0,0,0-1-.815c-.64-.01-1.279-.089-1.918-.142l-10.281-.839a4.738,4.738,0,0,0-2.668.854l.011.262Zm-17.732-6.022a23.825,23.825,0,0,1,.083-14.175l-.39-.073a9.281,9.281,0,0,0-.79,2.011,36.888,36.888,0,0,0-.017,10.284A2.532,2.532,0,0,0-7329.594,2032.685Zm62.423-15.517c-1.446-2.347-3.093-4.455-6.018-5.047C-7270.539,2013.039-7268.847,2015.094-7267.17,2017.167Zm-6.023,21.9c2.206-.292,5.6-3.224,6.018-5.217C-7268.848,2036.128-7270.542,2038.153-7273.193,2039.068Z" transform="translate(2043.654 7337.295) rotate(90)" fill="#eaeaea"/>
</svg>
