<svg xmlns="http://www.w3.org/2000/svg" width="29.394" height="22.964" viewBox="0 0 29.394 22.964">
    <path d="M9.461,21.487a2.3,2.3,0,0,0-2.3-2.3,2.3,2.3,0,1,0,1.622,3.918A2.211,2.211,0,0,0,9.461,21.487Zm.517-4.593H24.56L23.282,11.77a.523.523,0,0,0-.2-.251.517.517,0,0,0-.3-.136H11.757a.517.517,0,0,0-.3.136.523.523,0,0,0-.2.251Zm19.692,4.593a2.3,2.3,0,1,0-.675,1.622A2.211,2.211,0,0,0,29.669,21.487Zm2.3-1.378v5.511a.442.442,0,0,1-.459.459H30.129v1.837a2.756,2.756,0,1,1-5.511,0V26.08H9.92v1.837a2.744,2.744,0,0,1-2.756,2.756,2.744,2.744,0,0,1-2.756-2.756V26.08H3.031a.442.442,0,0,1-.459-.459V20.109a3.1,3.1,0,0,1,.94-2.275,3.1,3.1,0,0,1,2.275-.94h.4L7.7,10.881A4.036,4.036,0,0,1,9.188,8.62a4.067,4.067,0,0,1,2.569-.911H22.78a4.279,4.279,0,0,1,4.062,3.172l1.507,6.014h.4a3.21,3.21,0,0,1,3.215,3.215Z"
          transform="translate(-2.571 -7.709)"/>
</svg>
