<svg xmlns="http://www.w3.org/2000/svg" width="29.557" height="35.896" viewBox="0 0 29.557 35.896">
  <g id="apple" transform="translate(-45.202 0)">
    <g id="Сгруппировать_2608" data-name="Сгруппировать 2608" transform="translate(45.202 10.708)">
      <g id="Сгруппировать_2607" data-name="Сгруппировать 2607" transform="translate(0)">
        <path id="Контур_2451" data-name="Контур 2451" d="M68.438,152.828h0a7.243,7.243,0,0,0-5.6,1.422,4.715,4.715,0,0,1-5.713,0,7.26,7.26,0,0,0-4.429-1.516,7.347,7.347,0,0,0-1.171.094,7.7,7.7,0,0,0-6.23,8.827c1.169,7.657,3.383,12.869,6.4,15.07a6.084,6.084,0,0,0,4.774,1.1,4.437,4.437,0,0,0,2.663-1.374,1.149,1.149,0,0,1,1.689,0,4.436,4.436,0,0,0,2.663,1.374,6.082,6.082,0,0,0,4.774-1.1c3.022-2.2,5.236-7.413,6.4-15.07A7.7,7.7,0,0,0,68.438,152.828Z" transform="translate(-45.202 -152.734)" fill="#eaeaea"/>
      </g>
    </g>
    <g id="Сгруппировать_2610" data-name="Сгруппировать 2610" transform="translate(53.793 0)">
      <g id="Сгруппировать_2609" data-name="Сгруппировать 2609" transform="translate(0 0)">
        <path id="Контур_2452" data-name="Контур 2452" d="M182.4,3.463a1.149,1.149,0,0,0-1.487-.658,14.493,14.493,0,0,0-5.278,3.846,7.811,7.811,0,0,0-.361-1.25,10.916,10.916,0,0,0-5.17-5.295,1.15,1.15,0,0,0-1.54.591,10.916,10.916,0,0,0-.3,7.394,7.714,7.714,0,0,0,.417.9,9.636,9.636,0,0,1,3.773,1.766,2.411,2.411,0,0,0,2.922,0q.3-.232.62-.437a10,10,0,0,1,2.8-3.549,12.243,12.243,0,0,1,2.95-1.822A1.15,1.15,0,0,0,182.4,3.463Z" transform="translate(-167.729 0)" fill="#eaeaea"/>
      </g>
    </g>
  </g>
</svg>
