<svg xmlns="http://www.w3.org/2000/svg" width="34.245" height="44.852" viewBox="0 0 34.245 44.852">
  <g id="Сгруппировать_571" data-name="Сгруппировать 571">
    <path id="Контур_540" data-name="Контур 540" d="M1705.171,656.8h-5.842c-2.371,0-3.392,1.021-3.385,3.4,0,.941.017,1.881.032,2.821a2.7,2.7,0,0,0,2.857,2.855c1.885.01,3.77,0,5.655,0,.2,0,.4.019.642.031v1.548h-.748c-1.839,0-3.678-.008-5.517,0a2.7,2.7,0,0,0-2.889,2.89q-.015,1.655,0,3.31a2.688,2.688,0,0,0,2.847,2.859c1.839.013,3.678,0,5.517,0h.82c0,.89.026,1.71-.01,2.528a.912.912,0,0,1-.864.848c-3.046.564-6.073,1.3-9.144,1.639a49.069,49.069,0,0,1-18.371-1.584c-.984-.269-1.1-.42-1.1-1.432,0-.638,0-1.276,0-2h.808c1.862,0,3.724.01,5.586,0a2.668,2.668,0,0,0,2.792-2.771q.03-1.758,0-3.517a2.667,2.667,0,0,0-2.8-2.768c-1.862-.018-3.724-.006-5.586-.007h-.77v-1.581h2.978c1.172,0,2.345.015,3.517-.007a2.554,2.554,0,0,0,2.6-2.291,25.252,25.252,0,0,0,.047-4.125,2.663,2.663,0,0,0-2.989-2.651c-2.04-.005-4.08,0-6.135,0a4.255,4.255,0,0,1,2.479-4.339,2.743,2.743,0,0,0,1.654-2.35c.386-3.934.8-7.865,1.194-11.8.117-1.172.288-1.35,1.441-1.354.9,0,1.793-.006,2.69,0,.913.008,1.2.289,1.2,1.2.007,2.667,0,5.333,0,8,0,.2.017.407.028.659h8.013c.01-.219.03-.461.031-.7q0-3.9,0-7.793c0-1.127.239-1.36,1.386-1.363.92,0,1.839-.008,2.759,0,.8.01,1.078.25,1.16,1.051.388,3.772.807,7.541,1.122,11.319a3.592,3.592,0,0,0,2.088,3.331A4.14,4.14,0,0,1,1705.171,656.8Z" transform="translate(-1673.297 -636.958)" fill="#fff"/>
    <path id="Контур_541" data-name="Контур 541" d="M1840.747,876.457c-1.263,0-2.526.006-3.789,0-.818-.006-1.11-.3-1.118-1.132q-.015-1.618,0-3.237c.009-.81.313-1.114,1.141-1.117q3.754-.014,7.508,0c.816,0,1.106.314,1.112,1.142q.012,1.619,0,3.237c-.007.816-.3,1.1-1.136,1.108C1843.226,876.463,1841.986,876.457,1840.747,876.457Z" transform="translate(-1811.367 -838.681)" fill="#fff"/>
    <path id="Контур_542" data-name="Контур 542" d="M1663.351,876.447c-1.263,0-2.526.008-3.788,0-.743-.007-1.048-.308-1.056-1.044q-.019-1.687,0-3.375c.008-.737.31-1.061,1.046-1.065q3.823-.021,7.646,0c.738,0,1.055.325,1.065,1.055q.025,1.687,0,3.375c-.011.742-.32,1.048-1.056,1.055C1665.922,876.457,1664.636,876.448,1663.351,876.447Z" transform="translate(-1658.494 -838.672)" fill="#fff"/>
    <path id="Контур_543" data-name="Контур 543" d="M1840.686,799.325c-1.24,0-2.48.006-3.72,0-.817,0-1.121-.3-1.13-1.123q-.017-1.619,0-3.238c.007-.779.229-1.063,1-1.075q3.919-.062,7.839-.045a.889.889,0,0,1,.924.986c.013,1.17.017,2.34,0,3.51-.012.676-.344.979-1.05.985C1843.258,799.333,1841.972,799.325,1840.686,799.325Z" transform="translate(-1811.363 -772.198)" fill="#fff"/>
    <path id="Контур_544" data-name="Контур 544" d="M1663.317,799.229c-1.241,0-2.482.007-3.723,0-.786-.005-1.1-.3-1.106-1.07q-.02-1.687,0-3.374c.008-.706.287-1.013,1-1.024.985-.014,1.972.055,2.957.05,1.377-.007,2.754-.046,4.13-.079,1.192-.028,1.851.144,1.654,1.63a21.958,21.958,0,0,0,.017,2.75c0,.817-.313,1.112-1.136,1.116C1665.845,799.233,1664.581,799.228,1663.317,799.229Z" transform="translate(-1658.475 -772.102)" fill="#fff"/>
  </g>
</svg>
