<svg xmlns="http://www.w3.org/2000/svg" width="37.785" height="43.884" viewBox="0 0 37.785 43.884">
  <g id="Сгруппировать_572" data-name="Сгруппировать 572">
    <path id="Контур_545" data-name="Контур 545" d="M919.9,877.237h-9.576c-3.352,0-5.138-1.547-5.377-4.918a78.565,78.565,0,0,1,.075-13.828c.142-1.345.1-2.716.323-4.043.546-3.2,1.126-6.408,1.839-9.579a7.391,7.391,0,0,1,4.295-5.005,17.017,17.017,0,0,1,6.584-1.582,22.485,22.485,0,0,1,8.905.99c3.156,1.094,5.331,3.114,5.96,6.51.563,3.042,1.144,6.083,1.587,9.143a84.609,84.609,0,0,1,.42,17.11,8.179,8.179,0,0,1-.525,2.337,4.1,4.1,0,0,1-4.177,2.86C926.787,877.242,923.342,877.236,919.9,877.237Zm.03-4.127q4.1,0,8.2,0a2.691,2.691,0,0,0,2.951-2.949q.008-3.239,0-6.477a2.7,2.7,0,0,0-2.95-2.963q-8.2-.013-16.4,0a2.706,2.706,0,0,0-2.95,2.962q-.009,3.239,0,6.477a2.692,2.692,0,0,0,2.95,2.95Q915.828,873.115,919.927,873.11Zm-11.149-20.274h0c0,.988,0,1.975,0,2.963,0,.474.069.926.667.912.563-.013.6-.455.6-.9,0-1.769.023-3.538-.008-5.306a4.242,4.242,0,0,1,1.55-3.53,11.973,11.973,0,0,1,2.719-1.71,14.416,14.416,0,0,1,7.97-.909,11.387,11.387,0,0,1,5.453,2.133,4.6,4.6,0,0,1,2.068,3.64c.026,1.72.007,3.44.01,5.16a3.05,3.05,0,0,0,.04.941c.072.211.367.507.532.489a1.189,1.189,0,0,0,.675-.48c.106-.136.069-.4.068-.6-.013-1.722-.061-3.444-.04-5.165a5.189,5.189,0,0,0-1.666-4.082,13.135,13.135,0,0,0-3.025-2.109,15.128,15.128,0,0,0-9.013-1.178,12.235,12.235,0,0,0-6.482,2.8,5.728,5.728,0,0,0-2.126,4.726C908.806,851.365,908.779,852.1,908.779,852.836Zm17.514-2.083c.33,0,.6.078.774-.019.243-.135.571-.4.572-.61s-.346-.433-.567-.62c-.068-.058-.222-.015-.337-.015H913.093c-.138,0-.325-.042-.4.029-.2.183-.462.409-.48.636-.015.181.259.45.468.565a1.534,1.534,0,0,0,.677.04H925.1c-.238,1.033-.441,1.973-.673,2.906a1.316,1.316,0,0,0,.5,1.576,1.221,1.221,0,0,0,1.529.011,1.388,1.388,0,0,0,.514-1.589C926.742,852.731,926.535,851.791,926.293,850.753Z" transform="translate(-901.032 -833.354)" fill="#fff"/>
    <path id="Контур_546" data-name="Контур 546" d="M1075.584,818.033a10.786,10.786,0,0,0-5.224-3.815c1.188-1.156,2.24-2.292,3.415-3.281a2.806,2.806,0,0,1,2.454-.277,6.423,6.423,0,0,1,3.195,1.8A12.19,12.19,0,0,0,1075.584,818.033Z" transform="translate(-1043.885 -809.47)" fill="#fff"/>
    <path id="Контур_547" data-name="Контур 547" d="M903.514,814.653a10.752,10.752,0,0,0-5.18,3.785,12.22,12.22,0,0,0-3.857-5.555,5.7,5.7,0,0,1,4.38-1.87,3.141,3.141,0,0,1,1.723.692C901.594,812.584,902.487,813.6,903.514,814.653Z" transform="translate(-892.237 -809.889)" fill="#fff"/>
    <path id="Контур_548" data-name="Контур 548" d="M1126.725,1024.4c1.383-2.8.991-5.832,1.14-8.79.081-1.6.015-3.209.015-4.816.873-.092,2.056,1.195,2.1,2.251.114,2.958.259,5.915.291,8.874A2.662,2.662,0,0,1,1126.725,1024.4Z" transform="translate(-1092.483 -982.145)" fill="#fff"/>
    <path id="Контур_549" data-name="Контур 549" d="M880.686,1010.479c0,2.421-.027,4.783.008,7.144.032,2.222.005,4.463,1.1,6.512a2.685,2.685,0,0,1-3.57-2.558c.043-2.913.164-5.825.3-8.735A2.589,2.589,0,0,1,880.686,1010.479Z" transform="translate(-878.222 -981.881)" fill="#fff"/>
    <path id="Контур_550" data-name="Контур 550" d="M1117.844,833.042a76.777,76.777,0,0,1-1.609,14.3c-.072-.361-.133-.725-.217-1.083q-.824-3.549-1.652-7.1a.938.938,0,0,1-.036-.467,11.589,11.589,0,0,1,3.09-5.357C1117.5,833.265,1117.6,833.209,1117.844,833.042Z" transform="translate(-1081.779 -828.894)" fill="#fff"/>
    <path id="Контур_551" data-name="Контур 551" d="M890.942,833.34a8.592,8.592,0,0,1,1.305,1.457c.721,1.3,1.329,2.657,1.966,4a.885.885,0,0,1,.033.533q-.906,4.06-1.836,8.115c-.013.057-.073.1-.146.2a86.208,86.208,0,0,1-1.523-14.175Z" transform="translate(-889.017 -829.151)" fill="#fff"/>
    <path id="Контур_552" data-name="Контур 552" d="M979.787,806.928a4.969,4.969,0,0,1,5.2-3.984,4.865,4.865,0,0,1,4.562,3.976c-.776-.092-1.548-.164-2.311-.29-.144-.024-.3-.242-.37-.4a2.271,2.271,0,0,0-4.35-.024c-.079.177-.259.4-.424.431C981.352,806.762,980.6,806.83,979.787,806.928Z" transform="translate(-965.792 -802.938)" fill="#fff"/>
    <path id="Контур_553" data-name="Контур 553" d="M943.628,1013.764c0-.572-.039-1.1.009-1.617a1.379,1.379,0,0,1,1.573-1.283c2.661-.008,5.322,0,7.983,0q4.2,0,8.4,0c1.324,0,1.785.463,1.79,1.776,0,.362,0,.724,0,1.128Z" transform="translate(-934.602 -982.209)" fill="#fff"/>
    <path id="Контур_554" data-name="Контур 554" d="M1053.561,949.524c-.263.187-.511.5-.794.533a.652.652,0,0,1-.765-.684c0-.46.283-.789.716-.725.3.044.565.364.845.561Q1053.562,949.366,1053.561,949.524Z" transform="translate(-1028.057 -928.563)" fill="#fff"/>
  </g>
</svg>
