<svg xmlns="http://www.w3.org/2000/svg" width="32.693" height="35.482" viewBox="0 0 32.693 35.482">
  <g id="Сгруппировать_2611" data-name="Сгруппировать 2611" transform="translate(-5224.629 -182.648)">
    <path id="Контур_2453" data-name="Контур 2453" d="M5248.935,224.411c0-.346.006-.692,0-1.038-.025-1.258-.027-1.26,1.223-1.576,1.073-.271,2.152-.515,3.217-.815a.588.588,0,0,1,.787.3,19.83,19.83,0,0,1,3.125,11.916,17.8,17.8,0,0,1-6.107,12.893,20.289,20.289,0,0,1-11.053,4.835,19.5,19.5,0,0,1-13.211-2.72,14.709,14.709,0,0,1-1.293-.925,2.406,2.406,0,0,1,1.537-4.342,29.271,29.271,0,0,0,8.9-.984,18.878,18.878,0,0,0,8.641-4.994,15.481,15.481,0,0,0,3.883-8.553A28.008,28.008,0,0,0,5248.935,224.411Z" transform="translate(0 -32.984)" fill="#eaeaea"/>
    <path id="Контур_2454" data-name="Контур 2454" d="M5394.211,183.092c-.111-.315.02-.454.439-.443.991.025,1.984.023,2.976,0,.349-.008.479.128.559.446.208.826.429,1.651.685,2.463.1.329.026.46-.289.536q-1.713.415-3.42.85c-.309.078-.468.006-.508-.343C5394.522,185.455,5394.367,184.313,5394.211,183.092Z" transform="translate(-146.056 0)" fill="#eaeaea"/>
  </g>
</svg>
