<svg xmlns="http://www.w3.org/2000/svg" width="14.583" height="35" viewBox="0 0 14.583 35">
  <g id="beer" transform="translate(-149.335)">
    <g id="Сгруппировать_2619" data-name="Сгруппировать 2619" transform="translate(149.335)">
      <path id="Контур_2498" data-name="Контур 2498" d="M160.911,13.088,159.638,2.9a.714.714,0,0,0,.237-1.35l.276-.414A.729.729,0,0,0,159.543,0H153.71a.729.729,0,0,0-.607,1.134l.276.414a.714.714,0,0,0,.237,1.35l-1.274,10.19a7.268,7.268,0,0,0-3.007,5.87V32.083A2.92,2.92,0,0,0,152.252,35H161a2.92,2.92,0,0,0,2.917-2.917V18.958A7.268,7.268,0,0,0,160.911,13.088Zm-2.38,8.844a.729.729,0,0,1,.955.954,4.836,4.836,0,0,1-.817,1.555,1.183,1.183,0,0,1-1.313.252V25.4a11.539,11.539,0,0,1,1.176-.553.729.729,0,0,1,.955.954,4.836,4.836,0,0,1-.817,1.555,1.183,1.183,0,0,1-1.313.252V29.9a.729.729,0,1,1-1.458,0V27.61a1.183,1.183,0,0,1-1.313-.252,4.835,4.835,0,0,1-.817-1.555.729.729,0,0,1,.955-.954,11.537,11.537,0,0,1,1.176.553v-.709a1.183,1.183,0,0,1-1.313-.252,4.835,4.835,0,0,1-.817-1.555.729.729,0,0,1,.955-.954,11.54,11.54,0,0,1,1.176.553v-.709a1.183,1.183,0,0,1-1.313-.252,4.834,4.834,0,0,1-.817-1.555.729.729,0,0,1,.955-.954,11.538,11.538,0,0,1,1.176.553V19.1a1.175,1.175,0,0,1-.467-.924,4.845,4.845,0,0,1,.521-1.678.761.761,0,0,1,1.35,0,4.845,4.845,0,0,1,.521,1.678,1.176,1.176,0,0,1-.467.924v.472a11.541,11.541,0,0,1,1.176-.553.729.729,0,0,1,.955.954,4.837,4.837,0,0,1-.817,1.555,1.183,1.183,0,0,1-1.313.252v.709A11.488,11.488,0,0,1,158.531,21.932Z" transform="translate(-149.335)" fill="#eaeaea"/>
    </g>
  </g>
</svg>
