<svg xmlns="http://www.w3.org/2000/svg" width="39.623" height="31.624" viewBox="0 0 39.623 31.624">
  <g id="Сгруппировать_2604" data-name="Сгруппировать 2604" transform="translate(-849.379 -265.644)">
    <path id="Объединение_28" data-name="Объединение 28" d="M2.376,23.243a2.69,2.69,0,0,1-.536-1.569c-.007-.392-.01-.785,0-1.176a1.374,1.374,0,0,1,1.107-1.33c.158-.034.273-.013.337.16a3.965,3.965,0,0,0,.2.407c.148.292.264.352.578.267.825-.222,1.651-.441,2.471-.68a.972.972,0,0,1,.714.061,8.647,8.647,0,0,1,2.3,1.441c.282.251.361.24.685.031.493-.32.988-.638,1.473-.97a.274.274,0,0,1,.376,0c.445.328.908.63,1.35.96a.506.506,0,0,0,.695,0c.73-.541,1.472-1.066,2.219-1.583a.435.435,0,0,1,.352-.039c.841.342,1.679.693,2.51,1.06a.817.817,0,0,0,.735,0c.8-.369,1.61-.718,2.423-1.06a.4.4,0,0,1,.328.039c.739.513,1.473,1.034,2.2,1.568a.578.578,0,0,0,.706.055c.673-.365,1.366-.693,2.043-1.051a.418.418,0,0,1,.442.007c.7.365,1.416.714,2.119,1.078a.532.532,0,0,0,.529,0c.733-.368,1.472-.721,2.2-1.09a.4.4,0,0,1,.419.009c.679.373,1.365.733,2.051,1.094a.354.354,0,0,0,.545-.134c.257-.407.507-.818.751-1.232a2.232,2.232,0,0,0,.126-.356,1.232,1.232,0,0,1,.916.992,5.133,5.133,0,0,1-.085,2.226,2.857,2.857,0,0,1-2.835,2.026q-4.2,0-8.4,0-10.777,0-21.553,0A2.911,2.911,0,0,1,2.376,23.243ZM30.2,20.121c-.677-.358-1.367-.691-2.048-1.043a.6.6,0,0,0-.606,0c-.679.356-1.366.693-2.044,1.049a.334.334,0,0,1-.408-.032c-.726-.531-1.466-1.044-2.191-1.579a.573.573,0,0,0-.644-.046c-.829.372-1.66.739-2.5,1.092a.563.563,0,0,1-.4,0q-1.287-.524-2.56-1.08a.648.648,0,0,0-.736.075c-.7.525-1.42,1.017-2.125,1.532a.25.25,0,0,1-.351,0c-.454-.33-.921-.644-1.373-.975a.491.491,0,0,0-.635-.007c-.494.335-1,.651-1.494.987a.236.236,0,0,1-.349-.016A8.785,8.785,0,0,0,7.15,18.564a.748.748,0,0,0-.46-.008c-.869.224-1.735.464-2.637.709-.221-.444-.442-.884-.681-1.362.13-.008.214-.019.3-.019h22.6c3.156,0,6.313,0,9.468-.007.283,0,.367.083.33.345a.972.972,0,0,0,0,.293,2.11,2.11,0,0,1-.6,1.649c-.645-.345-1.279-.669-1.9-1.02a.791.791,0,0,0-.848-.02c-.652.348-1.324.657-1.982.995a.6.6,0,0,1-.275.076A.575.575,0,0,1,30.2,20.121ZM.2,15.982a2.4,2.4,0,0,1-.183-.8,9.581,9.581,0,0,1-.007-1.042,2.194,2.194,0,0,1,2.132-2.152q2.446-.009,4.892.076,2.271.076,4.538.245,2.8.208,5.591.5a48.15,48.15,0,0,1,5.9.953,12.829,12.829,0,0,1,3.74,1.309,4.374,4.374,0,0,1,.822.671c.265.265.413.3.7.049a19.852,19.852,0,0,1,4.2-2.823,9.471,9.471,0,0,1,5.077-.977,2.223,2.223,0,0,1,2,2.067,11.4,11.4,0,0,1,0,1.176A2.2,2.2,0,0,1,37.649,17.3c-.424.042-.854.028-1.282.028H19.814q-8.676,0-17.355,0A2.267,2.267,0,0,1,.2,15.982Zm23.813-2.71A41.257,41.257,0,0,0,17.258,12.1c-2.731-.257-5.467-.467-8.205-.645-1.688-.111-3.383-.124-5.075-.181-.132,0-.265,0-.418,0v-.568h32.4a2.34,2.34,0,0,1-.006.408.238.238,0,0,1-.149.161,12.062,12.062,0,0,0-5.609,2.2c-.69.455-1.333.982-2,1.476-.057.041-.112.085-.167.128A9.737,9.737,0,0,0,24.015,13.272Zm13.148-3.11q-8.678-.011-17.355,0H3.256c-.428,0-.858.014-1.283-.028A2.2,2.2,0,0,1,.014,8.061a11.655,11.655,0,0,1,0-1.176,2.226,2.226,0,0,1,2-2.067A9.472,9.472,0,0,1,7.091,5.8a19.847,19.847,0,0,1,4.2,2.823c.285.247.434.215.7-.05a4.374,4.374,0,0,1,.822-.671,12.82,12.82,0,0,1,3.74-1.309,48.122,48.122,0,0,1,5.9-.953q2.79-.289,5.59-.5,2.265-.17,4.538-.245,2.445-.082,4.892-.077A2.194,2.194,0,0,1,39.611,6.97,9.582,9.582,0,0,1,39.6,8.012a2.447,2.447,0,0,1-.183.8,2.268,2.268,0,0,1-2.256,1.351ZM11.424,7.784c-.664-.494-1.308-1.021-2-1.475A12.066,12.066,0,0,0,3.818,4.1c-.057,0-.138-.1-.149-.161a2.336,2.336,0,0,1-.006-.408h32.4V4.1c-.152,0-.284,0-.417,0-1.692.056-3.387.07-5.076.18-2.737.179-5.474.389-8.2.645A41.363,41.363,0,0,0,15.607,6.1,9.759,9.759,0,0,0,11.59,7.912ZM29.442,2.991H19.519v0q-8.238,0-16.475,0A1.382,1.382,0,0,1,1.527,1.477a1.356,1.356,0,0,0,0-.16A3.2,3.2,0,0,1,2.758-1.526,14.772,14.772,0,0,1,5.9-3.735a28.868,28.868,0,0,1,8.889-3.017,26.7,26.7,0,0,1,7.164-.3A28.659,28.659,0,0,1,33.79-3.349a11.71,11.71,0,0,1,2.8,2.172A2.691,2.691,0,0,1,37.42.23a6.4,6.4,0,0,1,.008,1.7,1.292,1.292,0,0,1-1.381,1.059q-2.2,0-4.4,0ZM24.026-1.267A.464.464,0,0,0,24-.424a1.831,1.831,0,0,0,1.873.008c.356-.262.363-.645-.025-.859a5.605,5.605,0,0,0-.9-.316A5.716,5.716,0,0,0,24.026-1.267Zm5.5-.679a.462.462,0,0,0,.006.828,5.965,5.965,0,0,0,.942.344,5.958,5.958,0,0,0,.94-.355.455.455,0,0,0,.005-.811,1.618,1.618,0,0,0-.95-.266A1.639,1.639,0,0,0,29.523-1.946ZM22.493-4.5c-.382.258-.4.649.005.872a5.55,5.55,0,0,0,.913.319,5.575,5.575,0,0,0,.9-.327.471.471,0,0,0,.006-.859,1.665,1.665,0,0,0-.92-.247A1.66,1.66,0,0,0,22.493-4.5Z" transform="translate(849.379 272.815)" fill="#eaeaea"/>
  </g>
</svg>
