<svg xmlns="http://www.w3.org/2000/svg" width="31.088" height="36.124" viewBox="0 0 31.088 36.124">
    <g id="Сгруппировать_2572" data-name="Сгруппировать 2572">
        <path id="Контур_2419" data-name="Контур 2419"
              d="M106.485,211.111a3.384,3.384,0,0,1-.672,5.4c-.27.167-.271.235-.055.448,1.273,1.253,2.533,2.521,3.8,3.785a1.124,1.124,0,0,1,0,1.833q-2.275,2.279-4.554,4.554a1.115,1.115,0,0,1-1.8.014q-2.293-2.288-4.581-4.582a1.125,1.125,0,0,1-.008-1.806q1.828-1.853,3.662-3.7a4.38,4.38,0,0,1,.485-.361,3.738,3.738,0,0,1-1.711-1.571,3.382,3.382,0,0,1,.43-3.809c.243-.265.137-.344-.085-.5a42,42,0,0,1-7.822-6.885,20.532,20.532,0,0,1-4.517-7.885,12.806,12.806,0,0,1-.483-3.421,1.12,1.12,0,0,1,1.1-1.155,1.086,1.086,0,0,1,1.15,1.053,14.368,14.368,0,0,0,3.236,8.407,34.473,34.473,0,0,0,6.458,6.427c1.079.852,2.2,1.648,3.345,2.408a.332.332,0,0,0,.437.024,40.548,40.548,0,0,0,9.024-7.767,17.585,17.585,0,0,0,3.658-6.491,11.521,11.521,0,0,0,.436-2.924,1.122,1.122,0,1,1,2.244.012,14.444,14.444,0,0,1-1.955,7.041,28.576,28.576,0,0,1-5.839,7.172A46.413,46.413,0,0,1,106.619,211C106.577,211.031,106.539,211.067,106.485,211.111Zm-2.35,3.592a1.122,1.122,0,0,0,1.184-1.176,1.191,1.191,0,0,0-1.179-1.167,1.171,1.171,0,0,0,0,2.343Z"
              transform="translate(-88.57 -191.472)" fill="#fff"/>
    </g>
</svg>
