<svg xmlns="http://www.w3.org/2000/svg" width="34.646" height="34.645" viewBox="0 0 34.646 34.645">
  <path id="Пересечение_15" data-name="Пересечение 15" d="M14.064,99.822A4.079,4.079,0,0,1,13,97.991a3.93,3.93,0,0,1-1.818-1.07,4.055,4.055,0,0,1,4.941-6.348l2.264-2.286,4.311,4.3L20.428,94.88a4.064,4.064,0,0,1-6.364,4.942Zm4.311-14.416.726-.718c3.583-3.544-.362-8.274,6.169-14.757,4.916-4.935,11.188-4.617,15.789.005,4.784,4.782,4.784,10.979,0,15.784l0,0C34.44,92.281,29.9,88.288,26.273,91.877l-.712.7Zm15.955-.585h2.03v-2.03H34.33Zm2.03-4.06h2.03v-2.03H36.36Zm2.03-4.06h2.03v-2.03H38.39Zm-4.06,0h2.03v-2.03H34.33Zm0-4.06h2.03v-2.03H34.33Z" transform="translate(-10 -66.349)" fill="#eaeaea"/>
</svg>
