<svg xmlns="http://www.w3.org/2000/svg" width="24.952" height="35" viewBox="0 0 24.952 35">
  <g id="Сгруппировать_2617" data-name="Сгруппировать 2617" transform="translate(-7132.318 -271.926)">
    <path id="Контур_2486" data-name="Контур 2486" d="M7147.8,392.272q5.229,0,10.457,0c1.239,0,1.571.373,1.481,1.582q-.268,3.588-.508,7.177c-.067.993-.379,1.312-1.389,1.312q-10.082.006-20.165,0c-1.076,0-1.379-.3-1.448-1.322q-.24-3.623-.508-7.245c-.083-1.12.272-1.512,1.417-1.511H7147.8Zm0,4.052c-1.32,0-2.64,0-3.959,0-.792,0-1.269.387-1.256,1,.012.579.486.988,1.22.991q3.925.016,7.85,0c.742,0,1.206-.4,1.219-.987.014-.613-.46-1-1.251-1C7150.349,396.319,7149.075,396.323,7147.8,396.323Z" transform="translate(-2.938 -103.724)" fill="#eaeaea"/>
    <path id="Контур_2487" data-name="Контур 2487" d="M7162.592,482.743c3.027,0,6.055.008,9.082-.009.465,0,.639.076.58.585-.16,1.39-.258,2.787-.373,4.182-.079.949-.405,1.262-1.381,1.263q-7.98,0-15.962,0c-.973,0-1.3-.314-1.378-1.267-.115-1.395-.211-2.792-.373-4.182-.061-.518.128-.583.584-.58C7156.446,482.751,7159.518,482.743,7162.592,482.743Z" transform="translate(-17.729 -181.841)" fill="#eaeaea"/>
    <path id="Контур_2488" data-name="Контур 2488" d="M7144.792,306q-5.532,0-11.063,0c-1.325,0-1.709-.585-1.184-1.787.223-.51.444-1.02.668-1.53a1.119,1.119,0,0,1,1.125-.706q10.449.006,20.9,0a1.151,1.151,0,0,1,1.158.762c.244.574.507,1.14.741,1.717.373.917-.052,1.536-1.075,1.538Q7150.426,306.006,7144.792,306Z" transform="translate(0 -26.04)" fill="#eaeaea"/>
    <path id="Контур_2489" data-name="Контур 2489" d="M7152.715,346.987c3.493,0,6.986.022,10.479-.018.719-.008.836.225.75.836a24.576,24.576,0,0,0-.235,2.587c-.017.488-.166.644-.678.639-2.329-.023-4.657-.005-6.986-.006-4.521,0-9.041-.013-13.562.007-.562,0-.741-.153-.757-.7-.026-.909-.129-1.817-.246-2.72-.065-.507.1-.641.617-.638,3.539.022,7.078.011,10.617.011Z" transform="translate(-7.928 -64.751)" fill="#eaeaea"/>
    <path id="Контур_2490" data-name="Контур 2490" d="M7172,273.934c-2.582,0-5.165-.011-7.747.009-.529,0-.615-.11-.441-.6.484-1.358.535-1.419,1.988-1.419h12.659a1.688,1.688,0,0,1,1.857,1.763c.008.416-.325.234-.5.236-1.706.016-3.413.012-5.119.013H7172Z" transform="translate(-27.22)" fill="#eaeaea"/>
  </g>
</svg>
