<svg xmlns="http://www.w3.org/2000/svg" width="14.583" height="36.39" viewBox="0 0 14.583 36.39">
  <g id="Сгруппировать_2626" data-name="Сгруппировать 2626" transform="translate(-6488.918 -939.939)">
    <path id="Контур_2526" data-name="Контур 2526" d="M6501.553,1081.658c-1.942,0-3.883-.012-5.824.009-.448,0-.612-.107-.61-.587q.027-5.255,0-10.511c0-.482.161-.587.61-.586q5.823.022,11.647,0c.445,0,.615.1.612.585q-.03,5.255,0,10.511c0,.48-.162.59-.609.585-1.941-.021-3.882-.009-5.823-.009Zm0-2.681c.377,0,.758.028,1.133,0a3.266,3.266,0,0,0,.341-6.465,8.255,8.255,0,0,0-2.959,0,3.211,3.211,0,0,0-2.649,3,3.26,3.26,0,0,0,2.308,3.347A5.462,5.462,0,0,0,6501.556,1078.978Z" transform="translate(-5.319 -111.569)" fill="#eaeaea"/>
    <path id="Контур_2527" data-name="Контур 2527" d="M6496.259,993.3c-2.224,0-4.448-.01-6.671.008-.436,0-.557-.1-.626-.569a2.239,2.239,0,0,1,1.545-2.723c.977-.4,1.839-1.066,2.787-1.546.593-.3.781-.567.428-1.229a5.11,5.11,0,0,1-.386-3.59c.091-.414.254-.59.708-.582,1.466.028,2.933.023,4.4,0a.573.573,0,0,1,.675.529,5.445,5.445,0,0,1-.459,3.857c-.227.434-.131.645.292.876,1.348.737,2.662,1.535,4.009,2.271a.912.912,0,0,1,.534.946c-.02,1.75,0,1.75-1.769,1.75Z" transform="translate(0 -37.003)" fill="#eaeaea"/>
    <path id="Контур_2528" data-name="Контур 2528" d="M6496.566,1171.176c-2.224,0-4.448-.013-6.67.011-.472.005-.632-.138-.581-.6.113-1.021-.219-2.073.25-3.076a.648.648,0,0,1,.685-.451q6.315.018,12.632,0c.831,0,.842.694.9,1.183.1.84.016,1.7.036,2.551.011.483-.323.37-.581.37Q6499.9,1171.18,6496.566,1171.176Z" transform="translate(-0.332 -194.858)" fill="#eaeaea"/>
    <path id="Контур_2529" data-name="Контур 2529" d="M6525.36,943.947c-.661,0-1.322-.016-1.982.006-.37.012-.5-.124-.49-.489q.024-1.522,0-3.044c-.007-.368.115-.488.488-.482,1.344.02,2.689.016,4.034,0,.335,0,.458.109.455.446-.012,1.038-.008,2.076,0,3.114,0,.332-.121.461-.457.453-.684-.016-1.368,0-2.052,0Z" transform="translate(-29.143)" fill="#eaeaea"/>
    <path id="Контур_2530" data-name="Контур 2530" d="M6528.363,1104.338a7.573,7.573,0,0,1-1.061-.008,1.072,1.072,0,0,1-1-1.1,1.094,1.094,0,0,1,.991-1.179,12.84,12.84,0,0,1,1.982-.011,1.149,1.149,0,0,1,.009,2.287A7.852,7.852,0,0,1,6528.363,1104.338Z" transform="translate(-32.07 -139.048)" fill="#eaeaea"/>
  </g>
</svg>
