<svg xmlns="http://www.w3.org/2000/svg" width="12.819" height="36.862" viewBox="0 0 12.819 36.862">
  <g id="coke-bottle" transform="translate(-135.951)">
    <g id="Сгруппировать_2623" data-name="Сгруппировать 2623" transform="translate(135.951)">
      <g id="Сгруппировать_2622" data-name="Сгруппировать 2622" transform="translate(0)">
        <path id="Контур_2513" data-name="Контур 2513" d="M137.693,22.656l.1.618.237-.062a4.97,4.97,0,0,1,1.254-.157,6.812,6.812,0,0,1,5.137,2.6,6.73,6.73,0,0,0,4.288,2.523l.256.04v-.259a33.969,33.969,0,0,1,.55-5.306c.066-.422.135-.857.2-1.287a15.837,15.837,0,0,0-.788-7.872q-.154-.428-.311-.854c-1.162-3.182-2.261-6.188-1.665-9.674A1.684,1.684,0,0,0,145.848,0h-4.494a1.684,1.684,0,0,0-1.1,2.965c.6,3.486-.5,6.492-1.665,9.674q-.156.427-.311.854a15.837,15.837,0,0,0-.788,7.872C137.558,21.8,137.627,22.233,137.693,22.656ZM142.7,3.61h1.8c-.347,3.653.8,6.792,1.91,9.831l.044.121q.132.362.264.725a14.439,14.439,0,0,1,.458,1.528h-7.152a14.477,14.477,0,0,1,.458-1.529q.131-.363.263-.724l.044-.121C141.9,10.4,143.048,7.263,142.7,3.61Z" transform="translate(-137.192)" fill="#eaeaea"/>
        <path id="Контур_2514" data-name="Контур 2514" d="M148.5,282.308a11.662,11.662,0,0,1-.686-2.833l-.027-.233-.231.041a5.2,5.2,0,0,1-.9.077,6.673,6.673,0,0,1-4.706-2.108c-.192-.205-.378-.419-.557-.626a7.694,7.694,0,0,0-1.982-1.8,5.772,5.772,0,0,0-2.446-.707l-.272-.02.037.271a15.686,15.686,0,0,1-.511,7.935,2.98,2.98,0,0,0,.057,2.606,3.642,3.642,0,0,0,2.73,1.568c.837.134,2.051.2,2.776.234.259.013.9.013,1.156,0,.725-.038,1.939-.1,2.776-.234a3.642,3.642,0,0,0,2.73-1.568A2.981,2.981,0,0,0,148.5,282.308Z" transform="translate(-135.951 -249.865)" fill="#eaeaea"/>
      </g>
    </g>
  </g>
</svg>
