<svg xmlns="http://www.w3.org/2000/svg" width="30.666" height="30.666" viewBox="0 0 30.666 30.666">
  <g id="cookie" transform="translate(30.666) rotate(90)">
    <path id="Контур_2449" data-name="Контур 2449" d="M175.361,167.376a2.494,2.494,0,0,0,0-3.719,2.717,2.717,0,0,1-.428-.663,2.784,2.784,0,0,1,.036-.833A2.448,2.448,0,0,0,173.132,159a1.342,1.342,0,0,1-1.1-1.1,2.448,2.448,0,0,0-3.162-1.836,2.788,2.788,0,0,1-.833.036,2.72,2.72,0,0,1-.663-.428,2.493,2.493,0,0,0-3.719,0,2.72,2.72,0,0,1-.663.428,2.791,2.791,0,0,1-.833-.036A2.448,2.448,0,0,0,159,157.9a1.343,1.343,0,0,1-1.1,1.1,2.448,2.448,0,0,0-1.836,3.162,2.788,2.788,0,0,1,.036.833,2.719,2.719,0,0,1-.428.663,2.493,2.493,0,0,0,0,3.719,2.72,2.72,0,0,1,.428.663,2.786,2.786,0,0,1-.036.833,2.448,2.448,0,0,0,1.836,3.162,1.342,1.342,0,0,1,1.1,1.1,2.448,2.448,0,0,0,3.162,1.836,2.787,2.787,0,0,1,.833-.036,2.716,2.716,0,0,1,.663.428,2.494,2.494,0,0,0,3.719,0,2.718,2.718,0,0,1,.663-.428,2.782,2.782,0,0,1,.833.036,2.448,2.448,0,0,0,3.162-1.836,1.342,1.342,0,0,1,1.1-1.1,2.448,2.448,0,0,0,1.836-3.162,2.788,2.788,0,0,1-.036-.833,2.714,2.714,0,0,1,.428-.663Zm-12.668,1.864h-1.8v-1.862h1.8Zm0-5.586h-1.8v-1.862h1.8Zm3.579,7.186h-1.8v-1.862h1.8Zm0-4.51h-1.8v-1.862h1.8Zm0-4.539h-1.8V159.93h1.8Zm3.608,7.448h-1.8v-1.862h1.8Zm0-5.586h-1.8v-1.862h1.8Z" transform="translate(-145.528 -145.528)" fill="#eaeaea"/>
    <path id="Контур_2450" data-name="Контур 2450" d="M11.768,11.768a4.764,4.764,0,0,1,1.976-2.589,4.8,4.8,0,0,1,3.223-.419,4.667,4.667,0,0,1,3.139-1.251,3.339,3.339,0,0,0-.181-2.171A3.078,3.078,0,0,0,18.294,4.16a2.754,2.754,0,0,1-.724-.374,2.754,2.754,0,0,1-.374-.724A3.078,3.078,0,0,0,16.018,1.43a3.058,3.058,0,0,0-1.984-.2,2.784,2.784,0,0,1-.833.036,2.718,2.718,0,0,1-.663-.428A3.1,3.1,0,0,0,10.678,0a3.1,3.1,0,0,0-1.86.832,2.716,2.716,0,0,1-.663.428,2.783,2.783,0,0,1-.833-.036,3.058,3.058,0,0,0-1.984.2A3.078,3.078,0,0,0,4.16,3.062a2.754,2.754,0,0,1-.374.724,2.753,2.753,0,0,1-.724.374A3.078,3.078,0,0,0,1.43,5.337a3.058,3.058,0,0,0-.2,1.984,2.786,2.786,0,0,1,.036.833,2.717,2.717,0,0,1-.428.663A3.1,3.1,0,0,0,0,10.678a3.1,3.1,0,0,0,.832,1.86,2.717,2.717,0,0,1,.428.663,2.784,2.784,0,0,1-.036.833,3.058,3.058,0,0,0,.2,1.984A3.078,3.078,0,0,0,3.062,17.2a2.757,2.757,0,0,1,.724.374,2.753,2.753,0,0,1,.374.724,3.078,3.078,0,0,0,1.177,1.632,3.343,3.343,0,0,0,2.171.181A4.7,4.7,0,0,1,8.76,16.968a4.757,4.757,0,0,1,.419-3.223,4.788,4.788,0,0,1,2.589-1.976ZM10.823,4.51h1.8V6.372h-1.8Zm-4.51,8.176H4.51V10.823h1.8Zm1.8-4.51h-1.8V6.314h1.8Z" fill="#eaeaea"/>
  </g>
</svg>
