<svg xmlns="http://www.w3.org/2000/svg" width="37.426" height="34.851" viewBox="0 0 37.426 34.851">
    <g id="Сгруппировать_2594" data-name="Сгруппировать 2594" transform="translate(0.5 0.509)">
        <path id="Контур_2426" data-name="Контур 2426"
              d="M1286.55,262.128a.606.606,0,0,0-.85.556v1.074h-6.079v-1.074a.607.607,0,0,0-.85-.556,9.722,9.722,0,1,0,7.778,0Zm-.85,2.843v.876a.609.609,0,0,0,.257.5,5.739,5.739,0,1,1-6.594,0,.607.607,0,0,0,.258-.5v-.876Z"
              transform="translate(-1255.957 -262.077)" fill="#fff" stroke="rgba(0,0,0,0)" stroke-width="1"/>
        <path id="Контур_2427" data-name="Контур 2427"
              d="M1095.865,432.379a.606.606,0,0,0-.849.556v1.074h-6.079v-1.074a.607.607,0,0,0-.85-.556,9.722,9.722,0,1,0,7.778,0Zm-.849,2.843v.876a.606.606,0,0,0,.257.5,5.739,5.739,0,1,1-6.594,0,.607.607,0,0,0,.257-.5v-.876Z"
              transform="translate(-1082.254 -417.166)" fill="#fff" stroke="rgba(0,0,0,0)" stroke-width="1"/>
    </g>
</svg>
