<svg xmlns="http://www.w3.org/2000/svg" width="30.85" height="26.442" viewBox="0 0 30.85 26.442">
  <g id="Сгруппировать_2572" data-name="Сгруппировать 2572" transform="translate(-4661.196 -1042.402)">
    <path id="Icon_metro-medkit" data-name="Icon metro-medkit" d="M4672.214,1046.809h8.812v-2.2h-8.812v2.2Zm-6.61,0v22.035h-.551a3.879,3.879,0,0,1-3.856-3.856v-14.323a3.879,3.879,0,0,1,3.856-3.856Zm20.382,0v22.035h-18.73v-22.035h2.754v-2.754a1.647,1.647,0,0,1,1.639-1.653h9.93a1.646,1.646,0,0,1,1.652,1.64v2.767Zm6.06,3.856v14.322a3.877,3.877,0,0,1-3.856,3.856h-.551v-22.034h.551A3.879,3.879,0,0,1,4692.046,1050.665Z" fill="#fff"/>
    <path id="Icon_awesome-plus" data-name="Icon awesome-plus" d="M4682.823,1056.587h-4.652v-4.651a1.034,1.034,0,0,0-1.033-1.034H4676.1a1.034,1.034,0,0,0-1.034,1.034v4.651h-4.651a1.034,1.034,0,0,0-1.034,1.034v1.031a1.034,1.034,0,0,0,1.034,1.034h4.651v4.652a1.034,1.034,0,0,0,1.034,1.034h1.034a1.034,1.034,0,0,0,1.034-1.034h0v-4.65h4.652a1.033,1.033,0,0,0,1.033-1.035h0v-1.031a1.034,1.034,0,0,0-1.034-1.034Z" fill="#ff6363"/>
  </g>
</svg>