<svg xmlns="http://www.w3.org/2000/svg" width="14.256" height="35.08" viewBox="0 0 14.256 35.08">
  <g id="Сгруппировать_2620" data-name="Сгруппировать 2620" transform="translate(-237.998 -732.888)">
    <g id="beverage_1_" data-name="beverage (1)" transform="translate(237.998 732.888)">
      <path id="Контур_2499" data-name="Контур 2499" d="M71.035,258.746a6.134,6.134,0,0,1,0-2.376c.05-.134.143,0,0,0H59.157c-.143,0-.051-.134,0,0a6.125,6.125,0,0,1,0,2.376l-1.188,11.878A4.154,4.154,0,0,0,59.157,273c1.1,1.171,2.531.082,3.563-1.188A3.514,3.514,0,0,0,65.1,273h0a3.512,3.512,0,0,0,2.376-1.188A3.511,3.511,0,0,0,69.847,273a2.2,2.2,0,0,0,2.376-2.376C72.223,270.488,71.9,271.7,71.035,258.746Zm-7.127,3.563a2.3,2.3,0,0,1-1.188-1.188c0-.3.888,0,1.188,0s0-.3,0,0S64.208,262.309,63.908,262.309Zm2.376,2.376c-.3,0,0,.3,0,0s-.3-1.188,0-1.188a2.3,2.3,0,0,1,1.188,1.188C67.472,264.985,66.584,264.685,66.284,264.685Zm1.188-5.939a2.3,2.3,0,0,1-1.188-1.188c0-.3.888,0,1.188,0s0-.3,0,0S67.772,258.746,67.472,258.746Z" transform="translate(-57.967 -238.419)" fill="#eaeaea"/>
      <path id="Контур_2500" data-name="Контур 2500" d="M82.58,4.772H75.453c-.071,0,.037-.061,0,0L73.077,7.148c-.055.091-.106,0,0,0H84.955c.106,0,.055.091,0,0L82.58,4.772C82.543,4.711,82.651,4.772,82.58,4.772ZM77.828,5.96c-.3,0,0,.3,0,0s-.3,0,0,0,1.188-.3,1.188,0S78.129,5.96,77.828,5.96ZM75.453,3.584H82.58c.3,0,0-.888,0-1.188V.021c0-.3.3,0,0,0H75.453c-.3,0,0-.3,0,0V2.4C75.453,2.679,75.109,3.584,75.453,3.584Z" transform="translate(-71.887 0.113)" fill="#eaeaea"/>
      <path id="Контур_2501" data-name="Контур 2501" d="M69,127.684H57.125a2.3,2.3,0,0,0-1.188,1.188v5.939A2.3,2.3,0,0,0,57.125,136H69a2.3,2.3,0,0,0,1.188-1.188v-5.939A2.3,2.3,0,0,0,69,127.684Z" transform="translate(-55.936 -119.235)" fill="#eaeaea"/>
    </g>
  </g>
</svg>
