<svg xmlns="http://www.w3.org/2000/svg" width="21.186" height="35.027" viewBox="0 0 21.186 35.027">
  <path id="Контур_2439" data-name="Контур 2439" d="M-798.288-4156.13c-.372.294-.691.556-1.02.8a.314.314,0,0,0-.145.361c.071.347.1.7.153,1.054a3.6,3.6,0,0,0,.134.443c-.224.2-.473.438-.744.65a.353.353,0,0,0-.135.441c.31,1.039.643,2.071.9,3.123.542,2.2,1.045,4.4,1.561,6.607.067.287.111.58.173.913.383-.225.738-.414,1.068-.64a.411.411,0,0,0,.081-.344c-.174-.875-.369-1.746-.549-2.62a9.117,9.117,0,0,1-.324-1.836,8.438,8.438,0,0,0-.1-1.326c-.2-1.309-.382-2.621-.569-3.931-.115-.808-.222-1.616-.338-2.423-.043-.3-.032-.58.286-.734a.4.4,0,0,1,.255-.057c.455.146.9.31,1.422.492-.323.277-.6.535-.9.763a.354.354,0,0,0-.133.423c.49,2.052,1.015,4.1,1.452,6.16.3,1.416.478,2.857.711,4.288a.255.255,0,0,0,.079.165l.4-1.457c.115-.426.258-.847.334-1.279a2.623,2.623,0,0,0-.014-.849c-.094-.6-.225-1.187-.337-1.781-.011-.059-.012-.164.017-.179.228-.111.157-.3.137-.474-.143-1.25-.274-2.5-.43-3.75-.112-.9-.253-1.787-.395-2.678a.4.4,0,0,1,.2-.477c.264-.156.5-.354.765-.514a.4.4,0,0,1,.31-.049c.43.188.849.4,1.322.629-.349.243-.657.475-.984.678a.317.317,0,0,0-.162.376c.1.683.186,1.369.279,2.053.011.083.036.166.062.283.215-.247.418-.166.635-.051.235.125.481.227.746.35.276-.7.539-1.375.809-2.049.207-.517.417-1.032.642-1.542a.4.4,0,0,1,.239-.2c.418-.1.841-.192,1.265-.271a.314.314,0,0,1,.248.073c.282.3.549.614.853.96-.466.1-.889.207-1.318.279a.445.445,0,0,0-.378.331c-.532,1.41-1.073,2.815-1.612,4.221-.019.05-.043.1-.094.212l-.282-1.808a4.935,4.935,0,0,1-.559.371.9.9,0,0,0-.533,1.127c.27,1.716.436,3.448.64,5.173.031.264.048.529.075.835.4-.232.774-.433,1.128-.658a.342.342,0,0,0,.089-.27c-.039-.508-.1-1.014-.14-1.521a1.3,1.3,0,0,1,.038-.508c.427-1.243.884-2.476,1.3-3.723.151-.456.558-.541.881-.758a.588.588,0,0,0,.222-.208q.411-.967.795-1.944a.435.435,0,0,1,.368-.309c.349-.06.7-.143,1.039-.234a.409.409,0,0,1,.48.136c.231.28.482.543.759.85-.476.111-.909.217-1.343.311a.415.415,0,0,0-.338.3c-.308.827-.638,1.645-.972,2.5l1.089.828c.234-.612.468-1.179.666-1.758a.44.44,0,0,1,.57-.342c.368.054.746.043,1.154.062.053.4.117.794.156,1.191a10.275,10.275,0,0,1,.13,1.773c-.152,1.943-.37,3.882-.556,5.823-.144,1.492-.277,2.985-.418,4.478-.119,1.263-.243,2.525-.363,3.788-.11,1.157-.217,2.315-.327,3.472-.048.507-.09,1.015-.161,1.519a.508.508,0,0,1-.217.325q-3.5,2.035-7.01,4.051-2.319,1.34-4.637,2.681a.657.657,0,0,1-.315.12c-1.171-.041-2.342-.095-3.539-.146-.053-.4-.113-.79-.154-1.178q-.32-3.023-.631-6.048c-.145-1.414-.281-2.828-.423-4.243q-.375-3.74-.753-7.479c-.048-.478-.1-.955-.163-1.432a.353.353,0,0,1,.2-.417c.546-.3,1.08-.622,1.642-.949-.139-.531-.266-1.069-.421-1.6-.613-2.1-1.214-4.2-1.87-6.284a.8.8,0,0,1,.3-1.031c.619-.49.6-.514,1.345-.236.249.093.5.181.8.29-.318.279-.589.534-.877.765a.342.342,0,0,0-.116.424c.654,2.246,1.325,4.489,1.943,6.745.405,1.479.736,2.979,1.09,4.473.049.208.119.334.356.3a1.84,1.84,0,0,1,.259,0c.31,0,.424-.109.364-.417-.256-1.309-.48-2.625-.8-3.918-.541-2.167-1.145-4.319-1.73-6.477-.12-.443-.282-.876-.4-1.319a.352.352,0,0,1,.079-.285,4.782,4.782,0,0,1,.622-.557.523.523,0,0,0,.212-.592c-.064-.339-.1-.684-.163-1.024a.4.4,0,0,1,.177-.464c.283-.2.542-.43.821-.635a.361.361,0,0,1,.274-.075C-799.17-4156.493-798.757-4156.318-798.288-4156.13Zm11.693,6.213c-.453.188-.843.345-1.227.515-.069.031-.157.108-.165.173-.094.711-.175,1.423-.267,2.2.479-.273.9-.511,1.322-.756a.212.212,0,0,0,.085-.138C-786.762-4148.569-786.683-4149.215-786.595-4149.917Z" transform="translate(804.703 4157.363)" fill="#eaeaea" stroke="rgba(0,0,0,0)" stroke-width="1"/>
</svg>
