<svg xmlns="http://www.w3.org/2000/svg" width="45.585" height="30.872" viewBox="0 0 45.585 30.872">
    <g id="protection">
        <g id="Сгруппировать_119" data-name="Сгруппировать 119">
            <path id="Контур_125" data-name="Контур 125"
                  d="M44.4,96.844,28.772,83.292a.741.741,0,0,0-.118-.084c-.08-.046-1.973-1.118-3.5-.239-1.057.61-1.593,1.934-1.593,3.936a.76.76,0,0,0,1.519,0c0-1.377.295-2.306.83-2.618a2.29,2.29,0,0,1,1.925.207L42.029,96.8H34.778a.8.8,0,0,0-.1.007c-.73-.014-1.486-.007-2.21-.017-2.564-.037-4.988-.064-6.631,1.605l-6.1-.02c-1.624-1.649-4.049-1.621-6.611-1.585-.723.01-1.478,0-2.208.017a.8.8,0,0,0-.1-.007H3.567L17.758,84.494a2.3,2.3,0,0,1,1.925-.207c.535.312.83,1.242.83,2.618a.76.76,0,0,0,1.519,0c0-2-.536-3.325-1.593-3.936-1.524-.88-3.417.193-3.5.239a.741.741,0,0,0-.118.084L1.2,96.838A1.553,1.553,0,0,0,0,98.358v1.33a1.6,1.6,0,0,0,.3.93L2.316,103.4v1.855c.071,4.544,4.4,8.241,9.657,8.241,5.1,0,9.143-3.081,9.614-7.352l2.416.026c.464,4.245,4.505,7.327,9.607,7.327s9.342-3.448,9.638-7.854c.01-.158.02-.326.02-.494V103.4l2.02-2.789a1.59,1.59,0,0,0,.3-.923v-1.33A1.553,1.553,0,0,0,44.4,96.844ZM5.541,102.627a.76.76,0,0,1,0-1.065l1.519-1.52a.76.76,0,0,1,1.074,1.074l-1.519,1.519A.76.76,0,0,1,5.541,102.627Zm6.392-.75-4.558,4.558A.76.76,0,0,1,6.3,105.361l4.558-4.558a.76.76,0,0,1,1.074,1.074Zm12.379.982H21.273a.76.76,0,1,1,0-1.519h3.039a.76.76,0,1,1,0,1.519Zm4.021-.232a.76.76,0,0,1,0-1.065l1.52-1.52a.76.76,0,0,1,1.074,1.074l-1.52,1.519A.76.76,0,0,1,28.333,102.627Zm6.392-.75-4.558,4.558a.76.76,0,0,1-1.074-1.074l4.558-4.558a.76.76,0,0,1,1.074,1.074Z"
                  transform="translate(0 -82.624)" fill="#fff"/>
        </g>
    </g>
</svg>
