<svg xmlns="http://www.w3.org/2000/svg" width="38.045" height="46.974" viewBox="0 0 38.045 46.974">
  <g id="football-sports-gloves" transform="translate(17.689 46.974) rotate(-135)">
    <g id="Сгруппировать_570" data-name="Сгруппировать 570" transform="translate(0 0)">
      <path id="Контур_530" data-name="Контур 530" d="M13.951,1.62A3.1,3.1,0,0,0,11.289,0,2.682,2.682,0,0,0,9.973.343l-1.959,1.1a2.116,2.116,0,0,1-.022.511,1.717,1.717,0,0,1-.242.633L10.4,1.1a1.8,1.8,0,0,1,.89-.231A2.235,2.235,0,0,1,13.2,2.045c.6,1.058.936,2.366-.014,2.9L5.607,10.29A7.426,7.426,0,0,1,5.1,12.777a1.961,1.961,0,0,0-.652-.157L.2,12.383a4.11,4.11,0,0,1-.12.427c-.023.065-.05.123-.076.185a1.772,1.772,0,0,1,.327.264l4.068.227a1.169,1.169,0,0,1,.16.025,1.1,1.1,0,0,1,.443.2,1.113,1.113,0,0,1,.288.326,1.085,1.085,0,0,1,.148.614l-.184,3.3a1.1,1.1,0,0,1-1.1,1.04l-.062,0-3.036-.169a1.774,1.774,0,0,1-.252.421,1.8,1.8,0,0,1-.486.407l3.725.208c.037,0,.074,0,.111,0a1.969,1.969,0,0,0,1.964-1.859l.184-3.3a1.953,1.953,0,0,0-.485-1.4,6.938,6.938,0,0,0,.626-2.528l7.212-5.086C14.6,5.114,15.159,3.764,13.951,1.62Z" transform="translate(17.554 14.384)" fill="#fff"/>
      <path id="Контур_531" data-name="Контур 531" d="M8.089,12.663c.089.112.159.222.237.332a6,6,0,0,1,.4.641c.037-.722.091-1.515.173-2.367L9,10.222l-.038,0L9.429,5.2a2.88,2.88,0,0,0-.469-2.061,2.679,2.679,0,0,0-3.672-.748A2.77,2.77,0,0,0,2.7,0L2.59,0h0A2.736,2.736,0,0,0,.081,1.69C.055,1.668.025,1.653,0,1.633a2.789,2.789,0,0,1,.189.834c.006.073.021.145.021.218L.446,6.42.713,2.763A1.929,1.929,0,0,1,2.589.866l.073,0A1.924,1.924,0,0,1,4.452,2.915L4.257,7.7l.614-3.2A1.944,1.944,0,0,1,6.747,2.825a1.8,1.8,0,0,1,.281.023A1.924,1.924,0,0,1,8.567,5.089L8,11.189l.036,0c-.043.449-.077.877-.107,1.293C7.982,12.54,8.038,12.6,8.089,12.663Z" transform="translate(16.41 0.855)" fill="#fff"/>
      <path id="Контур_532" data-name="Контур 532" d="M.048,8.328l1.67,7.126a1.787,1.787,0,0,0,.433.8c.094,1.2.187,2.545.187,3.124,0,1.052,2.146,7.678,3.668,9.061a1.751,1.751,0,0,1,.878-.348l4.426-.447.372-.038.159-.016.413-.041.306-.031.665-.067.441-.045,2.769-.279h.01a1.62,1.62,0,0,1,.18-.01h0a1.821,1.821,0,0,1,.371.041l.023.007,0-.006a2.983,2.983,0,0,0,.142-.426,8.383,8.383,0,0,0,.1-2.683l6.93-6.727.328-.318a1.342,1.342,0,0,0,.2-.2,1.77,1.77,0,0,0-.044-1.943,5.408,5.408,0,0,0-.4-.665c-.076-.109-.153-.215-.236-.319a2.486,2.486,0,0,0-1.925-.971,2,2,0,0,0-1.25.426l-3.688,2.918a58.647,58.647,0,0,1-.68-6.031l-.038.01L16.042,3.56a2.151,2.151,0,0,0-.025-.261,2.226,2.226,0,0,0-.185-.676,2.166,2.166,0,0,0-.413-.61A1.979,1.979,0,0,0,14,1.4h0a2.1,2.1,0,0,0-2.042,2.15L11.9,5.382l-.014.436-.015.445-.028.843-.1-.874-.051-.439-.051-.437-.4-3.44A2.115,2.115,0,0,0,9.188,0a1.861,1.861,0,0,0-.226.013A2.1,2.1,0,0,0,7.183,2.387l.475,5.677-.9-4.527A1.965,1.965,0,0,0,4.915,1.882a1.648,1.648,0,0,0-.318.031A1.917,1.917,0,0,0,3.222,4.24L4.3,10.682,3.557,7.506a1.8,1.8,0,1,0-3.509.822Z" transform="translate(0 0)" fill="#fff"/>
      <path id="Контур_533" data-name="Контур 533" d="M12.321,4.667l-.335-3.32-.026-.265a1.224,1.224,0,0,0-.035-.176,1.189,1.189,0,0,0-.23-.461A1.2,1.2,0,0,0,11.419.2,1.157,1.157,0,0,0,11.15.068a1.2,1.2,0,0,0-.33-.063C10.8,0,10.784,0,10.766,0a1.128,1.128,0,0,0-.122.006L9.393.132,7.815.292,6.488.426l-.3.031L5.729.5,5.285.546l-4.2.424a1.211,1.211,0,0,0-.225.046,1.193,1.193,0,0,0-.427.231,1.2,1.2,0,0,0-.212.24,1.187,1.187,0,0,0-.21.8L.368,5.873a1.2,1.2,0,0,0,1.194,1.08,1.129,1.129,0,0,0,.122-.006l7.624-.77,1.938-.2a1.215,1.215,0,0,0,1.074-1.315ZM5.988,3.294c-.154.052-.3.1-.443.157-.164.063-.31.125-.444.187a1.542,1.542,0,0,0-.567.371c-.489.693.653,1.043.653,1.043-1.151-.212-2.344-.747-1.438-2.042a2.24,2.24,0,0,1,1.424-.674c.141-.026.286-.05.438-.069s.288-.033.437-.046a21.251,21.251,0,0,1,3.6.1S7.509,2.783,5.988,3.294Z" transform="translate(5.86 27.695)" fill="#fff"/>
    </g>
  </g>
</svg>
