<svg xmlns="http://www.w3.org/2000/svg" width="36.032" height="37.063" viewBox="0 0 36.032 37.063">
  <g id="hat">
    <path id="Контур_123" data-name="Контур 123" d="M75.753,25.032a.6.6,0,0,0,.6-.6V20.3A14.3,14.3,0,0,0,64.917,6.314a4.21,4.21,0,1,0-7.293,0A14.3,14.3,0,0,0,46.19,20.3v4.132a.6.6,0,0,0,.6.6Z" transform="translate(-43.254 0.001)" fill="#fff"/>
    <path id="Контур_124" data-name="Контур 124" d="M42.083,367H7.751a1.2,1.2,0,0,0-.85,1.145v7.3a1.2,1.2,0,0,0,1.2,1.2H41.737a1.2,1.2,0,0,0,1.2-1.2v-7.3A1.2,1.2,0,0,0,42.083,367Z" transform="translate(-6.901 -339.578)" fill="#fff"/>
  </g>
</svg>
