<svg xmlns="http://www.w3.org/2000/svg" width="32.124" height="35.708" viewBox="0 0 32.124 35.708">
    <g id="Сгруппировать_2599" data-name="Сгруппировать 2599" transform="translate(-4174.951 302.686)">
        <path id="Контур_2430" data-name="Контур 2430"
              d="M4178.354-296.186c.968-.35,1.88-.826,2.825-1.226a6.052,6.052,0,0,1,1.976-.542,8.2,8.2,0,0,1,1.688.114c1.336.192,2.637.545,3.949.847.656.151,1.3.368,1.965.459a3.054,3.054,0,0,0,1.165-.081c1.5-.375,3-.755,4.512-1.066a13.837,13.837,0,0,1,2.214-.283,5.148,5.148,0,0,1,2.132.442c.917.367,1.792.831,2.712,1.193a7.994,7.994,0,0,0,3.167.636q0-1.465,0-2.931a3.386,3.386,0,0,0-.328-1.558,3.434,3.434,0,0,0-3.287-2.006h-11.9v.2c-4.008,0-8.018-.014-12.026.006a3.437,3.437,0,0,0-3.566,3.606q-.005,1.34,0,2.679A7.532,7.532,0,0,0,4178.354-296.186Z"
              transform="translate(-0.088)" fill="#fff" stroke="rgba(0,0,0,0)" stroke-width="1"/>
        <path id="Контур_2431" data-name="Контур 2431"
              d="M4403.76-202.9a4.524,4.524,0,0,0-3.08.3,6.165,6.165,0,0,0-2.543,2.684c-.06.109,0,.132.079.166a6.984,6.984,0,0,0,2.751.65,4.111,4.111,0,0,0,2.615-.878,6.884,6.884,0,0,0,1.822-2.215c.06-.11.032-.149-.074-.2A7.379,7.379,0,0,0,4403.76-202.9Z"
              transform="translate(-203.323 -90.539)" fill="#fff" stroke="rgba(0,0,0,0)" stroke-width="1"/>
        <path id="Контур_2432" data-name="Контур 2432"
              d="M4203.889-192.289a13.972,13.972,0,0,1-2.211,2.584,3.685,3.685,0,0,1-3.513.847,10.172,10.172,0,0,1-3.413-1.641c-.6-.418-1.133-.927-1.7-1.392a7.17,7.17,0,0,0-1.594-1.036,1.048,1.048,0,0,0-.939.025,7.419,7.419,0,0,0-1.816,1.254,13.4,13.4,0,0,1-3.365,2.284,7.062,7.062,0,0,1-1.847.582,3.634,3.634,0,0,1-3.163-.954,14.446,14.446,0,0,1-2.5-3.041,32.256,32.256,0,0,1-2.371-4.524c0,2.921-.022,5.843.009,8.764a12.848,12.848,0,0,0,4.555,9.853c.574.507,1.18.982,1.748,1.492,1.334,1.2,2.688,2.373,4.048,3.541a8.1,8.1,0,0,0,6.167,1.909,7.87,7.87,0,0,0,4.292-1.91c1.9-1.628,3.813-3.247,5.7-4.894a12.753,12.753,0,0,0,4.577-9.841c.03-2.969.027-5.939.021-8.908A30.893,30.893,0,0,1,4203.889-192.289Zm-25.113,8.618c-.147.085-.207-.006-.262-.119a10.725,10.725,0,0,1-1.052-3.727c-.024-.246.063-.287.265-.168.561.327,1.123.652,1.684.978l2.3,1.341C4180.692-184.776,4179.733-184.224,4178.776-183.671Zm19.917,2.747a7.316,7.316,0,0,1-1.279,1.523c-1.035.9-2.069,1.807-3.114,2.7a4.018,4.018,0,0,1-3.1.971c-.459-.042-.919.059-1.384-.016a4.105,4.105,0,0,1-2.07-.927q-1.614-1.383-3.208-2.788a6.853,6.853,0,0,1-1.237-1.5c-.138-.218,3.047-.1,3.716.563.727.722,2.321-7.427,2.321-7.427h3.335s2.043,7.7,3.051,6.811C4195.928-181.194,4198.854-181.168,4198.693-180.924Zm5.878-6.561a10.841,10.841,0,0,1-1,3.7c-.056.118-.1.249-.28.143-.971-.564-1.944-1.123-2.979-1.72.832-.485,1.6-.935,2.371-1.381.524-.3,1.052-.6,1.575-.907C4204.462-187.775,4204.6-187.82,4204.571-187.485Z"
              transform="translate(0 -95.777)" fill="#fff" stroke="rgba(0,0,0,0)" stroke-width="1"/>
        <path id="Контур_2433" data-name="Контур 2433"
              d="M4229.646-203.027a7.093,7.093,0,0,0-2.541.647c-.1.044-.118.078-.064.182a7.23,7.23,0,0,0,.892,1.323,4.432,4.432,0,0,0,3.521,1.777,7.018,7.018,0,0,0,2.772-.643c.133-.06.111-.119.06-.216a7.348,7.348,0,0,0-1.166-1.622A4.317,4.317,0,0,0,4229.646-203.027Z"
              transform="translate(-47.082 -90.541)" fill="#fff" stroke="rgba(0,0,0,0)" stroke-width="1"/>
    </g>
</svg>
