<svg xmlns="http://www.w3.org/2000/svg" width="14.167" height="34.417" viewBox="0 0 14.167 34.417">
  <g id="milk_1_" data-name="milk (1)" transform="translate(-150.625)">
    <path id="Контур_2483" data-name="Контур 2483" d="M167.044,60a9.18,9.18,0,0,1-1.664,3.794,11.1,11.1,0,0,0-1.324,2.3h12.361a11.1,11.1,0,0,0-1.324-2.3A9.181,9.181,0,0,1,173.429,60Z" transform="translate(-12.528 -55.967)" fill="#eaeaea"/>
    <path id="Контур_2484" data-name="Контур 2484" d="M150.883,180.625a11.08,11.08,0,0,0-.258,2.368v16.13A3.781,3.781,0,0,0,154.4,202.9h6.613a3.781,3.781,0,0,0,3.777-3.777v-16.13a11.08,11.08,0,0,0-.258-2.368Z" transform="translate(0 -168.483)" fill="#eaeaea"/>
    <path id="Контур_2485" data-name="Контур 2485" d="M203.924,2.017H204v0A1.008,1.008,0,0,0,203.924,0h-5.915a1.008,1.008,0,0,0-.076,2.013v0h5.991Z" transform="translate(-43.258)" fill="#eaeaea"/>
  </g>
</svg>
