<svg xmlns="http://www.w3.org/2000/svg" width="30.029" height="35" viewBox="0 0 30.029 35">
  <g id="orange" transform="translate(-0.442)">
    <path id="Контур_2455" data-name="Контур 2455" d="M25.543,62.4a11.649,11.649,0,0,1-6.435-3.435,14.851,14.851,0,0,0-2.947-.43v1.871a3,3,0,0,0,.984-.419l.756,1.131a4.369,4.369,0,0,1-4.845,0l.756-1.131a3,3,0,0,0,.985.419V58.535A14.985,14.985,0,1,0,25.543,62.4ZM3.288,72.188,1.933,72.04a13.514,13.514,0,0,1,2.93-7.022l1.062.852a12.161,12.161,0,0,0-2.637,6.318Zm3.47-7.252-.97-.956a13.823,13.823,0,0,1,1.095-.993l.861,1.054a12.432,12.432,0,0,0-.986.894ZM18.886,85.031H17.524v-1.36h1.363Zm2.044-4.079H19.568v-1.36h1.363Zm4.088.68H23.656v-1.36h1.363Zm0-14.276H23.656V66h1.363Zm1.363,4.079v-1.36h1.363v1.36Zm0,0" transform="translate(0 -53.481)" fill="#eaeaea"/>
    <path id="Контур_2456" data-name="Контур 2456" d="M185.05.044C185.034.029,185.016.015,185,0V3.678a16.623,16.623,0,0,1,1.662.152A11.669,11.669,0,0,1,185.05.044Zm0,0" transform="translate(-168.852)" fill="#eaeaea"/>
    <path id="Контур_2457" data-name="Контур 2457" d="M214.307,9.8a10.361,10.361,0,0,0-11.452-7.349A10.384,10.384,0,0,0,214.307,9.8Zm0,0" transform="translate(-185.35 -2.14)" fill="#eaeaea"/>
  </g>
</svg>
