<svg xmlns="http://www.w3.org/2000/svg" width="37.552" height="41.637" viewBox="0 0 37.552 41.637">
  <g id="fashion">
    <path id="Контур_154" data-name="Контур 154" d="M158.49,106.816l-5.322-32.352q-.166-.017-.329-.039c-3.1-.432-5.333-2.276-5.34-4.417V68.143c-2.877.184-6.105.362-7.785.362s-4.908-.178-7.785-.362v1.865c-.007,2.141-2.236,3.985-5.34,4.417q-.164.022-.329.039l-5.322,32.352h13.327l4.344-27.873c.06-.382.537-.673,1.106-.673s1.046.29,1.106.673l4.343,27.873Z" transform="translate(-120.938 -65.179)" fill="#fff"/>
    <path id="Контур_155" data-name="Контур 155" d="M164.264,66.767v-1.8c-.93-.057-1.745-.109-2.35-.148l-.831,4.533C162.967,69.008,164.26,67.958,164.264,66.767Z" transform="translate(-155.511 -62.132)" fill="#fff"/>
    <path id="Контур_156" data-name="Контур 156" d="M192.488,34.254V32.916c-2.8.18-9.534.6-12.244.6S170.8,33.1,168,32.916v1.338c2.6.168,9.595.6,12.244.6S189.889,34.422,192.488,34.254Z" transform="translate(-161.468 -32.916)" fill="#fff"/>
    <path id="Контур_157" data-name="Контур 157" d="M331.181,69.349l-.831-4.533c-.605.039-1.42.091-2.35.148v1.8C328,67.958,329.3,69.008,331.181,69.349Z" transform="translate(-299.201 -62.132)" fill="#fff"/>
  </g>
</svg>
