<svg xmlns="http://www.w3.org/2000/svg" width="41.779" height="24.155" viewBox="0 0 41.779 24.155">
  <path id="Контур_560" data-name="Контур 560" d="M1538.329,1567.455c-.108.411-.44.356-.746.356l-11.875,0a3.769,3.769,0,0,0-.541.015c-.261.038-.57.162-.547.432.046.531-.264.961-.3,1.464a1.246,1.246,0,0,1-1.229,1.111h-.434c-1.506.009-2.134.625-2.442,2.1a3.756,3.756,0,0,1-2.971,3.05,7.764,7.764,0,0,1-6.429-1.016,1.305,1.305,0,0,0-2.033.465,49.362,49.362,0,0,0-3.1,5.635,3.705,3.705,0,0,0-.41,1.972c.117.952-.765,1.294-1.425,1.16-1.911-.388-3.84-.671-5.753-1.038-.053-.01-.106-.021-.159-.034-1.1-.263-1.213-.4-1.27-1.53-.009-.18-.029-.359-.052-.538a5.623,5.623,0,0,1,.192-2.338,26.83,26.83,0,0,1,3.611-7.351,2.323,2.323,0,0,0-.163-2.579c-.312-.373-.768-.683-.649-1.293a.641.641,0,0,1,.524-.6c.336-.068.667-.167,1.006-.219a15.284,15.284,0,0,0,4.636-1.765c.482-.249.678-.735.98-1.132.138-.182-.026-.3-.148-.4-.5-.417-1-.829-1.5-1.242a.846.846,0,0,0-.547-.2.434.434,0,0,1-.474-.423.636.636,0,0,1,.423-.633.391.391,0,0,1,.541.219.976.976,0,0,0,.575.458c.35.146.7.3,1.048.444.3.125.614.368.9.338.351-.038.284-.527.466-.782.021-.029.029-.081.055-.091.726-.273,1.01-1.093,1.719-1.385q14.049,0,28.1-.01c.372,0,.448.072.445.444C1538.318,1562.834,1538.329,1565.145,1538.329,1567.455Zm-23.268,7.343a9.648,9.648,0,0,0,1.192-.008,2.664,2.664,0,0,0,2.351-1.8,1.718,1.718,0,0,0-1.272-2.267,11.618,11.618,0,0,0-3.287-.113c-.343-.006-.452.231-.528.513a3.615,3.615,0,0,0,.313,2.417c.087.206.378.437.069.664s-.488-.093-.677-.255a3.2,3.2,0,0,1-1.07-2.449c-.006-.152.082-.369-.1-.441s-.278.133-.4.226a1.849,1.849,0,0,0-.306,1.79,3.81,3.81,0,0,0,2.2,1.652A9.634,9.634,0,0,0,1515.061,1574.8Z" transform="translate(-1496.561 -1560.081)" fill="#fff"/>
</svg>
