<svg xmlns="http://www.w3.org/2000/svg" width="31.75" height="42.392" viewBox="0 0 31.75 42.392">
  <g id="ring">
    <path id="Контур_134" data-name="Контур 134" d="M163.726,8.806a18.378,18.378,0,0,1,9.67,0l2.695-2.695a1.242,1.242,0,0,0,0-1.756L172.1.364A1.242,1.242,0,0,0,171.221,0H165.9a1.242,1.242,0,0,0-.878.364l-3.991,3.991a1.242,1.242,0,0,0,0,1.756Z" transform="translate(-152.686 0)" fill="#fff"/>
    <path id="Контур_135" data-name="Контур 135" d="M80.142,128.533a15.875,15.875,0,1,0,15.875,15.875A15.893,15.893,0,0,0,80.142,128.533Zm0,26.429A10.554,10.554,0,1,1,90.7,144.408,10.566,10.566,0,0,1,80.142,154.962Z" transform="translate(-64.267 -117.891)" fill="#fff"/>
  </g>
</svg>
