<svg xmlns="http://www.w3.org/2000/svg" width="39.857" height="22.75" viewBox="0 0 39.857 22.75">
  <g id="sandwich" transform="translate(0 -109.881)">
    <g id="Сгруппировать_2606" data-name="Сгруппировать 2606" transform="translate(0 109.881)">
      <g id="Сгруппировать_2605" data-name="Сгруппировать 2605" transform="translate(0 0)">
        <path id="Контур_2440" data-name="Контур 2440" d="M39.12,312.764H31.4l-1.685,1.9a.712.712,0,0,1-1.064,0l-2.9-3.266a7.193,7.193,0,0,1-5.817,2.793,7.193,7.193,0,0,1-5.817-2.793l-2.9,3.266a.712.712,0,0,1-1.064,0l-1.685-1.9H.737a.605.605,0,0,0-.463.255,1.265,1.265,0,0,0-.273.812c0,2.551,1.63,4.626,3.634,4.626H36.223a3.238,3.238,0,0,0,2.517-1.3,5.22,5.22,0,0,0,1.117-3.325C39.857,313.263,39.513,312.764,39.12,312.764ZM3.5,316.593h0a.832.832,0,0,1-.149.235.7.7,0,0,1-.776.149.819.819,0,0,1-.235-.149.827.827,0,0,1-.15-.235.6.6,0,0,1-.057-.27.71.71,0,0,1,.057-.27.732.732,0,0,1,.15-.235.822.822,0,0,1,.235-.149.651.651,0,0,1,.541,0,.737.737,0,0,1,.235.149.823.823,0,0,1,.149.235A.67.67,0,0,1,3.5,316.593Zm2.135-1.423a.832.832,0,0,1-.149.235.822.822,0,0,1-.235.149.7.7,0,0,1-.776-.149.828.828,0,0,1-.15-.235.6.6,0,0,1-.057-.27.71.71,0,0,1,.057-.27.732.732,0,0,1,.15-.235.821.821,0,0,1,.235-.149.651.651,0,0,1,.541,0,.822.822,0,0,1,.235.149.738.738,0,0,1,.149.235.712.712,0,0,1,.057.27A.6.6,0,0,1,5.637,315.169Zm2.135,1.423h0a.832.832,0,0,1-.149.235.7.7,0,0,1-.776.149.644.644,0,0,1-.384-.384.6.6,0,0,1-.057-.27.71.71,0,0,1,.057-.27.733.733,0,0,1,.15-.235.82.82,0,0,1,.235-.149.651.651,0,0,1,.541,0,.736.736,0,0,1,.235.149.823.823,0,0,1,.149.235A.67.67,0,0,1,7.773,316.593Zm5.694,0a.832.832,0,0,1-.149.235.822.822,0,0,1-.235.149.671.671,0,0,1-.541,0,.644.644,0,0,1-.384-.384.674.674,0,0,1,0-.541.731.731,0,0,1,.15-.235.7.7,0,0,1,1.16.235.67.67,0,0,1,0,.541Zm2.135-1.423a.832.832,0,0,1-.149.235.822.822,0,0,1-.235.149.7.7,0,0,1-.776-.149,1.042,1.042,0,0,1-.157-.235.7.7,0,0,1-.05-.27.6.6,0,0,1,.057-.27.644.644,0,0,1,.384-.384.651.651,0,0,1,.541,0,.821.821,0,0,1,.235.149.738.738,0,0,1,.149.235.711.711,0,0,1,.057.27A.6.6,0,0,1,15.6,315.169Zm2.135,1.423a.832.832,0,0,1-.149.235.822.822,0,0,1-.235.149.671.671,0,0,1-.541,0,.644.644,0,0,1-.384-.384.674.674,0,0,1,0-.541.731.731,0,0,1,.15-.235.7.7,0,0,1,1.16.235.67.67,0,0,1,0,.541Zm5.7,0a1.052,1.052,0,0,1-.156.235.822.822,0,0,1-.235.149.7.7,0,0,1-.776-.149,1.041,1.041,0,0,1-.157-.235.7.7,0,0,1-.05-.27.6.6,0,0,1,.057-.27.732.732,0,0,1,.15-.235.822.822,0,0,1,.235-.149.651.651,0,0,1,.541,0,.737.737,0,0,1,.235.149.823.823,0,0,1,.149.235.6.6,0,0,1,.057.27A.7.7,0,0,1,23.437,316.593Zm2.128-1.423a.832.832,0,0,1-.149.235.822.822,0,0,1-.235.149.7.7,0,0,1-.925-.925.644.644,0,0,1,.384-.384.651.651,0,0,1,.541,0,.822.822,0,0,1,.235.149.738.738,0,0,1,.149.235.711.711,0,0,1,.057.27A.6.6,0,0,1,25.566,315.169Zm2.142,1.423a1.052,1.052,0,0,1-.156.235.822.822,0,0,1-.235.149.7.7,0,0,1-.776-.149,1.041,1.041,0,0,1-.157-.235.7.7,0,0,1-.05-.27.6.6,0,0,1,.057-.27.732.732,0,0,1,.15-.235.822.822,0,0,1,.235-.149.651.651,0,0,1,.541,0,.737.737,0,0,1,.235.149.823.823,0,0,1,.149.235.6.6,0,0,1,.057.27A.7.7,0,0,1,27.708,316.593Zm5.687,0h0a.834.834,0,0,1-.15.235.822.822,0,0,1-.235.149.671.671,0,0,1-.541,0,.644.644,0,0,1-.384-.384.674.674,0,0,1,0-.541.731.731,0,0,1,.15-.235.718.718,0,0,1,.647-.193.464.464,0,0,1,.128.043.526.526,0,0,1,.128.064,1.2,1.2,0,0,1,.107.085.737.737,0,0,1,.149.235A.669.669,0,0,1,33.395,316.593Zm2.135-1.423a.832.832,0,0,1-.149.235.822.822,0,0,1-.235.149.7.7,0,0,1-.925-.925.644.644,0,0,1,.384-.384.651.651,0,0,1,.541,0,.822.822,0,0,1,.235.149.738.738,0,0,1,.149.235.711.711,0,0,1,.057.27A.6.6,0,0,1,35.53,315.169Zm2.135,1.423h0a.834.834,0,0,1-.15.235.822.822,0,0,1-.235.149.671.671,0,0,1-.541,0,.644.644,0,0,1-.384-.384.674.674,0,0,1,0-.541.731.731,0,0,1,.15-.235,1.1,1.1,0,0,1,.107-.085.529.529,0,0,1,.128-.064.467.467,0,0,1,.128-.043.655.655,0,0,1,.285,0,.464.464,0,0,1,.128.043.526.526,0,0,1,.128.064,1.2,1.2,0,0,1,.107.085.737.737,0,0,1,.149.235A.669.669,0,0,1,37.665,316.593Z" transform="translate(0 -295.707)" fill="#eaeaea"/>
        <path id="Контур_2441" data-name="Контур 2441" d="M203.554,275.93h0l-1.6-1.8h-6.478l-1.6,1.8a5.963,5.963,0,0,0,9.672,0Z" transform="translate(-178.789 -261.348)" fill="#eaeaea"/>
        <path id="Контур_2442" data-name="Контур 2442" d="M18.289,274.134v2.847h5.77l-2.531-2.847Z" transform="translate(-16.865 -261.348)" fill="#eaeaea"/>
        <path id="Контур_2443" data-name="Контур 2443" d="M92.582,274.134H84.365l4.109,4.623Z" transform="translate(-77.798 -261.348)" fill="#eaeaea"/>
        <path id="Контур_2444" data-name="Контур 2444" d="M326.188,278.757l4.109-4.623h-8.217Z" transform="translate(-297.007 -261.348)" fill="#eaeaea"/>
        <path id="Контур_2445" data-name="Контур 2445" d="M27.574,110.623a4.915,4.915,0,0,1,.9,2.791.712.712,0,0,1-1.423,0,3.684,3.684,0,0,0-2.15-3.244c-1.173-.152-2.389-.249-3.634-.29a4.992,4.992,0,0,1,1.514,3.534.712.712,0,1,1-1.423,0,3.669,3.669,0,0,0-3.076-3.521q-1.3.054-2.541.188a5.023,5.023,0,0,1,1.347,3.333.712.712,0,1,1-1.423,0,3.663,3.663,0,0,0-1.834-3.076C5.817,111.638,0,115.42,0,119.874v1.37H39.86v-1.37C39.86,115.711,34.78,112.133,27.574,110.623Z" transform="translate(-0.004 -109.881)" fill="#eaeaea"/>
        <path id="Контур_2446" data-name="Контур 2446" d="M425.367,274.134h-3.239l-2.531,2.847h5.77Z" transform="translate(-386.934 -261.348)" fill="#eaeaea"/>
      </g>
    </g>
  </g>
</svg>
