<svg xmlns="http://www.w3.org/2000/svg" width="34.631" height="35" viewBox="0 0 34.631 35">
  <g id="sandwich_1_" data-name="sandwich (1)" transform="translate(-0.001 0)">
    <g id="Сгруппировать_2614" data-name="Сгруппировать 2614" transform="translate(4.095 0.238)">
      <path id="Контур_2462" data-name="Контур 2462" d="M74.447,7.857a8.025,8.025,0,0,1,2.858-.524c.165,0,.329.006.492.015a4.431,4.431,0,0,0-.851-1.214,4.337,4.337,0,0,0-3.964-1.222,3.1,3.1,0,0,0-3.112-.677l3.849,3.9Z" transform="translate(-69.871 -4.074)" fill="#eaeaea"/>
      <path id="Контур_2463" data-name="Контур 2463" d="M163.333,93.839a6.056,6.056,0,0,1,3.359-.215,6.388,6.388,0,0,0-1.357-2.043,6.292,6.292,0,0,0-6.717-1.468l3.952,4Z" transform="translate(-152.067 -83.677)" fill="#eaeaea"/>
      <g id="Сгруппировать_2613" data-name="Сгруппировать 2613" transform="translate(25.249 22.383)">
        <path id="Контур_2464" data-name="Контур 2464" d="M425.938,315.932a3.71,3.71,0,0,0-3.567-.989,6.124,6.124,0,0,1-.345,1.9l-.284.807,4.057,4.107a2.46,2.46,0,0,0-.063-.291q.1-.091.2-.19A3.819,3.819,0,0,0,425.938,315.932Z" transform="translate(-421.742 -314.826)" fill="#eaeaea"/>
      </g>
      <path id="Контур_2465" data-name="Контур 2465" d="M367.289,258.349q-.113-.114-.232-.218a6.128,6.128,0,0,1-.346,2.061l-.284.807,1.867,1.891A4.392,4.392,0,0,0,367.289,258.349Z" transform="translate(-345.668 -240.196)" fill="#eaeaea"/>
      <path id="Контур_2466" data-name="Контур 2466" d="M254.774,189.972a4.392,4.392,0,0,0-1.005-4.541,4.261,4.261,0,0,0-4.485-1.018Z" transform="translate(-236.357 -171.33)" fill="#eaeaea"/>
    </g>
    <path id="Контур_2467" data-name="Контур 2467" d="M34.335,33.249,1.733.3A1.007,1.007,0,0,0,.627.078,1.026,1.026,0,0,0,0,1.025v30.46A3.51,3.51,0,0,0,1.02,33.97,3.436,3.436,0,0,0,3.478,35H33.617a1.015,1.015,0,0,0,.937-.633,1.034,1.034,0,0,0-.22-1.118ZM4.268,11.836l.81-.818a1.007,1.007,0,0,1,1.435,0,1.033,1.033,0,0,1,0,1.45l-.81.818a1.007,1.007,0,0,1-1.435,0,1.033,1.033,0,0,1,0-1.45Zm-.144,5.945,3.823-3.863a1.007,1.007,0,0,1,1.435,0,1.033,1.033,0,0,1,0,1.45L5.559,19.231a1.007,1.007,0,0,1-1.435,0,1.033,1.033,0,0,1,0-1.45Zm.2,5.6,6.5-6.566a1.007,1.007,0,0,1,1.435,0,1.033,1.033,0,0,1,0,1.45l-6.5,6.566a1.007,1.007,0,0,1-1.435,0A1.033,1.033,0,0,1,4.32,23.385Zm.048,7.2a1.033,1.033,0,0,1,0-1.45l9.319-9.418a1.007,1.007,0,0,1,1.435,0,1.033,1.033,0,0,1,0,1.45L5.8,30.587a1.007,1.007,0,0,1-1.435,0Zm5.692.048a1.033,1.033,0,0,1,0-1.45l6.5-6.566a1.007,1.007,0,0,1,1.435,0,1.033,1.033,0,0,1,0,1.45l-6.5,6.566A1.007,1.007,0,0,1,10.059,30.635Zm10.8-3.666-3.823,3.863a1.007,1.007,0,0,1-1.435,0,1.033,1.033,0,0,1,0-1.45l3.823-3.863a1.007,1.007,0,0,1,1.435,0A1.033,1.033,0,0,1,20.861,26.969Zm2.87,2.9-.81.818a1.007,1.007,0,0,1-1.435,0,1.033,1.033,0,0,1,0-1.45l.81-.818a1.007,1.007,0,0,1,1.435,0A1.033,1.033,0,0,1,23.73,29.869Z" transform="translate(0 0)" fill="#eaeaea"/>
  </g>
</svg>
