<svg xmlns="http://www.w3.org/2000/svg" width="47.127" height="26.93" viewBox="0 0 47.127 26.93">
  <g id="sport-shoe">
    <path id="Контур_138" data-name="Контур 138" d="M49.52,282.5l-.243-.357-.2.382c-1.312,2.493-5.674,3.983-9.134,3.983-4.405,0-26.153-.662-28.985-.823-.56-.033-1.144-.049-1.84-.049-.431,0-.832.005-1.22.01-.337,0-.654.009-.952.009a7.035,7.035,0,0,1-2.255-.431,3.191,3.191,0,0,0-.885-.211.592.592,0,0,0-.44.167.945.945,0,0,0-.2.709c.043,2.931,1.6,3.158,3.783,3.158.3,0,.62,0,.959-.009.386-.005.785-.01,1.213-.01.685,0,1.26.015,1.81.048,2.835.161,24.605.824,29.015.824a14.968,14.968,0,0,0,6.618-1.59c2.193-1.145,3.4-2.687,3.4-4.34A2.565,2.565,0,0,0,49.52,282.5Z" transform="translate(-2.834 -262.973)" fill="#fff"/>
    <path id="Контур_139" data-name="Контур 139" d="M3.82,118.616c.3,0,.616,0,.952-.009.383-.005.779-.01,1.2-.01.681,0,1.251.015,1.8.048,2.812.161,24.414.824,28.79.824a14.759,14.759,0,0,0,6.568-1.59c2.176-1.146,3.375-2.687,3.375-4.34,0-2.4-2.735-3.172-5.631-3.992a23.2,23.2,0,0,1-4.591-1.649c-.621-.334-1.569-.818-2.724-1.4,0-.033.005-.067.005-.1a1.788,1.788,0,0,0-2.951-1.36l-1.283-.63a1.785,1.785,0,0,0-2.828-1.379l-1.173-.57a1.788,1.788,0,0,0-3.045-1.474c-3.816-1.842-6.944-3.339-7.224-3.473a.98.98,0,0,0-.552-.178,1,1,0,0,0-.793.4l-2.108,2.826a1.488,1.488,0,0,0-.33,1.146c.126.749.9,1.28,1.52,1.706a3.015,3.015,0,0,1,.674.545l0,0a4.887,4.887,0,0,1-3.076.836,8.5,8.5,0,0,1-2.871-.521,3.883,3.883,0,0,1-2-2.481c-.318-.769-.593-1.433-1.2-1.433-.463,0-1,.415-1.794,1.392-2.7,3.436-2.577,8.686-2.485,12.519.01.411.019.805.025,1.179C.107,118.389,1.648,118.616,3.82,118.616Zm22.657-10.651a.85.85,0,0,1,.775-.215c.373.112,1.255.349,1.794.483.461.115.045.477.045.477l-7,6.412a1.153,1.153,0,0,1-.723.264c-.7,0-2.051-.005-2.6-.005-.458,0-.078-.387-.078-.387Zm-5.334-1.513a1.29,1.29,0,0,1,1.189-.328c.329.1,1.1.3,1.593.433.421.118-.025.552-.026.552l-8.671,7.861a.969.969,0,0,1-.882.367c-.763,0-2.218.035-2.813.035-.337,0-.037-.362-.038-.362Z" transform="translate(-0.002 -97.338)" fill="#fff"/>
  </g>
</svg>
