<svg xmlns="http://www.w3.org/2000/svg" width="13.078" height="35.799" viewBox="0 0 13.078 35.799">
  <g id="soda-bottle" transform="translate(-138.976)">
    <g id="Сгруппировать_2625" data-name="Сгруппировать 2625" transform="translate(138.976)">
      <g id="Сгруппировать_2624" data-name="Сгруппировать 2624">
        <path id="Контур_2515" data-name="Контур 2515" d="M144.235,11.466a8.871,8.871,0,0,1,5.8,3.273l.01.012c.152.178,1.156,1.231,1.563,1.605l.046.041a9.393,9.393,0,0,0,3.2,1.787l.537.177V11.1c-.005-1.806-1.118-3.044-2.1-4.136-.8-.886-1.484-1.651-1.488-2.547a.722.722,0,0,0-.013-1.217V.87a.871.871,0,0,0-.87-.87h-3.47a.871.871,0,0,0-.87.87V3.2a.722.722,0,0,0-.013,1.217c0,.9-.692,1.661-1.488,2.547a6.3,6.3,0,0,0-2.1,4.056l-.009.427.427-.01A7.125,7.125,0,0,1,144.235,11.466Z" transform="translate(-142.643)" fill="#eaeaea"/>
        <path id="Контур_2516" data-name="Контур 2516" d="M151.444,172.146c-.121-.294-.259-.628-.4-1.005a7.969,7.969,0,0,1,.11-6.177,8.252,8.252,0,0,0,.561-2.266l.023-.431h-.445c-.288,0-.574-.013-.849-.04a8.85,8.85,0,0,1-5.192-2.309c-.307-.294-.6-.627-.913-.979a14.985,14.985,0,0,0-1.5-1.539,9.312,9.312,0,0,0-2.985-1.722l-.546-.194v6.993a7.54,7.54,0,0,0,.568,2.486,7.968,7.968,0,0,1,.111,6.177c-.141.378-.279.711-.4,1.006a5.536,5.536,0,0,0-.61,2.433h0a5.381,5.381,0,0,0,1.252,3.118,2.875,2.875,0,0,0,2.132.876,1.735,1.735,0,0,0,1.543-.857,2.221,2.221,0,0,0,3.22,0,1.736,1.736,0,0,0,1.543.857,2.875,2.875,0,0,0,2.132-.876,5.381,5.381,0,0,0,1.252-3.118h0A5.528,5.528,0,0,0,151.444,172.146Z" transform="translate(-138.976 -142.775)" fill="#eaeaea"/>
      </g>
    </g>
  </g>
</svg>
