<svg xmlns="http://www.w3.org/2000/svg" width="35.691" height="35" viewBox="0 0 35.691 35">
  <g id="taco" transform="translate(0 -5.923)">
    <g id="Сгруппировать_2616" data-name="Сгруппировать 2616" transform="translate(0 5.923)">
      <g id="Сгруппировать_2615" data-name="Сгруппировать 2615">
        <path id="Контур_2468" data-name="Контур 2468" d="M355.457,73.44c.124.277.241.555.339.833a2.323,2.323,0,0,0,.339-.269,2.248,2.248,0,0,0,0-3.212,2.4,2.4,0,0,0-2.5-.511l1.056,1.728A12.957,12.957,0,0,1,355.457,73.44Z" transform="translate(-328.8 -65.621)" fill="#eaeaea"/>
        <path id="Контур_2469" data-name="Контур 2469" d="M12.269,350.507h-.007a.644.644,0,0,1-.212-.036A14.528,14.528,0,0,1,9.3,349.161l-4.674-2.7a40.663,40.663,0,0,0,5.166,5.8,37.455,37.455,0,0,0,6.273,5.271l-2.564-4.26A12.59,12.59,0,0,1,12.269,350.507Z" transform="translate(-4.298 -322.543)" fill="#eaeaea"/>
        <path id="Контур_2470" data-name="Контур 2470" d="M7.6,50.648a14.968,14.968,0,0,1,4.493-13.3,16.257,16.257,0,0,1,8.7-4.424,14.416,14.416,0,0,1,4.887.058c-.065-.163-.127-.327-.2-.488a11.691,11.691,0,0,0-.687-1.288l-3.473-5.684L0,46.4l5.654,3.266A13.619,13.619,0,0,0,7.6,50.648Z" transform="translate(0 -24.15)" fill="#eaeaea"/>
        <path id="Контур_2471" data-name="Контур 2471" d="M330.3,16.946a1.807,1.807,0,0,0-1.458-.486A.642.642,0,0,1,328.4,15.3a.991.991,0,0,0,.111-.1,2.683,2.683,0,0,0,.822-1.9,2.262,2.262,0,0,0-.676-1.632,2.413,2.413,0,0,0-1.86-.663.642.642,0,0,1-.678-.659,2.533,2.533,0,0,0-.759-1.9,2.851,2.851,0,0,0-3.218-.452.642.642,0,0,1-.894-.4,2.23,2.23,0,0,0-.593-.994A2.579,2.579,0,0,0,317.4,6.42l1.863,3.048a3.659,3.659,0,0,1,4.077.71,3.523,3.523,0,0,1,1.028,2.053,3.294,3.294,0,0,1,2.02.93,3.191,3.191,0,0,1,.4,4.117l3.594,2.071a1.949,1.949,0,0,0,.42-1.189A1.681,1.681,0,0,0,330.3,16.946Z" transform="translate(-295.11 -5.923)" fill="#eaeaea"/>
        <path id="Контур_2472" data-name="Контур 2472" d="M140.736,146.836a13.036,13.036,0,0,0-5.1-.17,14.962,14.962,0,0,0-8.007,4.074,13.562,13.562,0,0,0-3.954,12.936,11.356,11.356,0,0,0,1.26,3.014l2.967,4.929,19.46-19.044h0l1.617-1.583-5.015-2.89A11.775,11.775,0,0,0,140.736,146.836Zm-9.811,19.955a.642.642,0,0,1-.908.009l-.938-.918a.642.642,0,1,1,.9-.917l.938.918a.642.642,0,0,1,.009.908Zm.469-4.13a.642.642,0,0,1-.908.01l-.938-.918a.642.642,0,0,1,.9-.918l.938.918a.642.642,0,0,1,.01.908Zm4.22-.459a.642.642,0,0,1-.908.01l-.938-.918a.642.642,0,0,1,.9-.918l.938.918a.642.642,0,0,1,.01.908Zm3.751-3.671a.642.642,0,0,1-.908.01l-.938-.918a.642.642,0,0,1,.9-.918l.938.918a.642.642,0,0,1,.01.908Zm.469-4.13a.642.642,0,0,1-.908.01l-.938-.918a.642.642,0,0,1,.9-.918l.938.918a.642.642,0,0,1,.01.908Zm4.4-.915a.642.642,0,0,1-.183.456h0a.642.642,0,0,1-.908.01l-.938-.918a.642.642,0,0,1,.9-.918l.938.918A.642.642,0,0,1,144.238,153.486Z" transform="translate(-114.64 -136.619)" fill="#eaeaea"/>
        <path id="Контур_2473" data-name="Контур 2473" d="M401.713,117.125a1.891,1.891,0,0,0-.169-2.55,2.016,2.016,0,0,0-1.184-.563,3.515,3.515,0,0,1-.965,1.711c-.062.06-.13.11-.2.166a12.833,12.833,0,0,1,1.933.9Z" transform="translate(-371.162 -106.42)" fill="#eaeaea"/>
      </g>
    </g>
  </g>
</svg>
