<svg xmlns="http://www.w3.org/2000/svg" width="24.868" height="35.001" viewBox="0 0 24.868 35.001">
  <path id="Объединение_29" data-name="Объединение 29" d="M10583.938,7992v-3.319h13.275V7992Zm13.891-5.531h-15.5l-.367-3.319h18.449l-.37,3.319Zm1.432-4.255H10581.6l-1.6-15.485h9.4v4.423h-2.065v6.638h6.188v-2.412h-1.288v-2.211h1.288v-2.015h-2.062v-4.423h9.4l-.231,2.212h1.142a3.214,3.214,0,0,1,3.093,3.319v4.423a5.359,5.359,0,0,1-5.155,5.531Zm.229-2.212h.224a3.214,3.214,0,0,0,3.093-3.319v-4.423a1.073,1.073,0,0,0-1.03-1.107h-1.37Zm-4.5-15.117,1.184-2.592a.358.358,0,0,0-.188-.5,2.576,2.576,0,0,1-1.485-3.2l.019-.053.689-1.541,2.021.907-.639,1.421a.362.362,0,0,0,.218.415,2.573,2.573,0,0,1,1.354,3.519l-1.16,2.542Zm-6.105,0,1.184-2.592a.357.357,0,0,0,.014-.29.353.353,0,0,0-.2-.208,2.576,2.576,0,0,1-1.485-3.2l.019-.053.689-1.541,2.021.907-.642,1.421a.367.367,0,0,0,.221.415,2.573,2.573,0,0,1,1.354,3.519l-1.16,2.542Zm-5.919,0,1.184-2.592a.357.357,0,0,0,.014-.29.353.353,0,0,0-.2-.208,2.573,2.573,0,0,1-1.485-3.2l.016-.053.692-1.541,2.018.907-.639,1.421a.363.363,0,0,0,.221.415,2.569,2.569,0,0,1,1.354,3.519l-1.16,2.542Z" transform="translate(-10580 -7957)" fill="#eaeaea"/>
</svg>
