<svg xmlns="http://www.w3.org/2000/svg" width="38.121" height="40.944" viewBox="0 0 38.121 40.944">
  <g id="Сгруппировать_569" data-name="Сгруппировать 569">
    <path id="Контур_140" data-name="Контур 140" d="M7,49.96v.734a.707.707,0,0,0,.706.706H9.824V49.988H7.292C7.193,49.988,7.1,49.968,7,49.96Z" transform="translate(-5.588 -16.809)" fill="#fff"/>
    <path id="Контур_141" data-name="Контур 141" d="M22.114,4.281l-.833,3.331h3.331Z" transform="translate(-9.788 -3.377)" fill="#fff"/>
    <path id="Контур_142" data-name="Контур 142" d="M29,46.478h4.236V13.736L29,11.618Zm1.412-31.061h1.412v1.412H30.412Zm0,2.824h1.412v1.412H30.412Zm0,2.824h1.412v1.412H30.412Zm0,2.824h1.412V25.3H30.412Zm0,2.824h1.412v1.412H30.412Zm0,2.824h1.412v1.412H30.412Zm0,2.824h1.412v1.412H30.412Zm0,2.824h1.412V36.6H30.412Zm0,2.824h1.412v1.412H30.412Zm0,2.824h1.412v1.412H30.412Zm0,2.824h1.412v1.412H30.412Z" transform="translate(-12.057 -5.534)" fill="#fff"/>
    <path id="Контур_143" data-name="Контур 143" d="M13.493,46.4,13,46.281v6.276a4.113,4.113,0,0,0,4.115,4.114h.121V51.2A4.934,4.934,0,0,0,13.493,46.4Z" transform="translate(-7.352 -15.727)" fill="#fff"/>
    <path id="Контур_144" data-name="Контур 144" d="M13,30h9.883v1.412H13Z" transform="translate(-7.352 -10.94)" fill="#fff"/>
    <path id="Контур_145" data-name="Контур 145" d="M13,41.214l.835.209a6.344,6.344,0,0,1,4.812,6.164V53.06h4.236V34H13Z" transform="translate(-7.352 -12.116)" fill="#fff"/>
    <path id="Контур_146" data-name="Контур 146" d="M45,51.2v5.474h.121a4.114,4.114,0,0,0,4.115-4.115V46.28l-.493.123A4.936,4.936,0,0,0,45,51.2Z" transform="translate(-16.762 -15.727)" fill="#fff"/>
    <path id="Контур_147" data-name="Контур 147" d="M37,30h9.883v1.412H37Z" transform="translate(-14.41 -10.94)" fill="#fff"/>
    <path id="Контур_148" data-name="Контур 148" d="M48.791,13.489a9.3,9.3,0,0,0-3.343-1.59L41.855,11H37V23h9.883v-.534a7.884,7.884,0,0,1,2.325-5.612l1,1A6.482,6.482,0,0,0,48.3,22.467V37.12h2.532a1.7,1.7,0,0,0,1.7-1.7V20.97a9.4,9.4,0,0,0-3.74-7.481Zm-3.319,6.688H41.236V18.765h4.236Z" transform="translate(-14.41 -5.353)" fill="#fff"/>
    <path id="Контур_149" data-name="Контур 149" d="M53,49.988V51.4h2.118a.707.707,0,0,0,.706-.706V49.96c-.1.008-.193.028-.292.028Z" transform="translate(-19.115 -16.809)" fill="#fff"/>
    <path id="Контур_150" data-name="Контур 150" d="M12.083,11.9a9.3,9.3,0,0,0-3.343,1.59A9.4,9.4,0,0,0,5,20.97V35.415a1.7,1.7,0,0,0,1.7,1.7H9.236V22.467a6.482,6.482,0,0,0-1.911-4.614l1-1a7.884,7.884,0,0,1,2.325,5.612V23h9.883V11H15.676Z" transform="translate(-5 -5.353)" fill="#fff"/>
    <path id="Контур_151" data-name="Контур 151" d="M41.334,7.629,40.5,4.281,38,7.617Z" transform="translate(-14.702 -3.377)" fill="#fff"/>
    <path id="Контур_152" data-name="Контур 152" d="M37,53.06h4.236V47.586a6.344,6.344,0,0,1,4.812-6.164l.835-.209V34H37Z" transform="translate(-14.41 -12.116)" fill="#fff"/>
    <path id="Контур_153" data-name="Контур 153" d="M29.648,3H24l3.289,4.385,4.476,2.239V7.706L35.3,3Z" transform="translate(-10.587 -3)" fill="#fff"/>
  </g>
</svg>
