<svg xmlns="http://www.w3.org/2000/svg" width="13.31" height="35.091" viewBox="0 0 13.31 35.091">
  <g id="vodka" transform="translate(-12 -3)">
    <path id="Контур_2517" data-name="Контур 2517" d="M20,3h3.63V5.42H20Z" transform="translate(-3.16)" fill="#eaeaea"/>
    <path id="Контур_2518" data-name="Контур 2518" d="M23.607,13.235V9h-3.63v4.235c0,.2-.018.4-.036.605h3.7C23.624,13.639,23.607,13.438,23.607,13.235Z" transform="translate(-3.137 -2.37)" fill="#eaeaea"/>
    <path id="Контур_2519" data-name="Контур 2519" d="M23.132,22.509A6.675,6.675,0,0,1,20.736,19H16.575a6.677,6.677,0,0,1-2.4,3.509A5.471,5.471,0,0,0,12,26.865V42.6a1.817,1.817,0,0,0,1.815,1.815H23.5A1.817,1.817,0,0,0,25.31,42.6V26.865A5.471,5.471,0,0,0,23.132,22.509ZM24.1,40.176a.6.6,0,0,1-.605.605h-9.68a.6.6,0,0,1-.605-.605v-12.1a.6.6,0,0,1,.605-.605H23.5a.6.6,0,0,1,.605.605Z" transform="translate(0 -6.32)" fill="#eaeaea"/>
    <path id="Контур_2520" data-name="Контур 2520" d="M16,35h8.47V45.89H16Z" transform="translate(-1.58 -12.639)" fill="#eaeaea"/>
  </g>
</svg>
