<svg xmlns="http://www.w3.org/2000/svg" width="42.54" height="42.523" viewBox="0 0 42.54 42.523">
  <g id="wristwatch">
    <g id="Сгруппировать_114" data-name="Сгруппировать 114" transform="translate(22.747)">
      <g id="Сгруппировать_113" data-name="Сгруппировать 113">
        <path id="Контур_120" data-name="Контур 120" d="M292.34,4.853l-3.525-3.525a3.463,3.463,0,0,0-5.043-.245l-.962.962a3.69,3.69,0,0,0-4-.188c-1.731,1.032-3.409,2.176-5.044,3.371A16.154,16.154,0,0,1,288.44,19.9c1.195-1.635,2.339-3.314,3.371-5.044a3.69,3.69,0,0,0-.188-4l.962-.962A3.463,3.463,0,0,0,292.34,4.853Z" transform="translate(-273.77 -0.104)" fill="#fff"/>
      </g>
    </g>
    <g id="Сгруппировать_116" data-name="Сгруппировать 116" transform="translate(7.585 7.545)">
      <g id="Сгруппировать_115" data-name="Сгруппировать 115">
        <path id="Контур_121" data-name="Контур 121" d="M114.7,94.929a13.711,13.711,0,1,0,0,19.39A13.727,13.727,0,0,0,114.7,94.929Zm-3.526,5.288-4.407,4.407,2.644,2.644a1.246,1.246,0,0,1-1.763,1.763l-3.526-3.525a1.246,1.246,0,0,1,0-1.763l5.288-5.288a1.246,1.246,0,0,1,1.763,1.763Z" transform="translate(-91.295 -90.92)" fill="#fff"/>
      </g>
    </g>
    <g id="Сгруппировать_118" data-name="Сгруппировать 118" transform="translate(0 22.706)">
      <g id="Сгруппировать_117" data-name="Сгруппировать 117">
        <path id="Контур_122" data-name="Контур 122" d="M9.832,283.39a16.126,16.126,0,0,1-4.669-10c-1.192,1.63-2.336,3.309-3.371,5.045a3.69,3.69,0,0,0,.188,4l-.962.962a3.636,3.636,0,0,0,.157,5.2L4.7,292.111a3.743,3.743,0,0,0,5.288,0l.8-.869a3.691,3.691,0,0,0,4,.187c1.736-1.036,3.414-2.179,5.044-3.37A16.127,16.127,0,0,1,9.832,283.39Z" transform="translate(0 -273.388)" fill="#fff"/>
      </g>
    </g>
  </g>
</svg>
