<svg xmlns="http://www.w3.org/2000/svg" width="19.746" height="35.091" viewBox="0 0 19.746 35.091">
  <g id="whiskey" transform="translate(-111.949)">
    <path id="Контур_2531" data-name="Контур 2531" d="M128.79,367.709h-13.6v-4.7h-3.058v10.211h19.721V363.008H128.79Z" transform="translate(-0.166 -338.129)" fill="#eaeaea"/>
    <path id="Контур_2532" data-name="Контур 2532" d="M130.692,150.446l-5.661-1.271v-2.856h-6.419v2.856l-5.661,1.271a1.278,1.278,0,0,0-1,1.321v.023c0,.074.009.158.009.252v7.072h3.058v-4.7h13.6v4.7h3.058v-7.072c0-.094,0-.178.009-.253v-.022A1.278,1.278,0,0,0,130.692,150.446Z" transform="translate(0 -136.291)" fill="#eaeaea"/>
    <path id="Контур_2533" data-name="Контур 2533" d="M209.171,79.114h6.419v2.55h-6.419Z" transform="translate(-90.559 -73.692)" fill="#eaeaea"/>
    <path id="Контур_2534" data-name="Контур 2534" d="M186.333,1.284A1.284,1.284,0,0,0,185.052,0h-8.5a1.284,1.284,0,0,0-1.282,1.284V3.366h11.066V1.284Z" transform="translate(-58.979)" fill="#eaeaea"/>
    <path id="Контур_2535" data-name="Контур 2535" d="M186.751,294.416h9.492v7.346h-9.492Z" transform="translate(-69.676 -274.238)" fill="#eaeaea"/>
  </g>
</svg>
