<svg xmlns="http://www.w3.org/2000/svg" width="16.465" height="35.705" viewBox="0 0 16.465 35.705">
  <g id="Сгруппировать_2627" data-name="Сгруппировать 2627" transform="translate(-6702.191 -755.3)">
    <path id="Контур_2536" data-name="Контур 2536" d="M6710.988,790.5h-1.394c-.02-.023-.047-.013-.071-.014l-.554-.017a29.217,29.217,0,0,1-3.322-.307,5.131,5.131,0,0,1-1.346-.368,1.359,1.359,0,0,1-.829-1.007,3.815,3.815,0,0,1-.062-.558c-.047-.84-.1-1.68-.146-2.52-.043-.745-.083-1.491-.128-2.236-.043-.695-.093-1.389-.141-2.083-.045-.664-.094-1.327-.141-1.991-.053-.733-.09-1.468-.126-2.2-.027-.536-.021-1.073-.036-1.61a3.361,3.361,0,0,1,.946-2.478,6.112,6.112,0,0,1,1.458-1.092,3.671,3.671,0,0,1,1.458-.489,1,1,0,0,0,.922-.957c.074-.984.123-1.97.183-2.955a9.219,9.219,0,0,1,.5-2.524,10.772,10.772,0,0,0,.517-1.9,8.45,8.45,0,0,0,.1-1.613c-.015-.4-.074-.8-.125-1.2a15.834,15.834,0,0,1-.1-2c0-.778.01-1.555.011-2.333a.23.23,0,0,1,.156-.254h.99c.026.025.059.013.087.013l2.694.006c.034,0,.067,0,.1.006a.152.152,0,0,1,.146.138,1.752,1.752,0,0,1,.013.268c.024.651.062,1.3.053,1.953a7.176,7.176,0,0,1-.092,1.1,11.648,11.648,0,0,0-.122,2.466c.027.617.095,1.232.161,1.846a9.738,9.738,0,0,0,.362,1.9,8.449,8.449,0,0,1,.326,1.428,16.018,16.018,0,0,1,.113,1.941c.006.649.033,1.3.019,1.946a.5.5,0,0,0,.261.475,2.519,2.519,0,0,0,.929.345,3.808,3.808,0,0,1,3.346,3.4c.021.142.034.286.051.429v1.259a1.612,1.612,0,0,0-.019.339c-.044.88-.117,1.757-.2,2.634s-.149,1.761-.225,2.641c-.092,1.047-.189,2.094-.278,3.141-.1,1.128-.181,2.257-.242,3.388a.936.936,0,0,1-.434.806,2.636,2.636,0,0,1-.647.294,11.532,11.532,0,0,1-1.3.289c-.415.069-.833.09-1.25.121-.717.053-1.435.086-2.153.111A2.3,2.3,0,0,0,6710.988,790.5Z" fill="#eaeaea" stroke="rgba(0,0,0,0)" stroke-width="1"/>
  </g>
</svg>
