<svg xmlns="http://www.w3.org/2000/svg" width="47" height="38" viewBox="0 0 47 38">
    <path d="M1.125,14.625h4.5v-4.5A1.128,1.128,0,0,1,6.75,9H9a1.128,1.128,0,0,1,1.125,1.125v4.5h4.5A1.128,1.128,0,0,1,15.75,15.75V18a1.128,1.128,0,0,1-1.125,1.125h-4.5v4.5A1.128,1.128,0,0,1,9,24.75H6.75a1.128,1.128,0,0,1-1.125-1.125v-4.5h-4.5A1.128,1.128,0,0,1,0,18V15.75A1.128,1.128,0,0,1,1.125,14.625ZM29.25,18a9,9,0,1,1,9-9A9,9,0,0,1,29.25,18Zm-6.3,2.25h1.174a12.24,12.24,0,0,0,10.252,0H35.55A9.452,9.452,0,0,1,45,29.7v2.925A3.376,3.376,0,0,1,41.625,36H16.875A3.376,3.376,0,0,1,13.5,32.625V29.7A9.452,9.452,0,0,1,22.95,20.25Z"
          transform="translate(1 1)" fill="none" stroke="#343434" stroke-width="2" opacity="0.5"/>
</svg>