<svg xmlns="http://www.w3.org/2000/svg" xmlns:xlink="http://www.w3.org/1999/xlink" width="27" height="27" viewBox="0 0 27 27">
    <defs>
        <linearGradient id="linear-gradient" x1="1" y1="1" x2="0.018" gradientUnits="objectBoundingBox">
            <stop offset="0" stop-color="#8C8992"/>
        </linearGradient>
    </defs>
    <path d="M19.125,4.5H18a.564.564,0,0,0-.562.563v5.063c0,.309.534.563.844.563h.844a.564.564,0,0,0,.563-.562V5.063A.564.564,0,0,0,19.125,4.5Z" transform="translate(-4.5 -4.5)" fill="url(#linear-gradient)"/>
    <path d="M30.509,9.148,26.859,5.5a3.4,3.4,0,0,0-2.4-1H22.493a1.136,1.136,0,0,0-1.125,1.139v5.625a1.128,1.128,0,0,1-1.125,1.125H11.25a1.128,1.128,0,0,1-1.125-1.125V5.639A1.14,1.14,0,0,0,9,4.5H6.75A2.257,2.257,0,0,0,4.5,6.75v22.5A2.257,2.257,0,0,0,6.75,31.5h22.5a2.257,2.257,0,0,0,2.25-2.25V11.531A3.375,3.375,0,0,0,30.509,9.148ZM22.641,28.132a1.2,1.2,0,0,1-1.252,1.125H10.111a1.2,1.2,0,0,1-1.252-1.125v-6.75a1.2,1.2,0,0,1,1.252-1.125H21.389a1.2,1.2,0,0,1,1.252,1.125v6.75Z" transform="translate(-4.5 -4.5)" fill="url(#linear-gradient)"/>
</svg>
