<svg xmlns="http://www.w3.org/2000/svg" xmlns:xlink="http://www.w3.org/1999/xlink" width="905.997" height="84.223" viewBox="0 0 905.997 84.223">
  <defs>
    <linearGradient id="linear-gradient" x1="0.014" x2="0.978" gradientUnits="objectBoundingBox">
      <stop offset="0" stop-color="#7d7a82" stop-opacity="0"/>
      <stop offset="0.502" stop-color="#ffcb91"/>
      <stop offset="1" stop-color="#7d7a82" stop-opacity="0"/>
    </linearGradient>
  </defs>
  <path id="Пересечение_1" data-name="Пересечение 1" d="M-14212.914-16451.684c-19.767-2.771-38.613-5.822-56.206-9.1-21.58-4.018-41.312-8.381-58.653-12.979a380.415,380.415,0,0,1-44.284-14.264q-5.326-2.15-9.935-4.322v-43.326c29.8,7.27,83.355,12.393,163.11,15.625,38.477,1.559,82.354,2.662,134.137,3.365,45.4.615,96.192.92,155.279.92s109.87-.3,155.278-.92c51.788-.7,95.66-1.807,134.137-3.365,80.607-3.268,134.452-8.465,164.056-15.859v43.111q-5,2.4-10.875,4.771a380.828,380.828,0,0,1-44.289,14.264c-17.342,4.6-37.073,8.961-58.653,12.979-17.593,3.275-36.439,6.326-56.206,9.1Z" transform="translate(14381.992 16535.906)" fill="url(#linear-gradient)"/>
</svg>
