<svg xmlns="http://www.w3.org/2000/svg" width="51.091" height="45.3" viewBox="0 0 51.091 45.3">
  <path id="Объединение_5" data-name="Объединение 5" d="M20.836,42.76c0-1.68-.012-3.358.008-5.037,0-.342-.115-.4-.42-.428A42.68,42.68,0,0,1,7.905,34.668a16.666,16.666,0,0,1-5.246-3.1A7.553,7.553,0,0,1,.122,27.287a6.837,6.837,0,0,1,1.624-5.848,13.469,13.469,0,0,1,4.581-3.359,31.718,31.718,0,0,1,7.836-2.5c.217-.044.432-.084.645-.123v6.378a32.875,32.875,0,0,0-3.715,1.059,14.257,14.257,0,0,0-3.824,1.891,4.979,4.979,0,0,0-.832.8.6.6,0,0,0-.062.063.578.578,0,0,0,.07.812,7.493,7.493,0,0,0,1.243,1.076,18.172,18.172,0,0,0,4.837,2.072,39.984,39.984,0,0,0,7.827,1.416,2.811,2.811,0,0,0,.374.017.535.535,0,0,0,.1-.029V24.934l12.12,9.426L20.836,43.778Zm15.611-6.748c-.006-1.929,0-3.858-.006-5.787V30.2a.345.345,0,0,1,.312-.375,19.982,19.982,0,0,0,4.556-1.7,12,12,0,0,0,1.967-1.367c.645-.55.609-.943-.014-1.531a10.227,10.227,0,0,0-3.187-1.884,27.98,27.98,0,0,0-4.876-1.5v-6.4a39.536,39.536,0,0,1,5.4,1.382,19.973,19.973,0,0,1,5.972,3.011,8.334,8.334,0,0,1,3.047,3.956,6.8,6.8,0,0,1-1.6,7.059,13.9,13.9,0,0,1-4.438,3.142A33.223,33.223,0,0,1,36.59,36.3a.926.926,0,0,1-.124.01C36.459,36.213,36.447,36.113,36.447,36.012ZM23.574,24.075a6.977,6.977,0,0,1-6.967-6.966V6.966A6.975,6.975,0,0,1,23.574,0h3.05A6.973,6.973,0,0,1,33.59,6.966V17.11a6.973,6.973,0,0,1-6.966,6.966ZM26.256,2.081v8.2a.06.06,0,0,0,.057.057H31.5a.057.057,0,0,0,.058-.057V6.963a4.945,4.945,0,0,0-4.9-4.939h-.352A.06.06,0,0,0,26.256,2.081Z" transform="translate(0.519 0.5)" stroke="rgba(0,0,0,0)" stroke-miterlimit="10" stroke-width="1"/>
</svg>
