<svg xmlns="http://www.w3.org/2000/svg" xmlns:xlink="http://www.w3.org/1999/xlink" width="2038.008" height="157.934" viewBox="0 0 2038.008 157.934">
  <defs>
    <linearGradient id="linear-gradient" x1="0.996" y1="0.061" x2="0" gradientUnits="objectBoundingBox">
      <stop offset="0" stop-color="gray" stop-opacity="0.302"/>
      <stop offset="0.498" stop-color="#fff"/>
      <stop offset="1" stop-color="gray" stop-opacity="0.302"/>
    </linearGradient>
  </defs>
  <path id="Вычитание_1" data-name="Вычитание 1" d="M-13408-14959.993c-68.595,0-137.689-1.084-205.364-3.221-64.874-2.05-129.229-5.09-191.277-9.037-59.848-3.808-118.084-8.491-173.092-13.919-53.493-5.277-104.233-11.287-150.81-17.862-45.784-6.464-87.647-13.485-124.429-20.872-36.619-7.353-68.229-15.072-93.951-22.944-25.949-7.94-45.927-16.042-59.376-24.081-6.8-4.064-12-8.16-15.442-12.174-3.491-4.068-5.261-8.142-5.261-12.107a14.329,14.329,0,0,1,1.371-6.024,22.19,22.19,0,0,1,4.071-5.828,148.951,148.951,0,0,0,21.052,8.215c8.112,2.566,17.6,5.061,28.2,7.412,20.639,4.577,46.357,8.8,76.442,12.562,28.994,3.62,62.925,6.917,100.851,9.8,36.351,2.763,77.559,5.232,122.479,7.34,42.8,2.008,90.35,3.751,141.323,5.181,48.207,1.353,101.16,2.473,157.387,3.327,101.781,1.546,216.866,2.3,351.831,2.3,144.7,0,267.036-.867,374-2.651,59.42-.991,115.048-2.292,165.337-3.866,53.319-1.671,102.568-3.707,146.379-6.053,46.069-2.466,87.8-5.36,124.033-8.605,37.806-3.385,70.878-7.263,98.3-11.526,14.116-2.2,27.05-4.542,38.442-6.975,11.59-2.475,21.932-5.113,30.737-7.843a151.288,151.288,0,0,0,22.612-8.758c6.155-3.087,10.886-6.355,14.061-9.718,6.287,3.4,11.08,6.936,14.249,10.511a21.115,21.115,0,0,1,3.628,5.515,14.253,14.253,0,0,1,1.221,5.69c0,3.967-1.77,8.04-5.261,12.107-3.445,4.014-8.641,8.109-15.442,12.174-13.449,8.038-33.426,16.141-59.375,24.081-25.724,7.872-57.333,15.592-93.952,22.944-36.781,7.387-78.646,14.408-124.429,20.872-46.58,6.575-97.32,12.585-150.811,17.862-55.008,5.428-113.244,10.111-173.093,13.919-62.048,3.947-126.4,6.987-191.278,9.037C-13270.313-14961.077-13339.409-14959.993-13408-14959.993Z" transform="translate(14427.006 15117.927)" opacity="0.5" fill="url(#linear-gradient)"/>
</svg>
