<svg xmlns="http://www.w3.org/2000/svg" width="25.48" height="25.467" viewBox="0 0 25.48 25.467">
  <path id="Контур_1498" data-name="Контур 1498" d="M-4648.007-1567.472a12.724,12.724,0,0,1-12.723-12.743,12.749,12.749,0,0,1,12.8-12.724,12.741,12.741,0,0,1,12.685,12.716A12.713,12.713,0,0,1-4648.007-1567.472Zm8.96-15.931a9.487,9.487,0,0,0-9.154-6.353,9.461,9.461,0,0,0-8.72,6.353Zm-10.522,12.573c-.047-.483-.08-.937-.139-1.388a10.033,10.033,0,0,0-1.858-4.725,7.523,7.523,0,0,0-4.9-3.169c-.346-.059-.7-.072-1.051-.106A9.486,9.486,0,0,0-4649.569-1570.83Zm3.158.031a9.56,9.56,0,0,0,5.686-3.225,9.383,9.383,0,0,0,2.294-6.173c-.118,0-.2,0-.284,0a6.925,6.925,0,0,0-4.324,1.762,9.752,9.752,0,0,0-3.218,6.09C-4646.334-1571.85-4646.358-1571.348-4646.411-1570.8Zm.013-9.4a1.594,1.594,0,0,0-1.591-1.6,1.6,1.6,0,0,0-1.592,1.578,1.6,1.6,0,0,0,1.58,1.613A1.594,1.594,0,0,0-4646.4-1580.2Z" transform="translate(4660.73 1592.939)" opacity="0.5"/>
</svg>
