<svg xmlns="http://www.w3.org/2000/svg" xmlns:xlink="http://www.w3.org/1999/xlink" width="35.193" height="31.744" viewBox="0 0 35.193 31.744">
  <defs>
    <filter id="Объединение_1" x="9.578" y="0" width="16.036" height="31.744" filterUnits="userSpaceOnUse">
      <feOffset dy="1" input="SourceAlpha"/>
      <feGaussianBlur stdDeviation="1.5" result="blur"/>
      <feFlood flood-opacity="0.749"/>
      <feComposite operator="in" in2="blur"/>
      <feComposite in="SourceGraphic"/>
    </filter>
    <filter id="Объединение_2" x="19.157" y="0" width="16.036" height="31.744" filterUnits="userSpaceOnUse">
      <feOffset dy="1" input="SourceAlpha"/>
      <feGaussianBlur stdDeviation="1.5" result="blur-2"/>
      <feFlood flood-opacity="0.749"/>
      <feComposite operator="in" in2="blur-2"/>
      <feComposite in="SourceGraphic"/>
    </filter>
    <filter id="Объединение_3" x="0" y="0" width="16.036" height="31.744" filterUnits="userSpaceOnUse">
      <feOffset dy="1" input="SourceAlpha"/>
      <feGaussianBlur stdDeviation="1.5" result="blur-3"/>
      <feFlood flood-opacity="0.749"/>
      <feComposite operator="in" in2="blur-3"/>
      <feComposite in="SourceGraphic"/>
    </filter>
  </defs>
  <g id="Сгруппировать_2877" data-name="Сгруппировать 2877" transform="translate(4.5 3.5)">
    <g id="Сгруппировать_755" data-name="Сгруппировать 755" transform="translate(0 0)">
      <g id="Сгруппировать_752" data-name="Сгруппировать 752">
        <g transform="matrix(1, 0, 0, 1, -4.5, -3.5)" filter="url(#Объединение_1)">
          <path id="Объединение_1-2" data-name="Объединение 1" d="M0,22.744V20.28H7.035v2.464Zm.578-3.561V17.63H0V8.214H7.036V17.63H6.458v1.552ZM0,7.117V6.838A8.437,8.437,0,0,1,1.495,2,7.363,7.363,0,0,1,3.195.235L3.519,0l.323.235A7.344,7.344,0,0,1,5.542,2a8.434,8.434,0,0,1,1.494,4.84v.28Z" transform="translate(14.08 3.5)" fill="#eaeaea"/>
        </g>
        <g transform="matrix(1, 0, 0, 1, -4.5, -3.5)" filter="url(#Объединение_2)">
          <path id="Объединение_2-2" data-name="Объединение 2" d="M0,22.744V20.28H7.035v2.464Zm.578-3.561V17.63H0V8.214H7.036V17.63H6.458v1.552ZM0,7.117V6.838A8.437,8.437,0,0,1,1.495,2,7.363,7.363,0,0,1,3.195.235L3.519,0l.323.235A7.344,7.344,0,0,1,5.542,2a8.434,8.434,0,0,1,1.494,4.84v.28Z" transform="translate(23.66 3.5)" fill="#eaeaea"/>
        </g>
        <g transform="matrix(1, 0, 0, 1, -4.5, -3.5)" filter="url(#Объединение_3)">
          <path id="Объединение_3-2" data-name="Объединение 3" d="M0,22.744V20.28H7.035v2.464Zm.578-3.561V17.63H0V8.214H7.036V17.63H6.458v1.552ZM0,7.117V6.838A8.437,8.437,0,0,1,1.495,2,7.363,7.363,0,0,1,3.195.235L3.519,0l.323.235A7.344,7.344,0,0,1,5.542,2a8.434,8.434,0,0,1,1.494,4.84v.28Z" transform="translate(4.5 3.5)" fill="#eaeaea"/>
        </g>
      </g>
    </g>
  </g>
</svg>
