<svg xmlns="http://www.w3.org/2000/svg" width="60.459" height="40.111" viewBox="0 0 60.459 40.111">
  <path id="appistol" d="M-219,2076.2H-233.73a8.306,8.306,0,0,0-2.18-2.355c-.294-1.682.2-3.344-.42-4.782,1.175-3.726,2.274-7.371,3.484-10.979a7.5,7.5,0,0,0,.253-3.964c-.725-.817-1.716-.8-2.4-1.268a4.9,4.9,0,0,1-.418-.848,5.988,5.988,0,0,1-.14-1.087c-.032-.437.077-.91-.215-1.287-1.292-1.667-.545-3.5-.523-5.4a2.256,2.256,0,0,1-.525-2.381c.815-1.571,2.377-1.532,3.861-2.045-.054-1.131.178-2.208,1.053-2.57,2.471-.68,3.806.658,5.148,2.021h2.238c5.788,0,11.578-.01,17.366.009,1.227,0,2.521-.3,3.58.729.208.2.7.144,1.07.144,4.6.008,9.2-.01,13.8.019a2.954,2.954,0,0,0,2.253-.751c2-2.16,4.43-1.388,6.365-1.365,1.107.667.586,1.551.819,1.759l1.751,1.287v8.891c-.513.313-.5,1.1-1.429,1.345l-2.218.118c-.476.527-.14,1.178-.751,1.617h-20.731c-.435-.309-.42-1.017-1-1.064a1.88,1.88,0,0,0-1.381,1.367c-.431,1.119.515,1.93.736,3-1.345,2.565-3.66,3.658-6.433,3.87-1.845.139-3.709.011-5.563.036-.566.007-1.193-.2-1.686.294-.365,3.2-.965,6.367-1.015,9.595a1.836,1.836,0,0,1-.169.635,3.548,3.548,0,0,0,.292,3.385A1.615,1.615,0,0,1-219,2076.2Zm32.695-31.009a2.741,2.741,0,0,0-2.158-.483c-3.713-.023-7.425-.011-11.14-.011-4.232,0-8.465-.008-12.7.015-.425,0-1.088-.287-1.169.549C-211.512,2045.6-188.432,2045.585-186.31,2045.188Zm-23.454,11.331c.871-1.092.478-2.147.45-3.32-1.191.058-2.33-.508-3.3.521-.264.2-2.3,1.8-1.956,2.65C-214.277,2057.087-212.342,2057.173-209.764,2056.52Zm-5.421-15.4c.476.551.562.742.652.742q4.007.025,8.017,0c.227,0,.333-.242.257-.682C-209.075,2041.064-211.928,2041.148-215.185,2041.121Zm9.145,8.553q-.006-.239-25.268.081l.18.956Q-206.031,2049.915-206.04,2049.675Z" transform="translate(237.465 -2036.587)" stroke="rgba(0,0,0,0)" stroke-width="1"/>
</svg>
