<svg xmlns="http://www.w3.org/2000/svg" xmlns:xlink="http://www.w3.org/1999/xlink" width="36.573" height="39" viewBox="0 0 36.573 39">
  <defs>
    <filter id="Контур_1543" x="0" y="0" width="36.573" height="39" filterUnits="userSpaceOnUse">
      <feOffset dy="1" input="SourceAlpha"/>
      <feGaussianBlur stdDeviation="1.5" result="blur"/>
      <feFlood flood-opacity="0.749"/>
      <feComposite operator="in" in2="blur"/>
      <feComposite in="SourceGraphic"/>
    </filter>
  </defs>
  <g transform="matrix(1, 0, 0, 1, 0, 0)" filter="url(#Контур_1543)">
    <path id="Контур_1543-2" data-name="Контур 1543" d="M5167.369,908.6a3.543,3.543,0,0,1,1.577.3c.148.047.15.155.142.285-.016.3-.024.6-.023.894a.657.657,0,0,0,.506.7c.049.017.1.028.115.079a.676.676,0,0,0,.625.442,3.866,3.866,0,0,0,1.538.169,1.336,1.336,0,0,1,.577.1,1.893,1.893,0,0,0,1,.018,5.048,5.048,0,0,1,1.418-.122,2.7,2.7,0,0,0,1.864-.81,3,3,0,0,0,.824-.954,4.844,4.844,0,0,0,.271-.814.473.473,0,0,1,.469-.412,10.218,10.218,0,0,1,1.924.147c.6.051,1.2.148,1.8.226l.06.007c1.027.155,1.17.336,1.379,1.348a14.253,14.253,0,0,1,.255,3.018c-.007.767-.045,1.539.021,2.3a29,29,0,0,0,.612,5.138,13.459,13.459,0,0,0,.9,2.3.607.607,0,0,0,.557.336c.289.021.483.126.4.467a.175.175,0,0,0,.09.2.7.7,0,0,1,.291.7c-.051,1.041-.137,2.081-.162,3.122-.026,1.093-.147,2.177-.214,3.266-.086,1.436-.229,2.869-.347,4.3a.531.531,0,0,1-.149.38c-.285.237-.563.485-.852.718a2.718,2.718,0,0,1-1.414.425,3.572,3.572,0,0,1-1.153.077,1.087,1.087,0,0,0-.672.093c-.482.265-1.021.385-1.505.631a4.457,4.457,0,0,1-1.823.383c-.534.031-1.068.1-1.594.131a11.024,11.024,0,0,1-2.429.111.85.85,0,0,0-.324.012,7.861,7.861,0,0,1-3.219-.076,15.994,15.994,0,0,1-1.771-.208,2.9,2.9,0,0,0-1.383-.044,1.249,1.249,0,0,1-.989-.229,1.078,1.078,0,0,0-1.191-.052c-.129.086-.153.069-.267-.045a2.739,2.739,0,0,0-1.156-.646,15.75,15.75,0,0,1-1.746-.6.917.917,0,0,0-.38-.057c-.308,0-.617,0-.924,0a1.454,1.454,0,0,1-1.561-1.549c-.021-.475-.073-.95-.137-1.422a3.62,3.62,0,0,1,.018-.652c.023-.579-.14-1.15-.1-1.722.072-1.1-.1-2.194-.025-3.292a6.688,6.688,0,0,0-.069-1.485c-.089-.585.059-1.168-.022-1.754a.637.637,0,0,1,.278-.651.405.405,0,0,0,.187-.383c-.01-.237.128-.293.341-.3s.458.167.619-.033c.133-.165.011-.4.023-.61.027-.462.011-.461.459-.488a5.288,5.288,0,0,0,.653-.062,1.076,1.076,0,0,0,.832-.6,7.4,7.4,0,0,0,.52-2.286,14.215,14.215,0,0,0,.107-2.766,11.874,11.874,0,0,1,.169-2.866c.128-.75.076-1.5.179-2.242a16.835,16.835,0,0,1,.271-1.792c.069-.282.2-.444.488-.466C5165.172,908.863,5166.2,908.61,5167.369,908.6Z" transform="translate(-5154.49 -904.96)" fill="#eaeaea"/>
  </g>
</svg>
