<svg xmlns="http://www.w3.org/2000/svg" width="126.88" height="42.219" viewBox="0 0 126.88 42.219">
  <path id="assaultsmg" d="M400.057-722.126h44.067a8.288,8.288,0,0,1,1.856,1.56c.5.776,1.428,1.251,1.763,1.995.414.925,1.311,1.382,1.876,2.142a24.829,24.829,0,0,1,2.853,5.791,2.618,2.618,0,0,0,.737,1.146h15.94c.268.26,0,.755.577.71v4.958c-.682-.077-.2.685-.667.842H455.512c-.319,1.233.593,2.128.791,3.178s1.095,1.942.746,3.16l-4.574,1.422c-1.2-.122-1.639-.9-2.267-1.332h-22.7a2.959,2.959,0,0,0-.595,2.287c-.713,1.339-1.249,2.62-3.146,3.064H411.619l-4.193,10.22a5.686,5.686,0,0,1-2.141-.043,25.878,25.878,0,0,0-4.614-1.381,15.883,15.883,0,0,0-5.507-.855c-1.737.135-3.5-.021-5.243.048a7.768,7.768,0,0,1-2.96-.431c-1.135-.414-2.444-.6-3.339-1.4a27.57,27.57,0,0,1-4.2-4.123c-.472-.651-.581-1.491-1.405-2.059h-2.151c-1.214-.2-1.277-1.389-2.044-1.913l-13.5,1.96a11.3,11.3,0,0,0-1.946,2.447,6.184,6.184,0,0,1-4.248.9A5.033,5.033,0,0,1,352-686.373a2.665,2.665,0,0,1-2.47-.325c-.986-.949-2.337-1.5-3.123-2.382-.372-4.835.591-9.557-.909-14.158.135-2.1-.876-4.075-.84-6.166-.663-.818-.246-1.8-.491-2.675-.67-2.384-.5-2.816,1.69-3.948h2.307c1.916-1.772,3.132-1.99,5.307-.925-.088.468.372.63.626.925q12.57,0,25.162,0c1.679,0,3.407-.207,4.832,1.042.128.891,1.119,1.478,1.451,2.327h20.811c0-.94.019-1.822-.005-2.7a12.2,12.2,0,0,0-.095-2.582h-6.411l-.561-.512v-3.158C399.557-721.849,400.106-721.6,400.057-722.126Zm.423,22.421a6.5,6.5,0,0,0-3.557-.69c-1.607.013-3.223.09-4.82-.026a5.644,5.644,0,0,0-3,.8c-1.426.7-2.784,2.872-2.448,4.115.677,2.5,1.791,3.728,4.856,3.868,1.669.075,3.344.013,4.734.013,3.2-1.621,4.981-3.916,5.4-7.142Zm38.844-14.415c.307.343.651.484.612.874-.03.292-.1.661.574.656.7-1.115,1.923-2.08,1.509-3.509l-1.381-1.387h-24.22c.033,1.171-.047,2.275.055,3.366Zm-38.809-6.1h36.022c2.446,0,4.892,0,7.336-.011.068,0,.135-.148.167-.183l-.465-.51h-43.06Zm-18.565,5.783H353.509v.638h29.145Zm40.7,19.734v-4.035l-.519-.47H419.16a3.635,3.635,0,0,0-1.477,1.98c.617.765.516,1.865,1.449,2.524Zm-69.143-3.844h24.267v-.638H353.509Zm47.458-2.925.005.317q23.562,0,47.125,0c.051,0,.109-.072.151-.122.17-.2-.272-.059.2-.191Zm37.24-11.055H416.046v.63h22.162Zm-31.053,1.14H386.343a.493.493,0,0,0-.03.637h20.84ZM388.47-689.715H398.2a41.429,41.429,0,0,0,3.183-3.076.543.543,0,0,0-.656-.338l-2.874,2.619h-8.985c-.993-1.155-2.426-1.767-3.534-2.726l-.454.391C385.652-691.393,387.572-691,388.47-689.715Zm-34.933-11.754c1.66.319,32.3.42,35.392.31.051,0,.111-.075.147-.127.16-.21-.281-.056.156-.183Zm99.443-6.235H468v-.628H452.981ZM408.07-718.377h7.057v-.635H408.07Zm5.143,24.077c1.13-1.435,1.291-3.143,2.135-4.578h.886c.163-.237.547-.33.5-.719h-1.947c.318,1.05-.853,1.525-1.026,2.482a4.453,4.453,0,0,1-1.184,2.489A.565.565,0,0,0,413.212-694.3Zm26.253-15.954c2.044-.194,3.951.152,5.853-.191,0,0-.012-.085-.049-.306-1.691-.674-3.564-.165-5.364-.311-.111-.008-.232.09-.349.14Zm6.7-.3.133.242c1.572,0,3.142,0,4.713-.01.069,0,.135-.148.184-.207l-.493-.489h-3.976l.175.212Zm7.99,8.695h-5.2c1.8,1.129,3.53.52,5.2.738Z" transform="translate(-343.345 722.626)" stroke="rgba(0,0,0,0)" stroke-width="1" opacity="0.5"/>
</svg>
