<svg xmlns="http://www.w3.org/2000/svg" width="77.388" height="27.419" viewBox="0 0 77.388 27.419">
  <g id="Сгруппировать_1005" data-name="Сгруппировать 1005" transform="translate(0.5 0.541)">
    <path id="Контур_732" data-name="Контур 732" d="M0,5.466c.3-.223.338-.75.716-.863A4.6,4.6,0,0,1,2.06,4.366c6.113.016,12.224.011,18.429.011a17.323,17.323,0,0,1,2.122-2.7,4.129,4.129,0,0,1,2.272-.346q7.838,0,15.677,0A2.045,2.045,0,0,0,41.23.295C43.967.1,46.572.179,47.164.489c.222-.324.57-.249.9-.25h8.512L57,.845c-.03.4.451.766.144,1.334h8.528l.468.537v1.74A1.471,1.471,0,0,0,67.4,5.04c1.519-.027,3.039-.01,4.566-.01a13.635,13.635,0,0,0,.816-2.325A16.769,16.769,0,0,0,72.817.019c.832.1,1.665-.217,2.478.226V5h1.093V7.63h-1.18c-.185.184-.073.38-.117.571l-.681.749H57.288a2.873,2.873,0,0,1-.411,1.139c-.219.2-.618.171-1.017.171-3.167,0-6.334,0-9.568,0a1.666,1.666,0,0,1-.918.647H43.048L42.6,10.3l-.033-.669H39.975a6.164,6.164,0,0,0,.346,2.826A16.26,16.26,0,0,0,41.14,15a10.785,10.785,0,0,0,1.528,2.653,1.773,1.773,0,0,1,.508.739A10.664,10.664,0,0,0,45.2,20.333a1.226,1.226,0,0,1-.186,1.168c-.933,1.424-1.661,3-2.539,4.46-.085.143-.275.2-.269.417h-.57a20.628,20.628,0,0,1-2.465-2.493c-.276-.35-.573-.677-.872-1a12.166,12.166,0,0,1-1.96-2.993,27.14,27.14,0,0,1-2.421-7.254c-.121.674.044,1.439-.557,1.958h-1l-.6-.484c-.04-.253.052-.45-.111-.588-.044.052-.084.144-.133.15-1.224.15-2.451.025-3.6.077-.527-.356-1.079-.534-1.383-1.116a14.111,14.111,0,0,0-1.5,1.922,5.318,5.318,0,0,0-.662,2.071,2.89,2.89,0,0,0,.366,1.532c-.249.221-.206.628-.532.816-.488-.1-1.017-.008-1.581-.165a8.192,8.192,0,0,0-1.729-.53,1.312,1.312,0,0,1-.954-.851,2.95,2.95,0,0,1-.16-1.241L22.1,9.7a1.361,1.361,0,0,0-.808-.093c-3.167-.008-6.333.012-9.5-.016a3.451,3.451,0,0,0-2.509.978,8.014,8.014,0,0,1-.853.771c-1.427.974-2.652,2.266-4.02,3.333-.473.369-.92.782-1.372,1.177-.506.442-1.134.381-1.619.773L.409,16.055c-.178-.282-.106-.745-.409-1V13.962c.054-.026.156-.053.154-.076a23.736,23.736,0,0,1,.229-2.812C.475,9.94.108,8.849.154,7.72c0-.022-.1-.05-.154-.075Zm2.305,8.1L8.141,8.727c.106-.726-.106-1.336.207-1.921H2.726L2.305,7.3ZM42.76,5.286H20.742v.361H42.76Zm14.3.8H75.842V5.72H57.055ZM23.409,1.991l-.986,1.123c-.006.038.039.121.176.2.363-.171.561-.61.9-.9q8.5,0,17.051-.005c.045,0,.09-.079.135-.122,0-.1.022-.219-.095-.3ZM57.054,7.827H74.511V7.463H57.054ZM9.1,7.342c.339-.383.666-.754.987-1.129a1.4,1.4,0,0,1,1.136-.536c2.148.017,4.3.007,6.444.007h1.462c.1-.2.087-.327-.023-.436-2.652,0-5.3.01-7.958-.011a1.428,1.428,0,0,0-1.024.308,18.159,18.159,0,0,0-1.24,1.4ZM29.282,10.57c.141.394.63.281.721.712-.123.124-.234.251-.089.475h1.194l.231-.265V9.624h-1.8C29.454,9.956,29.178,10.209,29.282,10.57ZM56.448.93H47.93V1.29h8.518Zm-8.485,1.45h8.449a.343.343,0,0,0,0-.361H47.965A.343.343,0,0,0,47.964,2.379ZM9.66,5.287H1.211L.7,5.568c.138.065.192.113.246.113,2.557,0,5.114-.008,7.671.016C8.979,5.7,9.206,5.484,9.66,5.287ZM65.4,3.179a77.087,77.087,0,0,0-8.366,0c.014.1-.041.221.142.34,2.692-.106,5.46.135,8.224-.128C65.4,3.391,65.4,3.324,65.4,3.179ZM41.05,3.541H35.443c-.291.264-.784.355-.855.919.076.128.172.167.259.129a.729.729,0,0,0,.214-.194,1.408,1.408,0,0,1,1.164-.461c1.6.021,3.207.008,4.824.008Zm6.66,1.676.726.91c.207-.062.443.111.619-.124-.012-.106.027-.224-.081-.3l-.517-.066-.6-.788h-4.5l.016.364ZM41.887,1.289h4.484V.924H41.684c-.07.267-.472.321-.427.695.062.16.161.142.3.146Zm-19.242,8.5h4.13l-.459-.361H22.644Zm15.6,0h.9V9.423h-1.3a3.5,3.5,0,0,0,.045,1.058c.126-.018.229.041.3-.1Z" fill="#fff" stroke="rgba(0,0,0,0)" stroke-width="1"/>
  </g>
</svg>
