<svg xmlns="http://www.w3.org/2000/svg" width="163.961" height="17.272" viewBox="0 0 163.961 17.272">
    <path id="bat"
          d="M-435.124,19.482q-16.636,0-33.272-.013a5.656,5.656,0,0,0-4.377,1.563c-1.646,1.627-3.4,1.349-4.423-.746A12.082,12.082,0,0,1-477.1,9.2c.981-1.976,2.67-2.184,4.164-.551,1.459,1.594,3.177,1.867,5.179,1.863,19.782-.038,39.565.089,59.346-.08,9.2-.078,18.179-2.4,27.307-3.341a132.947,132.947,0,0,1,13.282-.8q22.71-.056,45.419-.009c6.4.008,7.851,1.48,7.863,7.831,0,.908.011,1.817-.006,2.725-.088,4.66-1.732,6.581-6.406,6.544-19.876-.159-39.768.774-59.624-.65a113.273,113.273,0,0,1-12.569-1.8c-11.815-2.2-23.75-1.022-35.627-1.421-2.116-.071-4.236-.01-6.354-.01Zm88.347,1.172c8.165,0,16.33.039,24.495-.017,3.878-.026,6.026-2.769,4.976-6.123-.2-.628-.487-1.159-1.2-1.129a1.008,1.008,0,0,0-.967.995c-.111,4.183-3.026,4.009-5.983,4q-23.135-.05-46.269.009c-.921,0-2.389-.364-2.472,1-.084,1.392,1.387,1.109,2.321,1.23a14.1,14.1,0,0,0,1.812.036Q-358.42,20.659-346.777,20.654Zm-109.829-7.267c-1.4-.033-2.554.231-2.728,1.573-.182,1.409,1.065,1.149,1.885,1.166,1.166.024,2.366-.3,2.546-1.6C-454.705,13.1-456.022,13.521-456.606,13.387Zm-6.855-.048c-1.223.122-2.6.092-2.709,1.763-.082,1.252.984,1.085,1.74,1.024,1.2-.1,2.63-.177,2.765-1.748C-461.564,13.206-462.726,13.465-463.462,13.339Zm19.836,2.834c.8-.318,2.251.026,2.447-1.483.175-1.346-.987-1.313-1.877-1.313-1.122,0-2.435.047-2.654,1.437C-445.92,16.142-444.708,16.041-443.626,16.173Zm6.942-.024c1.041-.162,2.328-.268,2.428-1.649.1-1.337-1.158-1.139-1.987-1.121-1.087.023-2.4.07-2.482,1.544C-438.8,16.264-437.579,15.986-436.684,16.149Zm7.321-2.809c-1.069.163-2.426.1-2.447,1.584-.017,1.234,1.175,1.175,2.038,1.14,1.089-.044,2.395-.137,2.434-1.592C-427.3,13.141-428.547,13.494-429.363,13.34Zm-21.45,2.8c1.127-.119,2.421-.122,2.617-1.516.192-1.366-1.015-1.232-1.876-1.241-1.187-.013-2.3.376-2.447,1.7C-452.651,16.292-451.5,15.982-450.813,16.136Z"
          transform="translate(478.495 -6.265)"/>
</svg>
