<svg xmlns="http://www.w3.org/2000/svg" width="129.608" height="43.987" viewBox="0 0 129.608 43.987">
  <path id="combatpdw" d="M462.255-690.4c.6.665.343,1.493.438,2.392.978-.073,1.72.619,2.689.955a7.423,7.423,0,0,1,.965,4.36c-.063,1.008-.012,2.025-.012,3.038a27.71,27.71,0,0,0,.026,3.038c.106.957-.761,1.7-.4,2.619a6.319,6.319,0,0,1-2.407,1.837v1.752c-.541.619-.955.878-1.771.481a19.6,19.6,0,0,0-3.866-1.491,14.937,14.937,0,0,0-3.806-.363c-1.024.024-2.129.411-3.115-.34a1.138,1.138,0,0,0-.945.1,4.249,4.249,0,0,1-3.265.061,1.83,1.83,0,0,0-1.114-.13,4.755,4.755,0,0,1-3.581-.019,1.878,1.878,0,0,0-.8-.036,6.2,6.2,0,0,1-3.743,0,.957.957,0,0,0-.6.007c-1.252.716-2.612.36-3.917.377-3.8.048-7.606.017-11.382.017l-.609.6v3.62c-.148.316-.478.176-.781.367a16.429,16.429,0,0,0,.655,6.087,12.661,12.661,0,0,1,.491,2.627c.128,1.549.788,2.95,1.007,4.468.191,1.322.786,2.583.636,4.009-2.915,1.031-5.955,1.66-9.121,2.54-.414-.051-.541-.725-.957-.879-1.027-5.23-2.707-10.24-3.062-15.651-.271-.3-.778.015-1.489-.164a4.782,4.782,0,0,1-.483.716,3.066,3.066,0,0,1-2.443,1c-3.871-.034-7.743-.014-11.6-.014a4.31,4.31,0,0,0-1.484,2.47c-.109.691-.991,1.257-1.1,1.948-.118.715-.428,1.327-.6,2-.157.633-1.008.756-1.07,1.339-.068.655-.566,1.145-.537,1.834.008.229-.442.476-.573.607.3,1.148.585,2.18-.288,3.221l-11.678-3.524c-.246-.4-.955-.768-1.312-1.566a2.27,2.27,0,0,1-.041-1.97,20.05,20.05,0,0,1,2.682-4.556c.964-1.36,1.711-2.846,2.7-4.19.27-.365.515-.851.868-1.024,1.377-.668,2.134-1.982,3.27-2.84-.423-1.834-1.614-2.4-3.328-2.277-.947.07-1.9.012-2.948.012a3.263,3.263,0,0,1-1.465-3.275c-2.439.52-4.22-.9-6.157-1.791a4.1,4.1,0,0,1-.885-2.573H343.938l-1.419,5.933c-1.586.5-3.11-.526-4.739-.727v-3.245c.855-.084.368-.846.561-1.25a4.93,4.93,0,0,0-.561-4.428v-3.245h4.734a3.833,3.833,0,0,1,1.059,2.359c5.551.256,24.744.159,26.533-.145-.352-.836.162-1.484.491-2.182a.9.9,0,0,0,.844-.433h5.626a8.558,8.558,0,0,1,5.351-2.04q36.2.018,72.4.007h2.373c.725-.9,1.685-1.465,2.2-2.432Zm-40.736,4.8H465.1l-1.238-.749c-1.776,0-3.746.024-5.713-.014a2.863,2.863,0,0,0-1.665.456c-.225-.155-.435-.3-.645-.44-.461-.145-.587.566-.812.486-.541-.183-.669-.638-1.093-.485l-.461.351c-.588.171-.621-.483-1.027-.356-.387-.068-.44.544-.841.411-.367.009-.449-.544-.829-.418-.358.056-.469.549-1.093.341-.085-.032-.223-.467-.652-.322l-.455.344c-.585.174-.616-.479-1.022-.356-.391-.079-.438.544-.843.409-.369.02-.445-.542-.873-.4l-.631.4c-.454.126-.578-.59-1.054-.406l-.508.379c-.57.114-.679-.648-1.17-.379-.218.164-.331.464-.652.408-.377.029-.449-.542-.841-.413-.357.034-.457.546-.7.467-.481-.143-.611-.6-1.035-.454l-.5.37c-.57.119-.677-.645-1.165-.384-.223.162-.331.467-.655.413-.379.039-.447-.542-.841-.411-.358.022-.456.544-.78.437-.4-.1-.524-.568-1-.408-.229.094-.365.532-.8.374-.481-.854-.979-.152-1.459.007-.392.051-.454-.541-.853-.409-.36.012-.45.544-.807.427-.374-.084-.493-.558-1.025-.379-.177.067-.309.513-.73.36-.242-.092-.309-.459-.648-.406-.4-.113-.435.541-.841.409-.384.06-.442-.542-.843-.409-.362,0-.449.542-.82.42-.362-.068-.478-.553-.892-.415-.3.1-.427.554-1.105.311a.349.349,0,0,0-.4-.312Zm-15.213,15.542h-6.412c-.414,1.617.936,2.6,1.259,3.949h3.465C405.572-667.209,405.63-668.725,406.305-670.051Zm-3.731-15.728c-.573-1.015-1.073-.319-1.551-.157-.394.053-.456-.541-.809-.423-.392.051-.507.536-1.283.307.07.024-.073-.4-.609-.241-.164.058-.3.508-.715.355-.244-.09-.31-.459-.653-.4-.387-.092-.442.515-.829.406-.392.063-.449-.541-.817-.42-.384.038-.493.532-.984.387-.08-.068-.227-.3-.375-.3-4.667-.019-9.335-.015-13.993-.015l-.553.583c2.738.338,29.106.283,29.389-.055-.015-.193.056-.409-.169-.542-.49-.3-.636.379-1.029.365-.438.094-.546-.67-1.032-.413-.225.162-.333.469-.657.414-.379.041-.445-.542-.78-.432-.408.068-.527.542-1.163.355-.065-.027-.212-.444-.635-.316Zm60.006,7.073c-1.778-.36-27.686-.476-31.924-.329-.051,0-.107.072-.152.118-.191.193.241.07-.278.212Zm-43.623,4.191h-8.946l1.2.679h7.75Zm-6.494-11.419c-.4.111-.433-.542-.841-.408-.382-.055-.44.541-.812.418-.409-.048-.577-.679-1.1-.321a.447.447,0,0,0,.029.65c3.325,0,6.629,0,9.933-.005.048,0,.094-.092.142-.14-.027-.188.082-.411-.152-.544l-.544.329c-.524.138-.623-.64-.843-.529-.507.265-.59.606-.923.549-.394.085-.438-.542-.843-.409-.372-.027-.444.542-.906.389-.171-.109-.382-.247-.6-.387-.454-.13-.58.58-1.065.4l-.467-.341C412.9-686.477,412.866-685.822,412.463-685.934Zm-34.725,1.283h-6.049v.676h6.049Z" transform="translate(-337.28 690.897)" stroke="rgba(0,0,0,0)" stroke-width="1"/>
</svg>
