<svg xmlns="http://www.w3.org/2000/svg" width="140.255" height="35.477" viewBox="0 0 140.255 35.477">
  <path id="crowbar" d="M-433.488-100.236c16.328,0,32.657-.1,48.984.044,6.51.056,12.85-1.008,19.223-2,1.287-.2,2.771-.692,3.411.926.569,1.439-.685,2.23-1.658,2.933-6.448,4.662-13.483,7.511-21.614,7.5q-49.246-.091-98.493-.028a30.5,30.5,0,0,0-6.511.525c-2.8.607-3.534,1.952-2.249,4.516a23.393,23.393,0,0,0,4.214,5.64,132.4,132.4,0,0,0,10.618,9.294c.957.8,2.157,1.6,1.526,2.976-.674,1.467-2.071.938-3.228.541-8.438-2.894-15.939-7.081-20.658-15.076a14.121,14.121,0,0,1-1.522-3.884c-1.765-7.26.786-11.422,8.031-13.11a38.7,38.7,0,0,1,8.844-.8Q-459.028-100.226-433.488-100.236Zm-4.968,6.952q14.93,0,29.861,0,4.453,0,8.906-.026c.618,0,1.343-.058,1.449-.818.137-.986-.7-1.055-1.387-1.16a10.235,10.235,0,0,0-1.565-.125q-36.668.065-73.336.17a4.22,4.22,0,0,1-3.092-1.081c-.56-.512-1-1.927-1.97-.912-.888.935-.417,2.155.5,3.018,1.125,1.066,2.58.926,3.968.927Q-456.791-93.277-438.455-93.283Zm-49.821-2.137-.007-.132a39.409,39.409,0,0,0-5.47.415c-2.142.45-4.322,1.3-5.171,3.545-1.157,3.051,2.031,10.572,4.97,12.3.562.33,1.123.619,1.678.144.745-.639.3-1.277-.189-1.8a22.007,22.007,0,0,1-3.223-5.36c-1.845-3.694-1.422-5.626,4.08-6.5,2.4-.381,4.874-.313,7.313-.473.751-.049,1.836.118,1.891-.911.066-1.218-1.113-1.156-1.943-1.2C-485.653-95.474-486.966-95.421-488.276-95.421Z" transform="translate(501.982 102.419)"/>
</svg>
