<svg xmlns="http://www.w3.org/2000/svg" width="71.569" height="34.999" viewBox="0 0 71.569 34.999">
  <path id="doubleaction" d="M-607.571,1522.03c-4.027,0-8.053.007-12.08-.01-.462,0-.69.11-.633.6.014.119-.02.245,0,.36a3.833,3.833,0,0,1-.609,2.4,2.77,2.77,0,0,1-1.232,1.577,14.373,14.373,0,0,1-1.97.786c-1.878.543-3.748.207-5.614.283s-3.767.068-5.648,0a3.835,3.835,0,0,0-2.938,1.438,7.253,7.253,0,0,0-.927,1.672c-.235.406-.334.912-.724,1.223-.288.23-.265.607-.4.9a14.689,14.689,0,0,0-1.012,2.25,5.031,5.031,0,0,1-.552.986,3.252,3.252,0,0,0-.273,1.37c-.071.681.27,1.452-.424,2.009-.056.045-.039.191-.044.29a2.228,2.228,0,0,1-2.257,2.073c-4.267-.016-8.534-.023-12.8.012-.582,0-.967-.436-1.508-.442a.14.14,0,0,1-.095-.066,3.122,3.122,0,0,1-.522-2.642c.115-.349.406-.671.539-1.061.193-.569.6-1.046.758-1.637a.543.543,0,0,1,.216-.275c.784-.655.945-1.676,1.463-2.482a19.033,19.033,0,0,1,1.259-2.333,8.27,8.27,0,0,0,.918-1.662.786.786,0,0,1,.243-.322,1.1,1.1,0,0,0,.609-.961c-.009-.176.12-.274.257-.376a1.062,1.062,0,0,0,.547-.812c.009-.314.358-.355.474-.586.284-.563.619-1.1.882-1.676a1.846,1.846,0,0,1,.637-.745c.515-.335.639-.907.933-1.37s-.166-1.107-.75-1.123c-.661-.018-1.322,0-1.983-.009-.236,0-.478.02-.6-.277-.106-.256-.373-.2-.583-.205-.458-.008-.71-.175-.688-.681a1.026,1.026,0,0,0-.788-.99,1.2,1.2,0,0,1-.9-1.234c-.016-1.1-.023-2.2,0-3.305.007-.443-.1-.691-.6-.645-.425.04-.54-.249-.794-.564-.591-.736-.372-1.5-.4-2.26a1.767,1.767,0,0,1,1.731-1.933c.1-.01.246,0,.285-.056.413-.6,1.038-.411,1.591-.418,1.562-.021,3.126-.03,4.687.006a1.383,1.383,0,0,0,1.148-.506.872.872,0,0,1,.716-.337c.36-.011.721-.014,1.082-.014h51.5c.341,0,.681.011,1.022.008.38,0,.5.224.732.511a2.819,2.819,0,0,1,.46,1.828c.015.268.217.318.43.308a.949.949,0,0,1,.9.361c.4.6.988.484,1.553.49.93.01.96.029.963.932,0,1.583-.013,3.165,0,4.748.006.545-.209.781-.748.732-.1-.009-.2.007-.3,0a1.47,1.47,0,0,0-1.44.472.971.971,0,0,1-.9.38c-.367-.037-.558.182-.471.51a2.271,2.271,0,0,1-.607,1.884,1.872,1.872,0,0,1-1.47.619c-.7.011-1.4.011-2.1.011h-10.156Zm-13.656-11.608q12.646,0,25.292-.009c.26,0,.732.175.736-.228,0-.341-.458-.2-.711-.2q-25.292-.012-50.584,0c-.261,0-.734-.171-.735.232,0,.343.46.193.71.194Q-633.873,1510.429-621.227,1510.422Zm-5.3,10.75a6.193,6.193,0,0,1-1.017-.01,1.151,1.151,0,0,0-1.319.663,2.119,2.119,0,0,0,.011,1.8,2.823,2.823,0,0,0,2.059,1.311,2.065,2.065,0,0,0,2.529-1.342,2.354,2.354,0,0,0-.475-2.253c-.217-.347-.667-.133-1.01-.168A7.765,7.765,0,0,0-626.526,1521.172Zm18.836-1.67c-3.425,0-6.85,0-10.275.008-.275,0-.779-.15-.782.171,0,.432.5.244.781.245q10.215.017,20.429.009c.16,0,.321,0,.48-.009s.358-.016.336-.242c-.017-.178-.2-.169-.335-.175-.16-.007-.32-.005-.481-.005Z" transform="translate(660.445 -1507.74)" stroke="rgba(0,0,0,0)" stroke-width="1" opacity="0.5"/>
</svg>
