<svg xmlns="http://www.w3.org/2000/svg" width="111" height="20.183" viewBox="0 0 111 20.183">
  <path id="flashlight" d="M-1025.81-739.492c0,2.4-.041,4.808.011,7.21.037,1.741-.6,2.669-2.473,2.654-4.985-.038-10.02.411-14.937-.168-3.123-.368-6.084.74-9.16.049-3.228-.725-6.3-1.92-9.462-2.808-2.338-.656-4.446.789-6.8.763-13.44-.152-26.888.132-40.324-.151-7.886-.167-15.756.277-23.634.083-3.6-.089-4.154-.61-4.164-4.216-.007-2.759.042-5.52-.005-8.278-.035-2.029,1-3.043,2.908-3,5.231.122,10.482-.577,15.695.428,2.486.479,4.878-.581,7.394-.553,13.084.146,26.171.051,39.257.083,2.558.006,5.127-.285,7.649.7,1.357.528,2.791-.2,4.134-.687,3.1-1.121,6.208-2.329,9.563-2.233,7.04.2,14.076-.089,21.114-.06,2.406.01,3.435.76,3.267,3.245C-1025.93-744.129-1025.808-741.806-1025.81-739.492Zm-63.018-4.188v.032q-10.141,0-20.282,0c-.8,0-1.6.016-2.4.089-.657.06-1.22.333-1.253,1.114s.505,1.112,1.168,1.186a21.837,21.837,0,0,0,2.4.1q11.208.01,22.417,0c6.316,0,12.632,0,18.947-.034.942-.005,2.181.087,2.223-1.3.045-1.517-1.178-1.2-2.136-1.2Q-1078.287-743.673-1088.828-743.68Zm-38.129.064c-2.665,0-4.611-.025-6.555.011-.817.015-1.686.15-1.63,1.269.046.912.791,1.124,1.52,1.129,3.625.026,7.25.033,10.875,0,.82-.009,1.692-.238,1.518-1.356a1.387,1.387,0,0,0-1.683-1.27C-1124.5-743.7-1126.086-743.661-1126.958-743.616Zm72.894-1.634c-1.638.474-3.833,1.085-6.011,1.751-.614.188-1.153.612-.936,1.365a1.192,1.192,0,0,0,1.477.834c2.217-.532,4.568-.463,6.68-1.435.7-.324,1.55-.725,1.19-1.751C-1051.954-745.315-1052.756-745.244-1054.064-745.25Zm24.208-.111c-.838.246-2.375-.245-2.344,1.242.028,1.351,1.468,1.242,2.495,1.223.923-.017,2.218.141,2.288-1.145C-1027.327-745.7-1028.838-745.109-1029.856-745.361Zm-11.318.027c-.747.118-2.04-.234-1.957,1.263.064,1.152,1.15,1.173,2.034,1.167.973-.006,2.179-.028,2.137-1.343C-1039-745.426-1040.16-745.272-1041.173-745.334Zm7.158,1.194c-.059-1.089-.588-1.413-1.568-1.206-.751.159-1.739.073-1.668,1.181.084,1.334,1.34,1.173,2.2,1.346C-1033.933-742.592-1034.242-743.649-1034.015-744.14Z" transform="translate(1136.758 749.68)"/>
</svg>
