<svg xmlns="http://www.w3.org/2000/svg" width="166.632" height="23.563" viewBox="0 0 166.632 23.563">
  <path id="golfclub" d="M-666.957-334.312c32.126,2.336,64.323,1.078,96.479,1.9,11.3.288,22.6.2,33.9-.433,1.707-.1,2.387-.591,2.332-2.331-.091-2.877-.083-5.76,0-8.637.111-3.624,2.635-5.253,7.345-4.857,3.81.321,5.779,2.32,5.142,5.76a56.154,56.154,0,0,1-4.66,13.667c-1.146,2.428-4,2.577-6.521,2.682-7.508.314-14.984-.555-22.5-.463-27.559.336-55.139-.112-82.673.834-15.094.518-30.174,1.014-45.273,1.024-4.292,0-4.921-.658-4.886-4.773.031-3.618.688-4.33,4.341-4.358C-678.27-334.344-672.613-334.312-666.957-334.312Zm135.258-5.127h.064c0,1.426-.081,2.86.03,4.278.068.869.567,1.8,1.575.909,2.529-2.23,4.866-4.641,5.3-8.235.159-1.31-.023-2.449-1.536-2.912-3.182-.974-5.407.578-5.436,3.818C-531.7-340.866-531.7-340.153-531.7-339.439Z" transform="translate(688.268 348.732)"/>
</svg>
