<svg xmlns="http://www.w3.org/2000/svg" width="121.522" height="47.458" viewBox="0 0 121.522 47.458">
  <path id="hammer" d="M-997.582-445.131c-12.553-.473-26.913,1.341-41.332.948-6.9-.188-13.769-1.427-20.694-.768-3.87.368-7.725.883-11.589,1.313-5.231.582-6.69-.717-6.736-6.019a49.771,49.771,0,0,1,.081-5.252c.343-3.525,1.963-4.739,5.495-4.318,3.186.379,6.377.713,9.554,1.148,6.919.947,13.78-.063,20.667-.459,10.9-.628,21.781.4,32.672.742,10.6.331,21.223.454,31.817.1,2.665-.089,5.383-1.559,8.31-1.693,1.659-.077,2.162-3.33.85-5.258a27.346,27.346,0,0,0-5.168-5.1c-1.353-1.159-4.1-2.2-2.907-4.364,1.277-2.318,3.6-.4,5.183.288,6.749,2.941,12.716,7.183,14.071,14.824.956,5.388,1.694,11.126-1.03,16.558-1.125,2.243-.383,4.787.6,7.061,1.926,4.446.271,7.265-4.558,7.541a14.339,14.339,0,0,1-4.932-.3c-3.547-1.045-4.874-4-2.736-6.975,1.639-2.278.982-4.65,1.148-7.008a1.488,1.488,0,0,0-1.425-1.579c-2.476-.4-4.83-1.429-7.378-1.432C-983.652-445.136-989.687-445.131-997.582-445.131Zm-25.73-5.722v.058c14.885,0,29.77-.021,44.656.041,1.185,0,1.953-.08,1.938-1.4-.016-1.357-.988-1.443-2.048-1.438q-8.173.04-16.345.037-35.9,0-71.8.015c-1.138,0-2.993-.649-3.035,1.226-.048,2.131,1.959,1.239,3.15,1.442a10.572,10.572,0,0,0,1.749.018Zm61.563,2.585h.279c0-3.3.033-6.6-.021-9.893-.015-.936-.039-2.183-1.369-2.161-1.143.019-1.149,1.157-1.194,2.011a175.292,175.292,0,0,0,.06,20.059c.05.807.185,1.7,1.205,1.646,1.036-.054,1.027-1.012,1.031-1.781C-961.738-441.68-961.748-444.974-961.748-448.267Zm-109.916-3.045h-.044c0-1.349.01-2.7-.006-4.046-.006-.5-.12-.986-.736-1.049a.85.85,0,0,0-.964.846c-.138,2.782-.251,5.567-.279,8.351a1.157,1.157,0,0,0,1.109,1.144c.981,0,.881-.862.905-1.493C-1071.631-448.807-1071.664-450.06-1071.664-451.312Zm98.827-1.087c.077-.757.162-1.241.168-1.725.008-.727.413-1.8-.66-1.922-.932-.1-1.2,1-1.233,1.7-.082,1.937-.012,3.885.1,5.822.037.641.268,1.5,1.187,1.31.829-.171.827-1.005.782-1.682C-972.579-450.153-972.737-451.407-972.837-452.4Zm9.633,19.566c-.707.146-1.42.431-1.261,1.272a1.582,1.582,0,0,0,1.672,1.334c.868-.05.988-.805.957-1.515C-961.873-432.6-962.391-432.912-963.2-432.832Z" transform="translate(1077.962 475.221)"/>
</svg>
