<svg xmlns="http://www.w3.org/2000/svg" width="122.552" height="43.003" viewBox="0 0 122.552 43.003">
  <path id="hatchet" d="M-630.575-522.653q-15.664,0-31.328,0a103.314,103.314,0,0,0-22.045,1.936c-2.577.558-4.251-.684-4.335-3.3-.113-3.5-.092-7.014.018-10.517.062-1.971,1.243-2.962,3.019-2.384,12.025,3.915,24.419,3.042,36.744,2.908,15.015-.164,30.03-.372,45.008-1.675,6.373-.555,12.617-2.264,19.071-2.043,1.282.044,1.44-.9,1.393-1.889-.078-1.644.675-2.363,2.323-2.335,2.9.049,5.794.009,8.691.027a2.86,2.86,0,0,1,3.174,2.626c.091.6.046,1.379.687,1.6,2.484.85,2.355,2.879,2.346,4.885-.011,2.516.026,5.032-.035,7.547-.046,1.908-.692,3.475-2.86,3.8-1.094.162-1.391.824-1.266,1.773.694,5.277.371,10.674,1.948,15.849.783,2.569.476,3.2-2,3.814-7.67,1.9-15.28,1.073-22.857-.654-1.287-.293-1.437-1.27-1.35-2.294.511-6.066,1.533-11.841,7.716-15.075,1.155-.6,3.233-1.358,2.713-2.87-.405-1.178-2.476-.463-3.792-.489q-21.493-.414-42.986-.731Zm50.987,20.046c2.467-.463,5-.961,7.535-1.4.734-.126,1.427-.183,1.244-1.175a1.22,1.22,0,0,0-1.546-1,21.751,21.751,0,0,0-2.883.681c-2.756.826-5.476,1.118-8.226-.086-1.6-.7-3.424-.677-5.024-1.471a1.09,1.09,0,0,0-1.514.641.82.82,0,0,0,.646,1.207C-586.131-504.343-582.9-503.489-579.588-502.607Zm2.521-25.951c1.514,0,3.028.008,4.542,0,.839-.006,1.535-.307,1.617-1.235a1.38,1.38,0,0,0-1.271-1.609,59.529,59.529,0,0,0-9.52.01,1.549,1.549,0,0,0-1.463,1.5c.013,1.049.891,1.311,1.779,1.33C-579.944-528.532-578.505-528.554-577.067-528.558Zm.894-6.081v-.02c1.369,0,2.74.041,4.106-.021.536-.024,1.073-.312,1.032-.993-.048-.805-.677-.625-1.195-.631-2.587-.032-5.174-.051-7.759-.131-.608-.019-1.125.038-1.22.685-.12.813.528,1.066,1.155,1.094C-578.763-534.6-577.467-534.64-576.173-534.64Zm-.813,9.134v-.046c-1.142,0-2.286-.042-3.425.017-.61.032-1.315.215-1.151,1.057.127.652.716.7,1.286.587a16.291,16.291,0,0,1,6.557.005c.515.107.95-.035,1.068-.563.156-.694-.367-1-.915-1.037C-574.7-525.553-575.846-525.506-576.986-525.506Z" transform="translate(688.357 541.95)"/>
</svg>
