<svg xmlns="http://www.w3.org/2000/svg" width="61.201" height="44.635" viewBox="0 0 61.201 44.635">
  <path id="heavypistol" d="M-152.138,1847.729q2.96-6.738,5.917-13.477a19.294,19.294,0,0,0,.831-2.184c.5-1.666.266-2.317-1.153-3.415a11.445,11.445,0,0,1-1.145-.825c-1.282-1.28-.934-2.7.793-3.387.566-.225,1.125-.471,1.646-.689.121-1.179-.8-1.576-1.353-2.183a4.346,4.346,0,0,1-1.4-2.874c-.048-1.925,1.483-3.3,3.2-2.478a3.45,3.45,0,0,0,3.5-.322,9.66,9.66,0,0,1,5.012-1.353c1.256-1.606,2.021-4.118,4.937-3.226,2.226.682,2.371,2.647,2.667,4.4a4.065,4.065,0,0,0,2.2.268c7.57.014,15.138,0,22.706.014,1.113,0,2.214.069,3-.948a1.725,1.725,0,0,1,1.52-.467c1.652-.006,3.305,0,4.744,0,.972.576.525,1.443.938,2.143.6.36,1.642.445,1.642,1.574,0,3.279,0,6.561,0,9.6a2.363,2.363,0,0,1-2.055.6,5.23,5.23,0,0,0-3.764.952c-.783.646-1.795.471-2.733.473-5.831,0-11.664,0-17.579,0a10.806,10.806,0,0,0-1.779,3.53,4.855,4.855,0,0,1-5.161,3.566c-1.328-.129-2.679-.026-4.019-.022-2.576.012-3.76.851-4.48,3.239-1.012,3.359-1.948,6.742-3.017,10.082a7.127,7.127,0,0,0-.342,2.3,2.778,2.778,0,0,1-.6,2.2h-1.894c-2.661-.721-5.294-1.61-8-2.119-2.458-.463-4.094-1.6-4.78-4.014Zm9.025-23.315c2.294.857,45.27.741,47.267,0Zm47.335-6.079a1.736,1.736,0,0,0-1.485-.65c-7.067.072-14.139-.183-21.206.141-.038,0-.087.105-.1.169-.072.306.292.063-.191.34Zm-28.307,10.635a2.724,2.724,0,0,0-2.3,2.359,1.759,1.759,0,0,0,1.371,2.077C-123.652,1832.14-123.624,1830.7-124.085,1828.97ZM-127.1,1818.1a13.859,13.859,0,0,0,6.239-.063A13.53,13.53,0,0,0-127.1,1818.1Z" transform="translate(152.638 -1810.671)" stroke="rgba(0,0,0,0)" stroke-width="1"/>
</svg>
