<svg xmlns="http://www.w3.org/2000/svg" width="111" height="22.49" viewBox="0 0 111 22.49">
  <path id="knife" d="M-1088.56-653.982c-7.661,0-15.323.061-22.983-.042-1.991-.027-3.424.427-4.38,2.258-.488.934-1.181,1.987-2.48,1.53-1.2-.424-.924-1.654-.855-2.562.158-2.1-.9-2.532-2.743-2.52-8.819.061-17.638.035-26.457.033a8,8,0,0,0-3.113.594c-2.5,1.027-4.373.147-5.193-2.418a13.52,13.52,0,0,1,.067-8.921c.909-2.51,2.571-3.353,5.027-2.4a9.8,9.8,0,0,0,3.634.67c8.552-.008,17.1-.031,25.655.024,1.932.012,3.392-.178,3.117-2.674a1.751,1.751,0,0,1,1.6-2.087c1.265-.188,2.735-.322,3.257,1.1.974,2.644,3.444,2.334,5.023,2.005,3.43-.714,6.794.037,10.189-.213a104.381,104.381,0,0,1,11.122-.045c5.4.184,10.925-.593,16.176,1.56,2.216.908,4.58,1.452,6.875,2.168a24.5,24.5,0,0,0,15.728-.439c.833-.289,1.723-.816,2.444.094a2.122,2.122,0,0,1-.151,2.506,17.094,17.094,0,0,1-7.744,7.095c-4.71,2.257-9.735,2.69-14.848,2.684q-9.488-.01-18.975,0Zm5.091-4.852v-.009c7.3,0,14.6-.02,21.907.012a30.058,30.058,0,0,0,6.834-1.01c.707-.161,1.871-.4,1.635-1.384s-1.322-.552-2.056-.456a53.077,53.077,0,0,1-6.323.881c-14.691.126-29.384.139-44.075.188a20.513,20.513,0,0,0-3.2.053,2.37,2.37,0,0,0-2.142,3.066,1.292,1.292,0,0,0,.55.824.669.669,0,0,0,.994-.536c.4-1.878,1.864-1.62,3.169-1.623Q-1094.823-658.848-1083.469-658.834Zm-71.887-2.859a18.459,18.459,0,0,0,.408,3.148,1.663,1.663,0,0,0,2.115,1.177,2.381,2.381,0,0,0,1.775-2.4c.035-.92-.049-1.954-1.445-1.526-1.1.339-.654-.557-.712-.894a3.166,3.166,0,0,1,.465-2.295c.351-.557.448-1.246-.3-1.592s-1.123.283-1.5.779C-1155.359-664.216-1155.265-662.95-1155.356-661.692Zm20.367,1.775c-.068-.709-.272-2.019-1.015-1.68a4.981,4.981,0,0,0-2.418,3.15c-.216.748.7.839,1.334.811C-1135.693-657.7-1135.036-658.481-1134.99-659.917Zm-5.337.021c-.033-.621,0-1.3-.78-1.506-.493-.13-2.8,2.409-2.732,2.968.084.671.566.871,1.14.839C-1141.261-657.675-1140.358-658.343-1140.326-659.9Zm-7.872,2.3c2.029-.156,2.562-1.158,2.525-2.577-.016-.649-.362-1.552-1.015-1.13-1.043.675-2.313,1.441-2.453,2.867C-1149.216-657.674-1148.4-657.592-1148.2-657.6Zm24.085-2.578c-.024-.585-.393-1.447-.972-1.131a4.262,4.262,0,0,0-2.531,2.792c-.127.763.671.927,1.322.888C-1124.766-657.721-1124.181-658.683-1124.114-660.177Zm5.327-.008c-.064-.42-.114-1.465-.756-1.216a4.613,4.613,0,0,0-2.705,2.916c-.228.742.649.931,1.287.874A2.142,2.142,0,0,0-1118.787-660.185Zm-13.027,2.537c1.458-.1,2.233-.777,2.24-2.174,0-.608.034-1.3-.759-1.486-.424-.1-2.909,2.421-2.821,2.836C-1132.982-657.675-1132.334-657.672-1131.814-657.648Z" transform="translate(1157.486 672.616)"/>
</svg>
