<svg xmlns="http://www.w3.org/2000/svg" width="140.992" height="24.905" viewBox="0 0 140.992 24.905">
  <path id="machete" d="M-1072.515-547.216c-17.125-1.157-33.935-2.815-50.744-4.493-4.481-.447-8.986-.688-13.453-1.245-3.263-.406-5.929-.073-7.864,3.062-1.285,2.083-2.647,1.693-3.511-.622-1.6-4.275-3.958-5.559-8.615-4.708a43.669,43.669,0,0,0-11.68,4.333,52.806,52.806,0,0,1-5.813,2.7c-3.482,1.246-7.578-.326-8.7-3.143-1.254-3.144.167-6.725,3.8-8.31,10.269-4.48,21.188-6.1,32.272-6.414,23.429-.67,46.866-1.063,70.3-1.673,5.91-.154,11.529-1.946,17.056-3.91a5.842,5.842,0,0,1,4.852.188c3.343,1.616,6.73,3.156,10.178,4.531,2.254.9,2.52,2.2,1.571,4.208-4.633,9.789-12.449,14.811-23.151,15.475C-1068.266-547.1-1070.528-547.216-1072.515-547.216Zm-62.748-9.314-.031,1.025c2.623.384,5.236.872,7.871,1.134q11.585,1.15,23.186,2.15c12.887,1.13,25.741,2.794,38.725,2.385,9.215-.29,18.235-6.676,20.907-14.889-1.4-.278-1.67.966-2.129,1.712-5.163,8.4-12.923,11.836-22.472,11.791-16.222-.077-32.272-2.42-48.4-3.77C-1123.492-555.485-1129.376-556.016-1135.263-556.53Z" transform="translate(1183.344 572.073)"/>
</svg>
