<svg xmlns="http://www.w3.org/2000/svg" width="82.574" height="43.22" viewBox="0 0 82.574 43.22">
  <path id="machinepistol" d="M355.6-613.032h-.647c-.07-.676-.7-.338-1.009-.458-2.332-.885-4.716-1.632-7.075-2.451a4.72,4.72,0,0,1-3.113-2.91,1.663,1.663,0,0,1-.045-1.2c.692-1.837.887-3.8,1.481-5.672a6.393,6.393,0,0,1,1.488-2.777c1.873-1.859,3.736-3.728,5.611-5.583a5.162,5.162,0,0,0,1.364-1.844v-1.313a14.465,14.465,0,0,0-2.394-3.541l-.688.647h-1.295l-.524-.523v-2.67l-.6-.479c0-1.727,0-1.727.441-2.673l1.163-.552v-1.95a5.551,5.551,0,0,0,1.4-1.985,2.479,2.479,0,0,1,2.095-1.833c.125-.011.23-.214.4-.385V-654.3l.636-.8c2.351-.714,3.957.726,6.05,1.316l.576.758c2.921,0,3.63.191,4.84,1.217h8.3c-.154-.638.283-1.022.436-1.5,1.607-.63,2.29-.493,2.858.412.854.558,1.376-.172,2.089-.162,4.418.06,8.837.03,13.257.03a3.871,3.871,0,0,1,1.462,1.178c.112.114.157.146.291-.109v-.7l.791-1.044h21.106c.7-.023,1.01-.692,1.526-1,.707-.42,1.349-.112,1.915-.272.6.28.513.813.645,1.3h1.178l1.077.841v2.062h2.508v5.807c-.888-.042-1.661.561-2.619.3v1.825l-.758.757c-.141.007-.3.02-.455.02q-12.378,0-24.756.016a4.144,4.144,0,0,1-1.745-.418l-.554-1.213A3.785,3.785,0,0,1,392.5-640.1c-.191.081-.582-.166-.937.1v8.455l.6.6a2.312,2.312,0,0,1-.265,1.4c-.15.3-.8-.074-1.312.142v7.466l-.46.458h-8.852l-.455-.454v-7.526c-1.185.062-1.578-.661-1.682-1.617a5.755,5.755,0,0,0-3.223.506,3.545,3.545,0,0,1-1.594.38c-1.494-.056-2.9.5-4.4.4s-3-.022-4.452-.022c-.13.13-.194.245-.286.276a7.322,7.322,0,0,0-3.948,3.289c-1.1,1.806-2.237,3.594-3.377,5.377a15,15,0,0,1-1.576,2.52c-.311,1.461.605,2.807.226,4.227C356.233-613.728,355.736-613.533,355.6-613.032Zm14.814-25.152a2.838,2.838,0,0,0-1.221,2.925,3.169,3.169,0,0,0,1.143,2.539h2.59A17.012,17.012,0,0,0,376-635.139a3.441,3.441,0,0,0-1.148-3.045ZM349.8-645.341h39.384l-.127-.16.57-.225-.1-.153H349.8Zm2.3-4.834h29.289a.45.45,0,0,0,.02-.54H352.444C352.34-650.508,352.074-650.468,352.1-650.175Zm1.327,10.642H380.1a.434.434,0,0,0,.028-.508c-.222-.183-.5-.077-.755-.078q-12.12-.01-24.24-.005c-.269,0-.539.011-.807,0C354-640.143,353.919-639.82,353.429-639.534Zm42.4-9.355h25.718a.453.453,0,0,0-.007-.532H395.824A.453.453,0,0,0,395.829-648.889Zm-15.09,18.064h10l-.389-.538h-9.072Zm8.492-20.209h-7.056v.532h7.056Zm-34.248-1.67c.8,0,1.59.012,2.378,0a16.989,16.989,0,0,0,2.68-.1c-1.805-.923-3.438-.372-5.058-.574Z" transform="translate(-343.121 655.752)" stroke="rgba(0,0,0,0)" stroke-width="1"/>
</svg>
