<svg xmlns="http://www.w3.org/2000/svg" width="48.011" height="30.266" viewBox="0 0 48.011 30.266">
  <g id="Сгруппировать_2879" data-name="Сгруппировать 2879" transform="translate(0.5 0.52)">
    <path id="Контур_554" data-name="Контур 554" d="M-1314.926,188.019c0-.8-.019-1.608.008-2.411.015-.437-.126-.559-.566-.516a7.656,7.656,0,0,1-5.386-1.35,8.341,8.341,0,0,1-3.659-6.876,6.9,6.9,0,0,1,2.345-5.481,7.886,7.886,0,0,1,5.979-2.134,2.662,2.662,0,0,0,2.91-1.3c2.075-3.331,6.689-4.275,9.943-2.872a8.429,8.429,0,0,0,2.171.817,3.548,3.548,0,0,0,2.078-.3,8.347,8.347,0,0,1,4.393-.7,7.445,7.445,0,0,1,5.249,3.077,2.442,2.442,0,0,0,2.522,1.075c3.06-.517,5.406.741,7.5,2.9a5.684,5.684,0,0,1,1.362,2.072,6.5,6.5,0,0,1,.549,2.79c-.434,4.542-3.362,7.755-7.694,8.029-.423.027-.477.194-.467.573.046,1.715.058,3.43.075,5.146,0,.427-.093.783-.634.8a49.245,49.245,0,0,0-9.89,1.658,14.024,14.024,0,0,1-5.153.631c-1.5-.217-2.991-.57-4.474-.913a35.875,35.875,0,0,0-8.235-1.269.808.808,0,0,1-.89-.9c-.018-.847,0-1.694,0-2.541Zm14.711,2.777a8.778,8.778,0,0,0,5.7-1.983c1.315-.982,2.515-2.116,3.766-3.183.165-.141.37-.28.366-.514-.014-.855.273-1.781-.685-2.4a3.478,3.478,0,0,1-.879-.951,2.427,2.427,0,0,0-2.544-1.07,7.808,7.808,0,0,1-4.864-.857,4.043,4.043,0,0,0-3.857-.143,6.521,6.521,0,0,1-3.746.646,2.522,2.522,0,0,0-2.883,1.316,3.492,3.492,0,0,0,.517,4.46,28.509,28.509,0,0,0,3.626,2.867A9.164,9.164,0,0,0-1300.215,190.8Zm-21.6-13.6c-.23,2.823,2.572,5.16,5.261,5.138a5.5,5.5,0,0,0,5.549-5.466,5.274,5.274,0,0,0-5.256-5.069A5.341,5.341,0,0,0-1321.812,177.2Zm36.219,4.362a4.777,4.777,0,0,0,4.912-4.609,4.947,4.947,0,0,0-5-5,4.922,4.922,0,0,0-4.921,4.8A4.854,4.854,0,0,0-1285.593,181.558Zm-15.865-9.435a4.709,4.709,0,0,0-4.691-4.482,4.762,4.762,0,0,0-4.812,4.79,4.685,4.685,0,0,0,4.7,4.384A4.813,4.813,0,0,0-1301.457,172.124Zm5.806-4a4.648,4.648,0,0,0-4.747,4.734,4.689,4.689,0,0,0,4.717,4.372,4.748,4.748,0,0,0,4.795-4.52A4.655,4.655,0,0,0-1295.651,168.128Z" transform="translate(1324.53 -164.445)" fill="#eaeaea" stroke="rgba(0,0,0,0)" stroke-width="1"/>
  </g>
</svg>
