<svg xmlns="http://www.w3.org/2000/svg" width="89.366" height="47.001" viewBox="0 0 89.366 47.001">
  <path id="microsmg" d="M377.192-572.714c-.54-1.934-.22-3.951-.331-5.931-.143-.187-.267-.492-.442-.553-1.91-.667-2.249-2.652-2.351-4.776a30.594,30.594,0,0,1,.554-5.778,26.034,26.034,0,0,0,.43-3.476,12.708,12.708,0,0,0,.178-2.993,17.676,17.676,0,0,0-2.749-3.135v-2.652h-9.833l-.49-.638v-1.778H357.97c-.265-.418-.708-.568-.489-1.244H336.854l-1.661,2.172v14.65c-.254.4-.542.132-.753.262a29.169,29.169,0,0,0-2.4-2.878v-15.486a31.063,31.063,0,0,0,2.369-2.8h22.837l.661-.86h2.23c.055-.188.088-.307.125-.421s.077-.231.126-.372h1.575l.642-1.648c.151-.036.325.081.485-.272v-4.838l.426-.553h3.838l3.017,5.249H389.29a28.731,28.731,0,0,1,2.445-4.026H394c.724,1.307.33,2.816.454,4.324a3.412,3.412,0,0,0,2.171.928c1.933-.012,3.867,0,5.657,0a2.86,2.86,0,0,0,1.588-2.451,3.269,3.269,0,0,1,1.091-2.021h2.809l.728.946v4.576l.64.289.066,1.021h4.12c.451.654,1.156.983.81,2.1H420.4v4.805l-.447.5h-5.6l-.574,1.581H409.35c-.427,1.746-1.71,2.141-2.688,3.068V-596H394.511v3.33a5.034,5.034,0,0,1-1.92,2.02H385.81c-.3.466-.138,1.026-.143,1.535-.021,2.172-.027,4.346,0,6.518a9.955,9.955,0,0,1-.742,3.271c-.034.106-.269.1-.519.188v6.422ZM333.4-605.595l1.663-2.167q11.254,0,22.446-.009c.079,0,.159-.137.239-.209-.017-.192.054-.415-.128-.552H334.641c-.548.911-1.358,1.485-1.716,2.566Zm37.489-5.834c7.757,0,15.414,0,23.072-.005.038,0,.083-.082.11-.137.114-.228-.212-.058-.008-.146a13.587,13.587,0,0,0-2.186-.56c-6.886.058-13.773.032-20.659.039-.089,0-.177.1-.265.149Zm3.06,8.08H393.1l-.674-.673h-17.95Zm15.5,5.007c-.129,1.789-.135,3.406,1.176,4.463l1.567-.094v-4.368Zm-5.084-.384h-9.033v.675h9.033Zm.858-11.832h-7.971l.125.217-.551.283c2.944.259,5.787.26,8.632.248.054,0,.106-.156.159-.236Zm-15.283-1.62h-6.484c-.091.277-.367.313-.3.749q3.167,0,6.35,0c.146,0,.319.093.438-.178ZM419.5-606.47h-5.587v.679H419.5Zm-22.438-4.521c.559.08,1.014.944,1.722.809a12.313,12.313,0,0,1,1.867-.029,6.755,6.755,0,0,0,1.956-.1c-.026-.307.043-.527-.159-.678Zm12.15,3.159h3.7v-.673h-3.7Zm-4.39.815H408.2v-.673h-3.388Z" transform="translate(-331.537 619.215)" stroke="rgba(0,0,0,0)" stroke-width="1"/>
</svg>
