<svg xmlns="http://www.w3.org/2000/svg" width="93.644" height="32" viewBox="0 0 93.644 32">
  <path id="navyrevolver" d="M-85.261,1976.318c-.455.041-1.062-.189-1.021.661.02.39-.352.344-.617.346-.839.007-1.677,0-2.516,0-2.124,0-4.248,0-6.373,0-.833,0-.835.016-.868.773-.01.222.017.446,0,.667-.057.6-.311.845-.948.885-.39.024-.783,0-1.174,0q-11.487,0-22.976.013c-.588,0-1.3-.3-1.757.208a3.537,3.537,0,0,0-.96,2,3.035,3.035,0,0,1-.5,1.349,2.211,2.211,0,0,1-3.546.145c-.184-.273-.313-.386-.608-.386-2.291,0-4.584.009-6.876,0-.421,0-.532.151-.6.567a2.573,2.573,0,0,1-2.353,2.1c-.389.025-.782,0-1.173,0-.372.007-.826-.118-.859.487a7.93,7.93,0,0,1-2.182.5c-1.169-.084-2.238.5-3.426.382-.664-.069-1.061.5-1.056,1.271.006.929-.365,1.786-.4,2.729-.048,1.2-1.278,1.626-2.2,1.905a14.337,14.337,0,0,1-5.656.744,1.78,1.78,0,0,1-1.16-.511,12.331,12.331,0,0,1-2.032-2.555,1.8,1.8,0,0,0-2.792-.586,4.811,4.811,0,0,0-2.193,3.824c-.051,1.108.031,2.222-.025,3.329-.032.625.455,1.09.375,1.736a2.723,2.723,0,0,0,.223,1.595,4.636,4.636,0,0,1,.079,1.8h-14.428a2.824,2.824,0,0,1,.112-.962c.55-1.328.968-2.712,1.578-4.009.912-1.939,1.778-3.9,2.732-5.814.443-.889.992-1.768,1.486-2.648a23.135,23.135,0,0,1,4.786-6.351,3.714,3.714,0,0,1,2.763-1.2,1.37,1.37,0,0,0,1.5-.792,2.292,2.292,0,0,1,1.271-1.171,2.446,2.446,0,0,0,1.2-1.914c.062-.32-.07-.741.094-.962.32-.432.041-.626-.226-.748a3.314,3.314,0,0,1-1.6-1.559,1.376,1.376,0,0,0-1.476-.858c-.342.056-.488-.165-.481-.5a7.84,7.84,0,0,0,0-.832c-.039-.479.124-.709.648-.686a4.593,4.593,0,0,1,3.1,1.225,2.176,2.176,0,0,0,2.946.326,6.874,6.874,0,0,1,3.579-.88q33.006.009,66.011,0a5.887,5.887,0,0,1,2.579.342Zm-28.367-1.34q12.983,0,25.968-.014c.448,0,1.295.255,1.281-.253-.021-.738-.87-.363-1.334-.365q-25.716-.031-51.433-.017c-.391,0-.783-.009-1.173.018a.266.266,0,0,0-.265.333.294.294,0,0,0,.318.289c.448,0,.894.01,1.34.01Zm-35.058,2.656v.011h4.669c.334,0,.666-.016,1-.006a.292.292,0,0,0,.338-.266c.041-.284-.136-.378-.39-.379-.223,0-.445-.005-.666-.005l-9.507.005a8.32,8.32,0,0,0-.833.018.27.27,0,0,0-.265.332.292.292,0,0,0,.317.289Zm-.375-4v.008q2.168,0,4.335,0a5.755,5.755,0,0,0,.832-.023.276.276,0,0,0,.216-.368c-.027-.091-.114-.223-.185-.231a7.38,7.38,0,0,0-.832-.027h-7.5c-.556,0-1.111,0-1.667,0-.215,0-.455-.015-.473.3s.227.331.443.331C-152.285,1973.641-150.673,1973.638-149.061,1973.638Zm-2.547,14.349a4.784,4.784,0,0,0-2.03.479c0,.854.615,1.336,1.142,1.87a.773.773,0,0,0,.119.115c.463.327,1.571.275,1.82-.136a2.248,2.248,0,0,0,.084-1.891C-150.635,1987.917-151.165,1987.959-151.607,1987.987Zm11.976-7.129a.6.6,0,0,0-.428-.741c-.345-.106-.147.43-.415.512a1.807,1.807,0,0,0-.446.168.721.721,0,0,0-.313.978c.224.383.731.257,1.048.159A.849.849,0,0,0-139.631,1980.858Z" transform="translate(178.405 -1970.802)" stroke="rgba(0,0,0,0)" stroke-width="1"/>
</svg>
