<svg xmlns="http://www.w3.org/2000/svg" width="151.882" height="41.871" viewBox="0 0 151.882 41.871">
  <path id="nightstick" d="M-365.354-191.944c-16.343,0-32.686.049-49.028-.046-2.585-.015-3.68.519-3.56,3.405.228,5.526.059,11.069.011,16.6a6.942,6.942,0,0,0,.767,2.653c1.237,3.16-.436,5.645-3.842,5.827-.562.03-1.127.012-1.69.013-6.507.012-7.22-.893-5.71-7.207a6.047,6.047,0,0,0,.111-1.4c0-5.822-.044-11.644.008-17.466.015-1.616-.422-2.407-2.209-2.4-7.508.03-15.016-.035-22.523-.07a6.425,6.425,0,0,0-2.409.673c-3.011,1.2-5.59-.367-5.769-3.566a47.057,47.057,0,0,1,.053-6.756,3.784,3.784,0,0,1,5.5-3.3,8.6,8.6,0,0,0,3.513.738q67.611-.05,135.222-.064c2.506,0,4.943.152,6.431,2.58a6.715,6.715,0,0,1,.165,6.987c-1.2,2.283-3.345,2.793-5.733,2.791Q-340.7-191.959-365.354-191.944Zm-7.9-10.328c-18.5,0-36.991-.028-55.486.056-1.361.006-3.931-1.027-3.922,1,.008,1.928,2.611,1.12,4.055,1.123q44.5.08,89,.041,11.407,0,22.814.007c1.334,0,2.665-.014,3.313,1.53.251.6.023,1.842,1.158,1.487.979-.306.78-1.428.62-2.226-.55-2.744-2.605-3.036-4.941-3.032Q-344.946-202.244-373.253-202.272Zm-50.686,36.35c.778-.157,2.485.414,2.478-.768-.008-1.484-1.746-.748-2.743-.935a3.253,3.253,0,0,0-1.123.007c-.584.1-1.564-.3-1.6.626-.037.962.946.983,1.684,1.063C-424.871-165.888-424.492-165.922-423.939-165.922Z" transform="translate(461.294 205.354)"/>
</svg>
