<svg xmlns="http://www.w3.org/2000/svg" width="55.397" height="36.78" viewBox="0 0 55.397 36.78">
  <path id="pistolMk2" d="M-220.532,2072.863H-234a7.6,7.6,0,0,0-1.995-2.155c-.269-1.538.183-3.059-.384-4.375,1.074-3.408,2.08-6.743,3.187-10.044a6.856,6.856,0,0,0,.231-3.626c-.663-.747-1.57-.734-2.2-1.16a4.492,4.492,0,0,1-.382-.776,5.477,5.477,0,0,1-.129-.994c-.029-.4.07-.833-.2-1.177-1.182-1.525-.5-3.2-.478-4.944a2.064,2.064,0,0,1-.48-2.178c.745-1.437,2.175-1.4,3.532-1.871-.05-1.035.163-2.021.963-2.351,2.26-.622,3.482.6,4.709,1.849h2.048c5.3,0,10.592-.009,15.888.008,1.122,0,2.307-.272,3.275.667.19.185.644.132.979.132,4.209.007,8.418-.009,12.628.017a2.7,2.7,0,0,0,2.062-.687c1.832-1.976,4.053-1.27,5.823-1.248,1.013.61.536,1.419.749,1.609l1.6,1.177v8.133c-.47.286-.459,1-1.308,1.23l-2.029.108c-.435.482-.128,1.078-.687,1.479h-18.965c-.4-.283-.384-.931-.913-.973a1.718,1.718,0,0,0-1.263,1.251c-.394,1.023.471,1.765.673,2.742a6.717,6.717,0,0,1-5.885,3.54c-1.688.127-3.393.01-5.09.033-.518.006-1.092-.182-1.542.269-.334,2.927-.883,5.825-.929,8.778a1.679,1.679,0,0,1-.154.581,3.245,3.245,0,0,0,.267,3.1A1.478,1.478,0,0,1-220.532,2072.863Zm29.911-28.368a2.509,2.509,0,0,0-1.974-.442c-3.4-.021-6.793-.01-10.191-.01-3.871,0-7.744-.007-11.615.013-.389,0-1-.262-1.069.5C-213.677,2044.87-192.563,2044.858-190.621,2044.495Zm-21.457,10.366c.8-1,.437-1.964.411-3.037-1.09.053-2.132-.465-3.018.477-.242.187-2.108,1.645-1.789,2.425C-216.207,2055.38-214.437,2055.459-212.079,2054.861Zm-4.959-14.087c.435.5.514.678.6.678q3.666.023,7.335,0c.207,0,.305-.221.235-.624C-211.448,2040.721-214.058,2040.8-217.038,2040.774Zm8.366,7.824q-.005-.218-23.116.074l.165.874Q-208.663,2048.819-208.672,2048.6Z" transform="translate(237.464 -2036.583)" stroke="rgba(0,0,0,0)" stroke-width="1"/>
</svg>
