<svg xmlns="http://www.w3.org/2000/svg" width="47.54" height="34.735" viewBox="0 0 47.54 34.735">
  <g id="Сгруппировать_2869" data-name="Сгруппировать 2869" transform="translate(0.5 0.47)">
    <path id="Контур_2971" data-name="Контур 2971" d="M0,28.294q2.288-5.209,4.574-10.419a14.919,14.919,0,0,0,.642-1.688c.389-1.288.206-1.791-.891-2.64a8.838,8.838,0,0,1-.885-.637c-.991-.99-.722-2.09.613-2.618.438-.174.87-.364,1.272-.533.094-.911-.621-1.219-1.046-1.687A3.36,3.36,0,0,1,3.2,5.849C3.159,4.36,4.342,3.3,5.668,3.933a2.666,2.666,0,0,0,2.7-.249,7.468,7.468,0,0,1,3.875-1.046C13.216,1.4,13.808-.546,16.062.144c1.721.527,1.833,2.047,2.062,3.4a3.142,3.142,0,0,0,1.7.207c5.852.011,11.7,0,17.554.011.86,0,1.712.054,2.322-.733a1.334,1.334,0,0,1,1.175-.361c1.277,0,2.555,0,3.667,0,.751.446.406,1.116.725,1.656.461.278,1.269.344,1.269,1.217,0,2.535,0,5.072,0,7.421a1.827,1.827,0,0,1-1.589.462,4.043,4.043,0,0,0-2.91.736,3.094,3.094,0,0,1-2.113.366H26.339a8.352,8.352,0,0,0-1.375,2.729,3.753,3.753,0,0,1-3.99,2.757c-1.026-.1-2.071-.02-3.107-.017-1.991.009-2.907.658-3.463,2.5-.782,2.6-1.506,5.212-2.332,7.794a5.51,5.51,0,0,0-.264,1.777,2.148,2.148,0,0,1-.466,1.7H9.878C7.82,33.207,5.785,32.52,3.7,32.127a4.19,4.19,0,0,1-3.7-3.1ZM6.977,10.269c1.773.663,35,.573,36.541,0Zm36.593-4.7a1.342,1.342,0,0,0-1.148-.5c-5.464.055-10.93-.142-16.394.109-.029,0-.068.082-.078.131-.055.237.226.049-.147.263ZM21.687,13.791a2.106,2.106,0,0,0-1.779,1.823,1.36,1.36,0,0,0,1.06,1.606A3.086,3.086,0,0,0,21.687,13.791Zm-2.329-8.4A10.716,10.716,0,0,0,24.18,5.34,10.458,10.458,0,0,0,19.358,5.39Z" transform="translate(0)" fill="#fff" stroke="rgba(0,0,0,0)" stroke-width="1"/>
  </g>
</svg>
