<svg xmlns="http://www.w3.org/2000/svg" width="55.501" height="33.655" viewBox="0 0 55.501 33.655">
  <path id="pistol" d="M-195.762,2010.974h2.661c.816,1.657,2.484,1.789,3.994,2.207v4.855c-.818.032-1.856-.376-1.828,1.118.032,1.659.015,3.581-2.391,3.234-2.33-.337-1.228,3.2-3.467,2.706a6.285,6.285,0,0,0-1.327-.01q-5.1,0-10.2,0c-2.932,0-3,0-2.954,3.011.032,1.976-.759,2.8-2.753,2.746-2.954-.08-5.917.089-8.866-.056-2.255-.11-3.388.906-3.959,2.93-.766,2.712-1.612,5.4-2.4,8.111-.313,1.075-.861,1.8-2.106,1.8-3.325-.013-6.652.024-9.977-.02-1.355-.019-2.384-.8-2.264-2.145.4-4.5,1.15-8.885,3.977-12.7,2.386-3.219,1.832-4.587-1.966-5.955a2.163,2.163,0,0,1-1.508-1.454c-.173-.772.548-1.26,1.109-1.446,1.845-.617,1.456-1.359.313-2.334a5.372,5.372,0,0,1-1.09-1.357c-.322-.548-.706-1.112-.142-1.8.524-.641,1.221-1.072,1.914-.738,1.808.866,3.219.225,4.654-.819a4.193,4.193,0,0,1,2.756-.55c5.069.216,10.135.021,15.221.341,6.991.444,14.032.063,21.051.149C-195.768,2012.819-195.58,2012.165-195.762,2010.974Zm-30.815,5,.061.618h30.15l-.013-.708C-206.445,2015.861-216.513,2015.689-226.578,2015.979Zm30.228,4.21v-.55h-26.359l0,.55Zm-21.273,4.06c-.535.385-2.294-.964-2.138,1.125.112,1.508.233,3.124,2.581,2.855,1.327-.153,2.38-.054,2.443-1.944C-214.663,2024.121-215.82,2024.037-217.622,2024.248Zm-18.328-10.312.061.544h15.516l-.007-.544Z" transform="translate(244.108 -2010.474)" stroke="rgba(0,0,0,0)" stroke-width="1"/>
</svg>
