<svg xmlns="http://www.w3.org/2000/svg" width="72.745" height="35.896" viewBox="0 0 72.745 35.896">
  <path id="revolver" d="M-153.323,1878.756a17.722,17.722,0,0,0,.991-3.657,48.809,48.809,0,0,1,3.921-10.729,11.013,11.013,0,0,0,1.519-6.437,3.224,3.224,0,0,1,.032-.622c.757-1.455,2.351-1.656,3.363-2.465a.9.9,0,0,0-.258-1.267,11.855,11.855,0,0,0-3.211-.5c-.468-.63-.257-1.276-.23-2,2.238-1.15,4.185-.244,6.17.883.462-.8.044-1.654.275-2.427a1.777,1.777,0,0,1,.886-1.035c1.749-.077,1.91,0,2.575,1.27,2.872.092,5.744.473,8.659.457,12.544-.071,25.087-.031,37.72-.031.856-.779,2.273-.432,3.069-1.408h3.411a11.066,11.066,0,0,0,2.274,1.165c.962,1.746.4,3.677.572,5.389a4.808,4.808,0,0,1-3.65,3.681,7.441,7.441,0,0,1-1.767.134q-15.322.014-30.644.006h-1.95c-.583.44-.653,1.144-1,1.589-.225.938.152,1.86-.285,2.706-.9.715-2.006.071-3.13.564-.557,1.679-1.15,3.518-2.855,4.7a8.909,8.909,0,0,1-5.54,1.5,5.867,5.867,0,0,1-4.828-2.948c-.68,1.212.068,2.041.4,2.917.023,2.043.023,2.043-1.674,3.4.925,3.42.923,3.422-1.073,4.723-.405,1.317.281,2.563.225,3.824a2.537,2.537,0,0,1-2.1.922c-.3-.01-.6,0-.755.327h-11.114Zm24.365-12.441c.872-.705,1.717-1.317,1.668-2.507a9.446,9.446,0,0,0-3.885-.312.805.805,0,0,0-.575.739A4.911,4.911,0,0,0-128.958,1866.315Z" transform="translate(153.823 -1847.996)" stroke="rgba(0,0,0,0)" stroke-width="1" opacity="0.5"/>
</svg>
