<svg xmlns="http://www.w3.org/2000/svg" width="75.777" height="22.789" viewBox="0 0 75.777 22.789">
  <g id="Сгруппировать_2871" data-name="Сгруппировать 2871" transform="translate(0.523 0.469)">
    <g id="Сгруппировать_2867" data-name="Сгруппировать 2867" transform="translate(-0.023 0.031)">
      <path id="Контур_2970" data-name="Контур 2970" d="M73.283,0c.041.366.357.479.36.96,0,.464.462.478.681.673.606.929.411,2.041.447,3.055l-.414.611H73.8V8.145l-.262.364H71.873c-.143.282-.025.559-.113.864l-.2.284h-1.8c-.347-.216-.278-.665-.258-1.1H66.587a3.137,3.137,0,0,1-.635,1.092c-.327-.074-.623.18-.9.3a2.689,2.689,0,0,1-1.1.177q-7.423.009-14.849,0l-.436-.613V8.538H42.495l-.4.668H33.928a2.363,2.363,0,0,0-.556,1.281,19.236,19.236,0,0,1-.866,2.609c-.277.774-.735,1.2-1.4,1.184-1.428-.032-2.858-.01-4.273-.01a4.719,4.719,0,0,0-.839,1.6c-.391,1.193-.835,2.354-1.269,3.563a1.967,1.967,0,0,1,.17,1.21l-.75,1c-.855-.462-1.748-.872-2.625-1.35a5.018,5.018,0,0,0-1.218-.623c-.4-.086-.505-.564-.658-.979a8.876,8.876,0,0,1,1.146-2.672q1.29-2.655,2.627-5.268a4.179,4.179,0,0,0,.369-.978c-.362-.359-.457.43-.742.342H20l-.387-.671H18.063c-.1.224-.112.554-.3.634a1.982,1.982,0,0,1-1.347.252,3,3,0,0,1-.5,1.384H13.394a20.239,20.239,0,0,0-2.822,2.326c-.683.668-1.378,1.314-2.035,2.031-1.116,1.22-2.229,2.441-3.385,3.591a12.774,12.774,0,0,1-1.217,1.2,1.23,1.23,0,0,1-.9.326A9.168,9.168,0,0,0,1.9,21.175l-.491-.685a8.193,8.193,0,0,1-.251-2.815c0-.844-.048-1.694.011-2.53.07-.991-.2-1.923-.178-2.9a.494.494,0,0,0-.033-.208A23.288,23.288,0,0,0,0,9.667V5.525c.278-.159.23-.593.378-.828.339-.444.753-.315,1.146-.322.412-.007.824,0,1.236,0H3.933c.045.22-.011.351.111.443h9.264l.123-.423h2.348l.451.632h3.7c.4-.606.494-1.518,1.277-1.8.659,0,1.483-.027,2.3.014a1.573,1.573,0,0,0,.9-.325,6.849,6.849,0,0,1,1.642-.86,4.536,4.536,0,0,1,1.6-.44c.26-.445.613-.16.921-.225.336-.07.637-.342,1-.248a3.371,3.371,0,0,0,.818.013A1.9,1.9,0,0,1,30.534,0H33.34a2.4,2.4,0,0,1,.181,1.107H70.845c.4-.182.223-.59.327-.813.1-.122.313.021.294-.294ZM4.313,15.8c.705-.664,1.3-1.234,1.9-1.785.773-.708,1.54-1.432,2.336-2.087a6.327,6.327,0,0,0,.933-1.085H5.906c-.572.459-.7,1.388-1.2,1.791-.153.077-.3-.053-.389.107ZM.7,9.628H15.664V9.245H.715A.421.421,0,0,0,.7,9.628ZM34.151,2.639c-.073-.153-.163-.1-.239-.106-1.727,0-3.455,0-5.182,0a5.111,5.111,0,0,0-1.2.385c-.482.119-.909.458-1.4.568a9.277,9.277,0,0,0-1.659.713v1.8c.117-.025.209.04.292-.16V4.7c.105-.128.184-.307.267-.312a6.137,6.137,0,0,0,1.851-.707,6.556,6.556,0,0,1,3.168-.7,23.291,23.291,0,0,0,2.385.016h1.719Zm8.118,3.767H48.84V6.024H42.269ZM30.756,12.222a2.357,2.357,0,0,0,.6-1.289.326.326,0,0,0-.092-.339c-.027-.356-.384-.138-.469-.429H29.722l-.017.468c.138.584.872.615.716,1.542C30.471,12.267,30.591,12.17,30.756,12.222ZM74.261,2.587c-.323-.237-.469-.518-.75-.517-1.113,0-2.226,0-3.35,0v.46c.5,0,.984-.018,1.469,0a5.256,5.256,0,0,1,2.311.22C73.977,2.775,74.034,2.711,74.261,2.587ZM23.752,6.024H20.183a.43.43,0,0,0,0,.382h3.57Zm-7.562.844h3.437V6.483H16.189ZM1.207,5.484H3.423A.435.435,0,0,0,3.415,5.1H1.05c-.112.252-.414.356-.393.761.06.127.14.132.269.121Zm68.4.77H66.893a.43.43,0,0,0,0,.382H69.6A.43.43,0,0,0,69.606,6.254Zm.029-4.141H67.357v.379h2.278ZM13.879,5.525H15.3c.1.354.1.354.307.465a.717.717,0,0,0-.151-.886H13.879Zm57.769.42h1.784V5.564H71.648ZM43.258,2.725h1.622V2.34H43.258Zm3.9-.384H45.6a.432.432,0,0,0-.006.383h1.557A.43.43,0,0,0,47.161,2.341Zm2.31,0H47.914a.43.43,0,0,0-.006.383h1.557A.43.43,0,0,0,49.471,2.341Zm2.379.4c-.041-.2.014-.331-.055-.385H50.159c.033.161-.022.291.1.385Zm2.292-.421c-.345-.008-.691-.033-1.037-.016-.207.011-.431-.11-.62.1,0,.088,0,.166,0,.24,0,.03.036.054.055.081C53.815,2.8,53.815,2.8,54.143,2.324Zm2.311,0c-.346-.008-.692-.033-1.037-.016-.207.011-.431-.11-.62.1a2.273,2.273,0,0,0,0,.24c0,.03.036.054.055.081C56.126,2.8,56.126,2.8,56.454,2.324Zm.67.4h1.618v-.38H57.124Zm2.335,0h1.556a.425.425,0,0,0,.013-.383H59.472A.428.428,0,0,0,59.459,2.723Zm2.286,0h1.619V2.342H61.745Zm3.931-.383H64.054v.385h1.622Z" transform="translate(0 0)" fill="#fff" stroke="rgba(0,0,0,0)" stroke-width="1"/>
    </g>
  </g>
</svg>
