<svg xmlns="http://www.w3.org/2000/svg" width="114.919" height="44.377" viewBox="0 0 114.919 44.377">
  <path id="smg" d="M441.224-532.713c-.645-.066-1.152.534-1.835.425a12.558,12.558,0,0,0-1.957-.022c-.586,1.094-.737,1.152-3.3,1.285l-.7.785h-4.451v2.709H402.11c-.616,1.5.717,2.831.095,4.181.89.682,1.871,1.1,1.925,2.417a2.049,2.049,0,0,1-1.808.751c.089.76-.172,1.433.279,2.242.321.578.112,1.46.389,2.231q1.152,3.2,2.235,6.438c.33.982.666,1.978,1.106,3.078a45.851,45.851,0,0,1-6.595,4.247,3.945,3.945,0,0,1-1.351-2.493c-.621-2.209-1.49-4.3-2.211-6.453a12.785,12.785,0,0,1-.755-3.1,27.6,27.6,0,0,0-.77-3.669c-.678-.5-1.155.506-1.794.3-.913-.338-.539-1.32-.66-1.946-.687-.241-1.009.688-1.591.316l-1.835,2.078a29.31,29.31,0,0,1-10.49-.11l-1.473-1.654c-1.506,3.387-2.769,6.85-4.441,10.148a4.719,4.719,0,0,1,.5,2.192c-.2.312-.378,1.2-1.223,1.521a7.164,7.164,0,0,1-2.672-.931c-1.821-.992-3.787-1.455-5.641-2.294-1.3-.593-1.342-.49-2.107-1.91.381-1.943,1.61-3.305,2.555-4.884,1.318-2.208,2.952-4.186,3.942-6.643.139-.343.554-.561.654-.906.176-.615.544-1.118.732-1.681a7.208,7.208,0,0,0,.044-2.072,7.809,7.809,0,0,1-2.347-2.135h-4.954c-3.3-2.192-4.484-3.854-4.7-5.613h-22.1a2.39,2.39,0,0,1-1.3,1.773c-1.089.387-1.149,1.438-1.318,2.231-.569,2.693-1.121,5.389-1.826,8.045-.158.6.117,1.32-.514,1.813-.065.4-.6.122-.738.61a4.713,4.713,0,0,1-2.012-3c.553-.916.27-2.007.488-3a15.9,15.9,0,0,0,.6-3.567c-.015-1.953-.009-3.905,0-5.858a12.285,12.285,0,0,1,.4-4.475,3.417,3.417,0,0,1,1.773-1.479c1.512.106,3.5-.594,4.466,1.977h21.953a19.656,19.656,0,0,1,2.971-3.346c1.252-1.224,2.582-.989,3.951-1.069.179-.328.669-.437.5-.964a3.129,3.129,0,0,1,2.118-.66c1.86.048,3.722.015,5.584.015a2.579,2.579,0,0,1,1.886.377l.646,1.582h43.367c.292-.347.042-.841.193-1.689.039-.264.874-.025,1.006-.675h6.486c.207.646.893.69,1.2,1.407.331.773-.071,1.589.4,2.223,1,.167,1.434-1.055,2.253-1.173a19.867,19.867,0,0,1,2.847-.032c1.353.512,1.638,1.681,1.591,3.079-.02.58,0,1.163,0,1.8H436.7c.485.313.475.839.735,1.181a12.59,12.59,0,0,0,1.963-.022c.679-.109,1.181.491,1.823.427Zm-39.6-1.687h26.594v-.666H401.62Zm.071-4.036h25.431l-.9-.671H401.677A.63.63,0,0,0,401.691-538.436Zm-11.316,3.37H365.582v.664h24.793Zm10.091-4.041H377.115v.666h23.351Zm-65.458,2.692h22.134a.62.62,0,0,0,.02-.676H335.028A.62.62,0,0,0,335.009-536.416Zm51.378,15.784v-3.463l-.449-.5h-3.725c-1.157,1.361.158,2.661-.035,3.965Zm-5.018-7.974H368.823v.673h12.546ZM375.6-540.323h-7.857v.677h8.46Zm-13.524-1.613c-.494.722-1.437.955-1.973,1.776-.494.755-1.657.772-1.773,1.966.1.082.225.24.276.214,1.491-.753,2.508-2.228,4.1-3.27h1.613a.614.614,0,0,0,.066-.687Zm10.552-1.628h-6.617a.563.563,0,0,0,.077.748c2.267,0,4.536,0,6.8-.01.065,0,.127-.151.19-.231Zm53.071.005h-6.423v.676H425.7Zm-27.753,7.683h-6.415v.666h6.415Zm-64.165-1.992a1.237,1.237,0,0,0-.443-1.26h-2.984c-.276.379-.786.625-.274,1.181A3.678,3.678,0,0,1,333.78-537.867Zm65.247,10.475h-4.255v.671h4.255Zm-10.382-.472c1.247,0,2.479,0,3.712-.01.06,0,.119-.155.167-.219l-.426-.517h-3.453Z" transform="translate(-326.805 545.741)" stroke="rgba(0,0,0,0)" stroke-width="1"/>
</svg>
