<svg xmlns="http://www.w3.org/2000/svg" width="85.792" height="25.375" viewBox="0 0 85.792 25.375">
  <g id="Сгруппировать_2883" data-name="Сгруппировать 2883" transform="translate(-1321.829 714.499)">
    <path id="Контур_2795" data-name="Контур 2795" d="M1407.121-701.935a.9.9,0,0,1-.712.206c-1.361-.005-2.723,0-4.067,0a.946.946,0,0,1-.326-.6h-19.911c-.083.271-.01.625-.331.791h-.681a1.5,1.5,0,0,1-1.5.63q-11-.017-22.028-.007a2.52,2.52,0,0,0-.054.893c0,2.555,0,5.109,0,7.664,0,.422.1.876-.415,1.253a12.734,12.734,0,0,0-2,.41c-.05.023-.115,0-.172,0a3.171,3.171,0,0,0-1.245.173c-.362.181-.835-.082-1.227.226-.08.063-.227.016-.343.008a2.854,2.854,0,0,0-1.149.193c-.34.118-.731-.119-1.065.205-.087.083-.282,0-.426.014-.33.025-.663-.075-.982.187-.168.137-.378-.039-.568-.349V-696.1a2.953,2.953,0,0,1-3.755.125c-.175.512.128,1.163-.324,1.737-.256.1-.472.451-.753.76v1.36a1.5,1.5,0,0,1-.706.71.682.682,0,0,1-.711,0c-.664-.339-1.336-.65-2.038-.986-.57-1.055-.065-2.033.364-2.925a7.727,7.727,0,0,1,1.268-1.941,1.527,1.527,0,0,0,.005-2.4c-.065-.068-.123-.144-.193-.227h-3.306l-.821-1.033h-6.215v1.293l-.459.547h-3.146c-.155.275-.02.589-.1.918a1.369,1.369,0,0,1,.842,1.063,2.324,2.324,0,0,1-1.929,1.511,13.3,13.3,0,0,1-2.971.192c-.1-.136-.2-.255-.362-.223-.118-.14-.06-.4-.249-.495a8.56,8.56,0,0,0-.012-1.222c-.072-.491.241-.869.2-1.35a4.075,4.075,0,0,1,.019-1.418,7.876,7.876,0,0,0,.153-1.049c.076-.515-.228-.942-.19-1.45a4.431,4.431,0,0,0-.017-1.521,10.534,10.534,0,0,1-.156-2.161,1.652,1.652,0,0,1,.915-.758h2.544c.076-.109.18-.27.3-.421a1.031,1.031,0,0,1,.9-.411c2.117.006,4.234.019,6.351-.014.329-.005.568.233.884.247a.437.437,0,0,1,.321.559h11.987v-1.57h6.4a12.753,12.753,0,0,0,.06-1.381c-.23-.148-.432-.07-.626-.081-.168.146-.015.389-.122.58h-3.9l-.208-.245v-3.139l.223-.262h3.651a.729.729,0,0,1,.3.571h1.655c.12-.249.023-.558.058-.866.072-.2.316-.272.344-.532h1.741c.306.417.084.961.227,1.431,1.466,0,2.913,0,4.36,0a2.793,2.793,0,0,0,.545-.157c.44-.082.806-.434,1.24-.446,1.062-.029,2.125-.009,3.18-.009v3.68c-1.118,0-2.213,0-3.309,0a.926.926,0,0,1-.382-.15,4.644,4.644,0,0,0-1.316-.448,16.156,16.156,0,0,0-1.892-.018v1.455h15.8c.664.411.846,1.149,1.3,1.612,1.3,0,2.6,0,3.908,0a1.671,1.671,0,0,1,1.15.435c.118.1.214.215.373.181.3-.063.5.217.723.3.071.172-.045.359.094.494h19.9a.926.926,0,0,1,.322-.594c1.347,0,2.708,0,4.069,0a.9.9,0,0,1,.711.207Zm-26.651-4.259h-45.918v.338h45.918Zm-54.827,2.792h21.731l-.391-.337h-21.3Zm56.281-1.226h20.091a.323.323,0,0,0,.014-.341h-20.091A.323.323,0,0,0,1381.925-704.628Zm-27.531-4.293h2.985c-.122-.349.073-.686-.1-.956h-2.882Zm-27.91,2.027h7.563l-.28-.343h-6.991Zm29.084,7.229a3.416,3.416,0,0,0-.33,1.308c.027,1.593.019,3.187,0,4.781a1.81,1.81,0,0,0,.325,1.07Zm-2.262.776a1.765,1.765,0,0,0-.326,1.065q.022,2.441,0,4.883a1.652,1.652,0,0,0,.325,1.051Zm-2.435.656a3.224,3.224,0,0,0-.332,1.317c.025,1.56.019,3.12,0,4.68a1.621,1.621,0,0,0,.328,1.138Zm5.264-13.347h4.5v-.341h-4.5Zm9.021-.955h-2.85l-1.2.74c.436.314.436.314,1.42-.4h2.632Zm-13.405,0h-3.1v.338h3.1Zm-9.143,14.076h1.479l.056,1.243c.139-.035.236.022.322-.16-.044-.455.045-.983-.039-1.461h-1.831A.358.358,0,0,0,1342.606-698.457Zm11.581-13.463h-2.056v.338h2.056Zm-24.2,10.632h-1.708v.339h1.708Z" fill="#eaeaea" stroke="rgba(0,0,0,0)" stroke-width="1"/>
  </g>
</svg>
