<svg xmlns="http://www.w3.org/2000/svg" width="69.962" height="42.864" viewBox="0 0 69.962 42.864">
  <path id="stungun" d="M-284.543,2186.184h-6.117c-.072-.175-.139-.5-.219-.5-2.532-.089-4.916-.992-7.4-1.341-1.041-.147-1.962-.934-2.952-.574a6.9,6.9,0,0,1-2.075-2.545c.676-2.134,1.4-4.067,2.183-5.972a71.511,71.511,0,0,1,4.543-9.079c1.286-2.2,2.61-4.461,2.324-6.248-1.144-2.712-3.479-2.9-4.132-4.163-.625-2.033.46-3.093,1.041-4.252a15.2,15.2,0,0,1,1.89-3.494c.854-.973.71-2.667,2.252-3.194,1.424,0,2.862.1,4.276-.023a6.2,6.2,0,0,1,5.859,2.422h36.2c.314-1.409,1.592-2.016,2.27-2.9h5.122a5,5,0,0,1,.789,3.3c1,.555,2.026.626,2.7,1.386.8.671.465,2.051,1.6,2.506v1.216c-.1,0-.26-.042-.293.008-1.427,2-.861,4.265-.854,6.456.815.142.126,1.466,1.147,1.445v2.432c-.386-.069-.627.18-.591.479.082.666-.458,1.108-.7,1.53-1.016,1.761-2.874,2.21-4.759,2.229-5.492.056-10.984.028-16.475.015a6.154,6.154,0,0,0-3.89.952,8.656,8.656,0,0,1-5.777,1.532c-2.625-.187-5.273-.045-7.623-.045l-2.838-1.453a3.557,3.557,0,0,0-.594,1,41.767,41.767,0,0,1-2.695,7.085C-281.692,2179.666-282.748,2183.088-284.543,2186.184Zm-11.683-31.619h39.574c.483.668-.087,1.393,1.008,2.09-.661-1.368.5-2.1.463-3.206h-40.888Zm27.739,10.842c1.573.185,3.314.419,4.772-.877a3.471,3.471,0,0,0,1.052-3.8h-7.009c-.368.463-.933.674-.792,1.35A8.161,8.161,0,0,1-268.487,2165.407Zm-22.785-6.692h4.741l2.134,1.679v3.309c.427-.072.756.108,1.023-.313v-3.348l-2.224-2.535c-1.895.368-3.823-.311-5.672.406A4.22,4.22,0,0,0-291.271,2158.714Zm14.8-8.922c4.859.749,16.241.63,18.514,0Zm38.3.4c-5.119-.764-16.254-.64-18.491,0Zm.059,3.24h-9.731l1.774,1.018h7.957Zm-1,8.935H-237a.788.788,0,0,0-.131-1.119h-3.25c-.332.378-.82.874-1.226,1.429-.136.188-.062.525-.09.9h2.286Z" transform="translate(303.851 -2143.819)" stroke="rgba(0,0,0,0)" stroke-width="1" opacity="0.5"/>
</svg>
