<svg xmlns="http://www.w3.org/2000/svg" width="66.647" height="35.137" viewBox="0 0 66.647 35.137">
  <path id="vintagepistol" d="M-357.192,2209.778h6.95c.077.542.875.721.829,1.144-.122,1.174.579,1.022,1.316,1.022q13.742-.017,27.487-.008c4.04,0,8.081-.014,12.121.015.654.005.92-.173.827-.829-.051-.363.164-.472.5-.485,1.676-.069,3.305-.689,5.014-.434.288.042.592,0,.558-.426h.435c.08.465.592.763.446,1.333-.158.627.126.876.8.84,1.152-.06,2.234.1,2.662,1.423.117.357.426.288.7.292.43.007.958-.129,1.265.069.472.3.166.922.195,1.4.042.719,0,1.438.013,2.158.016,1.015.164,2.106-1.423,2a.4.4,0,0,0-.306.233,2.189,2.189,0,0,1-1.527,1.513,6.157,6.157,0,0,1-2.436.4c-4.413-.007-8.825.018-13.236-.015a11.763,11.763,0,0,0-4.379.962,22.125,22.125,0,0,0-2.688,1.36,21.638,21.638,0,0,0-4.652,3.378,28.184,28.184,0,0,1-2.966,2.346,4.82,4.82,0,0,1-3.238,1.075c-2.3-.149-4.626-.047-6.942-.04-1.447.005-2.146.649-2.711,2.081-.886,2.245-1.283,4.643-2.192,6.862a2.87,2.87,0,0,0,.182,3.045c.206.282.124.352.022.636-.226.631-.523.791-1.2.783-4.34-.042-8.681-.02-13.019-.022a3.013,3.013,0,0,1-2.9-1.3v-.864c1.037-.916.556-2.4,1.3-3.43.581-3.732,2.07-7.243,2.646-10.988.332-2.158.441-2.848-1.161-3.661a2.685,2.685,0,0,1-1.49-2.633c-.033-.412.213-1.124-.142-1.186-1.223-.212-.654-1.086-.694-1.653a29.914,29.914,0,0,1-.011-3.661,2.114,2.114,0,0,1,1.279-2.137c.441-.158.915-.482.836-.8C-358.337,2210.652-357.3,2210.465-357.192,2209.778Zm20.632,9.5q-10.2,0-20.4.015c-.368,0-1-.3-1.073.315-.108.916.692.515,1.079.515q20.4.032,40.8.018a6,6,0,0,0,.867-.015c.091-.013.195-.193.226-.314.055-.217-.02-.5-.231-.518a14.039,14.039,0,0,0-1.518-.018Zm24.129-3.455h12.575a10.667,10.667,0,0,0,1.082-.015c.086-.009.191-.195.222-.317a.409.409,0,0,0-.237-.52,2.315,2.315,0,0,0-.645-.012H-324.8a2.489,2.489,0,0,0-.858.022c-.246.1-.574.353-.6.57-.046.4.368.266.6.266Q-319.043,2215.829-312.432,2215.823Zm-20.016,6.909c-1.749,0-1.939.1-2.434,1.36a3.155,3.155,0,0,0,.312,2.764c.419.778,1.2.6,1.9.634,1.168.055,1.89-.676,2.708-1.344a2.027,2.027,0,0,0,.486-2.343c-.168-.638-1.057-.809-1.684-1.042A3.9,3.9,0,0,0-332.448,2222.733Zm-14.562-6.909q5.636,0,11.27,0c.241,0,.647.126.618-.261-.016-.213-.348-.5-.592-.574a3.845,3.845,0,0,0-1.077-.025h-21.022a4.261,4.261,0,0,0-.864.014.389.389,0,0,0-.246.507c.031.124.129.319.213.327a10.623,10.623,0,0,0,1.081.015Zm16.093-1.727c1.224,0,2.451-.007,3.675.005.4,0,.488-.224.452-.535-.027-.225-.164-.341-.434-.339q-3.46.017-6.92,0c-.4,0-.488.223-.452.534.027.224.166.344.435.341C-333.08,2214.087-332,2214.1-330.917,2214.1Z" transform="translate(361.169 -2209.278)" stroke="rgba(0,0,0,0)" stroke-width="1"/>
</svg>
