<svg xmlns="http://www.w3.org/2000/svg" width="155.557" height="32.259" viewBox="0 0 155.557 32.259">
    <path id="wrench"
          d="M-368.251,149.168c-2.462-.188-4.932-.315-7.387-.577-3.491-.374-5.086-2.1-4.887-5.137.184-2.8,2-4.333,5.352-4.41,1.536-.036,3.078.144,4.613.09,6.185-.218,12.371-.45,18.551-.787a5.137,5.137,0,0,0,2.244-1.144c4.138-2.817,8.8-2.188,12.282,1.372a7.9,7.9,0,0,0,4.1,1.984,54.08,54.08,0,0,0,7.472.506c5.106.166,8.133,2.919,9.7,7.591,2.337,6.955-.721,14.957-6.957,18.037a9.064,9.064,0,0,1-2.719.874c-3.964.546-4.834-.533-4.065-4.428.613-3.1,1-6.253,1.375-9.4.378-3.165-.138-3.546-3.743-2.9-.237,2.32-.453,4.7-.729,7.065-.639,5.482-1.855,6.356-7.256,5.822-5.249-.519-10.515-1.074-15.782-1.174-20-.38-39.995-.778-59.992-.784-14.221,0-28.442.613-42.663.949-2.115.05-4.231.156-6.345.111-3.823-.081-5.789-2-5.893-5.623s1.972-6.229,5.548-6.459c2.477-.159,4.984.237,7.48.271,12.777.177,25.56.6,38.333.4,16.243-.262,32.477-1.047,48.715-1.6.86-.029,1.722,0,2.583,0Z"
          transform="translate(470.985 -135.438)"/>
</svg>
