<svg xmlns="http://www.w3.org/2000/svg" width="183.414" height="164.757" viewBox="0 0 183.414 164.757">
    <g transform="translate(1121.012 92.558)" opacity="0.5">
        <path d="M-1075.006,71.412a36.342,36.342,0,0,1-10.019-6.387c-8.287-7.355-13.536-16.616-16.716-27.1a73.648,73.648,0,0,1,.422-44.1c.1-.318.177-.641.325-1.18a42.183,42.183,0,0,0-10.792,6.007,53.221,53.221,0,0,0-8.431,9.015,1.724,1.724,0,0,1-.252-1.235c-.4-8,1.816-15.395,5.181-22.527a128.6,128.6,0,0,1,10.257-17.084c.682-1.007,1.359-2.018,2-3.053.224-.364.764-.72.506-1.163-.212-.362-.775-.148-1.178-.149q-7.53-.018-15.062-.008H-1120c-.111-.525.282-.669.5-.892,5.2-5.4,10.625-10.564,16.054-15.726,3.623-3.445,6.623-7.433,9.915-11.165,6.789-7.7,14.312-14.494,23.464-19.31a64.67,64.67,0,0,1,24.093-7.109c13.48-1.314,26.212,1.636,38.555,6.732a141.507,141.507,0,0,1,26.3,14.019A75.276,75.276,0,0,1-968.086-59.8a8.3,8.3,0,0,1,2.279,3.625c.112.485.429.391.777.412,10.375.629,18.245,5.653,24.134,13.975,2.048,2.893,2.233,6.411,2.572,9.813.544,5.471.077,10.942-.081,16.413-.047,1.632-.007,3.266-.007,4.827-.5.235-.645-.066-.81-.231-2.682-2.692-5.685-5.06-8.106-8.012a1.125,1.125,0,0,0-1-.393c-12.285.012-24.573-.1-36.855.081-6.112.092-11.51,2.685-16.419,6.16a61.943,61.943,0,0,0-23.893,33.39,95.866,95.866,0,0,0-3.685,21.626c-.636,9.311-.387,18.625-.246,27.941.025,1.648,0,1.663-1.468.961a130.635,130.635,0,0,1-30.244-19.57,68.7,68.7,0,0,1-13.4-15.456c-.095-.154-.223-.288-.391-.5a17.177,17.177,0,0,0-1.451,5.784,100.738,100.738,0,0,0,1.291,29.507C-1075.044,70.764-1075.044,70.987-1075.006,71.412Zm45.817-135.836a10.126,10.126,0,0,0,2.035,2.525c1.989,1.821,4.011,3.605,6.021,5.4a3.162,3.162,0,0,1,.976,1.362,12.481,12.481,0,0,0,4.375,5.983c4.932,3.768,10.456,4.179,16.229,2.614,4-1.084,6.131-3.911,6.435-8.015.065-.874-.194-1.168-1.054-1.269a165.57,165.57,0,0,1-18.011-3.309C-1017.9-60.448-1023.664-61.677-1029.189-64.424Z"
              transform="translate(0 0)"/>
    </g>
</svg>