<svg xmlns="http://www.w3.org/2000/svg" width="36.759" height="33.865" viewBox="0 0 36.759 33.865">
  <g id="Сгруппировать_2779" data-name="Сгруппировать 2779" transform="translate(313.224 -1334.309)">
    <path id="Контур_1580" data-name="Контур 1580" d="M-294.928,1476.557H-310.8c-1.416,0-1.914-.492-1.915-1.9q0-5.15,0-10.3c0-.817.054-.834.736-.442a5.952,5.952,0,0,0,3.083.88c2.814-.028,5.628-.009,8.441-.007,1.061,0,1.123.036,1.131,1.059a1.5,1.5,0,0,0,.965,1.51c.958.445,1.882.967,2.809,1.476a1.336,1.336,0,0,0,1.392.014c1.042-.568,2.094-1.119,3.149-1.662a1.323,1.323,0,0,0,.644-1.307c.042-1.005.115-1.082,1.14-1.086,2.788-.01,5.576-.023,8.364-.009a5.377,5.377,0,0,0,3.284-.951c.392-.282.61-.242.609.29,0,3.692,0,7.383-.012,11.075a1.252,1.252,0,0,1-1.072,1.248,6.742,6.742,0,0,1-1.7.115Q-287.338,1476.56-294.928,1476.557Z" transform="translate(-0.005 -108.884)" fill="#fff" stroke="rgba(0,0,0,0)" stroke-width="1"/>
    <path id="Контур_1581" data-name="Контур 1581" d="M-294.852,1383.768q7.59,0,15.18,0a9.09,9.09,0,0,1,1.466.073,1.335,1.335,0,0,1,1.226,1.444c.014,2.169.032,4.338-.005,6.506a3.741,3.741,0,0,1-3.8,3.627c-2.942.062-5.886.012-8.829.026-.576,0-.75-.266-.772-.8-.087-2.163-.1-2.162-2.3-2.162-1.756,0-3.511-.007-5.267,0-1.088.007-1.366.289-1.37,1.394-.006,1.706.081,1.564-1.627,1.565-2.556,0-5.112.011-7.668,0a3.812,3.812,0,0,1-4.108-4.113q-.006-2.866,0-5.731c0-1.327.521-1.823,1.917-1.824Q-302.829,1383.765-294.852,1383.768Z" transform="translate(0 -41.376)" fill="#fff" stroke="rgba(0,0,0,0)" stroke-width="1"/>
    <path id="Контур_1582" data-name="Контур 1582" d="M-238.511,1334.816c1.33,0,2.593-.011,3.857,0a2.941,2.941,0,0,1,3.226,2.589c.183.828.267,1.678.381,2.52.02.145.018.387-.063.435a3.094,3.094,0,0,1-1.88.142c-.464-.026-.529-.417-.571-.792-.063-.563-.139-1.125-.2-1.688a.71.71,0,0,0-.813-.721q-3.907.016-7.814,0a.792.792,0,0,0-.878.772c-.088.56-.2,1.117-.264,1.68a.783.783,0,0,1-.912.8c-1.656,0-1.863.077-1.422-1.528.177-.642.182-1.33.343-1.978a2.619,2.619,0,0,1,2.285-2.121A43.414,43.414,0,0,1-238.511,1334.816Z" transform="translate(-56.332)" fill="#fff" stroke="rgba(0,0,0,0)" stroke-width="1"/>
    <path id="Контур_1583" data-name="Контур 1583" d="M-211.722,1451.851c.594,0,1.188.011,1.781,0,.539-.013.824.2.815.77-.012.8-.007,1.6,0,2.4a.92.92,0,0,1-.558.932c-.07.032-.135.075-.2.113-2.384,1.321-1.657,1.123-4.072-.194a.816.816,0,0,1-.417-.776c-.01-.826-.006-1.652-.018-2.478-.008-.562.277-.788.815-.778.619.011,1.239,0,1.859,0Z" transform="translate(-83.092 -98.896)" fill="#fff" stroke="rgba(0,0,0,0)" stroke-width="1"/>
  </g>
</svg>
