<svg xmlns="http://www.w3.org/2000/svg" width="185.914" height="102.389" viewBox="0 0 185.914 102.389">
    <g id="hat" transform="translate(0 -127.525)" opacity="0.5">
        <path
                d="M252.561,173.278c-.028-.259-5.772-54.546-5.814-54.963a18.677,18.677,0,0,0-23.624-16.008l-35.468,9.978a7.333,7.333,0,0,1-3.987,0L148.2,102.307a18.677,18.677,0,0,0-23.624,16.008l-5.814,54.968C160.112,180.121,208.9,180.513,252.561,173.278Z"
                transform="translate(-92.704 25.923)"
        />
        <path
                d="M176.345,338.833c-50.462,11.433-114.9,11.7-166.761,0a7.874,7.874,0,0,0-3.631,15.321c52.85,13.213,121.149,13.219,174.008,0a7.872,7.872,0,0,0-3.616-15.321Z"
                transform="translate(0 -134.153)"
        />
    </g>
</svg>
