<svg xmlns="http://www.w3.org/2000/svg" width="164.986" height="201.186" viewBox="0 0 164.986 201.186">
    <g transform="translate(-9948.522 -3875.583)" opacity="0.5">
        <g transform="translate(9948.521 3875.583)">
            <path d="M58.84,201.147a34.694,34.694,0,0,1-17.128-63.875,13.433,13.433,0,0,0,6.135-12.035c-.033-.639-.051-1.283-.051-1.922a34.7,34.7,0,0,1,69.377-1.114c.033,1,.021,2.013-.033,3.01a13.474,13.474,0,0,0,6.135,12.061,34.7,34.7,0,0,1-34.646,60.039,13.341,13.341,0,0,0-12.271,0A34.673,34.673,0,0,1,60.4,201.186C59.882,201.186,59.36,201.173,58.84,201.147ZM126.16,90.14c0-2.709.81-7.691,7.782-19.72,2.254-3.882,4.483-7.349,5.879-9.453.366-1.954.816-4.176,1.371-6.711,1.353-6.206,2.689-11.345,2.746-11.566.372-1.42.985-2.273,1.637-2.273s1.263.853,1.634,2.273c.057.222,1.393,5.36,2.749,11.566.556,2.536,1.006,4.76,1.371,6.714,1.393,2.1,3.622,5.57,5.876,9.45,6.975,12.029,7.782,17.011,7.782,19.72a19.413,19.413,0,0,1-38.827,0ZM0,90.14c0-2.709.807-7.691,7.782-19.72,2.251-3.882,4.483-7.349,5.876-9.453.369-1.954.819-4.176,1.374-6.711,1.353-6.206,2.689-11.345,2.746-11.566.372-1.42.985-2.273,1.634-2.273s1.266.853,1.634,2.273c.06.222,1.4,5.36,2.749,11.566.556,2.536,1.006,4.76,1.374,6.714,1.39,2.1,3.619,5.57,5.876,9.45,6.975,12.029,7.782,17.011,7.782,19.72A19.414,19.414,0,0,1,0,90.14ZM87.547,54.784c0-2.7.816-7.691,7.782-19.714,1.731-2.98,3.45-5.717,4.782-7.78.4-3.1,1.139-7.374,2.468-13.451,1.353-6.206,2.695-11.351,2.749-11.566C105.7.847,106.31,0,106.968,0s1.257.847,1.628,2.273c.057.215,1.393,5.36,2.749,11.566,1.329,6.079,2.063,10.357,2.468,13.453,1.335,2.062,3.051,4.8,4.779,7.778,6.975,12.022,7.782,17.011,7.782,19.714a19.414,19.414,0,1,1-38.827,0Zm-48.935,0c0-2.7.807-7.691,7.782-19.714,1.731-2.982,3.447-5.719,4.779-7.781.4-3.095,1.136-7.373,2.465-13.45C55,7.633,56.333,2.488,56.384,2.273,56.756.847,57.369,0,58.025,0s1.263.847,1.634,2.273c.051.215,1.387,5.36,2.749,11.566,1.326,6.076,2.06,10.353,2.465,13.448,1.332,2.063,3.048,4.8,4.779,7.783,6.975,12.022,7.782,17.011,7.782,19.714a19.41,19.41,0,1,1-38.821,0Z"/>
        </g>
    </g>
</svg>
