<svg xmlns="http://www.w3.org/2000/svg" width="172.826" height="169.415" viewBox="0 0 172.826 169.415">
    <g transform="translate(-11404.999 -5888.199)" opacity="0.5">
        <path d="M144.484,156.211l15.139-15.14,13.2,13.2-15.141,15.14ZM0,154.275l13.2-13.2,15.139,15.14-13.2,13.2Zm124.284-18.261,13.2-13.2,1.935-1.937,13.2,13.2-15.139,15.14ZM20.2,134.078l13.2-13.2,1.935,1.936,13.2,13.2-13.2,13.2Zm80.5-3.53,33.256-33.256,7.529,7.529-5.573,5.575h0l-27.681,27.681ZM36.915,110.4h0l-5.573-5.575,7.529-7.529,33.256,33.256L64.6,138.077Zm49.5-12.253L70.062,114.494,54.922,99.355,71.274,83,17.995,29.725,18.549,0,86.413,67.864,154.278,0l.555,29.725L101.553,83,117.9,99.355l-15.139,15.139Z"
              transform="translate(11405 5888.199)"/>
    </g>
</svg>