<svg xmlns="http://www.w3.org/2000/svg" xmlns:xlink="http://www.w3.org/1999/xlink" width="139.839" height="152.281" viewBox="0 0 139.839 152.281">
  <defs>
    <linearGradient id="linear-gradient" y1="0.233" x2="1" y2="0.783" gradientUnits="objectBoundingBox">
      <stop offset="0" stop-color="#f96"/>
      <stop offset="1" stop-color="#ff5e62"/>
    </linearGradient>
    <filter id="Объединение_56" x="0" y="0" width="139.839" height="152.281" filterUnits="userSpaceOnUse">
      <feOffset input="SourceAlpha"/>
      <feGaussianBlur stdDeviation="10" result="blur"/>
      <feFlood flood-color="#ff5e62"/>
      <feComposite operator="in" in2="blur"/>
      <feComposite in="SourceGraphic"/>
    </filter>
  </defs>
  <g id="acceptCallsReady" transform="translate(-193.08 -161.86)">
    <g transform="matrix(1, 0, 0, 1, 193.08, 161.86)" filter="url(#Объединение_56)">
      <path id="Объединение_56-2" data-name="Объединение 56" d="M-6728.42-5504.063l-.081-46.141,39.837-23,39.918,23.139.083,46.141-39.839,23Zm7.565-41.709.066,37.3,32.272,18.706,32.206-18.593-.065-37.3-32.274-18.706Zm30.366,37.571-16.864-2.519a2.318,2.318,0,0,1-1.913-2.213v-2.508a2.028,2.028,0,0,1,1.543-1.9v-6.4l-4.453-4.894a1.61,1.61,0,0,1,.332-2.493l21.677-14.475a3.124,3.124,0,0,1,3.2,0l21.672,14.483a1.605,1.605,0,0,1,.284,2.494l-4.515,4.889v6.395a1.839,1.839,0,0,1,1.542,1.9v2.508a2.266,2.266,0,0,1-1.855,2.213l-16.836,2.519a13.864,13.864,0,0,1-1.909.117A13.864,13.864,0,0,1-6690.489-5508.2Zm-14.146-9.216h31.833v-3.087h-31.833Zm10.947-17.521c-.257,0-1.3.013-1.3.013v4.9a3.372,3.372,0,0,0,.313,1.182,5.6,5.6,0,0,0,.96,1.48,11.8,11.8,0,0,0,1.671,1.567,19.337,19.337,0,0,0,3.483,2.063,19.352,19.352,0,0,0,3.481-2.062,11.709,11.709,0,0,0,1.66-1.567,5.438,5.438,0,0,0,.915-1.48,3.285,3.285,0,0,0,.25-1.182v-4.9s-.988-.013-1.245-.013c-2.243,0-4.881-2.931-5.073-3.241C-6688.768-5537.869-6691.446-5534.937-6693.689-5534.937Z" transform="translate(6758.5 5603.2)" fill="url(#linear-gradient)"/>
    </g>
  </g>
</svg>
