<svg xmlns="http://www.w3.org/2000/svg" xmlns:xlink="http://www.w3.org/1999/xlink" width="139.839" height="152.282" viewBox="0 0 139.839 152.282">
  <defs>
    <linearGradient id="linear-gradient" y1="0.259" x2="1" y2="0.749" gradientUnits="objectBoundingBox">
      <stop offset="0" stop-color="#aab6ef"/>
      <stop offset="1" stop-color="#718aff"/>
    </linearGradient>
    <filter id="Объединение_59" x="0" y="0" width="139.839" height="152.282" filterUnits="userSpaceOnUse">
      <feOffset input="SourceAlpha"/>
      <feGaussianBlur stdDeviation="10" result="blur"/>
      <feFlood flood-color="#aab6ef"/>
      <feComposite operator="in" in2="blur"/>
      <feComposite in="SourceGraphic"/>
    </filter>
  </defs>
  <g id="allLeaderReady" transform="translate(-193.079 -161.859)">
    <g transform="matrix(1, 0, 0, 1, 193.08, 161.86)" filter="url(#Объединение_59)">
      <path id="Объединение_59-2" data-name="Объединение 59" d="M-7877.42-5713.063l-.081-46.141,39.838-23,39.917,23.141.083,46.141-39.838,23Zm46.358-2.805a6.524,6.524,0,0,1,6.52,6.52v3.1l4.741-2.737a11.281,11.281,0,0,0-3.909-8.9,6.28,6.28,0,0,1,2.133-.356h5.927a6.515,6.515,0,0,1,5.788,3.514l4.552-2.628-.065-37.3-32.274-18.706-32.205,18.594.065,37.3,4.544,2.634a6.516,6.516,0,0,1,5.731-3.407h5.927a6.3,6.3,0,0,1,2.135.356,11.248,11.248,0,0,0-3.909,8.78l4.739,2.747v-2.99a6.524,6.524,0,0,1,6.521-6.52Zm-13.633-10.672a7.124,7.124,0,0,1,7.113-7.113,7.122,7.122,0,0,1,7.113,7.113,7.123,7.123,0,0,1-7.113,7.115A7.124,7.124,0,0,1-7844.7-5726.54Zm21.34,1.186a4.747,4.747,0,0,1,4.743-4.743,4.748,4.748,0,0,1,4.743,4.743,4.748,4.748,0,0,1-4.743,4.743A4.747,4.747,0,0,1-7823.355-5725.354Zm-37.938,0a4.747,4.747,0,0,1,4.743-4.743,4.748,4.748,0,0,1,4.743,4.743,4.748,4.748,0,0,1-4.743,4.743A4.747,4.747,0,0,1-7861.294-5725.354Zm15.492-11.856a1.778,1.778,0,0,1-1.748-1.447l-1.856-9.881a1.78,1.78,0,0,1,2.467-1.956l3.984,1.77,3.837-6.569a1.849,1.849,0,0,1,3.072,0l3.837,6.569,3.983-1.77a1.782,1.782,0,0,1,2.469,1.956l-1.854,9.881a1.784,1.784,0,0,1-1.751,1.447Z" transform="translate(7907.5 5812.2)" fill="url(#linear-gradient)"/>
    </g>
  </g>
</svg>
