<svg xmlns="http://www.w3.org/2000/svg" xmlns:xlink="http://www.w3.org/1999/xlink" width="139.839" height="152.281" viewBox="0 0 139.839 152.281">
  <defs>
    <linearGradient id="linear-gradient" y1="0.233" x2="1" y2="0.783" gradientUnits="objectBoundingBox">
      <stop offset="0" stop-color="#f96"/>
      <stop offset="1" stop-color="#ff5e62"/>
    </linearGradient>
    <filter id="Объединение_56" x="0" y="0" width="139.839" height="152.281" filterUnits="userSpaceOnUse">
      <feOffset input="SourceAlpha"/>
      <feGaussianBlur stdDeviation="10" result="blur"/>
      <feFlood flood-color="#ff5e62"/>
      <feComposite operator="in" in2="blur"/>
      <feComposite in="SourceGraphic"/>
    </filter>
  </defs>
  <g id="arrestsReady" transform="translate(-193.08 -161.86)">
    <g transform="matrix(1, 0, 0, 1, 193.08, 161.86)" filter="url(#Объединение_56)">
      <path id="Объединение_56-2" data-name="Объединение 56" d="M-6728.42-5504.063l-.081-46.141,39.837-23,39.918,23.139.083,46.141-39.839,23Zm7.565-41.709.066,37.3,32.272,18.706,32.206-18.593-.065-37.3-32.274-18.706Zm26.846,40.756a3.5,3.5,0,0,1-.882-.356,2.848,2.848,0,0,1-1.379-1.858,5.377,5.377,0,0,1,.08-2.166c.217-1.15.131-1.207-.068-1.348-.023-.015-.058-.035-.094-.055a4.847,4.847,0,0,0-2.712-.139,7.031,7.031,0,0,1-4.443-.489,4.3,4.3,0,0,1-.867-.651c-1.27-1.245-1.645-3.207-1.1-5.824a16.95,16.95,0,0,1,.842-2.813l-.055-.03-3.8-2.2,4.156-7.2a12.707,12.707,0,0,1-1.535-6.088,12.786,12.786,0,0,1,12.786-12.791,12.805,12.805,0,0,1,12.792,12.8,12.8,12.8,0,0,1-12.32,12.776l-4.187,7.25,0,.007-4.785-2.764a13.157,13.157,0,0,0-.5,1.811c-.3,1.51-.114,2.336.144,2.583a.628.628,0,0,0,.153.116,4.485,4.485,0,0,0,2.347.069,7.541,7.541,0,0,1,4.828.569c.113.064.227.139.336.212a3.763,3.763,0,0,1,1.651,2.652,6.726,6.726,0,0,1-.14,2.174c-.024.132-.051.3-.079.459,1.008.125,2.632-.494,4.254-1.2a4.325,4.325,0,0,0,1.137-1.283l-4.421-2.555,4.092-7.086a12.772,12.772,0,0,1-1.108-2.581,12.721,12.721,0,0,0,9.9-12.461,12.83,12.83,0,0,0-.554-3.724,12.471,12.471,0,0,1,2.895-.326,12.71,12.71,0,0,1,6.386,1.7,12.93,12.93,0,0,1,4.64,4.594,12.779,12.779,0,0,1,1.761,6.491,12.7,12.7,0,0,1-3.743,9.039,12.678,12.678,0,0,1-8.319,3.73l-4.252,7.366,0,.007-4.263-2.459c-.088.145-.189.293-.295.448a6.2,6.2,0,0,1-2.482,2.288,14.236,14.236,0,0,1-5.354,1.5A5.236,5.236,0,0,1-6694.009-5505.016Zm7.144-7.083,5.544,3.2.708-1.227-5.542-3.2Zm11.335-23.379a16.183,16.183,0,0,1-8.58,14.346,9.4,9.4,0,0,0,2.8,2.468,9.313,9.313,0,0,0,4.649,1.239,9.266,9.266,0,0,0,6.592-2.729,9.276,9.276,0,0,0,2.724-6.588,9.267,9.267,0,0,0-1.278-4.729,9.388,9.388,0,0,0-3.387-3.351,9.357,9.357,0,0,0-3.528-1.175C-6675.53-5535.82-6675.53-5535.649-6675.53-5535.478Zm-30.408,12.37,5.538,3.194.709-1.227-5.537-3.2Zm3.53-13.119a9.337,9.337,0,0,0,9.319,9.317,9.327,9.327,0,0,0,9.322-9.326,9.33,9.33,0,0,0-4.678-8.072,9.25,9.25,0,0,0-4.639-1.243h0A9.335,9.335,0,0,0-6702.408-5536.228Z" transform="translate(6758.5 5603.2)" fill="url(#linear-gradient)"/>
    </g>
  </g>
</svg>
