<svg xmlns="http://www.w3.org/2000/svg" xmlns:xlink="http://www.w3.org/1999/xlink" width="139.839" height="152.281" viewBox="0 0 139.839 152.281">
  <defs>
    <linearGradient id="linear-gradient" x1="0.938" y1="0.774" x2="0" y2="0.225" gradientUnits="objectBoundingBox">
      <stop offset="0" stop-color="#c373f3"/>
      <stop offset="1" stop-color="#aab6ef"/>
    </linearGradient>
    <filter id="Объединение_47" x="0" y="0" width="139.839" height="152.281" filterUnits="userSpaceOnUse">
      <feOffset input="SourceAlpha"/>
      <feGaussianBlur stdDeviation="10" result="blur"/>
      <feFlood flood-color="#70f"/>
      <feComposite operator="in" in2="blur"/>
      <feComposite in="SourceGraphic"/>
    </filter>
  </defs>
  <g id="Сгруппировать_3035" data-name="Сгруппировать 3035" transform="translate(-193.08 -161.86)">
    <g transform="matrix(1, 0, 0, 1, 193.08, 161.86)" filter="url(#Объединение_47)">
      <path id="Объединение_47-2" data-name="Объединение 47" d="M-6605.919-5364.859-6606-5411l39.837-23,39.918,23.139.083,46.141-39.839,23Zm7.565-41.709.066,37.3,32.272,18.706,32.206-18.593-.065-37.3-32.274-18.706Zm15.4,34.459a3.376,3.376,0,0,1-3.375-3.375v-12.375h40.5v12.375a3.376,3.376,0,0,1-3.375,3.375Zm10.125-8.157v2.812a.846.846,0,0,0,.844.844h9.563a.847.847,0,0,0,.844-.844v-2.812a.847.847,0,0,0-.844-.844h-9.562A.847.847,0,0,0-6572.831-5380.266Zm-9,0v2.812a.846.846,0,0,0,.844.844h5.063a.846.846,0,0,0,.844-.844v-2.812a.846.846,0,0,0-.844-.844h-5.063A.846.846,0,0,0-6581.832-5380.266Zm-4.5-16.594v-3.375a3.377,3.377,0,0,1,3.375-3.375h33.75a3.376,3.376,0,0,1,3.375,3.375v3.375Z" transform="translate(6636 5464)" fill="url(#linear-gradient)"/>
    </g>
  </g>
</svg>
