<svg xmlns="http://www.w3.org/2000/svg" xmlns:xlink="http://www.w3.org/1999/xlink" width="97.838" height="110.282" viewBox="0 0 97.838 110.282">
  <defs>
    <linearGradient id="linear-gradient" y1="0.242" x2="1" y2="0.749" gradientUnits="objectBoundingBox">
      <stop offset="0" stop-color="#f1f1f1"/>
      <stop offset="1" stop-color="#8e8e8e"/>
    </linearGradient>
    <filter id="Объединение_56" x="0" y="0" width="97.838" height="110.282" filterUnits="userSpaceOnUse">
      <feOffset dy="3" input="SourceAlpha"/>
      <feGaussianBlur stdDeviation="3" result="blur"/>
      <feFlood/>
      <feComposite operator="in" in2="blur"/>
      <feComposite in="SourceGraphic"/>
    </filter>
  </defs>
  <g id="captureNoDeaths" transform="translate(-214.08 -185.859)">
    <g transform="matrix(1, 0, 0, 1, 214.08, 185.86)" filter="url(#Объединение_56)">
      <path id="Объединение_56-2" data-name="Объединение 56" d="M-6728.42-5504.063l-.081-46.142,39.838-23,39.917,23.141.083,46.14-39.838,23Zm42.408,3.56v8.823a2.567,2.567,0,0,1-.049.5l29.752-17.175-.028-15.793h-6.031A26.384,26.384,0,0,1-6686.012-5500.5Zm-34.777-7.965,29.67,17.2a2.571,2.571,0,0,1-.033-.409v-8.823a26.388,26.388,0,0,1-23.644-23.644h-6.021Zm34.777,1.023v1.771a21.241,21.241,0,0,0,18.474-18.474h-1.771a2.57,2.57,0,0,1-2.568-2.57,2.57,2.57,0,0,1,2.568-2.57h1.771a21.24,21.24,0,0,0-18.474-18.474v1.771a2.571,2.571,0,0,1-2.57,2.57,2.572,2.572,0,0,1-2.57-2.57v-1.771a21.243,21.243,0,0,0-18.474,18.474h1.771a2.571,2.571,0,0,1,2.57,2.57,2.572,2.572,0,0,1-2.57,2.57h-1.771a21.243,21.243,0,0,0,18.474,18.474v-1.771a2.572,2.572,0,0,1,2.57-2.57A2.571,2.571,0,0,1-6686.012-5507.445Zm0-45.487a26.384,26.384,0,0,1,23.645,23.645h6.022l-.029-16.372-29.637-17.179Zm-28.784,23.645a26.387,26.387,0,0,1,23.644-23.645v-9.988l-29.7,17.148.029,16.484Zm18.506,2.57a7.718,7.718,0,0,1,7.708-7.708,7.72,7.72,0,0,1,7.71,7.708,7.719,7.719,0,0,1-7.71,7.708A7.717,7.717,0,0,1-6696.291-5526.718Zm5.138,0a2.574,2.574,0,0,0,2.57,2.57,2.573,2.573,0,0,0,2.57-2.57,2.573,2.573,0,0,0-2.57-2.57A2.573,2.573,0,0,0-6691.152-5526.718Z" transform="translate(6737.5 5579.2)" fill="url(#linear-gradient)"/>
    </g>
  </g>
</svg>
