<svg xmlns="http://www.w3.org/2000/svg" xmlns:xlink="http://www.w3.org/1999/xlink" width="139.839" height="152.281" viewBox="0 0 139.839 152.281">
  <defs>
    <linearGradient id="linear-gradient" x1="0.938" y1="0.774" x2="0" y2="0.225" gradientUnits="objectBoundingBox">
      <stop offset="0" stop-color="#c373f3"/>
      <stop offset="1" stop-color="#aab6ef"/>
    </linearGradient>
    <filter id="Объединение_47" x="0" y="0" width="139.839" height="152.281" filterUnits="userSpaceOnUse">
      <feOffset input="SourceAlpha"/>
      <feGaussianBlur stdDeviation="10" result="blur"/>
      <feFlood flood-color="#70f"/>
      <feComposite operator="in" in2="blur"/>
      <feComposite in="SourceGraphic"/>
    </filter>
  </defs>
  <g id="dbAliveReady" transform="translate(-193.08 -161.86)">
    <g transform="matrix(1, 0, 0, 1, 193.08, 161.86)" filter="url(#Объединение_47)">
      <path id="Объединение_47-2" data-name="Объединение 47" d="M-6605.919-5364.859-6606-5411l39.837-23,39.918,23.139.083,46.141-39.839,23Zm7.565-41.709.066,37.3,32.272,18.706,32.206-18.593-.065-37.3-32.274-18.706Zm51.817,41.878-1.729-1.731-.579-.57a.821.821,0,0,1,0-1.157l2.306-2.306a.805.805,0,0,1,.733-.221.776.776,0,0,1,.424.221l.57.579,1.731,1.732a.817.817,0,0,1,0,1.152l-2.3,2.3a.813.813,0,0,1-.576.239A.813.813,0,0,1-6546.537-5364.69Zm-40.242,0-2.3-2.3a.817.817,0,0,1,0-1.154l1.729-1.729.572-.579a.761.761,0,0,1,.423-.221.805.805,0,0,1,.733.221l2.308,2.306a.823.823,0,0,1,0,1.157l-.58.57-1.732,1.731a.808.808,0,0,1-.575.239A.808.808,0,0,1-6586.779-5364.69Zm25.775-15.618-.172-.17a20.011,20.011,0,0,0,3.163-1.451l10.325,10.325-2.306,2.306Zm-23.471,8.7,11.181-11.183.1-.487.987-4.906.1-.5,1.026-5.143a2.125,2.125,0,0,1,.066-.235,1.729,1.729,0,0,1,.366-.6l10.382-10.381,2.306,2.3-5.81,5.813v.007l-1.679,1.671a.823.823,0,0,0-.244.579.808.808,0,0,0,.244.579l6.34,6.34,8.069-8.067h.008l2.3,2.3-10.228,10.236-.137.139a1.666,1.666,0,0,1-.847.448l-6.129,1.23h-.008l-4.652.93-.244.048-.172.17-11.01,11.01Zm16.088-19.079-.017.066a.2.2,0,0,0-.017.066l-.693,3.486-.327,1.606-.04.211-.237,1.19,1.174-.236.025-.008,2.427-.482h.01l2.966-.593.391-.082,1.068-.212-6.446-6.446Zm-15.037-2.827,2.3-2.3h.01l7.31,7.31-.774,3.838Zm19.7-1.149,1.1-1.1,1.107,1.1.008.008a1.73,1.73,0,0,1,.367.6,2.361,2.361,0,0,1,.066.235l.449,2.258Zm16.715.579-.579-.579-2.308-2.3-6.918-6.918-2.3-2.308-.579-.579a.776.776,0,0,1-.236-.577.933.933,0,0,1,.017-.148.367.367,0,0,1,.04-.137.453.453,0,0,1,.042-.1.608.608,0,0,1,.064-.107c.025-.023.05-.057.073-.08l2.876-2.878a1.9,1.9,0,0,1,.287-.227.278.278,0,0,1,.129-.066.425.425,0,0,1,.131-.064,1.6,1.6,0,0,1,1.759.358l11.524,11.524a1.06,1.06,0,0,1,.154.188,1.161,1.161,0,0,1,.229.431.284.284,0,0,1,.042.139.253.253,0,0,1,.031.131,1.11,1.11,0,0,1,.025.235v.033a1.212,1.212,0,0,1-.033.3,1.131,1.131,0,0,1-.08.285,1.27,1.27,0,0,1-.1.2,1.405,1.405,0,0,1-.106.171,1.149,1.149,0,0,1-.162.2l-2.876,2.876a.815.815,0,0,1-.576.237A.813.813,0,0,1-6547.011-5394.08Zm-39.289,0-2.876-2.876a1.129,1.129,0,0,1-.163-.2,2.006,2.006,0,0,1-.106-.171,1.147,1.147,0,0,1-.1-.2,1.133,1.133,0,0,1-.081-.285,1.235,1.235,0,0,1-.033-.3v-.033a1.11,1.11,0,0,1,.025-.235.274.274,0,0,1,.031-.131.3.3,0,0,1,.042-.139,1.186,1.186,0,0,1,.228-.431,1.139,1.139,0,0,1,.156-.187l11.524-11.524a1.6,1.6,0,0,1,1.759-.358.42.42,0,0,1,.131.064.276.276,0,0,1,.129.066,1.792,1.792,0,0,1,.285.227l2.878,2.878c.025.023.048.056.073.08a.763.763,0,0,1,.066.107.721.721,0,0,1,.04.1.367.367,0,0,1,.04.137.628.628,0,0,1,.017.148.772.772,0,0,1-.235.577l-.579.579-2.3,2.308-1.157,1.156-4.61,4.614-1.15,1.149-2.306,2.3-.579.579a.814.814,0,0,1-.574.237A.816.816,0,0,1-6586.3-5394.08Zm12.1-8.644,2.3-2.3,4.66,4.661-2.3,2.3Z" transform="translate(6636 5464)" fill="url(#linear-gradient)"/>
    </g>
  </g>
</svg>
