<svg xmlns="http://www.w3.org/2000/svg" xmlns:xlink="http://www.w3.org/1999/xlink" width="139.839" height="152.281" viewBox="0 0 139.839 152.281">
  <defs>
    <linearGradient id="linear-gradient" y1="0.233" x2="1" y2="0.783" gradientUnits="objectBoundingBox">
      <stop offset="0" stop-color="#f96"/>
      <stop offset="1" stop-color="#ff5e62"/>
    </linearGradient>
    <filter id="Объединение_56" x="0" y="0" width="139.839" height="152.281" filterUnits="userSpaceOnUse">
      <feOffset input="SourceAlpha"/>
      <feGaussianBlur stdDeviation="10" result="blur"/>
      <feFlood flood-color="#ff5e62"/>
      <feComposite operator="in" in2="blur"/>
      <feComposite in="SourceGraphic"/>
    </filter>
  </defs>
  <g id="eventsReady" transform="translate(-193.08 -161.859)">
    <g transform="matrix(1, 0, 0, 1, 193.08, 161.86)" filter="url(#Объединение_56)">
      <path id="Объединение_56-2" data-name="Объединение 56" d="M-6728.42-5504.063l-.081-46.141,39.837-23,39.918,23.141.083,46.141-39.839,23Zm7.565-41.709.066,37.3,32.272,18.708,32.206-18.593-.065-37.3-32.274-18.708Zm44.065,39.935v-7.076h-23.585v7.076h-7.076v-14.151h37.737v14.151Zm4.717-18.868v-7.074H-6665v7.074Zm-28.3,0v-18.867a4.731,4.731,0,0,1,4.717-4.717h14.151a4.731,4.731,0,0,1,4.717,4.717v18.867Zm-11.792,0v-7.074h7.076v7.074Z" transform="translate(6758.5 5603.2)" fill="url(#linear-gradient)"/>
    </g>
  </g>
</svg>
