<svg xmlns="http://www.w3.org/2000/svg" xmlns:xlink="http://www.w3.org/1999/xlink" width="97.839" height="110.281" viewBox="0 0 97.839 110.281">
  <defs>
    <linearGradient id="linear-gradient" y1="0.242" x2="1" y2="0.749" gradientUnits="objectBoundingBox">
      <stop offset="0" stop-color="#f1f1f1"/>
      <stop offset="1" stop-color="#8e8e8e"/>
    </linearGradient>
    <filter id="Объединение_47" x="0" y="0" width="97.839" height="110.281" filterUnits="userSpaceOnUse">
      <feOffset dy="3" input="SourceAlpha"/>
      <feGaussianBlur stdDeviation="3" result="blur"/>
      <feFlood/>
      <feComposite operator="in" in2="blur"/>
      <feComposite in="SourceGraphic"/>
    </filter>
  </defs>
  <g id="Сгруппировать_2551" data-name="Сгруппировать 2551" transform="translate(-214.08 -185.859)">
    <g transform="matrix(1, 0, 0, 1, 214.08, 185.86)" filter="url(#Объединение_47)">
      <path id="Объединение_47-2" data-name="Объединение 47" d="M-6605.919-5364.86-6606-5411l39.837-23,39.918,23.141.083,46.141-39.839,23Zm7.565-41.709.066,37.3,32.272,18.708,32.206-18.593-.065-37.3-32.274-18.708Zm18.575,36.319a3.9,3.9,0,0,1-3.913-3.914l.02-7.825H-6570v1.956h7.828v-1.956h13.7v7.825a3.9,3.9,0,0,1-3.913,3.914Zm17.611-13.7v-3.913H-6570v3.913h-11.74a3.9,3.9,0,0,1-3.913-3.913v-5.871a3.924,3.924,0,0,1,3.913-3.913h7.807v-3.915l3.914-3.913h7.827l3.913,3.913v3.915h7.847a3.924,3.924,0,0,1,3.913,3.913v5.871a3.924,3.924,0,0,1-3.913,3.913Zm-7.828-13.7h7.828v-3.915H-6570Z" transform="translate(6615 5440)" fill="url(#linear-gradient)"/>
    </g>
  </g>
</svg>
