<svg xmlns="http://www.w3.org/2000/svg" xmlns:xlink="http://www.w3.org/1999/xlink" width="139.839" height="152.282" viewBox="0 0 139.839 152.282">
  <defs>
    <linearGradient id="linear-gradient" y1="0.25" x2="1" y2="0.758" gradientUnits="objectBoundingBox">
      <stop offset="0" stop-color="#ffef84"/>
      <stop offset="1" stop-color="#ffa743"/>
    </linearGradient>
    <filter id="firstJobReady" x="0" y="0" width="139.839" height="152.282" filterUnits="userSpaceOnUse">
      <feOffset input="SourceAlpha"/>
      <feGaussianBlur stdDeviation="10" result="blur"/>
      <feFlood flood-color="#ffd4a2"/>
      <feComposite operator="in" in2="blur"/>
      <feComposite in="SourceGraphic"/>
    </filter>
  </defs>
  <g transform="matrix(1, 0, 0, 1, 0, 0)" filter="url(#firstJobReady)">
    <path id="firstJobReady-2" data-name="firstJobReady" d="M-7877.42-5504.063l-.081-46.141,39.838-23,39.917,23.141.083,46.141-39.838,23Zm7.566-41.708.065,37.3,27.044,15.676,1.067-31.045a8.838,8.838,0,0,0,1.4.134h6.3a8.825,8.825,0,0,0,1.336-.13l1.053,30.647,26.277-15.169-.065-37.3-32.274-18.706Zm29.574,19.167a5.805,5.805,0,0,1-4.1-1.7l-1.2-1.2-8.708,2.9a14.517,14.517,0,0,1,14.515-14.515h5.8a5.784,5.784,0,0,1,5,2.9h3.707v-1.451a1.451,1.451,0,0,1,1.451-1.451h2.9a1.45,1.45,0,0,1,1.451,1.449v11.611a1.449,1.449,0,0,1-1.451,1.451h-2.9a1.451,1.451,0,0,1-1.451-1.451v-1.451h-3.707a5.784,5.784,0,0,1-5,2.9Z" transform="translate(7907.5 5603.2)" fill="url(#linear-gradient)"/>
  </g>
</svg>
