<svg xmlns="http://www.w3.org/2000/svg" xmlns:xlink="http://www.w3.org/1999/xlink" width="139.839" height="152.281" viewBox="0 0 139.839 152.281">
  <defs>
    <linearGradient id="linear-gradient" x1="0.938" y1="0.774" x2="0" y2="0.225" gradientUnits="objectBoundingBox">
      <stop offset="0" stop-color="#c373f3"/>
      <stop offset="1" stop-color="#aab6ef"/>
    </linearGradient>
    <filter id="Объединение_47" x="0" y="0" width="139.839" height="152.281" filterUnits="userSpaceOnUse">
      <feOffset input="SourceAlpha"/>
      <feGaussianBlur stdDeviation="10" result="blur"/>
      <feFlood flood-color="#70f"/>
      <feComposite operator="in" in2="blur"/>
      <feComposite in="SourceGraphic"/>
    </filter>
  </defs>
  <g transform="matrix(1, 0, 0, 1, 0, 0)" filter="url(#Объединение_47)">
    <path id="Объединение_47-2" data-name="Объединение 47" d="M-6605.919-5364.86-6606-5411l39.837-23,39.918,23.141.083,46.141-39.839,23Zm72.1-7.016-.06-34.579-32.274-18.708-32.206,18.593.062,34.693h14.691q-.132-.113-.258-.239a3.918,3.918,0,0,1-1.186-2.878v-2.709h-2.031a.66.66,0,0,1-.488-.191.659.659,0,0,1-.19-.485v-8.127a4.575,4.575,0,0,1,1.386-3.356,4.575,4.575,0,0,1,3.356-1.386h.592l2.223-8.866a5.945,5.945,0,0,1,2.2-3.334,6,6,0,0,1,3.788-1.344h16.254a5.992,5.992,0,0,1,3.788,1.344,5.955,5.955,0,0,1,2.2,3.334l2.222,8.866h.594a4.57,4.57,0,0,1,3.354,1.386,4.574,4.574,0,0,1,1.386,3.356v8.127a.653.653,0,0,1-.19.485.655.655,0,0,1-.488.191h-2.031v2.709a3.913,3.913,0,0,1-1.186,2.878c-.084.084-.169.164-.257.239Zm-19.988,0q-.132-.113-.258-.239a3.913,3.913,0,0,1-1.186-2.878v-2.709h-21.672v2.709a3.919,3.919,0,0,1-1.184,2.878q-.127.126-.258.239Zm.229-14.989a3.258,3.258,0,0,0-.995,2.391,3.261,3.261,0,0,0,.995,2.392,3.257,3.257,0,0,0,2.391,1,3.26,3.26,0,0,0,2.392-1,3.26,3.26,0,0,0,1-2.392,3.257,3.257,0,0,0-1-2.391,3.261,3.261,0,0,0-2.392-.995A3.258,3.258,0,0,0-6553.573-5386.865Zm-29.8,0a3.258,3.258,0,0,0-.995,2.391,3.261,3.261,0,0,0,.995,2.392,3.259,3.259,0,0,0,2.391,1,3.26,3.26,0,0,0,2.392-1,3.26,3.26,0,0,0,1-2.392,3.257,3.257,0,0,0-1-2.391,3.261,3.261,0,0,0-2.392-.995A3.26,3.26,0,0,0-6583.372-5386.865Zm8.719-12.307a.761.761,0,0,0-.295.37l-1.885,7.555h21.5l-1.883-7.555a.77.77,0,0,0-.3-.37.761.761,0,0,0-.444-.2h-16.254A.765.765,0,0,0-6574.653-5399.171Z" transform="translate(6636 5464)" fill="url(#linear-gradient)"/>
  </g>
</svg>
