<svg xmlns="http://www.w3.org/2000/svg" xmlns:xlink="http://www.w3.org/1999/xlink" width="139.839" height="152.281" viewBox="0 0 139.839 152.281">
  <defs>
    <linearGradient id="linear-gradient" x1="0.938" y1="0.774" x2="0" y2="0.225" gradientUnits="objectBoundingBox">
      <stop offset="0" stop-color="#c373f3"/>
      <stop offset="1" stop-color="#aab6ef"/>
    </linearGradient>
    <filter id="Объединение_47" x="0" y="0" width="139.839" height="152.281" filterUnits="userSpaceOnUse">
      <feOffset input="SourceAlpha"/>
      <feGaussianBlur stdDeviation="10" result="blur"/>
      <feFlood flood-color="#70f"/>
      <feComposite operator="in" in2="blur"/>
      <feComposite in="SourceGraphic"/>
    </filter>
  </defs>
  <g id="Сгруппировать_3031" data-name="Сгруппировать 3031" transform="translate(-193.08 -161.86)">
    <g transform="matrix(1, 0, 0, 1, 193.08, 161.86)" filter="url(#Объединение_47)">
      <path id="Объединение_47-2" data-name="Объединение 47" d="M-6605.919-5364.859-6606-5411l39.837-23,39.918,23.139.083,46.141-39.839,23Zm39.9,14.3,32.206-18.593-.042-23.793-6.521,3.766v-3.271a6.431,6.431,0,0,0-6.426-6.428h-21.118v10.1a4.589,4.589,0,0,1-4.591,4.59,4.589,4.589,0,0,1-4.591-4.59v-14.5a3.649,3.649,0,0,1,1.721-3.11l3.844-2.4a7.414,7.414,0,0,1,3.891-1.114h11.729l8.067-4.657-18.3-10.609-32.206,18.593.042,23.8,6.524-3.768v-5.429a7.33,7.33,0,0,1,3.569-6.289l7.449-4.477v13.957a8.273,8.273,0,0,0,8.263,8.263,8.273,8.273,0,0,0,8.263-8.263v-6.428h17.446a2.748,2.748,0,0,1,2.753,2.755v5.509a2.748,2.748,0,0,1-2.753,2.753h-.918v7.345a3.669,3.669,0,0,1-3.672,3.674h-1.837a7.352,7.352,0,0,1-7.345,7.344h-15.678l-8.068,4.659Z" transform="translate(6636 5464)" fill="url(#linear-gradient)"/>
    </g>
  </g>
</svg>
