<svg xmlns="http://www.w3.org/2000/svg" xmlns:xlink="http://www.w3.org/1999/xlink" width="97.838" height="110.282" viewBox="0 0 97.838 110.282">
  <defs>
    <linearGradient id="linear-gradient" y1="0.242" x2="1" y2="0.749" gradientUnits="objectBoundingBox">
      <stop offset="0" stop-color="#f1f1f1"/>
      <stop offset="1" stop-color="#8e8e8e"/>
    </linearGradient>
    <filter id="Объединение_56" x="0" y="0" width="97.838" height="110.282" filterUnits="userSpaceOnUse">
      <feOffset dy="3" input="SourceAlpha"/>
      <feGaussianBlur stdDeviation="3" result="blur"/>
      <feFlood/>
      <feComposite operator="in" in2="blur"/>
      <feComposite in="SourceGraphic"/>
    </filter>
  </defs>
  <g id="firstFraction" transform="translate(-214.08 -185.859)">
    <g transform="matrix(1, 0, 0, 1, 214.08, 185.86)" filter="url(#Объединение_56)">
      <path id="Объединение_56-2" data-name="Объединение 56" d="M-6728.42-5504.063l-.081-46.142,39.838-23,39.917,23.141.083,46.14-39.838,23Zm47.988-9.027a12.225,12.225,0,0,1,12.206,11.616l3.143-1.814a15.517,15.517,0,0,0-7.912-11.224,6.766,6.766,0,0,1,4.784-1.974h6.79a6.776,6.776,0,0,1,5.1,2.314l-.056-31.487-32.273-18.707-32.207,18.594.056,31.549a6.773,6.773,0,0,1,5.057-2.263h6.79a6.77,6.77,0,0,1,4.786,1.974,15.561,15.561,0,0,0-7.9,11.1l3.139,1.819a12.226,12.226,0,0,1,12.2-11.5h.879a16.766,16.766,0,0,0,7.268,1.7,16.718,16.718,0,0,0,7.268-1.7Zm-20.032-15.279a11.876,11.876,0,0,1,11.883-11.881,11.876,11.876,0,0,1,11.883,11.881,11.877,11.877,0,0,1-11.883,11.883A11.877,11.877,0,0,1-6700.465-5528.369Zm28.858,1.7a6.8,6.8,0,0,1,6.79-6.79,6.8,6.8,0,0,1,6.79,6.79,6.8,6.8,0,0,1-6.79,6.79A6.8,6.8,0,0,1-6671.606-5526.67Zm-47.53,0a6.8,6.8,0,0,1,6.79-6.79,6.8,6.8,0,0,1,6.79,6.79,6.8,6.8,0,0,1-6.79,6.79A6.8,6.8,0,0,1-6719.136-5526.67Z" transform="translate(6737.5 5579.2)" fill="url(#linear-gradient)"/>
    </g>
  </g>
</svg>
