<svg xmlns="http://www.w3.org/2000/svg" xmlns:xlink="http://www.w3.org/1999/xlink" width="97.839" height="110.281" viewBox="0 0 97.839 110.281">
  <defs>
    <linearGradient id="linear-gradient" y1="0.242" x2="1" y2="0.749" gradientUnits="objectBoundingBox">
      <stop offset="0" stop-color="#f1f1f1"/>
      <stop offset="1" stop-color="#8e8e8e"/>
    </linearGradient>
    <filter id="Объединение_56" x="0" y="0" width="97.839" height="110.281" filterUnits="userSpaceOnUse">
      <feOffset dy="3" input="SourceAlpha"/>
      <feGaussianBlur stdDeviation="3" result="blur"/>
      <feFlood/>
      <feComposite operator="in" in2="blur"/>
      <feComposite in="SourceGraphic"/>
    </filter>
  </defs>
  <g id="firstCapture" transform="translate(-214.08 -185.86)">
    <g transform="matrix(1, 0, 0, 1, 214.08, 185.86)" filter="url(#Объединение_56)">
      <path id="Объединение_56-2" data-name="Объединение 56" d="M-6728.42-5504.063l-.081-46.141,39.837-23,39.918,23.139.083,46.141-39.839,23Zm7.565-41.709.066,37.3,32.272,18.706,32.206-18.593-.065-37.3-32.274-18.706Zm33.415,35.8v-5.12h-2.374v5.118l-2.374,0v-5.114h-2.369v3.944l-3.162-7.2a14.057,14.057,0,0,1-6.253-11.5c0-7.883,6.905-14.3,15.389-14.3s15.393,6.413,15.393,14.3a14.067,14.067,0,0,1-6.253,11.506l-3.245,7.393v-4.136h-2.377v5.118l-2.371,0Zm-2.357-11.607-.593,1.829a1.324,1.324,0,0,0,.181,1.184,1.26,1.26,0,0,0,1.038.541h1.182a1.257,1.257,0,0,0,1.041-.545,1.33,1.33,0,0,0,.179-1.179l-.593-1.829a1.267,1.267,0,0,0-1.22-.9A1.262,1.262,0,0,0-6689.8-5521.582Zm7.8-7.3-.1.036c-.162.06-.348.128-.554.208l-.308.119c-1.57.58-2.923,1.083-3.254,1.606-.352.554.026,2.665.685,3.764.574.973.993,1.058,1.074,1.066h.02a.5.5,0,0,0,.086.007,5.207,5.207,0,0,0,1.7-.438c.084-.028.166-.058.252-.089l.025-.01.108-.04a8.179,8.179,0,0,0,3.884-2.331,2.637,2.637,0,0,0-.2-2.978,2.478,2.478,0,0,0-1.408-1.135,2.734,2.734,0,0,0-.764-.145A3.494,3.494,0,0,0-6681.994-5528.883Zm-15.181-.214a2.456,2.456,0,0,0-1.409,1.135,2.624,2.624,0,0,0-.2,2.978,8.208,8.208,0,0,0,3.886,2.331l.139.052.023.008.217.08a5.32,5.32,0,0,0,1.7.438.43.43,0,0,0,.116-.013c.018,0,.439-.012,1.063-1.061.65-1.1,1.038-3.208.69-3.764-.34-.525-1.756-1.051-3.256-1.606l-.315-.119c-.138-.052-.267-.1-.386-.146l-.04-.015-.217-.083a3.487,3.487,0,0,0-1.252-.358A2.661,2.661,0,0,0-6697.175-5529.1Z" transform="translate(6737.5 5579.2)" fill="url(#linear-gradient)"/>
    </g>
  </g>
</svg>
