<svg xmlns="http://www.w3.org/2000/svg" xmlns:xlink="http://www.w3.org/1999/xlink" width="139.838" height="152.281" viewBox="0 0 139.838 152.281">
  <defs>
    <linearGradient id="linear-gradient" x1="0.938" y1="0.774" x2="0" y2="0.225" gradientUnits="objectBoundingBox">
      <stop offset="0" stop-color="#c373f3"/>
      <stop offset="1" stop-color="#aab6ef"/>
    </linearGradient>
    <filter id="Объединение_47" x="0" y="0" width="139.838" height="152.281" filterUnits="userSpaceOnUse">
      <feOffset input="SourceAlpha"/>
      <feGaussianBlur stdDeviation="10" result="blur"/>
      <feFlood flood-color="#70f"/>
      <feComposite operator="in" in2="blur"/>
      <feComposite in="SourceGraphic"/>
    </filter>
    <filter id="Icon_map-food" x="17.187" y="26.213" width="105.465" height="99.855" filterUnits="userSpaceOnUse">
      <feOffset input="SourceAlpha"/>
      <feGaussianBlur stdDeviation="10" result="blur-2"/>
      <feFlood flood-color="#70f"/>
      <feComposite operator="in" in2="blur-2"/>
      <feComposite in="SourceGraphic"/>
    </filter>
  </defs>
  <g id="Сгруппировать_3037" data-name="Сгруппировать 3037" transform="translate(-193.08 -161.859)">
    <g transform="matrix(1, 0, 0, 1, 193.08, 161.86)" filter="url(#Объединение_47)">
      <path id="Объединение_47-2" data-name="Объединение 47" d="M-6566-5341.719h0l-39.919-23.141L-6606-5411l39.838-23,39.917,23.141.083,46.141-39.838,23Zm-.147-83.443-32.207,18.593.066,37.3,32.272,18.707,32.207-18.593-.066-37.3-32.273-18.707Z" transform="translate(6636 5464)" fill="url(#linear-gradient)"/>
    </g>
    <g transform="matrix(1, 0, 0, 1, 193.08, 161.86)" filter="url(#Icon_map-food)">
      <path id="Icon_map-food-2" data-name="Icon map-food" d="M46.084,13.462,42.357,42.679H29.768L26.056,13.317H41.425L44.463,2.825l1.722.519-2.914,10.1,2.814.022Zm-21.808,16.9s.471-3.789-6.057-3.789H7.823c-6.519,0-6.057,3.789-6.057,3.789H24.276ZM1.766,38.891S1.3,42.679,7.823,42.679h10.4c6.528,0,6.057-3.789,6.057-3.789H1.766ZM23.3,37a2.179,2.179,0,0,0,1.931-2.367A2.176,2.176,0,0,0,23.3,32.26H2.652A2.18,2.18,0,0,0,.72,34.629,2.183,2.183,0,0,0,2.652,37H23.3Z" transform="translate(46.47 53.39)" fill="url(#linear-gradient)"/>
    </g>
  </g>
</svg>
