<svg xmlns="http://www.w3.org/2000/svg" xmlns:xlink="http://www.w3.org/1999/xlink" width="97.839" height="110.282" viewBox="0 0 97.839 110.282">
  <defs>
    <linearGradient id="linear-gradient" y1="0.242" x2="1" y2="0.749" gradientUnits="objectBoundingBox">
      <stop offset="0" stop-color="#f1f1f1"/>
      <stop offset="1" stop-color="#8e8e8e"/>
    </linearGradient>
    <filter id="firstTattoo" x="0" y="0" width="97.839" height="110.282" filterUnits="userSpaceOnUse">
      <feOffset dy="3" input="SourceAlpha"/>
      <feGaussianBlur stdDeviation="3" result="blur"/>
      <feFlood/>
      <feComposite operator="in" in2="blur"/>
      <feComposite in="SourceGraphic"/>
    </filter>
  </defs>
  <g transform="matrix(1, 0, 0, 1, 0, 0)" filter="url(#firstTattoo)">
    <path id="firstTattoo-2" data-name="firstTattoo" d="M-1139.919-3905.28l-.081-46.14,39.838-23,39.918,23.141.083,46.141-39.839,23Zm7.566-41.709.066,37.3,32.272,18.708,32.207-18.594-.065-37.3-32.274-18.707Zm41.72,33.709a.5.5,0,0,0-.223-.042,6.293,6.293,0,0,1-1.582-.476,8.014,8.014,0,0,1-2.177-1.462,10.08,10.08,0,0,1-1.008-1.075c-.731-.916-1.437-1.849-2.077-2.833a14.128,14.128,0,0,1-1.645-3.277c-.005-.018-.005-.043-.035-.045a.143.143,0,0,0-.023.109c0,.139-.006.277-.006.415-.009,1.044-.038,2.088-.1,3.13-.025.375-.055.749-.11,1.121a1.957,1.957,0,0,1-.09.4.3.3,0,0,1-.2.2.341.341,0,0,1-.392-.136.677.677,0,0,1-.08-.183,2.3,2.3,0,0,1-.088-.521c-.025-.3-.047-.594-.063-.894q-.055-.925-.1-1.853c-.03-.573-.053-1.147-.08-1.72,0-.019.01-.045-.022-.054-.036.015-.036.052-.046.082-.115.323-.237.643-.376.955a16.869,16.869,0,0,1-1.411,2.493c-.567.844-1.179,1.654-1.811,2.45a10,10,0,0,1-1.527,1.56,7.45,7.45,0,0,1-2.386,1.336,5.562,5.562,0,0,1-1.362.268,1.732,1.732,0,0,1-.576-.048,4.279,4.279,0,0,1-1.06-.456,8.47,8.47,0,0,1-1.417-1.061,14.269,14.269,0,0,1-1.915-2.148,14.264,14.264,0,0,1-1.648-2.847,8.172,8.172,0,0,1-.628-2.19,4.186,4.186,0,0,1,.02-1.32,2.551,2.551,0,0,1,.691-1.37,11.283,11.283,0,0,1,2.1-1.686c.029-.02.071-.03.089-.085l-.308.039a4.711,4.711,0,0,1-1.3-.02,4.267,4.267,0,0,1-1.97-.856,4.876,4.876,0,0,1-1.827-2.931c-.109-.525-.171-1.056-.229-1.59-.046-.432-.093-.867-.164-1.3a6.055,6.055,0,0,0-.535-1.7q-.406-.808-.809-1.615c-.255-.514-.5-1.034-.7-1.572a7,7,0,0,1-.489-1.918.291.291,0,0,0-.056-.171v-.33c.066-.065.054-.153.064-.232a2.284,2.284,0,0,1,.646-1.365,2.923,2.923,0,0,1,.783-.549,6.017,6.017,0,0,1,.972-.372,6.553,6.553,0,0,1,1.367-.236.389.389,0,0,0,.178-.031h.7a.367.367,0,0,0,.177.029,9.856,9.856,0,0,1,1.522.222,14.794,14.794,0,0,1,2.319.731,25.639,25.639,0,0,1,2.792,1.335,39.18,39.18,0,0,1,3.5,2.125,20.419,20.419,0,0,1,3.041,2.529,13.617,13.617,0,0,1,2.8,4.13c.015.035.02.077.06.1a.2.2,0,0,0,.03-.111c.015-.127.027-.252.041-.378a5.114,5.114,0,0,1,.2-.956,1.744,1.744,0,0,1,.493-.847.046.046,0,0,0,0-.073l-.055-.06a.742.742,0,0,1-.182-.469.791.791,0,0,1,.3-.685.2.2,0,0,1,.027-.022.07.07,0,0,0,.033-.041c.111-.043.222-.09.333-.135a.1.1,0,0,0,.047,0,1.656,1.656,0,0,1,.253,0l.03.01a2,2,0,0,1,.311.091c.052.022.1.052.146.077a.392.392,0,0,0,.065.081.874.874,0,0,1,.173.28.67.67,0,0,1,.052.323,1.105,1.105,0,0,1-.166.5c-.02.032-.054.059-.057.107a3.3,3.3,0,0,1,.6,1.239,6.676,6.676,0,0,1,.19,1.007c0,.023-.01.058.031.06a.115.115,0,0,0,.024-.025c.018-.04.035-.082.053-.121a13.17,13.17,0,0,1,.969-1.807,14.781,14.781,0,0,1,2.284-2.724,21.57,21.57,0,0,1,2.846-2.246,40.7,40.7,0,0,1,4.131-2.413,20.365,20.365,0,0,1,2.8-1.19,11.592,11.592,0,0,1,2.712-.589,8.274,8.274,0,0,1,1.423,0,6.33,6.33,0,0,1,1.359.275,4.854,4.854,0,0,1,1.073.473,2.36,2.36,0,0,1,.778.731,1.953,1.953,0,0,1,.342.922.515.515,0,0,0,.028.095v.86a.214.214,0,0,0-.028.113,3.144,3.144,0,0,1-.129.7,10.579,10.579,0,0,1-.589,1.633c-.311.708-.669,1.393-1.017,2.083-.136.272-.275.542-.391.822a6.673,6.673,0,0,0-.43,1.713c-.063.483-.113.965-.166,1.447a9.856,9.856,0,0,1-.2,1.209,4.778,4.778,0,0,1-.878,1.873,4.758,4.758,0,0,1-1.654,1.376,4.331,4.331,0,0,1-2.314.434c-.175-.015-.35-.036-.524-.055,0,.037.028.045.051.06.108.067.217.133.322.2a12.574,12.574,0,0,1,1.729,1.415,2.706,2.706,0,0,1,.813,1.678,4.832,4.832,0,0,1-.081,1.516,8.778,8.778,0,0,1-.6,1.856,14.35,14.35,0,0,1-1.567,2.7,14.234,14.234,0,0,1-2.1,2.336,8.155,8.155,0,0,1-1.3.947,4,4,0,0,1-1.144.469.136.136,0,0,0-.041.025Z" transform="translate(1149 3980.42)" fill="url(#linear-gradient)"/>
  </g>
</svg>
