<svg xmlns="http://www.w3.org/2000/svg" xmlns:xlink="http://www.w3.org/1999/xlink" width="139.839" height="152.281" viewBox="0 0 139.839 152.281">
  <defs>
    <linearGradient id="linear-gradient" x1="0.938" y1="0.774" x2="0" y2="0.225" gradientUnits="objectBoundingBox">
      <stop offset="0" stop-color="#c373f3"/>
      <stop offset="1" stop-color="#aab6ef"/>
    </linearGradient>
    <filter id="Объединение_47" x="0" y="0" width="139.839" height="152.281" filterUnits="userSpaceOnUse">
      <feOffset input="SourceAlpha"/>
      <feGaussianBlur stdDeviation="10" result="blur"/>
      <feFlood flood-color="#70f"/>
      <feComposite operator="in" in2="blur"/>
      <feComposite in="SourceGraphic"/>
    </filter>
  </defs>
  <g id="Сгруппировать_3038" data-name="Сгруппировать 3038" transform="translate(-193.08 -161.859)">
    <g transform="matrix(1, 0, 0, 1, 193.08, 161.86)" filter="url(#Объединение_47)">
      <path id="Объединение_47-2" data-name="Объединение 47" d="M-6605.919-5364.86-6606-5411l39.837-23,39.918,23.141.083,46.141-39.839,23Zm61-11.186a4.538,4.538,0,0,0,.507.31v12.706l10.6-6.121-.065-37.3-32.274-18.708-32.206,18.593.066,37.3,10.536,6.107v-12.583a4.584,4.584,0,0,0,.529-.323l21.142-18.648Zm-46.559-2.439-2.071-2.3a1.548,1.548,0,0,1,.118-2.187l24.766-21.864a3.831,3.831,0,0,1,2.583-.993,3.863,3.863,0,0,1,2.588,1l9.795,8.647v-5a1.548,1.548,0,0,1,1.548-1.547h6.192a1.546,1.546,0,0,1,1.547,1.547v13.2l5.678,5.013a1.548,1.548,0,0,1,.118,2.187l-2.069,2.3a1.55,1.55,0,0,1-2.187.118l-22.186-19.569a1.548,1.548,0,0,0-2.047,0l-22.186,19.569a1.541,1.541,0,0,1-1.034.4A1.543,1.543,0,0,1-6591.477-5378.484Z" transform="translate(6636 5464)" fill="url(#linear-gradient)"/>
    </g>
  </g>
</svg>
