<svg xmlns="http://www.w3.org/2000/svg" xmlns:xlink="http://www.w3.org/1999/xlink" width="139.839" height="152.281" viewBox="0 0 139.839 152.281">
  <defs>
    <linearGradient id="linear-gradient" x1="0.938" y1="0.774" x2="0" y2="0.225" gradientUnits="objectBoundingBox">
      <stop offset="0" stop-color="#c373f3"/>
      <stop offset="1" stop-color="#aab6ef"/>
    </linearGradient>
    <filter id="Объединение_47" x="0" y="0" width="139.839" height="152.281" filterUnits="userSpaceOnUse">
      <feOffset input="SourceAlpha"/>
      <feGaussianBlur stdDeviation="10" result="blur"/>
      <feFlood flood-color="#70f"/>
      <feComposite operator="in" in2="blur"/>
      <feComposite in="SourceGraphic"/>
    </filter>
  </defs>
  <g id="fixCarReady" transform="translate(-193.08 -161.86)">
    <g transform="matrix(1, 0, 0, 1, 193.08, 161.86)" filter="url(#Объединение_47)">
      <path id="Объединение_47-2" data-name="Объединение 47" d="M-6605.919-5364.859-6606-5411l39.837-23,39.918,23.139.083,46.141-39.839,23Zm7.565-41.709.066,37.3,32.272,18.706,32.206-18.593-.065-37.3-32.274-18.706Zm43.473,38.155a5.582,5.582,0,0,1-5.609-5.722c-.006-3.047,0-6.094,0-9.142s-.018-6.093.012-9.142a2.537,2.537,0,0,0-.683-1.8,8.258,8.258,0,0,1,1.809-12.541,5.662,5.662,0,0,1,.6-.345c.806-.38,1.042-.235,1.044.648.007,2.031.033,4.063-.011,6.092a1.788,1.788,0,0,0,1.2,1.9c.814.342,1.5.828,2.523.386a2.681,2.681,0,0,0,1.9-3.055c-.152-1.7-.033-3.422-.031-5.135,0-1.119.267-1.27,1.281-.728a8.322,8.322,0,0,1,3.173,11.435,2.893,2.893,0,0,1-.527.792c-1.1.928-1.175,2.132-1.165,3.46.046,5.716.02,11.433.021,17.151a5.59,5.59,0,0,1-5.513,5.75Zm-2.119-5.665a2.136,2.136,0,0,0,1.939,2.178,2.1,2.1,0,0,0,2.23-1.955,2.092,2.092,0,0,0-1.966-2.218c-.037,0-.075,0-.113,0A2.125,2.125,0,0,0-6557-5374.079Zm-22.894,2.872a2.777,2.777,0,0,1-2.89-2.912c-.01-.726-.031-1.454,0-2.177.07-1.476.093-2.807-1.369-3.861a4.2,4.2,0,0,1-1.419-3.6,22.119,22.119,0,0,1,.111-3.818,5.294,5.294,0,0,1,2.342-3.518,2.1,2.1,0,0,0,.8-.98q1.3-3.078,2.623-6.147a5.575,5.575,0,0,1,5.583-3.634c2.5.015,4.992.021,7.485-.01.642-.01.789.163.655.789a6.6,6.6,0,0,0,.019,2.767c.113.516-.05.646-.554.642-1.127-.01-2.253-.008-3.38-.006-1.4,0-2.8,0-4.193-.013a1.713,1.713,0,0,0-1.815,1.164c-.531,1.282-1.1,2.55-1.693,3.8-.25.532-.1.63.424.625,2.207-.02,4.41-.008,6.615-.008v0c2.177,0,4.354.017,6.529-.011.545-.007.764.112.746.709-.043,1.391-.046,2.785,0,4.176.02.6-.207.714-.746.706-1.856-.03-3.715-.012-5.572-.012-1.4,0-2.069.458-2.056,1.415.015.935.655,1.373,2.013,1.374,1.857,0,3.714.023,5.571-.01.58-.01.819.1.8.75-.051,1.391-.046,2.785,0,4.176.017.563-.184.672-.7.667-1.222-.01-2.442-.008-3.663-.008-1.535,0-3.072,0-4.607-.017-.65-.01-.852.156-.817.814.056,1.1.026,2.2.015,3.307a2.77,2.77,0,0,1-2.853,2.858q-.985.01-1.97.01Q-6578.876-5371.2-6579.894-5371.207Zm-1.5-13.943a3.5,3.5,0,0,0,3.47,3.5,3.5,3.5,0,0,0,3.5-3.472,3.5,3.5,0,0,0-3.472-3.5h-.01A3.492,3.492,0,0,0-6581.394-5385.15Z" transform="translate(6636 5464)" fill="url(#linear-gradient)"/>
    </g>
  </g>
</svg>
