<svg xmlns="http://www.w3.org/2000/svg" xmlns:xlink="http://www.w3.org/1999/xlink" width="97.838" height="110.282" viewBox="0 0 97.838 110.282">
  <defs>
    <linearGradient id="linear-gradient" y1="0.242" x2="1" y2="0.749" gradientUnits="objectBoundingBox">
      <stop offset="0" stop-color="#f1f1f1"/>
      <stop offset="1" stop-color="#8e8e8e"/>
    </linearGradient>
    <filter id="Объединение_56" x="0" y="0" width="97.838" height="110.282" filterUnits="userSpaceOnUse">
      <feOffset dy="3" input="SourceAlpha"/>
      <feGaussianBlur stdDeviation="3" result="blur"/>
      <feFlood/>
      <feComposite operator="in" in2="blur"/>
      <feComposite in="SourceGraphic"/>
    </filter>
  </defs>
  <g id="gunLicense" transform="translate(-214.08 -185.859)">
    <g transform="matrix(1, 0, 0, 1, 214.08, 185.86)" filter="url(#Объединение_56)">
      <path id="Объединение_56-2" data-name="Объединение 56" d="M-6728.42-5504.063l-.081-46.142,39.838-23,39.917,23.141.083,46.14-39.838,23Zm7.565-41.709.065,37.3,32.273,18.707,32.207-18.592-.066-37.305-32.273-18.707Zm19.716,34.537c-1.929-.523-3.838-1.167-5.8-1.537a3.927,3.927,0,0,1-3.465-2.909v-.684q2.148-4.884,4.289-9.769a14.1,14.1,0,0,0,.6-1.583,1.84,1.84,0,0,0-.836-2.476,8.262,8.262,0,0,1-.831-.6c-.929-.927-.677-1.958.576-2.455.41-.162.815-.341,1.192-.5.088-.853-.581-1.142-.981-1.581a3.156,3.156,0,0,1-1.015-2.083c-.035-1.4,1.074-2.393,2.317-1.8a2.5,2.5,0,0,0,2.535-.233,7.006,7.006,0,0,1,3.634-.981c.91-1.163,1.464-2.985,3.578-2.338,1.612.495,1.717,1.92,1.933,3.188a2.954,2.954,0,0,0,1.6.194c5.486.01,10.973,0,16.457.01.807,0,1.606.049,2.179-.687a1.245,1.245,0,0,1,1.1-.339c1.2,0,2.4,0,3.438,0,.706.419.381,1.047.68,1.554.433.26,1.19.322,1.19,1.142,0,2.376,0,4.755,0,6.957a1.712,1.712,0,0,1-1.489.434,3.786,3.786,0,0,0-2.729.69,2.285,2.285,0,0,1-1.616.35c-.122,0-.245-.008-.365-.007H-6685.7a7.81,7.81,0,0,0-1.289,2.559,3.52,3.52,0,0,1-3.742,2.583c-.963-.093-1.942-.019-2.913-.015-1.866.008-2.726.616-3.247,2.347-.733,2.435-1.412,4.887-2.187,7.308a5.206,5.206,0,0,0-.248,1.667,2.007,2.007,0,0,1-.436,1.59Zm9.4-17.018a1.276,1.276,0,0,0,.995,1.506,2.894,2.894,0,0,0,.674-3.215A1.973,1.973,0,0,0-6691.735-5528.252Zm22.138-5.012h-34.263C-6702.2-5532.643-6671.045-5532.726-6669.6-5533.265Zm-22.653-4.574a10.037,10.037,0,0,0,4.521-.046,12.479,12.479,0,0,0-2.327-.241A8.122,8.122,0,0,0-6692.25-5537.839Zm6.255-.2c-.027,0-.064.078-.074.124-.051.221.213.045-.139.247h16.66a1.257,1.257,0,0,0-1.077-.471c-1.841.017-3.682,0-5.521-.007-1.151-.008-2.3-.015-3.455-.015C-6681.733-5538.163-6683.865-5538.138-6686-5538.04Z" transform="translate(6737.5 5579.2)" fill="url(#linear-gradient)"/>
    </g>
  </g>
</svg>
