<svg xmlns="http://www.w3.org/2000/svg" xmlns:xlink="http://www.w3.org/1999/xlink" width="97.839" height="110.282" viewBox="0 0 97.839 110.282">
  <defs>
    <linearGradient id="linear-gradient" y1="0.242" x2="1" y2="0.749" gradientUnits="objectBoundingBox">
      <stop offset="0" stop-color="#f1f1f1"/>
      <stop offset="1" stop-color="#8e8e8e"/>
    </linearGradient>
    <filter id="Объединение_59" x="0" y="0" width="97.839" height="110.282" filterUnits="userSpaceOnUse">
      <feOffset dy="3" input="SourceAlpha"/>
      <feGaussianBlur stdDeviation="3" result="blur"/>
      <feFlood/>
      <feComposite operator="in" in2="blur"/>
      <feComposite in="SourceGraphic"/>
    </filter>
  </defs>
  <g id="highCharity" transform="translate(-214.08 -185.859)">
    <g transform="matrix(1, 0, 0, 1, 214.08, 185.86)" filter="url(#Объединение_59)">
      <path id="Объединение_59-2" data-name="Объединение 59" d="M-7877.42-5713.063l-.081-46.141,39.838-23,39.917,23.141.083,46.141-39.838,23Zm7.566-41.708.065,37.3,32.272,18.706,32.208-18.593-.065-37.3-32.274-18.706Zm32.911,40c-4.893-1.157-9.832-2.12-14.762-3.112-.635-.126-.742-.394-.74-.955.02-4.053.026-8.105-.006-12.161a1.062,1.062,0,0,1,.724-1.152,10.939,10.939,0,0,1,11.255,1.054,2.977,2.977,0,0,0,1.9.587c1.23-.046,2.461-.022,3.693-.014a4.218,4.218,0,0,1,4.169,4.966c-.073.488-.348.467-.619.445a1.714,1.714,0,0,0-.172-.01c-3.212.01-6.425,0-9.638,0-.842,0-1.683.016-2.523-.008-.423-.012-.557.13-.589.559-.152,2.151-.164,2.151,1.961,2.151q2.569,0,5.134,0a17.525,17.525,0,0,1,2.161.012,12.579,12.579,0,0,0,8.813-2.238c1.495-.991,3.137-1.754,4.727-2.594a4.66,4.66,0,0,1,6.625,1.888c.417.7.216.9-.413,1.218-5.725,2.887-11.458,5.761-17.132,8.745a6.281,6.281,0,0,1-2.993.809A6.762,6.762,0,0,1-7836.943-5714.769Zm-18.809-3.573c-1.382-.038-2.764-.036-4.146-.012-.516.01-.658-.18-.654-.678q.023-5.409,0-10.812c0-.477.083-.7.628-.688q2.073.053,4.146,0c.528-.014.652.174.646.67-.026,1.8-.012,3.606-.01,5.407s-.01,3.6.01,5.407c0,.449-.053.706-.575.706Zm26.2-14.887a12.183,12.183,0,0,1-11.969-12.212,12.157,12.157,0,0,1,12.336-12.113,12.178,12.178,0,0,1,11.969,12.212,12.151,12.151,0,0,1-12.251,12.113Zm-5.122-8.564a3.83,3.83,0,0,0,3.013,3c.795.16,1.06.484.941,1.231a2.668,2.668,0,0,0,0,.451c.012,1.232-.065,1.206.736,1.183.134,0,.291-.008.476-.006,1.483.014,1.522,0,1.473-1.512-.024-.785.13-1.172,1.014-1.364a3.959,3.959,0,0,0,3.044-4.379,4.105,4.105,0,0,0-4.019-3.553c-.413-.008-.825-.006-1.238,0-.457,0-.917.006-1.376-.006a1.364,1.364,0,0,1-1.453-1.378,1.354,1.354,0,0,1,1.43-1.311c.547-.014,1.1-.01,1.645-.008.292,0,.585,0,.878,0a1.187,1.187,0,0,1,1.246.712c.213.648.632.67,1.164.637a7.676,7.676,0,0,1,1.17,0c.514.043.633-.18.532-.639a3.767,3.767,0,0,0-2.9-3.2c-1.026-.212-1.176-.659-1.135-1.542.063-1.372.016-1.376-1.347-1.376h-.089c-.2,0-.372,0-.516,0-.84-.012-.765-.022-.713,1.235.042.991-.128,1.491-1.267,1.72a3.841,3.841,0,0,0-2.8,3.851,4.11,4.11,0,0,0,2.882,3.837,5.676,5.676,0,0,0,1.734.172c.2,0,.394,0,.591,0,.48,0,.961-.016,1.439,0a1.376,1.376,0,0,1,1.459,1.378,1.362,1.362,0,0,1-1.43,1.313c-.87.023-1.742.01-2.613,0a1.125,1.125,0,0,1-1.157-.7c-.206-.65-.625-.686-1.161-.648a5.5,5.5,0,0,1-.99,0c-.077-.008-.148-.012-.211-.012C-7834.807-5742.71-7834.834-5742.364-7834.674-5741.792Z" transform="translate(7886.5 5788.2)" fill="url(#linear-gradient)"/>
    </g>
  </g>
</svg>
