<svg xmlns="http://www.w3.org/2000/svg" xmlns:xlink="http://www.w3.org/1999/xlink" width="97.839" height="110.282" viewBox="0 0 97.839 110.282">
  <defs>
    <linearGradient id="linear-gradient" y1="0.242" x2="1" y2="0.749" gradientUnits="objectBoundingBox">
      <stop offset="0" stop-color="#f1f1f1"/>
      <stop offset="1" stop-color="#8e8e8e"/>
    </linearGradient>
    <filter id="Объединение_59" x="0" y="0" width="97.839" height="110.282" filterUnits="userSpaceOnUse">
      <feOffset dy="3" input="SourceAlpha"/>
      <feGaussianBlur stdDeviation="3" result="blur"/>
      <feFlood/>
      <feComposite operator="in" in2="blur"/>
      <feComposite in="SourceGraphic"/>
    </filter>
  </defs>
  <g id="highOnline" transform="translate(-214.08 -185.859)">
    <g transform="matrix(1, 0, 0, 1, 214.08, 185.86)" filter="url(#Объединение_59)">
      <path id="Объединение_59-2" data-name="Объединение 59" d="M-7877.42-5713.063l-.081-46.141,39.838-23,39.917,23.141.083,46.141-39.838,23Zm7.566-41.708.065,37.3,32.272,18.706,32.208-18.593-.065-37.3-32.274-18.706Zm44.46,36.764-3.679-4.9a14.5,14.5,0,0,1-17.075,0l-3.677,4.9a1.325,1.325,0,0,1-1.063.532,1.312,1.312,0,0,1-.795-.267,1.328,1.328,0,0,1-.267-1.858l3.8-5.057a14.606,14.606,0,0,1,0-20.213,14.608,14.608,0,0,1,20.652-.438,14.608,14.608,0,0,1,.439,20.651l3.794,5.057a1.325,1.325,0,0,1-.265,1.858,1.322,1.322,0,0,1-.8.267A1.325,1.325,0,0,1-7825.394-5718.007Zm-13.542-24.7v7.524l-3.719,4.957a1.33,1.33,0,0,0,.265,1.86,1.331,1.331,0,0,0,1.86-.267l3.981-5.31a1.331,1.331,0,0,0,.267-.8v-7.967a1.329,1.329,0,0,0-1.329-1.327A1.327,1.327,0,0,0-7838.937-5742.7Zm-15.317-.617a6.635,6.635,0,0,1,0-9.268,6.639,6.639,0,0,1,9.389-.119,1.331,1.331,0,0,1,0,1.876l-7.513,7.511a1.325,1.325,0,0,1-.939.389A1.32,1.32,0,0,1-7854.254-5743.321Zm31.41,0-7.51-7.511a1.326,1.326,0,0,1,0-1.876,6.638,6.638,0,0,1,9.387,0,6.634,6.634,0,0,1,0,9.387,1.32,1.32,0,0,1-.937.387A1.324,1.324,0,0,1-7822.844-5743.321Z" transform="translate(7886.5 5788.2)" fill="url(#linear-gradient)"/>
    </g>
  </g>
</svg>
