<svg xmlns="http://www.w3.org/2000/svg" xmlns:xlink="http://www.w3.org/1999/xlink" width="97.839" height="110.281" viewBox="0 0 97.839 110.281">
  <defs>
    <linearGradient id="linear-gradient" y1="0.242" x2="1" y2="0.749" gradientUnits="objectBoundingBox">
      <stop offset="0" stop-color="#f1f1f1"/>
      <stop offset="1" stop-color="#8e8e8e"/>
    </linearGradient>
    <filter id="Объединение_47" x="0" y="0" width="97.839" height="110.281" filterUnits="userSpaceOnUse">
      <feOffset dy="3" input="SourceAlpha"/>
      <feGaussianBlur stdDeviation="3" result="blur"/>
      <feFlood/>
      <feComposite operator="in" in2="blur"/>
      <feComposite in="SourceGraphic"/>
    </filter>
  </defs>
  <g id="jobLevel3" transform="translate(-214.08 -185.859)">
    <g transform="matrix(1, 0, 0, 1, 214.08, 185.86)" filter="url(#Объединение_47)">
      <path id="Объединение_47-2" data-name="Объединение 47" d="M-6605.919-5364.86-6606-5411l39.837-23,39.918,23.141.083,46.141-39.839,23Zm7.565-41.709.066,37.3,10.357,6,1.034-7.291-1.8-2.7a1.1,1.1,0,0,1-.055-1.136,1.106,1.106,0,0,1,.975-.583h44.234a1.105,1.105,0,0,1,.975.583,1.1,1.1,0,0,1-.055,1.136l-1.8,2.7.987,6.96,9.63-5.56-.065-37.3-32.274-18.708Zm17.21,30.243a2.581,2.581,0,0,1-2.58-2.581,2.58,2.58,0,0,1,2.58-2.58h30.964a2.579,2.579,0,0,1,2.58,2.58,2.579,2.579,0,0,1-2.58,2.581Zm20.009-6.267.582-12.8a15.9,15.9,0,0,1,10.589,12.8Zm-7.946,0-.635-13.958a1.114,1.114,0,0,1,.305-.814,1.108,1.108,0,0,1,.8-.341h5.9a1.1,1.1,0,0,1,.8.341,1.1,1.1,0,0,1,.305.814l-.633,13.958Zm-12.277,0a15.9,15.9,0,0,1,10.589-12.8l.581,12.8Zm31.256-11.658a.554.554,0,0,1-.471-.347l-.968-2.414-2.534-.582a.548.548,0,0,1-.414-.411.552.552,0,0,1,.186-.554l1.989-1.649-.24-2.582a.549.549,0,0,1,.262-.523.549.549,0,0,1,.584,0l2.2,1.393,2.382-1.015a.553.553,0,0,1,.576.088.551.551,0,0,1,.177.556l-.633,2.512,1.714,1.958a.555.555,0,0,1,.1.577.555.555,0,0,1-.478.338l-2.588.161-1.323,2.223a.553.553,0,0,1-.476.271Zm-31.639-.269-1.321-2.223-2.588-.161a.552.552,0,0,1-.478-.338.553.553,0,0,1,.094-.577l1.716-1.958-.633-2.512a.553.553,0,0,1,.176-.556.556.556,0,0,1,.577-.088l2.382,1.015,2.2-1.393a.552.552,0,0,1,.585,0,.551.551,0,0,1,.262.522l-.242,2.582,1.991,1.651a.549.549,0,0,1,.184.554.549.549,0,0,1-.415.411l-2.533.582-.968,2.414a.552.552,0,0,1-.469.347h-.043A.555.555,0,0,1-6581.74-5394.52Zm18.384-6.5-2.306-1.206-2.3,1.206a.561.561,0,0,1-.583-.043.559.559,0,0,1-.219-.542l.441-2.548-1.864-1.8a.554.554,0,0,1-.141-.567.553.553,0,0,1,.447-.378l2.575-.373,1.152-2.319a.55.55,0,0,1,.494-.307.553.553,0,0,1,.5.307l1.15,2.319,2.576.373a.554.554,0,0,1,.446.378.556.556,0,0,1-.141.567l-1.862,1.8.439,2.548a.553.553,0,0,1-.221.542.536.536,0,0,1-.325.106A.562.562,0,0,1-6563.356-5401.021Z" transform="translate(6615 5440)" fill="url(#linear-gradient)"/>
    </g>
  </g>
</svg>
