<svg xmlns="http://www.w3.org/2000/svg" xmlns:xlink="http://www.w3.org/1999/xlink" width="97.839" height="110.282" viewBox="0 0 97.839 110.282">
  <defs>
    <linearGradient id="linear-gradient" y1="0.242" x2="1" y2="0.749" gradientUnits="objectBoundingBox">
      <stop offset="0" stop-color="#f1f1f1"/>
      <stop offset="1" stop-color="#8e8e8e"/>
    </linearGradient>
    <filter id="Объединение_59" x="0" y="0" width="97.839" height="110.282" filterUnits="userSpaceOnUse">
      <feOffset dy="3" input="SourceAlpha"/>
      <feGaussianBlur stdDeviation="3" result="blur"/>
      <feFlood/>
      <feComposite operator="in" in2="blur"/>
      <feComposite in="SourceGraphic"/>
    </filter>
  </defs>
  <g id="jobLevel2" transform="translate(-214.079 -185.859)">
    <g transform="matrix(1, 0, 0, 1, 214.08, 185.86)" filter="url(#Объединение_59)">
      <path id="Объединение_59-2" data-name="Объединение 59" d="M-7877.42-5713.063l-.081-46.141,39.838-23,39.917,23.141.083,46.141-39.838,23Zm41.71-16.281a.984.984,0,0,1,.692.287l2.6,2.614a.98.98,0,0,1,.287.692l-.019,23.889,26.836-15.493-.065-37.3-32.274-18.706-32.205,18.594.065,37.3,26.555,15.392.018-23.693a.971.971,0,0,1,.289-.69l2.613-2.606a.987.987,0,0,1,.692-.285Zm-18.615,3.363-6.522-2.607a.991.991,0,0,1-.331-.217.98.98,0,0,1-.287-.692v-9.132a.979.979,0,0,1,.617-.908l6.522-2.609a.976.976,0,0,1,.726,0l6.522,2.609a.978.978,0,0,1,.615.908l0,1.957h3.428l1.951,1.951-.006,3.266h-5.375v1.958a.977.977,0,0,1-.615.907l-6.522,2.609a.958.958,0,0,1-.364.071A.946.946,0,0,1-7854.325-5725.981Zm-2.9-10.053v3.94l3.262,1.358,3.26-1.358v-3.94l-3.26-1.358Zm35.873,9.8a6.2,6.2,0,0,1-4.383-1.819,6.183,6.183,0,0,1-1.736-3.4h-.765a9.879,9.879,0,0,0,0-5.217h.761a6.205,6.205,0,0,1,6.119-5.217h1.955c3.059,0,5.546,1.508,5.546,4.565a.98.98,0,0,1-.979.979h-6.848v4.565h6.848a.98.98,0,0,1,.979.979c0,3.057-2.489,4.565-5.544,4.565Zm-10.521-.7-12.912-12.912a.976.976,0,0,1,0-1.384.976.976,0,0,1,1.384,0l12.912,12.914a.975.975,0,0,1,0,1.382.975.975,0,0,1-.692.286A.975.975,0,0,1-7831.873-5726.936Zm-1.973-6.123,4.523-3.92a8.84,8.84,0,0,1-.86,7.582Zm-6.259-.725,3.462,3.459-2.978,0a1.927,1.927,0,0,0-.49.062Zm2.137-3.4,4.664-5.382a.978.978,0,0,1,.706-.338.97.97,0,0,1,.726.287l2.768,2.766a.979.979,0,0,1,.287.728.986.986,0,0,1-.338.706l-5.383,4.664Zm-4.355-4.355a8.829,8.829,0,0,1,7.58-.86l-3.918,4.521Zm2.234-2,0-2.507a2.042,2.042,0,0,0,.488.063l3.915.006a2.039,2.039,0,0,0,.488-.061l0,2.5A9.847,9.847,0,0,0-7840.089-5743.537Zm.494-3.424a.976.976,0,0,1-.69-.285.91.91,0,0,1-.125-.15l-1.3-1.959a.968.968,0,0,1-.162-.544l.006-3.913a.972.972,0,0,1,.061-.344l1.965-5.215a.981.981,0,0,1,.917-.633l2.609,0a.982.982,0,0,1,.916.637l1.947,5.221a.914.914,0,0,1,.061.344l-.006,3.912a.979.979,0,0,1-.164.542l-1.307,1.955a.98.98,0,0,1-.816.435Z" transform="translate(7886.5 5788.2)" fill="url(#linear-gradient)"/>
    </g>
  </g>
</svg>
