<svg xmlns="http://www.w3.org/2000/svg" xmlns:xlink="http://www.w3.org/1999/xlink" width="97.839" height="110.281" viewBox="0 0 97.839 110.281">
  <defs>
    <linearGradient id="linear-gradient" y1="0.242" x2="1" y2="0.749" gradientUnits="objectBoundingBox">
      <stop offset="0" stop-color="#f1f1f1"/>
      <stop offset="1" stop-color="#8e8e8e"/>
    </linearGradient>
    <filter id="Объединение_47" x="0" y="0" width="97.839" height="110.281" filterUnits="userSpaceOnUse">
      <feOffset dy="3" input="SourceAlpha"/>
      <feGaussianBlur stdDeviation="3" result="blur"/>
      <feFlood/>
      <feComposite operator="in" in2="blur"/>
      <feComposite in="SourceGraphic"/>
    </filter>
  </defs>
  <g id="jobsMaxLevel" transform="translate(-214.08 -185.859)">
    <g transform="matrix(1, 0, 0, 1, 214.08, 185.86)" filter="url(#Объединение_47)">
      <path id="Объединение_47-2" data-name="Объединение 47" d="M-6605.919-5364.86-6606-5411l39.837-23,39.918,23.141.083,46.141-39.839,23Zm7.631-4.4,29.207,16.931v-12.816h7v12.322l28.272-16.322-.065-37.3-32.274-18.708-32.206,18.593.033,18.63h20.052a1.312,1.312,0,0,0,.869-.33l4.461-3.967a5.064,5.064,0,0,1,2.715-.788h6.794a1.391,1.391,0,0,1,1.389,1.389v10.254a1.892,1.892,0,0,1-1.829,1.89,1.843,1.843,0,0,1-1.85-1.881v-5.468a1.306,1.306,0,0,0-1.174-1.3,1.307,1.307,0,0,0-1.415,1.034c0,.027-.62,2.748-4.987,2.759a1.328,1.328,0,0,0-1.331,1.232,1.3,1.3,0,0,0,1.3,1.381,8.857,8.857,0,0,0,4.987-1.323v1.658a4.467,4.467,0,0,0,3.316,4.375,4.442,4.442,0,0,0,1.136,4.358,4.434,4.434,0,0,0-1.305,3.145,4.463,4.463,0,0,0,.4,1.84h-3.964a10.293,10.293,0,0,1-5.237-1.63c-2.17-1.129-4.627-2.407-7.22-2.407h-17.082Zm37.554,1.585a1.842,1.842,0,0,1-1.84-1.84,1.841,1.841,0,0,1,1.84-1.838h5.257a1.393,1.393,0,0,1,1.393,1.391v.9a1.4,1.4,0,0,1-1.393,1.393Zm0-6.292a1.843,1.843,0,0,1-1.84-1.84,1.842,1.842,0,0,1,1.84-1.84h6.307a1.392,1.392,0,0,1,1.391,1.391v.9a1.393,1.393,0,0,1-1.391,1.393Zm1.179-6.295c.166-.68.129-.882.129-3.679h6.048a1.393,1.393,0,0,1,1.391,1.391v.9a1.392,1.392,0,0,1-1.391,1.391Zm.129-6.292v-3.681h7.1a1.4,1.4,0,0,1,1.393,1.393v.9a1.4,1.4,0,0,1-1.393,1.393Zm-4-9.079h-5.536v-3.732a7.24,7.24,0,0,1-3.814-6.383,7.243,7.243,0,0,1,3.985-6.473.585.585,0,0,1,.844.526v5.285l2.416,1.55,2.414-1.55v-5.285a.587.587,0,0,1,.846-.526,7.242,7.242,0,0,1,3.985,6.473,7.242,7.242,0,0,1-3.75,6.346v4.017A3.983,3.983,0,0,0-6563.429-5395.637Z" transform="translate(6615 5440)" fill="url(#linear-gradient)"/>
    </g>
  </g>
</svg>
