<svg xmlns="http://www.w3.org/2000/svg" xmlns:xlink="http://www.w3.org/1999/xlink" width="139.839" height="152.282" viewBox="0 0 139.839 152.282">
  <defs>
    <linearGradient id="linear-gradient" y1="0.259" x2="1" y2="0.749" gradientUnits="objectBoundingBox">
      <stop offset="0" stop-color="#aab6ef"/>
      <stop offset="1" stop-color="#718aff"/>
    </linearGradient>
    <filter id="Объединение_59" x="0" y="0" width="139.839" height="152.282" filterUnits="userSpaceOnUse">
      <feOffset input="SourceAlpha"/>
      <feGaussianBlur stdDeviation="10" result="blur"/>
      <feFlood flood-color="#aab6ef"/>
      <feComposite operator="in" in2="blur"/>
      <feComposite in="SourceGraphic"/>
    </filter>
  </defs>
  <g id="killerReady" transform="translate(-193.079 -161.859)">
    <g transform="matrix(1, 0, 0, 1, 193.08, 161.86)" filter="url(#Объединение_59)">
      <path id="Объединение_59-2" data-name="Объединение 59" d="M-7877.42-5713.063l-.081-46.141,39.838-23,39.917,23.141.083,46.141-39.838,23Zm7.566-41.708.065,37.3,32.272,18.706,32.208-18.593-.065-37.3-32.274-18.706Zm43.4,37.962a2.773,2.773,0,0,1,.1-2.827l1.313-2.042a1.213,1.213,0,0,1,1.02-.558,1.208,1.208,0,0,1,1.02.558l1.315,2.042a2.776,2.776,0,0,1,.1,2.829,2.772,2.772,0,0,1-2.436,1.445A2.77,2.77,0,0,1-7826.456-5716.81Zm-28.457-1.417a4.067,4.067,0,0,1,0-5.741l8.97-8.97,5.741,5.741-8.97,8.97a4.045,4.045,0,0,1-2.869,1.187A4.055,4.055,0,0,1-7854.913-5718.227Zm1.661-2.873a1.213,1.213,0,0,0,1.214,1.212,1.212,1.212,0,0,0,1.212-1.212,1.214,1.214,0,0,0-1.212-1.214A1.214,1.214,0,0,0-7853.252-5721.1Zm17.959-4.7-8.9-8.895,13.847-13.845a12.4,12.4,0,0,0,.451,5.514,19.954,19.954,0,0,1,1.012,7c0,.06,0,.119,0,.178v5.354l-4.7,4.693a1.2,1.2,0,0,1-.856.356A1.207,1.207,0,0,1-7835.293-5725.8Zm8.835-2.558,0-7.548a22.5,22.5,0,0,0-1.135-7.886,12.285,12.285,0,0,1,.431-7.75l.091-.273,4.6-4.6a1.213,1.213,0,0,1,1.983.409,20.007,20.007,0,0,1,1.366,8.906,20.107,20.107,0,0,1-2.463,8.2v10.536a2.434,2.434,0,0,1-2.436,2.436A2.435,2.435,0,0,1-7826.458-5728.355Z" transform="translate(7907.5 5812.2)" fill="url(#linear-gradient)"/>
    </g>
  </g>
</svg>
