<svg xmlns="http://www.w3.org/2000/svg" xmlns:xlink="http://www.w3.org/1999/xlink" width="139.839" height="152.281" viewBox="0 0 139.839 152.281">
  <defs>
    <linearGradient id="linear-gradient" y1="0.259" x2="1" y2="0.749" gradientUnits="objectBoundingBox">
      <stop offset="0" stop-color="#aab6ef"/>
      <stop offset="1" stop-color="#718aff"/>
    </linearGradient>
    <filter id="Объединение_59" x="0" y="0" width="139.839" height="152.281" filterUnits="userSpaceOnUse">
      <feOffset input="SourceAlpha"/>
      <feGaussianBlur stdDeviation="10" result="blur"/>
      <feFlood flood-color="#aab6ef"/>
      <feComposite operator="in" in2="blur"/>
      <feComposite in="SourceGraphic"/>
    </filter>
  </defs>
  <g id="marryReady" transform="translate(-193.08 -161.86)">
    <g transform="matrix(1, 0, 0, 1, 193.08, 161.86)" filter="url(#Объединение_59)">
      <path id="Объединение_59-2" data-name="Объединение 59" d="M-7877.42-5713.063l-.081-46.141,39.837-23,39.918,23.139.083,46.141-39.839,23Zm7.565-41.709.066,37.3,32.272,18.706,32.206-18.593-.065-37.3-32.274-18.706Zm9.18,25.564a16.233,16.233,0,0,1,10.958-15.344c-.058.6-.134,1.2-.134,1.813a18.71,18.71,0,0,0,.189,2.578,12.157,12.157,0,0,0-6.953,10.954,12.191,12.191,0,0,0,12.177,12.177,12.192,12.192,0,0,0,12.179-12.177,12.17,12.17,0,0,0-7.836-11.343,9.1,9.1,0,0,1-.284-2.188,9.022,9.022,0,0,1,.27-2.106,16.234,16.234,0,0,1,11.909,15.637,16.236,16.236,0,0,1-16.237,16.236A16.236,16.236,0,0,1-7860.675-5729.208Zm13.712-13.712a16.237,16.237,0,0,1,16.236-16.237,16.236,16.236,0,0,1,16.237,16.237,16.23,16.23,0,0,1-10.975,15.349c.058-.6.151-1.2.151-1.817a18.76,18.76,0,0,0-.214-2.564,12.161,12.161,0,0,0,6.979-10.967,12.191,12.191,0,0,0-12.179-12.177,12.191,12.191,0,0,0-12.177,12.177,12.169,12.169,0,0,0,7.845,11.345,9.33,9.33,0,0,1,.273,2.187,9.279,9.279,0,0,1-.264,2.105A16.229,16.229,0,0,1-7846.963-5742.92Z" transform="translate(7907.5 5812.2)" fill="url(#linear-gradient)"/>
    </g>
  </g>
</svg>
