<svg xmlns="http://www.w3.org/2000/svg" xmlns:xlink="http://www.w3.org/1999/xlink" width="97.839" height="110.281" viewBox="0 0 97.839 110.281">
  <defs>
    <linearGradient id="linear-gradient" y1="0.242" x2="1" y2="0.749" gradientUnits="objectBoundingBox">
      <stop offset="0" stop-color="#f1f1f1"/>
      <stop offset="1" stop-color="#8e8e8e"/>
    </linearGradient>
    <filter id="Объединение_56" x="0" y="0" width="97.839" height="110.281" filterUnits="userSpaceOnUse">
      <feOffset dy="3" input="SourceAlpha"/>
      <feGaussianBlur stdDeviation="3" result="blur"/>
      <feFlood/>
      <feComposite operator="in" in2="blur"/>
      <feComposite in="SourceGraphic"/>
    </filter>
  </defs>
  <g id="materials" transform="translate(-214.08 -185.86)">
    <g transform="matrix(1, 0, 0, 1, 214.08, 185.86)" filter="url(#Объединение_56)">
      <path id="Объединение_56-2" data-name="Объединение 56" d="M-6728.42-5504.063l-.081-46.141,39.837-23,39.918,23.139.083,46.141-39.839,23Zm7.565-41.709.066,37.3,32.272,18.706,32.206-18.593-.065-37.3-32.274-18.706Zm47.978,37.848-.207-.05h-31l-.206.05h-.02a2.978,2.978,0,0,1-.547-.05h0v0a3.027,3.027,0,0,1-2.445-2.964l-.077-21.824,17.07-.037h3.455l17.069.037-.076,21.824a3.018,3.018,0,0,1-3,3.016Zm-29.061-36.487a3.33,3.33,0,0,1,2.9-1.718l9.279-.04-.935,10.5-16.1.038Zm15.045-1.757,9.279-.039a3.362,3.362,0,0,1,2.923,1.719l4.905,8.784-16.133.038Z" transform="translate(6737.5 5579.2)" fill="url(#linear-gradient)"/>
    </g>
  </g>
</svg>
