<svg xmlns="http://www.w3.org/2000/svg" xmlns:xlink="http://www.w3.org/1999/xlink" width="139.839" height="152.282" viewBox="0 0 139.839 152.282">
  <defs>
    <linearGradient id="linear-gradient" y1="0.25" x2="1" y2="0.758" gradientUnits="objectBoundingBox">
      <stop offset="0" stop-color="#ffef84"/>
      <stop offset="1" stop-color="#ffa743"/>
    </linearGradient>
    <filter id="Объединение_59" x="0" y="0" width="139.839" height="152.282" filterUnits="userSpaceOnUse">
      <feOffset input="SourceAlpha"/>
      <feGaussianBlur stdDeviation="10" result="blur"/>
      <feFlood flood-color="#ffd4a2"/>
      <feComposite operator="in" in2="blur"/>
      <feComposite in="SourceGraphic"/>
    </filter>
  </defs>
  <g id="maxBusLevelReady" transform="translate(-193.08 -161.859)">
    <g transform="matrix(1, 0, 0, 1, 193.08, 161.86)" filter="url(#Объединение_59)">
      <path id="Объединение_59-2" data-name="Объединение 59" d="M-7877.42-5713.063l-.081-46.141,39.838-23,39.917,23.141.083,46.141-39.838,23Zm39.9,14.3,1.793-1.035v-4.866a6.18,6.18,0,0,0,4.015-4.013h3.371l.965,2.963,2.021-.332c-.042.112-.084.224-.128.335l20.171-11.646-.065-37.3-32.274-18.706-32.205,18.591.065,37.306,20.051,11.622c-.026-.066-.051-.133-.076-.2l2.021.332.967-2.963h3.371a6.179,6.179,0,0,0,4.015,4.013v4.787Zm-2.509-11.775a2.446,2.446,0,0,1,2.444-2.443,2.446,2.446,0,0,1,2.443,2.443,2.445,2.445,0,0,1-2.443,2.443A2.445,2.445,0,0,1-7840.026-5710.536Zm13.042-5.984,1.93-.552,2.309.063.1-3.717-1.7-.045a16.725,16.725,0,0,0-13.244-6.512,16.73,16.73,0,0,0-13.246,6.512l-1.694.047.1,3.715,2.311-.063,1.928.552-2.157,6.623-1.326-.218-7.165-6.042A4.156,4.156,0,0,1-7860-5720.9l5.228-12.93a4.922,4.922,0,0,1,4.583-3.088h25.223a4.921,4.921,0,0,1,4.583,3.088l5.227,12.93a4.153,4.153,0,0,1-1.176,4.741l-7.163,6.042-1.325.218Zm-4.725,4.126a6.169,6.169,0,0,0-5.874-4.3,6.169,6.169,0,0,0-5.874,4.3h-2.159l2.163-6.641-3.144-.9a12.973,12.973,0,0,1,9.013-3.63,12.982,12.982,0,0,1,9.015,3.63l-3.146.9,2.165,6.641Zm-17.014-37.521a11.141,11.141,0,0,1,11.141-11.14,11.14,11.14,0,0,1,11.14,11.14,11.141,11.141,0,0,1-11.14,11.143A11.142,11.142,0,0,1-7848.723-5749.916Z" transform="translate(7907.5 5812.2)" fill="url(#linear-gradient)"/>
    </g>
  </g>
</svg>
