<svg xmlns="http://www.w3.org/2000/svg" xmlns:xlink="http://www.w3.org/1999/xlink" width="139.839" height="152.282" viewBox="0 0 139.839 152.282">
  <defs>
    <linearGradient id="linear-gradient" y1="0.25" x2="1" y2="0.758" gradientUnits="objectBoundingBox">
      <stop offset="0" stop-color="#ffef84"/>
      <stop offset="1" stop-color="#ffa743"/>
    </linearGradient>
    <filter id="Объединение_59" x="0" y="0" width="139.839" height="152.282" filterUnits="userSpaceOnUse">
      <feOffset input="SourceAlpha"/>
      <feGaussianBlur stdDeviation="10" result="blur"/>
      <feFlood flood-color="#ffd4a2"/>
      <feComposite operator="in" in2="blur"/>
      <feComposite in="SourceGraphic"/>
    </filter>
  </defs>
  <g id="maxBuilderLevelReady" transform="translate(-193.08 -161.859)">
    <g transform="matrix(1, 0, 0, 1, 193.08, 161.86)" filter="url(#Объединение_59)">
      <path id="Объединение_59-2" data-name="Объединение 59" d="M-7877.42-5713.063l-.081-46.141,39.838-23,39.917,23.141.016,8.812a1.089,1.089,0,0,1,.067.377v5.82a1.081,1.081,0,0,1-.056.344l.029,15.868a1.09,1.09,0,0,1,.027.241v5.82a1.1,1.1,0,0,1-.016.185l.016,8.674-39.838,23Zm37.754,13.056v-4.594a1.093,1.093,0,0,1,1.093-1.093h13.065l6.678-3.855h-8.46a1.1,1.1,0,0,1-1.1-1.1v-5.82a1.1,1.1,0,0,1,1.1-1.093h17.25a1.1,1.1,0,0,1,1.1,1.093v1.209l3.636-2.1-.006-3.333h-10.69a1.093,1.093,0,0,1-1.1-1.093v-5.82a1.1,1.1,0,0,1,1.1-1.093h10.676l-.025-14.266h-10.651a1.1,1.1,0,0,1-1.1-1.093v-5.82a1.1,1.1,0,0,1,1.1-1.093h10.637l-.006-3.691-3.768-2.184v.925a1.1,1.1,0,0,1-1.1,1.1h-17.25a1.1,1.1,0,0,1-1.1-1.1v-5.818a1.1,1.1,0,0,1,1.1-1.1h8.012l-5.4-3.127h-13.766a1.1,1.1,0,0,1-1.093-1.1v-5.109l-3.13,1.807v3.3a1.094,1.094,0,0,1-1.093,1.1h-6.524l-5.418,3.128h.658a1.1,1.1,0,0,1,1.1,1.1v5.818a1.1,1.1,0,0,1-1.1,1.1h-14.53l-.085.049.007,3.806h3.524a1.1,1.1,0,0,1,1.1,1.093v5.82a1.1,1.1,0,0,1-1.1,1.093h-3.51l.005,3.13h15.788a1.1,1.1,0,0,1,1.1,1.093v5.82a1.1,1.1,0,0,1-1.1,1.1h-15.774l.005,3.127h3.96c.342,0,.621.49.621,1.093v5.82c0,.6-.279,1.093-.621,1.093h-3.946l.005,3.129h14.749a1.1,1.1,0,0,1,1.1,1.093v5.82a1.1,1.1,0,0,1-1.1,1.1h-1.089l6.652,3.856h5.72a1.1,1.1,0,0,1,1.1,1.093v2.857Zm-10.191-9.543a1.1,1.1,0,0,1-1.093-1.1v-5.82a1.094,1.094,0,0,1,1.093-1.093h17.251a1.093,1.093,0,0,1,1.093,1.093v5.82a1.093,1.093,0,0,1-1.093,1.1Zm11.285-11.138a1.092,1.092,0,0,1-1.093-1.093v-5.82a1.093,1.093,0,0,1,1.093-1.093h17.25a1.1,1.1,0,0,1,1.1,1.093v5.82a1.093,1.093,0,0,1-1.1,1.093Zm-22.433,0a1.093,1.093,0,0,1-1.1-1.093v-5.82a1.1,1.1,0,0,1,1.1-1.093h17.247a1.1,1.1,0,0,1,1.1,1.093v5.82a1.093,1.093,0,0,1-1.1,1.093Zm34.716-11.134a1.1,1.1,0,0,1-1.1-1.1v-5.82a1.1,1.1,0,0,1,1.1-1.093h17.249a1.1,1.1,0,0,1,1.1,1.093v5.82a1.1,1.1,0,0,1-1.1,1.1Zm-22.567,0a1.093,1.093,0,0,1-1.093-1.1v-5.82a1.093,1.093,0,0,1,1.093-1.093h17.25a1.1,1.1,0,0,1,1.1,1.093v5.82a1.1,1.1,0,0,1-1.1,1.1Zm10.284-11.139a1.093,1.093,0,0,1-1.093-1.093v-5.82a1.093,1.093,0,0,1,1.093-1.093h17.25a1.1,1.1,0,0,1,1.1,1.093v5.82a1.1,1.1,0,0,1-1.1,1.093Zm-22.433,0a1.1,1.1,0,0,1-1.1-1.093v-5.82a1.1,1.1,0,0,1,1.1-1.093h17.247a1.1,1.1,0,0,1,1.1,1.093v5.82a1.1,1.1,0,0,1-1.1,1.093Zm11.085-11.862a1.1,1.1,0,0,1-1.1-1.1v-5.818a1.1,1.1,0,0,1,1.1-1.1h17.249a1.093,1.093,0,0,1,1.093,1.1v5.818a1.093,1.093,0,0,1-1.093,1.1Z" transform="translate(7907.5 5812.2)" fill="url(#linear-gradient)"/>
    </g>
  </g>
</svg>
