<svg xmlns="http://www.w3.org/2000/svg" xmlns:xlink="http://www.w3.org/1999/xlink" width="139.839" height="152.282" viewBox="0 0 139.839 152.282">
  <defs>
    <linearGradient id="linear-gradient" y1="0.25" x2="1" y2="0.758" gradientUnits="objectBoundingBox">
      <stop offset="0" stop-color="#ffef84"/>
      <stop offset="1" stop-color="#ffa743"/>
    </linearGradient>
    <filter id="Объединение_59" x="0" y="0" width="139.839" height="152.282" filterUnits="userSpaceOnUse">
      <feOffset input="SourceAlpha"/>
      <feGaussianBlur stdDeviation="10" result="blur"/>
      <feFlood flood-color="#ffd4a2"/>
      <feComposite operator="in" in2="blur"/>
      <feComposite in="SourceGraphic"/>
    </filter>
  </defs>
  <g id="maxCollectorLevelReady" transform="translate(-193.08 -161.859)">
    <g transform="matrix(1, 0, 0, 1, 193.08, 161.86)" filter="url(#Объединение_59)">
      <path id="Объединение_59-2" data-name="Объединение 59" d="M-7877.42-5713.063l-.081-46.141,39.838-23,39.917,23.141.083,46.141-39.838,23Zm39.9,14.3,2.125-1.227q-.121-.2-.231-.412a4.059,4.059,0,0,1-.466-1.973c.025-3.8.014-7.6.01-11.405a1.809,1.809,0,0,1,.125-.6,9.491,9.491,0,0,1,2.467-3.438c3.094-3.155,6.2-6.3,9.373-9.377.494-.48,1.018-.935,1.53-1.4a1.232,1.232,0,0,1,1.457-.178,3.188,3.188,0,0,1,1.457,1.384,1.435,1.435,0,0,1-.148,1.673c-.905,1.117-1.973,2.082-2.958,3.124-.714.753-1.423,1.508-2.157,2.24a1.563,1.563,0,0,0-.4,1.777,1.784,1.784,0,0,0,1.441,1.238,1.568,1.568,0,0,0,1.485-.447c2.181-2.056,4.254-4.217,6.384-6.323.249-.245.188-.589.231-.888.542-3.576,1.05-7.154,1.639-10.721.168-1.01.342-2.021.514-3.029a1.292,1.292,0,0,1,.281-.652,9.086,9.086,0,0,1,1.17-1.135,1.729,1.729,0,0,1,2.111.156.709.709,0,0,1,.211.5c.077,1.128.049,2.262.079,3.392,0,.176.028.352.042.528v9.489c-.014.146-.038.289-.04.435-.028,1.277-.014,2.554-.081,3.83a1.052,1.052,0,0,1-.287.733c-.7.735-1.38,1.489-2.088,2.216-3.642,3.746-7.342,7.435-11.053,11.11a2.035,2.035,0,0,0-.754,1.6l18.735-10.816-.065-37.3-32.274-18.706-32.205,18.591.065,37.306,18.637,10.8c0-.138,0-.277,0-.416a.657.657,0,0,0-.213-.518q-4.831-4.858-9.647-9.727c-1.36-1.378-2.71-2.768-4.027-4.189a.936.936,0,0,1-.277-.636c-.077-1.894-.085-3.79-.1-5.684-.026-3.541,0-7.082.057-10.622.008-.491.043-.983.058-1.475a.548.548,0,0,1,.18-.385,1.644,1.644,0,0,1,2.167-.186,6.76,6.76,0,0,1,1.166,1.137,1.274,1.274,0,0,1,.255.6c.522,2.9.965,5.813,1.394,8.729q.409,2.775.827,5.551a.729.729,0,0,0,.211.437q2.844,2.82,5.678,5.652c.237.235.486.46.74.68a1.705,1.705,0,0,0,2.163.077,1.933,1.933,0,0,0,.75-1.971,1.043,1.043,0,0,0-.277-.518c-1.224-1.364-2.539-2.646-3.812-3.962a20.951,20.951,0,0,1-1.447-1.57,1.538,1.538,0,0,1-.054-1.967,3.785,3.785,0,0,1,1.147-1.058,1.324,1.324,0,0,1,1.7.15c1.471,1.281,2.837,2.671,4.217,4.045,2.447,2.439,4.889,4.885,7.289,7.374a8.689,8.689,0,0,1,1.868,2.906.9.9,0,0,1,.05.336v12.287a.755.755,0,0,1-.034.277,9.946,9.946,0,0,1-.627,1.256Zm.445-28.326c-.227,0-.462-.006-.7,0-.174,0-.356,0-.543,0a11.72,11.72,0,0,1-2.513-.182,15.821,15.821,0,0,1-12.2-12.384,15.652,15.652,0,0,1,8.135-17.026,14.824,14.824,0,0,1,7.718-1.821,15.652,15.652,0,0,1,10.948,4.863,15.906,15.906,0,0,1,4.209,8.29,14.776,14.776,0,0,1,.127,3.82,15.077,15.077,0,0,1-3.873,9.218,15.7,15.7,0,0,1-8.74,5.077,9.291,9.291,0,0,1-1.912.156C-7836.633-5727.082-7836.849-5727.085-7837.072-5727.087Zm-4.476-11.848a16.9,16.9,0,0,0-1.083,1.538.325.325,0,0,0,.045.447,5.831,5.831,0,0,0,.852.741,7.149,7.149,0,0,0,2.833,1.2c.228.047.332.128.32.387a7.553,7.553,0,0,0,.043,1.034c.026.309-.125.716.087.9a.729.729,0,0,0,.562.069,1.616,1.616,0,0,1,.3-.018c.3,0,.557-.01.809,0,.191.01.274-.04.283-.253.021-.575.083-1.148.1-1.724a.323.323,0,0,1,.267-.348,8.149,8.149,0,0,0,1.139-.441,4.246,4.246,0,0,0,2.519-3.857,3.777,3.777,0,0,0-2.226-3.689c-.933-.5-1.908-.9-2.878-1.311a4.651,4.651,0,0,1-1.681-1.069,1.3,1.3,0,0,1-.346-1.327,1.68,1.68,0,0,1,1.248-1.168,4.179,4.179,0,0,1,3.5.617,5.529,5.529,0,0,0,.609.384.336.336,0,0,0,.482-.126c.36-.518.6-1.1.914-1.643a.273.273,0,0,0-.077-.411,6.74,6.74,0,0,0-3.017-1.453c-.447-.1-.486-.15-.5-.615-.012-.512-.014-1.026,0-1.538,0-.194-.059-.259-.251-.249-.128.006-.259,0-.392,0a5.126,5.126,0,0,0-.52.012c-1.032.1-.905-.184-.979,1-.02.354,0,.711-.02,1.067-.008.146-.01.322-.226.36a5.124,5.124,0,0,0-2.011.98,3.991,3.991,0,0,0,.077,6.461,20.2,20.2,0,0,0,2.208,1.182,20.51,20.51,0,0,1,2.456,1.174,1.587,1.587,0,0,1,.838,1.353,1.684,1.684,0,0,1-1.352,1.667,3.724,3.724,0,0,1-2.367-.168,8.672,8.672,0,0,1-2.1-1.23.422.422,0,0,0-.229-.1A.311.311,0,0,0-7841.548-5738.936Z" transform="translate(7907.5 5812.2)" fill="url(#linear-gradient)"/>
    </g>
  </g>
</svg>
