<svg xmlns="http://www.w3.org/2000/svg" xmlns:xlink="http://www.w3.org/1999/xlink" width="97.839" height="110.282" viewBox="0 0 97.839 110.282">
  <defs>
    <linearGradient id="linear-gradient" y1="0.242" x2="1" y2="0.749" gradientUnits="objectBoundingBox">
      <stop offset="0" stop-color="#f1f1f1"/>
      <stop offset="1" stop-color="#8e8e8e"/>
    </linearGradient>
    <filter id="Объединение_59" x="0" y="0" width="97.839" height="110.282" filterUnits="userSpaceOnUse">
      <feOffset dy="3" input="SourceAlpha"/>
      <feGaussianBlur stdDeviation="3" result="blur"/>
      <feFlood/>
      <feComposite operator="in" in2="blur"/>
      <feComposite in="SourceGraphic"/>
    </filter>
  </defs>
  <g id="maxDiggerLevel" transform="translate(-214.08 -185.859)">
    <g transform="matrix(1, 0, 0, 1, 214.08, 185.86)" filter="url(#Объединение_59)">
      <path id="Объединение_59-2" data-name="Объединение 59" d="M-7877.42-5713.063l-.081-46.141,39.838-23,39.917,23.141.083,46.141-39.838,23Zm39.9,14.3,14.222-8.21h-12.366c-.1-.453.2-.789.362-1.148,1.752-3.852,3.531-7.688,5.265-11.546a1.324,1.324,0,0,1,1.428-.945c3.179.053,6.362.03,9.541.014.561,0,.973.049,1.25.667q1.747,3.887,3.53,7.758l8.976-5.182-.065-37.3-32.274-18.706-32.205,18.591.065,37.306,8.984,5.208q1.745-3.789,3.453-7.594a1.1,1.1,0,0,1,1.2-.75q4.881.045,9.766,0a1.1,1.1,0,0,1,1.192.763q2.728,6.037,5.531,12.044c.407.868.056.89-.648.886-3.636-.02-7.269-.01-10.9-.01h-.376Zm-11.619-26.256q2.782-5.96,5.48-11.963a1.2,1.2,0,0,1,1.307-.789q4.778.041,9.553,0a1.2,1.2,0,0,1,1.311.785q2.7,6,5.476,11.965c.372.8.261,1.02-.646,1.01-3.638-.038-7.279-.016-10.919-.016v0c-3.638,0-7.277-.024-10.917.016l-.053,0C-7849.411-5724-7849.5-5724.241-7849.136-5725.018Zm33.836-10.328c.016-2.41-.014-2.41,2.422-2.41,1.17,0,2.34.042,3.509-.014.765-.036.933.259.933.977,0,2.473.028,2.473-2.477,2.473h-1.018c-.793,0-1.589-.051-2.378.014-.067,0-.13.008-.189.008C-7815.161-5734.3-7815.3-5734.647-7815.3-5735.345Zm-4.158,1.043c-1.781-.027-3.564-.025-5.346-.014-.51,0-.809-.143-.744-.708a.508.508,0,0,0,0-.112c-.128-2.62-.128-2.62,2.454-2.62h1.934c2.584,0,2.566,0,2.469,2.637-.02.558-.156.816-.737.816Zm-30.813,0c-.907-.025-1.819-.006-2.728-.006v-.008h-.91c-2.694,0-2.681,0-2.539-2.681.028-.5.133-.775.7-.771,1.819.021,3.64.016,5.458.02.075,0,.174-.024.223.014,1.008.731.251,1.786.471,2.667.117.469-.087.767-.629.767A.338.338,0,0,1-7850.271-5734.306Zm-16.431-.8c-.093-2.647-.113-2.647,2.526-2.645,1.133,0,2.268.04,3.4-.016.761-.036.938.259.938.979,0,2.471.031,2.471-2.476,2.471-.338,0-.678,0-1.018,0-.868,0-1.738-.028-2.6.008-.028,0-.054,0-.079,0C-7866.551-5734.312-7866.682-5734.561-7866.7-5735.108Zm38.662-8.394c-.722-.668-1.408-1.376-2.09-2.088-.184-.194.047-.334.164-.453q2.084-2.1,4.186-4.179a1.862,1.862,0,0,1,.318-.216,12.786,12.786,0,0,1,2.274,2.25,1.8,1.8,0,0,1-.378.545c-1.279,1.293-2.562,2.584-3.861,3.859-.117.115-.237.374-.417.374A.289.289,0,0,1-7828.039-5743.5Zm-21.079-1.665c-.746-.748-1.441-1.552-2.25-2.228-.731-.613-.613-1.034.047-1.562.439-.354.8-.8,1.208-1.19.126-.123.275-.224.435-.35.211.192.383.334.542.49,1.255,1.251,2.5,2.521,3.772,3.75.407.393.437.623.022,1.058-.937.982-1.4,1.473-1.872,1.473S-7848.159-5744.2-7849.118-5745.167Zm10.5-2.883c-.48-.043-.67-.2-.668-.674q.012-2.731-.014-5.458c-.006-.528.194-.7.735-.735,2.717-.166,2.715-.184,2.715,2.5v1.933c0,2.056,0,2.535-1.23,2.535C-7837.463-5747.945-7837.964-5747.99-7838.62-5748.05Zm17.53-2.971c-2.037-1.872-2.052-1.854-.127-3.78q1.2-1.2,2.41-2.4c.184-.18.383-.344.872-.777a12.7,12.7,0,0,0,1.02,1.4c1.123,1.176,1.141,1.158,0,2.295-1.07,1.072-2.151,2.129-3.2,3.217-.188.194-.333.308-.495.308A.769.769,0,0,1-7821.09-5751.021Zm-34.823-.949c-.967-.964-1.936-1.923-2.895-2.9-.192-.2-.623-.405-.35-.72.623-.712,1.321-1.358,2-2.021.166-.16.354-.073.5.071q2.135,2.129,4.26,4.262c.079.081.137.182.356.479a10.321,10.321,0,0,0-1.056.809c-.718.7-1.073,1.056-1.425,1.056S-7855.221-5751.278-7855.913-5751.97Zm16.925-6.4c-.356-.016-.291-.391-.291-.636-.012-1.813,0-3.624-.018-5.437-.006-.526.178-.7.718-.726,2.729-.156,2.727-.172,2.727,2.564v.907h.01c0,.868.008,1.736-.006,2.6,0,.279.1.71-.316.731s-.842.032-1.263.032Q-7838.208-5758.33-7838.988-5758.37Z" transform="translate(7886.5 5788.2)" fill="url(#linear-gradient)"/>
    </g>
  </g>
</svg>
