<svg xmlns="http://www.w3.org/2000/svg" xmlns:xlink="http://www.w3.org/1999/xlink" width="139.839" height="152.282" viewBox="0 0 139.839 152.282">
  <defs>
    <linearGradient id="linear-gradient" y1="0.25" x2="1" y2="0.758" gradientUnits="objectBoundingBox">
      <stop offset="0" stop-color="#ffef84"/>
      <stop offset="1" stop-color="#ffa743"/>
    </linearGradient>
    <filter id="Прямоугольник_1930" x="5.919" y="27.126" width="110" height="110" filterUnits="userSpaceOnUse">
      <feOffset input="SourceAlpha"/>
      <feGaussianBlur stdDeviation="10" result="blur"/>
      <feFlood flood-color="#ffd4a2"/>
      <feComposite operator="in" in2="blur"/>
      <feComposite in="SourceGraphic"/>
    </filter>
    <filter id="Объединение_59" x="0" y="0" width="139.839" height="152.282" filterUnits="userSpaceOnUse">
      <feOffset input="SourceAlpha"/>
      <feGaussianBlur stdDeviation="10" result="blur-2"/>
      <feFlood flood-color="#ffd4a2"/>
      <feComposite operator="in" in2="blur-2"/>
      <feComposite in="SourceGraphic"/>
    </filter>
  </defs>
  <g id="maxForesterLevelReady" transform="translate(-193.08 -161.859)">
    <g transform="matrix(1, 0, 0, 1, 193.08, 161.86)" filter="url(#Объединение_59)">
      <path id="Объединение_59-2" data-name="Объединение 59" d="M-7877.42-5713.063l-.081-46.141,39.838-23,39.917,23.141.083,46.141-39.838,23Zm39.9,14.3,32.208-18.594-.065-37.3-32.274-18.706-32.205,18.591.065,37.306.637.369.039-.138a7.806,7.806,0,0,1,2.234-3.612c2.75-2.643,5.415-5.377,8.112-8.074l.006,0c2.952-2.952,5.925-5.889,8.847-8.871.718-.731,1.17-.9,1.939-.006a11.076,11.076,0,0,0,5.846,3.572,2.074,2.074,0,0,1,.935.39c.279.277.006.635-.563,1.2-4.7,4.638-9.324,9.345-14.037,13.967a9.486,9.486,0,0,0-3.1,6.52,2.78,2.78,0,0,1-.174.895Zm1.924-24.088a16.447,16.447,0,0,1-3.695-1.01,1.541,1.541,0,0,1-.21-2.335,7.4,7.4,0,0,0,1.572-2.45c.285-.877.757-1.1,1.621-.789a11.829,11.829,0,0,0,2.1.484c2.309.374,4.917-.623,5.684-2.772s2.179-2.524,4.027-2.631a7.956,7.956,0,0,0,1.679-.241c.609-.166.988-.148,1.2.065l.029.032v2.275a12.138,12.138,0,0,1-11.745,9.6A11.5,11.5,0,0,1-7835.593-5722.849Zm-2.034-11.241a3.787,3.787,0,0,0-3.205-2.985,10.157,10.157,0,0,1-7.874-9.2,2.523,2.523,0,0,1,.632-2.135c2.088-2.068,4.15-4.16,6.251-6.21a2.2,2.2,0,0,1,.65-.457h1.155a2.207,2.207,0,0,1,.65.462c2.768,2.77,5.536,5.538,8.337,8.337s5.632,5.633,8.533,8.533c-2.376.35-4.4.667-6.423.937a1.755,1.755,0,0,0-1.791,1.884c-.063,1.757-.935,2.786-2.331,2.95a4.119,4.119,0,0,1-.494.03C-7835.275-5731.943-7837.25-5732.936-7837.627-5734.09Z" transform="translate(7907.5 5812.2)" fill="url(#linear-gradient)"/>
    </g>
  </g>
</svg>
