<svg xmlns="http://www.w3.org/2000/svg" xmlns:xlink="http://www.w3.org/1999/xlink" width="97.839" height="110.282" viewBox="0 0 97.839 110.282">
  <defs>
    <linearGradient id="linear-gradient" y1="0.242" x2="1" y2="0.749" gradientUnits="objectBoundingBox">
      <stop offset="0" stop-color="#f1f1f1"/>
      <stop offset="1" stop-color="#8e8e8e"/>
    </linearGradient>
    <filter id="Объединение_59" x="0" y="0" width="97.839" height="110.282" filterUnits="userSpaceOnUse">
      <feOffset dy="3" input="SourceAlpha"/>
      <feGaussianBlur stdDeviation="3" result="blur"/>
      <feFlood/>
      <feComposite operator="in" in2="blur"/>
      <feComposite in="SourceGraphic"/>
    </filter>
  </defs>
  <g id="maxGarbageLevel" transform="translate(-214.08 -185.859)">
    <g transform="matrix(1, 0, 0, 1, 214.08, 185.86)" filter="url(#Объединение_59)">
      <path id="Объединение_59-2" data-name="Объединение 59" d="M-7877.42-5713.063l-.081-46.141,39.838-23,39.917,23.141.083,46.141-39.838,23Zm22.149,4.011a13.939,13.939,0,0,1,3.84-.749c.079-.006.158-.01.239-.008a21.33,21.33,0,0,1,3.99.16,1.015,1.015,0,0,0,1.01-.532c.069-.15,1.89-3.46,8.109-3.46a1,1,0,0,0,1-1,1,1,0,0,0-1-1c-.3,0-.589.01-.879.029l-1.04-4.29a2.947,2.947,0,0,0-1.229-1.751,2.965,2.965,0,0,0-.951-3.889,2.953,2.953,0,0,0,.291-2.119l-.89-3.662a4.994,4.994,0,0,1,5.558-3.244,5,5,0,0,1,4.142,4.925,5.174,5.174,0,0,1-.1,1,.989.989,0,0,0,.318.981,1,1,0,0,0,1.021.17,2.029,2.029,0,0,1,1.706.106,2.027,2.027,0,0,1,1.016,1.372,1,1,0,0,0,.516.7.992.992,0,0,0,.872.027,4.107,4.107,0,0,1,1.651-.36,3.659,3.659,0,0,1,.88.1l-1.939,4.28a13.668,13.668,0,0,0-2.94-.38,1,1,0,0,0-1,1,1,1,0,0,0,1,1c1,0,3.889.309,5.289,1.708a1.014,1.014,0,0,0,1.421,0,1.008,1.008,0,0,0,0-1.419,6.284,6.284,0,0,0-1.88-1.259l1.831-4.021a4.066,4.066,0,0,0-1.781-.909l1.783-3.926a15.388,15.388,0,0,0-3.673-.706,1,1,0,0,1-.977-1.022,1,1,0,0,1,1.022-.979h.045a17.073,17.073,0,0,1,4.415.874l.824-1.839a29.356,29.356,0,0,0-5.6-1.514,1.006,1.006,0,0,1-.8-.619,1,1,0,0,1,.148-1,1,1,0,0,1,.947-.36,30.818,30.818,0,0,1,6.136,1.67l.829-1.817a38.222,38.222,0,0,0-6.554-1.932,1,1,0,0,1-.8-1.164,1,1,0,0,1,1.165-.8,39.567,39.567,0,0,1,7.014,2.076l1.242-2.738a40.442,40.442,0,0,0-7.69-2.41c2.969-4.14,9.179-5.72,11.909-4.48s5.63,6.949,4.48,11.921a40.135,40.135,0,0,0-6.88-4.211l-1.24,2.742a39.586,39.586,0,0,1,6.18,3.909,1,1,0,0,1,.168,1.41,1,1,0,0,1-1.41.168,38.4,38.4,0,0,0-5.765-3.655v.006l-.82,1.821a30.845,30.845,0,0,1,5.292,3.509,1,1,0,0,1,.113,1.411,1,1,0,0,1-1.412.113,29.838,29.838,0,0,0-4.83-3.212l-.829,1.836a17.082,17.082,0,0,1,3.553,2.738,1,1,0,0,1-.043,1.4,1,1,0,0,1-1.4-.012,15.818,15.818,0,0,0-2.942-2.289l-1.817,4a4,4,0,0,1,1.338,2.991,1.05,1.05,0,0,1-.03.25l-.02.241a.989.989,0,0,0,.54.988,1,1,0,0,0,1.131-.15,5,5,0,0,1,6.979.18c1.271,1.308,5.872,1.438,8.171,1.971l-.064-36.5-32.274-18.706-32.205,18.591.065,37.2c1.94-.085,5.578.226,6.1-1.011a5,5,0,0,1,4.606-3.057,5.077,5.077,0,0,1,.88.089,2.943,2.943,0,0,0,.99,3.79,2.972,2.972,0,0,0-.28,2.131l1.18,4.83a8,8,0,0,0-1.108.5Zm21.19-3.587a3,3,0,0,0,3,3,3.006,3.006,0,0,0,3-3,3,3,0,0,0-3-3A3,3,0,0,0-7834.081-5712.64Zm16.789-32.771a1,1,0,0,0,.491,1.32,1,1,0,0,0,1.1-.172,1,1,0,0,0,.259-1.083,1,1,0,0,0-.9-.65.23.23,0,0,0-.038,0A1,1,0,0,0-7817.292-5745.41Zm-38.258,29.3a1,1,0,0,1,.118-.759,1.006,1.006,0,0,1,.607-.449h.012l11.66-2.839.01-.008a1,1,0,0,1,1.2.733l.977,4.023a10.1,10.1,0,0,0-6.617,3.7,20.63,20.63,0,0,0-6.819.314Zm23.469,3.468a1,1,0,0,1,1-1,1,1,0,0,1,1,1,1,1,0,0,1-1,1A1,1,0,0,1-7832.082-5712.64Zm-24.369-7.37a1,1,0,0,1,.69-1.19l11.659-2.839a1,1,0,0,1,.759.119,1,1,0,0,1,.451.623,1,1,0,0,1-.72,1.2h-.016l-11.66,2.839h-.012a.9.9,0,0,1-.18.018A1,1,0,0,1-7856.451-5720.01Zm-.99-3.871-1.182-4.857a2,2,0,0,1,1.469-2.416l1.943-.473,2.914-.711,4.859-1.18a1.994,1.994,0,0,1,.473-.058,2,2,0,0,1,1.943,1.526l1.182,4.857a1,1,0,0,1-.733,1.208l-11.66,2.839a1.077,1.077,0,0,1-.237.028A1,1,0,0,1-7857.441-5723.881Zm2.507-10.891-.475-1.943a1,1,0,0,1,.735-1.21l1.945-.475a1,1,0,0,1,1.208.735l.475,1.943a1,1,0,0,1-.735,1.21l-1.943.475a1.012,1.012,0,0,1-.239.028A1,1,0,0,1-7854.934-5734.772Z" transform="translate(7886.5 5788.2)" fill="url(#linear-gradient)"/>
    </g>
  </g>
</svg>
