<svg xmlns="http://www.w3.org/2000/svg" xmlns:xlink="http://www.w3.org/1999/xlink" width="139.839" height="152.282" viewBox="0 0 139.839 152.282">
  <defs>
    <linearGradient id="linear-gradient" y1="0.25" x2="1" y2="0.758" gradientUnits="objectBoundingBox">
      <stop offset="0" stop-color="#ffef84"/>
      <stop offset="1" stop-color="#ffa743"/>
    </linearGradient>
    <filter id="Объединение_59" x="0" y="0" width="139.839" height="152.282" filterUnits="userSpaceOnUse">
      <feOffset input="SourceAlpha"/>
      <feGaussianBlur stdDeviation="10" result="blur"/>
      <feFlood flood-color="#ffd4a2"/>
      <feComposite operator="in" in2="blur"/>
      <feComposite in="SourceGraphic"/>
    </filter>
  </defs>
  <g id="maxPostalLevelReady" transform="translate(-193.08 -161.859)">
    <g transform="matrix(1, 0, 0, 1, 193.08, 161.86)" filter="url(#Объединение_59)">
      <path id="Объединение_59-2" data-name="Объединение 59" d="M-7877.42-5713.063l-.081-46.141,39.838-23,39.917,23.141.083,46.141-39.838,23Zm44.563-2.163c2.524.728,5.053,1.439,7.858,2.234-4.767,2.644-9.256,5.13-13.744,7.62-.292.162-.6.308-.872.492a1.492,1.492,0,0,0-.574,1.995,1.5,1.5,0,0,0,2.062.6c.18-.083.352-.19.528-.287l28.882-16.01.087-.047c1.17-.656,1.518-1.447,1.016-2.315-.479-.831-1.323-.951-2.434-.338-1.4.771-2.8,1.548-4.294,2.378a3.882,3.882,0,0,1,.313-1.5c.538-1.928,1.125-3.843,1.633-5.779a1.788,1.788,0,0,1,1.02-1.237,7.383,7.383,0,0,1,6.047-.24l-.047-27.005-32.274-18.706-32.205,18.591.065,37.306,22.661,13.135a7.314,7.314,0,0,1,3.548-5.207c3.247-1.849,6.528-3.632,9.8-5.443a1.485,1.485,0,0,1,.709-.275A.791.791,0,0,1-7832.857-5715.226Zm11.379-.134-31.772-9.11c3.875-1.7,7.928-3.471,11.981-5.245.67-.295,1.362-.548,2.01-.886.611-.316.961-.121,1.293.411.53.848,1.1,1.668,1.665,2.493a1.53,1.53,0,0,0,2.068.64c1.038-.451,2.093-.866,3.12-1.34.409-.187.654-.16.915.224q4.348,6.4,8.715,12.795a.215.215,0,0,1,.03.073A.216.216,0,0,1-7821.478-5715.36Zm.429-4.686q-3-4.365-5.98-8.738c-.726-1.058-.744-1.089.423-1.6,4.723-2.074,9.456-4.128,14.134-6.166l-5.852,20.428C-7819.2-5717.384-7820.131-5718.711-7821.048-5720.045Zm-28.627-27.166c.668.953,1.431,2.013,2.168,3.09,2.292,3.353,4.561,6.724,6.874,10.063.307.441.267.607-.036.773a2.823,2.823,0,0,1-.257.123c-4.885,2.125-9.758,4.278-14.618,6.417C-7853.582-5733.588-7851.631-5740.393-7849.675-5747.211Zm14.9,16.462c-3.922-5.787-7.864-11.56-11.692-17.172,10.516,3.013,21.148,6.063,31.675,9.082-2.578,1.137-5.374,2.382-8.179,3.606-3.57,1.56-7.153,3.1-10.721,4.662a1.511,1.511,0,0,1-.561.173C-7834.432-5730.4-7834.6-5730.488-7834.775-5730.749Z" transform="translate(7907.5 5812.2)" fill="url(#linear-gradient)"/>
    </g>
  </g>
</svg>
