<svg xmlns="http://www.w3.org/2000/svg" xmlns:xlink="http://www.w3.org/1999/xlink" width="139.839" height="152.282" viewBox="0 0 139.839 152.282">
  <defs>
    <linearGradient id="linear-gradient" y1="0.25" x2="1" y2="0.758" gradientUnits="objectBoundingBox">
      <stop offset="0" stop-color="#ffef84"/>
      <stop offset="1" stop-color="#ffa743"/>
    </linearGradient>
    <filter id="Объединение_59" x="0" y="0" width="139.839" height="152.282" filterUnits="userSpaceOnUse">
      <feOffset input="SourceAlpha"/>
      <feGaussianBlur stdDeviation="10" result="blur"/>
      <feFlood flood-color="#ffd4a2"/>
      <feComposite operator="in" in2="blur"/>
      <feComposite in="SourceGraphic"/>
    </filter>
  </defs>
  <g id="maxTruckDriverLevelReady" transform="translate(-193.08 -161.859)">
    <g transform="matrix(1, 0, 0, 1, 193.08, 161.86)" filter="url(#Объединение_59)">
      <path id="Объединение_59-2" data-name="Объединение 59" d="M-7865.4-5706.1c-1.16-.016-1.258-.16-.949-.55l-11.067-6.416-.081-46.141,39.838-23,39.917,23.141.083,46.141-11.271,6.507c.169.241.082.3-.531.306l-28.037,16.187Zm27.888,7.336,4.108-2.372c-.02-2.227-.035-5.221.026-5.479a.275.275,0,0,0-.018-.117c-.221-1.289-.221-1.291-4.225-1.289-.39,0-.8-.01-1.222-.021a12.814,12.814,0,0,0-2.732.095c-1.018.235-.433,1.269-.433,1.269v5.308Zm2.312-12.085c1.119.016,1.405-.126,1.344-.479-.178-1.085-.257-2.178-.417-3.266-.243-1.677-.261-1.677-5.348-1.609-.061,0-.121,0-.178,0-.825-.034-1.131.083-1.157.36-.071.759-.225,1.516-.348,2.277h.095c-.117.757-.208,1.517-.372,2.275-.077.333.257.453,1.269.439q1.308-.018,2.616-.016C-7836.867-5710.864-7836.034-5710.86-7835.206-5710.847Zm8.7-17.751c3.149,4.045,6.382,8.084,9.588,12.123q1.582,2,3.168,3.991l4.7-2.714c-6.17-6.037-7.552-6.493-14.2-13.139-.237-.237-1.376-.593-.091-.759a4.135,4.135,0,0,1,3,.467c4.731,3.9,9.553,7.776,14.363,11.659l.666-.385-.065-37.3-32.274-18.706-32.205,18.591.065,37.095c5.041-3.777,7.878-5.4,14.693-10.9.292-.235.322-.528,1.489-.556,2.113-.045,2.271,0,1.607.656-6.654,6.606-7.772,7.781-13.472,13.517l3.934,2.28q6.352-7.98,12.65-15.964c.291-.366.75-.5,1.908-.488,2.114.032,4.233.02,6.35.006.919-.008,1.253.1,1.188.407-.085.388-.026.779-.087,1.168-.081.492,1.022.344,1.7.326.172,0,.377.01.585.02.648.033,1.347.069,1.319-.338a5.7,5.7,0,0,0-.083-1.111c-.1-.354.221-.488,1.342-.475,2,.024,4,.028,6,0h.216C-7827.335-5729.139-7826.819-5729-7826.5-5728.6Zm-13.519,4.741c-.069,1.128-.261,2.255-.442,3.384-.241,1.5-.257,1.489,4.292,1.447.994-.01,1.354-.1,1.287-.433-.142-.717-.206-1.439-.3-2.159h.036c-.115-.8-.247-1.591-.334-2.39-.028-.265-.3-.4-1.153-.375-.524.016-1.062.021-1.582,0-.172-.008-.33-.012-.477-.012C-7839.6-5724.4-7840-5724.243-7840.022-5723.857Zm-12.032-5.314c-.188-.01-.386,0-.579,0h-.067c-1.5,0-1.5,0-.947-.366q4.819-3.176,9.644-6.348c.107-.071.119-.158.543-.166.777-.014.834,0,.589.2-2.653,2.149-5.318,4.294-7.943,6.445a1.326,1.326,0,0,1-.945.251C-7851.85-5729.164-7851.945-5729.167-7852.054-5729.171Zm4.383,0h-.023c-.514,0-.56-.042-.437-.17q3.223-3.28,6.4-6.569c.107-.109.273-.152.7-.146.775.008,1.554.006,2.331,0,.334,0,.459.032.433.123-.03.117-.008.231-.03.35-.03.144.374.1.623.1.063,0,.14,0,.217,0,.235.012.494.024.482-.1a1.446,1.446,0,0,0-.03-.333c-.036-.1.081-.148.49-.142.733.008,1.469.008,2.2,0,.464-.008.672.032.792.16,1.157,1.21,2.341,2.418,3.519,3.624.927.953,1.86,1.908,2.788,2.862.231.239.3.237-.332.233h-.3c-1.229.006-2.457,0-3.687,0-1.295,0-2.588,0-3.883,0-.429,0-.658-.028-.623-.154a.1.1,0,0,0-.006-.033c-.083-.388-.083-.388-1.55-.388-.142,0-.294,0-.449,0a5.559,5.559,0,0,0-1,.028c-.378.071-.146.249-.16.379s-.208.174-.7.174Q-7843.789-5729.181-7847.671-5729.169Zm10.958-1.421c.411,0,.516-.036.495-.14-.065-.326-.093-.653-.154-.977-.087-.5-.093-.5-1.961-.482-.02,0-.042,0-.063,0-.3-.01-.416.023-.425.108-.025.226-.083.453-.126.678h.036c-.043.228-.077.457-.141.68-.025.1.1.134.469.132.318,0,.641-.006.959-.006S-7837.013-5730.595-7836.712-5730.591Zm-1.763-3.887a9.055,9.055,0,0,1-.162,1.01c-.089.447-.1.445,1.572.435.366,0,.5-.032.474-.133-.055-.213-.077-.427-.112-.642h.014c-.042-.239-.091-.479-.123-.716-.01-.079-.109-.119-.423-.113-.191,0-.387.008-.579,0-.063,0-.121,0-.172,0C-7838.324-5734.638-7838.468-5734.594-7838.476-5734.478Zm16.239,5.3h-.419c-1.477,0-1.477,0-1.949-.377-2.576-2.09-5.158-4.175-7.722-6.263-.085-.071-.5-.178-.034-.228a1.818,1.818,0,0,1,1.1.141c2.072,1.388,4.191,2.773,6.293,4.16l3.62,2.384c.279.184.277.184-.468.184Z" transform="translate(7907.5 5812.2)" fill="url(#linear-gradient)"/>
    </g>
  </g>
</svg>
