<svg xmlns="http://www.w3.org/2000/svg" xmlns:xlink="http://www.w3.org/1999/xlink" width="139.838" height="152.282" viewBox="0 0 139.838 152.282">
  <defs>
    <linearGradient id="linear-gradient" y1="0.233" x2="1" y2="0.783" gradientUnits="objectBoundingBox">
      <stop offset="0" stop-color="#f96"/>
      <stop offset="1" stop-color="#ff5e62"/>
    </linearGradient>
    <filter id="Объединение_56" x="0" y="0" width="139.838" height="152.282" filterUnits="userSpaceOnUse">
      <feOffset input="SourceAlpha"/>
      <feGaussianBlur stdDeviation="10" result="blur"/>
      <feFlood flood-color="#ff5e62"/>
      <feComposite operator="in" in2="blur"/>
      <feComposite in="SourceGraphic"/>
    </filter>
  </defs>
  <g id="medCardsReady" transform="translate(-193.08 -161.859)">
    <g transform="matrix(1, 0, 0, 1, 193.08, 161.86)" filter="url(#Объединение_56)">
      <path id="Объединение_56-2" data-name="Объединение 56" d="M-6728.42-5504.063l-.081-46.142,39.838-23,39.917,23.141.083,46.14-39.838,23Zm7.565-41.709.065,37.3,32.273,18.707,32.207-18.592-.066-37.305-32.273-18.707Zm17.835,41.709a2.114,2.114,0,0,1-2.062-2.156v-41.687a2.114,2.114,0,0,1,2.062-2.156h17.188v12.219a2.114,2.114,0,0,0,2.062,2.157h11.687v29.468a2.114,2.114,0,0,1-2.062,2.156Zm13.828-4.277a.824.824,0,0,0,.606.27.827.827,0,0,0,.608-.27l8.632-9.216h-5.159l-1.044-2.186-2.349,4.913a.738.738,0,0,1-.675.437.746.746,0,0,1-.691-.466l-2.691-6.243-1.417,3.544h-4.45Zm-2.1-15.078,2.752,6.39,2.317-4.838a.739.739,0,0,1,.675-.437.739.739,0,0,1,.676.438l1.305,2.727h5.62a7.053,7.053,0,0,0-.344-9l-.113-.124a6.021,6.021,0,0,0-4.428-1.95,6.031,6.031,0,0,0-4.431,1.95l-1.319,1.412-1.319-1.408a6.021,6.021,0,0,0-4.431-1.954,6.014,6.014,0,0,0-4.427,1.954l-.115.12a7.057,7.057,0,0,0-.344,9h4.841l1.7-4.26a.748.748,0,0,1,.7-.486A.745.745,0,0,1-6691.292-5523.418Zm-8.29-14.426v1.437a.705.705,0,0,0,.688.72h6.875a.7.7,0,0,0,.687-.72v-1.437a.7.7,0,0,0-.687-.719h-6.875A.705.705,0,0,0-6699.582-5537.844Zm0-5.751v1.439a.7.7,0,0,0,.688.718h6.875a.7.7,0,0,0,.687-.718v-1.439a.7.7,0,0,0-.687-.718h-6.875A.7.7,0,0,0-6699.582-5543.6Zm16.5,5.032v-11.5h.525a2.009,2.009,0,0,1,1.461.628l8.413,8.8a2.218,2.218,0,0,1,.6,1.518v.547h-11Z" transform="translate(6758.5 5603.2)" fill="url(#linear-gradient)"/>
    </g>
  </g>
</svg>
