<svg xmlns="http://www.w3.org/2000/svg" xmlns:xlink="http://www.w3.org/1999/xlink" width="139.839" height="152.282" viewBox="0 0 139.839 152.282">
  <defs>
    <linearGradient id="linear-gradient" x1="0.938" y1="0.774" x2="0" y2="0.225" gradientUnits="objectBoundingBox">
      <stop offset="0" stop-color="#c373f3"/>
      <stop offset="1" stop-color="#aab6ef"/>
    </linearGradient>
    <filter id="mediaReady" x="0" y="0" width="139.839" height="152.282" filterUnits="userSpaceOnUse">
      <feOffset input="SourceAlpha"/>
      <feGaussianBlur stdDeviation="10" result="blur"/>
      <feFlood flood-color="#70f"/>
      <feComposite operator="in" in2="blur"/>
      <feComposite in="SourceGraphic"/>
    </filter>
  </defs>
  <g transform="matrix(1, 0, 0, 1, 0, 0)" filter="url(#mediaReady)">
    <path id="mediaReady-2" data-name="mediaReady" d="M-1139.919-3905.28l-.081-46.14,39.837-23,39.919,23.139.083,46.141-39.839,23Zm7.566-41.709.066,37.3,32.272,18.706,32.207-18.594-.065-37.3-32.274-18.706Zm15.958,32.51a5.167,5.167,0,0,1-3.692-3.656c-.873-3.278-.873-10.116-.873-10.116s0-6.837.873-10.115a5.248,5.248,0,0,1,3.692-3.716c3.257-.878,16.314-.878,16.314-.878s13.059,0,16.315.878a5.245,5.245,0,0,1,3.691,3.716c.873,3.278.873,10.115.873,10.115s0,6.839-.873,10.116a5.164,5.164,0,0,1-3.691,3.656c-3.258.879-16.315.879-16.315.879S-1113.139-3913.6-1116.4-3914.479Zm12.043-7.562,10.914-6.209-10.914-6.209Z" transform="translate(1170 4004.42)" fill="url(#linear-gradient)"/>
  </g>
</svg>
