<svg xmlns="http://www.w3.org/2000/svg" xmlns:xlink="http://www.w3.org/1999/xlink" width="97.839" height="110.281" viewBox="0 0 97.839 110.281">
  <defs>
    <linearGradient id="linear-gradient" y1="0.242" x2="1" y2="0.749" gradientUnits="objectBoundingBox">
      <stop offset="0" stop-color="#f1f1f1"/>
      <stop offset="1" stop-color="#8e8e8e"/>
    </linearGradient>
    <filter id="Объединение_47" x="0" y="0" width="97.839" height="110.281" filterUnits="userSpaceOnUse">
      <feOffset dy="3" input="SourceAlpha"/>
      <feGaussianBlur stdDeviation="3" result="blur"/>
      <feFlood/>
      <feComposite operator="in" in2="blur"/>
      <feComposite in="SourceGraphic"/>
    </filter>
  </defs>
  <g id="Сгруппировать_2551" data-name="Сгруппировать 2551" transform="translate(-214.08 -185.86)">
    <g transform="matrix(1, 0, 0, 1, 214.08, 185.86)" filter="url(#Объединение_47)">
      <path id="Объединение_47-2" data-name="Объединение 47" d="M-6605.919-5364.859-6606-5411l39.837-23,39.918,23.139.083,46.141-39.839,23Zm7.565-41.709.066,37.3,32.272,18.706,32.206-18.593-.065-37.3-32.274-18.706Zm19.373,38.958a1.073,1.073,0,0,1-1.074-1.069v-36.331a1.059,1.059,0,0,1,.534-.925l.01.03.592-.174h25.735a1.074,1.074,0,0,1,1.078,1.069v36.331a1.074,1.074,0,0,1-1.078,1.069Zm24.248-2.512h.688v-4.058h-.676v2.885l-2.033-2.885h-.686v4.058h.68V-5373h0Zm-6.4,0h2.692v-.681h-2.692Zm-2.941,0h2.192v-.681h-1.512v-3.377h-.68Zm-2.681-1.919v1.919h.68v-1.919l1.534-2.139h-.833l-1.041,1.449-1.04-1.449h-.834Zm-4.583,1.919h1.356c.036,0,.076,0,.118,0s.107-.01.169-.019c.088-.011.149-.021.2-.033a1.928,1.928,0,0,0,.211-.066,1.6,1.6,0,0,0,.215-.1,1.145,1.145,0,0,0,.192-.149.911.911,0,0,0,.161-.2,1.015,1.015,0,0,0,.106-.263,1.414,1.414,0,0,0,.039-.333v-.038a.568.568,0,0,0-.01-.106c-.006-.033-.015-.068-.023-.1l-.005-.014c0-.011,0-.021-.006-.031a.641.641,0,0,0-.082-.163.968.968,0,0,0-.129-.166.882.882,0,0,0-.2-.143,1.041,1.041,0,0,0-.282-.1.951.951,0,0,0,.489-.3.884.884,0,0,0,.192-.593,1.183,1.183,0,0,0-.076-.431.979.979,0,0,0-.19-.308,1.061,1.061,0,0,0-.271-.2,1.537,1.537,0,0,0-.283-.123,1.935,1.935,0,0,0-.271-.057,1.754,1.754,0,0,0-.19-.021h-1.433Zm-2.807-.472h1.433l.182.472h.734l-1.635-4.173-1.623,4.173h.734l.173-.469v0h0Zm-3.958.472h1.354c.04,0,.076,0,.123,0s.093-.008.165-.019.137-.018.2-.033a1.879,1.879,0,0,0,.212-.066,1.628,1.628,0,0,0,.216-.1,1.111,1.111,0,0,0,.192-.149.933.933,0,0,0,.159-.2,1,1,0,0,0,.107-.263,1.29,1.29,0,0,0,.04-.333v-.038a.623.623,0,0,0-.013-.106,1.228,1.228,0,0,0-.035-.143.6.6,0,0,0-.08-.166,1.01,1.01,0,0,0-.129-.166.74.74,0,0,0-.2-.143,1.008,1.008,0,0,0-.282-.1.953.953,0,0,0,.491-.3.892.892,0,0,0,.192-.593,1.162,1.162,0,0,0-.078-.431.874.874,0,0,0-.191-.308.981.981,0,0,0-.269-.2,1.5,1.5,0,0,0-.285-.123,1.757,1.757,0,0,0-.269-.057,1.589,1.589,0,0,0-.189-.021h-1.434Zm17.575-3.911a1.539,1.539,0,0,0-.555.552,1.5,1.5,0,0,0-.2.754,1.5,1.5,0,0,0,.2.753,1.52,1.52,0,0,0,.555.552,1.477,1.477,0,0,0,.756.2,1.471,1.471,0,0,0,.59-.12,1.473,1.473,0,0,0,.481-.323,1.548,1.548,0,0,0,.325-.48,1.465,1.465,0,0,0,.119-.584,1.5,1.5,0,0,0-.2-.756,1.555,1.555,0,0,0-.554-.552,1.489,1.489,0,0,0-.761-.2A1.473,1.473,0,0,0-6560.528-5374.032Zm-14.524-3.832a.582.582,0,0,0,.582.581h16.778a.581.581,0,0,0,.582-.581.581.581,0,0,0-.582-.579h-4.6v-10.408h-2.044v-6.965h-3.5v9.274l-.02.013h-2.023v8.085h-4.6A.582.582,0,0,0-6575.052-5377.864Zm4.579-22.25a1.414,1.414,0,0,0,.91.322,1.462,1.462,0,0,0,.622-.133,1.164,1.164,0,0,0,.467-.415,1.147,1.147,0,0,0,.184-.651,1.263,1.263,0,0,0-.172-.653,1.1,1.1,0,0,0-.5-.434,1.43,1.43,0,0,0-.6-.134.659.659,0,0,1-.419-.138.456.456,0,0,1-.176-.376.513.513,0,0,1,.169-.416.632.632,0,0,1,.426-.145.673.673,0,0,1,.411.121.459.459,0,0,1,.172.365h.675a1.106,1.106,0,0,0-.367-.839,1.268,1.268,0,0,0-.892-.327,1.381,1.381,0,0,0-.622.143,1.285,1.285,0,0,0-.474.436,1.249,1.249,0,0,0-.181.662,1.115,1.115,0,0,0,.171.622,1.134,1.134,0,0,0,.491.417,1.461,1.461,0,0,0,.615.136.664.664,0,0,1,.411.164.5.5,0,0,1,.184.4.47.47,0,0,1-.176.375.639.639,0,0,1-.419.145.668.668,0,0,1-.417-.131.461.461,0,0,1-.179-.37h-.682A1.1,1.1,0,0,0-6570.473-5400.114Zm-6.864.279h.683v-1.7h.759a1.366,1.366,0,0,0,.194-.027c.089-.017.179-.038.265-.063a1.306,1.306,0,0,0,.292-.129,1.512,1.512,0,0,0,.267-.211.939.939,0,0,0,.2-.318,1.24,1.24,0,0,0,.073-.441,1.161,1.161,0,0,0-.08-.439.98.98,0,0,0-.187-.318,1.29,1.29,0,0,0-.27-.211,1.555,1.555,0,0,0-.289-.129,1.686,1.686,0,0,0-.269-.063c-.1-.017-.161-.025-.191-.027h-1.444Zm20.155-3.452h.859v3.44h.676v-3.44h.859v-.623h-2.394Zm-2.144,1.746,1.06,1.694h.8l-1.109-1.768a1.309,1.309,0,0,0,.31-.121,1.414,1.414,0,0,0,.285-.2.907.907,0,0,0,.221-.332,1.174,1.174,0,0,0,.081-.456,1.167,1.167,0,0,0-.078-.439,1,1,0,0,0-.19-.316,1.187,1.187,0,0,0-.271-.208,1.554,1.554,0,0,0-.287-.129,1.726,1.726,0,0,0-.272-.063c-.088-.015-.156-.025-.19-.027h-1.436v.68l.648,1.013h-.648v2.371h.683v-1.694Zm-4.78,1.694h2.694v-.682h-2.694Zm-3.422,0h.682v-1.694h.728c.027,0,.057-.007.088-.012l.035,0c.058-.008.121-.017.179-.028a1.557,1.557,0,0,0,.216-.06c.081-.033.154-.065.225-.1a1.006,1.006,0,0,0,.214-.149,1.123,1.123,0,0,0,.181-.209.948.948,0,0,0,.125-.275,1.192,1.192,0,0,0,.048-.35,1.23,1.23,0,0,0-.077-.439,1,1,0,0,0-.19-.316,1.091,1.091,0,0,0-.271-.208,1.532,1.532,0,0,0-.283-.129,2,2,0,0,0-.272-.063c-.1-.017-.161-.025-.19-.027h-1.436v.68l.646,1.013h-.646Zm-5.978-.471h1.434l.182.471h.736l-1.637-4.181-1.626,4.181h.735l.174-.469h0Zm10.005-3.447a1.505,1.505,0,0,0-.552.554,1.468,1.468,0,0,0-.2.754,1.464,1.464,0,0,0,.2.754,1.506,1.506,0,0,0,.552.554,1.488,1.488,0,0,0,.761.2,1.488,1.488,0,0,0,.588-.119,1.6,1.6,0,0,0,.484-.325,1.58,1.58,0,0,0,.325-.482,1.434,1.434,0,0,0,.12-.585,1.459,1.459,0,0,0-.2-.758,1.493,1.493,0,0,0-.554-.55,1.5,1.5,0,0,0-.759-.2A1.5,1.5,0,0,0-6563.5-5403.765Zm-7.164,32.962v-1.006h.776a.783.783,0,0,1,.164.021,1.339,1.339,0,0,1,.217.07.42.42,0,0,1,.184.151.442.442,0,0,1,.073.258.459.459,0,0,1-.046.221.424.424,0,0,1-.127.149.665.665,0,0,1-.179.086,1.105,1.105,0,0,1-.194.042,1.472,1.472,0,0,1-.186.008Zm-6.766,0v-1.006h.779a.82.82,0,0,1,.161.021,1.215,1.215,0,0,1,.217.07.414.414,0,0,1,.184.151.439.439,0,0,1,.074.258.46.46,0,0,1-.048.221.449.449,0,0,1-.125.149.728.728,0,0,1-.181.086,1.119,1.119,0,0,1-.192.042,1.5,1.5,0,0,1-.186.008Zm4.495-.373h-.992l.5-1.409.5,1.406v0Zm12.568-.963a.8.8,0,0,1-.244-.587.809.809,0,0,1,.244-.588.818.818,0,0,1,.6-.242.815.815,0,0,1,.6.242.8.8,0,0,1,.244.588.8.8,0,0,1-.244.587.818.818,0,0,1-.6.242A.822.822,0,0,1-6560.367-5372.139Zm-9.616-.35h-.682v-1.011h.753a.85.85,0,0,1,.167.023,1.28,1.28,0,0,1,.2.073.39.39,0,0,1,.167.154.465.465,0,0,1,.071.262.466.466,0,0,1-.037.182.375.375,0,0,1-.1.134.634.634,0,0,1-.133.088.557.557,0,0,1-.141.055.865.865,0,0,1-.136.028l-.06.008-.012,0h-.021Zm-6.763,0h-.685v-1.011h.754a.865.865,0,0,1,.167.023,1.424,1.424,0,0,1,.2.073.4.4,0,0,1,.169.154.481.481,0,0,1,.066.262.41.41,0,0,1-.037.182.393.393,0,0,1-.095.134.508.508,0,0,1-.132.088.639.639,0,0,1-.143.055.987.987,0,0,1-.134.028c-.027,0-.046.007-.063.008l-.012,0h-.021Zm4.45-28.416h-.988l.494-1.409.494,1.407,0,0Zm8.959-.962a.805.805,0,0,1-.246-.59.8.8,0,0,1,.246-.589.814.814,0,0,1,.6-.242.813.813,0,0,1,.6.242.805.805,0,0,1,.245.589.81.81,0,0,1-.245.59.815.815,0,0,1-.6.242A.817.817,0,0,1-6563.336-5401.867Zm-13.318-.345v-1.02h.719c.014,0,.03,0,.046,0s.035,0,.055.007l.025,0,.014,0a.735.735,0,0,1,.093.02.6.6,0,0,1,.143.053.612.612,0,0,1,.138.093.347.347,0,0,1,.1.134.435.435,0,0,1,.04.189.423.423,0,0,1-.04.189.381.381,0,0,1-.1.136.6.6,0,0,1-.138.091,1.166,1.166,0,0,1-.143.056,1.25,1.25,0,0,1-.134.025.7.7,0,0,1-.1.012h-.721Zm17.7-.01v0h0l-.633-1.006h.617a.768.768,0,0,1,.169.032.93.93,0,0,1,.2.073.457.457,0,0,1,.171.153.43.43,0,0,1,.069.245.415.415,0,0,1-.046.2.367.367,0,0,1-.109.141.609.609,0,0,1-.152.088.878.878,0,0,1-.152.052,1.022,1.022,0,0,1-.133.021Zm-7.124,0h0l-.64-1.006h.622a.811.811,0,0,1,.169.032.918.918,0,0,1,.2.073.418.418,0,0,1,.171.153.417.417,0,0,1,.071.245.454.454,0,0,1-.063.239.43.43,0,0,1-.171.152,1.177,1.177,0,0,1-.192.08,1.406,1.406,0,0,1-.169.035Zm10.785-5.013h-23.03l23.031-3.671v3.671Z" transform="translate(6615 5440)" fill="url(#linear-gradient)"/>
    </g>
  </g>
</svg>
