<svg xmlns="http://www.w3.org/2000/svg" xmlns:xlink="http://www.w3.org/1999/xlink" width="139.838" height="152.28" viewBox="0 0 139.838 152.28">
  <defs>
    <linearGradient id="linear-gradient" x1="0.938" y1="0.774" x2="0" y2="0.225" gradientUnits="objectBoundingBox">
      <stop offset="0" stop-color="#c373f3"/>
      <stop offset="1" stop-color="#aab6ef"/>
    </linearGradient>
    <filter id="Объединение_181" x="0" y="0" width="139.838" height="152.28" filterUnits="userSpaceOnUse">
      <feOffset input="SourceAlpha"/>
      <feGaussianBlur stdDeviation="10" result="blur"/>
      <feFlood flood-color="#70f"/>
      <feComposite operator="in" in2="blur"/>
      <feComposite in="SourceGraphic"/>
    </filter>
  </defs>
  <g transform="matrix(1, 0, 0, 1, 0, 0)" filter="url(#Объединение_181)">
    <path id="Объединение_181-2" data-name="Объединение 181" d="M5599.08-15680.233l-.079-46.143,39.838-23,39.917,23.143.083,46.138-39.838,23Zm7.565-41.712.067,37.309,32.273,18.7,32.206-18.593-.063-37.3-32.273-18.708Zm40.455,31.858a7.445,7.445,0,0,1-2.193-5.3,7.445,7.445,0,0,1,2.193-5.3,7.422,7.422,0,0,1,5.3-2.2,7.44,7.44,0,0,1,5.3,2.2,7.445,7.445,0,0,1,2.193,5.3,7.445,7.445,0,0,1-2.193,5.3,7.461,7.461,0,0,1-5.3,2.2A7.442,7.442,0,0,1,5647.1-15690.087Zm4.83-1.93v1.17h1.621V-15692c1.2-.229,1.885-.929,1.885-1.917,0-1.51-1.28-2.043-2.533-2.371-1.178-.3-1.617-.616-1.617-1.154,0-.608.573-1,1.455-1s1.312.368,1.348,1.131h1.19a2.16,2.16,0,0,0-1.728-2.056v-1.178h-1.621v1.162a2.1,2.1,0,0,0-1.885,1.944c0,1.107.806,1.814,2.538,2.229,1.423.34,1.613.846,1.613,1.3s-.384.968-1.455.968c-1.241,0-1.558-.616-1.6-1.134h-1.189A2.24,2.24,0,0,0,5651.929-15692.017Zm-30.6,1.768a3.39,3.39,0,0,1-1.028-2.494v-2.345h-1.767a.546.546,0,0,1-.419-.17.559.559,0,0,1-.166-.419v-7.047a3.99,3.99,0,0,1,1.2-2.909,3.98,3.98,0,0,1,2.909-1.2h.514l1.925-7.688a5.166,5.166,0,0,1,1.909-2.889,5.21,5.21,0,0,1,3.28-1.166h14.1a5.2,5.2,0,0,1,3.284,1.166,5.18,5.18,0,0,1,1.909,2.889l1.929,7.688h.514a3.979,3.979,0,0,1,2.909,1.2,4.094,4.094,0,0,1,.917,1.375,10.339,10.339,0,0,0-3.032-.454,10.377,10.377,0,0,0-10.328,9.624H5627.34v2.345a3.39,3.39,0,0,1-1.028,2.494,3.4,3.4,0,0,1-2.494,1.031A3.4,3.4,0,0,1,5621.325-15690.249Zm.419-12.787a2.839,2.839,0,0,0-.866,2.075,2.852,2.852,0,0,0,.866,2.075,2.857,2.857,0,0,0,2.075.861,2.832,2.832,0,0,0,2.067-.861,2.836,2.836,0,0,0,.866-2.075,2.824,2.824,0,0,0-.866-2.075,2.816,2.816,0,0,0-2.067-.861A2.841,2.841,0,0,0,5621.744-15703.036Zm7.557-10.668a.725.725,0,0,0-.257.32l-1.628,6.55h18.64l-1.632-6.55a.676.676,0,0,0-.257-.32.641.641,0,0,0-.387-.174h-14.1A.671.671,0,0,0,5629.3-15713.7Z" transform="translate(-5569 15779.38)" fill="url(#linear-gradient)"/>
  </g>
</svg>
