<svg xmlns="http://www.w3.org/2000/svg" xmlns:xlink="http://www.w3.org/1999/xlink" width="97.838" height="110.281" viewBox="0 0 97.838 110.281">
  <defs>
    <linearGradient id="linear-gradient" y1="0.242" x2="1" y2="0.749" gradientUnits="objectBoundingBox">
      <stop offset="0" stop-color="#f1f1f1"/>
      <stop offset="1" stop-color="#8e8e8e"/>
    </linearGradient>
    <filter id="prisonLongTime" x="0" y="0" width="97.838" height="110.281" filterUnits="userSpaceOnUse">
      <feOffset dy="3" input="SourceAlpha"/>
      <feGaussianBlur stdDeviation="3" result="blur"/>
      <feFlood/>
      <feComposite operator="in" in2="blur"/>
      <feComposite in="SourceGraphic"/>
    </filter>
  </defs>
  <g transform="matrix(1, 0, 0, 1, 0, 0)" filter="url(#prisonLongTime)">
    <path id="prisonLongTime-2" data-name="prisonLongTime" d="M-1139.919-3905.28l-.082-46.141,39.838-23,39.918,23.141.082,46.141-39.837,23Zm48.12,8.83v.729l.8-.464v-22.1a74.351,74.351,0,0,0,8.232.434,74.273,74.273,0,0,0,7.769-.434v12.866l7.186-4.149-.066-37.3-32.272-18.707-32.207,18.594.066,37.3,6.991,4.052v-12.656a42.681,42.681,0,0,0,6.383.459,42.807,42.807,0,0,0,6.147-.459v19.919l1.008.584v-19.5c3.046.28,6.454.465,10.167.459,3.567-.007,6.846-.188,9.793-.459Zm-17.451-22.3c-.37-.042-.743-.086-1.109-.16a3.692,3.692,0,0,1-2.535-1.36,20.531,20.531,0,0,1-2.529-3.451,7.027,7.027,0,0,1,1.557-8.232c1.59-1.649,3.413-3.033,5.123-4.545a35.5,35.5,0,0,0,6.188-6.539,9.616,9.616,0,0,0,1.507-4.543c.1-.97.214-1.937.322-2.907l.072-.026c.107.858.274,1.713.31,2.573a11.284,11.284,0,0,0,3.4,7.269,69.049,69.049,0,0,0,6.347,5.877c.684.582,1.378,1.154,2.041,1.76-.358.327-.722.649-1.086.973-1.292,1.145-2.671,2.191-3.873,3.437a5.319,5.319,0,0,0-1.178,6.226,15.407,15.407,0,0,0,1.912,2.609,2.44,2.44,0,0,0,1.485.931,38.145,38.145,0,0,1-4.765.438q-2.38.124-4.759.128A74.866,74.866,0,0,1-1109.25-3918.746Zm20.26-.529c-.255-.029-.51-.059-.761-.109a2.54,2.54,0,0,1-1.74-.934,14.2,14.2,0,0,1-1.735-2.369,4.826,4.826,0,0,1,1.069-5.65c1.09-1.129,2.341-2.08,3.514-3.118a24.3,24.3,0,0,0,4.246-4.486,6.584,6.584,0,0,0,1.034-3.117c.068-.666.148-1.331.221-1.995l.049-.019c.075.588.191,1.175.213,1.766a7.748,7.748,0,0,0,2.331,4.988,47.061,47.061,0,0,0,4.356,4.033,16.191,16.191,0,0,1,2.748,2.677,4.774,4.774,0,0,1,.208,5.419,26,26,0,0,1-1.9,2.357,1.2,1.2,0,0,1-.7.3,20.2,20.2,0,0,1-4.107.483q-1.638.087-3.276.089A51.026,51.026,0,0,1-1088.99-3919.275Zm-34.662.046c-.216-.024-.433-.049-.646-.092a2.163,2.163,0,0,1-1.481-.795,11.92,11.92,0,0,1-1.478-2.017,4.1,4.1,0,0,1,.912-4.809c.928-.964,1.992-1.774,2.991-2.655a20.762,20.762,0,0,0,3.615-3.821,5.614,5.614,0,0,0,.882-2.653c.055-.568.125-1.133.188-1.7l.041-.016c.063.5.161,1,.182,1.5a6.59,6.59,0,0,0,1.983,4.246c.182.2.37.394.559.585a6.931,6.931,0,0,0-1.108,7.732,20.645,20.645,0,0,0,2.53,3.451,2.935,2.935,0,0,0,1.242.989,23.174,23.174,0,0,1-2.706.243q-1.387.073-2.772.074A43.638,43.638,0,0,1-1123.652-3919.229Z" transform="translate(1149 3980.42)" fill="url(#linear-gradient)"/>
  </g>
</svg>
