<svg xmlns="http://www.w3.org/2000/svg" xmlns:xlink="http://www.w3.org/1999/xlink" width="97.839" height="110.281" viewBox="0 0 97.839 110.281">
  <defs>
    <linearGradient id="linear-gradient" y1="0.242" x2="1" y2="0.749" gradientUnits="objectBoundingBox">
      <stop offset="0" stop-color="#f1f1f1"/>
      <stop offset="1" stop-color="#8e8e8e"/>
    </linearGradient>
    <filter id="Объединение_59" x="0" y="0" width="97.839" height="110.281" filterUnits="userSpaceOnUse">
      <feOffset dy="3" input="SourceAlpha"/>
      <feGaussianBlur stdDeviation="3" result="blur"/>
      <feFlood/>
      <feComposite operator="in" in2="blur"/>
      <feComposite in="SourceGraphic"/>
    </filter>
  </defs>
  <g id="prisonVeryLongTime" transform="translate(-214.08 -185.86)">
    <g transform="matrix(1, 0, 0, 1, 214.08, 185.86)" filter="url(#Объединение_59)">
      <path id="Объединение_59-2" data-name="Объединение 59" d="M-7877.42-5713.063l-.081-46.141,39.837-23,39.918,23.139.083,46.141-39.839,23Zm7.565-41.709.066,37.3,32.272,18.706,32.206-18.593-.065-37.3-32.274-18.706Zm32.2,45.69q-1.776-4.163-3.548-8.326-1.057-2.481-2.11-4.962c-.046-.106-.086-.111-.186-.071q-4.852,1.952-9.7,3.9-1.972.791-3.944,1.582a.3.3,0,0,1-.169.047c.1-.246.2-.484.305-.723q2.477-5.817,4.957-11.635c.147-.345.29-.695.444-1.038.045-.1.035-.141-.071-.182q-2.124-.846-4.246-1.7l-9.428-3.787c-.045-.018-.1-.023-.134-.078l1.984-.8q5.892-2.365,11.786-4.727c.129-.051.154-.093.1-.229q-2.487-5.822-4.964-11.648-.346-.813-.693-1.626l-.045-.118c.4.159.774.309,1.149.459l9.838,3.96q1.392.563,2.782,1.124c.111.046.161.043.214-.084q2.838-6.635,5.685-13.265c.015-.037.032-.071.063-.138.084.192.159.36.232.531q2.427,5.7,4.856,11.4c.21.493.422.983.625,1.479.044.106.083.128.192.083q3.541-1.427,7.084-2.847l6.631-2.663c.027-.012.055-.018.109-.037-.1.234-.189.45-.28.665q-2.5,5.824-5,11.648c-.156.363-.309.729-.471,1.091-.053.113-.033.156.083.2q2.7,1.072,5.393,2.155l8.3,3.322.158.068-1.013.408-10.783,4.317c-.68.274-1.359.549-2.042.814-.129.052-.146.093-.091.222q1.821,4.23,3.632,8.465,1.028,2.4,2.056,4.793c.013.035.026.07.055.138l-.7-.28q-6.56-2.634-13.12-5.271c-.123-.05-.154-.018-.2.09q-2.121,4.993-4.25,9.98-.694,1.633-1.391,3.268c-.019.042-.037.081-.057.123C-7837.641-5708.993-7837.639-5709.044-7837.655-5709.082Zm.06-26.742v22.125a5.858,5.858,0,0,0,.312-.66q2.2-5.192,4.4-10.385a.3.3,0,0,0,0-.255q-.445-1.03-.88-2.064-1.87-4.395-3.739-8.791c-.018-.045-.083-.091-.029-.152h0c.051-.071.128-.035.192-.035q11.219,0,22.435,0h.287a.231.231,0,0,0-.121-.088q-5.594-2.235-11.185-4.475a.4.4,0,0,0-.334.012l-11.11,4.46c-.258.1-.219.1-.219-.156v-22.063a.227.227,0,0,0-.081.1q-2.328,5.429-4.659,10.855a.322.322,0,0,0,0,.279q2.33,5.443,4.657,10.891c.015.037.049.071.028.129l-16.2-15.727a7.485,7.485,0,0,0,.285.75q2.171,5.1,4.34,10.2a.408.408,0,0,0,.247.247c1.462.583,2.923,1.174,4.382,1.761l6.794,2.737c.055.022.125.031.147.1h0l0,.01h.008C-7837.571-5735.963-7837.6-5735.89-7837.6-5735.824Zm-.133-.095-5.428,5.271q-5.011,4.864-10.022,9.73c-.218.212-.415.442-.621.666a.319.319,0,0,1,.082-.039q5.605-2.246,11.209-4.491a.3.3,0,0,0,.178-.179q.818-1.927,1.645-3.853,1.507-3.527,3.012-7.051c.02-.046.067-.09.035-.149C-7837.668-5735.981-7837.7-5735.949-7837.729-5735.918Zm.287.018q.833.811,1.666,1.62l6.187,6q3.947,3.834,7.9,7.667c.114.111.23.221.347.33a.575.575,0,0,0-.055-.206q-2.3-5.366-4.589-10.738a.5.5,0,0,0-.3-.295q-5.366-2.144-10.726-4.3a2.6,2.6,0,0,0-.521-.191C-7837.52-5735.957-7837.474-5735.933-7837.441-5735.9Zm-23.163-.127c.033.046.086.051.129.07q5.6,2.255,11.2,4.513a.3.3,0,0,0,.25.008q5.684-2.3,11.371-4.587a.7.7,0,0,0-.3-.019h-22.522c-.02,0-.04,0-.061,0A.1.1,0,0,0-7860.6-5736.028Zm39.125-15.771-.7.282q-5.269,2.106-10.537,4.211a.276.276,0,0,0-.173.166q-2.235,5.282-4.476,10.561c-.066.156-.131.312-.2.468l.025.015,16.189-15.717a.1.1,0,0,0-.048-.013A.214.214,0,0,0-7821.479-5751.8Z" transform="translate(7886.5 5788.2)" fill="url(#linear-gradient)"/>
    </g>
  </g>
</svg>
