<svg xmlns="http://www.w3.org/2000/svg" xmlns:xlink="http://www.w3.org/1999/xlink" width="139.838" height="152.281" viewBox="0 0 139.838 152.281">
  <defs>
    <linearGradient id="linear-gradient" x1="0.938" y1="0.774" x2="0" y2="0.225" gradientUnits="objectBoundingBox">
      <stop offset="0" stop-color="#c373f3"/>
      <stop offset="1" stop-color="#aab6ef"/>
    </linearGradient>
    <filter id="prisonReady" x="0" y="0" width="139.838" height="152.281" filterUnits="userSpaceOnUse">
      <feOffset input="SourceAlpha"/>
      <feGaussianBlur stdDeviation="10" result="blur"/>
      <feFlood flood-color="#70f"/>
      <feComposite operator="in" in2="blur"/>
      <feComposite in="SourceGraphic"/>
    </filter>
  </defs>
  <g transform="matrix(1, 0, 0, 1, 0, 0)" filter="url(#prisonReady)">
    <path id="prisonReady-2" data-name="prisonReady" d="M-1139.919-3905.28l-.082-46.141,39.838-23,39.918,23.141.082,46.141-39.837,23Zm39.9,14.3,7.934-4.58v-13.082h-16v12.986Zm9.934-5.735,6-3.464v-8.463h-6Zm-20-.1v-11.827h-6v8.349Zm29-5.1,7-4.042v-44.523l-7-4.058Zm-38-.121v-52.623l-6,3.464v45.68Zm-13.273-44.96.066,37.3,5.207,3.018v-43.366Zm60.273,39.885,4.272-2.467-.066-37.3-4.206-2.438Zm-18.17-12.457a2.188,2.188,0,0,1,2.184,2.185v2.184h3.985v-28.544h-6.169v21.991h-2.184a4.373,4.373,0,0,0-4.369,4.369,4.321,4.321,0,0,0,.607,2.184h3.761a2.188,2.188,0,0,1-2.184-2.184,2.188,2.188,0,0,1,2.184-2.185Zm-17.476,0a2.187,2.187,0,0,1,2.184,2.185,2.187,2.187,0,0,1-2.184,2.184h3.761a4.312,4.312,0,0,0,.608-2.184,4.373,4.373,0,0,0-4.369-4.369h-2.184v-21.991h-6.17v28.544h3.986v-2.184a2.188,2.188,0,0,1,2.184-2.185Zm8.739-17.321a4.363,4.363,0,0,1,3.277,4.213,4.364,4.364,0,0,1-3.277,4.214v.219a9.822,9.822,0,0,1,6.553,3.664v-19.165h-6.553Zm-8.739,12.311a9.823,9.823,0,0,1,6.554-3.664v-.219a4.364,4.364,0,0,1-3.278-4.214,4.363,4.363,0,0,1,3.278-4.213v-6.854h-6.554Zm23.646-21.349v-10.349l-6-3.478v13.827Zm-8,0v-14.986l-7-4.058v19.044Zm-9,0v-19.123l-7,4.041v15.082Zm-9,0v-13.927l-6,3.464v10.463Z" transform="translate(1170 4004.42)" fill="url(#linear-gradient)"/>
  </g>
</svg>
