<svg xmlns="http://www.w3.org/2000/svg" xmlns:xlink="http://www.w3.org/1999/xlink" width="97.838" height="110.281" viewBox="0 0 97.838 110.281">
  <defs>
    <linearGradient id="linear-gradient" y1="0.242" x2="1" y2="0.749" gradientUnits="objectBoundingBox">
      <stop offset="0" stop-color="#f1f1f1"/>
      <stop offset="1" stop-color="#8e8e8e"/>
    </linearGradient>
    <filter id="Объединение_63" x="0" y="0" width="97.838" height="110.281" filterUnits="userSpaceOnUse">
      <feOffset dy="3" input="SourceAlpha"/>
      <feGaussianBlur stdDeviation="3" result="blur"/>
      <feFlood/>
      <feComposite operator="in" in2="blur"/>
      <feComposite in="SourceGraphic"/>
    </filter>
  </defs>
  <g id="promo" transform="translate(-214.079 -185.858)">
    <g transform="matrix(1, 0, 0, 1, 214.08, 185.86)" filter="url(#Объединение_63)">
      <path id="Объединение_63-2" data-name="Объединение 63" d="M-9045.92-5504.064l-.082-46.14,39.839-23,39.917,23.141.082,46.141-39.836,23Zm39.9,14.3,25.406-14.668h-50.713Zm25.154-22.126v2.18a1.006,1.006,0,0,0,1.006,1.008h2.179a1.006,1.006,0,0,0,1.006-1.008v-2.18a1,1,0,0,0-1.006-1h-2.179A1,1,0,0,0-8980.861-5511.888Zm-9.036,0v2.18a1.007,1.007,0,0,0,1.006,1.008h2.18a1.006,1.006,0,0,0,1.006-1.008v-2.18a1,1,0,0,0-1.006-1h-2.18A1,1,0,0,0-8989.9-5511.888Zm-9.035,0v2.18a1.009,1.009,0,0,0,1.008,1.008h2.18a1.008,1.008,0,0,0,1.006-1.008v-2.18a1.006,1.006,0,0,0-1.006-1h-2.18A1.007,1.007,0,0,0-8998.933-5511.888Zm-9.033,0v2.18a1.006,1.006,0,0,0,1.006,1.008h2.17a1.006,1.006,0,0,0,1.006-1.008v-2.18a1,1,0,0,0-1.006-1h-2.17A1,1,0,0,0-9007.966-5511.888Zm-9.045,0v2.18A1.006,1.006,0,0,0-9016-5508.7h2.109a1.007,1.007,0,0,0,1-1.008v-2.18a1,1,0,0,0-1-1H-9016A1,1,0,0,0-9017.011-5511.888Zm-9.033,0v2.18a1,1,0,0,0,1,1.008h2.179a1.006,1.006,0,0,0,1.006-1.008v-2.18a1,1,0,0,0-1.006-1h-2.179A1,1,0,0,0-9026.044-5511.888Zm-9.035,0v2.18a1.006,1.006,0,0,0,1,1.008h2.182a1.006,1.006,0,0,0,1.006-1.008v-2.18a1,1,0,0,0-1.006-1h-2.182A1,1,0,0,0-9035.079-5511.888Zm51.781-23.915v17.479a1,1,0,0,0,1.006,1.006h8.08a1,1,0,0,0,.386-.077l-.034-19.35a1,1,0,0,0-.352-.063h-8.08A1,1,0,0,0-8983.3-5535.8Zm-12.713,18.484h7.525a1,1,0,0,0,1.006-1.006V-5535.8a1,1,0,0,0-1.006-1.006h-7.525Zm-14.4-18.484v17.479a1,1,0,0,0,1.006,1.006h6.647a1,1,0,0,0,1.006-1.006V-5535.8a1,1,0,0,0-1.006-1.006h-6.647A1,1,0,0,0-9010.411-5535.8Zm-14.272,0v17.479a1,1,0,0,0,1,1.006h7.528v-19.49h-7.528A1,1,0,0,0-9024.684-5535.8Zm-13.268,18.484h8.079a1,1,0,0,0,1-1.006V-5535.8a1,1,0,0,0-1-1.006h-8.079a1.011,1.011,0,0,0-.389.078l.034,19.349A1.015,1.015,0,0,0-9037.951-5517.318Zm57.09-27.023v2.18a1,1,0,0,0,1.006,1.005h2.179a1,1,0,0,0,1.006-1.005v-2.18a1,1,0,0,0-1.006-1.006h-2.179A1,1,0,0,0-8980.861-5544.341Zm-9.036,0v2.18a1,1,0,0,0,1.006,1.005h2.18a1,1,0,0,0,1.006-1.005v-2.18a1,1,0,0,0-1.006-1.006h-2.18A1,1,0,0,0-8989.9-5544.341Zm-9.035,0v2.18a1.007,1.007,0,0,0,1.008,1.005h2.18a1.006,1.006,0,0,0,1.006-1.005v-2.18a1.007,1.007,0,0,0-1.006-1.006h-2.18A1.007,1.007,0,0,0-8998.933-5544.341Zm-9.033,0v2.18a1,1,0,0,0,1.006,1.005h2.17a1,1,0,0,0,1.006-1.005v-2.18a1,1,0,0,0-1.006-1.006h-2.17A1,1,0,0,0-9007.966-5544.341Zm-9.045,0v2.18a1,1,0,0,0,1.006,1.005h2.109a1,1,0,0,0,1-1.005v-2.18a1.006,1.006,0,0,0-1-1.006H-9016A1,1,0,0,0-9017.011-5544.341Zm-9.033,0v2.18a1,1,0,0,0,1,1.005h2.179a1,1,0,0,0,1.006-1.005v-2.18a1,1,0,0,0-1.006-1.006h-2.179A1,1,0,0,0-9026.044-5544.341Zm-9.035,0v2.18a1,1,0,0,0,1,1.005h2.182a1,1,0,0,0,1.006-1.005v-2.18a1,1,0,0,0-1.006-1.006h-2.182A1,1,0,0,0-9035.079-5544.341Zm38.063-5.355h16.177l-25.308-14.67-25.412,14.67Z" transform="translate(9055 5579.2)" fill="url(#linear-gradient)"/>
    </g>
  </g>
</svg>
