<svg xmlns="http://www.w3.org/2000/svg" xmlns:xlink="http://www.w3.org/1999/xlink" width="139.838" height="152.284" viewBox="0 0 139.838 152.284">
  <defs>
    <linearGradient id="linear-gradient" x1="0.938" y1="0.774" x2="0" y2="0.225" gradientUnits="objectBoundingBox">
      <stop offset="0" stop-color="#c373f3"/>
      <stop offset="1" stop-color="#aab6ef"/>
    </linearGradient>
    <filter id="Объединение_177" x="0" y="0" width="139.838" height="152.284" filterUnits="userSpaceOnUse">
      <feOffset input="SourceAlpha"/>
      <feGaussianBlur stdDeviation="10" result="blur"/>
      <feFlood flood-color="#70f"/>
      <feComposite operator="in" in2="blur"/>
      <feComposite in="SourceGraphic"/>
    </filter>
  </defs>
  <g transform="matrix(1, 0, 0, 1, 0, 0)" filter="url(#Объединение_177)">
    <path id="Объединение_177-2" data-name="Объединение 177" d="M5599.079-15505.955l-.078-46.14,39.835-23,39.921,23.141.082,46.14-39.839,23Zm7.568-41.707.066,37.306,32.271,18.708,32.205-18.595-.062-37.306-32.275-18.708Zm40.675,36.45a7.57,7.57,0,0,1-2.228-5.387,7.564,7.564,0,0,1,2.228-5.387,7.552,7.552,0,0,1,5.382-2.228,7.568,7.568,0,0,1,5.386,2.228,7.576,7.576,0,0,1,2.224,5.387,7.583,7.583,0,0,1-2.224,5.387,7.584,7.584,0,0,1-5.386,2.228A7.568,7.568,0,0,1,5647.322-15511.212Zm4.909-1.963v1.188h1.642v-1.177c1.215-.234,1.915-.941,1.915-1.95,0-1.528-1.3-2.075-2.572-2.4-1.2-.312-1.646-.629-1.646-1.176,0-.618.583-1.013,1.481-1.013.884,0,1.333.371,1.368,1.146h1.208a2.193,2.193,0,0,0-1.755-2.084v-1.2h-1.642v1.181a2.133,2.133,0,0,0-1.919,1.979c0,1.125.821,1.841,2.576,2.263,1.446.344,1.642.86,1.642,1.317,0,.477-.391.981-1.478.981-1.262,0-1.583-.626-1.63-1.149h-1.208A2.273,2.273,0,0,0,5652.231-15513.175Zm-8.924.07h-20.189a1.117,1.117,0,0,1-1.118-1.113v-12.942c.047-.031.1-.062.153-.09a.929.929,0,0,0,.227-.145l15.292-13.481,15.3,13.5a1.117,1.117,0,0,0,.215.137,1,1,0,0,1,.152.086v.648a9.393,9.393,0,0,0-1.814-.176,9.284,9.284,0,0,0-9.275,9.275,9.247,9.247,0,0,0,1.059,4.3Zm-24-16.037-1.493-1.67a1.118,1.118,0,0,1,.082-1.579l17.91-15.811a2.759,2.759,0,0,1,1.861-.72,2.792,2.792,0,0,1,1.876.724l7.087,6.25v-3.616a1.117,1.117,0,0,1,1.118-1.117h4.476a1.121,1.121,0,0,1,1.122,1.117v9.546l4.1,3.627a1.108,1.108,0,0,1,.372.774,1.111,1.111,0,0,1-.285.8l-1.5,1.666a1.113,1.113,0,0,1-.833.371,1.131,1.131,0,0,1-.75-.285l-16.042-14.15a1.117,1.117,0,0,0-.739-.281,1.132,1.132,0,0,0-.743.281l-16.042,14.15a1.112,1.112,0,0,1-.747.289A1.134,1.134,0,0,1,5619.3-15529.142Z" transform="translate(-5569 15605.09)" fill="url(#linear-gradient)"/>
  </g>
</svg>
