<svg xmlns="http://www.w3.org/2000/svg" xmlns:xlink="http://www.w3.org/1999/xlink" width="97.839" height="110.281" viewBox="0 0 97.839 110.281">
  <defs>
    <linearGradient id="linear-gradient" y1="0.242" x2="1" y2="0.749" gradientUnits="objectBoundingBox">
      <stop offset="0" stop-color="#f1f1f1"/>
      <stop offset="1" stop-color="#8e8e8e"/>
    </linearGradient>
    <filter id="Объединение_47" x="0" y="0" width="97.839" height="110.281" filterUnits="userSpaceOnUse">
      <feOffset dy="3" input="SourceAlpha"/>
      <feGaussianBlur stdDeviation="3" result="blur"/>
      <feFlood/>
      <feComposite operator="in" in2="blur"/>
      <feComposite in="SourceGraphic"/>
    </filter>
  </defs>
  <g id="Сгруппировать_2551" data-name="Сгруппировать 2551" transform="translate(-214.08 -185.859)">
    <g transform="matrix(1, 0, 0, 1, 214.08, 185.86)" filter="url(#Объединение_47)">
      <path id="Объединение_47-2" data-name="Объединение 47" d="M-6605.919-5364.86-6606-5411l39.837-23,39.918,23.141.083,46.141-39.839,23Zm7.565-41.709.066,37.3,32.272,18.708,32.206-18.593-.065-37.3-32.274-18.708Zm37.486,33.745a10.053,10.053,0,0,1-2.964-7.16,10.059,10.059,0,0,1,2.964-7.161,10.056,10.056,0,0,1,7.162-2.966,10.056,10.056,0,0,1,7.161,2.966,10.059,10.059,0,0,1,2.964,7.161,10.053,10.053,0,0,1-2.964,7.16,10.06,10.06,0,0,1-7.161,2.964A10.061,10.061,0,0,1-6560.868-5372.824Zm6.435-1.631v1.719h2.372v-1.7c1.759-.332,2.769-1.354,2.769-2.807,0-2.216-1.882-3-3.72-3.483-1.729-.448-2.373-.909-2.373-1.7,0-.89.839-1.464,2.137-1.464,1.277,0,1.925.544,1.978,1.661h1.749a3.172,3.172,0,0,0-2.54-3.014v-1.734h-2.372v1.709c-1.711.371-2.772,1.465-2.772,2.858,0,1.618,1.182,2.656,3.718,3.268,2.094.5,2.376,1.245,2.376,1.906,0,.685-.562,1.416-2.137,1.416-1.822,0-2.29-.9-2.359-1.661h-1.739A3.282,3.282,0,0,0-6554.433-5374.456Zm-10.284.1h-20.49a3.463,3.463,0,0,1-3.375-3.375v-10.125h13.5v3.375a1.125,1.125,0,0,0,1.124,1.124h8.354a12.41,12.41,0,0,0-.478,3.375,12.214,12.214,0,0,0,1.363,5.624h0Zm-23.865-15.751v-5.624a3.464,3.464,0,0,1,3.375-3.375h5.627v-3.375a3.459,3.459,0,0,1,3.372-3.372h11.252a3.461,3.461,0,0,1,3.375,3.372v3.375h5.624a3.464,3.464,0,0,1,3.375,3.375v3.432c-.436-.038-.794-.056-1.124-.056a12.291,12.291,0,0,0-7.094,2.248Zm13.5-9h9v-2.248h-9Z" transform="translate(6615 5440)" fill="url(#linear-gradient)"/>
    </g>
  </g>
</svg>
