<svg xmlns="http://www.w3.org/2000/svg" xmlns:xlink="http://www.w3.org/1999/xlink" width="139.839" height="152.281" viewBox="0 0 139.839 152.281">
  <defs>
    <linearGradient id="linear-gradient" y1="0.233" x2="1" y2="0.783" gradientUnits="objectBoundingBox">
      <stop offset="0" stop-color="#f96"/>
      <stop offset="1" stop-color="#ff5e62"/>
    </linearGradient>
    <filter id="Объединение_56" x="0" y="0" width="139.839" height="152.281" filterUnits="userSpaceOnUse">
      <feOffset input="SourceAlpha"/>
      <feGaussianBlur stdDeviation="10" result="blur"/>
      <feFlood flood-color="#ff5e62"/>
      <feComposite operator="in" in2="blur"/>
      <feComposite in="SourceGraphic"/>
    </filter>
  </defs>
  <g id="sendSearchReady" transform="translate(-193.08 -161.86)">
    <g transform="matrix(1, 0, 0, 1, 193.08, 161.86)" filter="url(#Объединение_56)">
      <path id="Объединение_56-2" data-name="Объединение 56" d="M-6728.42-5504.063l-.081-46.141,39.837-23,39.918,23.139.083,46.141-39.839,23Zm7.565-41.709.066,37.3,32.272,18.706,32.206-18.593-.065-37.3-32.274-18.706Zm46.53,36.684a7.852,7.852,0,0,1-2.173-1.683c-2.048-2.064-4.128-4.092-6.167-6.164-.437-.446-.771-.622-1.336-.2a4.458,4.458,0,0,1-1.714.794,41.516,41.516,0,0,0,.132-4.765c0-.453.355-.59.617-.815a10.058,10.058,0,0,0,3.568-10.529,10.03,10.03,0,0,0-7.868-7.767,10.472,10.472,0,0,0-12.656,8.355.931.931,0,0,1-.864.916,12.431,12.431,0,0,1-3.841-.045v-.718c.172-.159.156-.378.184-.584a15.06,15.06,0,0,1,17.715-12.452,14.943,14.943,0,0,1,10.062,22.337.8.8,0,0,0,.176,1.188c2.105,2.049,4.168,4.142,6.267,6.2a7.83,7.83,0,0,1,1.691,2.164v1.616a4.607,4.607,0,0,1-2.166,2.155Zm-23.461,0a17.842,17.842,0,0,0-2.822-1.338c-2.881-1.32-5.265-3.087-6.021-6.385v-11.132a10.959,10.959,0,0,1,1.42.058,9.327,9.327,0,0,0,1.718.038,11.39,11.39,0,0,0,5.365-1.882.771.771,0,0,1,1.023-.008,10.717,10.717,0,0,0,7.6,1.811c.777-.109.943.111.932.862q-.07,4.389-.01,8.78a7.222,7.222,0,0,1-3.225,6.255,23.031,23.031,0,0,1-4.115,2.188,5.55,5.55,0,0,0-1.508.752Zm.819-6.918c1.17.8,2.38,1.552,3.753,2.437-.393-1.454-.668-2.7-1.076-3.909a1.394,1.394,0,0,1,.6-1.865c1.038-.723,1.983-1.577,3.083-2.467a36.325,36.325,0,0,0-4.333-.3,1.052,1.052,0,0,1-1.088-.8c-.444-1.294-.978-2.558-1.578-4.1-.539,1.381-1.069,2.487-1.4,3.651a1.577,1.577,0,0,1-1.777,1.3,19.081,19.081,0,0,0-3.831.259c1.174.948,2.183,1.832,3.269,2.611a1.154,1.154,0,0,1,.471,1.505c-.4,1.285-.713,2.6-1.123,4.11,1.393-.9,2.589-1.636,3.747-2.432a1.122,1.122,0,0,1,.637-.238A1.134,1.134,0,0,1-6696.966-5516.006Z" transform="translate(6758.5 5603.2)" fill="url(#linear-gradient)"/>
    </g>
  </g>
</svg>
