<svg xmlns="http://www.w3.org/2000/svg" xmlns:xlink="http://www.w3.org/1999/xlink" width="97.839" height="110.281" viewBox="0 0 97.839 110.281">
  <defs>
    <linearGradient id="linear-gradient" y1="0.242" x2="1" y2="0.749" gradientUnits="objectBoundingBox">
      <stop offset="0" stop-color="#f1f1f1"/>
      <stop offset="1" stop-color="#8e8e8e"/>
    </linearGradient>
    <filter id="Объединение_59" x="0" y="0" width="97.839" height="110.281" filterUnits="userSpaceOnUse">
      <feOffset dy="3" input="SourceAlpha"/>
      <feGaussianBlur stdDeviation="3" result="blur"/>
      <feFlood/>
      <feComposite operator="in" in2="blur"/>
      <feComposite in="SourceGraphic"/>
    </filter>
  </defs>
  <g id="spendHighMoney" transform="translate(-214.08 -185.86)">
    <g transform="matrix(1, 0, 0, 1, 214.08, 185.86)" filter="url(#Объединение_59)">
      <path id="Объединение_59-2" data-name="Объединение 59" d="M-7877.42-5713.063l-.081-46.141,39.837-23,39.918,23.139.083,46.141-39.839,23Zm39.9,14.3,28.848-16.655-.964-2.068a7.148,7.148,0,0,1-8.1-3.758l3.591-1.676c1.045,1.986,2.761,2.868,5.654,1.519a5.312,5.312,0,0,0,3.167-3.151l0-1.41a3,3,0,0,0-.179-.491c-.721-1.543-2.369-1.982-6.5-1.22s-8.82,1.026-10.972-3.589c-1.553-3.331.109-6.342,3-8.42l-1.63-3.493,4.876-2.273,1.643,3.526c3.432-.789,7.028-.033,8.883,3.436l-3.576,1.666c-1.072-1.833-3.085-2.716-6.433-1.154-3.591,1.674-3.554,3.833-3.03,4.954.7,1.512,2.183,2.563,6.7,1.643a14.461,14.461,0,0,1,7.216-.046l-.031-17.928a3.745,3.745,0,0,1-2.161.966l-.143-2.047c1.156-.136,1.9-.8,1.784-2.454-.109-1.565-.879-2.452-1.889-2.383-.88.063-1.4.778-1.8,2.92s-1.141,4.458-3.773,4.642c-1.9.132-3.047-1.23-3.517-3.014l-1.993.139-.194-2.78,2.011-.141a3.892,3.892,0,0,1,3.311-3.659l.143,2.039c-1.086.179-1.887.99-1.752,2.9.143,2.048,1.193,2.431,1.833,2.388.862-.062,1.645-.582,2.039-2.938.327-1.958.933-3.48,2.106-4.192l-17.281-10.016a10.337,10.337,0,0,1,1.289,5.821l4.407,1.018-1.419,6.149-4.448-1.026c-1.75,3.742-5.047,6.521-9.593,5.73l1.041-4.51c2.47.333,4.74-.892,5.715-5.114,1.046-4.529-.977-6.055-2.391-6.381-1.907-.439-3.947.169-6.36,5.008-2.694,5.4-5.955,8.774-10.69,7.68-3.956-.912-5.8-4.707-5.743-8.881l-2.417-.559-6.8,3.923a5.9,5.9,0,0,1,4.97,4.211l-3.2.859c-.572-1.789-1.858-2.764-4.438-2.072a4.284,4.284,0,0,0-3.135,2.3l0,1.623c.44,1.237,1.774,1.779,5.12,1.755,3.518-.027,7.416.434,8.519,4.549.8,2.971-1.011,5.209-3.692,6.5l.834,3.115-4.347,1.166-.842-3.145a6.926,6.926,0,0,1-5.569-1.948l.025,14.057a5.805,5.805,0,0,1,1.862-1.912l1.649,2.858c-1.451,1.028-2.039,2.771-.492,5.446,1.656,2.872,3.453,2.683,4.349,2.165,1.208-.7,1.976-2.008.882-5.7-1.222-4.128-1.162-7.471,1.838-9.2,2.509-1.447,5.315-.366,7.315,1.839l2.807-1.62,2.25,3.9-2.845,1.641a5.979,5.979,0,0,1-2.542,7.028l-1.658-2.872c1.58-1.015,2.188-2.51.854-4.823-1.268-2.195-3.012-2.936-4.428-2.119-1.235.713-1.479,2.119-.543,5.509s1.5,7.276-2.19,9.405a5.267,5.267,0,0,1-1.445.581l9.1,5.277,1.706-1.149a8.39,8.39,0,0,1,2.868-10.082l2.6,3.855c-2.11,1.575-2.815,3.727-.723,6.83,1.988,2.948,4.5,3.815,6.4,2.534,1.658-1.118,1.862-3.109.221-7.763s-2.807-10.032,2.146-13.372c3.576-2.411,7.369-1.038,10.309,1.928l3.75-2.528,3.528,5.231-3.784,2.553c1.543,3.831,1.327,8.138-2.351,10.924l-2.588-3.836c1.928-1.58,2.58-4.075.156-7.668-2.6-3.854-5.095-3.415-6.3-2.6-1.623,1.094-2.57,3-.675,8.067,2.114,5.653,2.354,10.337-1.674,13.054a6.685,6.685,0,0,1-3.291,1.157Zm-25.24-41.588c3.2-.857,3.485-2.641,3.218-3.642-.361-1.346-1.427-2.427-5.282-2.326a14.169,14.169,0,0,1-5.021-.6l.009,5.2,1.943-.52C-7867.271-5740.569-7865.74-5739.549-7862.756-5740.35Zm12.2-23.393c-.8,3.463.28,5.894,2.515,6.409,1.948.449,3.543-.757,5.826-5.131,2.115-4.049,4.961-8.226,9.991-7.757l-5.425-3.144-7.1,4.1-.322,1.394a5.577,5.577,0,0,0-2.04-.03l-2.1,1.212A6.737,6.737,0,0,0-7850.556-5763.743Zm11.617,32.385,1.374-3.087c1.784.693,3.382.3,4.49-2.187,1.051-2.362.618-4.246-.905-4.924-1.328-.59-2.633.05-4.869,2.855s-5.1,5.6-9.072,3.828c-2.863-1.275-3.479-4.143-2.782-7.1l-3-1.336,1.867-4.193,3.032,1.352c1.767-2.429,4.5-3.954,7.64-2.761l-1.37,3.074c-1.716-.579-3.5-.02-4.786,2.858-1.376,3.087-.145,4.457.821,4.886,1.3.577,2.84.426,5.234-2.692,2.671-3.481,5.464-5.435,8.692-4,2.7,1.2,3.486,4.163,2.866,7.135l3.018,1.343-1.867,4.191-3.059-1.363a6.177,6.177,0,0,1-4.95,2.58A6.423,6.423,0,0,1-7838.938-5731.357Z" transform="translate(7886.5 5788.2)" fill="url(#linear-gradient)"/>
    </g>
  </g>
</svg>
