<svg xmlns="http://www.w3.org/2000/svg" xmlns:xlink="http://www.w3.org/1999/xlink" width="139.839" height="152.282" viewBox="0 0 139.839 152.282">
  <defs>
    <linearGradient id="linear-gradient" x1="0.938" y1="0.774" x2="0" y2="0.225" gradientUnits="objectBoundingBox">
      <stop offset="0" stop-color="#c373f3"/>
      <stop offset="1" stop-color="#aab6ef"/>
    </linearGradient>
    <filter id="stopSickReady" x="0" y="0" width="139.839" height="152.282" filterUnits="userSpaceOnUse">
      <feOffset input="SourceAlpha"/>
      <feGaussianBlur stdDeviation="10" result="blur"/>
      <feFlood flood-color="#70f"/>
      <feComposite operator="in" in2="blur"/>
      <feComposite in="SourceGraphic"/>
    </filter>
  </defs>
  <g transform="matrix(1, 0, 0, 1, 0, 0)" filter="url(#stopSickReady)">
    <path id="stopSickReady-2" data-name="stopSickReady" d="M-1139.919-3905.28l-.081-46.14,39.838-23,39.918,23.141.083,46.141-39.839,23Zm41.591,13.33,2.539-1.466c.119-1.236-.985-2.1-2.539-2.75Zm-5.98-1.516,2.511,1.456v-4.156C-1103.417-3895.488-1104.424-3894.726-1104.308-3893.466Zm14.066-27.886a5.7,5.7,0,0,1,2.115,4.722c0,1.332-.486,3.857-3.743,5.8a12.085,12.085,0,0,1-2.418,1.114c2.383,1.2,3.761,3.1,3.761,5.271,0,3.142-2.61,4.935-5.562,6a4.766,4.766,0,0,1,2.23,3.816c0,.03,0,.061,0,.092l26.051-15.04-.065-37.3-32.274-18.707-32.206,18.593.066,37.3,25.98,15.06v-.021a4.581,4.581,0,0,1,2.243-3.806c3-2.071,10.064-3.525,10.064-5.992,0-1.482-2.96-2.329-4.333-2.784v2.21l-3.467,1.547v-3.759c-1.37.452-4.339,1.3-4.339,2.786,0,.9.423,1.426,1.794,2.119a10.9,10.9,0,0,0-3.027,2.155,5.381,5.381,0,0,1-2.233-4.274c0-2.568,1.931-4.76,5.178-5.862,8.77-2.914,9.511-3.014,10.882-3.831a3.965,3.965,0,0,0,1.865-2,4.98,4.98,0,0,1-1.877-.851c-1.754-1.268-2.53-3.351-1.736-4.656a2.227,2.227,0,0,1,1.991-1A4.761,4.761,0,0,1-1090.243-3921.353Zm-2.89,1.2a.873.873,0,0,0,.868.881.873.873,0,0,0,.867-.881.874.874,0,0,0-.867-.882A.875.875,0,0,0-1093.132-3920.148Zm-18.873,3.515a5.682,5.682,0,0,1,2.111-4.72c1.818-1.615,4.185-1.711,5.051-.291.8,1.3.017,3.386-1.738,4.656a4.956,4.956,0,0,1-1.876.851c.358,1.156,1.815,2.076,2.932,2.542l-.02.007a13.124,13.124,0,0,0-3.811,2.008A6.38,6.38,0,0,1-1112-3916.633Zm3.268-3.516a.873.873,0,0,0,.867.882.873.873,0,0,0,.867-.879.873.873,0,0,0-.867-.881A.872.872,0,0,0-1108.737-3920.149Zm6.921-15.2a3.454,3.454,0,0,1-1.734-2.987,3.469,3.469,0,0,1,3.468-3.468,3.467,3.467,0,0,1,3.466,3.468,3.452,3.452,0,0,1-1.733,2.987v4.817c2.6,0,3.45-3.633,5.085-5.268a7.637,7.637,0,0,1,5.581-2.533h11.876c0,2.657-1.865,5.2-5.921,5.2l4.186,1.735a5.2,5.2,0,0,1-6.8,2.815l-1.353-.561,2.947,2.947a5.8,5.8,0,0,1-7.837-.038,3.456,3.456,0,0,1-3.007,1.771,3.554,3.554,0,0,1-3.029-1.762,3.853,3.853,0,0,1-1.732,1.744v8.686c-1.223.393-2.4.769-3.468,1.109Zm-4.76,10.887a3.455,3.455,0,0,1-3.007-1.771,5.8,5.8,0,0,1-7.838.038l2.946-2.947-1.35.561a5.2,5.2,0,0,1-6.8-2.815l4.185-1.735c-4.057,0-5.92-2.545-5.92-5.2h11.874a7.64,7.64,0,0,1,5.583,2.533c1.2,1.205,1.985,3.485,3.353,4.605v3.489a3.172,3.172,0,0,1-2.991,3.244Z" transform="translate(1170 4004.42)" fill="url(#linear-gradient)"/>
  </g>
</svg>
