<svg xmlns="http://www.w3.org/2000/svg" xmlns:xlink="http://www.w3.org/1999/xlink" width="180.001" height="858.001" viewBox="0 0 180.001 858.001">
  <defs>
    <linearGradient id="linear-gradient" x1="0.5" x2="0.5" y2="1" gradientUnits="objectBoundingBox">
      <stop offset="0" stop-color="#fff"/>
      <stop offset="1" stop-color="gray" stop-opacity="0"/>
    </linearGradient>
  </defs>
  <path id="Вычитание_62" data-name="Вычитание 62" d="M-2364-11244h-180v-392.933l29.525-15.841.039-.021.043.021,38.73,20.416v-55.934c-.784.579-1.559,1.127-2.3,1.628a64.672,64.672,0,0,1-11,5.975,64.42,64.42,0,0,1-12.158,3.772,64.5,64.5,0,0,1-6.43.983,65.913,65.913,0,0,1-6.624.334,65.8,65.8,0,0,1-6.621-.334,64.821,64.821,0,0,1-6.433-.983,64.514,64.514,0,0,1-12.158-3.772c-1.565-.664-3.115-1.394-4.607-2.169v-4.235a61.166,61.166,0,0,0,9.143,4.184,60.724,60.724,0,0,0,20.677,3.6,60.725,60.725,0,0,0,20.787-3.642,60.9,60.9,0,0,0,9.327-4.312,61.429,61.429,0,0,0,8.4-5.756v-.118l.03-.027a61.331,61.331,0,0,0,9.27-9.415,61.292,61.292,0,0,0,7.058-11.241,60.609,60.609,0,0,0,4.5-12.717,61.132,61.132,0,0,0,1.176-6.8,62.5,62.5,0,0,0,.4-7.037c0-2.067-.105-4.164-.313-6.232-.206-2.015-.517-4.051-.926-6.051a60.325,60.325,0,0,0-3.551-11.44,60.789,60.789,0,0,0-5.619-10.352,61.4,61.4,0,0,0-7.441-9.021,61.684,61.684,0,0,0-9.021-7.443,61.209,61.209,0,0,0-10.354-5.619,60.714,60.714,0,0,0-11.441-3.551c-1.981-.405-4.017-.716-6.05-.923a61.625,61.625,0,0,0-6.232-.313,61.482,61.482,0,0,0-6.229.313,61.053,61.053,0,0,0-6.053.923,60.764,60.764,0,0,0-11.438,3.551,60.892,60.892,0,0,0-6.1,2.993V-12102h180v858h0Zm-129.057-467.418h0l-21.122-12.748-21.121,12.747,5.6-24.024-14.3-12.392v-4.146l20.216-1.716,9.6-22.658,9.6,22.657,24.574,2.087-18.66,16.167,5.607,24.024Z" transform="translate(2544 12102.001)" opacity="0.2" fill="url(#linear-gradient)"/>
</svg>
