<svg xmlns="http://www.w3.org/2000/svg" xmlns:xlink="http://www.w3.org/1999/xlink" width="180" height="857.998" viewBox="0 0 180 857.998">
  <defs>
    <linearGradient id="linear-gradient" x1="0.5" x2="0.5" y2="1" gradientUnits="objectBoundingBox">
      <stop offset="0" stop-color="#fff"/>
      <stop offset="1" stop-color="gray" stop-opacity="0"/>
    </linearGradient>
  </defs>
  <path id="Вычитание_71" data-name="Вычитание 71" d="M-2335-11244h-180v-417.381h104.352a12.139,12.139,0,0,0,12.125-12.125v-42.5a3.016,3.016,0,0,0-1.683-2.716,3.046,3.046,0,0,0-1.349-.316,3.034,3.034,0,0,0-1.828.614,11.986,11.986,0,0,1-7.265,2.493h-48.492v9.094a3.032,3.032,0,0,1-3.028,3.028h-18.187a3.033,3.033,0,0,1-3.031-3.028v-9.094H-2515V-11722h31.614v-3.031a3.034,3.034,0,0,1,3.031-3.031h18.187a3.034,3.034,0,0,1,3.031,3.031v3.031h48.492a12.135,12.135,0,0,0,12.121-12.122v-18.187a12.136,12.136,0,0,0-12.125-12.121h-30.305v-6.062a12.136,12.136,0,0,0-12.125-12.121h-36.367a12.136,12.136,0,0,0-12.125,12.121v6.063H-2515V-12102h180v858Zm-118.077-520.428h-36.367v-6.062h36.367v6.062Z" transform="translate(2515 12101.999)" opacity="0.2" fill="url(#linear-gradient)"/>
</svg>
