<svg xmlns="http://www.w3.org/2000/svg" xmlns:xlink="http://www.w3.org/1999/xlink" width="43.876" height="46.779" viewBox="0 0 43.876 46.779">
  <defs>
    <filter id="Вычитание_91" x="0" y="0" width="43.876" height="46.779" filterUnits="userSpaceOnUse">
      <feOffset dy="1" input="SourceAlpha"/>
      <feGaussianBlur stdDeviation="1.5" result="blur"/>
      <feFlood/>
      <feComposite operator="in" in2="blur"/>
      <feComposite in="SourceGraphic"/>
    </filter>
  </defs>
  <g transform="matrix(1, 0, 0, 1, 0, 0)" filter="url(#Вычитание_91)">
    <path id="Вычитание_91-2" data-name="Вычитание 91" d="M16.145,0h0L13.454,0V5.659H10.761V1.087L7.085,9.26A15.455,15.455,0,0,0,0,21.977c0,8.713,7.824,15.8,17.44,15.8s17.436-7.089,17.436-15.8A15.447,15.447,0,0,0,27.791,9.26L24.209,1.3V5.659H21.523V.005L18.834,0V5.659H16.145V0ZM17.44,13.826a1.433,1.433,0,0,1-1.382-.994l-.672-2.022A1.454,1.454,0,0,1,16.768,8.9h1.34a1.453,1.453,0,0,1,1.38,1.906l-.672,2.022A1.427,1.427,0,0,1,17.44,13.826ZM26.313,21.3a4.028,4.028,0,0,1-1.419-.4l-.246-.091-.047-.018-.436-.162-.357-.13c-1.7-.615-3.3-1.2-3.69-1.776-.394-.614.045-2.947.781-4.16.706-1.159,1.183-1.173,1.2-1.173a.534.534,0,0,1,.132-.015,6.185,6.185,0,0,1,1.93.483c.075.028.156.058.246.088l.026.01.158.056c1.492.536,3.347,1.2,4.4,2.577s0,2.983-.227,3.292a2.772,2.772,0,0,1-1.6,1.255A3.091,3.091,0,0,1,26.313,21.3Zm-17.744,0a3.171,3.171,0,0,1-.867-.159,2.8,2.8,0,0,1-1.6-1.254c-.14-.187-1.315-1.866-.229-3.292,1.051-1.375,2.9-2.041,4.4-2.577l.122-.045.028-.01c.1-.035.191-.069.286-.1a6.047,6.047,0,0,1,1.924-.483.719.719,0,0,1,.1.007l.022,0c.091.008.566.1,1.218,1.178.745,1.215,1.173,3.548.775,4.16-.375.579-1.91,1.133-3.688,1.775l-.349.131c-.233.088-.442.163-.627.23l-.114.04A4.047,4.047,0,0,1,8.569,21.3Z" transform="translate(39.38 41.28) rotate(180)" fill="#fff" opacity="0.5"/>
  </g>
</svg>
