<svg xmlns="http://www.w3.org/2000/svg" width="12.987" height="17.731" viewBox="0 0 12.987 17.731">
  <g id="Сгруппировать_751" data-name="Сгруппировать 751" transform="translate(0 0)">
    <path id="Контур_161" data-name="Контур 161" d="M4.243-32.13a6.376,6.376,0,0,1-.872-3.252,6.363,6.363,0,0,1,.872-3.25,6.492,6.492,0,0,1,2.366-2.379,6.306,6.306,0,0,1,3.25-.877,6.353,6.353,0,0,1,3.256.874,6.468,6.468,0,0,1,2.372,2.372,6.366,6.366,0,0,1,.872,3.259,6.3,6.3,0,0,1-.518,2.521,6.6,6.6,0,0,1-1.39,2.075,6.587,6.587,0,0,1-2.073,1.392,6.286,6.286,0,0,1-2.518.519,6.319,6.319,0,0,1-3.25-.875A6.47,6.47,0,0,1,4.243-32.13Zm-.226,7.973v-2.927H15.553v2.927ZM7.31-37.918a3.443,3.443,0,0,0-1.049,2.536A3.443,3.443,0,0,0,7.31-32.846,3.479,3.479,0,0,0,9.858-31.8a3.479,3.479,0,0,0,2.549-1.043,3.443,3.443,0,0,0,1.049-2.536,3.443,3.443,0,0,0-1.049-2.536,3.479,3.479,0,0,0-2.549-1.043A3.479,3.479,0,0,0,7.31-37.918Z" transform="translate(-3.371 41.888)" fill="#ffef84"/>
  </g>
</svg>
