<svg xmlns="http://www.w3.org/2000/svg" xmlns:xlink="http://www.w3.org/1999/xlink" width="180" height="857.998" viewBox="0 0 180 857.998">
  <defs>
    <linearGradient id="linear-gradient" x1="0.5" x2="0.5" y2="1" gradientUnits="objectBoundingBox">
      <stop offset="0" stop-color="#fff"/>
      <stop offset="1" stop-color="gray" stop-opacity="0"/>
    </linearGradient>
  </defs>
  <path id="Вычитание_67" data-name="Вычитание 67" d="M-2297.476-11244h-180v-412.179h69.81a14.121,14.121,0,0,0,14.1-14.1v-8.462a33.888,33.888,0,0,0-33.85-33.85h-2.439a46.13,46.13,0,0,1-20.127,4.7,46.34,46.34,0,0,1-20.128-4.7h-2.439a34.188,34.188,0,0,0-4.933.357v-24.574a32.844,32.844,0,0,0,27.5,14.813,32.945,32.945,0,0,0,32.908-32.907,32.945,32.945,0,0,0-32.908-32.908,32.845,32.845,0,0,0-27.5,14.814v-329h180v858Zm-96.085-478a18.7,18.7,0,0,0-13.251,5.468,43.747,43.747,0,0,1,8.186,5.8,43.288,43.288,0,0,1,6.6,7.48,42.773,42.773,0,0,1,4.725,8.876,42.892,42.892,0,0,1,2.552,9.983h19.393a9.412,9.412,0,0,0,9.4-9.4v-9.4a18.828,18.828,0,0,0-18.806-18.807Zm9.4-47.01a18.825,18.825,0,0,0-18.8,18.8,18.826,18.826,0,0,0,18.8,18.807,18.828,18.828,0,0,0,18.806-18.807A18.827,18.827,0,0,0-2384.161-11769.012Z" transform="translate(2477.476 12102.001)" opacity="0.2" fill="url(#linear-gradient)"/>
</svg>
