<svg xmlns="http://www.w3.org/2000/svg" xmlns:xlink="http://www.w3.org/1999/xlink" width="179.997" height="858" viewBox="0 0 179.997 858">
  <defs>
    <linearGradient id="linear-gradient" x1="0.5" x2="0.5" y2="1" gradientUnits="objectBoundingBox">
      <stop offset="0" stop-color="#fff"/>
      <stop offset="1" stop-color="gray" stop-opacity="0"/>
    </linearGradient>
  </defs>
  <path id="Вычитание_73" data-name="Вычитание 73" d="M-2348.335-16810h-180v-426.707a54.588,54.588,0,0,0,7.232,3.309,53.853,53.853,0,0,0,11.081,2.887v13.852h19.266v-14.357a41.981,41.981,0,0,0,11.81-4.078,31.282,31.282,0,0,0,8.867-7.037,29.712,29.712,0,0,0,5.549-9.346,32.107,32.107,0,0,0,1.851-11.008,31.123,31.123,0,0,0-1.317-9.291,23.165,23.165,0,0,0-3.955-7.523,31.4,31.4,0,0,0-5.836-5.7,29.12,29.12,0,0,0-6.974-3.824c-4.981-1.91-10.031-3.609-15.009-5.053a53.953,53.953,0,0,1-12.7-5.307,11.483,11.483,0,0,1-3.925-3.652,8.66,8.66,0,0,1-1.308-4.684,9.989,9.989,0,0,1,3.858-7.865c2.566-2.154,6-3.248,10.212-3.248a23,23,0,0,1,10.247,2.455,29.753,29.753,0,0,1,6.531,3.932c1.023.977,1.837,1.814,2.421,2.492l13.276-14.074-2.381-2.527a35.6,35.6,0,0,0-8.225-5.732,45.267,45.267,0,0,0-12.992-4.729v-14.365h-19.266v14.221a39.317,39.317,0,0,0-10.184,3.205,31.355,31.355,0,0,0-8.129,5.623V-17668l180,0v858Zm-155.047-439.205a29.976,29.976,0,0,1-13.28-3.105c-4.21-2.055-6.965-3.719-8.19-4.943s-2.187-2.23-2.851-2.992l-.63.625v-27.057a29.149,29.149,0,0,0,8.966,5.5c4.955,1.914,10,3.6,15.01,5.016a51.717,51.717,0,0,1,12.775,5.307,11.592,11.592,0,0,1,3.925,3.68,8.694,8.694,0,0,1,1.307,4.688,12.222,12.222,0,0,1-1.127,5.271,12.54,12.54,0,0,1-3.382,4.258,15.149,15.149,0,0,1-5.386,2.813A25,25,0,0,1-2503.382-17249.205Z" transform="translate(2528.332 17668)" opacity="0.2" fill="url(#linear-gradient)"/>
</svg>
