<svg xmlns="http://www.w3.org/2000/svg" xmlns:xlink="http://www.w3.org/1999/xlink" width="200.002" height="64.078" viewBox="0 0 200.002 64.078">
  <defs>
    <linearGradient id="linear-gradient" x1="1.078" y1="1" x2="0" y2="0.12" gradientUnits="objectBoundingBox">
      <stop offset="0" stop-color="#fff"/>
      <stop offset="1" stop-color="gray" stop-opacity="0"/>
    </linearGradient>
  </defs>
  <path id="Объединение_70" data-name="Объединение 70" d="M-23593-4699v-60h152.621a29.957,29.957,0,0,0-4.619,16,30.031,30.031,0,0,0,30,30,30.1,30.1,0,0,0,22-9.6v23.6Zm171.285-28.516a5.57,5.57,0,0,1,5.57-5.56,5.568,5.568,0,0,1,5.561,5.56,5.573,5.573,0,0,1-5.561,5.565A5.575,5.575,0,0,1-23421.715-4727.518Zm2.184-8.71a1.457,1.457,0,0,1-1.455-1.451v-.48c0-4.855,3.559-6.838,6.412-8.437l.2-.112c2.445-1.368,3.938-2.3,3.938-4.109a3.539,3.539,0,0,0-1.836-2.9,7.047,7.047,0,0,0-3.689-1.1c-3.346,0-4.818,1.646-6.934,4.334a1.445,1.445,0,0,1-1.137.55,1.45,1.45,0,0,1-.881-.3l-4.193-3.18a1.453,1.453,0,0,1-.326-1.972,17.592,17.592,0,0,1,5.809-5.7,16.247,16.247,0,0,1,8.285-2.007,15.36,15.36,0,0,1,9.6,3.541,11.449,11.449,0,0,1,4.488,8.8,9.2,9.2,0,0,1-2.311,6.407,17.546,17.546,0,0,1-4.523,3.333c-1.8,1.036-3.221,1.859-3.221,3.162v.16a1.456,1.456,0,0,1-1.451,1.451Z" transform="translate(23593 4763.08)" opacity="0.6" fill="url(#linear-gradient)"/>
</svg>
