<svg xmlns="http://www.w3.org/2000/svg" xmlns:xlink="http://www.w3.org/1999/xlink" width="200.002" height="64.998" viewBox="0 0 200.002 64.998">
  <defs>
    <linearGradient id="linear-gradient" x1="1.078" y1="1" x2="0" y2="0.12" gradientUnits="objectBoundingBox">
      <stop offset="0" stop-color="#fff"/>
      <stop offset="1" stop-color="gray" stop-opacity="0"/>
    </linearGradient>
  </defs>
  <path id="Объединение_69" data-name="Объединение 69" d="M-23593-4699v-60h152.621a29.957,29.957,0,0,0-4.619,16,30.031,30.031,0,0,0,30,30,30.1,30.1,0,0,0,22-9.6v23.6Zm172.373-21.736a1.058,1.058,0,0,1-.828-1.03v-4.34a17.168,17.168,0,0,1-5.371-3.1l-3.754,2.167a1.054,1.054,0,0,1-1.309-.208,21.916,21.916,0,0,1-4.836-8.349,1.057,1.057,0,0,1,.484-1.237l3.754-2.167a17.081,17.081,0,0,1,0-6.206l-3.754-2.167a1.069,1.069,0,0,1-.484-1.238,21.832,21.832,0,0,1,4.836-8.349,1.057,1.057,0,0,1,1.309-.207l3.754,2.167a17.166,17.166,0,0,1,5.371-3.1v-4.34a1.058,1.058,0,0,1,.828-1.03,21.945,21.945,0,0,1,9.635,0,1.058,1.058,0,0,1,.828,1.03v4.34a17.144,17.144,0,0,1,5.371,3.1l3.754-2.167a1.054,1.054,0,0,1,1.309.207,21.724,21.724,0,0,1,4.832,8.349,1.048,1.048,0,0,1-.48,1.238l-3.754,2.167a17.081,17.081,0,0,1,0,6.206l3.754,2.167a1.064,1.064,0,0,1,.48,1.237,21.721,21.721,0,0,1-4.832,8.349,1.058,1.058,0,0,1-1.309.208l-3.754-2.167a17.146,17.146,0,0,1-5.371,3.1v4.34a1.058,1.058,0,0,1-.828,1.03,21.78,21.78,0,0,1-4.807.535A22.054,22.054,0,0,1-23420.627-4720.739Zm-2.225-21.363a7.063,7.063,0,0,0,7.057,7.058,7.065,7.065,0,0,0,7.059-7.058,7.076,7.076,0,0,0-7.059-7.058A7.075,7.075,0,0,0-23422.852-4742.1Z" transform="translate(23593 4764)" opacity="0.6" fill="url(#linear-gradient)"/>
</svg>
