<svg xmlns="http://www.w3.org/2000/svg" xmlns:xlink="http://www.w3.org/1999/xlink" width="180.001" height="857.998" viewBox="0 0 180.001 857.998">
  <defs>
    <linearGradient id="linear-gradient" x1="0.5" x2="0.5" y2="1" gradientUnits="objectBoundingBox">
      <stop offset="0" stop-color="#fff565"/>
      <stop offset="1" stop-color="gray" stop-opacity="0"/>
    </linearGradient>
  </defs>
  <path id="Вычитание_66" data-name="Вычитание 66" d="M-2364-11244h-180v-423.012h84.854a6.524,6.524,0,0,0,6.518-6.516v-40.072a20.655,20.655,0,0,1-3.341.731,28.019,28.019,0,0,1-3.705.246,25.6,25.6,0,0,1-6-.774v20.322h-78.19v-20.322l-.04.009-.01,0-.079.02v-6.666a20.246,20.246,0,0,0,9.152-5.865,20.211,20.211,0,0,0,15.025,6.739,19.915,19.915,0,0,0,8.4-1.836,20.22,20.22,0,0,0,6.628-4.9,20.216,20.216,0,0,0,15.028,6.739,19.907,19.907,0,0,0,8.4-1.836,20.22,20.22,0,0,0,6.627-4.9,20.423,20.423,0,0,0,6.645,4.9,19.878,19.878,0,0,0,8.384,1.836,20.66,20.66,0,0,0,2.788-.185,16.73,16.73,0,0,0,13.061-9.747,19.118,19.118,0,0,0,1.78-8.937,18.7,18.7,0,0,0-2.829-9.089l-13.212-21.094a6.548,6.548,0,0,0-5.519-3.055H-2544V-12102h180v858h0Z" transform="translate(2544 12102.001)" opacity="0.2" fill="url(#linear-gradient)"/>
</svg>
